<svg xmlns="http://www.w3.org/2000/svg" viewBox="0 0 608.38 540.03"><defs><style>.a{fill:#dc0032;}.b{fill:#ffce00;}</style></defs><title>A1-1 korkortonline.se</title><path class="a" d="M559.24,540a49.14,49.14,0,0,0,42.55-73.7l-255-441.77a49.14,49.14,0,0,0-85.1,0L6.58,466.34A49.14,49.14,0,0,0,49.13,540H559.24" transform="translate(0 -0.01)"/><path class="b" d="M546.15,483.35H62.23l242-419.09,242,419.09" transform="translate(0 -0.01)"/><path d="M304.1,313.06,249,298.3,228.12,261l37.31-20.89,54.32,14.56A136,136,0,0,1,420.6,386.07v71.58H360.13V386.07a75.58,75.58,0,0,0-56-73" transform="translate(0 -0.01)"/></svg>