<svg xmlns="http://www.w3.org/2000/svg" viewBox="0 0 608.38 540.03"><defs><style>.a{fill:#dc0032;}.b{fill:#ffce00;}</style></defs><title>A10-1 korkortonline.se</title><path class="a" d="M559.24,540H49.13a49.14,49.14,0,0,1-42.55-73.7L261.64,24.57a49.14,49.14,0,0,1,85.1,0l255,441.77A49.14,49.14,0,0,1,559.24,540" transform="translate(0 -0.01)"/><path class="b" d="M304.19,64.26l-242,419.09H546.15l-242-419.09" transform="translate(0 -0.01)"/><path d="M283.94,333.73l-24.67-7.07-2.41,8.4a13.33,13.33,0,1,1-25.67-7.21l4.64-16.17.33-19.14A32.77,32.77,0,0,1,255.6,265L279,240.72a13.78,13.78,0,0,1,10.44-4.2,153.76,153.76,0,0,1,70.61,20.25,13.78,13.78,0,0,1,6.63,9.1l7,33a32.76,32.76,0,0,1,1.88,33.68l-9.85,16.4-4.64,16.18a13.33,13.33,0,0,1-25.63-7.35l2.45-8.55-24.67-7.07-29.32-8.41M435.61,445.59a6.72,6.72,0,0,0-3.16-11.74l-180-30.94a4.67,4.67,0,0,1-.82-.2,3.51,3.51,0,0,1,0-6.54,5.47,5.47,0,0,1,.82-.21l88.14-16.5h.06a2.83,2.83,0,0,1,.87,0h0a2,2,0,0,1,.29,3.66l-.14,0-43.08,14.06a1.12,1.12,0,0,0-.34,1.94,1.23,1.23,0,0,0,.61.23h0l168.4,19.48a18.51,18.51,0,0,1,8.48,2.68A18.09,18.09,0,0,1,484,434.92,21.44,21.44,0,0,1,479.29,449l-18.63,20.74H373l61.15-23.26,1.48-.89" transform="translate(0 -0.01)"/><path class="b" d="M353.27,269a134.3,134.3,0,0,0-64.48-18.49l-17.63,18.26,87.38,25L353.27,269" transform="translate(0 -0.01)"/><path d="M284.06,445.35a6.81,6.81,0,0,0,.89-10.14,4.73,4.73,0,0,0-1.6-1.12L283,434l-81.66-26.22a6.56,6.56,0,0,1,0-12.47l40.07-14.37a2,2,0,0,0-.84-4l-79.29,13.83a10.93,10.93,0,0,0-7.1,17,14.53,14.53,0,0,0,7.1,4.51l76.35,25.33a2.74,2.74,0,0,1,0,4.91l-78.62,27.21h79.37l45.15-24.08.49-.31" transform="translate(0 -0.01)"/></svg>