<svg xmlns="http://www.w3.org/2000/svg" viewBox="0 0 608.38 540.03"><defs><style>.a{fill:#dc0032;}.b{fill:#ffce00;}</style></defs><title>A14-1 korkortonline.se</title><path class="a" d="M6.58,466.34,261.64,24.57a49.14,49.14,0,0,1,85.1,0l255,441.77A49.14,49.14,0,0,1,559.24,540H49.13a49.14,49.14,0,0,1-42.55-73.7" transform="translate(0 -0.01)"/><path class="b" d="M62.23,483.35H546.15l-242-419.09-242,419.09" transform="translate(0 -0.01)"/><path d="M230.85,328.59a26.8,26.8,0,0,1,.91-4.25c.31-2,.62-4,.92-6q.51-4.57.88-9.15c.13-1.89.28-3.77.47-5.65q2.16-10.54,4.73-21,3.9-14.2,7.56-28.49,2.7-8.93,5.65-17.78a21.61,21.61,0,0,1,3.51-7.43,20,20,0,0,1,6.36-6.07,117.11,117.11,0,0,1,16.79-6.52,14.14,14.14,0,0,0,3.26-1.24,15.85,15.85,0,0,0,4.13-3.43,4.91,4.91,0,0,0,.84-1.62l.09-.44c0-.11,0-.22.05-.33a30.93,30.93,0,0,0,.54-7c0-1.47,0-2.93,0-4.39a1.9,1.9,0,0,0-.29-1.16,39.77,39.77,0,0,1-4.88-15.45,42.72,42.72,0,0,1,1.15-13.23c.37-1.53.79-3,1.28-4.54a13,13,0,0,1,2.46-4,17.32,17.32,0,0,1,6.25-4.87A23,23,0,0,1,307.81,152a17.72,17.72,0,0,1,8.07,3.34,13.62,13.62,0,0,1,1.8,1.68,25.39,25.39,0,0,1,3.78,5.41c.12.27.22.54.32.82a8.16,8.16,0,0,1,.4,2.82l-.21,1.55a35.51,35.51,0,0,1-1.4,5.29,45.76,45.76,0,0,1-.3,10.33c-.21,1.68-.49,3.34-.84,5a13.81,13.81,0,0,1-1,3,15.48,15.48,0,0,1-.76,3.35,3.93,3.93,0,0,1-.6,1.17,14.76,14.76,0,0,1-3.16,2.9c-.78.49-1.56,1-2.36,1.43a5.48,5.48,0,0,1-1.47.52,67.51,67.51,0,0,0-.6,12.22,5.59,5.59,0,0,0,1.68,3.35,65.89,65.89,0,0,0,12.57,7.41,11.64,11.64,0,0,1,4.62,3.14,24.08,24.08,0,0,1,3.68,6,75,75,0,0,1,3.14,14.67q2.1,14.85,3.85,29.73c.36,3.44.68,6.88.93,10.32a30,30,0,0,0,.92,5.06,101.15,101.15,0,0,1,2.34,13.15l1.77,3.89q1.75,4.2,3.38,8.48a9.05,9.05,0,0,1,.33,1.94,14.56,14.56,0,0,1-.23,2.87l-.06.35c-.33,1.23-.65,2.47-1,3.7a68,68,0,0,0,1.72,7.17,3.29,3.29,0,0,0,1.46,2,72.44,72.44,0,0,0,12.93,4.55,18.44,18.44,0,0,0,5.54-.48,10.09,10.09,0,0,0,1.41-2.94,2.69,2.69,0,0,0-.74-2L367.94,334a8.52,8.52,0,0,1-3.5-4.87,6.88,6.88,0,0,1,0-4.48c.27-1,.52-2,.76-3.05a2.5,2.5,0,0,0,0-1.33,2.73,2.73,0,0,0-.32-.61.35.35,0,0,0-.05-.08,7,7,0,0,1-.75-1.83,12.32,12.32,0,0,1,1.09-7.94,9.86,9.86,0,0,1,4.68-5.23,18.17,18.17,0,0,1,14.3-1.72,15,15,0,0,1,6.2,2.89,5.08,5.08,0,0,1,.92,1,14.79,14.79,0,0,1,2.46,7.65,37.73,37.73,0,0,1-1.82,10.05,60.15,60.15,0,0,1-6.51,12l-.86,1a2,2,0,0,0-.33,1.48c.09.93.22,1.85.4,2.76a1.24,1.24,0,0,0,.42.81l.16.13c.21.18.4.38.59.57A37.69,37.69,0,0,1,392.1,353a35.2,35.2,0,0,1,3,7.41q5.3,15.76,10.4,31.59c.29.61.56,1.24.8,1.87a18.87,18.87,0,0,1,1,2.61c.17,1.06.32,2.11.46,3.17a1.56,1.56,0,0,1-.13.64,3.49,3.49,0,0,1-1.56,1.66,4.89,4.89,0,0,1-3-.09,4.48,4.48,0,0,1-1.57-1.12,2.13,2.13,0,0,1-.54-.84,16.08,16.08,0,0,1-.72-2.89,17.83,17.83,0,0,1,0-3.1l-4.2-7.64-6.43-11.83a92.4,92.4,0,0,0,2.89,26.18,35.81,35.81,0,0,1-6.7,4.62l1.39,15.09,1.2,12.95a2.74,2.74,0,0,1,1.07-.41,3,3,0,0,1,3.41,1.78,1.88,1.88,0,0,1,.1.85.24.24,0,0,1,0,.14,53.34,53.34,0,0,1-4.58,6.51,4,4,0,0,1-1.63,1.3,7.8,7.8,0,0,1-2.23.83,1.54,1.54,0,0,1-1-.21.67.67,0,0,1-.22-.33l-10.76-34.52a32.44,32.44,0,0,1-5.12.2l-2.64,36.87a5.45,5.45,0,0,1-2.12,3.65.52.52,0,0,1-.11.1,3.67,3.67,0,0,1-1.54.77,12.21,12.21,0,0,1-3,0,9.06,9.06,0,0,1-1.6-.52c-2.07-1.48-4.17-2.94-6.27-4.38a2.22,2.22,0,0,1-.53-2.56,4.07,4.07,0,0,1,2.39-2.59,4.59,4.59,0,0,1,2.67.24,2.84,2.84,0,0,1,1.25,1,.23.23,0,0,0,.21,0,.26.26,0,0,0,.1-.2l-4.73-35.17a40.46,40.46,0,0,1-9.77-4.95q6-14,10.67-28.56a59,59,0,0,0,1.48-6.58c.33-1.83.63-3.66.92-5.5a12.58,12.58,0,0,0-1.21-7,2.26,2.26,0,0,0-.16-.26,46.84,46.84,0,0,0-4.07-5q-2-2.19-4.14-4.31a17.7,17.7,0,0,1-2.53-3.48c-.5-1-1-2.08-1.4-3.14a12.56,12.56,0,0,1-.29-2.52q.1-4.62.41-9.24c-.8-2.64-1.67-5.24-2.62-7.83a33,33,0,0,0,0-3.85,45.94,45.94,0,0,0-3.31-4.76c-1.25-1.67-2.44-3.38-3.59-5.13a77.79,77.79,0,0,1-5.05-10.88,30.49,30.49,0,0,1-1.63-5.63,35.3,35.3,0,0,0-.92-6.71Q322.79,275,320.62,269l-.45,59.32-5.94,2.8,2,36-6.47,43a4.11,4.11,0,0,1,5.88.3,5.84,5.84,0,0,1,.64,5.46,15.57,15.57,0,0,1-3.32,5.35,114.76,114.76,0,0,1-8,8.67,15.17,15.17,0,0,1-4.68,3.24,10.48,10.48,0,0,1-3,.52,1.8,1.8,0,0,1-1.37-.92,15.6,15.6,0,0,1-1.53-3.19,18.61,18.61,0,0,1-.43-4.4c0-1.83,0-3.66-.07-5.49q.53-6.42,1.12-12.84.47-9.36.49-18.74-.21-8.12-1-16.19-2.16-19.37-4.25-38.74l-3.28.12q-3.69,53.18-7.8,106.3a35,35,0,0,1-3.23,9.1,4.78,4.78,0,0,1-4.23,2.66,7.22,7.22,0,0,1-6.52-2.78,62.3,62.3,0,0,1-9.53-18.55,4.7,4.7,0,0,1,.22-3.42,8.75,8.75,0,0,1,2.41-2.76,3.24,3.24,0,0,1,2.51-.65,15.43,15.43,0,0,1,2.55,1l-3.56-95.48-4-1.81L257.57,306q2.31-21.56,4.73-43.08-1.65,4.32-3.51,8.56c-1,2.49-2,5-3.17,7.39q-3.51,8.4-6.58,17Q247,302.52,245,309.19q-1.76,6-3.31,12a36.52,36.52,0,0,1,.43,6.27,32.68,32.68,0,0,1-1.19,7.15A10,10,0,0,1,239.8,337a13,13,0,0,1-2.52,2.73,1.39,1.39,0,0,1-.36.2,3.93,3.93,0,0,1-2.84-.2,5.79,5.79,0,0,1-3.91-5.63,28.71,28.71,0,0,1,.68-5.46" transform="translate(0 -0.01)"/></svg>