<svg xmlns="http://www.w3.org/2000/svg" viewBox="0 0 608.38 540.03"><defs><style>.a{fill:#dc0032;}.b{fill:#ffce00;}</style></defs><title>A15-1 korkortonline.se</title><path class="a" d="M49.13,540a49.14,49.14,0,0,1-42.55-73.7L261.64,24.57a49.14,49.14,0,0,1,85.1,0l255,441.77A49.14,49.14,0,0,1,559.24,540H49.13" transform="translate(0 -0.01)"/><path class="b" d="M62.23,483.35H546.15l-242-419.09-242,419.09" transform="translate(0 -0.01)"/><path d="M392.78,388.07l7.76,20.18q2.1,4.81,4.54,9.45a23.47,23.47,0,0,0,4.21,5.68l12.38,12.35q1.47,1.68,3,3.32a12.39,12.39,0,0,1,2.1,3,25.26,25.26,0,0,1,1.69,4.1,8.57,8.57,0,0,1-.06,5.39,57.23,57.23,0,0,1-2.1,5.36,11,11,0,0,1-6.76,6,12.86,12.86,0,0,0-2.73,1.22,3.41,3.41,0,0,0-1.63,2.42l-.59,3.85H431l23.3-21.61-26.31-41.12-4.69-7.7-.48-2.48-2.91-13.7-3.63-18.86-4-31.47a29.75,29.75,0,0,1,9.59,8.75l5.21,7.43a15.77,15.77,0,0,1,2.85,5.48l6.27,21.76a17.43,17.43,0,0,0,9.49,9.11,13.19,13.19,0,0,0,7.48.69,6,6,0,0,0,1-11.48,9.65,9.65,0,0,1-2.8-1.69,7.55,7.55,0,0,1-2.57-4.89L446,343a8.7,8.7,0,0,0-2-5.36l-14.33-17.3L416.4,305.47a31.17,31.17,0,0,0-8.37-6.7L395.8,292a15,15,0,0,1-2.28-2.37,6.49,6.49,0,0,1-.68-6.75l6.27-13a11.43,11.43,0,0,0,1.9-5.59,31.86,31.86,0,0,0-7.49-22.81,14.56,14.56,0,0,0-7.86-4.8A29.51,29.51,0,0,0,358,244.74a9,9,0,0,0-2.57,6.17l-.12,8.47a6.08,6.08,0,0,0,.27,2.16l4.55,14.29a8,8,0,0,0,1,1.47,50.89,50.89,0,0,0,8.65,7.87,3.67,3.67,0,0,1,.41,5.62q-2.81,2.71-5.52,5.54a40.14,40.14,0,0,0-9,14.7l-4.2,12.12-7.35,21.41-5.43.43a7.8,7.8,0,0,0-2.63-3.64l-.42-.31a193.31,193.31,0,0,0,3.27-40.39l-.16-6.44a7.3,7.3,0,0,0-2.05-4.64c-1.8-1.87-3.56-3.78-5.26-5.74A144.53,144.53,0,0,0,311.61,265q-5.25-4.11-10.54-8.17a46.41,46.41,0,0,0-13.91-7.34l-7.43-2.41a12.4,12.4,0,0,1-3.27-3.23,5.76,5.76,0,0,1,1.48-8l7.49-5.17a11.55,11.55,0,0,0,4.48-6.17,49.25,49.25,0,0,0,1.47-6.47,41.57,41.57,0,0,0-4.06-25.49,12.8,12.8,0,0,0-11.7-6.94q-5.17.13-10.34-.06a17,17,0,0,0-4.21.38L256.22,187a20.28,20.28,0,0,0-7,3,13.06,13.06,0,0,0-3.52,3.51,16.31,16.31,0,0,1-1.85,2.28,7.73,7.73,0,0,0-2.16,5.21l-.27,14.86a26.52,26.52,0,0,0,2.22,11.85,9.39,9.39,0,0,0,3.48,4.11c1.58,1,3.15,2.11,4.69,3.22a5.25,5.25,0,0,1,2.17,3.79,7.58,7.58,0,0,1-5,7.81,56.59,56.59,0,0,0-5.7,2.37q-3,1.47-6.05,2.85a30.76,30.76,0,0,0-4.92,2.83,13.51,13.51,0,0,0-4,4.48L203.2,305l-24,17.18a99.34,99.34,0,0,1-9.63,6.66,13.29,13.29,0,0,0-4.27,4.17,3,3,0,0,0,.2,3.48,27.06,27.06,0,0,0,7.63,6.46,11.8,11.8,0,0,0,5.24,1.54,4,4,0,0,0,4.17-3.7l.28-3.93a1.34,1.34,0,0,1,.88-1.59l29.8-9.87,15.75-20a261.34,261.34,0,0,1-11.17,24.88,94.87,94.87,0,0,1-18.79,25.19l-2.3,2.2a76.21,76.21,0,0,0,21.6,14.17l2.13.93a65.52,65.52,0,0,0-6.35,22.52q-.49,5.07-.79,10.16a92.81,92.81,0,0,1-2.6,17q-1.65,6.66-3.83,13.19a17.23,17.23,0,0,1-4.42,7,28.81,28.81,0,0,1-9.06,5.92,58.55,58.55,0,0,1-17.34,4.17,10.47,10.47,0,0,0-3.22.78,16.07,16.07,0,0,0-3.38,1.91,5.13,5.13,0,0,0-2,3.14L167,462l47.39,10a12.62,12.62,0,0,0,4.39-10c-.1-3-.24-6-.41-9a12,12,0,0,1,2.2-7.68q5.34-7.53,10.3-15.29a59.2,59.2,0,0,0,9.32-31.7,33,33,0,0,1,1.16-8.67,15.92,15.92,0,0,1,3.53-6.49l2-2.22a81,81,0,0,0,19.81,2l2.64-.06a39.88,39.88,0,0,0,3,15.88,162.4,162.4,0,0,0,9.84,19.93,36.74,36.74,0,0,1,4.54,12.59q.86,5.1,2,10.12a11.92,11.92,0,0,1-.16,6,10.83,10.83,0,0,1-4.42,6.05q-3.9,2.61-8,4.95A35.92,35.92,0,0,0,268,465a5.55,5.55,0,0,0-1.49,3.79v1.89h46.25a21.76,21.76,0,0,0-1-14.17l-3.68-8.59a12.49,12.49,0,0,1-1.43-4.85l-1.14-13.6-.26-6.84-.06-5.86a26.71,26.71,0,0,0-.63-8.17q-.57-2.48-1.06-5a21.87,21.87,0,0,0-2.63-6.91,30.3,30.3,0,0,1-4.17-13.86l-.2-3.85a94.62,94.62,0,0,0,27-11.75l2.82-1.79-7-11.81-4.86-9.93-8-19.81-4.58-14.19-5.48-21.44,24.2,14.66a3.74,3.74,0,0,1,1.21,2.32l1.54,12,.57,7,.37,9.76a12.63,12.63,0,0,1-.69,6.33,29.08,29.08,0,0,0-1.69,7,5.3,5.3,0,0,0,1,3.75,18.88,18.88,0,0,0,7.42,6,2.56,2.56,0,0,0,2.33-.11,2.1,2.1,0,0,1,1.43-.26,6.61,6.61,0,0,0,1.47.1,4.79,4.79,0,0,1,2.05.37,43.14,43.14,0,0,0,16.88,3.44h2.7l8.9-18.92a215,215,0,0,1-.55,41.21,55.13,55.13,0,0,1-3.2,13.4l-2,5.17-3.44,10.28-5.3,19.18-2.9,10a16.43,16.43,0,0,1-5.16,5.33,22.87,22.87,0,0,1-4.49,2.22c-1.72.63-3.46,1.22-5.21,1.79L328.3,452a4.38,4.38,0,0,0-2.63,3.54l-.48,4,36.23,6.55L371,435.29l4.32-12.38,1.79-4.32,7.23-14.82,8.48-15.7" transform="translate(0 -0.01)"/></svg>