<svg xmlns="http://www.w3.org/2000/svg" viewBox="0 0 608.38 540.03"><defs><style>.a{fill:#dc0032;}.b{fill:#ffce00;}</style></defs><title>A16-1 korkortonline.se</title><path class="a" d="M49.13,540a49.14,49.14,0,0,1-42.55-73.7L261.64,24.57a49.14,49.14,0,0,1,85.1,0l255,441.77A49.14,49.14,0,0,1,559.24,540H49.13" transform="translate(0 -0.01)"/><path class="b" d="M62.23,483.35H546.15l-242-419.09-242,419.09" transform="translate(0 -0.01)"/><path d="M342.91,418.37H324.15l-1.37,27.81-40,2.48.47-7.92,15.14-11.3-.44-18.54-53.14-48.6L243.41,365a60.66,60.66,0,0,1,6.8,87.74L245.68,450a55.45,55.45,0,1,1-39.58-93.61v-5a63.5,63.5,0,0,1,29.62,8.15l19.22-43.4a14.35,14.35,0,0,1,8.62-24.65l24.19-25a12.41,12.41,0,0,0,3.47-7.75l-.14-22.33a28.38,28.38,0,0,1,4.82-14.27l3-5.31,3.85-5.22a3.25,3.25,0,0,0-1.06-5.25,11.07,11.07,0,0,0-4.89-.88,10.17,10.17,0,0,1-8.25-6.78l-2.43-10.14-3.73-11.82a20,20,0,0,1,3.34-16.34,7.46,7.46,0,0,1,2.3-2.07,35.23,35.23,0,0,1,19.07-6.26,12.18,12.18,0,0,1,10.27,5.09,35.61,35.61,0,0,1,6.83,16.48c.49,3.52.88,7.06,1.14,10.6a39.21,39.21,0,0,0,7.32,20.05,12,12,0,0,0,3.49,3.21,11.58,11.58,0,0,1,3.47,3.18,79,79,0,0,1,11.51,17.15q1.32,2.64,2.67,5.27a11.43,11.43,0,0,0,1.37,2.07A19.22,19.22,0,0,1,358,239.7c1.57,3.49,3.27,6.93,5.1,10.29l5.22,11.85,2.44,5.58,3.9,10.17,3.55,10q1.72,4.86,3.36,9.75a20.76,20.76,0,0,1-3.39,19.42,29.11,29.11,0,0,1-5.54,5.38l-9.67,16.81,10.92,17.31a60.3,60.3,0,0,1,83.48,63.52h-4.91a55.28,55.28,0,0,1-109.51-1.37" transform="translate(0 -0.01)"/><path class="b" d="M234.17,384.33a39.91,39.91,0,1,1-11.28-8.27,27.77,27.77,0,0,1,2.56,1.42l-4.35,9.62-2.25,4.4-2.45,4a18.69,18.69,0,0,1-7.74,7l-.59-.23a9.84,9.84,0,1,0,7.06,7.81l.67-.34a12.13,12.13,0,0,0,3.88-3q1.84-2.18,3.73-4.29l3.36-5.2,7.06-13.14.34.23m150.59-10.68a39.8,39.8,0,1,1-26.44,44.67h32.21a9.77,9.77,0,1,0,13.2-14.38l-19-30.29" transform="translate(0 -0.01)"/><path class="b" d="M375.76,378.1l16,25.42a7.88,7.88,0,0,0-3.75,5.7H357.7a39.66,39.66,0,0,1,18.06-31.12M357.29,349l7.71,12.1a60,60,0,0,0-27.74,48.09h-13v-2.46l33-57.73m-31.07,10.71,24.21-19.14L324.82,386l1.4-26.3m-29.13,37.34-48.28-44,5.1-11.05H281.1l15.11,26,.88,29.12m-18.63-64.73H257.92l9.31-20.18a12.45,12.45,0,0,0,12.29-8.07l32.11-24.93L323.4,306l-19.66,8.77a36.29,36.29,0,0,0-25.28,17.57" transform="translate(0 -0.01)"/></svg>