<svg xmlns="http://www.w3.org/2000/svg" viewBox="0 0 608.38 540.03"><defs><style>.a{fill:#dc0032;}.b{fill:#ffce00;}</style></defs><title>A18-1 korkortonline.se</title><path class="a" d="M6.58,466.34A49.14,49.14,0,0,0,49.13,540H559.24a49.14,49.14,0,0,0,42.55-73.7l-255-441.77a49.14,49.14,0,0,0-85.1,0L6.58,466.34" transform="translate(0 -0.01)"/><path class="b" d="M546.15,483.35H62.23l242-419.09,242,419.09" transform="translate(0 -0.01)"/><path d="M249.91,275.4a46.37,46.37,0,0,0-34.36-2.76,69.29,69.29,0,0,0-21.44-1.41q5.5,4.25,10.8,8.79a116.16,116.16,0,0,1,1,12.35q-.37,8-.17,16a173.8,173.8,0,0,0,1.43,23.36,10.16,10.16,0,0,0,.55,2.17,9.67,9.67,0,0,0,13.7,4,10.13,10.13,0,0,1,3.48-1.11,1.07,1.07,0,0,0,.46-.14,3.86,3.86,0,0,0,1.83-3.13,14.42,14.42,0,0,1,.07-4.2,21.63,21.63,0,0,1,2.17-9.11,67.42,67.42,0,0,0,2.69-9c2.09-.89,4.13-1.87,6.12-3A42.72,42.72,0,0,1,245,331l.17,9.53q.13,5.49.15,11c0,.31,0,.62,0,.92a39.42,39.42,0,0,0,4.4,15.37A98,98,0,0,0,223,376.38l-.05,0a37.53,37.53,0,0,0-8.49,5.3,7.45,7.45,0,0,0-1.5,1.67l-.06.11a8.4,8.4,0,0,0-.88,6.35,213.47,213.47,0,0,0,8.88,28.91l1.14,3.1q1.09,3,2.43,5.9a10.33,10.33,0,0,0,.87,1.47,27.6,27.6,0,0,0,20.22,11.72l0-14.45-6.05,0a10.49,10.49,0,0,0-6.64-6.22,1.86,1.86,0,0,1-.58-.29,3.34,3.34,0,0,1-1.26-2.06.13.13,0,0,1,0-.06q-1.31-10.47-3.38-20.82l-.21-.91a2.52,2.52,0,0,1,2.12-3,92.27,92.27,0,0,0,12.1-2.33,56.23,56.23,0,0,0,16.25-3c1.72-.58,3.42-1.23,5.08-1.94a22.43,22.43,0,0,0,3.46-1.92,34.34,34.34,0,0,0,4.21,2.87,2.29,2.29,0,0,1,.52.41,19.7,19.7,0,0,1,3,4.32q2.33,4.59,4.91,9l0,0a202.16,202.16,0,0,1,20.8,42.14l0,0a7.83,7.83,0,0,1-.61,7,3.44,3.44,0,0,1-.28.36,41.3,41.3,0,0,0-8.49,14.3l16.06.12.24-3c0-.38,0-.75.06-1.12a10.64,10.64,0,0,1,2.48-6.64,5.37,5.37,0,0,1,1.14-1,6.18,6.18,0,0,0,2.26-7.41,1.42,1.42,0,0,0-.08-.18c-1.3-2.48-2.54-5-3.7-7.54h0A41.27,41.27,0,0,1,305.38,425c0-.39-.1-.77-.17-1.15-.68-3.32-1.51-6.61-2.46-9.86q-.93-3.64-1.95-7.25-1.44-6.13-2.56-12.32-.81-5.54-2-11a142,142,0,0,0,46.23-.49q3.9-.69,7.76-1.57,2,8.33,4.15,16.62h0a111.66,111.66,0,0,0,4.79,13.89,6.26,6.26,0,0,1,0,4.68,56.13,56.13,0,0,1-5.13,10.07q-4.44,6.64-9.39,12.91a76.59,76.59,0,0,0-7.82,11.19l-.19.29a57.56,57.56,0,0,0-8.14,13.52l16.91.21.57-6.15.18-1.59a.85.85,0,0,1,.14-.34,1.11,1.11,0,0,1,.51-.37l.25-.07.07,0a4.15,4.15,0,0,0,1-.47,7.11,7.11,0,0,0,2.86-3.64l.31-.84a69.65,69.65,0,0,1,7.12-13,83.78,83.78,0,0,1,18.72-18.82l.07,0a5.27,5.27,0,0,0,2.22-5.24c-.47-2.78-1-5.55-1.55-8.31v0a26.54,26.54,0,0,1-.53-3.17,21.2,21.2,0,0,1,8.82-18.94,66.79,66.79,0,0,0,6.43,7.9h0a52.85,52.85,0,0,0,5.68,5.11q4.89,3.46,9.48,7.3c2.23,1.9,4.37,3.89,6.45,6h0q1.73,1.69,3.38,3.46a3.23,3.23,0,0,1,.23.27,28.68,28.68,0,0,1,3.41,5.75l.37.78c.7,1.44,1.33,2.9,1.9,4.4.86,2.52,1.67,5.05,2.43,7.61l.72,2.32q1.77,5.64,3.3,11.36a9,9,0,0,1-1.09,7h0a44.09,44.09,0,0,0-6.27,11.44l15.78.17.15-7.1a2.81,2.81,0,0,0,0-.29,1.18,1.18,0,0,1,.56-1.19h0a8.1,8.1,0,0,0,2.77-2.43l0,0a5,5,0,0,0,.58-4.27q-3.75-12.3-7.22-24.67v0L433,416.9h0a28.11,28.11,0,0,1-1-11.57,6.46,6.46,0,0,0-1.43-5.12q-3-3.75-6-7.59a4,4,0,0,1-.29-.39,40,40,0,0,1-6.65-17.11,78.08,78.08,0,0,1-.38-12.7,75.53,75.53,0,0,0-.89-17.32,27.9,27.9,0,0,0-.77-3.25,48.29,48.29,0,0,0-10.37-18.16,16.74,16.74,0,0,1,9.63,2.44A7.28,7.28,0,0,1,416,327a11.94,11.94,0,0,1,2.31,2.8A51.66,51.66,0,0,1,424,346.54a251,251,0,0,1,2.28,37.57l21-.34q-.7-16-2.83-31.95a44.46,44.46,0,0,0-8.34-22.49,26.82,26.82,0,0,0-9.55-8.81,34.48,34.48,0,0,0-25.45-1.86q-8.07-2.58-16.24-4.92a48.84,48.84,0,0,0-25.62-.49q-8.36,1.81-16.86,2.8-2.36-9.74-4.93-19.43c-.49-1.4-1-2.8-1.57-4.18a27.17,27.17,0,0,1-2.32-7.73c-.4-2.68-.71-5.38-.92-8.08a50.8,50.8,0,0,0-2.1-9,75.41,75.41,0,0,0-5.18-13.3,12.39,12.39,0,0,1-1.63-9.51,37.22,37.22,0,0,0,1.9-10.87,23.94,23.94,0,0,0-2-8.82,9.32,9.32,0,0,0-2.15-2.8,12.87,12.87,0,0,0-9.34-2.06,27.46,27.46,0,0,0-5.31,1.22,6.79,6.79,0,0,0-5,6.73,11.68,11.68,0,0,0,.47,3.94,21.92,21.92,0,0,0,.37,2.41,11.31,11.31,0,0,0-.33,5.48,22.33,22.33,0,0,0,2,7.73,3.69,3.69,0,0,0,2.64,1.39,15.48,15.48,0,0,0,3.33.19,14.2,14.2,0,0,1-.93,7.35A20.63,20.63,0,0,0,302,269q-2.67,15.56-4.13,31.28A84,84,0,0,0,283,308.29a75.17,75.17,0,0,1-14.17-16.13,56.22,56.22,0,0,0-7.76-9.11,59,59,0,0,0-11.13-7.65" transform="translate(0 -0.01)"/></svg>