<svg xmlns="http://www.w3.org/2000/svg" viewBox="0 0 608.38 540.03"><defs><style>.a{fill:#dc0032;}.b{fill:#ffce00;}</style></defs><title>A19-1 korkortonline.se</title><path class="a" d="M49.13,540a49.14,49.14,0,0,1-42.55-73.7L261.64,24.57a49.14,49.14,0,0,1,85.1,0l255,441.77A49.14,49.14,0,0,1,559.24,540H49.13" transform="translate(0 -0.01)"/><path class="b" d="M62.23,483.35H546.15l-242-419.09-242,419.09" transform="translate(0 -0.01)"/><path d="M311.57,303a64.65,64.65,0,0,0-14,1.38q-6.45,1.36-12.76,3.25l-3.5,1L280,309l.53-.76,1.18-1.47,1-1.21,1.56-1.6,1.46-1.39,2-1.7,3.22-2.8,2.75-2.48,2.23-2.31,2.75-3.5a30.19,30.19,0,0,0,1.91-4,15.31,15.31,0,0,0,1-5.22,22.83,22.83,0,0,0-.56-5.53.29.29,0,0,0-.27-.23h-.19a92.64,92.64,0,0,1-6.53,10.81A17.29,17.29,0,0,1,289.7,290l-1.24.85a31.84,31.84,0,0,0,1.32-8.67l0-1.92-.11-2.53-.22-1.52a1.12,1.12,0,0,0-1.07-.71,1.09,1.09,0,0,0-1,.77l-.46,1.4-.78,2-.94,2.51-.73,1.67-1.16,2.37a7.46,7.46,0,0,1-2,2.67,2.13,2.13,0,0,1-3.5-1.89l.77-5.87a12.19,12.19,0,0,0,.31-1.79.58.58,0,0,0-.39-.6,1.32,1.32,0,0,0-1.27.22l-2.86,2.28-2.14,2.08-1.94,1.95L266,290.15a1.52,1.52,0,0,1-1.57.36,1.54,1.54,0,0,1-1-1.25l-.35-2.6-.36-2.62-.25-2.7-.15-2.89-.14-1.07a.56.56,0,0,0-.53-.39,1.42,1.42,0,0,0-1.09.53,43,43,0,0,0-5.33,8.78,10,10,0,0,1-1.8,2.67,1.58,1.58,0,0,1-2.65-.59c-.39-1.18-.78-2.38-1.15-3.58a5.86,5.86,0,0,1-.16-2.88,19.55,19.55,0,0,0,.24-6.2l-.29-2.43a1.31,1.31,0,0,0-2.34-.73,19.42,19.42,0,0,0-4.11,10.88l-.09,1.45a35,35,0,0,1-5.75-8.39l-.31-.62-1.56,8.8-.61-1.38-.54-1.29-.84-1.93-1.57-3.1-2.15-3.23c-.38-.38-.78-.75-1.18-1.1a2.28,2.28,0,0,0-3.79,1.74c0,.34,0,.67,0,1a19,19,0,0,0,1.13,5.64l.74,2,1.05,2.31a.55.55,0,0,1,.13.45.9.9,0,0,1-.35.62.93.93,0,0,1-.69.17l-.36-.06-.74-.27-.74-.44-1.24-.8L219,281.43l-.69-.55-.79-.68-.64-.62-.49-.59-.93-.92-.22-.19a.47.47,0,0,0-.43-.08.45.45,0,0,0-.3.31,2.82,2.82,0,0,0,0,1.47,43.79,43.79,0,0,0,2,6l1.42,3.5.36,1.1.08.47a.59.59,0,0,1-.3.66,1.25,1.25,0,0,1-1.16,0l-1.48-.85-1.77-1.07-1.72-1.1-1.85-1.24-2.94-2.29-3.78-3.24-3.19-3.09a2.41,2.41,0,0,0-.77-.38.87.87,0,0,0-1,.32,1.19,1.19,0,0,0-.14,1.18,40.55,40.55,0,0,0,8,12.07,50.28,50.28,0,0,0,5,4.54,53,53,0,0,0,6.58,4.43c.73.42,1.46.86,2.17,1.32,1,.67,2,1.37,3,2.12a15.56,15.56,0,0,1,2.74,2.7l.7.9a92.77,92.77,0,0,0-14.83,2.11,33.71,33.71,0,0,0-11.2,4.78,13.26,13.26,0,0,0-5.83,9.24,5.36,5.36,0,0,0,3.57,5.81,2.12,2.12,0,0,0,1.95-.3l.33-.25a6.52,6.52,0,0,0,3,3.94,10.91,10.91,0,0,0,6.22,1.44c2-.12,3.95-.31,5.91-.55q2.67-.33,5.31-.79a12.17,12.17,0,0,1,3.3-.14,4.41,4.41,0,0,1,2.87,1.43,10.89,10.89,0,0,1,1.49,2.09,32.07,32.07,0,0,0,2.34,3.63,27.1,27.1,0,0,0,8.85,7.68q2.79,1.51,5.7,2.76a34,34,0,0,0,6.31,2q5.69,1.23,11.44,2.15a34.09,34.09,0,0,1,6.94,1.88,19.39,19.39,0,0,1,5.3,3.08,10.19,10.19,0,0,1,3.16,7.57l-.12,4.13a14.48,14.48,0,0,0,1.7,7.27,13.56,13.56,0,0,1,.73,1.6,8.33,8.33,0,0,1,.34,1.18,15.19,15.19,0,0,1,.23,5.12c-.21,1.62-.49,3.24-.85,4.84a13.51,13.51,0,0,1-1.56,3.93c-1.21,2-2.52,4-3.92,5.95l-6.09,8.36-2.28,3.19-3.69,5.32-3.33,4.83-3.35,4.9L252,434.92a36.88,36.88,0,0,1-4.74,6.63q-3,3.33-5.68,6.92a24,24,0,0,1-6.1,5.7L232.59,456l-3.08,1.76-3.45,1.87-.82.51a2.71,2.71,0,0,1-.35.24.8.8,0,0,0-.36.93,1.92,1.92,0,0,0,1.27,1.3,10.51,10.51,0,0,0,3.74.5c3.21-.15,6.41-.33,9.62-.54a22.17,22.17,0,0,0,7.94-2.07,18,18,0,0,0,2.49-1.43,11.09,11.09,0,0,0,2.59-2.48l1.46-1.92q5.14-6.71,9.9-13.68a87.84,87.84,0,0,1,5.75-7.55q4.72-5.56,9.17-11.37,5.48-7.14,11.62-13.73c1.15-1.23,2.27-2.48,3.38-3.75a38.77,38.77,0,0,1,2.75-2.84,12.29,12.29,0,0,0,3.26-5.11q.82-2.53,1.86-5A9.32,9.32,0,0,1,319,393l.61,2.48.41,1.95.45,2.45.23,1.4q1.33,5.37,2.26,10.85c.17,1,.37,2,.58,3.08a16.72,16.72,0,0,0,.8,2.67,41,41,0,0,0,3.93,7.65,20.37,20.37,0,0,0,4.5,4.9l7.07,5.54,4.32,3.75,1.93,1.82-3.92,1.65-2.35,1.13-2.21.93c-1.85.57-3.71,1.17-5.55,1.78a29.35,29.35,0,0,0-3.25,1.3,10.79,10.79,0,0,0-3.58,2.7,2.17,2.17,0,0,0-.53,1.43,6.79,6.79,0,0,0,1.87,4.64,6.71,6.71,0,0,0,3.24,1.91,18.81,18.81,0,0,0,5.79.54,23.5,23.5,0,0,0,10.68-3.32l8.26-5,.88-.6a91.59,91.59,0,0,0,11.1,7.76,43.84,43.84,0,0,0,7.76,3.63,21,21,0,0,0,5.48,1.16l1.1.08a10.77,10.77,0,0,0-.14-3.58,16.63,16.63,0,0,0-1.18-3.55,13.78,13.78,0,0,0-1.52-2.5,45.74,45.74,0,0,0-3.19-3.75l-1.3-1.37L371.94,447,370,445.46l-1.75-1.34-1.41-1-1.49-.89-1.38-.72a80.18,80.18,0,0,1,6.79-6.24q5.28-4.33,10.6-8.63a44.89,44.89,0,0,0,8.77-9.43,8.69,8.69,0,0,0,1.55-4.56l.06-1.22.26-2.81a56.63,56.63,0,0,1,5.76-19.18l.54-1.07A18.45,18.45,0,0,0,414,398.13a21.12,21.12,0,0,0,13.2-4.09l3.64-2.68,3-2.06,3.23-2a3,3,0,0,1,1.21-.3,7.18,7.18,0,0,1,4.66,1.49,5.37,5.37,0,0,1,1.18,1.29,13.37,13.37,0,0,1,1,1.87,11.16,11.16,0,0,1,.82,3c.1.74.2,1.47.31,2.21.16,1.08.3,2.17.43,3.27a28.21,28.21,0,0,0,1,4.9c.49,1.63.94,3.26,1.37,4.9a42.32,42.32,0,0,0,4.79,11.37,54.36,54.36,0,0,0,5.75,7.81,14.73,14.73,0,0,0,2.89,2.51l3.87,2.56a17,17,0,0,0,9.45,2.83,2.78,2.78,0,0,0,2.7-2.12,11.92,11.92,0,0,0-1.11-8.6,34.18,34.18,0,0,0-8.31-10q-1.67-1.36-3.38-2.65a7,7,0,0,1-2-2.28,50.74,50.74,0,0,1-4.59-11.7,104.26,104.26,0,0,1-2.64-15l-.46-4.52-.22-2.67-.09-1.3a16.28,16.28,0,0,0-1.09-5.94,9,9,0,0,0-5.61-5.34,5.16,5.16,0,0,0-2.67-.14l-1.54.34-1.57.34-1.27.34-1.32.33-1.95.39-2.09.57-2.23.57-2.08.53-1.21.45a9.24,9.24,0,0,1-1.84.68,1.89,1.89,0,0,1-.82,0,4.24,4.24,0,0,1-3.47-4.48,61.27,61.27,0,0,0-.25-11.57l-.17-1.42a2.36,2.36,0,0,0,1.27-.68,11.83,11.83,0,0,0,3.3-8.82,10,10,0,0,0-1.7-5.08A30.74,30.74,0,0,0,416,327.18l-3.52-1.83-1.84-.76-1.88-.73-1.67-.68-1.77-.71-1.95-.75c-.92-.27-1.84-.52-2.76-.74a44.62,44.62,0,0,0-7.87-1.16c-2.14-.12-4.29-.17-6.43-.16-3.35,0-6.69,0-10-.12a99.82,99.82,0,0,0-10.52.31,17.27,17.27,0,0,1-2,.06,48.64,48.64,0,0,1-7.71-.85,37,37,0,0,1-5.56-1.55c-1.33-.49-2.68-.94-4-1.35a15.47,15.47,0,0,1-2.53-1,31.83,31.83,0,0,0-2.9-1.36,34.68,34.68,0,0,1-4.21-2q-2.24-1.26-4.51-2.45t-4.63-2.51a24.93,24.93,0,0,0-5.25-2.2A40.88,40.88,0,0,0,311.57,303" transform="translate(0 -0.01)"/><path class="b" d="M374.52,403.84a43.08,43.08,0,0,1-4,12.09,52.28,52.28,0,0,1-15.33,18.15l-.92-.81a78.57,78.57,0,0,1-10-10.61L341,418.59a25.19,25.19,0,0,1-3-6.34,34.11,34.11,0,0,1-1.48-8.33,101.4,101.4,0,0,1,.49-16.25,39.17,39.17,0,0,1,5.63.07,28.26,28.26,0,0,1,4.58.77,44.86,44.86,0,0,0,21.36.13,25.75,25.75,0,0,0,6.66-2.6l.14,2.08a65.22,65.22,0,0,1-.85,15.72" transform="translate(0 -0.01)"/></svg>