<svg xmlns="http://www.w3.org/2000/svg" viewBox="0 0 608.38 540.03"><defs><style>.a{fill:#dc0032;}.b{fill:#ffce00;}</style></defs><title>A2-1 korkortonline.se</title><path class="a" d="M559.24,540a49.14,49.14,0,0,0,42.55-73.7l-255-441.77a49.14,49.14,0,0,0-85.1,0L6.58,466.34A49.14,49.14,0,0,0,49.13,540H559.24" transform="translate(0 -0.01)"/><path class="b" d="M546.15,483.35H62.23l242-419.09,242,419.09" transform="translate(0 -0.01)"/><path d="M354.08,468.23h60.47V316.48a32.13,32.13,0,0,0-48.19-27.83L298.14,328V230.26L267.9,200l-30.23,30.23V377.14A32.13,32.13,0,0,0,285.86,405l68.22-39.39V468.23" transform="translate(0 -0.01)"/></svg>