<svg xmlns="http://www.w3.org/2000/svg" viewBox="0 0 608.38 540.03"><defs><style>.a{fill:#dc0032;}.b{fill:#ffce00;}.c{fill:none;stroke:#000;stroke-linecap:round;stroke-linejoin:round;stroke-width:0.24px;}</style></defs><title>A20-1 korkortonline.se</title><path class="a" d="M49.13,540a49.14,49.14,0,0,1-42.55-73.7L261.64,24.57a49.14,49.14,0,0,1,85.1,0l255,441.77A49.14,49.14,0,0,1,559.24,540H49.13" transform="translate(0 -0.01)"/><path class="b" d="M62.23,483.35H546.15l-242-419.09-242,419.09" transform="translate(0 -0.01)"/><path d="M499.91,451.1v7.29H108l.9-3.46q1.88-7.17,4.23-14.19a56.62,56.62,0,0,1,5.27-11.36c1.36-2.24,2.75-4.45,4.17-6.65a2.76,2.76,0,0,1,1-.9l.85-1.52,3.2-6.93a35.37,35.37,0,0,1,2.89-5.08q1.46-2.1,3.09-4.05a62.44,62.44,0,0,0,5.86-8.21,46.23,46.23,0,0,1,6.15-8.1,17,17,0,0,1,3.33-2.71,9.44,9.44,0,0,0,3.32-3.58,49.64,49.64,0,0,1,6.39-9.36,13.5,13.5,0,0,1,13.64-4.22,37,37,0,0,1,7.32,2.77,55.57,55.57,0,0,1,11.71,7.92l2.48-1.2a295.06,295.06,0,0,0,30.52-17.08l4.6,1.63,5.31-4.48,2.91-3.19,5.54-4a118.39,118.39,0,0,1,21.69-12.56l4.46-4,7.08-6.72a5.91,5.91,0,0,0,1.61-2.65,39.49,39.49,0,0,0,1.46-8.28q.38-5.64.6-11.28.19-4.49.73-9a94.59,94.59,0,0,0,.67-13.77l-.12-4.58a5.31,5.31,0,0,0-.84-2.74l-4.72-10.14-6.39-10.93a17.94,17.94,0,0,1-2.42-8,31.08,31.08,0,0,1,.67-8.33,18.15,18.15,0,0,1,1-3.21,3.05,3.05,0,0,0-.31-2.95,1.88,1.88,0,0,0-2.05-.72,5.84,5.84,0,0,1-5.39-1.22,22,22,0,0,1-6.76-10.81c-.44-1.65-.93-3.28-1.45-4.9a6.21,6.21,0,0,0-1.93-2.85,11.24,11.24,0,0,1-3.7-5.85,15.61,15.61,0,0,1-.06-7.38,13.91,13.91,0,0,1,4.41-7.25,22.14,22.14,0,0,1,7.57-4.29,56.79,56.79,0,0,1,9.12-2.16,8.16,8.16,0,0,1,4.88.79,27.32,27.32,0,0,1,5.21,3.44,11.85,11.85,0,0,1,3.56,5.19c.65,1.92,1.22,3.88,1.69,5.86.29,1.26.56,2.53.78,3.81a23.14,23.14,0,0,0,3,7.9l2.13,3.5a6.7,6.7,0,0,0,3.85,2.95,10.49,10.49,0,0,0,5,.2,61.32,61.32,0,0,1,8.42-1.16,28.3,28.3,0,0,0,6.76-1.32q6.36-2.07,12.8-3.87a19,19,0,0,1,8-.49,109.13,109.13,0,0,1,38.56,13.6c1.22.71,2.43,1.45,3.62,2.22a10.21,10.21,0,0,1,3.87,4.6,22.78,22.78,0,0,1,1.69,6.58q.87,8.69,2.05,17.34A20.84,20.84,0,0,0,389,266.5a12.65,12.65,0,0,0,2.71,2.18,15.55,15.55,0,0,1,5.13,5,5.51,5.51,0,0,1-1.14,7.2,30.92,30.92,0,0,1-3.81,2.71,8.37,8.37,0,0,1-3.32,1.14,1.22,1.22,0,0,0-1.08,1.1l1.08,24.87.17,20.46-.35,9.85.18,8.45L388,357.2l-1,9.23a83.65,83.65,0,0,0,.49,21.15,56.34,56.34,0,0,1,.59,10.93l.18,11.11-.24,12.82-.37,11.83.2,5.62a3.87,3.87,0,0,0,3.79,3.74l.91-.06,5.07-4.17a3.28,3.28,0,0,0,1.14-3.14,25.71,25.71,0,0,1-.41-3.39,3.72,3.72,0,0,1,1-2.71,8,8,0,0,1,1.87-1.51l3.2-1.4,3.39-1.81a47.77,47.77,0,0,0,8.47-5.77l1.69-1.46a6.13,6.13,0,0,1,4.23-1.51,10.63,10.63,0,0,1,5.62,1.77,8.69,8.69,0,0,1,3.2,3.79,71.25,71.25,0,0,0,19.82,26.2,11.51,11.51,0,0,0,5.63,2.5l43.43.14" transform="translate(0 -0.01)"/><path class="b" d="M194.51,383.1l2.18-.37,6-1.3a65.22,65.22,0,0,0,11.58-3.67q3.93-1.67,7.88-3.29a29.06,29.06,0,0,0,9-5.79l4.26-3.56,3.6-3.64,2.28-1.94,2.74-2,2.42-1.77,3.14-1.89,2.24-1.17,2.42-1.24,2.46-1.22,2.65-1.34,1.95-1,1.87-1.08,1.67-1,3.72-1.51,7.23,19.87.27.81.1.75,2.85,9.41,2.38,9.71,1.81,6.23,1.26,4.55L287,407.38l.78,3.68a10.7,10.7,0,0,0,2.6,5,5.69,5.69,0,0,0,1.73,1.27,10.59,10.59,0,0,0,5.54,1,3.37,3.37,0,0,1,2.89,1.2,12.44,12.44,0,0,1,2.79,6.25,2.6,2.6,0,0,1-.25,1.55l-3.11,5-.69,1-7,4a1.77,1.77,0,0,0-.89,1.77l.65,2.33-2.42-.57a42.38,42.38,0,0,0-15.51-.72c-3.79.52-7.56,1.23-11.29,2.1a60.08,60.08,0,0,1-12.25,1.57,28,28,0,0,1-8.25-1c-1.22-.34-2.44-.62-3.68-.86a11.83,11.83,0,0,1-6.31-3.46q-2.22-2.34-4.48-4.62l-3.54-5.17-2.2-3.42-2.27-3.33-2.1-3-3.24-5L213,411.47,210.73,407l-1.65-3.68-1.12-2.2-1-1.77a65.12,65.12,0,0,0-12.48-16.2m108.65,59.72,10.6-7.12.55-.37,1.94-.59,3.95-1,7.65-4.54-.39-1.49a22.58,22.58,0,0,0-3.56-7.53,42.61,42.61,0,0,1-3.76-6.3,13.87,13.87,0,0,1-1.35-5.26,82.07,82.07,0,0,0-2.93-17.75q-2.81-10-6.33-19.74a36.26,36.26,0,0,1-2-8.73,18.73,18.73,0,0,1-.08-2,2,2,0,0,1,.46-1.24l2.36-2.1,2.71-2.18,2.61-2.28,3.15-2.84,2-2.08,8.6-9.47,1.16-1.46.49-.73c.54-.8,1.12-1.58,1.73-2.33a4,4,0,0,1,1.12-1l3.56-2.12,2.53-1.06a2.53,2.53,0,0,1,2.62.41,6.77,6.77,0,0,1,2.18,3.62l.43,4.71.57,4.47,1.2,9.16a49.49,49.49,0,0,1,.06,12.52,18.88,18.88,0,0,0,1,8.81,35,35,0,0,0,2,4.36,48.51,48.51,0,0,1,4.48,11.56,41.75,41.75,0,0,1,1.2,8.55,79.2,79.2,0,0,0,1.81,14.13q.8,3.58,1.5,7.18a1.79,1.79,0,0,0,.86,1.21,1.82,1.82,0,0,0,1.48.16l2,0a1.1,1.1,0,0,1,1,.81,22.66,22.66,0,0,1,.08,12,5.74,5.74,0,0,1-3.69,3.95,25.93,25.93,0,0,1-4.76,1.12,3.76,3.76,0,0,0-3.15,2.85,8,8,0,0,0-.21,1.94,3,3,0,0,1-2.23,3,23.31,23.31,0,0,1-4,.73q-3,.29-6,.73l-6.28.18-7.19-.3-5.9-.92-3.64-.89-5.68-1.16-3.91-.77-4.66-.88M348.1,238.21l4.25.08,3.68.39,5.74,1.13a1,1,0,0,1,.71.57l1.55,3.38,1.06,2.51.77,2.09,1.26,2.83,1.9,4,1.22,2.18,1.36,3.32,1.32,3.89.66,2.87.3,1.12a2.24,2.24,0,0,1-.41,2,2.2,2.2,0,0,1-1.81.86,2.55,2.55,0,0,1-1.36-.41l-2.79-2.73-2.91-3.07-1.67-2-1.38-2.09-1-2a41.2,41.2,0,0,1-2.22-4.94l-3.8-4.4-4.79-5.25-3.9-3.83a.51.51,0,0,1,.08-.79l1.12-1.29a1.29,1.29,0,0,1,1.1-.44" transform="translate(0 -0.01)"/><path class="c" d="M294.17,314.62a.88.88,0,0,0,.61.77" transform="translate(0 -0.01)"/><path class="b" d="M294.78,315.39a1.24,1.24,0,0,0,1.32-.38c1.62-1.89,3.2-3.83,4.72-5.82q1.59-2.07,3-4.28c.8-1.24,1.63-2.48,2.47-3.7a40.25,40.25,0,0,0,2.32-3.75q1.56-2.85,3-5.74a19,19,0,0,0,1.73-5.07c.19-1,.42-2,.67-3a7,7,0,0,0,.22-1.65,3.66,3.66,0,0,0-.93-2.44l-2.14-2.38-2.58-2.06a2.58,2.58,0,0,0-4,.57L303,278.53a9.37,9.37,0,0,0-.73,2.63,26,26,0,0,1-.55,5q-.69,3.36-1.41,6.72a118.08,118.08,0,0,1-3.6,13.07l-.93,2.73-1.25,3.5a5.43,5.43,0,0,0-.36,2.46.88.88,0,0,0,.61.77" transform="translate(0 -0.01)"/></svg>