<svg xmlns="http://www.w3.org/2000/svg" viewBox="0 0 317.48 232.44"><defs><style>.a{fill:#ffce00;}.b{fill:#000;}</style></defs><title>A21-1 korkortonline.se</title><polygon class="a" points="35.99 0 317.48 0 317.48 206.09 35.99 0 35.99 0"/><path class="b" d="M157.13,88.69,137,74l-4.74-8.11a13.4,13.4,0,0,1-1.81-6,23,23,0,0,1,.5-6.25,14.36,14.36,0,0,1,.76-2.41,2.27,2.27,0,0,0-.23-2.21,1.42,1.42,0,0,0-1.53-.54,4.38,4.38,0,0,1-4-.92,16.47,16.47,0,0,1-5.07-8.11c-.33-1.23-.7-2.45-1.09-3.67a4.66,4.66,0,0,0-1.44-2.13,8.44,8.44,0,0,1-2.78-4.4,11.62,11.62,0,0,1,0-5.53,10.42,10.42,0,0,1,3.3-5.44A16.57,16.57,0,0,1,124.45,15a42.25,42.25,0,0,1,6.84-1.62A6.1,6.1,0,0,1,135,14a20.36,20.36,0,0,1,3.91,2.58,8.84,8.84,0,0,1,2.67,3.89c.49,1.44.91,2.91,1.26,4.39.23.95.42,1.91.59,2.86a17.26,17.26,0,0,0,2.23,5.93l1.59,2.62a5,5,0,0,0,2.89,2.22,7.85,7.85,0,0,0,3.76.14,48.1,48.1,0,0,1,6.31-.87,21.44,21.44,0,0,0,5.08-1q4.77-1.56,9.6-2.91a14.44,14.44,0,0,1,6-.37,82.05,82.05,0,0,1,28.92,10.21c.91.53,1.82,1.08,2.71,1.66a7.73,7.73,0,0,1,2.9,3.45,16.88,16.88,0,0,1,1.27,4.94q.66,6.51,1.54,13a15.62,15.62,0,0,0,4.12,8.64,9.48,9.48,0,0,0,2,1.64,11.53,11.53,0,0,1,3.85,3.76,4.13,4.13,0,0,1-.86,5.39,23.94,23.94,0,0,1-2.86,2A6.15,6.15,0,0,1,222,89a.93.93,0,0,0-.81.83l.81,18.65.13,15.34-.26,7.39.1,4.92L164.46,94.06a14.56,14.56,0,0,0,1.19-3.59c.14-.75.31-1.5.5-2.24a4.69,4.69,0,0,0,.16-1.24,2.67,2.67,0,0,0-.69-1.82L164,83.38l-1.93-1.55a1.91,1.91,0,0,0-1.61-.51,1.94,1.94,0,0,0-1.4.94l-1.22,2.12a7.2,7.2,0,0,0-.55,2A20.12,20.12,0,0,1,157.13,88.69Z"/><polygon class="a" points="0 232.44 0 26.35 281.49 232.44 0 232.44"/><path class="b" d="M161.7,144.74l-27.88-20.42-1.63,1.55-3.35,3a89.27,89.27,0,0,0-16.26,9.42l-4.16,3-2.18,2.39-4,3.36-3.45-1.22a221.91,221.91,0,0,1-22.89,12.81l-1.86.9a41.53,41.53,0,0,0-8.79-5.94,26.89,26.89,0,0,0-5.48-2.08,10.15,10.15,0,0,0-10.24,3.17,37.3,37.3,0,0,0-4.79,7,7.08,7.08,0,0,1-2.49,2.69,12.78,12.78,0,0,0-2.49,2,34.57,34.57,0,0,0-4.62,6.08,49.19,49.19,0,0,1-4.39,6.16c-.82,1-1.59,2-2.32,3a25.56,25.56,0,0,0-2.16,3.81l-2.41,5.2-.63,1.14a2,2,0,0,0-.72.68q-1.61,2.46-3.13,5A41.72,41.72,0,0,0,15.45,206q-1.77,5.27-3.17,10.64l-.68,2.6H263.51l-31-22.72-1,.41a6.14,6.14,0,0,0-1.4,1.14,2.81,2.81,0,0,0-.72,2,18.16,18.16,0,0,0,.31,2.54,2.47,2.47,0,0,1-.86,2.36l-3.8,3.12-.68.05a2.91,2.91,0,0,1-2.85-2.8l-.14-4.22.27-8.88.07-3.63-24.61-18a30,30,0,0,1,.27,3.14,59.15,59.15,0,0,0,1.36,10.6q.6,2.68,1.12,5.38a1.38,1.38,0,0,0,.65.91,1.35,1.35,0,0,0,1.11.12l1.47,0a.82.82,0,0,1,.78.61,17,17,0,0,1,.06,9,4.32,4.32,0,0,1-2.77,3,19.92,19.92,0,0,1-3.57.84,2.8,2.8,0,0,0-2.36,2.13,6,6,0,0,0-.16,1.46,2.26,2.26,0,0,1-1.67,2.21,17.58,17.58,0,0,1-3,.55c-1.51.14-3,.33-4.51.55l-4.7.13-5.4-.22-4.42-.7-2.73-.66-4.26-.87-2.94-.57L158,207.6h0l7.95-5.33.41-.28,1.46-.45,3-.73,5.74-3.41-.3-1.12a17.06,17.06,0,0,0-2.67-5.65,31.49,31.49,0,0,1-2.81-4.71,10.27,10.27,0,0,1-1-3.95,61.37,61.37,0,0,0-2.2-13.32q-2.1-7.49-4.75-14.8a27.2,27.2,0,0,1-1.48-6.54,12.46,12.46,0,0,1-.06-1.49,1.44,1.44,0,0,1,.34-.93Z"/><polygon class="b" points="0 0 35.99 0 317.48 206.09 317.48 232.44 281.49 232.44 0 26.35 0 0"/><path class="a" d="M191.68,54.15l3.18.06,2.76.29,4.31.84a.77.77,0,0,1,.53.43l1.16,2.53.8,1.89.57,1.56.95,2.13,1.43,3,.91,1.64,1,2.49,1,2.92.5,2.15.22.85a1.69,1.69,0,0,1-.31,1.47,1.67,1.67,0,0,1-1.36.65,2.06,2.06,0,0,1-1-.31l-2.09-2-2.18-2.3-1.25-1.47-1-1.57L201,69.85a33.22,33.22,0,0,1-1.67-3.7l-2.84-3.3-3.6-3.94L190,56a.38.38,0,0,1-.11-.3.39.39,0,0,1,.17-.29l.84-1A.94.94,0,0,1,191.68,54.15Z"/><path class="a" d="M76.48,162.81l1.64-.28,4.48-1a48.25,48.25,0,0,0,8.69-2.76q2.94-1.25,5.91-2.46a21.67,21.67,0,0,0,6.74-4.35l3.2-2.66,2.7-2.73,1.71-1.46,2-1.49,1.81-1.33,2.36-1.41,1.68-.89,1.81-.93,1.85-.91,2-1,1.46-.78,1.4-.81,1.25-.74,2.79-1.14,5.43,14.91.2.6.08.56,2.13,7.06,1.79,7.29L143,168.8l1,3.41,1.92,8.81.59,2.76a8.08,8.08,0,0,0,1.94,3.76,4.39,4.39,0,0,0,1.3,1,8,8,0,0,0,4.16.75,2.52,2.52,0,0,1,2.17.9,9.48,9.48,0,0,1,2.09,4.69,2,2,0,0,1-.19,1.16l-2.33,3.79-.52.71-5.29,3a1.35,1.35,0,0,0-.67,1.33l.49,1.75-1.81-.43a31.88,31.88,0,0,0-11.64-.54c-2.84.39-5.66.92-8.46,1.57a44.4,44.4,0,0,1-9.19,1.18,20.86,20.86,0,0,1-6.19-.76c-.91-.26-1.83-.47-2.76-.65a8.82,8.82,0,0,1-4.73-2.6c-1.11-1.16-2.23-2.32-3.36-3.46L98.79,197l-1.65-2.56L95.44,192l-1.57-2.27L91.43,186l-1.1-1.86-1.68-3.39-1.24-2.76-.84-1.65L85.84,175a48.76,48.76,0,0,0-9.36-12.15Z"/></svg>