<svg xmlns="http://www.w3.org/2000/svg" viewBox="0 0 608.38 540.03"><defs><style>.a{fill:#dc0032;}.b{fill:#ffce00;}</style></defs><title>A25-1 korkortonline.se</title><path class="a" d="M261.64,24.57,6.58,466.34A49.14,49.14,0,0,0,49.13,540H559.24a49.14,49.14,0,0,0,42.55-73.7l-255-441.77a49.14,49.14,0,0,0-85.1,0" transform="translate(0 -0.01)"/><path class="b" d="M546.15,483.35l-242-419.09-242,419.09Z" transform="translate(0 -0.01)"/><path d="M346.52,453.26V317.19H297.38l68-68,68,68H384.31V453.26H346.52M159.81,400.34l68,68,68-68H246V264.28H208.19V400.34H159.81" transform="translate(0 -0.01)"/></svg>