<svg xmlns="http://www.w3.org/2000/svg" viewBox="0 0 570.41 506.28"><defs><style>.a{fill:#dc0032;}.b{fill:#ffce00;}.c{isolation:isolate;}</style></defs><title>A28-1 korkortonline.se</title><path class="a" d="M285.4.2a46.09,46.09,0,0,0-39.9,23L6.37,437.39a46.06,46.06,0,0,0,39.91,69.09H524.53a46.06,46.06,0,0,0,39.9-69.09L325.31,23.23A46.09,46.09,0,0,0,285.4.2Z" transform="translate(-0.2 -0.2)"/><path class="b" d="M512.24,453.33,285.4,60.43,58.56,453.33Z" transform="translate(-0.2 -0.2)"/><path class="c" d="M182.7,279l45.1-45.1,160.3,160.3L343,439.33Z" transform="translate(-0.2 -0.2)"/><path class="c" d="M343,233.93,388.1,279,227.8,439.33l-45.1-45.1Z" transform="translate(-0.2 -0.2)"/></svg>