<svg xmlns="http://www.w3.org/2000/svg" viewBox="0 0 570.41 506.28"><defs><style>.a{fill:#dc0032;}.b{fill:#ffce00;}</style></defs><title>A36-1 korkortonline.se</title><path class="a" d="M285.4.2a46.09,46.09,0,0,0-39.9,23L6.37,437.39a46.06,46.06,0,0,0,39.91,69.09H524.53a46.06,46.06,0,0,0,39.9-69.09L325.31,23.23A46.09,46.09,0,0,0,285.4.2Z" transform="translate(-0.2 -0.2)"/><path class="b" d="M512.24,453.33,285.4,60.43,58.56,453.33Z" transform="translate(-0.2 -0.2)"/><path d="M419.34,323.51v7.09h-7.09v42.16h9.93v-6.38h2.48a1.78,1.78,0,0,1,1.77,1.77v17a1.77,1.77,0,0,1-.52,1.25,1.73,1.73,0,0,1-1.25.52h-2.48v-7.08h-9.93v7.08H366.86a20.91,20.91,0,0,1-.7,37.21h60.27v3.54h-282v-3.54h58.85a20.91,20.91,0,0,1-.7-37.21h-44v-7.08h-9.92v7.08h-2.48a1.77,1.77,0,0,1-1.77-1.77v-17a1.78,1.78,0,0,1,1.77-1.77h2.48v6.38h9.92V323.51H172V281.34a36.43,36.43,0,0,1,18.42-19.13,26.32,26.32,0,0,1,18.78-23.74,33.46,33.46,0,0,1,22-14.53,10.21,10.21,0,0,1,5.32,0,37.48,37.48,0,0,1,7.79-36.85A41.1,41.1,0,0,1,267,139.61a37.27,37.27,0,0,1,49.25,25.16,23.19,23.19,0,0,1,16.74,28,49,49,0,0,1-5.56,12.74,40,40,0,0,1-5.38,7.06,58.29,58.29,0,0,1-4.34,4.27,25.15,25.15,0,0,1-11,5.7A26.9,26.9,0,0,1,271.23,241a28.11,28.11,0,0,1-34.37,15.24,30.9,30.9,0,0,1-32.6,9.56,24.53,24.53,0,0,1-11,14.18v43.58h36.14V301.89h6.73a15.51,15.51,0,0,1,28.35,0h6.73v21.62H306v-12.4a11,11,0,1,1,22,0v12.4h31.19V277.8H391v10.63H369.74v35.08h10.63v3.9h-3.19v39h28V330.6h-7.09v-7.09Z" transform="translate(-0.2 -0.2)"/><path class="b" d="M221.6,424.14a20.91,20.91,0,0,0,.69-37.21h28.43a20.91,20.91,0,0,0,.7,37.21Zm48.19,0a20.91,20.91,0,0,0,.69-37.21h28.43a20.91,20.91,0,0,0,.69,37.21Zm48.18,0a20.91,20.91,0,0,0,.7-37.21H347.1a20.91,20.91,0,0,0,.69,37.21Z" transform="translate(-0.2 -0.2)"/></svg>