<svg xmlns="http://www.w3.org/2000/svg" viewBox="0 0 719.51 495.55"><defs><style>.a{fill:#7c868d;}.b{fill:#ffce00;}.c{fill:#dc0032;}</style></defs><title>A39-1 korkortonline.se</title><polygon class="a" points="359.75 305.9 662.82 480.87 719.51 382.68 473.14 240.44 719.51 98.19 662.82 0 359.75 174.97 56.69 0 0 98.19 246.37 240.44 0 382.68 56.69 480.87 359.75 305.9"/><rect class="b" x="24.95" y="362.4" width="283.46" height="51.02" transform="translate(-171.63 135.31) rotate(-30)"/><rect class="c" x="-6.23" y="308.39" width="283.46" height="51.02" transform="translate(-148.8 112.48) rotate(-30)"/><rect class="c" x="442.28" y="121.46" width="283.46" height="51.02" transform="translate(4.76 311.69) rotate(-30)"/><rect class="b" x="411.1" y="67.45" width="283.46" height="51.02" transform="translate(27.59 288.87) rotate(-30)"/><rect class="b" x="527.32" y="246.18" width="51.02" height="283.46" transform="translate(-59.53 672.72) rotate(-60)"/><rect class="c" x="558.5" y="192.17" width="51.02" height="283.46" transform="translate(2.83 672.72) rotate(-60)"/><rect class="c" x="109.99" y="5.24" width="51.02" height="283.46" transform="translate(-59.53 190.83) rotate(-60)"/><rect class="b" x="141.17" y="-48.77" width="51.02" height="283.46" transform="translate(2.83 190.83) rotate(-60)"/><polygon class="a" points="351.25 170.06 351.25 42.01 317.24 42.01 317.24 150.42 351.25 170.06"/><polygon class="a" points="402.27 150.42 402.27 42.01 368.26 42.01 368.26 170.06 402.27 150.42"/><rect class="a" x="351.25" y="53.35" width="17.01" height="17.01"/><polygon class="a" points="317.24 330.45 317.24 495.56 351.25 495.56 351.25 310.81 317.24 330.45"/><polygon class="a" points="368.26 310.81 368.26 495.56 402.27 495.56 402.27 330.45 368.26 310.81"/></svg>