<svg xmlns="http://www.w3.org/2000/svg" viewBox="0 0 608.38 540.03"><defs><style>.a{fill:#dc0032;}.b{fill:#ffce00;}</style></defs><title>A4-1 korkortonline.se</title><path class="a" d="M346.74,24.57l255,441.77A49.14,49.14,0,0,1,559.24,540H49.13a49.14,49.14,0,0,1-42.55-73.7L261.64,24.57a49.14,49.14,0,0,1,85.1,0" transform="translate(0 -0.01)"/><path class="b" d="M62.23,483.35l242-419.09,242,419.09H62.23" transform="translate(0 -0.01)"/><path d="M227.54,366.08l-29.6-51.25-8,4.65-4.65-8.05,3.68-19.07,10.16-5.87,18.59,32.2,23,39.81-13.13,7.58m68.55-38.45a32.83,32.83,0,0,1-26.56,2.91,48.91,48.91,0,0,1-31.79-55.06A33.17,33.17,0,0,1,280.1,251a48.92,48.92,0,0,1,31.79,55.07,32.81,32.81,0,0,1-15.8,21.54" transform="translate(0 -0.01)"/><path class="b" d="M288.51,314.5a17.7,17.7,0,0,1-14.18,1.66,33.76,33.76,0,0,1-21.73-37.64,18,18,0,0,1,22.7-13.11A33.76,33.76,0,0,1,297,303.05a17.7,17.7,0,0,1-8.53,11.45" transform="translate(0 -0.01)"/><path d="M546.15,483.35H62.23L425.17,273.8l121,209.55M358.89,257.59V203H343.77v87.29h15.12V257.59m-26.41-22a15.12,15.12,0,1,0-15.12,15.12,15.12,15.12,0,0,0,15.12-15.12m68,22a15.12,15.12,0,1,0-15.12,15.12,15.11,15.11,0,0,0,15.12-15.12" transform="translate(0 -0.01)"/></svg>