<svg xmlns="http://www.w3.org/2000/svg" viewBox="0 0 608.38 540.03"><defs><style>.a{fill:#dc0032;}.b{fill:#ffce00;}</style></defs><title>A7-1 korkortonline.se</title><path class="a" d="M49.13,540a49.14,49.14,0,0,1-42.55-73.7L261.64,24.57a49.14,49.14,0,0,1,85.1,0l255,441.77A49.14,49.14,0,0,1,559.24,540H49.13" transform="translate(0 -0.01)"/><path class="b" d="M62.23,483.35l242-419.09,211.25,365.9,30.71,53.19H62.23" transform="translate(0 -0.01)"/><path d="M374.48,267.84a9.07,9.07,0,0,0,3.78,6.16l37.47,26.24a9.07,9.07,0,0,1,3.15,11l-9.36,22.06a7.57,7.57,0,0,1-10.74,3.59l-11.3-6.52a17,17,0,1,1-28.72-16.58l-80.6-46.54a17,17,0,1,1-28.72-16.58L232.7,241a7.58,7.58,0,0,1-2.77-10.33L241.26,211a7.56,7.56,0,0,1,8.12-3.62l15.1,3.21a11.32,11.32,0,0,0,7.68-1.08l25.38-13.5a9.09,9.09,0,0,1,8.8.16l59.34,34.26a9,9,0,0,1,4.44,6.58l4.36,30.79" transform="translate(0 -0.01)"/><path class="b" d="M358.66,264l-3.09-21.86-20.29-11.72-8.7,15.06L358.66,264" transform="translate(0 -0.01)"/><path d="M504.61,411.39a50.42,50.42,0,0,1-29.59-5.9,17.48,17.48,0,0,0-19.65,0,50.38,50.38,0,0,1-48.38,0,17.48,17.48,0,0,0-19.65,0,50.38,50.38,0,0,1-48.38,0,17.48,17.48,0,0,0-19.65,0,50.38,50.38,0,0,1-48.38,0,17.49,17.49,0,0,0-9.83-3v21.17a17.56,17.56,0,0,1,9.83,3,50.33,50.33,0,0,0,48.38,0,17.48,17.48,0,0,1,19.65,0,50.33,50.33,0,0,0,48.38,0,17.48,17.48,0,0,1,19.65,0,50.33,50.33,0,0,0,48.38,0,17.48,17.48,0,0,1,19.65,0,50.34,50.34,0,0,0,40.42,3.51l11.7,20.27a17.21,17.21,0,0,0-3.74,1.93,50.38,50.38,0,0,1-48.38,0,17.44,17.44,0,0,0-19.65,0,50.38,50.38,0,0,1-48.38,0,17.44,17.44,0,0,0-19.65,0,50.38,50.38,0,0,1-48.38,0,17.44,17.44,0,0,0-19.65,0,50.38,50.38,0,0,1-48.38,0,17.49,17.49,0,0,0-9.83-3v34H62.23L180,279.4H261.1v97.36a17.49,17.49,0,0,1,9.83,3,50.38,50.38,0,0,0,48.38,0,17.48,17.48,0,0,1,19.65,0,50.38,50.38,0,0,0,48.38,0,17.48,17.48,0,0,1,19.65,0,50.38,50.38,0,0,0,48.38,0,17.48,17.48,0,0,1,19.65,0A50.33,50.33,0,0,0,489.37,385l15.24,26.38" transform="translate(0 -0.01)"/><path class="b" d="M321.2,222.24l-19.64-11.33-18.51,9.38,29.46,17,8.69-15.06" transform="translate(0 -0.01)"/></svg>