<svg xmlns="http://www.w3.org/2000/svg" viewBox="0 0 1010 1010"><defs><style>.a{fill:#fff;}.b{fill:#dc0032;}</style></defs><title>B2-1 korkortonline.se</title><path d="M714.38,1010.2H296L.2,714.38V296L296,.2H714.38L1010.2,296V714.38Z" transform="translate(-0.2 -0.2)"/><path class="a" d="M1005.2,712.31,712.31,1005.2H298.09L5.2,712.31V298.09L298.09,5.2H712.31L1005.2,298.09Z" transform="translate(-0.2 -0.2)"/><path class="b" d="M960.2,693.67,693.67,960.2H316.73L50.2,693.67V316.73L316.73,50.2H693.67L960.2,316.73Z" transform="translate(-0.2 -0.2)"/><path class="a" d="M367.24,410.76H299.46V371.87H472.8v38.89H406.13V638.53H367.24ZM746.13,638.53V371.87h86.66a73.33,73.33,0,1,1,0,146.66H785v120Zm-242.22-85a86.11,86.11,0,0,0,172.22,0V456.87a86.11,86.11,0,0,0-172.22,0v96.66ZM164.09,466.69a25.94,25.94,0,0,0,6.24,3.42l68,29a58.74,58.74,0,0,1,28.89,35.26,83.89,83.89,0,1,1-163,39.74L141.71,563A45,45,0,1,0,229.8,544.9a19.84,19.84,0,0,0-6.88-9.68,18.85,18.85,0,0,0-3.22-1.81L155.61,506.1a64.76,64.76,0,0,1-14.7-8.19c-1-.81-2-1.64-3-2.49a71.67,71.67,0,1,1,114.91-79.3l-35.56,16a32.78,32.78,0,1,0-53.15,34.58Z" transform="translate(-0.2 -0.2)"/><path class="b" d="M637.24,553.53V456.87a47.23,47.23,0,1,0-94.45,0v96.66a47.23,47.23,0,0,0,94.45,0Zm196.11-73.89a34.45,34.45,0,1,0,0-68.89H785v68.89Z" transform="translate(-0.2 -0.2)"/></svg>