<svg xmlns="http://www.w3.org/2000/svg" viewBox="0 0 500 500"><defs><style>.a{fill:#0c479d;}.b{fill:#fff;}</style></defs><title>B3-1 korkortonline.se</title><path class="a" d="M0,0H500V500H0Z" transform="translate(0 0)"/><path class="b" d="M29.16,0A29.12,29.12,0,0,0,0,29.16V470.84A29.12,29.12,0,0,0,29.16,500H470.84A29.12,29.12,0,0,0,500,470.84V29.16A29.12,29.12,0,0,0,470.84,0Z" transform="translate(0 0)"/><path class="a" d="M29.16,12.5A16.63,16.63,0,0,0,12.5,29.16V470.84A16.64,16.64,0,0,0,29.16,487.5H470.84a16.66,16.66,0,0,0,16.66-16.66V29.16A16.64,16.64,0,0,0,470.84,12.5Z" transform="translate(0 0)"/><path class="b" d="M12.5,423.72,250,12.5,487.5,423.72Z" transform="translate(0 0)"/><path d="M172.94,378.89l-6.69,26.83H220l3.53-50.42H191ZM45.83,405.72H99.58L121,355.3h-46Zm408.34,0H400.42L379,355.3h46Zm-139.6-42-7.66,16.46h23l6.36,25.51H282.5L279,355.3h36.4l7.15,6.54-8,1.91Z" transform="translate(0 0)"/><path d="M286.58,138.05a26.15,26.15,0,0,0-7.08-4.25q-6.3-2.75-12.42-5.92a9.28,9.28,0,0,1-5.17-4.83,24.83,24.83,0,0,1-1.16-9.42A62.28,62.28,0,0,1,263.5,103a35.56,35.56,0,0,0,.25-14.09,15.69,15.69,0,0,0-11-11.91,21.91,21.91,0,0,0-21.17,2.25,16.3,16.3,0,0,0-5.16,16.41,14.76,14.76,0,0,1,.25,5,19.86,19.86,0,0,0,4.66,18.51,10.83,10.83,0,0,0,5.44,1.47,4.35,4.35,0,0,1,4.65,3.11,4.21,4.21,0,0,1-.92,3.41q-5.42,4.67-11.1,9a35.86,35.86,0,0,0-5.82,5.6A18.7,18.7,0,0,0,220.9,149l-5.32,32.82-34.33,27.42-.4.32a7.7,7.7,0,0,0,9.27,12.3l8-5.71,2.5,2.25,26.34-19.66,6-10.09,2.5,36.17L155,352.8l-15.25-3.33-7.5,6.83,36.5,19.83,84.33-110.41,28.17,51.58,46.92,42.92L326.75,366l-8.67,2.08-3.33,7.17h22.17L356,346.3l-33.08-33.58L307.25,291.8l-24-50.83a32.72,32.72,0,0,0-3.5-29.17,10.77,10.77,0,0,1-1.08-5.58l-.92-35.5,13.33,20,6.63,42.65A7.71,7.71,0,0,0,313,231.63l-.69-9.33,2.17-.5-4.75-44-18.83-34.17a20.32,20.32,0,0,0-4.34-5.58Z" transform="translate(0 0)"/></svg>