<svg xmlns="http://www.w3.org/2000/svg" viewBox="0 0 1000 1000"><defs><style>.a{fill:#dc0032;}.b{fill:#ffce00;}</style></defs><title>B6-1 korkortonline.se</title><path class="a" d="M500.2.2c276.14,0,500,223.86,500,500s-223.86,500-500,500S.2,776.34.2,500.2,224.06.2,500.2.2Z" transform="translate(-0.2 -0.2)"/><path class="b" d="M500.2,117.2c211.52,0,383,171.47,383,383s-171.48,383-383,383-383-171.48-383-383,171.47-383,383-383Z" transform="translate(-0.2 -0.2)"/><path d="M391.87,261.88V584.36H500.2L346,738.52,191.88,584.36H300.21V261.88Z" transform="translate(-0.2 -0.2)"/><path class="a" d="M700.19,738.52V416H808.52L654.36,261.88,500.2,416H608.53V738.52Z" transform="translate(-0.2 -0.2)"/></svg>