<svg xmlns="http://www.w3.org/2000/svg" viewBox="0 0 500 500"><defs><style>.a{fill:#0c479d;}.b{fill:#fff;}.c{fill:#dc0032;}</style></defs><title>B7-1 korkortonline.se</title><path class="a" d="M0,0H500V500H0Z" transform="translate(0 0)"/><path class="b" d="M29.16,0A29.12,29.12,0,0,0,0,29.16V470.84A29.12,29.12,0,0,0,29.16,500H470.84A29.12,29.12,0,0,0,500,470.84V29.16A29.12,29.12,0,0,0,470.84,0Z" transform="translate(0 0)"/><path class="a" d="M17,466.66A16.32,16.32,0,0,0,33.34,483H466.66A16.32,16.32,0,0,0,483,466.66V33.34A16.32,16.32,0,0,0,466.66,17H33.34A16.32,16.32,0,0,0,17,33.34Z" transform="translate(0 0)"/><path class="c" d="M125,305V95h60V305h70L155,405,55,305Z" transform="translate(0 0)"/><path class="b" d="M355,95l90,90H375V405H335V185H265Z" transform="translate(0 0)"/></svg>