<svg xmlns="http://www.w3.org/2000/svg" viewBox="0 0 1000 1000"><defs><style>.a,.c{fill:#dc0032;}.b{fill:#ffce00;}.c{isolation:isolate;}</style></defs><title>C10-1 korkortonline.se</title><path class="a" d="M500.2,1000.2c-276.14,0-500-223.86-500-500S224.06.2,500.2.2s500,223.86,500,500-223.86,500-500,500Z" transform="translate(-0.2 -0.2)"/><path class="b" d="M500.2,883.53c-211.71,0-383.33-171.62-383.33-383.33S288.49,116.86,500.2,116.86,883.53,288.49,883.53,500.2,711.91,883.53,500.2,883.53Z" transform="translate(-0.2 -0.2)"/><path d="M684.33,473.68a93.85,93.85,0,1,1,21.92,179.54l32,32A126.16,126.16,0,0,0,846.07,568.58l7.67.59A133.84,133.84,0,0,0,664.22,438.83l-32.77-56.75L643.94,354l33-15a13.43,13.43,0,0,0-1.84-26h-4.42q-45-.18-90.07-1.35h-3.19A10.2,10.2,0,0,0,575,331q21.64,11.88,44.2,22l-10.48,23.54H429.49l23.1,23.1h145.8L553.47,500.44,571,517.93l48.88-109.78,24.31,42.11a133.85,133.85,0,0,0-55.5,85.36l43.69,43.68L706,574.48a20,20,0,1,0,17-33.87l-38.65-66.93Z" transform="translate(-0.2 -0.2)"/><path class="b" d="M702.43,551.2l-38.19-66.14a93.85,93.85,0,0,0-37.83,71.49l75.82-5,.19-.38Z" transform="translate(-0.2 -0.2)"/><path d="M497.66,562a38.8,38.8,0,0,0,10.25,40.73l-16.39,36.82h-9.24v18.48h46.05V639.59H516.79l11.92-26.76a38.83,38.83,0,0,0,25.87-5.21L355,408.05l-14.3,35.4a133.78,133.78,0,0,0-63.26-16.87v7.69a126.15,126.15,0,1,0,100,200.65l6.22,4.52a133.84,133.84,0,0,0-23.41-182.73l4.22-10.45L497.66,562Z" transform="translate(-0.2 -0.2)"/><path class="b" d="M326.86,539.38l17.38-43a93.86,93.86,0,1,1-18.68-15.42l-21,52A30,30,0,0,1,276,549.44h-.25a11.52,11.52,0,0,0-.16,23,55.55,55.55,0,0,0,51.32-33.09Z" transform="translate(-0.2 -0.2)"/><path d="M437.89,280.32a46.19,46.19,0,0,0-57.58,47l23,23,4.61-11.41a23.11,23.11,0,0,1,24.3-36.14l35.66,9.06,5.69-22.38-35.42-9-.21-.05.21.05" transform="translate(-0.2 -0.2)"/><path class="c" d="M866.13,813.09l-53,53L134.27,187.3l53-53Z" transform="translate(-0.2 -0.2)"/></svg>