<svg xmlns="http://www.w3.org/2000/svg" viewBox="0 0 1000 1000"><defs><style>.a,.c{fill:#dc0032;}.b{fill:#ffce00;}.c{isolation:isolate;}</style></defs><title>C11-1 korkortonline.se</title><path class="a" d="M500.2,1000.2c-276.14,0-500-223.86-500-500S224.06.2,500.2.2s500,223.86,500,500-223.86,500-500,500Z" transform="translate(-0.2 -0.2)"/><path class="b" d="M500.2,883.53c-211.71,0-383.33-171.62-383.33-383.33S288.49,116.86,500.2,116.86,883.54,288.49,883.54,500.2,711.91,883.53,500.2,883.53Z" transform="translate(-0.2 -0.2)"/><path class="c" d="M866.13,813.09l-53,53L134.27,187.3l53-53Z" transform="translate(-0.2 -0.2)"/><path d="M389.43,632.6A129.23,129.23,0,1,1,255.59,441.24l-1.29-7.58a136.73,136.73,0,0,1,55.92,2.14l22.84-49.71L573.89,626.92l-73.69,7.4a71.56,71.56,0,0,1-70.78-67.64A152.29,152.29,0,0,0,351,435.48l-6.45,14a136.92,136.92,0,0,1,51.56,186.9l-6.69-3.8Z" transform="translate(-0.2 -0.2)"/><path class="b" d="M289.43,481.06A88.46,88.46,0,1,0,364.1,584.82H296.7a25.38,25.38,0,0,1-42.64-26.75l35.38-77Z" transform="translate(-0.2 -0.2)"/><path class="b" d="M301.06,560.2h64.12a88.46,88.46,0,0,0-41-66.42l-27.17,59.15a25.72,25.72,0,0,1,4,7.27Z" transform="translate(-0.2 -0.2)"/><path d="M751.47,587.89a38.45,38.45,0,0,1-32,24.43l-49.15,4.93L585,532l28.09-64a9.24,9.24,0,0,0-4.23-11.92l-54.85-28.21A12.19,12.19,0,0,1,561,404.82l213-1.53a15.4,15.4,0,0,1,15.5,15.39v36.43a140,140,0,0,1,65.65,130.74l-10.73-.9a129.23,129.23,0,0,1-93.07,113.3l-35.75-35.74a88.46,88.46,0,0,0,87.16-73.08l-51.23-1.54Z" transform="translate(-0.2 -0.2)"/><path class="b" d="M734.82,540.74a38.47,38.47,0,0,1,16.65,19.46l51.23-1.54A88.45,88.45,0,0,0,757.12,496l-22.3,44.79Zm-53,14.85a38.47,38.47,0,0,1,30.67-19.88l20-48.49A88.46,88.46,0,0,0,629.6,553.28l52.24,2.3Z" transform="translate(-0.2 -0.2)"/><path d="M395.76,316.79a13,13,0,0,1,5.65-3.06,15.47,15.47,0,0,1,5.95-.05A84.85,84.85,0,0,1,418,315.94q7.4,2.22,14.62,4.91,6,2.08,11.89,4.28A69.56,69.56,0,0,1,466.71,339q3.15,3.35,6.55,6.44a14.62,14.62,0,0,0,21.62-19.53,66.69,66.69,0,0,0-9.43-10.77c-.64-.58-1.32-1.14-2-1.68a200.68,200.68,0,0,0-34.55-19.69,139.09,139.09,0,0,0-24.83-9.41,63.88,63.88,0,0,0-65.48,21.18l35.7,35.7,4.33-9.42A14,14,0,0,1,394,322a7.59,7.59,0,0,1,1.81-5.24Z" transform="translate(-0.2 -0.2)"/></svg>