<svg xmlns="http://www.w3.org/2000/svg" viewBox="0 0 1000 1000"><defs><style>.a,.c{fill:#dc0032;}.b{fill:#ffce00;}.c{isolation:isolate;}</style></defs><title>C12-1 korkortonline.se</title><path class="a" d="M500.2,1000.2c-276.14,0-500-223.86-500-500S224.06.2,500.2.2s500,223.86,500,500-223.86,500-500,500Z" transform="translate(-0.2 -0.2)"/><path class="b" d="M500.2,883.53c-211.71,0-383.33-171.62-383.33-383.33S288.49,116.86,500.2,116.86,883.53,288.49,883.53,500.2,711.91,883.53,500.2,883.53Z" transform="translate(-0.2 -0.2)"/><path d="M455.87,508.91c.31,1.71.53,3.43.67,5.15q2.65,19.86,3.54,39.91l-26.28.42,74.38,18.87-20-23.55v-8.49L590.42,643.46a36.93,36.93,0,1,1-56.73-47.28l-96.78-24.55,2.31,2.87a8,8,0,0,1,1.78,6.39,35.4,35.4,0,0,0,.19,9.86,34.85,34.85,0,0,0,1.07,4.6v.06l2.82,9.47v.06q4.33,15.46,9,30.82a6.24,6.24,0,0,1-.73,5.33s0,0,0,0a10.29,10.29,0,0,1-3.46,3h0a1.5,1.5,0,0,0-.7,1.49c0,.12,0,.25,0,.37l-.19,8.86-19.71-.21a55.17,55.17,0,0,1,7.83-14.28h0v0a11.17,11.17,0,0,0,1.35-8.77q-1.89-7.14-4.12-14.19l-.89-2.91q-1.42-4.79-3-9.5-1.07-2.81-2.37-5.49l-.47-1a35.2,35.2,0,0,0-4.26-7.19c-.09-.11-.18-.23-.28-.34q-2.07-2.19-4.23-4.31h0q-3.89-3.87-8.06-7.44-5.73-4.79-11.84-9.12a65,65,0,0,1-7.1-6.38h0a81.91,81.91,0,0,1-8-9.88,26.55,26.55,0,0,0-11,23.66,36.15,36.15,0,0,0,.67,4v0q1.07,5.18,1.94,10.38a6.55,6.55,0,0,1-2.78,6.54l-.07.06A104.35,104.35,0,0,0,349.16,622a87,87,0,0,0-8.9,16.3c-.11.35-.25.7-.39,1.05a8.73,8.73,0,0,1-3.57,4.54,4.93,4.93,0,0,1-1.25.59l-.07,0-.31.08a1.49,1.49,0,0,0-.64.47.75.75,0,0,0-.16.42l-.24,2-.71,7.68-21.12-.26A71.82,71.82,0,0,1,322,638a3.75,3.75,0,0,0,.24-.36,95.79,95.79,0,0,1,9.76-14q6.18-7.83,11.74-16.13A70.59,70.59,0,0,0,350.12,595a7.89,7.89,0,0,0-.05-5.85,143.28,143.28,0,0,1-6-17.35l0-.18q-2.66-10.27-5.16-20.6-4.81,1.11-9.68,2a177.77,177.77,0,0,1-57.77.61q1.5,6.83,2.51,13.73,1.4,7.74,3.19,15.39c.85,3,1.67,6,2.44,9.06q1.8,6.09,3.07,12.32a13.68,13.68,0,0,1,.21,1.43,51.15,51.15,0,0,0,4.47,15.79h0q2.19,4.76,4.63,9.41a.65.65,0,0,1,.09.23,7.75,7.75,0,0,1-2.82,9.26,6.09,6.09,0,0,0-1.43,1.3,13.23,13.23,0,0,0-3.1,8.29c0,.46-.05.93-.07,1.39l-.31,3.73-20.05-.14a51.88,51.88,0,0,1,10.6-17.87,3.68,3.68,0,0,0,.34-.44,9.75,9.75,0,0,0,.77-8.71v0a252.94,252.94,0,0,0-26-52.64l0,0q-3.24-5.55-6.14-11.28a24.68,24.68,0,0,0-3.7-5.39,2.7,2.7,0,0,0-.65-.52,40.91,40.91,0,0,1-5.25-3.59,29.52,29.52,0,0,1-4.33,2.41c-2.08.89-4.2,1.69-6.34,2.42a70.61,70.61,0,0,1-20.31,3.69,115.48,115.48,0,0,1-15.11,2.92A3.08,3.08,0,0,0,186,567a3.14,3.14,0,0,0-.51,2.47l.27,1.14q2.6,12.91,4.22,26s0,0,0,.07a4.28,4.28,0,0,0,1.58,2.58,2.41,2.41,0,0,0,.72.35,13.07,13.07,0,0,1,8.3,7.78l7.55-.05,0,18.05a34.45,34.45,0,0,1-25.26-14.63,12.14,12.14,0,0,1-1.08-1.84q-1.68-3.61-3-7.37l-1.43-3.87a269.91,269.91,0,0,1-11.09-36.12,10.47,10.47,0,0,1,1.1-7.93.55.55,0,0,1,.09-.14,9.31,9.31,0,0,1,1.87-2.09,46.61,46.61,0,0,1,10.61-6.62l0,0A123.1,123.1,0,0,1,213.39,534a49.19,49.19,0,0,1-5.49-19.19c0-.38,0-.76-.05-1.15v-.89q0-6.42-.19-12.83l-.21-11.91A53.39,53.39,0,0,0,199,459.72c-2.49,1.35-5,2.59-7.65,3.69A82.93,82.93,0,0,1,188,474.65,27,27,0,0,0,185.3,486a17.84,17.84,0,0,0-.09,5.26,4.81,4.81,0,0,1-2.3,3.9,1.65,1.65,0,0,1-.57.18,12.58,12.58,0,0,0-4.35,1.38,12.09,12.09,0,0,1-17.11-5,12,12,0,0,1-.68-2.71,215.83,215.83,0,0,1-1.79-29.19q-.25-10,.21-20a142.43,142.43,0,0,0-1.27-15.43q-6.6-5.67-13.5-11a86.77,86.77,0,0,1,26.79,1.76,58,58,0,0,1,42.92,3.45,74,74,0,0,1,13.91,9.55,69.7,69.7,0,0,1,9.68,11.39,94.27,94.27,0,0,0,17.71,20.15,53,53,0,0,0,26,10.17,177.13,177.13,0,0,0,48.24-.48q10.62-1.22,21.07-3.49a61,61,0,0,1,32,.61q10.2,2.91,20.29,6.14a43.29,43.29,0,0,1,15.25-1.94l38.22,38.23Zm64.46-41.61-4.84-4.84q9-2.91,17.82-6.32a7.64,7.64,0,0,1,6.84-4.94,49.63,49.63,0,0,1,19.38,1.91l13.3-32.68a3.83,3.83,0,0,0-.64-3.44,3.9,3.9,0,0,0-3.16-1.5,62.23,62.23,0,0,1-8.74-.38,4.14,4.14,0,0,1-3-3,58.91,58.91,0,0,1-2.06-27.16,10.39,10.39,0,0,1,.81-2.72,14,14,0,0,1,13.14-8.29,28.6,28.6,0,0,1,3.46.38,16.49,16.49,0,0,1,13.53,14.23,67.7,67.7,0,0,0,10.26,31.92A79.85,79.85,0,0,1,608.93,447q2.07,5.87,4.43,11.64H847.88V589.44H796a36.92,36.92,0,1,1-40.82,0H642.46L539.38,486.35l2.31-3.64a11.41,11.41,0,0,1,9.63-5.29h26.07l-3.8-10.64a10.55,10.55,0,0,1-12.92,4.94l-27.11-9.21Q527,465,520.33,467.3Z" transform="translate(-0.2 -0.2)"/><path class="c" d="M866.13,813.09l-53,53L134.27,187.3l53-53Z" transform="translate(-0.2 -0.2)"/></svg>