<svg xmlns="http://www.w3.org/2000/svg" viewBox="0 0 1000 1000"><defs><style>.a{fill:#ffce00;}.b{isolation:isolate;}.c{fill:#dc0032;}</style></defs><title>C17-1 korkortonline.se</title><path class="a" d="M500.2,50.2c248.53,0,450,201.47,450,450s-201.47,450-450,450-450-201.47-450-450,201.47-450,450-450Z" transform="translate(-0.2 -0.2)"/><path d="M690.46,608.53h30.4V533.06a16.67,16.67,0,1,1,33.33,0v75.47h30.39V533.06a16.67,16.67,0,1,1,33.33,0v75.47h30.4V524.22a39.38,39.38,0,0,0-71.58-22.55,41.52,41.52,0,0,0-55.87-9.8V487h-30.4V608.53ZM272.74,489.36h43.92a35.27,35.27,0,0,1,32.94,20.39,36,36,0,0,1,0,28.24,46.64,46.64,0,0,1-32.94,23.53,104.72,104.72,0,0,1-39.22,0,78.36,78.36,0,0,1-37.64-22l-36.08,31.37a113.67,113.67,0,0,0,62.74,37.65,147,147,0,0,0,59.61,0,102.19,102.19,0,0,0,62.74-45.49,84.79,84.79,0,0,0,7.85-56.48,72,72,0,0,0-23.53-42.34,77.08,77.08,0,0,0,15.68-51.77A68.25,68.25,0,0,0,359,359.17a110,110,0,0,0-61.17-20.39,126.64,126.64,0,0,0-83.14,31.37l31.37,34.51A78.45,78.45,0,0,1,312,387.4a40.12,40.12,0,0,1,26.67,18.83,29,29,0,0,1,0,22,25.82,25.82,0,0,1-25.1,15.69H272.74v45.48Zm340.84,61.82a32.66,32.66,0,0,0,1.27-19.11,30.27,30.27,0,0,0-16.57-20.4A59.61,59.61,0,0,0,569,507.85a62.33,62.33,0,0,0-33.13,15.29L502.7,506.58l24.21-114.71H645.44v39.51H559l-8.43,40a123.23,123.23,0,0,1,17.18-3,85.6,85.6,0,0,1,44.61,6.37,71,71,0,0,1,37,94.32,79.29,79.29,0,0,1-51,39.51,103.8,103.8,0,0,1-94.31-28l28-26.77a64.77,64.77,0,0,0,57.35,16.57,36.68,36.68,0,0,0,24.22-19.11ZM463.9,647.75V571.28H433.51v76.47H463.9" transform="translate(-0.2 -0.2)"/><path class="b" d="M719.89,113.84,500.2,333.53,280.51,113.84Zm0,772.72L500.2,666.87,280.51,886.56Z" transform="translate(-0.2 -0.2)"/><path class="c" d="M500.2,1000.2c276.14,0,500-223.86,500-500S776.34.2,500.2.2.2,224.06.2,500.2s223.86,500,500,500Zm0-116.66c-211.71,0-383.34-171.63-383.34-383.34S288.49,116.86,500.2,116.86,883.54,288.49,883.54,500.2,711.91,883.54,500.2,883.54Z" transform="translate(-0.2 -0.2)"/></svg>