<svg xmlns="http://www.w3.org/2000/svg" viewBox="0 0 1000 1000"><defs><style>.a{fill:#dc0032;}.b{fill:#ffce00;}</style></defs><title>C18-1 korkortonline.se</title><path class="a" d="M500.2,1000.2c-276.14,0-500-223.86-500-500S224.06.2,500.2.2s500,223.86,500,500-223.86,500-500,500Z" transform="translate(-0.2 -0.2)"/><path class="b" d="M500.2,883.53c-211.71,0-383.33-171.62-383.33-383.33S288.49,116.86,500.2,116.86,883.53,288.49,883.53,500.2,711.91,883.53,500.2,883.53Z" transform="translate(-0.2 -0.2)"/><path d="M245,389.81a6,6,0,0,0,6,6h25.49a39.81,39.81,0,1,0,77.72,0H505.37a39.81,39.81,0,1,0,77.72,0H602.9a39.8,39.8,0,1,0,77.72,0h25.49a13.28,13.28,0,0,0,13.27-13.28l0-178.46a13.26,13.26,0,0,0-13.27-13.27l-306.5,0A13.28,13.28,0,0,0,386.32,204V304.87H372.4V259.76a10.62,10.62,0,0,0-10.61-10.61H292.12a26.53,26.53,0,0,0-24.85,17.24L245,325.93v63.88Z" transform="translate(-0.2 -0.2)"/><path class="b" d="M287,275.69l-15.87,42.46H350V275.68Z" transform="translate(-0.2 -0.2)"/><path d="M400.59,619.84a50.93,50.93,0,0,1,15.69-15.68l41.17-23.53A54,54,0,0,0,480,554.16a57.84,57.84,0,0,0,0-37.26,53.58,53.58,0,0,0-32.35-31.37,91.78,91.78,0,0,0-51,1,50.87,50.87,0,0,0-34.32,50h30.4a21.49,21.49,0,0,1,14.7-21.57,56.56,56.56,0,0,1,31.38,0,20.79,20.79,0,0,1,12.74,12.75,22.39,22.39,0,0,1,0,15.68,21.58,21.58,0,0,1-8.82,10.79l-41.18,23.53a80.5,80.5,0,0,0-39.22,72.55H482.94v-30.4Zm185,32.36a65.83,65.83,0,0,1-49-21.57,98.06,98.06,0,0,1,0-127.45,66.49,66.49,0,0,1,98,0,98.09,98.09,0,0,1,0,127.45,65.83,65.83,0,0,1-49,21.57Z" transform="translate(-0.2 -0.2)"/><path class="b" d="M585.59,621.8a35.45,35.45,0,0,1-26.28-11.34,67.68,67.68,0,0,1,0-87.12,36.11,36.11,0,0,1,52.55,0,67.65,67.65,0,0,1,0,87.12,35.41,35.41,0,0,1-26.27,11.34Z" transform="translate(-0.2 -0.2)"/><path d="M441,858.53H463.8V801.92a12.51,12.51,0,1,1,25,0v56.61h22.8V801.92a12.51,12.51,0,1,1,25,0v56.61h22.79V795.29a29.53,29.53,0,0,0-53.67-16.91A31.15,31.15,0,0,0,463.81,771v-3.68H441v91.18Z" transform="translate(-0.2 -0.2)"/><path d="M771,716.87,687.7,633.54v66.15h-375V633.54l-83.33,83.33L312.7,800.2V734.05h375V800.2Z" transform="translate(-0.2 -0.2)"/></svg>