<svg xmlns="http://www.w3.org/2000/svg" viewBox="0 0 1000 1000"><defs><style>.a{fill:#dc0032;}.b{fill:#ffce00;}</style></defs><title>C21-1 korkortonline.se</title><path class="a" d="M500.2,1000.2c-276.14,0-500-223.86-500-500S224.06.2,500.2.2s500,223.86,500,500-223.86,500-500,500Z" transform="translate(-0.2 -0.2)"/><path class="b" d="M500.2,883.53c-211.71,0-383.33-171.62-383.33-383.33S288.49,116.86,500.2,116.86,883.53,288.49,883.53,500.2,711.91,883.53,500.2,883.53Z" transform="translate(-0.2 -0.2)"/><path d="M491.18,339.08l-226.9,0a9.83,9.83,0,0,0-9.82,9.83v74.64H244.16V390.18a7.85,7.85,0,0,0-7.86-7.86H184.74a19.64,19.64,0,0,0-18.4,12.76l-16.47,44.07v47.29a4.41,4.41,0,0,0,4.42,4.41h18.87a29.47,29.47,0,1,0,57.54,0H342.59a29.47,29.47,0,1,0,57.54,0h14.66a29.47,29.47,0,1,0,57.53,0H579.25a29.47,29.47,0,1,0,57.53,0h97a29.47,29.47,0,1,0,57.52,0h23.61a9.22,9.22,0,0,0,9.23-9.23V348.31a9.24,9.24,0,0,0-9.23-9.23H567.15a9.22,9.22,0,0,0-9.22,9.24V467.75H501V348.9a9.82,9.82,0,0,0-9.82-9.82Z" transform="translate(-0.2 -0.2)"/><path class="b" d="M169.22,433.4h58.33V402H181L169.22,433.4Z" transform="translate(-0.2 -0.2)"/><path d="M326.7,678.37h35.69a28.64,28.64,0,0,1,26.76,16.57,29.2,29.2,0,0,1,0,22.94A37.91,37.91,0,0,1,362.39,737a85,85,0,0,1-31.87,0,63.73,63.73,0,0,1-30.58-17.84l-29.32,25.48a92.37,92.37,0,0,0,51,30.6,119.7,119.7,0,0,0,48.43,0,83.1,83.1,0,0,0,51-37,68.84,68.84,0,0,0,6.37-45.88A58.51,58.51,0,0,0,408.27,658,62.68,62.68,0,0,0,421,615.92a55.45,55.45,0,0,0-24.21-43.33A89.5,89.5,0,0,0,347.09,556a103,103,0,0,0-67.55,25.49l25.49,28a63.74,63.74,0,0,1,53.53-14,32.61,32.61,0,0,1,21.67,15.29,23.57,23.57,0,0,1,0,17.85,21,21,0,0,1-20.39,12.74H326.7v37Zm225.84,99.34a85.56,85.56,0,0,1-63.73-28,127.46,127.46,0,0,1,0-165.68,86.43,86.43,0,0,1,127.45,0,127.46,127.46,0,0,1,0,165.68,85.53,85.53,0,0,1-63.72,28Z" transform="translate(-0.2 -0.2)"/><path class="b" d="M552.54,738.2a46,46,0,0,1-34.16-14.74,88,88,0,0,1,0-113.25,46.93,46.93,0,0,1,68.32,0,88,88,0,0,1,0,113.25,46.06,46.06,0,0,1-34.16,14.74Z" transform="translate(-0.2 -0.2)"/><path d="M704,684v70.59a19.72,19.72,0,0,0,20.59,20.59h21.57V744.81h-4.9a6.42,6.42,0,0,1-6.86-6.87V684h15.19V653.63H734.36v-45.1L704,623.24v30.39H691.71V684Z" transform="translate(-0.2 -0.2)"/></svg>