<svg xmlns="http://www.w3.org/2000/svg" viewBox="0 0 1000 1000"><defs><style>.a{fill:#dc0032;}.b{fill:#ffce00;}</style></defs><title>C22-1 korkortonline.se</title><path class="a" d="M500.2,1000.2c-276.14,0-500-223.86-500-500S224.06.2,500.2.2s500,223.86,500,500-223.86,500-500,500Z" transform="translate(-0.2 -0.2)"/><path class="b" d="M500.2,883.53c-211.71,0-383.33-171.62-383.33-383.33S288.49,116.86,500.2,116.86,883.53,288.49,883.53,500.2,711.91,883.53,500.2,883.53Z" transform="translate(-0.2 -0.2)"/><path d="M491.18,339.08l-226.9,0a9.83,9.83,0,0,0-9.82,9.83v74.64H244.16V390.18a7.85,7.85,0,0,0-7.86-7.86H184.74a19.64,19.64,0,0,0-18.4,12.76l-16.47,44.07v47.29a4.41,4.41,0,0,0,4.42,4.41h18.87a29.47,29.47,0,1,0,57.54,0H342.59a29.47,29.47,0,1,0,57.54,0h14.66a29.47,29.47,0,1,0,57.53,0H579.25a29.47,29.47,0,1,0,57.53,0h97a29.47,29.47,0,1,0,57.52,0h23.61a9.22,9.22,0,0,0,9.23-9.23V348.31a9.24,9.24,0,0,0-9.23-9.23H567.15a9.22,9.22,0,0,0-9.22,9.24V467.75H501V348.9a9.82,9.82,0,0,0-9.82-9.82Z" transform="translate(-0.2 -0.2)"/><path class="b" d="M169.22,433.4h58.33V402H181L169.22,433.4Z" transform="translate(-0.2 -0.2)"/><path d="M454.74,663l57.36-71.16H555L496.8,664.12,557.19,775.2H519.14l-45.06-82.88-19.34,24V775.2H421.31V591.87h33.43V663Zm-200-71.16H327a52.86,52.86,0,0,1,41,86.27A55.87,55.87,0,0,1,330.2,775.2H254.71V591.87Z" transform="translate(-0.2 -0.2)"/><path class="b" d="M330.2,741.77a22.44,22.44,0,0,0,8.63-43.14,45.36,45.36,0,0,0-9.71-1.08h-41v44.22Zm-42.06-77.65H327a19.41,19.41,0,0,0,0-38.82H288.14v38.82Z" transform="translate(-0.2 -0.2)"/><path d="M661.57,693.27h30.2a24.24,24.24,0,0,1,22.64,14,24.69,24.69,0,0,1,0,19.41,32,32,0,0,1-22.64,16.18,71.9,71.9,0,0,1-27,0,53.92,53.92,0,0,1-25.89-15.1l-24.8,21.57a78.07,78.07,0,0,0,43.14,25.88,101,101,0,0,0,41,0A70.27,70.27,0,0,0,741.37,744a58.27,58.27,0,0,0,5.4-38.83A49.52,49.52,0,0,0,730.59,676a53,53,0,0,0,10.78-35.59,46.93,46.93,0,0,0-20.48-36.67,75.84,75.84,0,0,0-42.06-14,87.16,87.16,0,0,0-57.16,21.57L643.24,635a53.89,53.89,0,0,1,45.29-11.86,27.58,27.58,0,0,1,18.34,12.94,19.91,19.91,0,0,1,0,15.09A17.77,17.77,0,0,1,689.61,662h-28v31.27Z" transform="translate(-0.2 -0.2)"/></svg>