<svg xmlns="http://www.w3.org/2000/svg" viewBox="0 0 1000 1000"><defs><style>.a{fill:#dc0032;}.b{fill:#ffce00;}</style></defs><title>C23-1 korkortonline.se</title><path class="a" d="M500.2,1000.2c-276.14,0-500-223.86-500-500S224.06.2,500.2.2s500,223.86,500,500S776.34,1000.2,500.2,1000.2Z" transform="translate(-0.2 -0.2)"/><path class="b" d="M500.2,883.53c-211.71,0-383.33-171.62-383.33-383.33S288.49,116.86,500.2,116.86,883.54,288.49,883.54,500.2,711.91,883.53,500.2,883.53Z" transform="translate(-0.2 -0.2)"/><path d="M500.2,618.66l92.3-92.31H407.89ZM328.52,425.49a107,107,0,0,0,76.18,58,202.34,202.34,0,0,0,63.48,0,108.59,108.59,0,0,0,78-58,94.88,94.88,0,0,0,0-79.8,108.64,108.64,0,0,0-78-58,191.37,191.37,0,0,0-59.86,0A231.62,231.62,0,0,1,506.27,175.2H426.46A336,336,0,0,0,344.84,284a226.92,226.92,0,0,0-23.57,88.88,114,114,0,0,0,7.25,52.59Z" transform="translate(-0.2 -0.2)"/><path class="b" d="M377.49,400.1a55.14,55.14,0,0,0,39.9,29,115.73,115.73,0,0,0,39.9,0,55.14,55.14,0,0,0,39.91-29,36.67,36.67,0,0,0,0-30.83,55.14,55.14,0,0,0-39.91-29,116.23,116.23,0,0,0-39.9,0,55.14,55.14,0,0,0-39.9,29,36.67,36.67,0,0,0,0,30.83Z" transform="translate(-0.2 -0.2)"/><path d="M637.38,337.65V450.59a31.55,31.55,0,0,0,32.94,32.94h34.51V434.9H697a10.26,10.26,0,0,1-11-11V337.65h24.31V289H686V216.87l-48.63,23.52V289H617.77v48.63ZM287.92,567.9a30.73,30.73,0,0,0-30.78,30.78V771a30.73,30.73,0,0,0,30.78,30.78h4.59A30.79,30.79,0,0,0,323.29,771V704.83l136.44,9.53a49.2,49.2,0,0,0,80.94,0l136.44-9.53V771a30.79,30.79,0,0,0,30.78,30.78h4.59A30.73,30.73,0,0,0,743.26,771V598.68a30.73,30.73,0,0,0-30.78-30.78h-4.59a30.73,30.73,0,0,0-30.78,30.78V667.9l-136.44-9.54a49.16,49.16,0,0,0-80.94,0L323.29,667.9V598.68a30.73,30.73,0,0,0-30.78-30.78Z" transform="translate(-0.2 -0.2)"/></svg>