<svg xmlns="http://www.w3.org/2000/svg" viewBox="0 0 1000 1000"><defs><style>.a,.c{fill:#dc0032;}.b{fill:#ffce00;}.c{isolation:isolate;}</style></defs><title>C25-1 korkortonline.se</title><path class="a" d="M500.2,1000.2c-276.14,0-500-223.86-500-500S224.06.2,500.2.2s500,223.86,500,500-223.86,500-500,500Z" transform="translate(-0.2 -0.2)"/><path class="b" d="M500.2,883.53c-211.71,0-383.33-171.62-383.33-383.33S288.49,116.86,500.2,116.86,883.53,288.49,883.53,500.2,711.91,883.53,500.2,883.53Z" transform="translate(-0.2 -0.2)"/><path d="M587.31,811.31v-343A23.34,23.34,0,0,0,564,445H251.31V478.3l-91.66-91.66L251.31,295v33.34H564a140,140,0,0,1,140,140v343Z" transform="translate(-0.2 -0.2)"/><path class="c" d="M837.46,843.8,780,892,162.94,156.6l57.45-48.21Z" transform="translate(-0.2 -0.2)"/></svg>