<svg xmlns="http://www.w3.org/2000/svg" viewBox="0 0 1000 1000"><defs><style>.a{fill:#ffce00;}.b{fill:#7c868d;}.c{isolation:isolate;}</style></defs><title>C30-1 korkortonline.se</title><path class="a" d="M500.2,1000.2c-276.14,0-500-223.86-500-500S224.06.2,500.2.2s500,223.86,500,500-223.86,500-500,500Z" transform="translate(-0.2 -0.2)"/><path class="b" d="M220.2,645.74v16H827.85v-16Z" transform="translate(-0.2 -0.2)"/><path class="b" d="M678.71,393.08A319.54,319.54,0,0,1,755,402.33a28.72,28.72,0,0,1,18.47,14.38l32.87,61.84a68,68,0,0,1,23,66.16l-10.28,38.4v34.94a27.69,27.69,0,1,1-55.37-.28V599.58h-170v18.19a27.69,27.69,0,1,1-55.38.28V583.11l-10.28-38.4a68,68,0,0,1,23-66.16L584,416.71a28.67,28.67,0,0,1,18.46-14.38,319.54,319.54,0,0,1,76.28-9.25Zm0,28.66a279,279,0,0,0-69.66,8.81L584.3,477.11H773.11l-24.75-46.56a279,279,0,0,0-69.65-8.81ZM264.94,250.49a27.68,27.68,0,0,0-27.69,27.69V467.27h-4.63a15.4,15.4,0,0,0-15.37,15.41v94.43a15.36,15.36,0,0,0,15.37,15.38h4.63v25.56a27.69,27.69,0,0,0,55.38,0V592.49H415.88v25.56a27.69,27.69,0,1,0,55.37,0V592.49h4.63a15.36,15.36,0,0,0,15.37-15.38V482.68a15.4,15.4,0,0,0-15.37-15.41h-4.63V278.18a27.68,27.68,0,0,0-27.69-27.69Z" transform="translate(-0.2 -0.2)"/><path class="c" d="M846.62,139.64q-14.58-14-30-26.6L113,816.65q12.6,15.38,26.6,30l707-707Zm14.14,14.14-707,707q14.58,14,30,26.6L887.36,183.75q-12.6-15.37-26.6-30Zm-59.93-53.21q-16.35-12.33-33.45-23.11L77.46,767.37q10.82,17.08,23.11,33.46L800.83,100.57Zm99,99L199.57,899.82q16.35,12.34,33.45,23.12L922.94,233q-10.82-17.09-23.11-33.45Z" transform="translate(-0.2 -0.2)"/></svg>