<svg xmlns="http://www.w3.org/2000/svg" viewBox="0 0 1000 1000"><defs><style>.a{fill:#dc0032;}.b{fill:#ffce00;}.c{fill-rule:evenodd;}</style></defs><title>C33-1 korkortonline.se</title><path class="a" d="M500.2,1000.2c-276.14,0-500-223.86-500-500S224.06.2,500.2.2s500,223.86,500,500-223.86,500-500,500Z" transform="translate(-0.2 -0.2)"/><path class="b" d="M500.2,883.53c-211.71,0-383.33-171.62-383.33-383.33S288.49,116.86,500.2,116.86,883.53,288.49,883.53,500.2,711.91,883.53,500.2,883.53Z" transform="translate(-0.2 -0.2)"/><path d="M631.47,591.37h47.79a43.38,43.38,0,0,1,28.68,10.3A50.63,50.63,0,0,1,726.32,637a134.78,134.78,0,0,1,0,33.82,53.67,53.67,0,0,1-18.38,34.56,42.08,42.08,0,0,1-28.68,11H631.47v-125Z" transform="translate(-0.2 -0.2)"/><path class="b" d="M654.26,693.58V614.16h25.18a20.61,20.61,0,0,1,13.89,5,27.77,27.77,0,0,1,10.29,20,112.34,112.34,0,0,1,.08,28.85,30.89,30.89,0,0,1-10.88,20.23,19.38,19.38,0,0,1-13.47,5.3H654.26Z" transform="translate(-0.2 -0.2)"/><path d="M559.41,642.84v50.74h39.71v22.79h-62.5v-125h22.79v51.47ZM404.26,606.08a73.56,73.56,0,0,0,0,95.58,49.87,49.87,0,0,0,73.54,0,73.56,73.56,0,0,0,0-95.58,49.87,49.87,0,0,0-73.54,0Z" transform="translate(-0.2 -0.2)"/><path class="b" d="M421.32,686.54a27.08,27.08,0,0,0,39.42,0,50.76,50.76,0,0,0,0-65.34,27.08,27.08,0,0,0-39.42,0,50.76,50.76,0,0,0,0,65.34Z" transform="translate(-0.2 -0.2)"/><path d="M323.75,614.16V716.37H301V614.16H273V591.37h78.67v22.79ZM698.94,310.5v67.65h52.94v30.39H668.54V241.87h30.4Zm-113.72,0v67.65h52.94v30.39H554.83V241.87h30.39Zm-104.9,39.22V241.87h30.4V349.72a60.79,60.79,0,0,1-121.58,0V241.87h30.4V349.72a30.39,30.39,0,0,0,60.78,0ZM321.5,272.27V408.54H291.11V272.27H253.85v-30.4h104.9v30.4Z" transform="translate(-0.2 -0.2)"/><path class="c" d="M222.26,454.37a45.83,45.83,0,0,0,0,91.66H778.14a45.83,45.83,0,0,0,0-91.66Z" transform="translate(-0.2 -0.2)"/></svg>