<svg xmlns="http://www.w3.org/2000/svg" viewBox="0 0 1000 1000"><defs><style>.a{fill:#dc0032;}.b{fill:#ffce00;}.c{fill-rule:evenodd;}</style></defs><title>C34-2 korkortonline.se</title><path class="a" d="M500.2,1000.2c-276.14,0-500-223.86-500-500S224.06.2,500.2.2s500,223.86,500,500-223.86,500-500,500Z" transform="translate(-0.2 -0.2)"/><path class="b" d="M500.2,883.53c-211.71,0-383.33-171.62-383.33-383.33S288.49,116.86,500.2,116.86,883.53,288.49,883.53,500.2,711.91,883.53,500.2,883.53Z" transform="translate(-0.2 -0.2)"/><path class="c" d="M222.26,454.37a45.83,45.83,0,0,0,0,91.66H778.14a45.83,45.83,0,0,0,0-91.66Z" transform="translate(-0.2 -0.2)"/><path d="M738.68,408.56h-22.8v-125h48.53a37.13,37.13,0,0,1,0,74.26H738.68v50.74Z" transform="translate(-0.2 -0.2)"/><path class="b" d="M738.68,335V306.35h25.73a14.34,14.34,0,1,1,0,28.68Z" transform="translate(-0.2 -0.2)"/><path d="M615.89,408.56H593.1v-125h48.53a37.13,37.13,0,0,1,0,74.26H615.89v50.74Z" transform="translate(-0.2 -0.2)"/><path class="b" d="M615.89,335V306.35h25.74a14.34,14.34,0,0,1,0,28.68Z" transform="translate(-0.2 -0.2)"/><path d="M460.75,298.27a73.52,73.52,0,0,0,0,95.58,49.86,49.86,0,0,0,73.53,0,73.56,73.56,0,0,0,0-95.58,49.86,49.86,0,0,0-73.53,0Z" transform="translate(-0.2 -0.2)"/><path class="b" d="M477.8,378.73a27.08,27.08,0,0,0,39.42,0,50.76,50.76,0,0,0,0-65.34,27.08,27.08,0,0,0-39.42,0,50.76,50.76,0,0,0,0,65.34Z" transform="translate(-0.2 -0.2)"/><path d="M380.23,306.35V408.56H357.44V306.35H329.5V283.56h78.67v22.79Zm-146.74,20.1,33.34,9.63a39.39,39.39,0,0,1,23.53,18.38,33.73,33.73,0,0,1,0,34.56,37.08,37.08,0,0,1-30.15,19.85A64,64,0,0,1,202.86,389l16.77-15.44a41.26,41.26,0,0,0,38,12.6,14.27,14.27,0,0,0,12.77-8.3,11,11,0,0,0,.24-11.92,16.65,16.65,0,0,0-10.09-8l-33.06-9.55a31.17,31.17,0,0,1-16.16-49.21,42.65,42.65,0,0,1,26.54-15.76A64.91,64.91,0,0,1,292,298.25l-14.92,17.24a42.14,42.14,0,0,0-35.29-9.56,19.89,19.89,0,0,0-12.5,7.35l.07-.09-.07.09a8.38,8.38,0,0,0,4.16,13.17Zm63.73,296.47L321.67,630a28.92,28.92,0,0,1,17.26,13.48,24.78,24.78,0,0,1,0,25.35,27.22,27.22,0,0,1-22.11,14.56,47,47,0,0,1-42.06-14.56l12.3-11.32A30.24,30.24,0,0,0,315,666.72a10.46,10.46,0,0,0,9.37-6.08,8,8,0,0,0,.17-8.74,12.2,12.2,0,0,0-7.4-5.84l-24.24-7A22.87,22.87,0,0,1,281,603a31.29,31.29,0,0,1,19.47-11.56,47.59,47.59,0,0,1,39.69,10.84l-10.94,12.64a30.88,30.88,0,0,0-25.89-7,14.6,14.6,0,0,0-9.17,5.39.1.1,0,0,0,0-.07s0,0,0,.07a6.15,6.15,0,0,0,3.06,9.65Zm79.84,6.29v53.92H360.35V591.47h16.71v37.74Zm76.3-13.49,11.86-11.87A39.34,39.34,0,0,0,435,590.37a36.25,36.25,0,0,0-27,11.86,53.94,53.94,0,0,0,0,70.1,36.22,36.22,0,0,0,27,11.87,36.75,36.75,0,0,0,38.29-33.43V633.51H435v16.72h21.57a20,20,0,0,1-18.33,17.25,19.47,19.47,0,0,1-3.24,0,19.19,19.19,0,0,1-15.09-7,37.27,37.27,0,0,1,0-46.37,19.16,19.16,0,0,1,15.09-7,22.67,22.67,0,0,1,18.34,8.64Zm37.74-24.25H510l35.59,60.93V591.47h16.71v91.66H544.15l-36.34-62.21v62.21H491.1V591.47Zm141.27,0,29.12,91.66H643.94l-5.31-16.71H601.29L596,683.13H578.45l29.11-91.66Zm64.16,37.74v37.21h29.11v16.71H679.81V591.47h16.72v37.74Z" transform="translate(-0.2 -0.2)"/><path class="b" d="M606.6,649.7,620,607.64l13.36,42.06Z" transform="translate(-0.2 -0.2)"/></svg>