<svg xmlns="http://www.w3.org/2000/svg" viewBox="0 0 1000 1000"><defs><style>.a,.c{fill:#dc0032;}.b{fill:#ffce00;}.c{isolation:isolate;}</style></defs><title>C4-1 korkortonline.se</title><path class="a" d="M500.2.2c276.14,0,500,223.86,500,500s-223.86,500-500,500S.2,776.34.2,500.2,224.06.2,500.2.2Z" transform="translate(-0.2 -0.2)"/><path class="b" d="M500.2,116.87c211.71,0,383.33,171.62,383.33,383.33S711.91,883.54,500.2,883.54,116.87,711.91,116.87,500.2,288.49,116.87,500.2,116.87Z" transform="translate(-0.2 -0.2)"/><path d="M500.2,259.08a531.77,531.77,0,0,0-127.14,15.39,47.8,47.8,0,0,0-30.78,24L287.48,401.5A113.48,113.48,0,0,0,249.1,511.82l17.14,64V634a46.15,46.15,0,1,0,92.3-.51V603.3H641.86v30.22a46.15,46.15,0,1,0,92.3.51V575.8l17.14-64A113.48,113.48,0,0,0,712.92,401.5l-54.8-103.07a47.8,47.8,0,0,0-30.78-24A531.77,531.77,0,0,0,500.2,259.08Z" transform="translate(-0.2 -0.2)"/><path class="b" d="M657.57,399.14H342.83l41.26-77.59a465.45,465.45,0,0,1,232.22,0Z" transform="translate(-0.2 -0.2)"/><path class="c" d="M134.27,187.31l53-53L866.13,813.09l-53,53Z" transform="translate(-0.2 -0.2)"/></svg>