<svg xmlns="http://www.w3.org/2000/svg" viewBox="0 0 1121.57 1121.57"><defs><style>.a{fill:#dc0032;}.b{fill:#ffce00;}.c{fill:#000;}</style></defs><title>C46-1 korkortonline.se</title><path class="a" d="M1121.57,560.79C1121.57,251.08,870.5,0,560.78,0S0,251.08,0,560.79s251.07,560.78,560.78,560.78,560.79-251.07,560.79-560.78h0" transform="translate(0 -0.01)"/><path class="b" d="M990.72,560.79c0-237.45-192.49-429.94-429.94-429.94S130.85,323.34,130.85,560.79,323.34,990.73,560.78,990.73,990.72,798.24,990.72,560.79h0" transform="translate(0 -0.01)"/><path class="c" d="M698.82,747.14h-277a157.75,157.75,0,0,0-140.5,75l-29.4-18.07a192.24,192.24,0,0,1,170.83-91.45H698.82a192.25,192.25,0,0,1,170.83,91.45l-29.4,18.07a157.75,157.75,0,0,0-141.43-75h0v0" transform="translate(0 -0.01)"/><path class="c" d="M682.29,580.78h-243l121.5,121.5Z" transform="translate(0 -0.01)"/><path class="c" d="M373.86,869.8a32.36,32.36,0,1,1,32.35-32.36A32.36,32.36,0,0,1,373.86,869.8Zm0-104.83a72.47,72.47,0,1,0,72.47,72.47A72.47,72.47,0,0,0,373.86,765" transform="translate(0 -0.01)"/><path class="c" d="M399.09,837.44a25.24,25.24,0,1,0-25.23,25.24,25.24,25.24,0,0,0,25.23-25.24h0" transform="translate(0 -0.01)"/><path class="c" d="M560.78,869.8a32.36,32.36,0,1,1,32.36-32.36A32.36,32.36,0,0,1,560.78,869.8Zm0-104.83a72.47,72.47,0,1,0,72.47,72.47A72.48,72.48,0,0,0,560.78,765" transform="translate(0 -0.01)"/><path class="c" d="M586,837.44a25.24,25.24,0,1,0-25.24,25.24A25.24,25.24,0,0,0,586,837.44h0" transform="translate(0 -0.01)"/><path class="c" d="M747.71,869.8a32.36,32.36,0,1,1,32.36-32.36A32.35,32.35,0,0,1,747.71,869.8Zm0-104.83a72.47,72.47,0,1,0,72.47,72.47A72.48,72.48,0,0,0,747.71,765" transform="translate(0 -0.01)"/><path class="c" d="M773,837.44a25.24,25.24,0,1,0-25.24,25.24A25.24,25.24,0,0,0,773,837.44h0" transform="translate(0 -0.01)"/><path class="c" d="M446.22,540.81V490.34H307A85.9,85.9,0,0,1,334,463l69.28-39.59a90.57,90.57,0,0,0,37.79-44.36,97.06,97.06,0,0,0,0-62.45A89.85,89.85,0,0,0,386.84,264a153.88,153.88,0,0,0-85.56,1.65,85.21,85.21,0,0,0-57.5,83.8h50.47a36.47,36.47,0,0,1,25-36.6,95.25,95.25,0,0,1,53,0,35.29,35.29,0,0,1,21.65,21.64,38,38,0,0,1,0,26.62,36.72,36.72,0,0,1-15,18.31L309.59,419a135.06,135.06,0,0,0-65.81,121.77H446.22" transform="translate(0 -0.01)"/><path class="c" d="M667.1,474.26a61.27,61.27,0,0,1-89.26,0,114.36,114.36,0,0,1,0-147.29,61.25,61.25,0,0,1,89.26,0,114.36,114.36,0,0,1,0,147.29Zm37.77-180.79a111.74,111.74,0,0,0-164.8,0,164.83,164.83,0,0,0,0,214.28,111.74,111.74,0,0,0,164.8,0,164.83,164.83,0,0,0,0-214.28" transform="translate(0 -0.01)"/><path class="c" d="M787.9,336.12h19.63V284.84L858,260.41v75.71h25.23v50.47H858v92.53a11.22,11.22,0,0,0,11.22,11.22h8.54v50.47H841.18a33.65,33.65,0,0,1-33.65-33.65V386.59H787.9V336.12" transform="translate(0 -0.01)"/></svg>