<svg xmlns="http://www.w3.org/2000/svg" viewBox="0 0 1000 1000"><defs><style>.a,.c{fill:#dc0032;}.b{fill:#ffce00;}.c{isolation:isolate;}</style></defs><title>C5-1 korkortonline.se</title><path class="a" d="M500.2.2c276.14,0,500,223.86,500,500s-223.86,500-500,500S.2,776.34.2,500.2,224.06.2,500.2.2Z" transform="translate(-0.2 -0.2)"/><path class="b" d="M500.2,116.87c211.71,0,383.33,171.62,383.33,383.33S711.91,883.54,500.2,883.54,116.87,711.91,116.87,500.2,288.49,116.87,500.2,116.87Z" transform="translate(-0.2 -0.2)"/><path d="M436.08,356.71q9.38-.48,18.77-.92a56.66,56.66,0,0,1,3.54,30,29.56,29.56,0,0,1-5.7,12.31A25.43,25.43,0,0,1,441.47,405a47,47,0,0,1-22.62,1.54q-52.52-6.76-105.17-12.31A13.84,13.84,0,0,0,301,413.73l15.22,34.18a120,120,0,0,0-122.49,40.61L215.24,506a92.31,92.31,0,1,0,162.07,76.61l27.14,5.52a120,120,0,0,0-6.83-70l33.84,33.84V605H634.8A92.31,92.31,0,1,0,759.4,481.94h77.24l-14.11-46.15H662.23A436,436,0,0,0,492.08,294.86a87.34,87.34,0,0,0-8.94-28.16,46.57,46.57,0,0,0-24.45-23.22,45.06,45.06,0,0,0-54.3,20.61,34.83,34.83,0,0,0-4,21.23A128.75,128.75,0,0,0,413,332.87a45.58,45.58,0,0,0,12,19.53,19.21,19.21,0,0,0,11.08,4.31Z" transform="translate(-0.2 -0.2)"/><path class="c" d="M134.27,187.31l53-53L866.13,813.09l-53,53Z" transform="translate(-0.2 -0.2)"/></svg>