<svg xmlns="http://www.w3.org/2000/svg" viewBox="0 0 1000 1000"><defs><style>.a{fill:#ffce00;}.b,.c{fill:#dc0032;}.c{isolation:isolate;}</style></defs><title>C6-1 korkortonline.se</title><path class="a" d="M500.2,950.2c-248.53,0-450-201.47-450-450s201.47-450,450-450,450,201.47,450,450-201.47,450-450,450Z" transform="translate(-0.2 -0.2)"/><path d="M884.19,620.42H794.86a47.73,47.73,0,1,1-93.2,0H561.87V583.07h70.24V389.94a15.39,15.39,0,0,1,15.39-15.39H882.35a383.3,383.3,0,0,1,1.84,245.87Z" transform="translate(-0.2 -0.2)"/><path d="M561.87,583.07v37.35H365.69a47.74,47.74,0,1,1-93.21,0H119.28a383.3,383.3,0,0,1,1.84-245.87h328V583.07Z" transform="translate(-0.2 -0.2)"/><path class="b" d="M500.2.2C224.06.2.2,224.06.2,500.2s223.86,500,500,500,500-223.86,500-500S776.34.2,500.2.2Zm0,116.67c211.71,0,383.34,171.62,383.34,383.33S711.91,883.54,500.2,883.54,116.86,711.91,116.86,500.2,288.49,116.87,500.2,116.87Z" transform="translate(-0.2 -0.2)"/><path class="c" d="M806.23,871.88l-61.43,43L194.17,128.52l61.43-43Z" transform="translate(-0.2 -0.2)"/></svg>