<svg xmlns="http://www.w3.org/2000/svg" viewBox="0 0 1000 1000"><defs><style>.a,.d{fill:#dc0032;}.b{fill:#ffce00;}.c{fill:#e97300;}.d{isolation:isolate;}</style></defs><title>C9-1 korkortonline.se</title><path class="a" d="M500.2,1000.2c-276.14,0-500-223.86-500-500S224.06.2,500.2.2s500,223.86,500,500-223.86,500-500,500Z" transform="translate(-0.2 -0.2)"/><path class="b" d="M500.2,883.53c-211.71,0-383.33-171.62-383.33-383.33S288.49,116.86,500.2,116.86,883.53,288.49,883.53,500.2,711.91,883.53,500.2,883.53Z" transform="translate(-0.2 -0.2)"/><path d="M500.2,743.5a38,38,0,0,0,30.37-15.19h65.75V682.75H530.57a38,38,0,0,0-60.75,0H404.07v45.56h65.75A38,38,0,0,0,500.2,743.5Zm185.66,30.37a11.4,11.4,0,0,0,11.41-11.4V648.56a11.35,11.35,0,0,0-11.41-11.37H663.11a11.35,11.35,0,0,0-11.4,11.37V762.47a11.4,11.4,0,0,0,11.41,11.4ZM655.14,226.53a57,57,0,0,1,57,57V613.87H288.29V283.5a57,57,0,0,1,57-57Z" transform="translate(-0.2 -0.2)"/><path class="c" d="M363.29,523.87H637.11V301.53H363.29Z" transform="translate(-0.2 -0.2)"/><path d="M625.48,773.87a11.4,11.4,0,0,0,11.41-11.4V648.56a11.35,11.35,0,0,0-11.41-11.37H602.73a11.35,11.35,0,0,0-11.4,11.37V762.47a11.4,11.4,0,0,0,11.41,11.4Zm-311,0a11.4,11.4,0,0,1-11.4-11.4V648.56a11.35,11.35,0,0,1,11.4-11.37h22.75a11.35,11.35,0,0,1,11.41,11.37V762.47a11.4,11.4,0,0,1-11.41,11.4Zm60.38,0a11.4,11.4,0,0,1-11.4-11.4V648.56a11.35,11.35,0,0,1,11.4-11.37h22.75a11.35,11.35,0,0,1,11.41,11.37V762.47a11.4,11.4,0,0,1-11.41,11.4Z" transform="translate(-0.2 -0.2)"/><path class="d" d="M866.13,813.09l-53,53L134.27,187.3l53-53Z" transform="translate(-0.2 -0.2)"/></svg>