<svg xmlns="http://www.w3.org/2000/svg" viewBox="0 0 1010 1010"><defs><style>.a{fill:#0c479d;}.b{fill:#fff;}.c{fill:#dc0032;}</style></defs><title>D11-1 korkortonline.se</title><path class="a" d="M505.2.2C226.3.2.2,226.3.2,505.2s226.1,505,505,505,505-226.1,505-505S784.1.2,505.2.2Z" transform="translate(-0.2 -0.2)"/><path class="b" d="M207.81,601.15h.73a54.08,54.08,0,1,0,103.18,0H640.46a54.08,54.08,0,1,0,102.48,0h92.62A15.14,15.14,0,0,0,850.7,586V427a15.14,15.14,0,0,0-15.14-15.15H208.13a15.15,15.15,0,0,0-14.23,10l-32.2,88.46V586a15.16,15.16,0,0,0,15.14,15.15Z" transform="translate(-0.2 -0.2)"/><path class="a" d="M253.64,448.64H215.51l-22.44,61.65h60.57V448.64Z" transform="translate(-0.2 -0.2)"/><path class="a" d="M269.87,448.64v61.65h98.42V448.64Z" transform="translate(-0.2 -0.2)"/><path class="a" d="M384.52,510.29V448.64h98.42v61.65Z" transform="translate(-0.2 -0.2)"/><path class="a" d="M499.17,448.64H597.6v61.65H499.17Z" transform="translate(-0.2 -0.2)"/><path class="a" d="M712.25,448.64H613.82v61.65h98.43Z" transform="translate(-0.2 -0.2)"/><path class="a" d="M811.76,448.64H728.48v61.65h83.28Z" transform="translate(-0.2 -0.2)"/><path class="c" d="M132.2,825.17l53,53,693-693-53-53Z" transform="translate(-0.2 -0.2)"/><path class="b" d="M505.2,1005.2c-276.14,0-500-223.86-500-500s223.86-500,500-500,500,223.86,500,500S781.34,1005.2,505.2,1005.2Zm0-23.33c263.26,0,476.67-213.41,476.67-476.67S768.46,28.53,505.2,28.53,28.53,241.94,28.53,505.2,241.94,981.87,505.2,981.87Z" transform="translate(-0.2 -0.2)"/></svg>