<svg xmlns="http://www.w3.org/2000/svg" viewBox="0 0 1010 1010"><defs><style>.a{fill:#0c479d;}.b{fill:#fff;}</style></defs><title>D2-1 korkortonline.se</title><path class="a" d="M505.2.2C226.3.2.2,226.3.2,505.2s226.1,505,505,505,505-226.1,505-505S784.1.2,505.2.2Z" transform="translate(-0.2 -0.2)"/><path class="b" d="M505.2,5.2c-276.14,0-500,223.86-500,500s223.86,500,500,500,500-223.86,500-500-223.86-500-500-500Z" transform="translate(-0.2 -0.2)"/><path class="a" d="M505.2,28.53C241.94,28.53,28.53,241.94,28.53,505.2S241.94,981.87,505.2,981.87,981.87,768.46,981.87,505.2,768.46,28.53,505.2,28.53Z" transform="translate(-0.2 -0.2)"/><path class="b" d="M233.24,287.63,586.79,641.18,478,750H750V478L641.18,586.79,287.63,233.24Z" transform="translate(-0.2 -0.2)"/></svg>