<svg xmlns="http://www.w3.org/2000/svg" viewBox="0 0 1010 1010"><defs><style>.a{fill:#0c479d;}.b{fill:#fff;}</style></defs><title>D3-1 korkortonline.se</title><path class="a" d="M505.2.2c278.9,0,505,226.1,505,505s-226.1,505-505,505S.2,784.1.2,505.2,226.3.2,505.2.2Z" transform="translate(-0.2 -0.2)"/><path class="b" d="M505.2,5.2c276.14,0,500,223.86,500,500s-223.86,500-500,500-500-223.86-500-500,223.86-500,500-500Z" transform="translate(-0.2 -0.2)"/><path class="a" d="M505.2,28.53c263.26,0,476.67,213.41,476.67,476.67S768.46,981.87,505.2,981.87,28.53,768.46,28.53,505.2,241.94,28.53,505.2,28.53Z" transform="translate(-0.2 -0.2)"/><path class="b" d="M327.33,683.83l43.4-43.64a190.77,190.77,0,0,0,169,52.35L496,612.6l166.16,49.23L612.93,826.45,570.4,748.66A252.32,252.32,0,0,1,327.33,683.83Z" transform="translate(-0.2 -0.2)"/><path class="b" d="M748.91,569.9l-59.49-15.76a190.74,190.74,0,0,0-39.15-172.52L602.9,459.44,562.45,290.93l167.18-39.68L683.53,327A252.31,252.31,0,0,1,748.91,569.9Z" transform="translate(-0.2 -0.2)"/><path class="b" d="M439.46,261.76l16.1,59.4A190.77,190.77,0,0,0,325.73,441.33l91.08,2.12L291.09,562.73l-117.94-125,88.63,2.07A252.33,252.33,0,0,1,439.46,261.76Z" transform="translate(-0.2 -0.2)"/></svg>