<svg xmlns="http://www.w3.org/2000/svg" viewBox="0 0 1010 1010"><defs><style>.a{fill:#0c479d;}.b{fill:#fff;}</style></defs><title>D4-1 korkortonline.se</title><path class="a" d="M505.2.2C226.3.2.2,226.3.2,505.2s226.1,505,505,505,505-226.1,505-505S784.1.2,505.2.2Z" transform="translate(-0.2 -0.2)"/><path class="b" d="M505.2,5.2c-276.14,0-500,223.86-500,500s223.86,500,500,500,500-223.86,500-500-223.86-500-500-500Z" transform="translate(-0.2 -0.2)"/><path class="a" d="M505.2,28.53c263.26,0,476.67,213.41,476.67,476.67S768.46,981.87,505.2,981.87,28.53,768.46,28.53,505.2,241.94,28.53,505.2,28.53Z" transform="translate(-0.2 -0.2)"/><path class="b" d="M585.55,595.28l26-1.7a138.54,138.54,0,0,0,275.6-9.49l6.06.46A144.61,144.61,0,0,0,684.18,446L644.64,377.5l14.67-32.95,40.14-18.29a13.46,13.46,0,0,0-5.53-25.71q-49.81-1.67-99.65-1.5a9.78,9.78,0,0,0-4.94,18.43q26.13,14.34,53.48,26.3l-14.38,32.31H377.78l18.71-46.31A30.77,30.77,0,0,1,430.4,284.1l.12,0,27.12,6.9,7.45,1.89L468.88,278l-7.45-1.89-27.23-6.93h-.05a46.15,46.15,0,0,0-54.46,61.08L330.61,451.76a144.61,144.61,0,0,0-73.14-21v6.08A138.54,138.54,0,1,0,367.36,657l4.91,3.57a144.62,144.62,0,0,0-28.66-199.94l8.4-20.8L503.94,571.93a43.07,43.07,0,0,0,43.52,61.59l9,29.5H547V678.4h39.24V663H572.56l-10.36-33.9a43.06,43.06,0,0,0,23.34-33.84Z" transform="translate(-0.2 -0.2)"/><path class="a" d="M307.48,550.08a53.86,53.86,0,0,1-52,33.32,7.67,7.67,0,1,1,0-15.33,38.46,38.46,0,0,0,36.73-21.34l27.44-67.92a115.89,115.89,0,1,0,12.66,9.74l-24.87,61.54Z" transform="translate(-0.2 -0.2)"/><path class="a" d="M749.31,558.79a16.54,16.54,0,1,1-13.53,26.64L634.17,592.1a115.92,115.92,0,1,0,64.39-121.22Z" transform="translate(-0.2 -0.2)"/><path class="a" d="M735.48,565.61l-50.31-87.15A116,116,0,0,0,633,576.76l100.2-6.57,2.33-4.58Z" transform="translate(-0.2 -0.2)"/><path class="a" d="M636.91,394.87l33.9,58.71a144.62,144.62,0,0,0-66.52,125.06l-19.87,1.3a43.07,43.07,0,0,0-18.54-25.55L635.2,398.7l1.71-3.83Z" transform="translate(-0.2 -0.2)"/><path class="a" d="M540.86,519.94V504.55H501.64v15.39h11.1l10,32.61a43.37,43.37,0,0,0-9.66,6.92L358.11,424.78l13.45-33.31h250L551.63,548.56a43.05,43.05,0,0,0-14.23-.6l-8.57-28Z" transform="translate(-0.2 -0.2)"/></svg>