<svg xmlns="http://www.w3.org/2000/svg" viewBox="0 0 1010 1010"><defs><style>.a{fill:#0c479d;}.b{fill:#fff;}</style></defs><title>D5-1 korkortonline.se</title><path class="a" d="M505.2.2C226.3.2.2,226.3.2,505.2s226.1,505,505,505,505-226.1,505-505S784.1.2,505.2.2Z" transform="translate(-0.2 -0.2)"/><path class="b" d="M505.2,5.2c-276.14,0-500,223.86-500,500s223.86,500,500,500,500-223.86,500-500-223.86-500-500-500Z" transform="translate(-0.2 -0.2)"/><path class="a" d="M505.2,28.53c263.26,0,476.67,213.41,476.67,476.67S768.46,981.87,505.2,981.87,28.53,768.46,28.53,505.2,241.94,28.53,505.2,28.53Z" transform="translate(-0.2 -0.2)"/><path class="b" d="M264,568.14a71,71,0,0,1,2.48-11.63q1.26-8.22,2.51-16.43,1.4-12.5,2.41-25,.53-7.72,1.28-15.43,5.93-28.86,12.94-57.48,10.67-38.86,20.67-77.91,7.38-24.42,15.44-48.63a59.27,59.27,0,0,1,9.61-20.3A54.47,54.47,0,0,1,348.7,278.7a318.94,318.94,0,0,1,45.9-17.85,39.46,39.46,0,0,0,8.93-3.37,43.43,43.43,0,0,0,11.29-9.4,12.77,12.77,0,0,0,2.29-4.42c.1-.4.19-.8.26-1.2s.11-.61.15-.91A85.82,85.82,0,0,0,419,222.42q0-6,.07-12a5.41,5.41,0,0,0-.8-3.17A109.09,109.09,0,0,1,404.89,165a117.13,117.13,0,0,1,3.16-36.17q1.5-6.28,3.49-12.43a35.82,35.82,0,0,1,6.73-11,47.11,47.11,0,0,1,17.08-13.32,62.58,62.58,0,0,1,39-6.72,48.46,48.46,0,0,1,22.08,9.11,39.73,39.73,0,0,1,4.93,4.6,70,70,0,0,1,10.33,14.81c.32.73.61,1.48.88,2.24a22.81,22.81,0,0,1,1.09,7.69c-.18,1.42-.38,2.84-.58,4.26a99.15,99.15,0,0,1-3.83,14.47,125.85,125.85,0,0,1-.82,28.24q-.86,6.89-2.3,13.66a35.92,35.92,0,0,1-2.63,8.15,42.28,42.28,0,0,1-2.06,9.17,10.84,10.84,0,0,1-1.66,3.2,39.81,39.81,0,0,1-8.62,7.92q-3.19,2-6.45,3.93a15.66,15.66,0,0,1-4,1.42,185.74,185.74,0,0,0-1.62,33.41,15.25,15.25,0,0,0,4.58,9.17,180.81,180.81,0,0,0,34.38,20.26,31.6,31.6,0,0,1,12.64,8.58,65.63,65.63,0,0,1,10,16.43,205.33,205.33,0,0,1,8.6,40.12q5.74,40.59,10.51,81.31,1.51,14.08,2.57,28.21a79.93,79.93,0,0,0,2.51,13.83,276.14,276.14,0,0,1,6.38,36q2.43,5.31,4.84,10.63,4.83,11.51,9.25,23.18a25.78,25.78,0,0,1,.92,5.31,42.15,42.15,0,0,1-.64,7.85c0,.32-.1.64-.16,1q-1.35,5.06-2.67,10.1a193.75,193.75,0,0,0,4.71,19.62,9,9,0,0,0,4,5.36A196.62,196.62,0,0,0,626.91,601a50.28,50.28,0,0,0,15.17-1.29,28.36,28.36,0,0,0,3.85-8.06,7.45,7.45,0,0,0-2-5.55q-2.5-1.61-5-3.18a23.09,23.09,0,0,1-9.57-13.31,18.87,18.87,0,0,1,0-12.24c.73-2.77,1.42-5.56,2.06-8.35a6.82,6.82,0,0,0,0-3.64,7.65,7.65,0,0,0-.85-1.66c0-.08-.1-.14-.14-.22a18.67,18.67,0,0,1-2.07-5,33.71,33.71,0,0,1,3-21.74,27,27,0,0,1,12.78-14.28,49.64,49.64,0,0,1,39.11-4.71,40.74,40.74,0,0,1,16.94,7.91,13.45,13.45,0,0,1,2.52,2.7,40.25,40.25,0,0,1,6.72,20.93,101.93,101.93,0,0,1-5,27.47,163.35,163.35,0,0,1-17.82,32.75c-.77,1-1.55,1.89-2.33,2.82a5.31,5.31,0,0,0-.92,4,74.19,74.19,0,0,0,1.09,7.55,3.34,3.34,0,0,0,1.16,2.21l.44.37c.56.5,1.09,1,1.61,1.55a103.09,103.09,0,0,1,17.27,26.75A95.92,95.92,0,0,1,713,655.06q14.47,43.11,28.44,86.39,1.2,2.5,2.18,5.12a50.53,50.53,0,0,1,2.81,7.15c.48,2.87.9,5.77,1.26,8.66a3.85,3.85,0,0,1-.35,1.74,9.39,9.39,0,0,1-4.26,4.54,13.42,13.42,0,0,1-8.15-.23,12.72,12.72,0,0,1-4.3-3.06,6.11,6.11,0,0,1-1.48-2.32,45.62,45.62,0,0,1-2-7.9,47.92,47.92,0,0,1,.09-8.47l-11.49-20.91-17.6-32.33a253.41,253.41,0,0,0,7.93,71.6,99.67,99.67,0,0,1-18.33,12.62l3.8,41.27,3.28,35.41a7.78,7.78,0,0,1,2.93-1.13,8.22,8.22,0,0,1,9.32,4.87,5.08,5.08,0,0,1,.28,2.32.82.82,0,0,1-.13.38,148.24,148.24,0,0,1-12.54,17.81,11.11,11.11,0,0,1-4.47,3.56,21.27,21.27,0,0,1-6.07,2.26,4.14,4.14,0,0,1-2.69-.57,1.82,1.82,0,0,1-.61-.9l-29.41-94.39a87.48,87.48,0,0,1-14,.53l-7.22,100.83a15,15,0,0,1-5.78,10l-.33.26a10.06,10.06,0,0,1-4.21,2.12,33.6,33.6,0,0,1-8.08-.06,22.94,22.94,0,0,1-4.36-1.43q-8.52-6.07-17.17-12a6.05,6.05,0,0,1-1.45-7,11.17,11.17,0,0,1,6.55-7.09,12.58,12.58,0,0,1,7.3.65,7.87,7.87,0,0,1,3.41,2.79.63.63,0,0,0,.58-.08.65.65,0,0,0,.26-.54l-12.92-96.18a110.84,110.84,0,0,1-26.72-13.53q16.36-38.37,29.16-78.11a156,156,0,0,0,4.07-18q1.33-7.5,2.51-15a34.54,34.54,0,0,0-3.31-19,6.52,6.52,0,0,0-.43-.72,130.18,130.18,0,0,0-11.14-13.75q-5.55-6-11.31-11.77a48.58,48.58,0,0,1-6.91-9.53q-2.09-4.21-3.83-8.59a36.12,36.12,0,0,1-.82-6.88q.3-12.66,1.14-25.28-3.27-10.8-7.16-21.41a92.3,92.3,0,0,0,0-10.52,127.36,127.36,0,0,0-9.07-13q-5.12-6.86-9.8-14a212,212,0,0,1-13.82-29.76,82.46,82.46,0,0,1-4.45-15.4,99.56,99.56,0,0,0-2.52-18.35q-4.31-17-10.25-33.61L508.21,567.3,492,574.94l5.37,98.4L479.67,790.83a11.22,11.22,0,0,1,16.07.83,16,16,0,0,1,1.75,14.93,42.16,42.16,0,0,1-9.07,14.64,315.37,315.37,0,0,1-21.82,23.69,41.86,41.86,0,0,1-12.81,8.89,29.28,29.28,0,0,1-8.14,1.41,5,5,0,0,1-3.74-2.52,42.35,42.35,0,0,1-4.2-8.74,51.58,51.58,0,0,1-1.17-12q.06-7.51-.19-15,1.41-17.58,3.06-35.13,1.26-25.6,1.34-51.24-.56-22.17-2.7-44.27-5.9-53-11.62-105.94l-9,.33q-10.11,145.38-21.35,290.69a94.62,94.62,0,0,1-8.83,24.86,13.1,13.1,0,0,1-11.56,7.3,19.79,19.79,0,0,1-17.83-7.61,171.58,171.58,0,0,1-26.07-50.73,13,13,0,0,1,.61-9.36,24.11,24.11,0,0,1,6.59-7.55,8.94,8.94,0,0,1,6.88-1.77,43.42,43.42,0,0,1,7,2.69l-9.71-261.09-10.83-5L337,506.38q6.3-58.92,12.94-117.79-4.52,11.81-9.6,23.4-4,10.23-8.67,20.21-9.61,23-18,46.43Q308,496.84,302.55,515.1q-4.79,16.29-9.06,32.73A98.11,98.11,0,0,1,294.67,565a88.87,88.87,0,0,1-3.26,19.56,26.63,26.63,0,0,1-3,6.49,36.16,36.16,0,0,1-6.89,7.46,3.66,3.66,0,0,1-1,.54,10.84,10.84,0,0,1-7.78-.53,15.84,15.84,0,0,1-10.69-15.4A76.62,76.62,0,0,1,264,568.14Z" transform="translate(-0.2 -0.2)"/></svg>