<svg xmlns="http://www.w3.org/2000/svg" viewBox="0 0 1010 1010"><defs><style>.a{fill:#0c479d;}.b{fill:#fff;}</style></defs><title>D7-1 korkortonline.se</title><path class="a" d="M505.2.2C226.3.2.2,226.3.2,505.2s226.1,505,505,505,505-226.1,505-505S784.1.2,505.2.2Z" transform="translate(-0.2 -0.2)"/><path class="b" d="M505.2,5.2c-276.14,0-500,223.86-500,500s223.86,500,500,500,500-223.86,500-500-223.86-500-500-500Z" transform="translate(-0.2 -0.2)"/><path class="a" d="M505.2,28.53c263.26,0,476.67,213.41,476.67,476.67S768.46,981.87,505.2,981.87,28.53,768.46,28.53,505.2,241.94,28.53,505.2,28.53Z" transform="translate(-0.2 -0.2)"/><path class="b" d="M785.48,555.93l12.35-.81a65.84,65.84,0,0,0,131-4.51l2.88.22A68.73,68.73,0,0,0,832.35,485l-18.79-32.55,7-15.65,19.08-8.7A6.4,6.4,0,0,0,837,415.85q-23.67-.78-47.36-.71a4.65,4.65,0,0,0-2.35,8.76q12.43,6.81,25.42,12.5l-6.83,15.35H686.74l8.89-22A14.62,14.62,0,0,1,711.74,408h.06l12.89,3.28,3.55.9,1.8-7.09-3.55-.9L713.55,401h0a21.93,21.93,0,0,0-25.88,29l-23.33,57.74a68.65,68.65,0,0,0-34.75-10v2.89a65.84,65.84,0,1,0,52.22,104.66l2.33,1.7a68.72,68.72,0,0,0-13.62-95l4-9.89,72.21,62.77a20.47,20.47,0,0,0,20.68,29.27l4.29,14h-4.5v7.31h18.65v-7.31h-6.51L774.39,572a20.49,20.49,0,0,0,11.09-16.08Z" transform="translate(-0.2 -0.2)"/><path class="a" d="M653.33,534.44a25.6,25.6,0,0,1-24.72,15.84,3.64,3.64,0,1,1,0-7.28,18.29,18.29,0,0,0,17.46-10.15l13-32.28a55.12,55.12,0,1,0,6,4.63l-11.81,29.25Z" transform="translate(-0.2 -0.2)"/><path class="a" d="M863.31,538.58a7.86,7.86,0,1,1-6.43,12.67l-48.3,3.16a55.1,55.1,0,1,0,30.61-57.6l24.12,41.77Z" transform="translate(-0.2 -0.2)"/><path class="a" d="M856.74,541.82l-23.92-41.41A55.1,55.1,0,0,0,808,547.12L855.63,544l1.11-2.18Z" transform="translate(-0.2 -0.2)"/><path class="a" d="M809.89,460.68,826,488.58A68.68,68.68,0,0,0,794.39,548l-9.45.61a20.47,20.47,0,0,0-8.81-12.14l32.94-74,.82-1.82Z" transform="translate(-0.2 -0.2)"/><path class="a" d="M764.24,520.12v-7.31H745.6v7.31h5.28l4.74,15.5a20.71,20.71,0,0,0-4.6,3.28l-73.63-64,6.39-15.82H802.6l-33.24,74.65a20.47,20.47,0,0,0-6.76-.28l-4.08-13.32Z" transform="translate(-0.2 -0.2)"/><path class="b" d="M167.52,534.25a31.17,31.17,0,0,1,1.1-5.16c.37-2.43.75-4.86,1.11-7.29q.61-5.55,1.07-11.11.24-3.42.57-6.84,2.63-12.81,5.74-25.5,4.74-17.24,9.17-34.56,3.27-10.83,6.85-21.58a26.25,26.25,0,0,1,4.26-9,24.13,24.13,0,0,1,7.72-7.36,141.34,141.34,0,0,1,20.36-7.92,17.55,17.55,0,0,0,4-1.5,19,19,0,0,0,5-4.17,5.5,5.5,0,0,0,1-1.95l.12-.54c0-.13.05-.27.07-.4a38.32,38.32,0,0,0,.65-8.48c0-1.78,0-3.55,0-5.33a2.32,2.32,0,0,0-.36-1.4A48.34,48.34,0,0,1,230,355.42a51.92,51.92,0,0,1,1.4-16.05q.66-2.79,1.55-5.51a15.94,15.94,0,0,1,3-4.89,20.84,20.84,0,0,1,7.58-5.9,27.78,27.78,0,0,1,17.32-3,21.41,21.41,0,0,1,9.79,4.05,16.83,16.83,0,0,1,2.19,2,31,31,0,0,1,4.58,6.57,9.4,9.4,0,0,1,.39,1,9.86,9.86,0,0,1,.49,3.41c-.08.63-.17,1.26-.26,1.89a43.37,43.37,0,0,1-1.7,6.42A55.89,55.89,0,0,1,276,358q-.37,3-1,6a16.29,16.29,0,0,1-1.17,3.62,18.88,18.88,0,0,1-.91,4.07,5.06,5.06,0,0,1-.74,1.42,17.71,17.71,0,0,1-3.82,3.51c-.95.6-1.9,1.18-2.86,1.75a6.74,6.74,0,0,1-1.8.62,83.54,83.54,0,0,0-.72,14.83,6.77,6.77,0,0,0,2,4.06,79.76,79.76,0,0,0,15.25,9,14.09,14.09,0,0,1,5.61,3.81A29.27,29.27,0,0,1,290.3,418a91,91,0,0,1,3.81,17.79q2.55,18,4.67,36.07.66,6.25,1.14,12.52a35.35,35.35,0,0,0,1.11,6.13,123.45,123.45,0,0,1,2.83,16l2.15,4.71c1.43,3.41,2.8,6.83,4.1,10.29a11.68,11.68,0,0,1,.41,2.35,19.49,19.49,0,0,1-.28,3.49c0,.14-.05.28-.07.42-.4,1.5-.8,3-1.19,4.49.55,2.93,1.25,5.84,2.09,8.7a4,4,0,0,0,1.78,2.38,87.1,87.1,0,0,0,15.68,5.51,22.4,22.4,0,0,0,6.73-.57,12.41,12.41,0,0,0,1.7-3.58,3.34,3.34,0,0,0-.89-2.46l-2.25-1.41a10.28,10.28,0,0,1-4.24-5.9,8.31,8.31,0,0,1,0-5.44c.32-1.22.63-2.46.91-3.7a2.94,2.94,0,0,0,0-1.61,3.05,3.05,0,0,0-.38-.74l-.06-.09a8.12,8.12,0,0,1-.91-2.22,14.88,14.88,0,0,1,1.33-9.64,11.93,11.93,0,0,1,5.67-6.34A22,22,0,0,1,353.49,503a18.14,18.14,0,0,1,7.51,3.51,6.07,6.07,0,0,1,1.12,1.2,18,18,0,0,1,3,9.28,45.17,45.17,0,0,1-2.2,12.19,72.5,72.5,0,0,1-7.9,14.53c-.34.42-.69.84-1,1.25a2.34,2.34,0,0,0-.4,1.79,31,31,0,0,0,.48,3.35,1.47,1.47,0,0,0,.52,1l.19.17c.25.22.48.45.71.69a45.59,45.59,0,0,1,7.67,11.86,42.12,42.12,0,0,1,3.6,9q6.42,19.13,12.62,38.32c.35.74.68,1.5,1,2.27a22.16,22.16,0,0,1,1.24,3.17c.21,1.28.4,2.56.56,3.84a1.9,1.9,0,0,1-.15.78,4.24,4.24,0,0,1-1.89,2,6,6,0,0,1-3.62-.1,5.85,5.85,0,0,1-1.91-1.36,2.66,2.66,0,0,1-.65-1,19.16,19.16,0,0,1-.87-3.51,21.35,21.35,0,0,1,0-3.75l-5.1-9.28-7.81-14.34a112.2,112.2,0,0,0,3.52,31.76,44,44,0,0,1-8.13,5.6l1.68,18.31,1.46,15.71a3.23,3.23,0,0,1,1.3-.5,3.63,3.63,0,0,1,4.13,2.16,2.23,2.23,0,0,1,.13,1,.55.55,0,0,1-.06.18,66.71,66.71,0,0,1-5.56,7.89,5,5,0,0,1-2,1.59,10,10,0,0,1-2.7,1,1.85,1.85,0,0,1-1.19-.26.81.81,0,0,1-.27-.39L339.44,632a39.06,39.06,0,0,1-6.21.24L330,677a6.62,6.62,0,0,1-2.56,4.43l-.15.12a4.68,4.68,0,0,1-1.86.94,15.4,15.4,0,0,1-3.59,0,10.16,10.16,0,0,1-1.93-.64q-3.78-2.68-7.62-5.31a2.69,2.69,0,0,1-.64-3.1,5,5,0,0,1,2.9-3.14,5.6,5.6,0,0,1,3.24.28,3.52,3.52,0,0,1,1.51,1.24.27.27,0,0,0,.26,0,.3.3,0,0,0,.12-.24L314,628.84a48.75,48.75,0,0,1-11.85-6q7.26-17,12.93-34.65a68.16,68.16,0,0,0,1.8-8c.4-2.22.77-4.45,1.12-6.67a15.35,15.35,0,0,0-1.47-8.44,3.37,3.37,0,0,0-.19-.32,57,57,0,0,0-4.94-6.1q-2.46-2.67-5-5.23a21.59,21.59,0,0,1-3.07-4.22c-.61-1.25-1.18-2.52-1.69-3.81a15.8,15.8,0,0,1-.37-3.06q.13-5.61.51-11.21-1.46-4.78-3.18-9.5a40.42,40.42,0,0,0,0-4.67,55.86,55.86,0,0,0-4-5.78q-2.26-3-4.34-6.21a94.09,94.09,0,0,1-6.13-13.2,36.26,36.26,0,0,1-2-6.83,44.55,44.55,0,0,0-1.12-8.14q-1.92-7.56-4.55-14.91l-.55,72-7.2,3.39,2.38,43.65L263.21,633a5,5,0,0,1,7.13.37,7.15,7.15,0,0,1,.78,6.63,19,19,0,0,1-4,6.49A139.28,139.28,0,0,1,257.41,657a18.63,18.63,0,0,1-5.68,3.94,13.09,13.09,0,0,1-3.61.63,2.21,2.21,0,0,1-1.66-1.12,19.26,19.26,0,0,1-1.87-3.88,22.73,22.73,0,0,1-.51-5.33q0-3.33-.09-6.66.63-7.79,1.35-15.58.57-11.35.6-22.73-.25-9.84-1.2-19.64-2.61-23.49-5.15-47l-4,.14q-4.49,64.5-9.47,129a42.43,42.43,0,0,1-3.92,11,5.81,5.81,0,0,1-5.13,3.23,8.79,8.79,0,0,1-7.91-3.38,76,76,0,0,1-11.56-22.5,5.73,5.73,0,0,1,.27-4.15,10.67,10.67,0,0,1,2.92-3.35,4,4,0,0,1,3.05-.78,18.41,18.41,0,0,1,3.09,1.19l-4.31-115.82-4.81-2.2,2.1-25.19q2.79-26.13,5.74-52.25-2,5.23-4.26,10.38-1.78,4.53-3.84,9-4.27,10.2-8,20.6-2.52,8.07-5,16.18-2.12,7.21-4,14.52a42.87,42.87,0,0,1,.53,7.59,39.88,39.88,0,0,1-1.45,8.68,12.27,12.27,0,0,1-1.31,2.88,16,16,0,0,1-3.06,3.3,1.26,1.26,0,0,1-.44.24,4.73,4.73,0,0,1-3.45-.23,7,7,0,0,1-4.74-6.83,34.26,34.26,0,0,1,.83-6.62Z" transform="translate(-0.2 -0.2)"/><path class="b" d="M493.54,15.2h23.33v980H493.54Z" transform="translate(-0.2 -0.2)"/></svg>