<svg xmlns="http://www.w3.org/2000/svg" viewBox="0 0 397.85 284.46"><defs><style>.a,.c{fill:#fff;}.a{stroke:#0c479d;}.b{fill:#0c479d;}.d{fill:#dc0032;}</style></defs><title>E10-1 korkortonline.se</title><rect class="a" x="0.5" y="0.5" width="396.85" height="283.46"/><path class="b" d="M23.18,284H374.67a22.67,22.67,0,0,0,22.68-22.67V23.18A22.67,22.67,0,0,0,374.67.5H23.18A22.67,22.67,0,0,0,.5,23.18V261.29A22.67,22.67,0,0,0,23.18,284Z"/><path class="c" d="M23.18,272.63H374.67A11.34,11.34,0,0,0,386,261.29V23.18a11.34,11.34,0,0,0-11.34-11.34H23.18A11.34,11.34,0,0,0,11.84,23.18V261.29a11.34,11.34,0,0,0,11.34,11.34Z"/><polygon class="b" points="290.49 85.54 346.33 85.54 346.33 232.94 84.13 232.94 290.49 85.54"/><polygon class="b" points="59.74 232.94 51.52 232.94 51.52 85.54 65.7 85.54 65.7 60.03 74.2 51.52 91.21 51.52 91.21 43.02 108.22 43.02 108.22 51.52 125.22 51.52 133.73 60.03 133.73 94.04 142.23 94.04 142.23 88.37 159.24 34.52 176.25 88.37 176.25 94.04 184.75 94.04 184.75 69.67 224.44 51.52 264.12 69.67 264.12 85.54 266.1 85.54 59.74 232.94"/><path class="c" d="M106.29,199.69l9-6.41a7,7,0,0,0-1.14-2.28q-3.88-6.75-8.12-13.29.38-6.24,1-12.47a117.92,117.92,0,0,0,11.7,7.88,13.08,13.08,0,0,0,1.44-1.35c1,.33,1.9.7,2.82,1.12a1.33,1.33,0,0,0,1.1.12c1-.28,2-.57,3-.9a2.25,2.25,0,0,0,.61-.33.63.63,0,0,0,.23-.46,4.31,4.31,0,0,0-.2-1.38c-.17-.53-.33-1.07-.47-1.61a1.69,1.69,0,0,0-.15-.43,1.33,1.33,0,0,0-.81-.53,2.43,2.43,0,0,0-.6-.05c-1,0-2-.09-3-.2a5,5,0,0,0,0-1q-6.78-4.68-13.8-9a41.55,41.55,0,0,0-7-20,4,4,0,0,1,.83-1.21c.35-.06.71-.11,1.06-.14a3.39,3.39,0,0,0,1.18-.23l.21-.1a.66.66,0,0,0,.32-.47,6,6,0,0,1,.36-1.32c.13-.49.28-1,.45-1.45s.18-.73.26-1.09a1.67,1.67,0,0,0,0-.8,2.75,2.75,0,0,1-.06-1,4.3,4.3,0,0,1,.28-1.74c.09-.26.18-.53.25-.79a2.26,2.26,0,0,0,.08-.44,4.86,4.86,0,0,0-1.23-3.64,7.92,7.92,0,0,0-5-2.6,5.26,5.26,0,0,0-5.25,1.77,7.73,7.73,0,0,0-1.63,4.42,9.49,9.49,0,0,0,.45,4.16,10.86,10.86,0,0,1,1,4.19,4.67,4.67,0,0,1-2.61,4.67,27.27,27.27,0,0,0-5.28,3.83,77.81,77.81,0,0,0-6.16,8.07,36.88,36.88,0,0,0-3.65,5.52q-1.89,8.11-3.29,16.34a3.36,3.36,0,0,1,1.33,1.18,1.24,1.24,0,0,1-.58,1,.88.88,0,0,1-.69-.08l-.11-.08a.57.57,0,0,0-.58-.13.3.3,0,0,0-.17.12.47.47,0,0,0,0,.47,9.8,9.8,0,0,0,3.41,4.35,1.11,1.11,0,0,0,1.13,0h0c.39-.35.79-.68,1.19-1a3.89,3.89,0,0,0,.53-.46,1.86,1.86,0,0,0,.45-.75c.28-.86.54-1.72.76-2.6L82.3,175q.44-6.87,1.51-13.66a47.8,47.8,0,0,1,5.36-6.76l1.94,10.75-2.68,12.32,2.69.45,1.62,3q-.83,5.42-1.72,10.8a6,6,0,0,1-2.72,3.71A17.06,17.06,0,0,0,83,199.5q-4.22,5.3-8.64,10.41a4.74,4.74,0,0,0,.36.58.36.36,0,0,1,0,.09.61.61,0,0,1-.16.54c-.57.74-1.17,1.46-1.81,2.15a.85.85,0,0,0-.09.22.65.65,0,0,0,0,.28.61.61,0,0,0,0,.12c.06.09.14.18.21.27s.2.24.3.37A66.26,66.26,0,0,0,77.93,220l6.86-4.9A23.33,23.33,0,0,1,86,212a8.38,8.38,0,0,1,1.33-2.08,31.9,31.9,0,0,1,3.24-3.13A23.85,23.85,0,0,0,94,202.69a16.13,16.13,0,0,1,2.92-2.86,7.12,7.12,0,0,0,2.47-3.64,30.14,30.14,0,0,0,1.7-6.93,17.91,17.91,0,0,1,2.85,2.79,23.61,23.61,0,0,1,1.71,2.39,5.6,5.6,0,0,1,.58,2.26c0,.66,0,1.31.06,2C106.26,199,106.28,199.35,106.29,199.69Z"/><path class="c" d="M175.73,150.09H147.89v5.11a2.27,2.27,0,0,1-2.27,2.26h-2.83a2.25,2.25,0,0,1-2.27-2.26v-5.11h-3.4v-2.55H135.7a3.39,3.39,0,0,1,0-4.25h1.42v-7.65a17.17,17.17,0,0,1,0-1.76,10.19,10.19,0,0,1,3.36-6.46,125.69,125.69,0,0,1,3.55-13.22,4.51,4.51,0,0,1,3.43-3,85.82,85.82,0,0,1,33.09,0,4.51,4.51,0,0,1,3.43,3,125.69,125.69,0,0,1,3.55,13.22,10.19,10.19,0,0,1,3.36,6.46c0,.58.06,1.17,0,1.76v3.56Z"/><path class="c" d="M200.06,182.26a4.45,4.45,0,0,0,2.55.28c2.28-.53,4.54-1.09,6.8-1.7A62.41,62.41,0,0,0,208,195.58a37.43,37.43,0,0,0-5.67,5.44,11.6,11.6,0,0,1-1.26,1.36l-.38.33-.09.07c-.33.23-.67.45-1,.65a3.35,3.35,0,0,0-1.71,1.84,1.18,1.18,0,0,0-.09.37h0l0,.3a5.14,5.14,0,0,1-.21.86,15.15,15.15,0,0,1-6.27,7.78,6.87,6.87,0,0,1-4.25,1.13c-.6,0-1.2,0-1.8,0a.65.65,0,0,0-.37,1.21l0,0q2.24,1.68,4.61,3.18a2.84,2.84,0,0,0,1.92.44,1,1,0,0,0,.31-.14,15.81,15.81,0,0,0,1.54-1.3,10.48,10.48,0,0,0,3.11,1.14,23.25,23.25,0,0,1,3.41-4.54,34.93,34.93,0,0,0,4.81-8.22l5.11-2a62.87,62.87,0,0,0,6.8-3.69,14.13,14.13,0,0,1,3.4,3,17,17,0,0,0,9.91,5.76l.47,0a50.61,50.61,0,0,1,10.59,1.69,7.24,7.24,0,0,1,.57-1.7,5.62,5.62,0,0,1,3.35,3.26.61.61,0,0,0,.19.26.89.89,0,0,0,.67.13.86.86,0,0,0,.55-.4.32.32,0,0,0,.06-.23c-.08-.82-.17-1.64-.28-2.46s-.36-1.7-.57-2.55l-.16-.9-.09-.64a2.4,2.4,0,0,0-.35-.86,1.46,1.46,0,0,0-1.1-.43,22.42,22.42,0,0,1-5.67,0,11.3,11.3,0,0,0-7.65-.28,61.77,61.77,0,0,0-4.54-7.37,2.32,2.32,0,0,1-.28-1.71,6.76,6.76,0,0,0-.12-2.76,1.74,1.74,0,0,0-.34-.68c-.81-1.11-1.6-2.22-2.37-3.36a28.12,28.12,0,0,1-3.12-11,30.91,30.91,0,0,0,6.23-.29,1.42,1.42,0,0,1,1.42.57,14.21,14.21,0,0,0,6.52,4.53,5.7,5.7,0,0,0,3.16.34.94.94,0,0,0,.45-.21,5.36,5.36,0,0,0,1.21-1.26,8.23,8.23,0,0,0,1-1.76.38.38,0,0,0-.08-.42.84.84,0,0,0-.82-.15,1.41,1.41,0,0,0-.29.18,4,4,0,0,1-2.58.74.79.79,0,0,1-.2,0,2.33,2.33,0,0,1-.75-.53l-5.11-4.82a10.11,10.11,0,0,0-4.53-2l-8.79-1.7a5.38,5.38,0,0,1,0-2.26,8,8,0,0,0,5.95-2.27l-.76-.26a.4.4,0,0,1-.17-.15.66.66,0,0,1,0-.68.36.36,0,0,1,.07-.1,11.29,11.29,0,0,0,1.66-3.63,2.27,2.27,0,0,1-3.12-.57,14.38,14.38,0,0,1-1.66-3.3,1.28,1.28,0,0,0-.11-.24,3.39,3.39,0,0,0-1.91-1.56,10.2,10.2,0,0,0-7.65.55,4.15,4.15,0,0,0-1.7,2,8,8,0,0,0-.65,1.86,9.26,9.26,0,0,0,.1,3.44,17.29,17.29,0,0,0,1.68,4.62,2.84,2.84,0,0,0,1.87,1.42,1.2,1.2,0,0,1,.49.14.52.52,0,0,1,.23.38,1.71,1.71,0,0,1-.32,1.18,11.42,11.42,0,0,1-3.69,2.89c-1.33.51-2.64,1.07-3.93,1.69-.25.14-.51.3-.75.46a1.93,1.93,0,0,1-1.51.31c-.82-.24-1.63-.51-2.43-.82a14.33,14.33,0,0,1-2.72-1.41,2.33,2.33,0,0,1-.76-.48.61.61,0,0,1-.13-.22,3.75,3.75,0,0,0-.24-.44,3.43,3.43,0,0,0-1-1.07.67.67,0,0,0-.18-.07,3.41,3.41,0,0,1-1.33-.56,2.82,2.82,0,0,0-1.27-.54,1,1,0,0,0-.3,0,12.73,12.73,0,0,0-1.61.32l-.49.14a.42.42,0,0,0-.3.34v0a8.61,8.61,0,0,0,1,3.16,1.45,1.45,0,0,0,.34.4,2.21,2.21,0,0,0,1.6.39,2.85,2.85,0,0,1,2.11.56,18.12,18.12,0,0,1,1.93,1.57A18.75,18.75,0,0,0,200.06,182.26Z"/><path class="c" d="M228.68,138.44a226.77,226.77,0,0,0,72.78,85.85h16.26a226.83,226.83,0,0,1-84.21-85.85Z"/><polygon class="c" points="260.39 126.89 264.36 124.6 264.36 178.14 331.26 178.14 331.26 124.6 335.23 126.89 335.23 122.31 297.81 100.71 260.39 122.31 260.39 126.89"/><path class="b" d="M151,142.72h26.08a5.68,5.68,0,0,0-1.42-7.37H152.42A5.67,5.67,0,0,0,151,142.72Z"/><path class="c" d="M110.57,214.05q1.16,3.47,2.29,6.93a10,10,0,0,0,1.62-.2,7.9,7.9,0,0,0-.14,1.94,5.88,5.88,0,0,0,.08,1,1.94,1.94,0,0,0,.67,1.22.85.85,0,0,0,.72.16,14.65,14.65,0,0,0,4.84-1.45q3.3-1.65,6.7-3.08a18.87,18.87,0,0,0,1.77-1.19l0,0a.45.45,0,0,0-.05-.55,1.37,1.37,0,0,0-.68-.39h0a1.16,1.16,0,0,0-.61,0,9.81,9.81,0,0,1-6.4-1,11.83,11.83,0,0,1,1.72-1.44q-1.53-4.37-3.24-8.67Z"/><path class="b" d="M146.75,135.35a3.69,3.69,0,1,0-3.68,3.69A3.68,3.68,0,0,0,146.75,135.35Z"/><path class="b" d="M183.05,127.54a90.88,90.88,0,0,0-38-.2,1.12,1.12,0,0,1-1.33-1.36q1.06-4.7,2.51-9.29a3.38,3.38,0,0,1,2.62-2.32,82.42,82.42,0,0,1,30.36,0,3.38,3.38,0,0,1,2.61,2.32q1.47,4.69,2.56,9.49a1.13,1.13,0,0,1-.3,1A1.11,1.11,0,0,1,183.05,127.54Z"/><path class="b" d="M188.71,135.35A3.69,3.69,0,1,0,185,139,3.69,3.69,0,0,0,188.71,135.35Z"/><polygon class="b" points="267.76 122.64 297.81 105.29 327.86 122.64 327.86 174.74 306.31 174.74 306.31 150.36 289.3 150.36 289.3 174.74 267.76 174.74 267.76 122.64"/><rect class="c" x="289.3" y="123.15" width="17.01" height="17.01"/><path class="d" d="M28.57,272.63H23.18A11.34,11.34,0,0,1,13,266.32L369.28,11.84h5.39a11.35,11.35,0,0,1,10.17,6.31Z"/></svg>