<svg xmlns="http://www.w3.org/2000/svg" viewBox="0 0 397.85 397.85"><defs><style>.a,.c{fill:#fff;}.a{stroke:#0c479d;}.b{fill:#0c479d;}.d{fill:#dc0032;}.e{fill:none;}</style></defs><title>E12-1 korkortonline.se</title><rect class="a" x="0.5" y="0.5" width="396.85" height="396.85"/><path class="b" d="M23.18.5H374.67a22.67,22.67,0,0,1,22.68,22.68V374.67a22.67,22.67,0,0,1-22.68,22.68H23.18A22.67,22.67,0,0,1,.5,374.67V23.18A22.67,22.67,0,0,1,23.18.5Z"/><path class="c" d="M23.18,11.84H374.67A11.34,11.34,0,0,1,386,23.18V374.67A11.34,11.34,0,0,1,374.67,386H23.18a11.34,11.34,0,0,1-11.34-11.34V23.18A11.34,11.34,0,0,1,23.18,11.84Z"/><polygon class="b" points="346.33 61.55 346.33 346.33 61.55 346.33 346.33 61.55"/><polygon class="b" points="51.52 336.31 51.52 51.52 336.31 51.52 51.52 336.31"/><polygon class="c" points="86.94 320.93 87.95 320.93 87.95 319.92 86.94 320.93"/><polygon class="c" points="94.82 313.05 100.29 320.93 110.36 320.93 100.76 307.11 94.82 313.05"/><polygon class="c" points="99.98 287.85 99.26 287.85 87.95 299.29 87.95 275.57 79.68 275.57 79.68 308.15 99.98 287.85"/><path class="c" d="M123.69,320.93H132V300.39a4.54,4.54,0,1,1,9.08,0v20.54h8.27V300.39a4.54,4.54,0,1,1,9.07,0v20.54h8.27V298a10.72,10.72,0,0,0-19.48-6.13A11.31,11.31,0,0,0,132,289.18v-1.33h-8.27Z"/><polygon class="c" points="209.76 275.57 190.91 320.93 181.96 320.93 200.8 275.57 209.76 275.57"/><path class="c" d="M226,296.12v19.21a5.38,5.38,0,0,0,5.61,5.6h5.87v-8.27h-1.34a1.77,1.77,0,0,1-1.36-.51,1.72,1.72,0,0,1-.5-1.36V296.12h4.13v-8.27h-4.13V275.57l-8.28,4v8.27h-3.33v8.27Z"/><path class="c" d="M250.94,279.31a5.21,5.21,0,1,1,5.21,5.2A5.2,5.2,0,0,1,250.94,279.31Z"/><rect class="c" x="252.01" y="287.85" width="8.27" height="33.08"/><path class="c" d="M275.22,320.93h8.27V300.39a4.54,4.54,0,1,1,9.07,0v20.54h8.27V300.39a4.54,4.54,0,1,1,9.07,0v20.54h8.27V298a10.71,10.71,0,0,0-19.47-6.13,11.31,11.31,0,0,0-15.21-2.67v-1.33h-8.27Z"/><path class="d" d="M11.91,375.92l364-364a11.33,11.33,0,0,1,10,10l-364,364A11.32,11.32,0,0,1,11.91,375.92Z"/><path class="c" d="M133.3,122.28h8.27V101.74a4.54,4.54,0,1,1,9.07,0v20.54h8.27V101.74a4.54,4.54,0,1,1,9.07,0v20.54h8.27v-23a10.72,10.72,0,0,0-19.48-6.13,11.29,11.29,0,0,0-15.2-2.67V89.19H133.3Z"/><path class="c" d="M221.07,89.19H212.8V91.6a11.8,11.8,0,0,0-5.34-2.41,14,14,0,0,0-7.74.54,15.89,15.89,0,0,0-8,7.73,24,24,0,0,0,0,16.81,15.31,15.31,0,0,0,9.34,8.27,14.62,14.62,0,0,0,11.74-2.4v2.14h8.27Z"/><polygon class="c" points="266.3 121.53 255.32 105.73 266.82 89.19 256.75 89.19 250.28 98.49 243.81 89.19 233.74 89.19 245.24 105.73 233.74 122.28 243.81 122.28 250.28 112.98 256.75 122.28 265.55 122.28 266.3 121.53"/><path class="b" d="M212.8,109.47a7.58,7.58,0,0,1-5.61,5.34,5.89,5.89,0,0,1-4.8-1.07,9.71,9.71,0,0,1-3.47-6.14,13.7,13.7,0,0,1,0-3.73,9.71,9.71,0,0,1,3.47-6.14,5.89,5.89,0,0,1,4.8-1.07A7.58,7.58,0,0,1,212.8,102Z"/><path class="c" d="M175,212.86q-.15-1.31-.42-2.58A26,26,0,0,0,166,195a27.86,27.86,0,0,0,5.67-18.71A24.64,24.64,0,0,0,160.94,157a39.74,39.74,0,0,0-22.11-7.37A45.79,45.79,0,0,0,108.78,161l11.34,12.47a28.36,28.36,0,0,1,23.81-6.24,14.46,14.46,0,0,1,9.64,6.81,10.47,10.47,0,0,1,0,7.93,9.32,9.32,0,0,1-9.07,5.67H129.76V204h15.87a12.76,12.76,0,0,1,11.91,7.37,13,13,0,0,1,0,10.21,16.84,16.84,0,0,1-11.91,8.5,37.93,37.93,0,0,1-14.17,0,28.4,28.4,0,0,1-13.6-7.93l-13,11.33a41,41,0,0,0,22.67,13.61,53.62,53.62,0,0,0,12.12,1.09Z"/><path class="c" d="M210.68,197.19,257.92,150a38.09,38.09,0,0,1,23,12.12,56.74,56.74,0,0,1,0,73.71,38.46,38.46,0,0,1-56.7,0,56.05,56.05,0,0,1-13.6-36.85C210.66,198.35,210.66,197.77,210.68,197.19Z"/><path class="e" d="M232.72,155.11l-13,13a57.44,57.44,0,0,1,4.51-6A38.25,38.25,0,0,1,232.72,155.11Z"/><path class="b" d="M252.61,230.67a20.45,20.45,0,0,1-15.19-6.56,39.1,39.1,0,0,1,0-50.37,20.88,20.88,0,0,1,30.39,0,39.14,39.14,0,0,1,0,50.37A20.48,20.48,0,0,1,252.61,230.67Z"/></svg>