<svg xmlns="http://www.w3.org/2000/svg" viewBox="0 0 250.45 250.45"><defs><style>.a,.c{fill:#000;}.a{stroke:#000;}.b{fill:#fff;}</style></defs><title>E13-1 korkortonline.se</title><rect class="a" x="0.5" y="0.5" width="249.45" height="249.45"/><path class="b" d="M24.26,250H226.19A23.76,23.76,0,0,0,250,226.19V24.26A23.76,23.76,0,0,0,226.19.5H24.26A23.76,23.76,0,0,0,.5,24.26V226.19A23.76,23.76,0,0,0,24.26,250Z"/><rect class="c" x="12.38" y="12.38" width="225.69" height="225.69" rx="11.88"/><path class="b" d="M30.23,175.43,47.69,159.7v.81c0,.1,0,.2,0,.3a23.22,23.22,0,0,0,.33,2.64,7.68,7.68,0,0,0,.42,1.47,4.92,4.92,0,0,0,.65,1.16c.85,1.14,1.76,2.25,2.71,3.32a44.46,44.46,0,0,0,3.12,3.17,10.43,10.43,0,0,0,1.73,1.3,12.18,12.18,0,0,0,3,1.29A48.7,48.7,0,0,0,66,176.49c.79.11,1.58.2,2.37.29.33,0,.66.06,1,.08a8.17,8.17,0,0,0,1.64-.1q2.57-.44,5.08-1a37.88,37.88,0,0,0,6.55-2.19,9,9,0,0,0,2.78-1.92,16.35,16.35,0,0,0,1.63-1.9c.88-1.2,1.7-2.43,2.48-3.69s1.53-2.6,2.24-3.93a23.92,23.92,0,0,0,1.12-2.41,15,15,0,0,0,1-3.83A34,34,0,0,0,94,150c-.11-1.74-.3-3.48-.57-5.21a45.8,45.8,0,0,0-.92-4.49c-.33-1.26-.72-2.51-1.15-3.75s-.93-2.49-1.47-3.71A20.51,20.51,0,0,0,88,129.5a32.66,32.66,0,0,0-3-3.76,18.86,18.86,0,0,0-3.59-3,15.48,15.48,0,0,0-3.88-1.83,22.11,22.11,0,0,0-3.69-.82,31.11,31.11,0,0,0-4.52-.3,43.69,43.69,0,0,0-5.11.33,26.55,26.55,0,0,0-3.85.79,25.76,25.76,0,0,0-4.32,1.68,10.06,10.06,0,0,0-2.4,1.68c-.54.5-1.06,1-1.55,1.58s-1.23,1.41-1.81,2.15a5.68,5.68,0,0,0-1,1.85.55.55,0,0,1-.52.39H28.65L41.72,54.48H113V75.37H55.91l-6,32.84,1.43-.72.07,0,1.56-.9,1-.59c.5-.28,1-.55,1.52-.8.73-.37,1.47-.72,2.21-1.07s1.35-.59,2-.83c1.06-.38,2.12-.72,3.19-1q1.17-.34,2.37-.6c.95-.2,1.9-.38,2.86-.52,1.14-.18,2.3-.3,3.46-.37a19.11,19.11,0,0,1,2.51,0c.5,0,1,.07,1.49.13,1.74.19,3.49.4,5.23.62,1.25.16,2.49.34,3.74.54,1.74.3,3.48.61,5.22,1A19.26,19.26,0,0,1,96,105.29a32.08,32.08,0,0,1,6.62,5.15,43.31,43.31,0,0,1,3.74,4.37,57.57,57.57,0,0,1,3.72,5.71,77.9,77.9,0,0,1,3.89,7.75,44.58,44.58,0,0,1,2.09,6,40.58,40.58,0,0,1,1.14,6.36,76.27,76.27,0,0,1,.35,8.94,66.65,66.65,0,0,1-.65,8.11,60.8,60.8,0,0,1-1.59,7.56,39.23,39.23,0,0,1-2.73,7.08,39,39,0,0,1-8.83,11.56,42.93,42.93,0,0,1-6,4.49,56.25,56.25,0,0,1-7.11,3.78,40.17,40.17,0,0,1-6.33,2.2,56.27,56.27,0,0,1-7.06,1.32,73,73,0,0,1-16.73.12,29.44,29.44,0,0,1-5.33-1.07,32.72,32.72,0,0,1-5-1.94,64.35,64.35,0,0,1-6.6-3.66,62.14,62.14,0,0,1-5.15-3.65,41.36,41.36,0,0,1-3.81-3.44,15.59,15.59,0,0,1-2.2-2.85C31.66,178,30.93,176.71,30.23,175.43Z"/><path class="b" d="M177.24,196.05a32.17,32.17,0,0,0,17-4.84,53.84,53.84,0,0,0,16.41-15.89,75.93,75.93,0,0,0,10-21.89,106,106,0,0,0,0-56.33,75.93,75.93,0,0,0-10-21.89A53.84,53.84,0,0,0,194.2,59.32a32.14,32.14,0,0,0-33.92,0,53.84,53.84,0,0,0-16.41,15.89,75.9,75.9,0,0,0-10,21.89,105.74,105.74,0,0,0,0,56.33,75.9,75.9,0,0,0,10,21.89,53.84,53.84,0,0,0,16.41,15.89A32.17,32.17,0,0,0,177.24,196.05Z"/><path class="c" d="M177.24,171.71a15.13,15.13,0,0,0,9-3,33.35,33.35,0,0,0,9.3-10.54,53.67,53.67,0,0,0,5.44-14,82,82,0,0,0,0-37.06,53.74,53.74,0,0,0-5.44-14,33.57,33.57,0,0,0-9.3-10.54,15.13,15.13,0,0,0-17.95,0A33.57,33.57,0,0,0,159,93.06a53.41,53.41,0,0,0-5.45,14,82,82,0,0,0,0,37.06,53.35,53.35,0,0,0,5.45,14,33.35,33.35,0,0,0,9.3,10.54A15.1,15.1,0,0,0,177.24,171.71Z"/></svg>