<svg xmlns="http://www.w3.org/2000/svg" viewBox="0 0 341.16 511.24"><defs><style>.a,.c{fill:#fff;}.a{stroke:#000;}.b{fill:#000;}.d{fill:#dc0032;}</style></defs><title>E15-1 korkortonline.se</title><rect class="a" x="0.5" y="0.5" width="340.16" height="510.24"/><path class="b" d="M.5,28.85V482.39a28.36,28.36,0,0,0,28.35,28.35H312.31a28.36,28.36,0,0,0,28.35-28.35V28.85A28.34,28.34,0,0,0,312.31.5H28.85A28.34,28.34,0,0,0,.5,28.85Z"/><path class="c" d="M14.67,28.85V482.39a14.17,14.17,0,0,0,14.18,14.17H312.31a14.16,14.16,0,0,0,14.17-14.17V28.85a14.17,14.17,0,0,0-14.17-14.18H28.85A14.17,14.17,0,0,0,14.67,28.85Z"/><path class="d" d="M66.34,445.54l-29-42A249.44,249.44,0,0,0,145.07,198.28V167.74H94l76.54-102,76.53,102h-51v30.54A249.44,249.44,0,0,0,303.81,403.55l-29,42a300.42,300.42,0,0,1-104.24-126.1A300.49,300.49,0,0,1,66.34,445.54Z"/></svg>