<svg xmlns="http://www.w3.org/2000/svg" viewBox="0 0 227.77 227.77"><defs><style>.a,.c{fill:#0c479d;}.a{stroke:#0c479d;}.b{fill:#fff;}</style></defs><title>E18-1 korkortonline.se</title><rect class="a" x="0.5" y="0.5" width="226.77" height="226.77"/><rect class="b" x="0.5" y="0.5" width="226.77" height="226.77" rx="19.84"/><path class="c" d="M20.34,9H207.43a11.34,11.34,0,0,1,11.34,11.34V207.43a11.34,11.34,0,0,1-11.34,11.34H20.34A11.34,11.34,0,0,1,9,207.43V20.34A11.37,11.37,0,0,1,20.34,9Z"/><polygon class="b" points="70.87 198.93 39.85 198.93 39.85 28.85 78.87 28.85 113.89 76.87 148.9 28.85 187.92 28.85 187.92 198.93 156.91 198.93 156.91 70.51 113.89 129.51 70.87 70.51 70.87 198.93"/></svg>