<svg xmlns="http://www.w3.org/2000/svg" viewBox="0 0 227.77 227.77"><defs><style>.a,.c{fill:#0c479d;}.a{stroke:#0c479d;}.b{fill:#fff;}</style></defs><title>E19-1 korkortonline.se</title><rect class="a" x="0.5" y="0.5" width="226.77" height="226.77"/><path class="b" d="M20.34,227.27H207.43a19.84,19.84,0,0,0,19.84-19.84V20.34A19.84,19.84,0,0,0,207.43.5H20.34A19.84,19.84,0,0,0,.5,20.34V207.43A19.84,19.84,0,0,0,20.34,227.27Z"/><path class="c" d="M20.34,218.77H207.43a11.34,11.34,0,0,0,11.34-11.34V20.34A11.34,11.34,0,0,0,207.43,9H20.34A11.34,11.34,0,0,0,9,20.34V207.43a11.34,11.34,0,0,0,11.34,11.34Z"/><path class="b" d="M96.71,198.92h-31V28.85h66a50.52,50.52,0,1,1,0,101h-35Z"/><path class="c" d="M96.71,98.88v-39h35a19.51,19.51,0,1,1,0,39Z"/></svg>