<svg xmlns="http://www.w3.org/2000/svg" viewBox="0 0 341.16 454.54"><defs><style>.a,.c{fill:#007a61;}.a{stroke:#007a61;}.b{fill:#fff;}.d{fill:#dc0032;}</style></defs><title>E2-1 korkortonline.se</title><rect class="a" x="0.5" y="0.5" width="340.16" height="453.54"/><rect class="b" x="0.5" y="0.5" width="340.16" height="453.54" rx="19.84"/><path class="c" d="M20.34,9H320.81a11.34,11.34,0,0,1,11.34,11.34V434.2a11.34,11.34,0,0,1-11.34,11.34H20.34A11.35,11.35,0,0,1,9,434.2V20.34A11.35,11.35,0,0,1,20.34,9Z"/><polygon class="b" points="126.84 156.41 147.61 34.52 161.78 34.52 157.27 156.41 126.84 156.41"/><path class="d" d="M9,395.46,298.85,9h22a11.34,11.34,0,0,1,11.34,11.34V59.08L42.31,445.54h-22A11.35,11.35,0,0,1,9,434.2Z"/><polygon class="b" points="151.97 299.32 147.61 417.19 82.41 417.19 87.95 384.69 151.97 299.32"/><polygon class="b" points="169.16 181.92 94.04 181.92 99.71 210.26 65.7 210.26 71.37 181.92 28.85 181.92 28.85 167.74 179.79 167.74 169.16 181.92"/><polygon class="b" points="209.02 128.77 192.96 34.52 178.79 34.52 183.3 156.41 188.29 156.41 209.02 128.77"/><polygon class="b" points="312.02 181.92 269.5 181.92 275.17 210.26 241.15 210.26 246.82 181.92 240.03 181.92 250.66 167.74 312.02 167.74 312.02 181.92"/><polygon class="b" points="218.77 210.26 222.9 210.26 258.16 417.19 192.96 417.19 186.87 252.79 218.77 210.26"/><polygon class="b" points="108.78 262.43 117.67 210.26 147.9 210.26 108.78 262.43"/></svg>