<svg xmlns="http://www.w3.org/2000/svg" viewBox="0 0 227.77 114.39"><defs><style>.a,.c{fill:#0c479d;}.a{stroke:#0c479d;}.b{fill:#fff;}.d{fill:none;}</style></defs><title>E22-1 korkortonline.se</title><rect class="a" x="0.5" y="0.5" width="226.77" height="113.39"/><path class="b" d="M.5,17.51V96.88a17,17,0,0,0,17,17H210.26a17,17,0,0,0,17-17V17.51a17,17,0,0,0-17-17H17.51a17,17,0,0,0-17,17Z"/><path class="c" d="M9,17.51V96.88a8.51,8.51,0,0,0,8.51,8.5H210.26a8.5,8.5,0,0,0,8.51-8.5V17.51A8.51,8.51,0,0,0,210.26,9H17.51A8.51,8.51,0,0,0,9,17.51Z"/><path class="b" d="M45.42,29.35a3.49,3.49,0,0,0-3.27,2.29L34.75,52V69.35a3.48,3.48,0,0,0,3.48,3.48h7.28a12.42,12.42,0,1,0,23.7,0h75.52a12.42,12.42,0,1,0,23.54,0h21.27A3.48,3.48,0,0,0,193,69.35V32.83a3.48,3.48,0,0,0-3.48-3.48Z"/><rect class="c" x="164.94" y="37.8" width="19.13" height="14.16"/><rect class="c" x="138.61" y="37.8" width="22.61" height="14.16"/><rect class="c" x="112.27" y="37.8" width="22.61" height="14.16"/><rect class="c" x="85.94" y="37.8" width="22.61" height="14.16"/><rect class="c" x="59.6" y="37.8" width="22.61" height="14.16"/><polygon class="c" points="41.96 51.96 55.87 51.96 55.87 37.8 47.11 37.8 41.96 51.96"/><path class="d" d="M189.54,29.35h0Z"/></svg>