<svg xmlns="http://www.w3.org/2000/svg" viewBox="0 0 341.16 454.54"><defs><style>.a,.c{fill:#0c479d;}.a{stroke:#0c479d;}.b{fill:#fff;}.d{fill:#000;}</style></defs><title>E26-1 korkortonline.se</title><rect class="a" x="0.5" y="0.5" width="340.16" height="453.54"/><rect class="b" x="0.5" y="0.5" width="340.16" height="453.54" rx="19.84"/><path class="c" d="M20.34,9H320.82a11.34,11.34,0,0,1,11.33,11.34V434.2a11.34,11.34,0,0,1-11.33,11.34H20.34A11.35,11.35,0,0,1,9,434.2V20.34A11.34,11.34,0,0,1,20.34,9Z"/><path class="b" d="M64,376.49a13.78,13.78,0,0,1,4.27-4.26l11.21-6.41a14.68,14.68,0,0,0,6.13-7.2,15.72,15.72,0,0,0,0-10.14,14.57,14.57,0,0,0-8.8-8.54,25,25,0,0,0-13.87.27,13.83,13.83,0,0,0-9.34,13.61h8.27a5.83,5.83,0,0,1,4-5.87,15.31,15.31,0,0,1,8.54,0,5.66,5.66,0,0,1,3.47,3.47,6.12,6.12,0,0,1,0,4.26,5.93,5.93,0,0,1-2.4,2.94L64.27,365A21.91,21.91,0,0,0,53.6,384.76H86.41v-8.27Z"/><polyline class="b" points="108.95 395.44 108.95 374.63 100.69 374.63 100.69 395.44 108.95 395.44"/><path class="b" d="M141.82,385.3a17.92,17.92,0,0,1-13.34-5.87,26.69,26.69,0,0,1,0-34.68,18.09,18.09,0,0,1,26.68,0,26.69,26.69,0,0,1,0,34.68A17.91,17.91,0,0,1,141.82,385.3Z"/><path class="c" d="M141.82,377a9.64,9.64,0,0,1-7.15-3.09,18.43,18.43,0,0,1,0-23.71,9.84,9.84,0,0,1,14.3,0,18.43,18.43,0,0,1,0,23.71A9.64,9.64,0,0,1,141.82,377Z"/><polygon class="b" points="208.19 363.13 208.19 339.41 199.92 339.41 199.92 384.76 208.19 384.76 208.19 374.89 211.42 371.63 220.54 384.76 230.6 384.76 217.33 365.65 231.14 351.68 219.51 351.68 208.19 363.13"/><path class="b" d="M243.94,384.76h8.27V364.23a4.54,4.54,0,1,1,9.07,0v20.53h8.27V364.23a4.54,4.54,0,1,1,9.07,0v20.53h8.27V361.82a10.71,10.71,0,0,0-19.47-6.14A11.31,11.31,0,0,0,252.21,353v-1.34h-8.27Z"/><rect class="b" x="28.85" y="34.4" width="283.46" height="230.29"/><polygon class="d" points="170.58 222.11 40.19 222.11 40.19 205.1 170.58 205.1 300.97 205.1 300.97 222.11 170.58 222.11"/><path class="d" d="M116.72,196.6H224.44V149a66.91,66.91,0,0,0-107.72,0Z"/><polygon class="d" points="269.79 199.44 269.79 133.1 232.94 145.58 232.94 199.44 269.79 199.44"/><path class="d" d="M267,124.6,231.81,81.51l-19.28,43.14a76.54,76.54,0,0,1,17,15.21Z"/><path class="d" d="M118.42,77H222.74l-16.16,44.14a76.58,76.58,0,0,0-72,0Z"/><path class="d" d="M128.63,124.65,109.35,81.51,74.2,124.6l37.42,15.26A76.54,76.54,0,0,1,128.63,124.65Z"/><polygon class="d" points="108.22 199.44 108.22 145.58 71.37 133.1 71.37 199.44 108.22 199.44"/></svg>