<svg xmlns="http://www.w3.org/2000/svg" viewBox="0 0 341.16 454.54"><defs><style>.a,.d{fill:#0c479d;}.a{stroke:#0c479d;}.b{fill:#fff;}.c{fill:#000;}</style></defs><title>E27-1 korkortonline.se</title><rect class="a" x="0.5" y="0.5" width="340.16" height="453.54"/><rect class="b" x="0.5" y="0.5" width="340.16" height="453.54" rx="19.84"/><path class="b" d="M20.34,9H320.81a11.35,11.35,0,0,1,11.34,11.34V434.2a11.34,11.34,0,0,1-11.34,11.34H20.34A11.35,11.35,0,0,1,9,434.2V20.34A11.37,11.37,0,0,1,20.34,9Z"/><path class="c" d="M255.31,156.3l12.31,3.56a14.56,14.56,0,0,1,8.69,6.79,12.43,12.43,0,0,1,0,12.76,13.69,13.69,0,0,1-11.13,7.34A23.66,23.66,0,0,1,244,179.41l6.2-5.7a15.19,15.19,0,0,0,14.05,4.65A5.28,5.28,0,0,0,269,175.3a4.06,4.06,0,0,0,.08-4.4,6.12,6.12,0,0,0-3.72-2.94l-12.21-3.53a11.51,11.51,0,0,1-6-18.18h0a15.76,15.76,0,0,1,9.8-5.82,24,24,0,0,1,20,5.46l-5.51,6.37a15.55,15.55,0,0,0-13-3.53,7.34,7.34,0,0,0-4.62,2.71h0l0,0h0l0,0a3.09,3.09,0,0,0,1.54,4.86Z"/><path class="c" d="M250.71,206.84a27.15,27.15,0,0,0,0,35.3,18.41,18.41,0,0,0,27.16,0,27.15,27.15,0,0,0,0-35.3,18.41,18.41,0,0,0-27.16,0Z"/><path class="c" d="M255.31,278.19l12.31,3.55a14.59,14.59,0,0,1,8.69,6.79,12.45,12.45,0,0,1,0,12.77,13.7,13.7,0,0,1-11.13,7.33A23.68,23.68,0,0,1,244,301.3l6.2-5.7a15.24,15.24,0,0,0,14.05,4.65,5.29,5.29,0,0,0,4.72-3.07,4.05,4.05,0,0,0,.08-4.4,6.12,6.12,0,0,0-3.72-2.94l-12.21-3.53a11.5,11.5,0,0,1-6-18.17h0a15.73,15.73,0,0,1,9.8-5.83,24,24,0,0,1,20,5.46l-5.51,6.37a15.55,15.55,0,0,0-13-3.53,7.34,7.34,0,0,0-4.62,2.71h0l0,0h0l0,0a3.1,3.1,0,0,0,1.54,4.87Z"/><path class="d" d="M43.36,9h-23A11.37,11.37,0,0,0,9,20.34V434.2a11.35,11.35,0,0,0,11.34,11.34h23Z"/><path class="d" d="M332.15,20.34A11.35,11.35,0,0,0,320.81,9h-166V54.31l143,90.28V313.43l-143,94.84v37.27h166a11.34,11.34,0,0,0,11.34-11.34Z"/><path class="b" d="M257,236.55a10,10,0,0,0,14.56,0,18.74,18.74,0,0,0,0-24.13,10,10,0,0,0-14.56,0,18.74,18.74,0,0,0,0,24.13Z"/><rect class="c" x="147.97" y="332.34" width="13.87" height="34.26"/><rect class="c" x="147.97" y="270.8" width="13.87" height="34.27"/><rect class="c" x="147.97" y="210.95" width="13.87" height="34.27"/><rect class="c" x="147.97" y="149.49" width="13.87" height="34.27"/><rect class="c" x="147.97" y="86.46" width="13.87" height="34.26"/></svg>