<svg xmlns="http://www.w3.org/2000/svg" viewBox="0 0 1190.84 556.09"><defs><style>.a,.c{fill:#0c479d;}.a{stroke:#0c479d;}.b{fill:#fff;}</style></defs><title>E30-1 korkortonline.se</title><rect class="a" x="0.5" y="0.5" width="1189.84" height="555.09"/><path class="b" d="M.5,34.48V521.6a34,34,0,0,0,34,34H1156.36a34,34,0,0,0,34-34V34.48a34,34,0,0,0-34-34H34.48a34,34,0,0,0-34,34Z"/><path class="c" d="M17.49,34.48V521.6a17,17,0,0,0,17,17H1156.36a17,17,0,0,0,17-17V34.48a17,17,0,0,0-17-17H34.48A17,17,0,0,0,17.49,34.48Z"/><path class="b" d="M411.81,175.11h23.33a18.74,18.74,0,0,1,17.49,10.83,19,19,0,0,1,0,15,24.79,24.79,0,0,1-17.49,12.5,55.69,55.69,0,0,1-20.83,0,41.64,41.64,0,0,1-20-11.66l-19.16,16.66a60.41,60.41,0,0,0,33.32,20,78.1,78.1,0,0,0,31.65,0,54.29,54.29,0,0,0,33.32-24.16,45,45,0,0,0,4.17-30,38.18,38.18,0,0,0-12.5-22.49,40.91,40.91,0,0,0,8.33-27.49A36.23,36.23,0,0,0,457.63,106a58.52,58.52,0,0,0-32.49-10.83A67.31,67.31,0,0,0,381,111.81l16.66,18.32a41.67,41.67,0,0,1,35-9.16,21.3,21.3,0,0,1,14.16,10,15.38,15.38,0,0,1,0,11.66A13.72,13.72,0,0,1,433.47,151H411.81Z"/><path class="b" d="M572.74,240.06a55.94,55.94,0,0,1-41.65-18.32,83.32,83.32,0,0,1,0-108.29,56.48,56.48,0,0,1,83.3,0,83.32,83.32,0,0,1,0,108.29A56,56,0,0,1,572.74,240.06Z"/><path class="c" d="M572.74,214.24a30.11,30.11,0,0,1-22.33-9.64,57.51,57.51,0,0,1,0-74,30.69,30.69,0,0,1,44.65,0,57.51,57.51,0,0,1,0,74A30.09,30.09,0,0,1,572.74,214.24Z"/><path class="b" d="M754.14,238.4H780V174.27a14.17,14.17,0,1,1,28.32,0V238.4h25.82V174.27a14.17,14.17,0,1,1,28.32,0V238.4h25.82V166.76a33.46,33.46,0,0,0-60.81-19.16A35.27,35.27,0,0,0,780,139.27v-4.16H754.14Z"/><circle class="b" cx="947.8" cy="108.45" r="16.24"/><rect class="b" x="934.89" y="135.11" width="25.82" height="103.29"/><path class="b" d="M1007.35,238.4h25.82V175.92a16.25,16.25,0,0,1,32.49,0V238.4h25.82V170.51a37.42,37.42,0,0,0-58.31-30.41v-5h-25.82Z"/><path class="b" d="M107.72,273.8H288.27a15.93,15.93,0,0,0,15.93-15.93V77.32a15.93,15.93,0,0,0-15.93-15.93H107.72A15.93,15.93,0,0,0,91.79,77.32V257.87a15.94,15.94,0,0,0,15.93,15.93Z"/><rect class="c" x="102.41" y="72.01" width="191.17" height="191.17" rx="5.31"/><path class="b" d="M181.91,247.25h-29V87.94h61.85a47.33,47.33,0,0,1,0,94.65h-32.8Z"/><path class="c" d="M181.91,153.54V117h32.8a18.28,18.28,0,0,1,0,36.55Z"/><path class="b" d="M596.31,382.36a29,29,0,0,1,8.33,8.33,44.73,44.73,0,0,1,.83,45.81A50.25,50.25,0,0,1,573,459a84.7,84.7,0,0,1-31.66,0,50.25,50.25,0,0,1-32.48-22.49,44.73,44.73,0,0,1,.83-45.81,29.12,29.12,0,0,1,8.33-8.33A38.52,38.52,0,0,1,509.68,359a39.27,39.27,0,0,1,20.83-36.65,63.43,63.43,0,0,1,53.31,0A38.38,38.38,0,0,1,604.64,359,40.29,40.29,0,0,1,596.31,382.36Z"/><path class="c" d="M547.17,396.52h20a18.91,18.91,0,0,1,5.83.83,19.34,19.34,0,0,1,10,7.5,17.53,17.53,0,0,1,.84,17.49A26.79,26.79,0,0,1,566.32,434,48.66,48.66,0,0,1,548,434a26.74,26.74,0,0,1-17.49-11.66,17.51,17.51,0,0,1,.83-17.49,19.38,19.38,0,0,1,10-7.5A17.28,17.28,0,0,1,547.17,396.52Z"/><path class="c" d="M546.33,369.86h20.83a11.86,11.86,0,0,0,12.49-11.66,13.92,13.92,0,0,0-7.5-13.33,35.7,35.7,0,0,0-30,0,13.92,13.92,0,0,0-7.5,13.33,11.44,11.44,0,0,0,11.66,11.66Z"/><polyline class="b" points="738.74 419.32 738.74 393.49 647.95 393.49 647.95 419.32 738.74 419.32"/><polygon class="b" points="790.79 459.3 790.79 358.51 774.96 358.51 774.96 342.68 796.62 317.69 816.61 317.69 816.61 381 816.61 459.3 790.79 459.3"/><path class="b" d="M950.29,382.36a29,29,0,0,1,8.33,8.33,44.7,44.7,0,0,1,.84,45.81A50.29,50.29,0,0,1,927,459a84.64,84.64,0,0,1-31.65,0,50.27,50.27,0,0,1-32.49-22.49,44.7,44.7,0,0,1,.84-45.81,28.87,28.87,0,0,1,8.33-8.33A38.39,38.39,0,0,1,863.67,359a39.24,39.24,0,0,1,20.82-36.65,63.43,63.43,0,0,1,53.31,0A38.38,38.38,0,0,1,958.62,359,40.29,40.29,0,0,1,950.29,382.36Z"/><path class="c" d="M901.15,396.52h20a18.86,18.86,0,0,1,5.83.83,19.4,19.4,0,0,1,10,7.5,17.53,17.53,0,0,1,.83,17.49A26.77,26.77,0,0,1,920.31,434,48.71,48.71,0,0,1,902,434a26.74,26.74,0,0,1-17.49-11.66,17.51,17.51,0,0,1,.83-17.49,19.4,19.4,0,0,1,10-7.5A17.19,17.19,0,0,1,901.15,396.52Z"/><path class="c" d="M900.32,369.86h20.82a11.85,11.85,0,0,0,12.49-11.66,13.91,13.91,0,0,0-7.49-13.33,35.72,35.72,0,0,0-30,0,13.94,13.94,0,0,0-7.5,13.33,11.46,11.46,0,0,0,11.67,11.66Z"/></svg>