<svg xmlns="http://www.w3.org/2000/svg" viewBox="0 0 227.77 341.16"><defs><style>.a,.c{fill:#fff;}.a{stroke:#000;stroke-miterlimit:10;}.b{fill:#7c868d;}.d{fill:#000;}</style></defs><title>E32-1 korkortonline.se</title><rect class="a" x="0.5" y="0.5" width="226.77" height="340.16"/><path class="b" d="M166.12,158.73l-7.7-14.48a6.71,6.71,0,0,0-4.32-3.37,74.92,74.92,0,0,0-35.72,0,6.68,6.68,0,0,0-4.32,3.37l-7.7,14.48a15.93,15.93,0,0,0-5.4,15.49l2.41,9v8.18a6.49,6.49,0,1,0,13-.07v-4.25h39.8v4.32a6.49,6.49,0,1,0,13,0v-8.18l2.4-9A15.92,15.92,0,0,0,166.12,158.73Z"/><path class="c" d="M152.55,147.49a65.52,65.52,0,0,0-32.62,0l-5.8,10.9h44.22Z"/><path class="b" d="M103.41,185.19A9.69,9.69,0,0,1,99.25,180,10.63,10.63,0,0,1,88,176.74a9.7,9.7,0,0,1-11.86-5.25,9.27,9.27,0,0,1-12.22-6.36,8.6,8.6,0,0,1-3.8-2c-.52-.47-1-1-1.5-1.48a14.17,14.17,0,0,1-1.85-2.43,16.83,16.83,0,0,1-1.92-4.39,8,8,0,0,1,5.78-9.65,12.85,12.85,0,0,1,17-8.68,14.18,14.18,0,0,1,7.82,16.38,12.92,12.92,0,0,1,2.69,12.7,3.55,3.55,0,0,1,1.83,0,11.61,11.61,0,0,1,7.58,5c3.66,1.09,5.65,4.37,5.87,8.2Z"/><path class="b" d="M113.89,85.54a85,85,0,1,0,85,85A85,85,0,0,0,113.89,85.54ZM66.94,216.42a65.21,65.21,0,0,1-4.29-87.48l91.77,91.76A65.21,65.21,0,0,1,66.94,216.42Zm96.5-4.74L71.67,119.92a65.2,65.2,0,0,1,91.77,91.76Z"/><path class="b" d="M55.83,277.32h6.49L53.5,287.4l9.17,15.52h-5.8l-6.81-11.59-2.91,3.36v8.23H42.07v-25.6h5.08v9.95Z"/><path class="b" d="M73,298.25h8.82v4.67H67.88v-25.6H73v20.93Z"/><path class="b" d="M102.2,277.32l8.82,25.6h-5.31l-1.6-4.67H92.79l-1.6,4.67H85.87l8.83-25.6Zm-7.82,16.25h8.13l-4.06-11.74Z"/><path class="b" d="M129,288a8.87,8.87,0,0,1,5.24,3.77,6.6,6.6,0,0,1,0,7.11,8.3,8.3,0,0,1-6.74,4.06,12.82,12.82,0,0,1-2.25.16,14.91,14.91,0,0,1-10.49-4.22l3.71-3.17a9.65,9.65,0,0,0,6.78,2.72,9.81,9.81,0,0,0,1.7-.13,3.23,3.23,0,0,0,2.85-1.73,2.16,2.16,0,0,0,.07-2.43,3.7,3.7,0,0,0-2.26-1.63l-7.36-1.95a6.54,6.54,0,0,1-5.07-6.18,6.17,6.17,0,0,1,1.45-3.93,9.91,9.91,0,0,1,5.94-3.24,16.92,16.92,0,0,1,2.57-.22,15.19,15.19,0,0,1,9.48,3.26l-3.33,3.52a10,10,0,0,0-6.15-2.08,9.81,9.81,0,0,0-1.7.13,4.42,4.42,0,0,0-2.78,1.5,1.57,1.57,0,0,0-.41,1.06,1.76,1.76,0,0,0,1.32,1.66Z"/><path class="b" d="M153.81,288a8.89,8.89,0,0,1,5.25,3.77,6.6,6.6,0,0,1,0,7.11,8.31,8.31,0,0,1-6.74,4.06,12.94,12.94,0,0,1-2.26.16,14.93,14.93,0,0,1-10.49-4.22l3.72-3.17a9.62,9.62,0,0,0,6.77,2.72,9.85,9.85,0,0,0,1.71-.13,3.22,3.22,0,0,0,2.84-1.73,2.11,2.11,0,0,0,.07-2.43,3.67,3.67,0,0,0-2.26-1.63l-7.36-1.95a6.55,6.55,0,0,1-5.07-6.18,6.13,6.13,0,0,1,1.46-3.93,9.88,9.88,0,0,1,5.94-3.24A16.71,16.71,0,0,1,150,277a15.21,15.21,0,0,1,9.48,3.26l-3.34,3.52A9.94,9.94,0,0,0,150,281.7a9.66,9.66,0,0,0-1.7.13,4.42,4.42,0,0,0-2.78,1.5,1.59,1.59,0,0,0-.42,1.06,1.78,1.78,0,0,0,1.32,1.66Z"/><path class="b" d="M180.73,284.71h-3.12v-2.88l4.27-4.51h3.93v25.6h-5.08Z"/><path class="b" d="M31.12,60.7V35.1H37l5.28,7.23,5.25-7.23h5.88V60.7H48.75V41.37l-6.46,8.9-6.5-8.9V60.7Z"/><path class="b" d="M64.18,60.7H59.51V35.1h4.67V60.7Z"/><path class="b" d="M74.19,56h8.13V60.7H69.52V35.1h4.67V56Z"/><path class="b" d="M89.71,56a2.09,2.09,0,0,0,2.08-2.11V35.1h4.67V53.92a6.78,6.78,0,0,1-6.75,6.78H87.15V56Z"/><path class="b" d="M119.6,38.21a14.58,14.58,0,0,1,3.58,9.66V48a14.52,14.52,0,0,1-3.58,9.63,9.92,9.92,0,0,1-7.42,3.29h-.1a9.83,9.83,0,0,1-7.42-3.29A14.53,14.53,0,0,1,101.07,48v-.13a14.59,14.59,0,0,1,3.59-9.66,9.91,9.91,0,0,1,7.42-3.3h.1A9.9,9.9,0,0,1,119.6,38.21Zm-14.5-3.3a3.51,3.51,0,1,1,3.52-3.49A3.53,3.53,0,0,1,105.1,34.91Zm13.44,13v-.06a9.9,9.9,0,0,0-2.4-6.59,5.29,5.29,0,0,0-4-1.73h-.1a5.26,5.26,0,0,0-3.94,1.73,9.93,9.93,0,0,0-2.43,6.59V48a9.87,9.87,0,0,0,2.43,6.56,5.15,5.15,0,0,0,3.94,1.72h.1a5.18,5.18,0,0,0,4-1.72,9.84,9.84,0,0,0,2.4-6.56Zm.48-13a3.51,3.51,0,1,1,3.49-3.49A3.51,3.51,0,0,1,119,34.91Z"/><path class="b" d="M127.66,56.19l11.43-16.42H127.66V35.1h17.48v4.19L133.46,56h11.68V60.7H127.66Z"/><path class="b" d="M168.17,38.11a14.59,14.59,0,0,1,3.62,9.73V48a14.7,14.7,0,0,1-3.62,9.72,10,10,0,0,1-7.48,3.3h-.1a10.07,10.07,0,0,1-7.49-3.3A14.74,14.74,0,0,1,149.49,48v-.13a14.63,14.63,0,0,1,3.61-9.73,10,10,0,0,1,7.49-3.33h.1A10,10,0,0,1,168.17,38.11Zm-1,9.79v-.06a10,10,0,0,0-2.43-6.63,5.31,5.31,0,0,0-4-1.76h-.1a5.25,5.25,0,0,0-4,1.76,9.92,9.92,0,0,0-2.46,6.63V48a9.9,9.9,0,0,0,2.46,6.62,5.22,5.22,0,0,0,4,1.73h.1a5.28,5.28,0,0,0,4-1.73A10,10,0,0,0,167.12,48Z"/><path class="b" d="M182.13,35.1l9.92,17v-17h4.67V60.7h-5.06L181.52,43.33V60.7h-4.67V35.1Z"/><polygon class="d" points="0.41 287.28 227.18 21.8 227.18 32.47 0.41 297.95 0.41 287.28"/><polygon class="d" points="0.41 308.62 227.18 43.13 227.18 53.8 0.41 319.29 0.41 308.62"/><polygon class="d" points="0.41 276.62 227.18 11.13 227.18 0.46 0.41 265.94 0.41 276.62"/><polygon class="d" points="0.41 340.62 227.18 75.14 227.18 64.47 0.41 329.95 0.41 340.62"/></svg>