<svg xmlns="http://www.w3.org/2000/svg" viewBox="0 0 734.21 347.45"><defs><style>.a,.c{fill:#0c479d;}.a{stroke:#0c479d;}.b{fill:#fff;}</style></defs><title>F1-1 korkortonline.se</title><rect class="a" x="0.5" y="0.5" width="733.21" height="346.45"/><rect class="b" x="0.5" y="0.5" width="733.21" height="346.45" rx="12.53"/><path class="c" d="M6.28,13V334.42A6.76,6.76,0,0,0,13,341.17H721.18a6.75,6.75,0,0,0,6.74-6.75V13a6.75,6.75,0,0,0-6.74-6.75H13A6.75,6.75,0,0,0,6.28,13Z"/><polygon class="b" points="204.79 49.17 231.15 49.17 231.15 57.96 213.58 57.96 213.58 67.6 228.32 67.6 228.32 76.38 213.58 76.38 213.58 97.36 204.79 97.36 204.79 69.01 204.79 49.17"/><polygon class="b" points="276.22 49.17 291.53 97.36 282.31 97.36 279.52 88.57 259.89 88.57 257.1 97.36 247.88 97.36 263.18 49.17 276.22 49.17"/><polygon class="c" points="262.68 79.78 269.7 57.67 276.73 79.78 262.68 79.78"/><polygon class="b" points="319.59 69.01 319.59 88.57 334.9 88.57 334.9 97.36 310.8 97.36 310.8 69.01 310.8 49.17 319.59 49.17 319.59 69.01"/><path class="b" d="M378.27,80.35V49.17h8.78V80.35a17.58,17.58,0,1,1-35.15,0V49.17h8.79V80.35a8.79,8.79,0,1,0,17.58,0Z"/><polygon class="b" points="409.44 49.17 419.37 49.17 438.07 81.2 438.07 49.17 446.86 49.17 446.86 97.36 437.33 97.36 418.23 64.65 418.23 97.36 409.44 97.36 409.44 49.17"/><polygon class="b" points="225 261.8 225 281.36 240.31 281.36 240.31 290.14 216.21 290.14 216.21 261.8 216.21 241.96 225 241.96 225 261.8"/><polygon class="b" points="266.1 261.8 266.1 290.14 257.31 290.14 257.31 261.8 257.31 241.96 266.1 241.96 266.1 261.8"/><polygon class="b" points="288.21 241.96 298.13 241.96 316.84 273.99 316.84 241.96 325.62 241.96 325.62 290.14 316.1 290.14 296.99 257.44 296.99 290.14 288.21 290.14 288.21 241.96"/><path class="b" d="M348,242h18.43a16.72,16.72,0,0,1,11.05,4,19.56,19.56,0,0,1,7.09,13.61,51.73,51.73,0,0,1,0,13,20.67,20.67,0,0,1-7.09,13.32,16.18,16.18,0,0,1-11.05,4.25H348V242Z"/><path class="c" d="M356.8,281.36V250.74h9.71a8,8,0,0,1,5.36,1.93,10.72,10.72,0,0,1,4,7.72,43.19,43.19,0,0,1,0,11.13,11.92,11.92,0,0,1-4.2,7.8,7.51,7.51,0,0,1-5.19,2Z"/><polygon class="b" points="404.99 241.96 431.35 241.96 431.35 250.74 413.77 250.74 413.77 260.38 428.52 260.38 428.52 269.17 413.77 269.17 413.77 281.36 431.35 281.36 431.35 290.14 404.99 290.14 404.99 261.8 404.99 241.96"/><path class="b" d="M462.22,258.49l12.86,3.71a15.22,15.22,0,0,1,9.07,7.09,13,13,0,0,1,0,13.32,14.33,14.33,0,0,1-11.63,7.66,24.72,24.72,0,0,1-22.11-7.66l6.47-5.95a15.9,15.9,0,0,0,14.66,4.86,5.52,5.52,0,0,0,4.93-3.2,4.24,4.24,0,0,0,.09-4.6,6.44,6.44,0,0,0-3.89-3.07L459.93,267a12,12,0,0,1-6.23-19h0a16.46,16.46,0,0,1,10.23-6.08,25,25,0,0,1,20.87,5.7L479,254.27a16.2,16.2,0,0,0-13.6-3.69,7.63,7.63,0,0,0-4.82,2.84h0l0,0h0l0,0a3.23,3.23,0,0,0,1.6,5.07Z"/><path class="b" d="M506.18,242h19a13.89,13.89,0,0,1,10.77,22.67A14.68,14.68,0,0,1,526,290.14H506.18V242Z"/><path class="c" d="M526,281.36A5.9,5.9,0,0,0,528.29,270a12.16,12.16,0,0,0-2.55-.29H515v11.63Z"/><path class="c" d="M515,261h10.2a5.11,5.11,0,0,0,0-10.21H515Z"/><polygon class="b" points="560.88 241.96 587.25 241.96 587.25 250.74 569.67 250.74 569.67 260.38 584.41 260.38 584.41 269.17 569.67 269.17 569.67 281.36 587.25 281.36 587.25 290.14 560.88 290.14 560.88 261.8 560.88 241.96"/><path class="b" d="M642.52,290.14H632.6l-10.21-19.55H617v19.55h-8.79V242h18.71a14.31,14.31,0,0,1,4.92,27.75l10.66,20.43Z"/><path class="c" d="M617,261.8V250.74h9.92a5.53,5.53,0,1,1,0,11.06Z"/><path class="b" d="M690.85,254.7l6.23-6.23a20.61,20.61,0,0,0-15.87-7.09A19,19,0,0,0,667,247.62a28.33,28.33,0,0,0,0,36.85,19,19,0,0,0,14.17,6.23,19.3,19.3,0,0,0,20.12-17.57v-9.07H681.21v8.78h11.34a10.5,10.5,0,0,1-9.64,9.07,9.65,9.65,0,0,1-1.7,0,10.07,10.07,0,0,1-7.94-3.68,19.61,19.61,0,0,1,0-24.38,10.07,10.07,0,0,1,7.94-3.68A11.92,11.92,0,0,1,690.85,254.7Z"/><path class="b" d="M77.23,317.07h-17V189.51H40.73a6,6,0,0,1-4.25-10.26L68.73,147,101,179.25a6,6,0,0,1-4.26,10.26H77.23v68h68V238.05a6,6,0,0,1,10.26-4.26l32.26,32.26L155.53,298.3a6,6,0,0,1-10.26-4.25v-19.5h-68Z"/><path class="b" d="M34.71,36.16v74.21A12.53,12.53,0,0,0,47.24,122.9H163.86a12.53,12.53,0,0,0,12.53-12.53V36.16a12.53,12.53,0,0,0-12.53-12.53H47.24A12.53,12.53,0,0,0,34.71,36.16Z"/><rect class="c" x="40.5" y="29.41" width="130.11" height="87.7" rx="6.75"/><path class="b" d="M83.32,84.6a7.33,7.33,0,0,0,.28-4.25,6.72,6.72,0,0,0-3.68-4.53A13.2,13.2,0,0,0,73.4,75,13.75,13.75,0,0,0,66,78.37l-7.37-3.69L64,49.17H90.4V58H71.17l-1.88,8.89a26.11,26.11,0,0,1,3.82-.67A19,19,0,0,1,83,67.6a15.79,15.79,0,0,1,8.22,21,17.6,17.6,0,0,1-11.33,8.79,23.09,23.09,0,0,1-21-6.24l6.24-6a14.4,14.4,0,0,0,12.75,3.69A8.21,8.21,0,0,0,83.32,84.6Z"/><path class="b" d="M131.83,97.93a19,19,0,0,1-14.17-6.24,28.33,28.33,0,0,1,0-36.85,19.21,19.21,0,0,1,28.34,0,28.33,28.33,0,0,1,0,36.85A19.05,19.05,0,0,1,131.83,97.93Z"/><path class="c" d="M131.83,89.14a10.28,10.28,0,0,1-7.6-3.28,19.58,19.58,0,0,1,0-25.19,10.44,10.44,0,0,1,15.2,0,19.58,19.58,0,0,1,0,25.19A10.28,10.28,0,0,1,131.83,89.14Z"/></svg>