<svg xmlns="http://www.w3.org/2000/svg" viewBox="0 0 478.19 125.24"><defs><style>.a,.c{fill:#0c479d;}.a{stroke:#0c479d;stroke-linecap:round;stroke-linejoin:round;stroke-width:0.18px;}.b{fill:#fff;}</style></defs><title>F10-1 korkortonline.se</title><rect class="a" x="0.09" y="0.09" width="478.01" height="125.07"/><path class="b" d="M.09,12.62v100a12.53,12.53,0,0,0,12.53,12.53h453a12.53,12.53,0,0,0,12.53-12.53v-100A12.53,12.53,0,0,0,465.57.09H12.62A12.53,12.53,0,0,0,.09,12.62Z"/><path class="c" d="M5.87,12.62v100a6.76,6.76,0,0,0,6.75,6.75h453a6.76,6.76,0,0,0,6.75-6.75v-100a6.76,6.76,0,0,0-6.75-6.75H12.62a6.76,6.76,0,0,0-6.75,6.75Z"/><polygon class="b" points="34.3 44.2 44.22 44.2 62.93 76.23 62.93 44.2 71.72 44.2 71.72 92.38 62.19 92.38 43.09 59.68 43.09 92.38 34.3 92.38 34.3 44.2"/><polygon class="b" points="128.12 44.2 113.95 69.99 113.95 92.38 105.16 92.38 105.16 69.99 90.99 44.2 101.02 44.2 109.56 59.74 118.1 44.2 128.12 44.2"/><polygon class="b" points="155.9 62.9 170.98 44.2 182.26 44.2 166.96 63.19 182.83 92.38 172.83 92.38 160.98 70.6 155.9 76.9 155.9 92.38 147.11 92.38 147.11 44.2 155.9 44.2 155.9 62.9 155.9 62.9"/><path class="b" d="M208.34,86.72a19.24,19.24,0,0,0,28.35,0,28.36,28.36,0,0,0,0-36.85,19.22,19.22,0,0,0-28.35,0,28.36,28.36,0,0,0,0,36.85Z"/><path class="c" d="M230.11,55.7a10.43,10.43,0,0,0-15.19,0,19.53,19.53,0,0,0,0,25.18,10.43,10.43,0,0,0,15.19,0,19.56,19.56,0,0,0,0-25.18Z"/><path class="b" d="M235.55,43.63A6.66,6.66,0,1,0,228.89,37,6.66,6.66,0,0,0,235.55,43.63Z"/><path class="b" d="M209.19,43.63A6.66,6.66,0,1,0,202.53,37,6.66,6.66,0,0,0,209.19,43.63Z"/><path class="b" d="M272.68,92.38H263.9V44.2h18.71a14.32,14.32,0,0,1,0,28.63h-9.93Z"/><path class="c" d="M272.68,64V53h9.93a5.53,5.53,0,0,1,0,11.06Z"/><polygon class="b" points="324.56 64.04 324.56 92.38 315.77 92.38 315.77 64.04 315.77 44.2 324.56 44.2 324.56 64.04"/><polygon class="b" points="346.66 44.2 356.58 44.2 375.29 76.23 375.29 44.2 384.08 44.2 384.08 92.38 374.55 92.38 355.45 59.68 355.45 92.38 346.66 92.38 346.66 44.2"/><path class="b" d="M435.24,56.94l6.24-6.23a20.68,20.68,0,0,0-15.88-7.09,19,19,0,0,0-14.17,6.24,28.36,28.36,0,0,0,0,36.85,19,19,0,0,0,14.17,6.23,19.31,19.31,0,0,0,20.13-17.57V66.3H425.6v8.78h11.34a10.5,10.5,0,0,1-9.64,9.07,9.65,9.65,0,0,1-1.7,0,10,10,0,0,1-7.93-3.68,19.57,19.57,0,0,1,0-24.38,10,10,0,0,1,7.93-3.68A11.92,11.92,0,0,1,435.24,56.94Z"/></svg>