<svg xmlns="http://www.w3.org/2000/svg" viewBox="0 0 394.57 102.99"><defs><style>.a,.c{fill:#fff;}.a{stroke:#000;}.b{fill:#000;}</style></defs><title>F11-1 korkortonline.se</title><rect class="a" x="0.5" y="0.5" width="393.57" height="101.99"/><path class="b" d="M.5,14.57V88.43a14.06,14.06,0,0,0,14.07,14.06H380a14.06,14.06,0,0,0,14.06-14.06V14.57A14.07,14.07,0,0,0,380,.5H14.57A14.07,14.07,0,0,0,.5,14.57Z"/><path class="c" d="M7.53,14.57V88.43a7,7,0,0,0,7,7H380a7,7,0,0,0,7-7V14.57a7,7,0,0,0-7-7H14.57A7,7,0,0,0,7.53,14.57Z"/><polygon class="b" points="30.84 69.42 30.84 41.84 30.84 22.54 39.39 22.54 39.39 40.19 56.77 40.19 56.77 22.54 65.32 22.54 65.32 41.84 65.32 69.42 56.77 69.42 56.77 48.74 39.39 48.74 39.39 69.42 30.84 69.42"/><path class="b" d="M74.28,52.43a17.68,17.68,0,0,0,7.17,14.62,15.72,15.72,0,0,0,9.65,3A20,20,0,0,0,103.68,66l-5-6.9a10.86,10.86,0,0,1-9.26,2.49,8.35,8.35,0,0,1-6.34-7.17h24V51.63a17.63,17.63,0,0,0-7.17-13.81,15.56,15.56,0,0,0-18.48,0A17.68,17.68,0,0,0,74.28,52.43Z"/><path class="b" d="M116.75,69.42h8.55V48.19a4.69,4.69,0,1,1,9.38,0V69.42h8.55V48.19a4.69,4.69,0,1,1,9.38,0V69.42h8.55V45.7A11.08,11.08,0,0,0,141,39.36,11.69,11.69,0,0,0,125.3,36.6V35.22h-8.55Z"/><polygon class="b" points="204.04 35.22 194.94 35.22 186.94 57.01 178.95 35.22 169.84 35.22 182.39 69.42 186.94 69.42 191.5 69.42 204.04 35.22"/><path class="b" d="M219.08,21a5.11,5.11,0,1,1-5.11,5.1A5.1,5.1,0,0,1,219.08,21Z"/><path class="b" d="M237.28,21a5.11,5.11,0,1,1-5.1,5.1A5.1,5.1,0,0,1,237.28,21Z"/><path class="b" d="M243.62,35.22h-8.55v2.49a12.24,12.24,0,0,0-5.51-2.49,14.44,14.44,0,0,0-8,.56,16.48,16.48,0,0,0-8.28,8,24.87,24.87,0,0,0,0,17.38,15.83,15.83,0,0,0,9.66,8.55,14.24,14.24,0,0,0,6.62,0,13.83,13.83,0,0,0,5.51-2.48v2.2h8.55Z"/><path class="b" d="M276.17,70V66.39a11.29,11.29,0,0,1-5,2.21,13.08,13.08,0,0,1-6.34,0,15.85,15.85,0,0,1-9.65-8.55,21.82,21.82,0,0,1,0-16.28,16.42,16.42,0,0,1,8.27-8,13.47,13.47,0,0,1,7.72-.56,10.34,10.34,0,0,1,5,2.49V35.22h8.55V70a10.61,10.61,0,0,1-6.62,10.48,30.62,30.62,0,0,1-22.89-.56l3.58-7.17A21.09,21.09,0,0,0,269,74.94a12,12,0,0,0,4.13-.83A5,5,0,0,0,276.17,70Z"/><path class="b" d="M293.82,52.43A17.66,17.66,0,0,0,301,67.05a15.7,15.7,0,0,0,9.65,3A19.94,19.94,0,0,0,323.21,66l-5-6.9A10.88,10.88,0,0,1,309,61.54a8.37,8.37,0,0,1-6.35-7.17h24V51.63a17.66,17.66,0,0,0-7.17-13.81,15.56,15.56,0,0,0-18.48,0A17.65,17.65,0,0,0,293.82,52.43Z"/><path class="b" d="M336.29,69.42h8.55V48.74a5.38,5.38,0,1,1,10.76,0V69.42h8.55V47a12.39,12.39,0,0,0-19.31-10.07V35.22h-8.55Z"/><path class="c" d="M98,48.85a7.41,7.41,0,0,0-14.62,0Z"/><path class="c" d="M235.07,56.19a7.79,7.79,0,0,1-5.79,5.51,6,6,0,0,1-5-1.1,10,10,0,0,1-3.59-6.35,13.86,13.86,0,0,1,0-3.86,10,10,0,0,1,3.59-6.34,6,6,0,0,1,5-1.1,7.79,7.79,0,0,1,5.79,5.51Z"/><path class="c" d="M276.17,56.46a6.79,6.79,0,0,1-5.24,5.24,6.05,6.05,0,0,1-5-1.1,9.66,9.66,0,0,1-3.31-6.35,7.07,7.07,0,0,1,0-2.75A9.69,9.69,0,0,1,266,45.15a6.05,6.05,0,0,1,5-1.1,7.13,7.13,0,0,1,5.24,5.52Z"/><path class="c" d="M317.54,48.85a7.41,7.41,0,0,0-14.62,0Z"/></svg>