<svg xmlns="http://www.w3.org/2000/svg" viewBox="0 0 742.2 201.24"><defs><style>.a,.c{fill:#0c479d;}.a{stroke:#0c479d;}.b{fill:#fff;}</style></defs><title>F13-1 korkortonline.se</title><rect class="a" x="0.5" y="0.5" width="741.2" height="200.24"/><rect class="b" x="0.5" y="0.5" width="741.2" height="200.24" rx="12.53"/><path class="c" d="M6.28,13V188.21A6.76,6.76,0,0,0,13,195H729.17a6.74,6.74,0,0,0,6.75-6.75V13a6.74,6.74,0,0,0-6.75-6.75H13A6.76,6.76,0,0,0,6.28,13Z"/><path class="b" d="M44.59,49.8l12.85,3.72a15.2,15.2,0,0,1,9.07,7.08,13,13,0,0,1,0,13.32,14.31,14.31,0,0,1-11.62,7.66,24.68,24.68,0,0,1-22.11-7.66l6.46-6A15.9,15.9,0,0,0,53.9,72.83a5.5,5.5,0,0,0,4.93-3.2A4.22,4.22,0,0,0,58.92,65,6.37,6.37,0,0,0,55,62L42.29,58.29a12,12,0,0,1-6.23-19h0a16.4,16.4,0,0,1,10.23-6.07,25,25,0,0,1,20.87,5.69l-5.75,6.65A16.26,16.26,0,0,0,47.8,41.89,7.67,7.67,0,0,0,43,44.73h0l0,0h0l0,0a3.23,3.23,0,0,0,1.61,5.07Z"/><polygon class="b" points="105.69 42.06 105.69 55.95 105.69 81.46 96.9 81.46 96.9 55.95 96.9 42.06 86.13 42.06 86.13 33.27 116.46 33.27 116.46 42.06 105.69 42.06"/><path class="b" d="M141.26,38.94a28.36,28.36,0,0,0,0,36.85,19.24,19.24,0,0,0,28.35,0,28.36,28.36,0,0,0,0-36.85,19.22,19.22,0,0,0-28.35,0Z"/><path class="c" d="M147.84,70A10.43,10.43,0,0,0,163,70a19.54,19.54,0,0,0,0-25.19,10.43,10.43,0,0,0-15.19,0,19.58,19.58,0,0,0,0,25.19Z"/><path class="b" d="M229.42,37.85A20.74,20.74,0,0,0,213.83,33,21.8,21.8,0,0,0,198.24,43.8a28.08,28.08,0,0,0-3.12,13.6,29.53,29.53,0,0,0,3.4,14.18,19.66,19.66,0,0,0,15.59,10.2A20.41,20.41,0,0,0,229.42,77l-5.72-6.67A11.65,11.65,0,0,1,214.92,73a10.87,10.87,0,0,1-8.65-5.6,20.66,20.66,0,0,1-2.36-10.07A19.37,19.37,0,0,1,206,48a13,13,0,0,1,9-6.24,11.89,11.89,0,0,1,8.76,2.8Z"/><polygon class="b" points="258.61 51.97 273.69 33.27 284.98 33.27 269.67 52.26 285.54 81.46 275.54 81.46 263.69 59.67 258.61 65.98 258.61 81.46 249.82 81.46 249.82 33.27 258.61 33.27 258.61 51.98 258.61 51.97"/><polygon class="b" points="305.95 81.46 305.95 53.11 305.95 33.27 314.74 33.27 314.74 51.41 332.6 51.41 332.6 33.27 341.38 33.27 341.38 53.11 341.38 81.46 332.6 81.46 332.6 60.2 314.74 60.2 314.74 81.46 305.95 81.46"/><path class="b" d="M368.6,38.94a28.33,28.33,0,0,0,0,36.85,19.23,19.23,0,0,0,28.34,0,28.33,28.33,0,0,0,0-36.85,19.21,19.21,0,0,0-28.34,0Z"/><path class="c" d="M375.17,70a10.44,10.44,0,0,0,15.2,0,19.58,19.58,0,0,0,0-25.19,10.44,10.44,0,0,0-15.2,0,19.58,19.58,0,0,0,0,25.19Z"/><polygon class="b" points="432.94 53.11 432.94 72.67 448.25 72.67 448.25 81.46 424.15 81.46 424.15 53.11 424.15 33.27 432.94 33.27 432.94 53.11"/><polygon class="b" points="474.18 81.46 465.39 81.46 465.39 33.27 476.45 33.27 486.37 46.87 496.29 33.27 507.35 33.27 507.35 81.46 498.56 81.46 498.56 45.07 486.37 61.79 474.18 45.07 474.18 81.46"/><path class="b" d="M700.31,68.7a7.34,7.34,0,0,0,.28-4.25,6.76,6.76,0,0,0-3.68-4.54,13.32,13.32,0,0,0-6.52-.85A13.84,13.84,0,0,0,683,62.47l-7.37-3.69L681,33.27h26.36v8.79H688.16l-1.88,8.88a27.49,27.49,0,0,1,3.82-.66A18.94,18.94,0,0,1,700,51.69a15.8,15.8,0,0,1,8.22,21,17.63,17.63,0,0,1-11.33,8.79,23.12,23.12,0,0,1-21-6.24l6.24-6A14.39,14.39,0,0,0,694.92,73,8.17,8.17,0,0,0,700.31,68.7Z"/><path class="b" d="M635.44,82a19,19,0,0,1-14.18-6.23,28.36,28.36,0,0,1,0-36.85,19.22,19.22,0,0,1,28.35,0,28.36,28.36,0,0,1,0,36.85A19,19,0,0,1,635.44,82Z"/><path class="c" d="M635.44,73.24a10.26,10.26,0,0,1-7.6-3.28,19.58,19.58,0,0,1,0-25.19,10.43,10.43,0,0,1,15.19,0A19.58,19.58,0,0,1,643,70,10.26,10.26,0,0,1,635.44,73.24Z"/><polygon class="b" points="585.35 81.46 585.35 47.16 579.96 47.16 579.96 41.77 587.33 33.27 594.14 33.27 594.14 54.81 594.14 81.46 585.35 81.46"/><path class="b" d="M44.59,136.32,57.44,140a15.18,15.18,0,0,1,9.07,7.09,13,13,0,0,1,0,13.32,14.29,14.29,0,0,1-11.62,7.65,24.67,24.67,0,0,1-22.11-7.65l6.46-5.95a15.89,15.89,0,0,0,14.66,4.85,5.5,5.5,0,0,0,4.93-3.2,4.22,4.22,0,0,0,.09-4.59A6.4,6.4,0,0,0,55,148.48L42.29,144.8a12,12,0,0,1-6.23-19h0a16.46,16.46,0,0,1,10.23-6.08,25,25,0,0,1,20.87,5.7l-5.75,6.64a16.25,16.25,0,0,0-13.61-3.68A7.62,7.62,0,0,0,43,131.24h0l0,0h0l0,0a3.24,3.24,0,0,0,1.61,5.08Z"/><path class="b" d="M93.64,162.3a19.22,19.22,0,0,0,28.35,0,28.36,28.36,0,0,0,0-36.85,19.22,19.22,0,0,0-28.35,0,28.36,28.36,0,0,0,0,36.85Z"/><path class="c" d="M115.41,131.28a10.43,10.43,0,0,0-15.19,0,19.58,19.58,0,0,0,0,25.19,10.43,10.43,0,0,0,15.19,0,19.54,19.54,0,0,0,0-25.19Z"/><path class="b" d="M120.86,119.21a6.66,6.66,0,1,0-6.67-6.66A6.66,6.66,0,0,0,120.86,119.21Z"/><path class="b" d="M94.49,119.21a6.66,6.66,0,1,0-6.66-6.66A6.67,6.67,0,0,0,94.49,119.21Z"/><path class="b" d="M149.2,119.78h18.43a16.78,16.78,0,0,1,11.05,4,19.54,19.54,0,0,1,7.09,13.61,51.73,51.73,0,0,1,0,13,20.67,20.67,0,0,1-7.09,13.32A16.2,16.2,0,0,1,167.63,168H149.2V119.78Z"/><path class="c" d="M158,159.18V128.57h9.71a7.94,7.94,0,0,1,5.35,1.93,10.74,10.74,0,0,1,4,7.72,42.68,42.68,0,0,1,0,11.12,11.86,11.86,0,0,1-4.19,7.8,7.42,7.42,0,0,1-5.19,2Z"/><polygon class="b" points="206.18 119.78 232.54 119.78 232.54 128.57 214.96 128.57 214.96 138.21 229.7 138.21 229.7 147 214.96 147 214.96 159.18 232.54 159.18 232.54 167.97 206.18 167.97 206.18 139.62 206.18 119.78"/><path class="b" d="M287.81,168h-9.92l-10.21-19.56H262.3V168h-8.79V119.78h18.71a14.32,14.32,0,0,1,4.92,27.76L287.8,168Z"/><path class="c" d="M262.3,139.62V128.57h9.92a5.53,5.53,0,1,1,0,11.05Z"/><polygon class="b" points="324.52 128.57 324.52 142.46 324.52 167.97 315.73 167.97 315.73 142.46 315.73 128.57 304.96 128.57 304.96 119.78 335.29 119.78 335.29 128.57 324.52 128.57"/><circle class="b" cx="386.17" cy="110.43" r="6.52"/><circle class="b" cx="361.79" cy="110.43" r="6.52" transform="translate(-14.91 144.79) rotate(-22.18)"/><polygon class="b" points="364.16 159.18 361.37 167.97 352.15 167.97 367.46 119.78 380.5 119.78 395.81 167.97 386.59 167.97 383.79 159.18 364.16 159.18"/><polygon class="c" points="366.95 150.4 373.98 128.28 381 150.4 366.95 150.4"/><polygon class="b" points="423.87 139.62 423.87 159.18 439.17 159.18 439.17 167.97 415.08 167.97 415.08 139.62 415.08 119.78 423.87 119.78 423.87 139.62"/><path class="b" d="M453.63,159.18h4.82a4,4,0,0,0,4-4V119.78h8.78v35.43A12.75,12.75,0,0,1,458.45,168h-4.82Z"/><polygon class="b" points="490.76 119.78 517.12 119.78 517.12 128.57 499.55 128.57 499.55 138.21 514.29 138.21 514.29 147 499.55 147 499.55 159.18 517.12 159.18 517.12 167.97 490.76 167.97 490.76 139.62 490.76 119.78"/><polygon class="b" points="698.73 167.97 698.73 133.67 693.35 133.67 693.35 128.29 700.72 119.78 707.52 119.78 707.52 141.33 707.52 167.97 698.73 167.97"/><polygon class="b" points="640.91 128.57 640.91 119.78 674.92 119.78 674.92 127.72 658.2 167.97 648.68 167.97 665.05 128.57 640.91 128.57"/></svg>