<svg xmlns="http://www.w3.org/2000/svg" viewBox="0 0 182.19 117.14"><defs><style>.a,.c{fill:#007a61;}.a{stroke:#007a61;}.b{fill:#fff;}</style></defs><title>F14-1 korkortonline.se</title><rect class="a" x="0.5" y="0.5" width="181.19" height="116.14"/><path class="b" d="M.5,13v91.08A12.53,12.53,0,0,0,13,116.64H169.16a12.53,12.53,0,0,0,12.53-12.53V13A12.53,12.53,0,0,0,169.16.5H13A12.53,12.53,0,0,0,.5,13Z"/><rect class="c" x="6.28" y="6.28" width="169.62" height="104.57" rx="6.75"/><polygon class="b" points="50.14 34.47 76.5 34.47 76.5 43.26 58.93 43.26 58.93 52.9 73.67 52.9 73.67 61.69 58.93 61.69 58.93 73.88 76.5 73.88 76.5 82.66 50.14 82.66 50.14 54.32 50.14 34.47"/><polygon class="b" points="127.48 34.47 106.83 62.82 119.16 62.82 119.16 56.3 127.94 51.77 127.94 62.82 134.18 62.82 134.18 71.32 127.94 71.32 127.94 82.66 119.16 82.66 119.16 71.32 95.35 71.32 95.35 63.67 116.61 34.47 127.48 34.47"/></svg>