<svg xmlns="http://www.w3.org/2000/svg" viewBox="0 0 181.37 116.31"><defs><style>.a,.c{fill:#fff;}.a{stroke:#0c479d;stroke-linecap:round;stroke-linejoin:round;stroke-width:0.18px;}.b{fill:#0c479d;}</style></defs><title>F15-1 korkortonline.se</title><rect class="a" x="0.09" y="0.09" width="181.19" height="116.13"/><path class="b" d="M14.06.09H167.3a14,14,0,0,1,14,14v88.19a14,14,0,0,1-14,14H14.06a14,14,0,0,1-14-14V14.06A14,14,0,0,1,14.06.09Z"/><path class="c" d="M7.32,14.06v88.19A6.74,6.74,0,0,0,14.06,109H167.3a6.76,6.76,0,0,0,6.75-6.75V14.06a6.74,6.74,0,0,0-6.75-6.74H14.06a6.73,6.73,0,0,0-6.74,6.74Z"/><path class="b" d="M73.41,69.49a7.25,7.25,0,0,0,.28-4.25A6.72,6.72,0,0,0,70,60.71a13.2,13.2,0,0,0-6.52-.85,13.79,13.79,0,0,0-7.37,3.4l-7.37-3.69,5.38-25.51H80.5v8.79H61.26l-1.88,8.89a26.34,26.34,0,0,1,3.82-.67,19.1,19.1,0,0,1,9.93,1.42A15.53,15.53,0,0,1,82.2,63a15.72,15.72,0,0,1-.85,10.49A17.65,17.65,0,0,1,70,82.25,23.09,23.09,0,0,1,49,76l6.24-6A14.41,14.41,0,0,0,68,73.75,8.16,8.16,0,0,0,73.41,69.49Z"/><path class="b" d="M128.1,56.07a9.78,9.78,0,0,1,2.83,2.83,15.22,15.22,0,0,1,.29,15.59,17.1,17.1,0,0,1-11.06,7.65,28.68,28.68,0,0,1-10.77,0,17.1,17.1,0,0,1-11.06-7.65,15.24,15.24,0,0,1,.29-15.59,9.78,9.78,0,0,1,2.83-2.83,13.08,13.08,0,0,1-2.83-7.94,13.36,13.36,0,0,1,7.08-12.47,21.56,21.56,0,0,1,18.15,0,13.06,13.06,0,0,1,7.08,12.47A13.77,13.77,0,0,1,128.1,56.07Z"/><path class="c" d="M111.09,51.81h7.09a4,4,0,0,0,4.25-4,4.74,4.74,0,0,0-2.55-4.54,12.15,12.15,0,0,0-10.21,0,4.74,4.74,0,0,0-2.55,4.54,3.89,3.89,0,0,0,4,4Z"/><path class="c" d="M111.37,60.89h6.81a6.32,6.32,0,0,1,2,.28,6.57,6.57,0,0,1,3.4,2.55,6,6,0,0,1,.29,6,9.09,9.09,0,0,1-6,4,16.73,16.73,0,0,1-6.23,0,9.11,9.11,0,0,1-6-4,6,6,0,0,1,.29-6,6.61,6.61,0,0,1,3.4-2.55A5.56,5.56,0,0,1,111.37,60.89Z"/></svg>