<svg xmlns="http://www.w3.org/2000/svg" viewBox="0 0 186.28 235.04"><defs><style>.a,.c{fill:#fff;}.a{stroke:#000;}.b{fill:#000;}</style></defs><title>F19-1 korkortonline.se</title><rect class="a" x="0.5" y="0.5" width="185.28" height="234.04"/><path class="b" d="M.5,10.25V224.79a9.75,9.75,0,0,0,9.75,9.75H176a9.73,9.73,0,0,0,9.75-9.75V10.25A9.75,9.75,0,0,0,176,.5H10.25A9.76,9.76,0,0,0,.5,10.25Z"/><rect class="c" x="5.38" y="5.38" width="175.53" height="224.29" rx="4.88"/><polyline class="b" points="48.28 55.11 27.8 55.11 54.13 20 80.47 55.11 59.99 55.11 59.99 215.04 48.28 215.04 48.28 55.11 48.28 105.06"/><path class="b" d="M128.25,84.37a48.75,48.75,0,0,0,14.28,34.47l22.07,22.07-8.28,8.27-22.07-22.06a61.55,61.55,0,0,1-6-7V215h-11.7V55.11H96.07L122.4,20l26.33,35.11H128.25Z"/></svg>