<svg xmlns="http://www.w3.org/2000/svg" viewBox="0 0 254.55 235.04"><defs><style>.a,.c{fill:#fff;}.a{stroke:#000;}.b{fill:#000;}</style></defs><title>F20-1 korkortonline.se</title><rect class="a" x="0.5" y="0.5" width="253.55" height="234.04"/><path class="b" d="M.5,10.25V224.79a9.75,9.75,0,0,0,9.75,9.75h234a9.75,9.75,0,0,0,9.76-9.75V10.25A9.76,9.76,0,0,0,244.29.5h-234A9.76,9.76,0,0,0,.5,10.25Z"/><rect class="c" x="5.38" y="5.38" width="243.79" height="224.29" rx="4.88"/><polygon class="b" points="148.73 55.11 122.4 20 96.07 55.11 116.55 55.11 116.55 215.04 128.25 215.04 128.25 55.11 148.73 55.11"/><path class="b" d="M224.58,149.18l8.28-8.27-22.07-22.07a48.75,48.75,0,0,1-14.28-34.47V55.11H217L190.66,20,164.33,55.11h20.48V84.37a60.46,60.46,0,0,0,17.71,42.75Z"/><polygon class="b" points="80.47 55.11 54.13 20 27.8 55.11 48.28 55.11 48.28 215.04 59.99 215.04 59.99 55.11 80.47 55.11"/></svg>