<svg xmlns="http://www.w3.org/2000/svg" viewBox="0 0 823.59 823.59"><defs><style>.a{fill:#0c479d;}.b{fill:#fff;}.c{fill:#ffce00;}</style></defs><title>F22-1 korkortonline.se</title><rect class="a" width="823.59" height="823.59"/><path class="b" d="M30.88,0H792.71a30.88,30.88,0,0,1,30.88,30.88V792.71a30.86,30.86,0,0,1-30.88,30.88H30.88A30.88,30.88,0,0,1,0,792.71V30.88A30.9,30.9,0,0,1,30.88,0Z"/><path class="a" d="M30.88,13.73H792.71a17.16,17.16,0,0,1,17.16,17.15V792.71a17.17,17.17,0,0,1-17.16,17.16H30.88a17.16,17.16,0,0,1-17.15-17.16V30.88A17.14,17.14,0,0,1,30.88,13.73Z"/><polygon class="c" points="246.41 162.01 217.56 141.05 253.22 141.05 264.24 107.14 275.25 141.05 310.91 141.05 282.06 162.01 293.08 195.91 264.24 174.96 235.39 195.91 246.41 162.01"/><polygon class="c" points="138.39 270.03 109.54 249.07 145.2 249.07 156.21 215.16 167.23 249.07 202.88 249.07 174.04 270.03 185.06 303.94 156.21 282.98 127.37 303.94 138.39 270.03"/><polygon class="c" points="98.85 417.59 70 396.63 105.66 396.63 116.68 362.72 127.69 396.63 163.35 396.63 134.5 417.59 145.52 451.5 116.68 430.54 87.83 451.5 98.85 417.59"/><polygon class="c" points="138.39 565.15 109.54 544.19 145.2 544.19 156.21 510.28 167.23 544.19 202.88 544.19 174.04 565.15 185.06 599.06 156.21 578.1 127.37 599.06 138.39 565.15"/><polygon class="c" points="246.41 673.17 217.56 652.21 253.22 652.21 264.24 618.31 275.25 652.21 310.91 652.21 282.06 673.17 293.08 707.08 264.24 686.12 235.39 707.08 246.41 673.17"/><polygon class="c" points="393.97 712.71 365.13 691.75 400.78 691.75 411.8 657.84 422.81 691.75 458.47 691.75 429.62 712.71 440.64 746.62 411.8 725.66 382.95 746.62 393.97 712.71"/><polygon class="c" points="541.53 673.17 512.68 652.21 548.34 652.21 559.36 618.31 570.37 652.21 606.03 652.21 577.18 673.17 588.2 707.08 559.36 686.12 530.51 707.08 541.53 673.17"/><polygon class="c" points="685.2 565.15 714.05 544.19 678.39 544.19 667.38 510.28 656.36 544.19 620.71 544.19 649.55 565.15 638.53 599.06 667.38 578.1 696.22 599.06 685.2 565.15"/><polygon class="c" points="724.74 417.59 753.59 396.63 717.93 396.63 706.92 362.72 695.9 396.63 660.25 396.63 689.09 417.59 678.07 451.5 706.92 430.54 735.76 451.5 724.74 417.59"/><polygon class="c" points="685.2 270.03 714.05 249.07 678.39 249.07 667.38 215.16 656.36 249.07 620.71 249.07 649.55 270.03 638.53 303.94 667.38 282.98 696.22 303.94 685.2 270.03"/><polygon class="c" points="577.18 162.01 606.03 141.05 570.37 141.05 559.36 107.14 548.34 141.05 512.68 141.05 541.53 162.01 530.51 195.91 559.36 174.96 588.2 195.91 577.18 162.01"/><polygon class="c" points="411.8 67.6 422.81 101.51 458.47 101.51 429.62 122.47 440.64 156.38 411.8 135.42 382.95 156.38 393.97 122.47 365.13 101.51 400.78 101.51 411.8 67.6"/><polygon class="b" points="198.67 380.91 232.47 380.91 232.47 392.17 209.94 392.17 209.94 404.53 228.83 404.53 228.83 415.79 209.94 415.79 209.94 442.69 198.67 442.69 198.67 406.35 198.67 380.91"/><polygon class="b" points="268.81 406.35 268.81 442.69 257.54 442.69 257.54 406.35 257.54 380.91 268.81 380.91 268.81 406.35"/><polygon class="b" points="297.14 380.91 309.86 380.91 333.85 421.97 333.85 380.91 345.12 380.91 345.12 442.69 332.9 442.69 308.41 400.75 308.41 442.69 297.14 442.69 297.14 380.91"/><polygon class="b" points="385.09 406.35 385.09 431.42 404.71 431.42 404.71 442.69 373.82 442.69 373.82 406.35 373.82 380.91 385.09 380.91 385.09 406.35"/><polygon class="b" points="459.22 380.91 478.84 442.69 467.02 442.69 463.44 431.42 438.27 431.42 434.7 442.69 422.88 442.69 442.5 380.91 459.22 380.91"/><polygon class="a" points="441.85 420.15 450.86 391.81 459.86 420.15 441.85 420.15"/><polygon class="b" points="503.55 380.91 516.27 380.91 540.25 421.97 540.25 380.91 551.52 380.91 551.52 442.69 539.3 442.69 514.81 400.75 514.81 442.69 503.55 442.69 503.55 380.91"/><path class="b" d="M580.22,380.91h23.62A21.49,21.49,0,0,1,618,386a25.06,25.06,0,0,1,9.08,17.45,66.74,66.74,0,0,1,0,16.71A26.49,26.49,0,0,1,618,437.23a20.83,20.83,0,0,1-14.18,5.46H580.22V380.91Z"/><path class="a" d="M591.49,431.42V392.17h12.44a10.18,10.18,0,0,1,6.87,2.48,13.73,13.73,0,0,1,5.08,9.9,55.26,55.26,0,0,1,0,14.25,15.24,15.24,0,0,1-5.38,10,9.55,9.55,0,0,1-6.65,2.62Z"/></svg>