<svg xmlns="http://www.w3.org/2000/svg" viewBox="0 0 419.24 144.56"><defs><style>.a{fill:#000;}.b{fill:#e97300;}</style></defs><title>F24-1 korkortonline.se</title><path class="a" d="M0,104.31V40.25A17.72,17.72,0,0,1,16.36,22.58L309.23.05a17.67,17.67,0,0,1,10.48,2.48l90.93,54.55a17.73,17.73,0,0,1,0,30.4L319.71,142a17.67,17.67,0,0,1-10.48,2.48L16.36,122A17.72,17.72,0,0,1,0,104.31Z"/><path class="b" d="M8.86,104.31V40.25A8.87,8.87,0,0,1,17,31.41L309.91,8.88a8.91,8.91,0,0,1,5.24,1.24l90.93,54.56a8.86,8.86,0,0,1,0,15.2l-90.93,54.56a8.84,8.84,0,0,1-5.24,1.24L17,113.15A8.87,8.87,0,0,1,8.86,104.31Z"/></svg>