<svg xmlns="http://www.w3.org/2000/svg" viewBox="0 0 283.46 325.98"><defs><style>.a{fill:#e97300;}.b{fill:#000;}</style></defs><title>F26-1 korkortonline.se</title><rect class="a" width="283.46" height="325.98"/><path class="b" d="M0,14.17V311.81A14.17,14.17,0,0,0,14.17,326H269.29a14.17,14.17,0,0,0,14.17-14.17V14.17A14.17,14.17,0,0,0,269.29,0H14.17A14.17,14.17,0,0,0,0,14.17Z"/><path class="a" d="M7.09,14.17V311.81a7.08,7.08,0,0,0,7.08,7.09H269.29a7.1,7.1,0,0,0,7.09-7.09V14.17a7.09,7.09,0,0,0-7.09-7.08H14.17a7.07,7.07,0,0,0-7.08,7.08Z"/><polygon class="b" points="116.22 246.61 77.95 297.64 39.69 246.61 69.45 246.61 69.45 28.35 86.46 28.35 86.46 246.61 116.22 246.61"/><polygon class="b" points="197.01 178.58 197.01 297.64 214.02 297.64 214.02 178.58 243.78 178.58 205.51 127.56 167.24 178.58 197.01 178.58"/><rect class="b" x="155.91" y="28.35" width="99.21" height="70.87"/></svg>