<svg xmlns="http://www.w3.org/2000/svg" viewBox="0 0 284.46 227.77"><defs><style>.a,.c{fill:#0c479d;}.a{stroke:#0c479d;}.b{fill:#fff;}.d{fill:#000;}</style></defs><title>F29-1 korkortonline.se</title><rect class="a" x="0.5" y="0.5" width="283.46" height="226.77"/><rect class="b" x="0.5" y="0.5" width="283.46" height="226.77" rx="17.01"/><path class="c" d="M17.51,218.77H267a8.5,8.5,0,0,0,8.5-8.51V17.51A8.51,8.51,0,0,0,267,9H17.51A8.5,8.5,0,0,0,9,17.51V210.26A8.51,8.51,0,0,0,17.51,218.77Z"/><path class="b" d="M52.36,145.07H31.68V31.68h44a33.69,33.69,0,0,1,0,67.37H52.36Z"/><path class="c" d="M52.36,78.37v-26H75.7a13,13,0,1,1,0,26Z"/><circle class="b" cx="196.09" cy="139.4" r="56.69" transform="translate(-19.8 33.21) rotate(-9.22)"/><polygon class="d" points="227.84 132.5 227.84 114.36 164.34 114.36 164.34 132.5 187.02 132.5 187.02 137.03 187.02 177.85 205.16 177.85 205.16 137.03 205.16 132.5 227.84 132.5"/><polygon class="b" points="102.55 160.66 88.37 160.66 88.37 146.48 74.2 146.48 74.2 132.31 88.37 132.31 88.37 118.14 102.55 118.14 102.55 132.31 116.72 132.31 116.72 146.48 102.55 146.48 102.55 160.66"/></svg>