<svg xmlns="http://www.w3.org/2000/svg" viewBox="0 0 340.16 340.16"><defs><style>.a{fill:#000;}.b{fill:#e97300;}</style></defs><title>F32-1 korkortonline.se</title><rect class="a" width="340.16" height="340.16" rx="28.35"/><path class="b" d="M28.35,326H311.81A14.16,14.16,0,0,0,326,311.81V28.35a14.17,14.17,0,0,0-14.17-14.18H28.35A14.18,14.18,0,0,0,14.17,28.35V311.81A14.17,14.17,0,0,0,28.35,326Z"/><path class="a" d="M185.17,283.17h30.24v17a5.67,5.67,0,0,0,5.67,5.67h11.34a5.66,5.66,0,0,0,5.66-5.67V243.48a5.67,5.67,0,0,0-5.66-5.67H221.08a5.67,5.67,0,0,0-5.67,5.67v17H185.17a18.9,18.9,0,0,0-30.24,0H124.7v-17a5.67,5.67,0,0,0-5.67-5.67H107.69a5.67,5.67,0,0,0-5.67,5.67v56.69a5.67,5.67,0,0,0,5.67,5.67H119a5.67,5.67,0,0,0,5.67-5.67v-17h30.23a18.9,18.9,0,0,0,30.24,0Z"/><path class="a" d="M251.12,305.84a5.67,5.67,0,0,1-5.67-5.67V243.48a5.67,5.67,0,0,1,5.67-5.67h11.34a5.67,5.67,0,0,1,5.67,5.67v56.69a5.67,5.67,0,0,1-5.67,5.67Z"/><path class="a" d="M72,300.17V243.48a5.67,5.67,0,0,1,5.67-5.67H89a5.67,5.67,0,0,1,5.67,5.67v56.69A5.67,5.67,0,0,1,89,305.84H77.64A5.67,5.67,0,0,1,72,300.17Z"/><path class="a" d="M64.6,226.47H275.5V62.06a28.34,28.34,0,0,0-28.34-28.34H93A28.36,28.36,0,0,0,64.6,62.06Z"/><rect class="b" x="102.02" y="71.14" width="136.06" height="109.98"/></svg>