<svg xmlns="http://www.w3.org/2000/svg" viewBox="0 0 328.82 198.43"><defs><style>.a{fill:#ffce00;}.b{fill:#000;}</style></defs><title>F38-1 korkortonline.se</title><rect class="a" width="328.82" height="198.43"/><path class="b" d="M0,187.09V11.34A11.34,11.34,0,0,1,11.34,0H317.48a11.34,11.34,0,0,1,11.34,11.34V187.09a11.35,11.35,0,0,1-11.34,11.34H11.34A11.35,11.35,0,0,1,0,187.09Z"/><path class="a" d="M5.67,187.09V11.34a5.67,5.67,0,0,1,5.67-5.67H317.48a5.67,5.67,0,0,1,5.67,5.67V187.09a5.67,5.67,0,0,1-5.67,5.67H11.34a5.67,5.67,0,0,1-5.67-5.67Z"/><path class="b" d="M186.46,123.06l6.83-.45a36.41,36.41,0,0,0,72.43-2.49l1.59.12a38,38,0,0,0-54.93-36.42L202,65.82l3.86-8.66,10.54-4.8a3.54,3.54,0,0,0-1.45-6.76q-13.08-.43-26.19-.39a2.56,2.56,0,0,0-1.29,4.84q6.85,3.77,14,6.91l-3.78,8.49H131.86l4.92-12.17a8.08,8.08,0,0,1,8.91-12h0l7.13,1.81,2,.5,1-3.92-2-.5-7.15-1.82h0a12.13,12.13,0,0,0-14.32,16L119.47,85.34a38,38,0,0,0-19.22-5.53v1.6a36.41,36.41,0,1,0,28.87,57.87l1.29.94a38,38,0,0,0-7.53-52.54l2.21-5.47L165,116.92a11.31,11.31,0,0,0,11.43,16.18l2.37,7.76h-2.48v4h10.31v-4h-3.6L180.33,132A11.33,11.33,0,0,0,186.46,123.06Z"/><path class="a" d="M229.5,113.47a4.34,4.34,0,1,1-3.56,7l-26.7,1.75a30.46,30.46,0,1,0,16.92-31.86Z"/><path class="a" d="M113.39,111.18a14.15,14.15,0,0,1-13.67,8.75,2,2,0,0,1-1.74-1,2,2,0,0,1,0-2,2,2,0,0,1,1.75-1,10.12,10.12,0,0,0,9.65-5.61l7.21-17.85A30.45,30.45,0,1,0,119.92,95l-6.53,16.17Z"/><path class="a" d="M174.72,103.26V99.21H164.41v4.05h2.92l2.62,8.57a11.08,11.08,0,0,0-2.54,1.81L126.69,78.25l3.54-8.75h65.7l-18.38,41.28a11.2,11.2,0,0,0-3.74-.16l-2.25-7.36Z"/><path class="a" d="M200,70.39l8.91,15.43a38,38,0,0,0-17.48,32.86l-5.22.34a11.33,11.33,0,0,0-4.88-6.71L199.51,71.4Z"/><path class="a" d="M225.86,115.26l-13.22-22.9a30.44,30.44,0,0,0-13.72,25.83l26.33-1.73Z"/></svg>