<svg xmlns="http://www.w3.org/2000/svg" viewBox="0 0 460.4 346.77"><defs><style>.a,.c{fill:#0c479d;}.a{stroke:#0c479d;}.b{fill:#fff;}</style></defs><title>F4-1 korkortonline.se</title><rect class="a" x="0.5" y="0.5" width="334.91" height="145.53"/><rect class="a" x="0.5" y="146.03" width="459.4" height="200.24"/><rect class="b" x="0.5" y="0.5" width="334.91" height="145.53" rx="12.53"/><path class="b" d="M.5,158.56V333.74A12.53,12.53,0,0,0,13,346.27H447.37a12.53,12.53,0,0,0,12.53-12.53V158.56A12.53,12.53,0,0,0,447.37,146H13A12.53,12.53,0,0,0,.5,158.56Z"/><path class="c" d="M6.28,13V133.5A6.76,6.76,0,0,0,13,140.25H322.88a6.76,6.76,0,0,0,6.75-6.75V13a6.76,6.76,0,0,0-6.75-6.75H13A6.75,6.75,0,0,0,6.28,13Z"/><path class="c" d="M6.28,158.56V333.74A6.75,6.75,0,0,0,13,340.49H447.37a6.76,6.76,0,0,0,6.75-6.75V158.56a6.76,6.76,0,0,0-6.75-6.75H13a6.76,6.76,0,0,0-6.75,6.75Z"/><path class="b" d="M159.52,36.16v74.21a12.53,12.53,0,0,0,12.53,12.53H288.67a12.53,12.53,0,0,0,12.53-12.53V36.16a12.53,12.53,0,0,0-12.53-12.53H172.05a12.53,12.53,0,0,0-12.53,12.53Z"/><path class="c" d="M165.31,36.16v74.21a6.74,6.74,0,0,0,6.74,6.75H288.67a6.76,6.76,0,0,0,6.75-6.75V36.16a6.76,6.76,0,0,0-6.75-6.75H172.05a6.74,6.74,0,0,0-6.74,6.75Z"/><path class="b" d="M208.13,84.6a7.33,7.33,0,0,0,.28-4.25,6.72,6.72,0,0,0-3.68-4.53,13.2,13.2,0,0,0-6.52-.85,13.82,13.82,0,0,0-7.38,3.4l-7.37-3.69,5.39-25.51h26.36V58H196l-1.88,8.89a26.11,26.11,0,0,1,3.82-.67,19,19,0,0,1,9.92,1.42,15.79,15.79,0,0,1,8.22,21,17.6,17.6,0,0,1-11.33,8.79,23.09,23.09,0,0,1-21-6.24l6.23-6a14.42,14.42,0,0,0,12.76,3.69A8.21,8.21,0,0,0,208.13,84.6Z"/><path class="b" d="M256.64,97.93a19,19,0,0,1-14.17-6.24,28.33,28.33,0,0,1,0-36.85,19.21,19.21,0,0,1,28.34,0,28.36,28.36,0,0,1,0,36.85A19.05,19.05,0,0,1,256.64,97.93Z"/><path class="c" d="M256.64,89.14a10.28,10.28,0,0,1-7.6-3.28,19.58,19.58,0,0,1,0-25.19,10.44,10.44,0,0,1,15.2,0,19.58,19.58,0,0,1,0,25.19A10.28,10.28,0,0,1,256.64,89.14Z"/><path class="b" d="M164.63,195.81a28.33,28.33,0,0,0,0,36.85,19.23,19.23,0,0,0,28.34,0,28.33,28.33,0,0,0,0-36.85,19.21,19.21,0,0,0-28.34,0Z"/><path class="c" d="M171.2,226.83a10.44,10.44,0,0,0,15.2,0,19.58,19.58,0,0,0,0-25.19,10.44,10.44,0,0,0-15.2,0,19.58,19.58,0,0,0,0,25.19Z"/><path class="b" d="M254.48,238.33h-9.92l-10.2-19.56H229v19.56h-8.79V190.14h18.71a14.31,14.31,0,0,1,4.92,27.76l10.66,20.43Z"/><path class="c" d="M229,210v-11h9.92a5.53,5.53,0,1,1,0,11Z"/><polygon class="b" points="274.04 190.14 283.96 190.14 302.67 222.17 302.67 190.14 311.46 190.14 311.46 238.33 301.93 238.33 282.83 205.62 282.83 238.33 274.04 238.33 274.04 190.14"/><path class="b" d="M365,187.3a6.52,6.52,0,1,0-6.52-6.52A6.52,6.52,0,0,0,365,187.3Z"/><path class="b" d="M340.65,187.3a6.52,6.52,0,1,0-6.52-6.52A6.52,6.52,0,0,0,340.65,187.3Z"/><polygon class="b" points="343.02 229.54 340.23 238.33 331.01 238.33 346.32 190.14 359.36 190.14 374.67 238.33 365.44 238.33 362.65 229.54 343.02 229.54"/><polygon class="c" points="345.81 220.75 352.84 198.64 359.86 220.75 345.81 220.75"/><path class="b" d="M403.84,206.67l12.85,3.72a15.18,15.18,0,0,1,9.07,7.08,13,13,0,0,1,0,13.32,14.29,14.29,0,0,1-11.62,7.66A24.69,24.69,0,0,1,392,230.79l6.47-5.95a15.89,15.89,0,0,0,14.66,4.86,5.49,5.49,0,0,0,4.92-3.2,4.2,4.2,0,0,0,.09-4.59,6.37,6.37,0,0,0-3.88-3.07l-12.75-3.69a12,12,0,0,1-6.23-19h0a16.43,16.43,0,0,1,10.23-6.07,25,25,0,0,1,20.87,5.69l-5.75,6.65a16.26,16.26,0,0,0-13.61-3.69,7.73,7.73,0,0,0-4.82,2.84h0l0,0h0l0,0a3.23,3.23,0,0,0,1.61,5.07Z"/><path class="b" d="M184.2,300.75a7.21,7.21,0,0,0,.28-4.26A6.72,6.72,0,0,0,180.8,292a13.2,13.2,0,0,0-6.52-.85,13.86,13.86,0,0,0-7.37,3.4l-7.37-3.69,5.39-25.51h26.36v8.79H172.05L170.17,283a27.65,27.65,0,0,1,3.83-.67,19.06,19.06,0,0,1,9.92,1.42A15.52,15.52,0,0,1,193,294.23a15.69,15.69,0,0,1-.85,10.48,17.65,17.65,0,0,1-11.34,8.79,23.08,23.08,0,0,1-21-6.23l6.24-6A14.41,14.41,0,0,0,178.81,305,8.15,8.15,0,0,0,184.2,300.75Z"/><path class="b" d="M232.71,314.07a19,19,0,0,1-14.17-6.24,28.36,28.36,0,0,1,0-36.85,19.24,19.24,0,0,1,28.35,0,28.36,28.36,0,0,1,0,36.85A19,19,0,0,1,232.71,314.07Z"/><path class="c" d="M232.71,305.28a10.2,10.2,0,0,1-7.59-3.28,19.54,19.54,0,0,1,0-25.19,10.43,10.43,0,0,1,15.19,0,19.58,19.58,0,0,1,0,25.19A10.24,10.24,0,0,1,232.71,305.28Z"/><path class="b" d="M293.37,314.07a19,19,0,0,1-14.17-6.24,28.36,28.36,0,0,1,0-36.85,19.24,19.24,0,0,1,28.35,0,28.36,28.36,0,0,1,0,36.85A19,19,0,0,1,293.37,314.07Z"/><path class="c" d="M293.37,305.28a10.2,10.2,0,0,1-7.59-3.28,19.54,19.54,0,0,1,0-25.19,10.43,10.43,0,0,1,15.19,0A19.58,19.58,0,0,1,301,302,10.24,10.24,0,0,1,293.37,305.28Z"/><path class="b" d="M378.77,313.5h8.79V291.68a4.82,4.82,0,1,1,9.64,0V313.5H406V291.68a4.82,4.82,0,1,1,9.64,0V313.5h8.78V289.12a11.38,11.38,0,0,0-20.69-6.52,12,12,0,0,0-16.16-2.83v-1.42h-8.79Z"/><path class="b" d="M115.16,62.64,82.9,30.38,50.65,62.64A6,6,0,0,0,54.9,72.9H74.4v43.25h17V72.9h19.5a6,6,0,0,0,4.25-10.26Z"/><path class="b" d="M69.89,175.91a6,6,0,0,0-4.26,10.26L79.42,200l-14.6,14.6A49.58,49.58,0,0,0,50.3,249.61v66.78h17V249.61a32.52,32.52,0,0,1,9.54-23L91.45,212l13.79,13.79a6,6,0,0,0,10.26-4.25V175.91Z"/></svg>