<svg xmlns="http://www.w3.org/2000/svg" viewBox="0 0 787.91 436.04"><defs><style>.a,.c{fill:#0c479d;}.a{stroke:#0c479d;stroke-linecap:round;stroke-linejoin:round;stroke-width:0.18px;}.b{fill:#fff;}</style></defs><title>F6-1 korkortonline.se</title><rect class="a" x="0.09" y="0.09" width="787.73" height="145.53"/><rect class="a" x="0.09" y="145.62" width="787.73" height="145.53"/><rect class="a" x="0.09" y="291.15" width="787.73" height="144.8"/><rect class="b" x="0.09" y="0.09" width="787.73" height="145.53" rx="12.53"/><rect class="b" x="0.09" y="145.62" width="787.73" height="145.53" rx="12.53"/><rect class="b" x="0.09" y="291.15" width="787.73" height="144.8" rx="12.53"/><path class="c" d="M5.87,12.62V133.09a6.76,6.76,0,0,0,6.75,6.75H775.29a6.76,6.76,0,0,0,6.75-6.75V12.62a6.76,6.76,0,0,0-6.75-6.75H12.62a6.76,6.76,0,0,0-6.75,6.75Z"/><path class="c" d="M5.87,158.15V278.62a6.76,6.76,0,0,0,6.75,6.75H775.29a6.76,6.76,0,0,0,6.75-6.75V158.15a6.76,6.76,0,0,0-6.75-6.75H12.62a6.76,6.76,0,0,0-6.75,6.75Z"/><path class="c" d="M5.87,303.68V423.42a6.75,6.75,0,0,0,6.75,6.75H775.29a6.76,6.76,0,0,0,6.75-6.75V303.68a6.76,6.76,0,0,0-6.75-6.75H12.62a6.76,6.76,0,0,0-6.75,6.75Z"/><rect class="b" x="159.11" y="23.22" width="141.68" height="99.27" rx="12.53"/><rect class="b" x="159.11" y="168.75" width="216.85" height="99.27" rx="12.53"/><path class="c" d="M164.89,35.75V110a6.76,6.76,0,0,0,6.75,6.75H288.26A6.74,6.74,0,0,0,295,110V35.75A6.75,6.75,0,0,0,288.26,29H171.64a6.76,6.76,0,0,0-6.75,6.75Z"/><path class="c" d="M164.89,181.28v74.21a6.75,6.75,0,0,0,6.75,6.75H363.43a6.76,6.76,0,0,0,6.75-6.75V181.28a6.76,6.76,0,0,0-6.75-6.75H171.64A6.75,6.75,0,0,0,164.89,181.28Z"/><path class="b" d="M212.94,70.76a10,10,0,0,1,2.84,2.84,15.22,15.22,0,0,1,.28,15.59A17.11,17.11,0,0,1,205,96.84a28.74,28.74,0,0,1-10.78,0,17.08,17.08,0,0,1-11-7.65,15.22,15.22,0,0,1,.28-15.59,10,10,0,0,1,2.84-2.84,13.09,13.09,0,0,1-2.84-7.93,13.36,13.36,0,0,1,7.09-12.48,21.62,21.62,0,0,1,18.14,0,13.09,13.09,0,0,1,7.09,12.48A13.69,13.69,0,0,1,212.94,70.76Z"/><path class="c" d="M196.22,75.58H203a6.44,6.44,0,0,1,2,.29,6.61,6.61,0,0,1,3.4,2.55,6,6,0,0,1,.28,6,9.12,9.12,0,0,1-5.95,4,16.79,16.79,0,0,1-6.24,0,9.12,9.12,0,0,1-5.95-4,6,6,0,0,1,.28-6,6.61,6.61,0,0,1,3.4-2.55A5.82,5.82,0,0,1,196.22,75.58Z"/><path class="c" d="M195.93,66.51H203a4,4,0,0,0,4.25-4A4.73,4.73,0,0,0,204.72,58a12.12,12.12,0,0,0-10.2,0A4.73,4.73,0,0,0,192,62.54a3.89,3.89,0,0,0,4,4Z"/><path class="b" d="M257.5,97.51a19,19,0,0,1-14.17-6.23,28.33,28.33,0,0,1,0-36.85,19.21,19.21,0,0,1,28.34,0,28.33,28.33,0,0,1,0,36.85A19,19,0,0,1,257.5,97.51Z"/><path class="c" d="M257.5,88.73a10.28,10.28,0,0,1-7.6-3.28,19.58,19.58,0,0,1,0-25.19,10.44,10.44,0,0,1,15.2,0,19.58,19.58,0,0,1,0,25.19A10.28,10.28,0,0,1,257.5,88.73Z"/><path class="b" d="M358,61.51l6.24-6.24a20.71,20.71,0,0,0-15.88-7.09,19.07,19.07,0,0,0-14.17,6.24,28.36,28.36,0,0,0,0,36.85,19.07,19.07,0,0,0,14.17,6.24,19.33,19.33,0,0,0,20.13-17.58V70.86H348.32v8.79h11.34A10.52,10.52,0,0,1,350,88.72a12.06,12.06,0,0,1-1.7,0A10,10,0,0,1,340.39,85a19.56,19.56,0,0,1,0-24.37A10,10,0,0,1,348.32,57,11.9,11.9,0,0,1,358,61.51Z"/><path class="b" d="M419.89,45.92a6.52,6.52,0,1,0-6.52-6.52A6.51,6.51,0,0,0,419.89,45.92Z"/><path class="b" d="M395.51,45.92A6.52,6.52,0,1,0,389,39.4,6.51,6.51,0,0,0,395.51,45.92Z"/><polygon class="b" points="397.89 88.16 395.1 96.95 385.88 96.95 401.19 48.76 414.22 48.76 429.53 96.95 420.31 96.95 417.52 88.16 397.89 88.16"/><polygon class="c" points="400.68 79.37 407.7 57.26 414.73 79.37 400.68 79.37"/><polygon class="b" points="489.62 48.76 474.32 96.95 461.28 96.95 445.97 48.76 455.19 48.76 467.8 88.45 480.4 48.76 489.62 48.76"/><polygon class="b" points="517.68 68.6 517.68 88.16 532.99 88.16 532.99 96.95 508.9 96.95 508.9 68.6 508.9 48.76 517.68 48.76 517.68 68.6"/><polygon class="b" points="550 48.76 576.36 48.76 576.36 57.55 558.78 57.55 558.78 67.18 573.52 67.18 573.52 75.97 558.78 75.97 558.78 88.16 576.36 88.16 576.36 96.95 550 96.95 550 68.6 550 48.76"/><path class="b" d="M206.88,233.69a14.72,14.72,0,0,1,4.53-4.53l11.91-6.81a15.64,15.64,0,0,0,6.52-7.65,16.83,16.83,0,0,0,0-10.77,15.52,15.52,0,0,0-9.36-9.07,26.49,26.49,0,0,0-14.74.28,14.71,14.71,0,0,0-9.92,14.46h8.79a6.22,6.22,0,0,1,4.25-6.24,16.27,16.27,0,0,1,9.07,0,6,6,0,0,1,3.69,3.69,6.54,6.54,0,0,1,0,4.53,6.31,6.31,0,0,1-2.55,3.12l-11.91,6.8a23.27,23.27,0,0,0-11.34,21h34.87v-8.79Z"/><polygon class="b" points="250.53 203.08 250.53 194.29 284.55 194.29 284.55 202.23 267.82 242.48 258.3 242.48 274.68 203.08 250.53 203.08"/><path class="b" d="M315.44,233.69a14.65,14.65,0,0,1,4.54-4.53l11.9-6.81a15.58,15.58,0,0,0,6.52-7.65,16.69,16.69,0,0,0,0-10.77,15.48,15.48,0,0,0-9.35-9.07,26.49,26.49,0,0,0-14.74.28,14.68,14.68,0,0,0-9.92,14.46h8.78a6.22,6.22,0,0,1,4.26-6.24,16.27,16.27,0,0,1,9.07,0,6,6,0,0,1,3.68,3.69,6.42,6.42,0,0,1,0,4.53,6.26,6.26,0,0,1-2.55,3.12l-11.91,6.8a23.26,23.26,0,0,0-11.33,21h34.86v-8.79Z"/><path class="b" d="M404.36,194.29h19A13.9,13.9,0,0,1,434.13,217a14.69,14.69,0,0,1-9.92,25.51H404.36V194.29Z"/><path class="c" d="M424.21,233.69a5.9,5.9,0,0,0,2.26-11.34,12.07,12.07,0,0,0-2.55-.28H413.15v11.62Z"/><path class="c" d="M413.15,213.28h10.2a5.1,5.1,0,1,0,0-10.2h-10.2Z"/><path class="b" d="M464.17,200a28.36,28.36,0,0,0,0,36.85,19.22,19.22,0,0,0,28.35,0,28.36,28.36,0,0,0,0-36.85,19.22,19.22,0,0,0-28.35,0Z"/><path class="c" d="M470.75,231a10.43,10.43,0,0,0,15.19,0,19.58,19.58,0,0,0,0-25.19,10.43,10.43,0,0,0-15.19,0,19.58,19.58,0,0,0,0,25.19Z"/><polygon class="b" points="528.52 214.13 528.52 233.69 543.82 233.69 543.82 242.48 519.73 242.48 519.73 214.13 519.73 194.29 528.52 194.29 528.52 214.13"/><polygon class="b" points="569.62 214.13 569.62 233.69 584.92 233.69 584.92 242.48 560.83 242.48 560.83 214.13 560.83 194.29 569.62 194.29 569.62 214.13"/><polygon class="b" points="601.93 194.29 611.85 194.29 630.56 226.32 630.56 194.29 639.35 194.29 639.35 242.48 629.82 242.48 610.72 209.77 610.72 242.48 601.93 242.48 601.93 194.29"/><path class="b" d="M692.92,191.45a6.52,6.52,0,1,0-6.52-6.51A6.51,6.51,0,0,0,692.92,191.45Z"/><circle class="b" cx="668.54" cy="184.94" r="6.52"/><polygon class="b" points="670.91 233.69 668.12 242.48 658.9 242.48 674.21 194.29 687.25 194.29 702.55 242.48 693.34 242.48 690.54 233.69 670.91 233.69"/><polygon class="c" points="673.7 224.9 680.73 202.79 687.75 224.9 673.7 224.9"/><path class="b" d="M731.73,210.82l12.85,3.72a15.18,15.18,0,0,1,9.07,7.08,13,13,0,0,1,0,13.33A14.3,14.3,0,0,1,742,242.6,24.68,24.68,0,0,1,719.92,235l6.47-5.95a15.91,15.91,0,0,0,14.66,4.85,5.49,5.49,0,0,0,4.92-3.2,4.2,4.2,0,0,0,.09-4.59,6.37,6.37,0,0,0-3.88-3.07l-12.75-3.68a12,12,0,0,1-6.23-19h0a16.37,16.37,0,0,1,10.23-6.08A25,25,0,0,1,754.3,200l-5.75,6.64a16.26,16.26,0,0,0-13.61-3.69,7.7,7.7,0,0,0-4.82,2.84h0l0,0h0l0,0a3.23,3.23,0,0,0,1.61,5.07Z"/><polygon class="b" points="159.11 339.45 185.47 339.45 185.47 348.24 167.9 348.24 167.9 357.88 182.64 357.88 182.64 366.67 167.9 366.67 167.9 387.64 159.11 387.64 159.11 359.3 159.11 339.45"/><path class="b" d="M210.13,345.12a28.36,28.36,0,0,0,0,36.85,19.22,19.22,0,0,0,28.35,0,28.36,28.36,0,0,0,0-36.85,19.24,19.24,0,0,0-28.35,0Z"/><path class="c" d="M216.71,376.14a10.43,10.43,0,0,0,15.19,0,19.54,19.54,0,0,0,0-25.19,10.46,10.46,0,0,0-15.19,0,19.58,19.58,0,0,0,0,25.19Z"/><path class="b" d="M300,387.64h-9.92l-10.21-19.56h-5.38v19.56h-8.79V339.45H284.4a14.32,14.32,0,0,1,4.92,27.76L300,387.64Z"/><path class="c" d="M274.48,359.3V348.24h9.92a5.53,5.53,0,1,1,0,11.06Z"/><path class="b" d="M329.45,356l12.85,3.71a15.19,15.19,0,0,1,9.07,7.09,13,13,0,0,1,0,13.32,14.28,14.28,0,0,1-11.62,7.65,24.67,24.67,0,0,1-22.11-7.65l6.46-5.95A15.9,15.9,0,0,0,338.77,379a5.48,5.48,0,0,0,4.92-3.2,4.2,4.2,0,0,0,.09-4.59,6.4,6.4,0,0,0-3.89-3.07l-12.74-3.68a12,12,0,0,1-6.23-19h0a16.46,16.46,0,0,1,10.23-6.08,25,25,0,0,1,20.87,5.7l-5.75,6.64a16.25,16.25,0,0,0-13.61-3.68,7.66,7.66,0,0,0-4.82,2.83h0l0,0h0l0,0a3.24,3.24,0,0,0,1.61,5.08Z"/><path class="b" d="M373.4,339.45h19a13.9,13.9,0,0,1,10.78,22.68,14.69,14.69,0,0,1-9.93,25.51H373.4V339.45Z"/><path class="c" d="M393.24,378.86a5.9,5.9,0,0,0,2.27-11.34,11.53,11.53,0,0,0-2.55-.29H382.19v11.63Z"/><path class="c" d="M382.19,358.45h10.2a5.11,5.11,0,1,0,0-10.21h-10.2Z"/><polygon class="b" points="453.62 339.45 468.93 387.64 459.7 387.64 456.91 378.86 437.28 378.86 434.49 387.64 425.27 387.64 440.58 339.45 453.62 339.45"/><polygon class="c" points="440.07 370.07 447.1 347.95 454.12 370.07 440.07 370.07"/><path class="b" d="M520.8,344a20.75,20.75,0,0,0-15.59-4.82A21.82,21.82,0,0,0,489.62,350a28.14,28.14,0,0,0-3.12,13.61,29.24,29.24,0,0,0,3.4,14.17A19.66,19.66,0,0,0,505.49,388a20.41,20.41,0,0,0,15.31-4.82l-5.72-6.67a11.65,11.65,0,0,1-8.78,2.74,10.89,10.89,0,0,1-8.66-5.61,20.6,20.6,0,0,1-2.35-10.07,19.35,19.35,0,0,1,2-9.36,13.06,13.06,0,0,1,9-6.25,12,12,0,0,1,8.77,2.8Z"/><polygon class="b" points="549.99 358.16 565.07 339.45 576.35 339.45 561.04 358.45 576.92 387.64 566.92 387.64 555.07 365.86 549.99 372.16 549.99 387.64 541.2 387.64 541.2 339.45 549.99 339.45 549.99 358.16 549.99 358.16"/><polygon class="b" points="622.84 339.45 638.15 387.64 628.93 387.64 626.13 378.86 606.5 378.86 603.71 387.64 594.49 387.64 609.8 339.45 622.84 339.45"/><polygon class="c" points="609.29 370.07 616.32 347.95 623.34 370.07 609.29 370.07"/><path class="b" d="M114.75,62.22,82.49,30,50.24,62.22a6,6,0,0,0,4.25,10.27H74v43.25H91V72.49h19.5a6,6,0,0,0,4.26-10.27Z"/><path class="b" d="M68,177.26a6,6,0,0,1,10.27,4.25V201H98.08a31.18,31.18,0,0,1,31.18,31.18v29.08h-17V232.19A14.17,14.17,0,0,0,98.08,218H78.24v19.5A6,6,0,0,1,68,241.77L35.72,209.52Z"/><path class="b" d="M97,322.79A6,6,0,0,0,86.74,327v19.5H66.9a31.18,31.18,0,0,0-31.18,31.18v28.35h17V377.72A14.17,14.17,0,0,1,66.9,363.55H86.74v19.5A6,6,0,0,0,97,387.3l32.25-32.25Z"/></svg>