<svg xmlns="http://www.w3.org/2000/svg" viewBox="0 0 667.06 385.83"><defs><style>.a,.c{fill:#0c479d;}.a{stroke:#0c479d;}.b{fill:#fff;}</style></defs><title>F9-1 korkortonline.se</title><rect class="a" x="0.5" y="0.5" width="666.06" height="384.83"/><rect class="b" x="0.5" y="0.5" width="666.06" height="384.83" rx="12.53"/><rect class="c" x="6.28" y="6.28" width="654.5" height="373.27" rx="6.75"/><path class="b" d="M333.53,277.39l12.36-27.29a28.23,28.23,0,0,1,25.72-16.59H619.82A12.53,12.53,0,0,0,632.35,221V45.8a12.53,12.53,0,0,0-12.53-12.53H47.24A12.53,12.53,0,0,0,34.71,45.8V221a12.53,12.53,0,0,0,12.53,12.53H295.46a28.25,28.25,0,0,1,25.72,16.59Z"/><path class="c" d="M333.53,263.37l7.09-15.66a34,34,0,0,1,31-20H619.82a6.75,6.75,0,0,0,6.75-6.75V45.8a6.75,6.75,0,0,0-6.75-6.75H47.24A6.75,6.75,0,0,0,40.5,45.8V221a6.75,6.75,0,0,0,6.74,6.75H295.46a34,34,0,0,1,31,20l7.09,15.66Z"/><path class="b" d="M199.46,114.23h-8.79V66h18.71a14.32,14.32,0,1,1,0,28.63h-9.92Z"/><polygon class="b" points="268.06 66.04 283.36 114.23 274.14 114.23 271.35 105.44 251.72 105.44 248.93 114.23 239.71 114.23 255.02 66.04 268.06 66.04"/><path class="b" d="M300.08,105.44h4.82a4,4,0,0,0,4-4V66h8.79v35.43a12.77,12.77,0,0,1-12.76,12.76h-4.82Z"/><polygon class="b" points="362.73 66.04 378.03 114.23 368.81 114.23 366.02 105.44 346.39 105.44 343.6 114.23 334.38 114.23 349.69 66.04 362.73 66.04"/><polygon class="b" points="406.09 85.88 406.09 105.44 421.4 105.44 421.4 114.23 397.31 114.23 397.31 85.88 397.31 66.04 406.09 66.04 406.09 85.88"/><polygon class="b" points="463.92 66.04 479.23 114.23 470.01 114.23 467.21 105.44 447.58 105.44 444.79 114.23 435.57 114.23 450.88 66.04 463.92 66.04"/><path class="b" d="M74,195.07a19.22,19.22,0,0,0,28.35,0,28.36,28.36,0,0,0,0-36.85,19.22,19.22,0,0,0-28.35,0,28.36,28.36,0,0,0,0,36.85Z"/><path class="b" d="M101.24,152a6.66,6.66,0,1,0-6.66-6.66A6.67,6.67,0,0,0,101.24,152Z"/><path class="b" d="M74.88,152a6.66,6.66,0,1,0-6.66-6.66A6.66,6.66,0,0,0,74.88,152Z"/><polygon class="b" points="170.41 152.55 155.1 200.74 142.06 200.74 126.75 152.55 135.97 152.55 148.58 192.24 161.19 152.55 170.41 152.55"/><polygon class="b" points="189.68 152.55 216.04 152.55 216.04 161.34 198.47 161.34 198.47 170.98 213.21 170.98 213.21 179.76 198.47 179.76 198.47 191.95 216.04 191.95 216.04 200.74 189.68 200.74 189.68 172.39 189.68 152.55"/><path class="b" d="M271.32,200.74h-9.93l-10.2-19.56H245.8v19.56H237V152.55h18.7a14.32,14.32,0,0,1,4.93,27.76l10.66,20.43Z"/><polygon class="b" points="308.02 161.34 308.02 175.23 308.02 200.74 299.23 200.74 299.23 175.23 299.23 161.34 288.46 161.34 288.46 152.55 318.79 152.55 318.79 161.34 308.02 161.34"/><path class="b" d="M343.6,158.22a28.33,28.33,0,0,0,0,36.85,19.21,19.21,0,0,0,28.34,0,28.33,28.33,0,0,0,0-36.85,19.21,19.21,0,0,0-28.34,0Z"/><path class="b" d="M433.45,200.74h-9.92l-10.2-19.56h-5.39v19.56h-8.79V152.55h18.71a14.32,14.32,0,0,1,4.92,27.76l10.66,20.43Z"/><polygon class="b" points="453.01 152.55 462.93 152.55 481.64 184.58 481.64 152.55 490.43 152.55 490.43 200.74 480.9 200.74 461.8 168.03 461.8 200.74 453.01 200.74 453.01 152.55"/><polygon class="b" points="512.82 152.55 539.18 152.55 539.18 161.34 521.6 161.34 521.6 170.98 536.34 170.98 536.34 179.76 521.6 179.76 521.6 191.95 539.18 191.95 539.18 200.74 512.82 200.74 512.82 172.39 512.82 152.55"/><path class="b" d="M591.75,200.74H601l-14.28-45a10.92,10.92,0,1,0-15.09,0l-14.28,45h9.22l2.79-8.79H589Z"/><polygon class="b" points="194.22 323.08 209.29 304.38 220.58 304.38 205.27 323.37 221.15 352.56 211.14 352.56 199.3 330.78 194.22 337.08 194.22 352.56 185.43 352.56 185.43 304.38 194.22 304.38 194.22 323.08 194.22 323.08"/><polygon class="b" points="250.34 324.22 250.34 352.56 241.55 352.56 241.55 324.22 241.55 304.38 250.34 304.38 250.34 324.22"/><path class="b" d="M306.75,352.56h-9.93L286.62,333h-5.39v19.56h-8.78V304.38h18.71a14.31,14.31,0,0,1,4.92,27.75l10.66,20.43Z"/><path class="b" d="M352.67,335.55V304.38h8.78v31.17a17.58,17.58,0,1,1-35.15,0V304.38h8.79v31.17a8.79,8.79,0,1,0,17.58,0Z"/><polygon class="b" points="383.84 304.38 393.77 304.38 412.48 336.41 412.48 304.38 421.26 304.38 421.26 352.56 411.73 352.56 392.63 319.86 392.63 352.56 383.84 352.56 383.84 304.38"/><polygon class="b" points="469.16 304.38 484.47 352.56 475.25 352.56 472.46 343.77 452.83 343.77 450.04 352.56 440.82 352.56 456.13 304.38 469.16 304.38"/><path class="c" d="M199.46,85.88V74.82h9.92a5.53,5.53,0,0,1,0,11.06Z"/><polygon class="c" points="254.51 96.65 261.54 74.54 268.56 96.65 254.51 96.65"/><polygon class="c" points="349.18 96.65 356.21 74.54 363.23 96.65 349.18 96.65"/><polygon class="c" points="450.38 96.65 457.4 74.54 464.42 96.65 450.38 96.65"/><path class="c" d="M95.8,164.05a10.43,10.43,0,0,0-15.19,0,19.58,19.58,0,0,0,0,25.19,10.43,10.43,0,0,0,15.19,0,19.58,19.58,0,0,0,0-25.19Z"/><path class="c" d="M245.8,172.39v-11h9.92a5.53,5.53,0,1,1,0,11Z"/><path class="c" d="M350.17,189.24a10.44,10.44,0,0,0,15.2,0,19.58,19.58,0,0,0,0-25.19,10.44,10.44,0,0,0-15.2,0,19.58,19.58,0,0,0,0,25.19Z"/><path class="c" d="M407.94,172.39v-11h9.92a5.53,5.53,0,1,1,0,11Z"/><polygon class="c" points="586.17 183.16 579.14 161.05 572.12 183.16 586.17 183.16"/><path class="c" d="M579.14,152.27a4.4,4.4,0,1,0-4.39-4.4A4.4,4.4,0,0,0,579.14,152.27Z"/><path class="c" d="M281.23,324.22V313.16h9.93a5.53,5.53,0,0,1,0,11.06Z"/><polygon class="c" points="455.62 334.99 462.64 312.88 469.67 334.99 455.62 334.99"/></svg>