<svg xmlns="http://www.w3.org/2000/svg" viewBox="0 0 454.54 454.54"><defs><style>.a,.c{fill:#0c479d;}.a{stroke:#0c479d;}.b{fill:#fff;}.d{fill:#000;}.e{fill:none;}</style></defs><title>G1-1 korkortonline.se</title><rect class="a" x="0.5" y="0.5" width="453.54" height="453.54"/><path class="b" d="M28.85.5H425.7A28.34,28.34,0,0,1,454,28.85V425.7A28.34,28.34,0,0,1,425.7,454H28.85A28.34,28.34,0,0,1,.5,425.7V28.85A28.35,28.35,0,0,1,28.85.5Z"/><path class="c" d="M28.85,14.67H425.7a14.18,14.18,0,0,1,14.17,14.18V425.7a14.18,14.18,0,0,1-14.17,14.17H28.85A14.17,14.17,0,0,1,14.67,425.7V28.85A14.18,14.18,0,0,1,28.85,14.67Z"/><rect class="b" x="85.54" y="85.54" width="283.46" height="283.46"/><path class="d" d="M115.44,182.48l-.31-1.83a9.83,9.83,0,0,0-1-2.89h48.38a8.18,8.18,0,0,0-1.23,4.72A77.47,77.47,0,0,0,177,229.11a50.32,50.32,0,1,1,94.57,22,95.82,95.82,0,0,0,50.09-69.62,10.67,10.67,0,0,0-.65-4.44h19.85a8.35,8.35,0,0,0-1.48,3.74,113.39,113.39,0,0,1-223.93,1.64"/><path class="e" d="M254.56,227.27"/><path class="e" d="M200,227.27"/><path class="e" d="M227.27,200"/><path class="e" d="M227.27,254.56"/><circle class="b" cx="227.27" cy="227.27" r="33.78"/></svg>