<svg xmlns="http://www.w3.org/2000/svg" viewBox="0 0 842.18 842.18"><defs><style>.a,.c{fill:#0c479d;}.a{stroke:#0c479d;}.b{fill:#fff;}.d{fill:#000;}</style></defs><title>G12-1 korkortonline.se</title><rect class="a" x="0.5" y="0.5" width="841.18" height="841.18"/><path class="b" d="M51,.5H791.21A50.47,50.47,0,0,1,841.68,51V791.21a50.46,50.46,0,0,1-50.47,50.47H51A50.47,50.47,0,0,1,.5,791.21V51A50.47,50.47,0,0,1,51,.5Z"/><path class="c" d="M51,25.74H791.21A25.23,25.23,0,0,1,816.45,51V791.21a25.27,25.27,0,0,1-25.24,25.24H51a25.23,25.23,0,0,1-25.23-25.24V51A25.22,25.22,0,0,1,51,25.74Z"/><rect class="b" x="158.22" y="158.22" width="525.74" height="525.74"/><path class="d" d="M522.28,512.09a59.65,59.65,0,0,0-46.25,0,59.67,59.67,0,0,1-46.26,0,59.65,59.65,0,0,0-46.25,0,59.67,59.67,0,0,1-46.26,0,59.65,59.65,0,0,0-46.25,0,59.67,59.67,0,0,1-46.26,0,54.83,54.83,0,0,0-53.32,4.66,275.8,275.8,0,0,1-7.33-71.52h80l8-119.32h-40.6l.71-10.51H630.16L635,427.9h25l-41.52,88.83a48.56,48.56,0,0,0-49.92-4.64A59.67,59.67,0,0,1,522.28,512.09Z"/><path class="b" d="M274.69,445.23h59.16a68.65,68.65,0,0,0,.34-7,65,65,0,0,0-2.22-15,19,19,0,0,1,.3-10.84c-3.11-.79-6.19-1.64-9.26-2.55a7.69,7.69,0,0,1-4.69-8q5.32-22.44,11.18-44.73a7.18,7.18,0,0,1,7.15-5.09,66.17,66.17,0,0,1,10.71,3.16l-2.68,11.28a39.27,39.27,0,0,1,5.67-3,4.13,4.13,0,0,0,2.16-2.3,32.55,32.55,0,0,0,2.15-7.61c.13-2.63.32-5.26.55-7.88a11.32,11.32,0,0,1,3.87-6.49,7.9,7.9,0,0,1,1.66-.92,17.43,17.43,0,0,1,8.65-.77,8.88,8.88,0,0,1,7.66,7.64,37.13,37.13,0,0,1-.64,7.8c-.23,1.52-.47,3-.73,4.56a8,8,0,0,1-7.62,7,3.62,3.62,0,0,0-2.11.85,3.07,3.07,0,0,0-.83,1.13c-.36.85-.7,1.7-1,2.56a3.47,3.47,0,0,0-.38,1.7,43.2,43.2,0,0,0,.32,5.45,12.92,12.92,0,0,0,3.75,8.72,75.63,75.63,0,0,1,5.74-8.56,3,3,0,0,1,2-1.11,3,3,0,0,1,2.21.64,4.36,4.36,0,0,1,1.75,4.83,146.47,146.47,0,0,1-7.43,25.38c-.32.82-.63,1.65-.94,2.47a7.46,7.46,0,0,1-1,2.1,3.56,3.56,0,0,1-1.13.95,7.25,7.25,0,0,1-4.63.6c-.53,1.68-1,3.38-1.36,5.1a19.14,19.14,0,0,0,.66,9.76,58.3,58.3,0,0,0,7.67,15.76l1.46,2.37h39l8-119.32H282.72Z"/><path class="b" d="M509.52,445.23c-.58-2.8-1.19-5.61-1.83-8.41a3.2,3.2,0,0,0-1.08-2.37,29.79,29.79,0,0,1-4.43-5.58q-1.83-3.71-4-7.23-3.87-6.84-7.75-13.66a249,249,0,0,0,3.78,37.25Z"/><path class="b" d="M577,325.91H430.33l-8,119.32h25.54q2.87-5.12,5.45-10.39a163.78,163.78,0,0,0,7.82-17.92,40,40,0,0,0,2.83-15.25,50.09,50.09,0,0,0-7.13,8.39,7.7,7.7,0,0,0-1,2.07q-2.41,8.24-5.53,16.25a5,5,0,0,1-4.71,3.1,3,3,0,0,1-2.08-.71,6.38,6.38,0,0,1-1.15-7q2.07-5.92,4-11.91.94-2.81,2-5.58a76.58,76.58,0,0,1,7.39-13.54A56.53,56.53,0,0,1,464,381.78a17.58,17.58,0,0,1,3.38-2.82,11.66,11.66,0,0,0,4.2-8.41,69,69,0,0,1-13.06-3.85l-.1,0a.4.4,0,0,1-.12-.1.21.21,0,0,1-.06-.1.3.3,0,0,1,.05-.19.36.36,0,0,1,.11-.1,14.21,14.21,0,0,0,4.33-4.79,40.3,40.3,0,0,0,4.25-8.7,13.84,13.84,0,0,1,9.2-9.12A14,14,0,0,1,489.76,349a6.34,6.34,0,0,1,.83,5,15,15,0,0,0,0,5.62,16.16,16.16,0,0,1-.59,7,8.35,8.35,0,0,1-3.92,4.93,5.19,5.19,0,0,0-2,1.74,7.15,7.15,0,0,0-.14,4.59,3.54,3.54,0,0,0,.34.77,39.32,39.32,0,0,0,4.11,5.41,67.86,67.86,0,0,1,12.81,24.11c.41,1.24.87,2.45,1.39,3.66a87.51,87.51,0,0,0,4.56,8.27,71.07,71.07,0,0,0,4.68,6.11,4.43,4.43,0,0,1,1.48,2.91q.65,2.37,1.46,4.71c.66,1.92,1.34,3.83,2.06,5.73l5.43-2.9a4.15,4.15,0,0,0,1.57-5.2,23.06,23.06,0,0,1-1.38-8.67,16.19,16.19,0,0,1,1.17-6.11,6.52,6.52,0,0,1,4-4.28,13.1,13.1,0,0,1,9.13,0,8,8,0,0,1,5,5.82,10.29,10.29,0,0,1,.26,3.13,22.6,22.6,0,0,1-.06,2.85,17.41,17.41,0,0,1-.66,5,3.73,3.73,0,0,1-2.06,2.76c-.7.33-1.41.66-2.1,1A2.48,2.48,0,0,0,536,436a8.45,8.45,0,0,0,2.37,3.09,56,56,0,0,1,6.31,6.11h23.25Z"/><polygon class="b" points="620.09 325.91 624.49 428.37 579.76 428.37 587.55 325.91 620.09 325.91"/></svg>