<svg xmlns="http://www.w3.org/2000/svg" viewBox="0 0 453.68 563.1"><defs><style>.a,.c{fill:#0c479d;}.a{stroke:#0c479d;stroke-linecap:round;stroke-linejoin:round;stroke-width:0.14px;}.b{fill:#fff;}.d{fill:#1a1102;}</style></defs><title>G2-1 korkortonline.se</title><rect class="a" x="0.07" y="0.07" width="453.54" height="562.96"/><rect class="b" x="0.07" y="0.07" width="453.54" height="562.96" rx="28.35"/><path class="c" d="M14.24,28.42V534.68a14.19,14.19,0,0,0,14.18,14.18H425.27a14.17,14.17,0,0,0,14.17-14.18V28.42a14.19,14.19,0,0,0-14.17-14.18H28.42A14.2,14.2,0,0,0,14.24,28.42Z"/><rect class="b" x="85.11" y="85.11" width="283.46" height="283.46"/><path class="b" d="M126.51,445.38l22.68,6.55a26.81,26.81,0,0,1,16,12.5,22.94,22.94,0,0,1,0,23.51,25.25,25.25,0,0,1-20.51,13.51,43.57,43.57,0,0,1-39-13.51l11.41-10.5A28,28,0,0,0,143,486a9.72,9.72,0,0,0,8.69-5.65,7.44,7.44,0,0,0,.16-8.1,11.32,11.32,0,0,0-6.86-5.42l-22.49-6.5a21.21,21.21,0,0,1-11-33.47h0a29,29,0,0,1,18.06-10.73,44.14,44.14,0,0,1,36.82,10.06l-10.15,11.72a28.64,28.64,0,0,0-24-6.5,13.48,13.48,0,0,0-8.5,5h0l0-.06h0l0,.06a5.71,5.71,0,0,0,2.83,9Z"/><path class="b" d="M201.83,426.2a50.05,50.05,0,0,0,0,65,33.91,33.91,0,0,0,50,0,50,50,0,0,0,0-65,33.93,33.93,0,0,0-50,0Z"/><path class="c" d="M213.44,480.94a18.41,18.41,0,0,0,26.81,0,34.54,34.54,0,0,0,0-44.45,18.41,18.41,0,0,0-26.81,0,34.51,34.51,0,0,0,0,44.45Z"/><path class="b" d="M306.09,445.38l22.68,6.55a26.81,26.81,0,0,1,16,12.5,22.94,22.94,0,0,1,0,23.51,25.25,25.25,0,0,1-20.51,13.51,43.57,43.57,0,0,1-39-13.51l11.41-10.5A28,28,0,0,0,322.54,486a9.72,9.72,0,0,0,8.69-5.65,7.44,7.44,0,0,0,.16-8.1,11.32,11.32,0,0,0-6.86-5.42l-22.5-6.5a21.21,21.21,0,0,1-11-33.47h0a29,29,0,0,1,18.06-10.73,44.15,44.15,0,0,1,36.82,10.06l-10.15,11.72a28.64,28.64,0,0,0-24-6.5,13.48,13.48,0,0,0-8.5,5h0l.05-.06h0l-.05.06a5.66,5.66,0,0,0-.94,5.22A5.73,5.73,0,0,0,306.09,445.38Z"/><path class="d" d="M285.2,332q-3.82,4.4-8,8.42a67.76,67.76,0,0,1-22,11.83,73.86,73.86,0,0,1-35.72-1.45,28.34,28.34,0,0,1-17.19-14.11,239.87,239.87,0,0,1-.63-220.3,31.9,31.9,0,0,1,20-16.22,87.26,87.26,0,0,1,19.06-3,71.09,71.09,0,0,1,40.58,12.4,5.66,5.66,0,0,1,1.66,7.6l-29.8,49.6a5.67,5.67,0,0,1-7.58,2.05l-16-8.74a5.68,5.68,0,0,0-8.4,5V284.36a5.67,5.67,0,0,0,8.84,4.7l9-6a5.65,5.65,0,0,1,7.26.78L285,324.32A5.68,5.68,0,0,1,285.2,332Z"/></svg>