<svg xmlns="http://www.w3.org/2000/svg" viewBox="0 0 454.54 563.96"><defs><style>.a,.c{fill:#0c479d;}.a{stroke:#0c479d;}.b{fill:#fff;}.d{fill:#000;}</style></defs><title>G3-1 korkortonline.se</title><rect class="a" x="0.5" y="0.5" width="453.54" height="562.96"/><rect class="b" x="0.5" y="0.5" width="453.54" height="562.96" rx="28.35"/><path class="c" d="M14.67,28.85V535.11a14.17,14.17,0,0,0,14.18,14.18H425.7a14.17,14.17,0,0,0,14.17-14.18V28.85A14.17,14.17,0,0,0,425.7,14.67H28.85A14.17,14.17,0,0,0,14.67,28.85Z"/><rect class="b" x="85.54" y="85.54" width="283.47" height="283.46"/><path class="d" d="M174.32,193.26H165l-9.61-18.41h-5.06v18.41H142V147.9h17.61A13.47,13.47,0,0,1,164.27,174l10,19.23Z"/><path class="d" d="M212.47,160.17H204.2v2.41a11.8,11.8,0,0,0-5.34-2.41,14,14,0,0,0-7.74.54,15.89,15.89,0,0,0-8,7.73,24,24,0,0,0,0,16.81,15.31,15.31,0,0,0,9.34,8.27,14.62,14.62,0,0,0,11.74-2.4v2.14h8.27Z"/><path class="d" d="M253,160.17V147.9h-8.27v14.68a11.8,11.8,0,0,0-5.34-2.41,14,14,0,0,0-7.74.54,15.89,15.89,0,0,0-8,7.73,24,24,0,0,0,0,16.81,15.31,15.31,0,0,0,9.34,8.27,14.62,14.62,0,0,0,11.74-2.4v2.14H253Z"/><path class="d" d="M262.62,151.64a5.21,5.21,0,1,1,5.2,5.2A5.2,5.2,0,0,1,262.62,151.64Z"/><rect class="d" x="263.69" y="160.17" width="8.27" height="33.08"/><path class="d" d="M305.57,161.51a16,16,0,0,0-16,0,16.85,16.85,0,0,0-7.74,9.6,23.52,23.52,0,0,0,.26,10.94,16.71,16.71,0,0,0,7.48,9.61,16.09,16.09,0,0,0,16,0,16.69,16.69,0,0,0,7.47-9.61,23.52,23.52,0,0,0,.27-10.94A16.89,16.89,0,0,0,305.57,161.51Z"/><path class="b" d="M151.49,432.63a29.51,29.51,0,0,0-21-16,55.83,55.83,0,0,0-17.5,0,29.93,29.93,0,0,0-21.51,16,26.13,26.13,0,0,0,0,22,29.92,29.92,0,0,0,21.51,16,52.48,52.48,0,0,0,16.5,0,63.9,63.9,0,0,1-27,31h22a92.73,92.73,0,0,0,22.51-30,62.48,62.48,0,0,0,6.5-24.51A31.38,31.38,0,0,0,151.49,432.63Z"/><path class="b" d="M231.27,455.46a17.42,17.42,0,0,1,5,5,26.85,26.85,0,0,1,.5,27.51,30.2,30.2,0,0,1-19.51,13.51,50.64,50.64,0,0,1-19,0A30.2,30.2,0,0,1,178.75,488a26.85,26.85,0,0,1,.5-27.51,17.51,17.51,0,0,1,5-5,23.14,23.14,0,0,1-5-14,23.58,23.58,0,0,1,12.51-22,38.1,38.1,0,0,1,32,0,23.06,23.06,0,0,1,12.51,22A24.22,24.22,0,0,1,231.27,455.46Z"/><path class="c" d="M201.76,464h12a11.27,11.27,0,0,1,3.5.5,11.64,11.64,0,0,1,6,4.51,10.51,10.51,0,0,1,.5,10.5,16,16,0,0,1-10.5,7,29.12,29.12,0,0,1-11,0,16,16,0,0,1-10.5-7,10.51,10.51,0,0,1,.5-10.5,11.64,11.64,0,0,1,6-4.51A10.63,10.63,0,0,1,201.76,464Z"/><path class="c" d="M201.26,448h12.51a7.13,7.13,0,0,0,7.5-7,8.36,8.36,0,0,0-4.5-8,21.39,21.39,0,0,0-18,0,8.36,8.36,0,0,0-4.5,8,6.88,6.88,0,0,0,7,7Z"/><polyline class="b" points="280.29 521.67 280.29 482.66 264.78 482.66 264.78 521.67 280.29 521.67"/><polygon class="b" points="305.05 432.13 305.05 416.63 365.08 416.63 365.08 430.63 335.56 501.67 318.77 501.67 347.66 432.13 305.05 432.13"/><path class="c" d="M138,439.64a15.24,15.24,0,0,0-11-8,32.25,32.25,0,0,0-11,0,15.22,15.22,0,0,0-11,8,10.1,10.1,0,0,0,0,8.5,15.22,15.22,0,0,0,11,8,32.25,32.25,0,0,0,11,0,15.24,15.24,0,0,0,11-8A10.1,10.1,0,0,0,138,439.64Z"/><path class="b" d="M150.31,166.58V156.17h9.33a5.21,5.21,0,1,1,0,10.41Z"/><path class="b" d="M204.2,180.45a7.58,7.58,0,0,1-5.61,5.34,5.89,5.89,0,0,1-4.8-1.07,9.66,9.66,0,0,1-3.47-6.14,13.7,13.7,0,0,1,0-3.73,9.66,9.66,0,0,1,3.47-6.14,5.89,5.89,0,0,1,4.8-1.07A7.58,7.58,0,0,1,204.2,173Z"/><path class="b" d="M244.75,180.45a7.58,7.58,0,0,1-5.61,5.34,5.89,5.89,0,0,1-4.8-1.07,9.71,9.71,0,0,1-3.47-6.14,13.7,13.7,0,0,1,0-3.73,9.71,9.71,0,0,1,3.47-6.14,5.89,5.89,0,0,1,4.8-1.07,7.58,7.58,0,0,1,5.61,5.34Z"/><path class="b" d="M297.57,185.52a6.32,6.32,0,0,0,3.73-1.07,9.14,9.14,0,0,0,3.74-4.53,10.86,10.86,0,0,0,0-6.67,9.12,9.12,0,0,0-3.74-4.54,7.05,7.05,0,0,0-7.47,0,9.1,9.1,0,0,0-3.73,4.54,10.86,10.86,0,0,0,0,6.67,9.12,9.12,0,0,0,3.73,4.53A6.38,6.38,0,0,0,297.57,185.52Z"/><polygon class="d" points="146.39 244.28 180.5 244.28 180.5 255.65 157.76 255.65 157.76 268.12 176.84 268.12 176.84 279.5 157.76 279.5 157.76 306.64 146.39 306.64 146.39 269.96 146.39 244.28"/><polygon class="d" points="211.5 306.64 200.13 306.64 200.13 244.28 214.43 244.28 227.27 261.89 240.11 244.28 254.42 244.28 254.42 306.64 243.05 306.64 243.05 259.56 227.27 281.19 211.5 259.56 211.5 306.64"/><polygon class="d" points="316.54 244.28 289.83 280.96 305.77 280.96 305.77 272.53 317.14 266.66 317.14 280.96 325.21 280.96 325.21 291.97 317.14 291.97 317.14 306.64 305.77 306.64 305.77 291.97 274.96 291.97 274.96 282.06 302.47 244.28 316.54 244.28"/></svg>