<svg xmlns="http://www.w3.org/2000/svg" viewBox="0 0 454.54 454.54"><defs><style>.a,.c{fill:#0c479d;}.a{stroke:#0c479d;}.b{fill:#fff;}.d{fill:#000;}.e{fill:none;}</style></defs><title>G6-1 korkortonline.se</title><rect class="a" x="0.5" y="0.5" width="453.54" height="453.54"/><path class="b" d="M28.85.5H425.7A28.34,28.34,0,0,1,454,28.85V425.7A28.34,28.34,0,0,1,425.7,454H28.85A28.34,28.34,0,0,1,.5,425.7V28.85A28.35,28.35,0,0,1,28.85.5Z"/><path class="c" d="M28.85,14.67H425.7a14.18,14.18,0,0,1,14.17,14.18V425.7a14.18,14.18,0,0,1-14.17,14.17H28.85A14.17,14.17,0,0,1,14.67,425.7V28.85A14.18,14.18,0,0,1,28.85,14.67Z"/><rect class="b" x="85.54" y="85.54" width="283.46" height="283.46"/><path class="d" d="M167.27,146H197.7a5.7,5.7,0,0,1,4,1.66l2.76,2.77a3.31,3.31,0,0,0,4.68,0l.66-.67a3.3,3.3,0,0,0,0-4.68l-5-5a5.7,5.7,0,0,0-4-1.66H133.71a5.66,5.66,0,0,0-4,1.66l-5,5a3.31,3.31,0,0,0,0,4.68l.67.67a3.3,3.3,0,0,0,4.67,0l2.77-2.77a5.67,5.67,0,0,1,4-1.66Z"/><path class="d" d="M226.33,267.9a3.79,3.79,0,0,0,3.78-3.78V177.29a14.17,14.17,0,0,0-8-11.44A52.13,52.13,0,0,0,211.21,163a235.46,235.46,0,0,0-43.94-3.78A235.46,235.46,0,0,0,123.33,163a52.29,52.29,0,0,0-10.86,2.83,14.18,14.18,0,0,0-8,11.44v86.83a3.77,3.77,0,0,0,3.78,3.78h.94a1.89,1.89,0,0,1,1.89,1.89V284a2.36,2.36,0,0,0,2.36,2.36h8.43a.94.94,0,0,1,.82.48.93.93,0,0,1,0,.95,11.34,11.34,0,0,0,7.77,17,8,8,0,0,1,8,8v1.42a3.77,3.77,0,0,1-3.78,3.78h-27.4a3.79,3.79,0,0,0-3.78,3.78v5.67a3.79,3.79,0,0,0,3.78,3.78H344a3.77,3.77,0,0,0,3.78-3.78V117.67a3.76,3.76,0,0,0-3.78-3.78H228.22a3.77,3.77,0,0,0-2.68,1.1,3.82,3.82,0,0,0-1.1,2.68v5.15a3.77,3.77,0,0,0,3.32,3.75l94.93,11.48A3.78,3.78,0,0,1,326,141.8v136a3.79,3.79,0,0,1-3.78,3.78H239.56a3.77,3.77,0,0,0-3.78,3.78V314.2A3.79,3.79,0,0,1,232,318H199.87a3.79,3.79,0,0,1-3.78-3.78v-1.42a8,8,0,0,1,8-8,11.33,11.33,0,0,0,7.77-17,1,1,0,0,1,0-.95.94.94,0,0,1,.82-.48h8.43a2.36,2.36,0,0,0,1.67-.69,2.4,2.4,0,0,0,.69-1.67V269.79a1.91,1.91,0,0,1,1.89-1.89Z"/><path class="d" d="M287.74,159.24A21.73,21.73,0,1,0,266,181,21.73,21.73,0,0,0,287.74,159.24Z"/><path class="e" d="M227.27,204"/><path class="e" d="M227.27,250.58"/><path class="e" d="M250.58,227.27"/><path class="e" d="M204,227.27"/><path class="b" d="M176.25,213.1a3.79,3.79,0,0,1-3.78-3.78V189.48a3.77,3.77,0,0,1,3.78-3.78h37.32a3.77,3.77,0,0,1,3.78,3.78v19.84a3.79,3.79,0,0,1-3.78,3.78Z"/><path class="b" d="M158.3,213.1a3.77,3.77,0,0,0,3.77-3.78V189.48a3.76,3.76,0,0,0-3.77-3.78H121a3.77,3.77,0,0,0-3.78,3.78v19.84A3.79,3.79,0,0,0,121,213.1Z"/><path class="e" d="M148.88,303.33a3.8,3.8,0,0,1-2.45,3.08,4.25,4.25,0,0,0-2.78,4v3.8a3.79,3.79,0,0,0,3.78,3.78h39.68a3.77,3.77,0,0,0,3.78-3.78v-3.8a4.25,4.25,0,0,0-2.78-4,3.78,3.78,0,0,1-2.44-3.08,3.78,3.78,0,0,0-3.75-3.3H152.63A3.76,3.76,0,0,0,148.88,303.33Z"/><circle class="b" cx="132.31" cy="243.33" r="7.56"/><path class="b" d="M174.86,172.47a7.59,7.59,0,1,0-7.59,7.58A7.59,7.59,0,0,0,174.86,172.47Z"/><circle class="b" cx="202.23" cy="243.33" r="7.56"/><path class="b" d="M283,159.24a17,17,0,1,0-17,17A17,17,0,0,0,283,159.24Z"/><line class="e" x1="265.54" y1="145.54" x2="266.48" y2="145.54"/><path class="d" d="M265.54,145.54a1.88,1.88,0,0,0-1.89,1.89v13.93a1.9,1.9,0,0,0,3.23,1.34l7.64-7.65a1.9,1.9,0,0,0,0-2.67l-.67-.67a1.9,1.9,0,0,0-2.67,0L270,152.9a1,1,0,0,1-1,.21,1,1,0,0,1-.59-.88v-4.8a1.88,1.88,0,0,0-1.89-1.89Z"/></svg>