<svg xmlns="http://www.w3.org/2000/svg" viewBox="0 0 842.18 842.18"><defs><style>.a,.c{fill:#0c479d;}.a{stroke:#0c479d;}.b{fill:#fff;}.d{fill:#000;}</style></defs><title>G7-1 korkortonline.se</title><rect class="a" x="0.5" y="0.5" width="841.18" height="841.18"/><path class="b" d="M51,.5H791.21A50.47,50.47,0,0,1,841.68,51V791.21a50.46,50.46,0,0,1-50.47,50.47H51A50.47,50.47,0,0,1,.5,791.21V51A50.47,50.47,0,0,1,51,.5Z"/><path class="c" d="M51,25.74H791.21A25.23,25.23,0,0,1,816.45,51V791.21a25.27,25.27,0,0,1-25.24,25.24H51a25.23,25.23,0,0,1-25.23-25.24V51A25.22,25.22,0,0,1,51,25.74Z"/><rect class="b" x="158.22" y="158.22" width="525.74" height="525.74"/><path class="d" d="M420.18,234.32l-176,21.29a7,7,0,0,0-6.17,7V582.32a7,7,0,0,0,7,7H643.65a7,7,0,0,1,7,7v10.51a7,7,0,0,1-7,7h-439a7,7,0,0,1-7-7v-389a7,7,0,0,1,7-7H419.34a7,7,0,0,1,7,7v9.55A7,7,0,0,1,420.18,234.32Z"/><path class="d" d="M613,574.43c-.22.82-.46,1.63-.73,2.44a10.5,10.5,0,0,1-10,7.2h-18a10.5,10.5,0,0,1-10-7.2c-.27-.81-.51-1.62-.72-2.44V558.66H440.37v15.77c-.22.82-.46,1.63-.72,2.44a10.52,10.52,0,0,1-10,7.2h-18a10.52,10.52,0,0,1-10-7.2c-.27-.81-.51-1.62-.72-2.44V558.66H385.17a7,7,0,0,1-7-7V471l9.63-122.68V315.07a19.29,19.29,0,0,1,19.28-19.28H606.85a19.29,19.29,0,0,1,19.28,19.28v33.29L635.77,471v80.61a7,7,0,0,1-7,7H613Z"/><path class="b" d="M507,332.59H424.6a7,7,0,0,1-7-7v-6.13a7,7,0,0,1,7-7H589.33a7,7,0,0,1,7,7v6.13a7,7,0,0,1-7,7Z"/><path class="b" d="M507,449.13H404.16a7,7,0,0,1-7-7.56l6.68-85a7,7,0,0,1,7-6.46H603.09a7,7,0,0,1,7,6.46l6.68,85a7,7,0,0,1-7,7.56Z"/><path class="b" d="M448.25,519.23V508.71a7,7,0,0,0-7-7H402.69a7,7,0,0,0-7,7v10.52a7,7,0,0,0,7,7h38.56a7,7,0,0,0,7-7Z"/><path class="b" d="M565.67,519.23V508.71a7,7,0,0,1,7-7h38.55a7,7,0,0,1,7,7v10.52a7,7,0,0,1-7,7H572.68a7,7,0,0,1-7-7Z"/></svg>