<svg xmlns="http://www.w3.org/2000/svg" viewBox="0 0 454.54 454.54"><defs><style>.a,.c{fill:#0c479d;}.a{stroke:#0c479d;}.b{fill:#fff;}.d{fill:#000;}.e{fill:none;}</style></defs><title>G8-1 korkortonline.se</title><rect class="a" x="0.5" y="0.5" width="453.54" height="453.54"/><path class="b" d="M28.85.5H425.7A28.34,28.34,0,0,1,454,28.85V425.7A28.34,28.34,0,0,1,425.7,454H28.85A28.34,28.34,0,0,1,.5,425.7V28.85A28.35,28.35,0,0,1,28.85.5Z"/><path class="c" d="M28.85,14.67H425.7a14.18,14.18,0,0,1,14.17,14.18V425.7a14.18,14.18,0,0,1-14.17,14.17H28.85A14.17,14.17,0,0,1,14.67,425.7V28.85A14.18,14.18,0,0,1,28.85,14.67Z"/><rect class="b" x="85.54" y="85.54" width="283.46" height="283.46"/><path class="d" d="M273.94,327.25,240.7,269.66v-29A461.3,461.3,0,0,0,306.76,235l18,29.32H336.2l-6.13-32.14,7.62-4.95-7.62-4.94,6.13-32.15H324.72l-18,29.32a462.73,462.73,0,0,0-66.06-5.65v-29l33.24-57.58H248.42l-64.95,86.19H138.64a7.12,7.12,0,0,0-3.95,1.21l-16,10.81a2.13,2.13,0,0,0,0,3.52l16,10.81a7,7,0,0,0,3.95,1.21h44.83l64.95,86.2Z"/><path class="e" d="M85.54,85.54h0Z"/></svg>