<svg xmlns="http://www.w3.org/2000/svg" viewBox="0 0 454.54 511.16"><defs><style>.a,.c{fill:#0c479d;}.a{stroke:#0c479d;}.b{fill:#fff;}.d{fill:#dc0032;}</style></defs><title>G9-1 korkortonline.se</title><rect class="a" x="0.5" y="0.5" width="453.54" height="510.16"/><path class="b" d="M28.85.5H425.7A28.34,28.34,0,0,1,454,28.85V482.31a28.34,28.34,0,0,1-28.34,28.35H28.85A28.35,28.35,0,0,1,.5,482.31V28.85A28.35,28.35,0,0,1,28.85.5Z"/><path class="c" d="M28.85,14.67H425.7a14.18,14.18,0,0,1,14.17,14.18V482.31a14.18,14.18,0,0,1-14.17,14.18H28.85a14.19,14.19,0,0,1-14.18-14.18V28.85A14.18,14.18,0,0,1,28.85,14.67Z"/><rect class="b" x="85.54" y="85.54" width="283.46" height="340.08"/><path class="d" d="M273.91,181.16a18.08,18.08,0,0,0-18.07-18.08H240.67v-17h10.68A59.66,59.66,0,0,0,261.47,140a24.5,24.5,0,0,0,2.62-2.27,2.87,2.87,0,0,0,.18-3.85c-1.42-1.71-2.82-3.42-4.22-5.14a20.11,20.11,0,0,0-6.4-3.51c-1.28-.42-2.56-.83-3.85-1.23h-10v-4.17H218.91v5H201.74a12,12,0,0,0-7.2,2.39L166.2,148.3a12.05,12.05,0,0,0-4.83,9.64v26.41h7.56v-5.93a19.6,19.6,0,0,1,5.48-10.17,41.25,41.25,0,0,1,3.51-3.09L208.86,146H218v17.12H201.09A18.1,18.1,0,0,0,183,181.16V386.09h90.9Z"/></svg>