<svg xmlns="http://www.w3.org/2000/svg" viewBox="0 0 454.54 454.54"><defs><style>.a,.c{fill:#0c479d;}.a{stroke:#0c479d;}.b{fill:#fff;}.d{fill:#000;}</style></defs><title>H12-1 korkortonline.se</title><rect class="a" x="0.5" y="0.5" width="453.54" height="453.54"/><path class="b" d="M28.85.5H425.7A28.34,28.34,0,0,1,454,28.85V425.7A28.34,28.34,0,0,1,425.7,454H28.85A28.34,28.34,0,0,1,.5,425.7V28.85A28.35,28.35,0,0,1,28.85.5Z"/><path class="c" d="M28.85,14.67H425.7a14.18,14.18,0,0,1,14.17,14.18V425.7a14.18,14.18,0,0,1-14.17,14.17H28.85A14.17,14.17,0,0,1,14.67,425.7V28.85A14.18,14.18,0,0,1,28.85,14.67Z"/><rect class="b" x="85.54" y="85.54" width="283.46" height="283.46"/><path class="d" d="M94.09,269.53v16.06h3.32a9,9,0,1,0,4.72-7.43v-8.63h101.1a28.82,28.82,0,1,1,57.64,0h79.84a12.77,12.77,0,0,0,12.76-12.75V171.29a13.23,13.23,0,0,0-10.17-12.86,500.11,500.11,0,0,0-228.83-.74,12.28,12.28,0,0,0-9.51,12v82.86a23.28,23.28,0,0,0,1.42,8.51h-17v8.5Z"/><path class="d" d="M256.61,269.53a24.57,24.57,0,1,0-24.56,24.57A24.56,24.56,0,0,0,256.61,269.53Z"/><path class="b" d="M241,269.53a9,9,0,1,0-9,9A9,9,0,0,0,241,269.53Z"/><path class="b" d="M243.39,160.87a4.27,4.27,0,0,0-4.26,4.25v25.51a4.27,4.27,0,0,0,4.26,4.26H319a4.26,4.26,0,0,0,4.25-4.26V165.12a4.27,4.27,0,0,0-4.25-4.25Z"/><path class="b" d="M141.34,190.63a4.25,4.25,0,0,0,4.25,4.26H171.1a4.25,4.25,0,0,0,4.25-4.26V165.12a4.2,4.2,0,0,0-1.24-3,4.25,4.25,0,0,0-3-1.25H145.59a4.25,4.25,0,0,0-4.25,4.25Z"/><rect class="d" x="95.04" y="295.04" width="264.57" height="23.62"/></svg>