<svg xmlns="http://www.w3.org/2000/svg" viewBox="0 0 454.54 454.54"><defs><style>.a,.c{fill:#0c479d;}.a{stroke:#0c479d;}.b{fill:#fff;}.d{fill:#000;}</style></defs><title>H15-1 korkortonline.se</title><rect class="a" x="0.5" y="0.5" width="453.54" height="453.54"/><path class="b" d="M28.85.5H425.7A28.34,28.34,0,0,1,454,28.85V425.7A28.34,28.34,0,0,1,425.7,454H28.85A28.34,28.34,0,0,1,.5,425.7V28.85A28.35,28.35,0,0,1,28.85.5Z"/><path class="c" d="M28.85,14.67H425.7a14.18,14.18,0,0,1,14.17,14.18V425.7a14.18,14.18,0,0,1-14.17,14.17H28.85A14.17,14.17,0,0,1,14.67,425.7V28.85A14.18,14.18,0,0,1,28.85,14.67Z"/><rect class="b" x="85.54" y="85.54" width="283.46" height="283.46"/><path class="d" d="M99.71,281.6a17.06,17.06,0,0,1,11.34,2.84,58,58,0,0,0,60.47,0,30.13,30.13,0,0,1,25.52,0,58,58,0,0,0,60.47,0,30.11,30.11,0,0,1,25.51,0,58,58,0,0,0,60.47,0,17.08,17.08,0,0,1,11.34-2.84V248.53a17,17,0,0,0-11.34,2.84,58,58,0,0,1-60.47,0,30.11,30.11,0,0,0-25.51,0,58,58,0,0,1-60.47,0,30.13,30.13,0,0,0-25.52,0,58,58,0,0,1-60.47,0,17,17,0,0,0-11.34-2.84Z"/><path class="d" d="M354.83,338.29a17.08,17.08,0,0,0-11.34,2.84,58,58,0,0,1-60.47,0,30.11,30.11,0,0,0-25.51,0,58,58,0,0,1-60.47,0,30.13,30.13,0,0,0-25.52,0,58,58,0,0,1-60.47,0,17.06,17.06,0,0,0-11.34-2.84V305.22a17.06,17.06,0,0,1,11.34,2.84,58,58,0,0,0,60.47,0,30.13,30.13,0,0,1,25.52,0,58,58,0,0,0,60.47,0,30.11,30.11,0,0,1,25.51,0,58,58,0,0,0,60.47,0,17.08,17.08,0,0,1,11.34-2.84Z"/><path class="d" d="M314.66,245.21A58,58,0,0,1,283,236.72a30.11,30.11,0,0,0-25.51,0,58,58,0,0,1-60.47,0,30.13,30.13,0,0,0-25.52,0,58,58,0,0,1-30.23,8.5l8.31-7.55a148.61,148.61,0,0,1,17.29-15.6,27.12,27.12,0,0,1,12.19-6.61l10.4-3.78,10.39-3.78a10.54,10.54,0,0,0,6.61-8l.7-6a3.46,3.46,0,0,0-.14-1.24,6.12,6.12,0,0,0-1.14-2,4.7,4.7,0,0,0-1.23-1c-.39-.22-.8-.42-1.21-.61l-7.36-2.8c-.71-.28-1.42-.53-2.14-.77a5,5,0,0,1-3.07-4.31,46,46,0,0,0-1.22-7.65,76.58,76.58,0,0,1-3-9.07,53.85,53.85,0,0,1,0-9l.47-3.78.48-3.78a16.62,16.62,0,0,0-1.89-11.34,29.46,29.46,0,0,1,4.57-31.39,12.69,12.69,0,0,1,2.33-2.06A51.63,51.63,0,0,1,213.29,95a66.68,66.68,0,0,1,33,3.72,27.22,27.22,0,0,1,4.94,2.56,28.77,28.77,0,0,1,11.38,15.94A158.42,158.42,0,0,1,267,149.79v4.49c0,.24,0,.49-.07.74a30.78,30.78,0,0,1-4.66,12.72l-8,14.18a13.86,13.86,0,0,0-1.42,6.61v6.62a7.8,7.8,0,0,0,2.11,5,12.84,12.84,0,0,0,2,1.48c.4.25.8.49,1.21.72q5.25,3.24,10.78,6L281.6,215a75.76,75.76,0,0,1,25,20.79l8,9.44Z"/></svg>