<svg xmlns="http://www.w3.org/2000/svg" viewBox="0 0 454.54 454.54"><defs><style>.a,.c{fill:#0c479d;}.a{stroke:#0c479d;}.b{fill:#fff;}.d{fill:#000;}</style></defs><title>H16-1 korkortonline.se</title><rect class="a" x="0.5" y="0.5" width="453.54" height="453.54"/><path class="b" d="M28.85.5H425.7A28.34,28.34,0,0,1,454,28.85V425.7A28.34,28.34,0,0,1,425.7,454H28.85A28.34,28.34,0,0,1,.5,425.7V28.85A28.35,28.35,0,0,1,28.85.5Z"/><path class="c" d="M28.85,14.67H425.7a14.18,14.18,0,0,1,14.17,14.18V425.7a14.18,14.18,0,0,1-14.17,14.17H28.85A14.17,14.17,0,0,1,14.67,425.7V28.85A14.18,14.18,0,0,1,28.85,14.67Z"/><rect class="b" x="85.54" y="85.54" width="283.46" height="283.46"/><path class="d" d="M238.15,191.58a13.46,13.46,0,0,0,4.85,9.69,20.28,20.28,0,0,1,3.9,3.26,65.79,65.79,0,0,1,9.49,12.59,89.42,89.42,0,0,1,8.51,15.61q1.22,3.2,2.31,6.43,2.18,6.9,4.57,13.73a7.36,7.36,0,0,1-1.32,8.11,3.51,3.51,0,0,1-2.41.81,5.69,5.69,0,0,1-5.42-3.58q-3.6-9.21-6.38-18.72a8.58,8.58,0,0,0-1.13-2.39,57,57,0,0,0-8.21-9.66A46.23,46.23,0,0,0,250.16,245a191,191,0,0,0,9,20.64,235.07,235.07,0,0,0,13.22,23.54,87.93,87.93,0,0,1-12.86,5.32,186.46,186.46,0,0,1,9.8,24.77,190.22,190.22,0,0,1,12.58-26.13q5.08-9.26,10.65-18.25a67.17,67.17,0,0,0,8.83-18.16,22.09,22.09,0,0,0,.77-11.26c-.43-2-1-3.94-1.57-5.87a8.38,8.38,0,0,1-5.33-.7,4.07,4.07,0,0,1-1.31-1.09,8.66,8.66,0,0,1-1.19-2.42q-.52-1.43-1.08-2.85a169.19,169.19,0,0,1-8.57-29.26,5,5,0,0,1,2-5.56,3.51,3.51,0,0,1,2.55-.74A3.46,3.46,0,0,1,290,198.3a84.9,84.9,0,0,1,6.61,9.87,14.85,14.85,0,0,0,4.33-10,53,53,0,0,0,.37-6.29,4.05,4.05,0,0,0-.44-2c-.37-1-.77-2-1.17-2.94a3.68,3.68,0,0,0-1-1.31,4.21,4.21,0,0,0-2.44-1,9.25,9.25,0,0,1-8.78-8.13q-.45-2.62-.84-5.26a43,43,0,0,1-.74-9,10.24,10.24,0,0,1,8.83-8.8,20,20,0,0,1,10,.89,9.66,9.66,0,0,1,1.91,1.06,13,13,0,0,1,4.46,7.47c.26,3,.48,6.06.63,9.09a38.15,38.15,0,0,0,2.47,8.77,4.8,4.8,0,0,0,2.5,2.66,44.63,44.63,0,0,1,6.53,3.43l-3.09-13a76,76,0,0,1,12.35-3.64,8.25,8.25,0,0,1,8.24,5.86q6.76,25.71,12.89,51.56a8.88,8.88,0,0,1-5.4,9.23q-5.31,1.56-10.68,2.93a21.9,21.9,0,0,1,.35,12.5,74.26,74.26,0,0,0-2.56,17.29,75.94,75.94,0,0,0,4.55,26.28,193.94,193.94,0,0,0,21.18,40.77l-16,9.41a327.17,327.17,0,0,1-18.43-29.75,172.2,172.2,0,0,1-12.56-38.64,423.72,423.72,0,0,0-23.93,42.22A234.31,234.31,0,0,0,280.27,346q-9.11-3.31-18.13-6.82,1-3.35,2.16-6.65a293.76,293.76,0,0,0-19.08-34.81,113.68,113.68,0,0,1-21.71-1.84,71.14,71.14,0,0,1-11.22,27.74c-.77,1.13-1.52,2.26-2.26,3.4a24.19,24.19,0,0,0-3,6.68,52.81,52.81,0,0,1-2.87,8.56q-4.2-1.27-8.34-2.7Q199.5,329,203,318.36a239.25,239.25,0,0,0,5.93-25.5c.46-2.31.94-4.61,1.46-6.91a287.43,287.43,0,0,0,6-51.23q-4.48,7.86-8.94,15.75-2.47,4.07-4.58,8.34a34.42,34.42,0,0,1-5.11,6.42,3.79,3.79,0,0,0-1.25,2.74q-1.28,5.58-2.41,11.18a6.09,6.09,0,0,1-.82,2.26,3.78,3.78,0,0,1-.5.56,3.34,3.34,0,0,1-1.14.66,7.91,7.91,0,0,1-3.49,0,54,54,0,0,1-8.59-2.26c.25,3.81.37,7.63.34,11.45q.34,9.48.81,18.94a37.15,37.15,0,0,0,4.06,15q3.39,6,7.23,11.74-4.5,3-9.07,5.91-5.94-8.14-11.08-16.83a11.83,11.83,0,0,1-2.05-4.79q-1.68-7.38-3.1-14.83-4,7.19-7.8,14.5-4.7,10.43-8.42,21.24c-3.45-.87-6.86-1.87-10.24-3a68.16,68.16,0,0,1,2.41-7.1q2.89-6.54,5.38-13.26a193.34,193.34,0,0,0,7.34-19.88,82.94,82.94,0,0,0,1.51-10.86q-5.68,3.12-11.46,6.05a14.44,14.44,0,0,0-4.52,3.17,7.12,7.12,0,0,1-4.39,2.7,2.41,2.41,0,0,1-2.7-3,11.72,11.72,0,0,1,5.14-7.41,50.07,50.07,0,0,0,6.74-4.64q4.07-3.51,7.8-7.38a64.27,64.27,0,0,1,7.64-7.48,9.69,9.69,0,0,0,2.74-3.57,2.85,2.85,0,0,0-1.3-3.59c-.8-.39-1.61-.78-2.42-1.15a4.27,4.27,0,0,1-2.38-3.18,20.14,20.14,0,0,1-.76-5.73,24.06,24.06,0,0,1-.07-3.29,11.55,11.55,0,0,1,.3-3.61,9.24,9.24,0,0,1,5.76-6.7,15.08,15.08,0,0,1,10.53,0,7.56,7.56,0,0,1,4.65,4.94,18.67,18.67,0,0,1,1.34,7,26.58,26.58,0,0,1-1.58,10,4.75,4.75,0,0,0,1.81,6q3.12,1.68,6.25,3.35c.83-2.19,1.62-4.4,2.37-6.61q.94-2.69,1.69-5.43a5.09,5.09,0,0,1,1.71-3.36,79.7,79.7,0,0,0,5.38-7,99.66,99.66,0,0,0,5.27-9.55c.59-1.38,1.12-2.79,1.6-4.21a78.14,78.14,0,0,1,14.76-27.79,44.69,44.69,0,0,0,4.74-6.23,4.18,4.18,0,0,0,.4-.89,8.29,8.29,0,0,0-.17-5.3,6,6,0,0,0-2.28-2,9.68,9.68,0,0,1-4.52-5.69,18.57,18.57,0,0,1-.67-8.08,17.38,17.38,0,0,0-.05-6.47,7.34,7.34,0,0,1,.95-5.77,16.22,16.22,0,0,1,15.71-6.24A16,16,0,0,1,243.46,171a46.84,46.84,0,0,0,4.9,10,16.41,16.41,0,0,0,5,5.52.69.69,0,0,1,.13.11.34.34,0,0,1,.05.22.23.23,0,0,1-.06.12.49.49,0,0,1-.14.11l-.12,0A79.63,79.63,0,0,1,238.15,191.58Z"/><path class="d" d="M153.29,168.33a32.63,32.63,0,0,1,10.33-25.68,97.56,97.56,0,0,1,44-21.62,312.34,312.34,0,0,1,69.15-7.64H320V99.15H99.15V354.56H115.1v-32a219.25,219.25,0,0,1,5.33-52,76.33,76.33,0,0,1,73.84-57.18l0-12.78a52.61,52.61,0,0,1-31.4-11.09A28.24,28.24,0,0,1,153.29,168.33Z"/></svg>