<svg xmlns="http://www.w3.org/2000/svg" viewBox="0 0 454.54 454.54"><defs><style>.a,.c{fill:#0c479d;}.a{stroke:#0c479d;}.b{fill:#fff;}.d{fill:#000;}</style></defs><title>H17-1 korkortonline.se</title><rect class="a" x="0.5" y="0.5" width="453.54" height="453.54"/><path class="b" d="M28.85.5H425.7A28.34,28.34,0,0,1,454,28.85V425.7A28.34,28.34,0,0,1,425.7,454H28.85A28.34,28.34,0,0,1,.5,425.7V28.85A28.35,28.35,0,0,1,28.85.5Z"/><path class="c" d="M28.85,14.67H425.7a14.18,14.18,0,0,1,14.17,14.18V425.7a14.18,14.18,0,0,1-14.17,14.17H28.85A14.17,14.17,0,0,1,14.67,425.7V28.85A14.18,14.18,0,0,1,28.85,14.67Z"/><rect class="b" x="85.54" y="85.54" width="283.46" height="283.46"/><path class="d" d="M285.58,183.38a68.32,68.32,0,0,1,3.07-8.23,5.63,5.63,0,0,0,5.51-3,23.18,23.18,0,0,0,3.33-14.8,14.33,14.33,0,0,0-5-9.82,14.08,14.08,0,0,0-11.69-2.48,31.62,31.62,0,0,0-16.74,4.1l2.59,3.3a32,32,0,0,1,10-5.71,10.62,10.62,0,0,0-1.35,2.53,21.6,21.6,0,0,0-1.08,3.6,16.33,16.33,0,0,0-.32,4.88,29.34,29.34,0,0,0,2.62,8.87,3.26,3.26,0,0,1,.26,1.92,8.26,8.26,0,0,1-1.55,3.79A15.87,15.87,0,0,1,285.58,183.38Z"/><path class="d" d="M218.64,155.23a5.19,5.19,0,0,0,.91-1,34.69,34.69,0,0,0,2.08-4.56,32,32,0,0,0-.27-22.65,13.08,13.08,0,0,0-6.85-6.47,14.87,14.87,0,0,0-14,.31,46.29,46.29,0,0,0-20.51,6l3.66,4.57a39.41,39.41,0,0,1,13.6-7.81,13.09,13.09,0,0,0-2.93,7,19.07,19.07,0,0,0,1.88,9.66,18.27,18.27,0,0,1,2.27,5.87,20.13,20.13,0,0,1-1.09,7,18.08,18.08,0,0,1,10.49,10.32c1.33-2.49,2.64-5,4-7.49A6.23,6.23,0,0,0,218.64,155.23Z"/><path class="d" d="M272.15,222.3a22.76,22.76,0,0,1-1.48-4.25,39.46,39.46,0,0,1-1.05-9.38A55.16,55.16,0,0,0,272.71,219a31.87,31.87,0,0,0,7.52,11.54,8.11,8.11,0,0,0,4.33,2.54,3.52,3.52,0,0,0,3.48-1.46c.1-.18.21-.36.31-.55q3.93-7.42,7.29-15.13a106.28,106.28,0,0,0,3.77-11.7,32.93,32.93,0,0,0,.4-11,15.33,15.33,0,0,0-1.55-5.39.88.88,0,0,0-.12-.17,3.48,3.48,0,0,0-4.18-.78,2,2,0,0,0-.79.72q-3,5.66-5.95,11.34a61.73,61.73,0,0,0-3-11.67,22,22,0,0,0-5.7-9.05,10.92,10.92,0,0,0-9.19-3,11.31,11.31,0,0,0-6.31,4l4.23-15.3-13-4.05a7.34,7.34,0,0,0-8,4.75l-15.45,55.89a7.6,7.6,0,0,0,5.43,9.75l13.36,3c0,1.16,0,2.32,0,3.48q.07,3,.35,6.07a50.75,50.75,0,0,0,1.81,9.93l1,4.07c.3,1.59.54,3.19.71,4.8a33.81,33.81,0,0,1-.31,5.6,48.41,48.41,0,0,1-1.43,6.95q-1.08,3.82-2.28,7.62A102.6,102.6,0,0,1,244,295.67a120.93,120.93,0,0,1-6.21,12.16,231.67,231.67,0,0,0-8.17-22.32c-.06-.16-.13-.32-.2-.48q-5.57-14.4-12.52-28.19l-.19-.38a97,97,0,0,0-12.93-20.35l3.59-8.84a59.21,59.21,0,0,1-13.67-21.58A31.73,31.73,0,0,1,191.4,191a91.36,91.36,0,0,0,2.94,8.83,45.77,45.77,0,0,0,11.77,18.32,7.14,7.14,0,0,0,2.16,1.35,4,4,0,0,0,4.32-1.81q3.16-5.21,6-10.61c.21-.41.41-.83.59-1.25a128.3,128.3,0,0,0,5.59-16.66c.11-.49.22-1,.31-1.49a38.41,38.41,0,0,0-.25-16.7,2.81,2.81,0,0,0-.9-1.3,3.67,3.67,0,0,0-4.25-.28l-.28.22a8.54,8.54,0,0,0-1.3,1.69l-7.44,11.77a44.2,44.2,0,0,0-6-19.68q-.84-1.47-1.77-2.91a10.49,10.49,0,0,0-16.61-1.11l3.68-14.24L174.38,142a8.63,8.63,0,0,0-6.35.92,7.92,7.92,0,0,0-1.91,1.69,7.55,7.55,0,0,0-1.67,3.13l-15.81,59c0,.22-.09.43-.12.65a8.78,8.78,0,0,0,6.75,9.66l16.53,3.31-.32,1.55-.16.87c-.43,2.51-.79,5-1.1,7.57l-.06,1.1,0,1.36.07,1.55.11,2.09.25,1.94.22,1.34c.23,1.27.52,2.53.87,3.77l.62,2.6.39,2.27.58,3.55.06,2.7-.12,1.94-.21,2.59-.37,2-.59,2.06-.82,2.73-.89,2.39-1.58,3.75-1.21,2.78-1.15,2.33-2.11,4.36-3.49,6.81L158,293.63l-3.81,6.67-3.48,5.89-4.78,7.31-5.11,7.79L133.56,332l16.38,13.2,3-4.35,7.39-11q5.41-7.72,10.27-15.82l3.12-5.29q6.69-10.74,12.44-22,5-9.93,9.59-20a135.15,135.15,0,0,1,8.76,11.85l1.14,2a129.47,129.47,0,0,1,8.73,18.11l1.5,4.13q3.74,10.53,7,21.21l.42,1.42q2.56,9.33,5.16,18.65l11.48.09c1-1.68,2-3.36,3-5.06l3.14-5.65,4-7.49q5.18-9.6,9.91-19.42c.38-.77.77-1.54,1.16-2.31q3.72-8.16,7.07-16.49l.77-1.84q2.56-6.07,4.78-12.27,3.12,4.29,5.85,8.83l.57,1a115.69,115.69,0,0,1,6.37,12.75l1.19,2.65q3.74,8.53,7,17.27l.71,1.93q3.18,8.32,5.72,16.86l2.67,8.34,17-6.41Q318,328,315.05,319.2q-3.81-11.11-8.57-21.88-4.28-11-9.36-21.73-3.94-8-8.63-15.67a109.18,109.18,0,0,0-7.92-11.39L284.26,238a46.51,46.51,0,0,1-7.53-8,48.37,48.37,0,0,1-4.58-7.68Z"/></svg>