<svg xmlns="http://www.w3.org/2000/svg" viewBox="0 0 454.54 454.54"><defs><style>.a,.c{fill:#0c479d;}.a{stroke:#0c479d;}.b{fill:#fff;}.d{fill:#000;}</style></defs><title>H18-1 korkortonline.se</title><rect class="a" x="0.5" y="0.5" width="453.54" height="453.54"/><path class="b" d="M28.85.5H425.7A28.34,28.34,0,0,1,454,28.85V425.7A28.34,28.34,0,0,1,425.7,454H28.85A28.34,28.34,0,0,1,.5,425.7V28.85A28.35,28.35,0,0,1,28.85.5Z"/><path class="c" d="M28.85,14.67H425.7a14.18,14.18,0,0,1,14.17,14.18V425.7a14.18,14.18,0,0,1-14.17,14.17H28.85A14.17,14.17,0,0,1,14.67,425.7V28.85A14.18,14.18,0,0,1,28.85,14.67Z"/><rect class="b" x="85.54" y="85.54" width="283.46" height="283.46"/><path class="d" d="M88.92,137.44l112.52-18.5.08,1,1.82.62.36,23.84-26.49,1.8a22.8,22.8,0,0,0-18.81,24.23l-.09,39.08a29.7,29.7,0,0,0-3.9,9l-7.79,30.77a9.22,9.22,0,0,0,7,12.21l6.09,1.69.37,27.34,66.27-7.72,5.11,58.9,44.08-5.34a47.54,47.54,0,0,0-15.85-9.07,3.81,3.81,0,0,1-1.92-3.59L257.62,278a10.68,10.68,0,0,0-11.4-10.92l1.57,49.1a60.47,60.47,0,0,1-.29,7.37,17.69,17.69,0,0,1-2.09-7.25l-1.88-44.18a10.76,10.76,0,0,0-6.82-9.44l-.29-.1a25.66,25.66,0,0,0-8.59-.87l-20.62.82L199.72,241a29.86,29.86,0,0,1-2.06-6.31,130,130,0,0,0-6-16.71,13.4,13.4,0,0,0-8.32-6.3,2.12,2.12,0,0,1-.42-3.9,16.51,16.51,0,0,0,5.08-3.15,4.83,4.83,0,0,0,.85-1.06,11.06,11.06,0,0,0,1.53-5.12,22.2,22.2,0,0,0-.32-7.92l-.39-2.54a36.28,36.28,0,0,0-2-9.78,8.61,8.61,0,0,0-.58-1.08,13.21,13.21,0,0,0-7.17-5.3,14.6,14.6,0,0,0-17.75,8l0-9.44A18.9,18.9,0,0,1,177.46,150l30-2v-3.59l-.36-23.84,1.09-2.57L365,92.85V88.07L207.73,113.2l-.18-1.69a25.26,25.26,0,0,0-6.55,1.85l.07.86L88.92,132.65Z"/><path class="b" d="M162.11,196.48a29.77,29.77,0,0,0,6.72,9.9,1.5,1.5,0,0,1,.55,1v.08a1,1,0,0,1-.42.65,1.37,1.37,0,0,1-.75.12,2.17,2.17,0,0,1-.42-.11,14.07,14.07,0,0,0-5.7-.43l0-11.16Z"/></svg>