<svg xmlns="http://www.w3.org/2000/svg" viewBox="0 0 454.54 454.54"><defs><style>.a,.c{fill:#0c479d;}.a{stroke:#0c479d;}.b{fill:#fff;}.d{fill:#000;}</style></defs><title>H19-1 korkortonline.se</title><rect class="a" x="0.5" y="0.5" width="453.54" height="453.54"/><path class="b" d="M28.85.5H425.7A28.34,28.34,0,0,1,454,28.85V425.7A28.34,28.34,0,0,1,425.7,454H28.85A28.34,28.34,0,0,1,.5,425.7V28.85A28.35,28.35,0,0,1,28.85.5Z"/><path class="c" d="M28.85,14.67H425.7a14.18,14.18,0,0,1,14.17,14.18V425.7a14.18,14.18,0,0,1-14.17,14.17H28.85A14.17,14.17,0,0,1,14.67,425.7V28.85A14.18,14.18,0,0,1,28.85,14.67Z"/><rect class="b" x="85.54" y="85.54" width="283.46" height="283.46"/><path class="d" d="M337.72,285.62a90.86,90.86,0,0,0,13.48-16.55,79.36,79.36,0,0,1-3.31,14.1,25,25,0,0,1-4.85,8,25.55,25.55,0,0,1-7.11,3.72l-144,58.39-17.24.17,62.8-25.51c-.73-2.18-1.49-4.34-2.29-6.5l-79.23,32.16-14.29-.06,72.14-29.27q-4.87-11.92-10-23.74a150.51,150.51,0,0,0-8.46-16Q185.5,268.89,175,253.68a62.55,62.55,0,0,1-8-2.7,4.2,4.2,0,0,1-2.82-4.45A101.64,101.64,0,0,0,235,243.65l-2.54-12.17a95.56,95.56,0,0,1-39.94,7.57L247.71,186l1-.92-1,.84-41.09,32.18-24.66,20.12a95.68,95.68,0,0,1-21.77-5.71l-34.46,70.72,5.59,5.6-2.34,2.34-4.78-4.79-7.39,15.17-3.83-1.86,8-16.49-4.8-4.82,2.34-2.33,4,4,28-57.39-39.69,56.53,5.09,5-2.33,2.36-4.69-4.66-9.1,13-3.48-2.44,9.51-13.55-5.39-5.34,2.33-2.35,5,4.94L158,224.47q-4.81-14.82-8.47-30a11,11,0,0,0-.19,5.35,148.55,148.55,0,0,0,5.7,22.06,5.05,5.05,0,0,1,.37,1.59,3.33,3.33,0,0,1-1.75,2.87,3.71,3.71,0,0,1-2,.16,36.8,36.8,0,0,1-10-3.77,8.36,8.36,0,0,1-4.79-9.39,133.61,133.61,0,0,1,3.38-25.11A37.28,37.28,0,0,1,145,175.65a9.44,9.44,0,0,1,4.72-4,21.37,21.37,0,0,0,5.21-3,2.66,2.66,0,0,0,.23-4.25q-4.4-5-9.06-9.76a14.48,14.48,0,0,1-3.23-5.93,27.15,27.15,0,0,1,.93-15.63,11.3,11.3,0,0,1,6-5.75A23.77,23.77,0,0,1,169,128a13.78,13.78,0,0,1,5.48,6.86,71.87,71.87,0,0,1,3.37,12,11.22,11.22,0,0,1-5.38,11.35,5.32,5.32,0,0,0-3.21,3.29A3.65,3.65,0,0,0,171.4,166a85.33,85.33,0,0,0,30.46,6.94q18.78,1.77,37.66,2,8.13-.28,16.26-.33a12.18,12.18,0,0,1,3.81-1.91l95.53-84.09h6.43l-96,84.51a3.86,3.86,0,0,1,.08,4.61,9.13,9.13,0,0,1-2.54,2.08,10.92,10.92,0,0,1-4.41,1.47l-47.87,46q1.53,2.93,3.23,5.76a77.85,77.85,0,0,0,21.51-7.43l4.16,20q-8,3.41-16.33,6.08A216.35,216.35,0,0,1,236.62,280q5.56,15.24,10.15,30.83l66.06-26.81a16.43,16.43,0,0,0,6.37-4.78,63,63,0,0,0,6.71-9.35,39.68,39.68,0,0,1-1.51,11.57,7.57,7.57,0,0,1-3.95,5c-1.49.78-3,1.5-4.55,2.15l-67.62,27.44c.63,2.23,1.24,4.45,1.84,6.68l76.47-31.06A59.51,59.51,0,0,0,337.72,285.62Z"/><path class="b" d="M224,320.09l9.25-3.73q-3.55-8.88-7.92-17.41a92.71,92.71,0,0,0-11.79-20.66,30.25,30.25,0,0,0-8.13-7.12Q215.79,295.19,224,320.09Z"/><path class="b" d="M195.68,199.23a40.14,40.14,0,0,1-3.37-8.59,113.33,113.33,0,0,0,16.47-.84q17.58-2.33,34.91-6.24L203.92,214.7Q199.6,207.07,195.68,199.23Z"/></svg>