<svg xmlns="http://www.w3.org/2000/svg" viewBox="0 0 454.54 454.54"><defs><style>.a,.c{fill:#0c479d;}.a{stroke:#0c479d;}.b{fill:#fff;}.d{fill:#000;}.e{fill:none;}</style></defs><title>H21-1 korkortonline.se</title><rect class="a" x="0.5" y="0.5" width="453.54" height="453.54"/><path class="b" d="M28.85.5H425.7A28.34,28.34,0,0,1,454,28.85V425.7A28.34,28.34,0,0,1,425.7,454H28.85A28.34,28.34,0,0,1,.5,425.7V28.85A28.35,28.35,0,0,1,28.85.5Z"/><path class="c" d="M28.85,14.67H425.7a14.18,14.18,0,0,1,14.17,14.18V425.7a14.18,14.18,0,0,1-14.17,14.17H28.85A14.17,14.17,0,0,1,14.67,425.7V28.85A14.18,14.18,0,0,1,28.85,14.67Z"/><rect class="b" x="85.54" y="85.54" width="283.46" height="283.46"/><path class="d" d="M271.16,316a84,84,0,0,0,9.84-5,55.85,55.85,0,0,0,8.07-.37q9.44-1,18.82-2.55a225.45,225.45,0,0,0-18.86,15,170.4,170.4,0,0,0-14.55,14.27,14.84,14.84,0,0,1-3.24-1,88.41,88.41,0,0,1-11.64-6.22,40.61,40.61,0,0,1-9.21-7.24q3-1.08,6.14-1.9A108,108,0,0,0,271.16,316Z"/><path class="d" d="M289.74,300.09a170.81,170.81,0,0,1-61,21.27l-14.9,1.37-15.33.79-16.24-.11a57.06,57.06,0,0,0,11.48-9.3l3.37-3.95a40,40,0,0,0,6.47-11.27,54,54,0,0,0,1.87-7.52l1-6,16.23-1.81L235.23,282l8.53-1.34a111.35,111.35,0,0,0,14.37-3.69l15.73-5.63L286,266.05l12.17-6.13,11.61-6.29,9-6.3,11.6-10.7L339,224.87l-.58,4.43a107.63,107.63,0,0,1-15.77,41.12,74.59,74.59,0,0,1-20.18,21.29l-4.18,2.92Z"/><path class="d" d="M319.93,159.05a55.83,55.83,0,0,0-11.26-6.62L241.9,124.65l-1.05-.47a1.07,1.07,0,0,0-1.39.24,1.45,1.45,0,0,0-.42,1,1.49,1.49,0,0,0,.44,1l18.61,24.05,4,5.65a13.49,13.49,0,0,1,1.56,5.58,17,17,0,0,1-.87,5.83l-2.08,4.13-1.88,2.75q5.52-1,11.06-1.83a107,107,0,0,1,16.64-2q6.48-.36,13-.35c3.72.05,7.44.3,11.15.72a50.23,50.23,0,0,1,6.86,1.29,21.8,21.8,0,0,1,4.9,2.45,14.66,14.66,0,0,1,5.32,6.49,15.61,15.61,0,0,1,1.67,6.7,18.64,18.64,0,0,0,1.1-7.29,36.67,36.67,0,0,0-1.27-8.19,38.23,38.23,0,0,0-4.24-8.27,46,46,0,0,0-4.8-5A2.43,2.43,0,0,0,319.93,159.05Z"/><path class="d" d="M329.36,229.21A50.34,50.34,0,0,0,339,210.72a77.79,77.79,0,0,0,1.87-9.69,27.89,27.89,0,0,0-.18-8.26,39.53,39.53,0,0,0-2.35-8.53,31,31,0,0,0-2.64-5.12c0,1.22.09,2.44.13,3.65a52,52,0,0,1-1.22,9.21,32.88,32.88,0,0,1-3.24,7.8,25.34,25.34,0,0,1-3.7,5.32,37.88,37.88,0,0,1-6.57,6.08,86.72,86.72,0,0,1-7.16,5,52.88,52.88,0,0,1-8.42,4.28,41.15,41.15,0,0,1-7.31,2.56,47.67,47.67,0,0,1-9.24,1.82,48.87,48.87,0,0,1-6.84.3,1.33,1.33,0,0,1-1.17-1,1.86,1.86,0,0,1,.3-1.24c.48-.63,1-1.26,1.45-1.88L295,206.14l-45,3.67a38.83,38.83,0,0,1-10.82-.26,35.17,35.17,0,0,1-8.42-2.43q-5.42-2.6-10.74-5.38l-13.62,37.54q-6.6,1.64-13.1,3.72l-10.1,3.54a83.36,83.36,0,0,0-10,4.35,165.09,165.09,0,0,0-19,10.75c-3.36,2.29-6.68,4.63-9.95,7.05q-3.81,3-7.57,6.06l49-173.52-4.28-1.14L130.55,280.77A67.91,67.91,0,0,0,121,292.31c1.25.31,2.51.63,3.75,1,.59.15,1.18.32,1.76.5l5.74,1.79,1.75.56c1.45.48,2.88,1,4.3,1.59q4.95,2,9.84,4.23,2.05.92,4,2a14.15,14.15,0,0,1,1.8,1.16,1,1,0,0,1,.22.24,3,3,0,0,1,.27.42,1.15,1.15,0,0,1,0,.91,1.17,1.17,0,0,1-.67.64c-2.28.49-4.59.87-6.91,1.14q-5.16.85-10.27,2t-9.85,2.88c-2.34.74-4.67,1.53-7,2.39q-3,1-6,2.07a.89.89,0,0,0-.72.61.61.61,0,0,0,.77.55l49.84,3.59a22.31,22.31,0,0,0,4.4-.1,29.32,29.32,0,0,0,9-2.37,39.2,39.2,0,0,0,9.81-6.55,50.85,50.85,0,0,0,7.1-8.19,42.07,42.07,0,0,0,4.24-8.78,43.28,43.28,0,0,0,2.3-9,58,58,0,0,0,.52-7.45q18-1.57,35.94-4.14a179.13,179.13,0,0,0,53.66-18.42q6.84-3.46,13.47-7.34a72.94,72.94,0,0,0,9.94-6.28q3.81-3.12,7.47-6.41A87.62,87.62,0,0,0,329.36,229.21Z"/><path class="e" d="M241.46,227.33"/><path class="e" d="M213.09,227.22"/><path class="e" d="M227.21,213.51"/><path class="e" d="M227.34,241"/><path class="b" d="M157.18,279.88a6.45,6.45,0,1,0-6.44,6.45A6.44,6.44,0,0,0,157.18,279.88Z"/></svg>