<svg xmlns="http://www.w3.org/2000/svg" viewBox="0 0 454.54 454.54"><defs><style>.a,.c{fill:#0c479d;}.a{stroke:#0c479d;}.b{fill:#fff;}.d{fill:#000;}</style></defs><title>H25-1 korkortonline.se</title><rect class="a" x="0.5" y="0.5" width="453.54" height="453.54"/><path class="b" d="M28.85.5H425.7A28.34,28.34,0,0,1,454,28.85V425.7A28.34,28.34,0,0,1,425.7,454H28.85A28.34,28.34,0,0,1,.5,425.7V28.85A28.35,28.35,0,0,1,28.85.5Z"/><path class="c" d="M28.85,14.67H425.7a14.18,14.18,0,0,1,14.17,14.18V425.7a14.18,14.18,0,0,1-14.17,14.17H28.85A14.17,14.17,0,0,1,14.67,425.7V28.85A14.18,14.18,0,0,1,28.85,14.67Z"/><rect class="b" x="85.54" y="85.54" width="283.46" height="283.46"/><path class="d" d="M119.56,115.78v9.14l102.28,38.75h72.61a37.79,37.79,0,0,1,30.1,14.94,10,10,0,0,0,17.16-10.08A5.67,5.67,0,1,1,352.09,164a21.36,21.36,0,0,1-24.69,29.3l-13.31,31.58A121.8,121.8,0,0,1,325,232a78.34,78.34,0,0,1,10.88,9.62,81.22,81.22,0,0,1,9.22,11.84,54.1,54.1,0,0,1,0,59.18,81.76,81.76,0,0,1-9.22,11.84A78.34,78.34,0,0,1,325,334.07a121.69,121.69,0,0,1-11.38,7.39,97.88,97.88,0,0,1-11.6,5.66q-5.53,2.26-11.24,4.12a106,106,0,0,1-11.09,3q-5.3,1.13-10.65,2c-3.51.54-7,.92-10.6,1.13s-6.9.33-10.36.37-6.91-.16-10.36-.37-7.09-.59-10.6-1.13-7.12-1.21-10.65-2a106,106,0,0,1-11.09-3q-5.7-1.85-11.24-4.12a97.88,97.88,0,0,1-11.6-5.66,121.69,121.69,0,0,1-11.38-7.39,78.34,78.34,0,0,1-10.88-9.62A81.07,81.07,0,0,1,151,312.61a54.1,54.1,0,0,1,0-59.18,80.54,80.54,0,0,1,9.22-11.84A78.34,78.34,0,0,1,171.14,232,121.8,121.8,0,0,1,182,224.86l-13.05-31H119.56V338.77a15.12,15.12,0,0,1-15.12,15.12h-3.78V100.66h3.78a15.12,15.12,0,0,1,15.12,15.12Z"/><path class="b" d="M187.24,248.92a16.25,16.25,0,0,0-12.45-5.56,15,15,0,0,0-11.12,4.89,22.23,22.23,0,0,0,0,28.91,15,15,0,0,0,11.12,4.89,15.15,15.15,0,0,0,15.78-13.79v-7.11H174.79V268h9a8.33,8.33,0,0,1-8.83,7.29,8.13,8.13,0,0,1-6.17-2.6,15.44,15.44,0,0,1,0-19.87,8.09,8.09,0,0,1,6.06-2.6,9.39,9.39,0,0,1,7.59,3.58Z"/><path class="b" d="M207.38,254a12.07,12.07,0,0,0-2,.53,13.24,13.24,0,0,0-6.67,6.44,20,20,0,0,0,0,14,12.76,12.76,0,0,0,7.79,6.89,11.43,11.43,0,0,0,5.33,0,11.23,11.23,0,0,0,4.54-2.06v1.84h6.8V254h-6.8v2.1a9.85,9.85,0,0,0-3.62-1.87,5.86,5.86,0,1,0-5.41-.29Z"/><path class="d" d="M212.82,248.92a2.46,2.46,0,1,0-2.46,2.45A2.46,2.46,0,0,0,212.82,248.92Z"/><path class="d" d="M216.41,271a6.38,6.38,0,0,1-4.74,4.52,5,5,0,0,1-4.08-.9,8.16,8.16,0,0,1-2.92-5.18,10.94,10.94,0,0,1,0-3.13,8.14,8.14,0,0,1,2.92-5.17,5,5,0,0,1,4.08-.91,6.4,6.4,0,0,1,4.74,4.52Z"/><path class="b" d="M232.28,281.61V254h6.8v2.08A14.6,14.6,0,0,1,249.62,254v7a5.84,5.84,0,0,0-2.44-.44,7.21,7.21,0,0,0-4.05,1.13,8.41,8.41,0,0,0-4,6.07v13.79Z"/><path class="b" d="M262.87,254.49a13.2,13.2,0,0,0-6.67,6.44,20,20,0,0,0,0,14,12.77,12.77,0,0,0,7.78,6.89,11.47,11.47,0,0,0,5.34,0,11.23,11.23,0,0,0,4.54-2.06v1.84h6.8V243.82h-6.8v12.3a9.88,9.88,0,0,0-4.54-2.08A11.63,11.63,0,0,0,262.87,254.49Z"/><path class="d" d="M273.86,271a6.38,6.38,0,0,1-4.74,4.52,5,5,0,0,1-4.08-.9,8.16,8.16,0,0,1-2.92-5.18,10.94,10.94,0,0,1,0-3.13,8.14,8.14,0,0,1,2.92-5.17,5,5,0,0,1,4.08-.91,6.4,6.4,0,0,1,4.74,4.52Z"/><path class="b" d="M292.14,272.54a15,15,0,0,0,6.47,2.45,12,12,0,0,0,4.46-.22,2.35,2.35,0,0,0,1.37-.91,1.63,1.63,0,0,0-.92-2.53l-9.34-2.22a7.52,7.52,0,0,1-.66-14.13,16,16,0,0,1,4.88-1.11,19.86,19.86,0,0,1,13.35,3.47L307.93,263a15,15,0,0,0-9.32-2.31,5.44,5.44,0,0,0-2,.45,1.4,1.4,0,0,0,.23,2.54,5.25,5.25,0,0,0,.67.22l8.67,2a7.77,7.77,0,0,1,3.76,12.8,10.11,10.11,0,0,1-6.2,2.88,28.92,28.92,0,0,1-7.32,0,16.59,16.59,0,0,1-8-3.33Z"/><rect class="b" x="318.83" y="263.47" width="24.19" height="6.8"/><path class="b" d="M206.6,305.51a13.18,13.18,0,0,1,6.67,6.45,20,20,0,0,1,0,14,12.78,12.78,0,0,1-7.78,6.9,11.47,11.47,0,0,1-5.34,0,11.27,11.27,0,0,1-4.53-2.07v1.84h-6.8V294.84h6.8v12.3a9.83,9.83,0,0,1,4.53-2.07A11.62,11.62,0,0,1,206.6,305.51Z"/><path class="d" d="M195.62,322a6.4,6.4,0,0,0,4.74,4.52,5,5,0,0,0,4.07-.91,8.15,8.15,0,0,0,2.93-5.17,11.79,11.79,0,0,0,0-3.14,8.15,8.15,0,0,0-2.93-5.17,5,5,0,0,0-4.07-.91,6.39,6.39,0,0,0-4.74,4.53Z"/><path class="b" d="M245.13,332.63V305h-6.8v16.63a4.54,4.54,0,1,1-9.07,0V305h-6.81v17.77a10.21,10.21,0,0,0,15.88,8.48v1.34Z"/><path class="b" d="M251.93,305h2.65v-6.91l6.8-3.29V305h3.4v6.81h-3.4v12.47a1.52,1.52,0,0,0,1.51,1.51h1.16v6.8h-4.93a4.53,4.53,0,0,1-4.54-4.53V311.85h-2.65Z"/><rect class="b" x="272.72" y="305.04" width="6.8" height="27.59"/><path class="b" d="M280.28,298.24a4.16,4.16,0,1,0-4.16,4.16A4.16,4.16,0,0,0,280.28,298.24Z"/><polygon class="b" points="295.4 332.63 295.4 324.37 298.19 321.55 305.88 332.63 314.16 332.63 303.05 316.63 314.5 305.04 304.94 305.04 295.4 314.69 295.4 294.84 288.6 294.84 288.6 332.63 295.4 332.63"/><path class="b" d="M188.08,163l-68.52-26v26.63h70.59A21.7,21.7,0,0,1,188.08,163Z"/><path class="b" d="M187.38,222q3.3-1.66,6.74-3.06,5.53-2.26,11.24-4.12a106,106,0,0,1,11.09-3q5.3-1.12,10.65-2c3.51-.54,7.05-.92,10.6-1.13s6.9-.33,10.36-.37,6.91.16,10.36.37,7.09.59,10.6,1.13,7.12,1.21,10.65,2a106,106,0,0,1,11.09,3q5.7,1.84,11.24,4.12c2.29.93,4.53,2,6.74,3.06l13.05-31a21.57,21.57,0,0,1-4.36-3.36,21.37,21.37,0,0,0-30.2,0,21.32,21.32,0,0,1-15.1,6.26H175.55Z"/></svg>