<svg xmlns="http://www.w3.org/2000/svg" viewBox="0 0 842.18 842.18"><defs><style>.a,.c{fill:#0c479d;}.a{stroke:#0c479d;stroke-linecap:round;stroke-linejoin:round;}.b{fill:#fff;}.d{fill:#000;}.e{fill:#dc0032;}</style></defs><title>H27-1 korkortonline.se</title><rect class="a" x="0.5" y="0.5" width="841.18" height="841.18"/><path class="b" d="M51,.5H791.21A50.47,50.47,0,0,1,841.68,51V791.21a50.46,50.46,0,0,1-50.47,50.47H51A50.47,50.47,0,0,1,.5,791.21V51A50.47,50.47,0,0,1,51,.5Z"/><path class="c" d="M51,25.74H791.21A25.23,25.23,0,0,1,816.45,51V791.21a25.27,25.27,0,0,1-25.24,25.24H51a25.23,25.23,0,0,1-25.23-25.24V51A25.22,25.22,0,0,1,51,25.74Z"/><rect class="b" x="158.22" y="158.22" width="525.74" height="525.74"/><path class="d" d="M542.47,472.84V641.9H684V428.75a77.61,77.61,0,0,0-141.49,44.09Z"/><polygon class="e" points="574.78 529.27 626.49 506 615.12 550.99 596.34 544.87 607.88 599.26 649.4 562.28 630.64 556.12 669.93 466.19 597.02 500.31 626.49 442.4 594.43 431.03 574.78 529.27"/><path class="d" d="M158.22,580.44V417.33H284l-33-62a372.13,372.13,0,0,0-92.77-11.75V305.43a425.27,425.27,0,0,1,101.6,12.31,38.16,38.16,0,0,1,24.57,19.14l43.79,82.36a90.61,90.61,0,0,1,30.67,88.11l-13.7,51.13V605a36.88,36.88,0,1,1-73.75,0V580.44Z"/><path class="d" d="M360,500.87l.25.12,1.29.61.78.38,1,.44,1.11.49,1.29.55,1.08.38,1.33.52,1.29.43,1.31.42,1.16.36,1.1.27,1.26.3,1.12.21,1.14.23,1.23.15,1.14.12,1.29.09,1.37,0,1.12,0,1.18-.13,2-.3,1.31-.29.87-.25,1.22-.43,1.26-.46,1.57-.64,1.37-.65,1.33-.68,1.33-.67,1.18-.7,1-.56,1.29-.76,1.31-.8,1-.57,1.38-.82,1.16-.66.82-.48,1-.53,1.2-.65,1.36-.7,1.35-.65,1.1-.47,1.12-.46,1.12-.44,1.47-.47.64-.21.91-.27.52-.11.77-.21,1.07-.21,1-.24,1.12-.12.84-.15L423,491l1.1-.08.93-.08,1.14-.07.95-.06h1.73l1.36,0,1.2.06.93,0,.72,0,1,.06.74,0,.76.07.89.1.78.06.83.11.84.11.87.08.84.13.85.08.8.13.82.13.83.08.91.15,1,.16.82.17.85.13.82.13.83.15.82.14.82.15.85.13.85.17v-6.39H455V472h37.85v7.58h23.94a3.79,3.79,0,1,1,0,7.57H492.82v20.18h23.94a3.79,3.79,0,0,1,0,7.58H492.82v7.57H455V507.31h-2.52v-6.39l-.85-.17-.85-.12-.82-.15-.82-.15-.83-.15-.82-.12-.85-.13-.82-.17-1-.17-.91-.14-.83-.09-.82-.13-.8-.12-.85-.09-.84-.12-.87-.09-.84-.1-.83-.11-.78-.06-.89-.11-.76-.06-.74,0-1-.07-.72,0-.93,0-1.2-.06-1.36,0h-1.73l-.95.07-1.14.06-.93.09-1.1.08-1.22.15-.84.15-1.12.12-1,.23-1.07.21-.77.22-.52.1-.91.28-.64.21-1.47.46-1.12.45-1.12.46-1.1.46-1.35.66-1.36.69-1.2.66-1,.53-.82.48-1.16.66-1.38.82-1,.57-1.31.8-1.29.76-1,.56-1.18.69-1.33.68-1.33.67-1.37.66-1.57.63-1.26.47-1.22.42-.87.26-1.31.29-2,.3-1.18.12-1.12,0-1.37,0-1.29-.09-1.14-.13-1.23-.14-1.14-.24-1.12-.21-1.26-.29-1.1-.28-1.16-.36-1.31-.42-1.29-.42-1.33-.53-1.08-.38-1.29-.55-1.11-.48-1-.44-.78-.38-1.29-.61-.83-.4-.35-.16-.28-.12.1-.37Q359.53,504.13,360,500.87Z"/></svg>