<svg xmlns="http://www.w3.org/2000/svg" viewBox="0 0 454.54 454.54"><defs><style>.a,.c{fill:#0c479d;}.a{stroke:#0c479d;}.b{fill:#fff;}.d{fill:#000;}</style></defs><title>H3-1 korkortonline.se</title><rect class="a" x="0.5" y="0.5" width="453.54" height="453.54"/><path class="b" d="M28.85.5H425.7A28.34,28.34,0,0,1,454,28.85V425.7A28.34,28.34,0,0,1,425.7,454H28.85A28.34,28.34,0,0,1,.5,425.7V28.85A28.35,28.35,0,0,1,28.85.5Z"/><path class="c" d="M28.85,14.67H425.7a14.18,14.18,0,0,1,14.17,14.18V425.7a14.18,14.18,0,0,1-14.17,14.17H28.85A14.17,14.17,0,0,1,14.67,425.7V28.85A14.18,14.18,0,0,1,28.85,14.67Z"/><rect class="b" x="85.54" y="85.54" width="283.46" height="283.46"/><path class="d" d="M189.91,204.29H205V349.16H331.42v-220a23.81,23.81,0,0,0-23.81-23.81H228.84A23.81,23.81,0,0,0,205,129.19v1.36H183.15a51,51,0,0,0-49.29,37.82l-27,100.9a42.26,42.26,0,1,0,83.08,11Z"/><path class="b" d="M127.82,274.91a20.53,20.53,0,1,0,40.36,5.32V192l23.4-22.21H205v-19H182.82a28.34,28.34,0,0,0-27.38,21Z"/><rect class="b" x="233.35" y="130.55" width="68.18" height="44.05"/></svg>