<svg xmlns="http://www.w3.org/2000/svg" viewBox="0 0 454.54 454.54"><defs><style>.a,.c{fill:#0c479d;}.a{stroke:#0c479d;}.b{fill:#fff;}.d{fill:#000;}</style></defs><title>H4-1 korkortonline.se</title><rect class="a" x="0.5" y="0.5" width="453.54" height="453.54"/><path class="b" d="M28.85.5H425.7A28.34,28.34,0,0,1,454,28.85V425.7A28.34,28.34,0,0,1,425.7,454H28.85A28.34,28.34,0,0,1,.5,425.7V28.85A28.35,28.35,0,0,1,28.85.5Z"/><path class="c" d="M28.85,14.67H425.7a14.18,14.18,0,0,1,14.17,14.18V425.7a14.18,14.18,0,0,1-14.17,14.17H28.85A14.17,14.17,0,0,1,14.67,425.7V28.85A14.18,14.18,0,0,1,28.85,14.67Z"/><rect class="b" x="85.54" y="85.54" width="283.46" height="283.46"/><path class="d" d="M244.77,118.68l7.34-7.34A24.33,24.33,0,0,0,233.43,103a22.39,22.39,0,0,0-16.67,7.34,33.33,33.33,0,0,0,0,43.35A22.39,22.39,0,0,0,233.43,161a22.72,22.72,0,0,0,23.68-20.68V129.68H233.43V140h13.34a12.35,12.35,0,0,1-11.34,10.67,13.35,13.35,0,0,1-2,0,11.83,11.83,0,0,1-9.33-4.33,23,23,0,0,1,0-28.68,11.84,11.84,0,0,1,9.33-4.34A14,14,0,0,1,244.77,118.68Z"/><polygon class="d" points="153.4 103.68 165.07 103.68 187.08 141.37 187.08 103.68 197.42 103.68 197.42 160.37 186.21 160.37 163.74 121.89 163.74 160.37 153.4 160.37 153.4 103.68"/><path class="d" d="M142.23,109.07a24.37,24.37,0,0,0-18.34-5.67,25.67,25.67,0,0,0-18.34,12.67,33.09,33.09,0,0,0-3.67,16,34.57,34.57,0,0,0,4,16.67,23.14,23.14,0,0,0,18.34,12,24,24,0,0,0,18-5.67l-6.73-7.85a13.65,13.65,0,0,1-10.32,3.22A12.78,12.78,0,0,1,115,143.87,24.3,24.3,0,0,1,112.22,132a22.8,22.8,0,0,1,2.42-11,15.37,15.37,0,0,1,10.59-7.35,14.07,14.07,0,0,1,10.31,3.3Z"/><path class="c" d="M281.18,180.16V167.08h47.26v30.54H301.9v121h47.26V166.13a16.51,16.51,0,0,0-16.51-16.5h-54.6a16.51,16.51,0,0,0-16.51,16.5v14Z"/><path class="d" d="M203.8,248.73h10.48V349.16H301.9V196.67a16.51,16.51,0,0,0-16.51-16.51h-54.6a16.51,16.51,0,0,0-16.51,16.51v1H199.11A35.36,35.36,0,0,0,165,223.83L146.2,293.78a29.3,29.3,0,1,0,57.6,7.59Z"/><rect class="b" x="233.91" y="197.62" width="47.26" height="30.54"/><path class="b" d="M160.75,297.68a14.24,14.24,0,1,0,28,3.69V240.22L205,224.82h9.32V211.65H198.89a19.66,19.66,0,0,0-19,14.56Z"/></svg>