<svg xmlns="http://www.w3.org/2000/svg" viewBox="0 0 454.54 454.54"><defs><style>.a,.c{fill:#0c479d;}.a{stroke:#0c479d;}.b{fill:#fff;}.d{fill:#000;}</style></defs><title>H6-1 korkortonline.se</title><rect class="a" x="0.5" y="0.5" width="453.54" height="453.54"/><path class="b" d="M28.85.5H425.7A28.34,28.34,0,0,1,454,28.85V425.7A28.34,28.34,0,0,1,425.7,454H28.85A28.34,28.34,0,0,1,.5,425.7V28.85A28.35,28.35,0,0,1,28.85.5Z"/><path class="c" d="M28.85,14.67H425.7a14.18,14.18,0,0,1,14.17,14.18V425.7a14.18,14.18,0,0,1-14.17,14.17H28.85A14.17,14.17,0,0,1,14.67,425.7V28.85A14.18,14.18,0,0,1,28.85,14.67Z"/><rect class="b" x="85.54" y="85.54" width="283.46" height="283.46"/><path class="d" d="M333.1,303.88l-80.39-74.37-2.89-2.67,25.72-27.28A33.29,33.29,0,0,0,307.19,196c1.36-1.15,2.7-2.34,4-3.55l35.57-35.11A8.47,8.47,0,0,0,335,145.19l-36.29,36.09a3.32,3.32,0,0,1-1.06.62,4.83,4.83,0,0,1-5.75-6.82,2.47,2.47,0,0,1,.36-.49l36.65-36.44.16-.21a8.41,8.41,0,0,0-11.45-11.77,4.26,4.26,0,0,0-.54.41l-36.09,36a5.88,5.88,0,0,1-1.42.95,4.83,4.83,0,0,1-6.13-6.26,3.74,3.74,0,0,1,.6-.87l36.18-36.09a8.47,8.47,0,0,0-12.09-11.81l-35.85,36a32.71,32.71,0,0,0-3.44,4.08,33.28,33.28,0,0,0-3.23,30.95L227.31,206l-16.86-15.6a36.32,36.32,0,0,0-12.28-41.57,127.39,127.39,0,0,0-54.87-29.74,18.28,18.28,0,0,0-2.2-.34,24.89,24.89,0,0,0-11.85,2.17,23.34,23.34,0,0,0-2.64,1.46,17,17,0,0,0-4.88,5.28,24.77,24.77,0,0,0-2.91,13.5,12.36,12.36,0,0,0,.31,2A127.37,127.37,0,0,0,149,198.11a36.33,36.33,0,0,0,41.6,12.19l14.93,16.07L119,307.3a26,26,0,0,0-2.54,3.57,20.57,20.57,0,0,0,28,26.92,15,15,0,0,0,2.82-2.13l80.52-85.4,3,3.21,73.67,79.28a19.13,19.13,0,0,0,2,1.64,21,21,0,0,0,28.85-27.81A27.67,27.67,0,0,0,333.1,303.88Z"/></svg>