<svg xmlns="http://www.w3.org/2000/svg" viewBox="0 0 454.54 454.54"><defs><style>.a,.c{fill:#0c479d;}.a{stroke:#0c479d;}.b{fill:#fff;}.d{fill:#000;}</style></defs><title>H7-1 korkortonline.se</title><rect class="a" x="0.5" y="0.5" width="453.54" height="453.54"/><path class="b" d="M28.85.5H425.7A28.34,28.34,0,0,1,454,28.85V425.7A28.34,28.34,0,0,1,425.7,454H28.85A28.34,28.34,0,0,1,.5,425.7V28.85A28.35,28.35,0,0,1,28.85.5Z"/><path class="c" d="M28.85,14.67H425.7a14.18,14.18,0,0,1,14.17,14.18V425.7a14.18,14.18,0,0,1-14.17,14.17H28.85A14.17,14.17,0,0,1,14.67,425.7V28.85A14.18,14.18,0,0,1,28.85,14.67Z"/><rect class="b" x="85.54" y="85.54" width="283.46" height="283.46"/><path class="d" d="M353.89,284.18a35.55,35.55,0,0,0-.45-5.64A105.85,105.85,0,0,0,267,202.23a86.94,86.94,0,0,0-21.74-17.95V116.72a16.54,16.54,0,0,0-33.07,0v21.73H136.56V116.72a16.54,16.54,0,0,0-33.07,0V276.41a16.73,16.73,0,0,0,33.07,0V242.86L198,294.4v42.48a16.6,16.6,0,0,0,33.07,0V295.3h89.76v41.58a16.61,16.61,0,0,0,33.08,0v-52.7Z"/><path class="b" d="M165.38,211.21a123.15,123.15,0,0,1,96.85-10.4A104.82,104.82,0,0,0,136.56,187Z"/></svg>