<svg xmlns="http://www.w3.org/2000/svg" viewBox="0 0 454.54 454.54"><defs><style>.a,.c{fill:#0c479d;}.a{stroke:#0c479d;}.b{fill:#fff;}.d{fill:#000;}</style></defs><title>H8-1 korkortonline.se</title><rect class="a" x="0.5" y="0.5" width="453.54" height="453.54"/><path class="b" d="M28.85.5H425.7A28.34,28.34,0,0,1,454,28.85V425.7A28.34,28.34,0,0,1,425.7,454H28.85A28.34,28.34,0,0,1,.5,425.7V28.85A28.35,28.35,0,0,1,28.85.5Z"/><path class="c" d="M28.85,14.67H425.7a14.18,14.18,0,0,1,14.17,14.18V425.7a14.18,14.18,0,0,1-14.17,14.17H28.85A14.17,14.17,0,0,1,14.67,425.7V28.85A14.18,14.18,0,0,1,28.85,14.67Z"/><rect class="b" x="85.54" y="85.54" width="283.46" height="283.46"/><path class="d" d="M134.67,222.55a79.68,79.68,0,0,1-35,59.52,52.7,52.7,0,0,0,39.22-4.72v34.49H98.77v21.73H353.41V311.84H342.07V203.65H361l-89.05-92.22-89.06,92.22h18.9V311.84H153.1V277.35a60.09,60.09,0,0,0,41.57,4.72,72,72,0,0,1-35.43-59.52,50.89,50.89,0,0,0,29.29,12.28A134.35,134.35,0,0,1,147,150.74a147.26,147.26,0,0,1-40.63,84.09A51.75,51.75,0,0,0,134.67,222.55Z"/><rect class="b" x="253.26" y="255.62" width="37.8" height="56.22"/></svg>