<svg xmlns="http://www.w3.org/2000/svg" viewBox="0 0 454.54 454.54"><defs><style>.a,.c{fill:#0c479d;}.a{stroke:#0c479d;}.b{fill:#fff;}.d{fill:#000;}</style></defs><title>H9-1 korkortonline.se</title><rect class="a" x="0.5" y="0.5" width="453.54" height="453.54"/><path class="b" d="M28.85.5H425.7A28.34,28.34,0,0,1,454,28.85V425.7A28.34,28.34,0,0,1,425.7,454H28.85A28.34,28.34,0,0,1,.5,425.7V28.85A28.35,28.35,0,0,1,28.85.5Z"/><path class="c" d="M28.85,14.67H425.7a14.18,14.18,0,0,1,14.17,14.18V425.7a14.18,14.18,0,0,1-14.17,14.17H28.85A14.17,14.17,0,0,1,14.67,425.7V28.85A14.18,14.18,0,0,1,28.85,14.67Z"/><rect class="b" x="85.54" y="85.54" width="283.46" height="283.46"/><polygon class="d" points="236.84 142.59 295.07 101.82 353.3 142.59 345.54 153.66 335.23 146.44 335.23 187.46 295.07 187.46 254.91 187.46 254.91 146.44 244.6 153.66 236.84 142.59"/><polygon class="d" points="91.31 182.32 170.22 127.08 249.12 182.32 238.61 197.33 224.64 187.54 224.64 243.13 170.22 243.13 115.8 243.13 115.8 187.54 101.82 197.33 91.31 182.32"/><polygon class="d" points="175.2 280.28 269.21 214.45 363.23 280.28 350.71 298.16 334.06 286.5 334.06 352.73 269.21 352.73 204.37 352.73 204.37 286.5 187.72 298.16 175.2 280.28"/><rect class="b" x="278.17" y="146.64" width="33.79" height="13.17"/><rect class="b" x="147.32" y="187.81" width="45.8" height="17.84"/><rect class="b" x="241.93" y="286.83" width="54.57" height="21.26"/></svg>