<svg xmlns="http://www.w3.org/2000/svg" viewBox="0 0 341.16 341.16"><defs><style>.a,.c{fill:#834a2d;}.a{stroke:#834a2d;}.b{fill:#fff;}</style></defs><title>I1-1 korkortonline.se</title><rect class="a" x="0.5" y="0.5" width="340.16" height="340.16"/><path class="b" d="M28.85,340.66H312.31a28.36,28.36,0,0,0,28.35-28.35V28.85A28.36,28.36,0,0,0,312.31.5H28.85A28.34,28.34,0,0,0,.5,28.85V312.31a28.34,28.34,0,0,0,28.35,28.35Z"/><path class="c" d="M28.85,323.65H312.31a11.34,11.34,0,0,0,11.34-11.34V28.85a11.34,11.34,0,0,0-11.34-11.34H28.85A11.34,11.34,0,0,0,17.51,28.85V312.31a11.34,11.34,0,0,0,11.34,11.34Z"/><path class="b" d="M213.07,198.81a49.32,49.32,0,0,0,11.31,7.9,72.57,72.57,0,0,0,34.29,7.82A49,49,0,0,0,273,212.09a32.44,32.44,0,0,0,11.8-6.92A16.44,16.44,0,0,0,289,187a32.25,32.25,0,0,0-7.63-11.35,49.09,49.09,0,0,0-11.87-8.44,72.82,72.82,0,0,0-34.29-7.82,49.24,49.24,0,0,0-14.34,2.44,50.82,50.82,0,0,0-1.7-6.88A49.18,49.18,0,0,0,232.37,151a72.71,72.71,0,0,0,27.5-21.93,49.16,49.16,0,0,0,7-12.75,32.18,32.18,0,0,0,1.94-13.54,16.44,16.44,0,0,0-11.6-14.56,32.45,32.45,0,0,0-13.64-1.12,49.18,49.18,0,0,0-14,4,72.78,72.78,0,0,0-27.49,21.93,48.91,48.91,0,0,0-7,12.73,51.94,51.94,0,0,0-6.43-3,49.21,49.21,0,0,0,5.18-12.79,72.62,72.62,0,0,0,0-35.16,49,49,0,0,0-5.58-13.46,32.41,32.41,0,0,0-9.37-10,16.39,16.39,0,0,0-18.62,0,32.32,32.32,0,0,0-9.38,10,49,49,0,0,0-5.58,13.46,72.62,72.62,0,0,0,0,35.16,49.29,49.29,0,0,0,5.57,13.44,52.08,52.08,0,0,0-6.33,3.19,49.12,49.12,0,0,0-6.76-12,72.71,72.71,0,0,0-27.5-21.93,49.07,49.07,0,0,0-14-4,32.07,32.07,0,0,0-13.63,1.12A16.4,16.4,0,0,0,71,104.4,32.35,32.35,0,0,0,73,117.94a49.09,49.09,0,0,0,7,12.76,72.62,72.62,0,0,0,27.49,21.92,49.15,49.15,0,0,0,14,4,51.07,51.07,0,0,0-1.45,6.93,49.24,49.24,0,0,0-13.63-2.21,72.66,72.66,0,0,0-34.28,7.83,49.11,49.11,0,0,0-11.88,8.43A32.31,32.31,0,0,0,52.64,189a16.42,16.42,0,0,0,4.14,18.15,32.35,32.35,0,0,0,11.8,6.92,49.06,49.06,0,0,0,14.36,2.45,72.66,72.66,0,0,0,34.28-7.83,49.21,49.21,0,0,0,11.87-8.42,50.08,50.08,0,0,0,4.51,5.46A49.27,49.27,0,0,0,123.38,215a72.78,72.78,0,0,0-15.26,31.68,49.28,49.28,0,0,0-.81,14.54,32.37,32.37,0,0,0,4.13,13,16.45,16.45,0,0,0,16.77,8.08A32.51,32.51,0,0,0,141,277.44a49.28,49.28,0,0,0,10.87-9.71,72.61,72.61,0,0,0,15.25-31.68,49.2,49.2,0,0,0,.82-14.53,49.2,49.2,0,0,0,7.08-.12,49,49,0,0,0,.88,13.77,72.59,72.59,0,0,0,15.26,31.69,49.43,49.43,0,0,0,10.86,9.7,32.36,32.36,0,0,0,12.77,4.91,16.41,16.41,0,0,0,16.78-8.08,32.47,32.47,0,0,0,4.12-13,49.33,49.33,0,0,0-.81-14.55,72.78,72.78,0,0,0-15.26-31.68,49.16,49.16,0,0,0-10.85-9.7A50.08,50.08,0,0,0,213.07,198.81Z"/><path class="c" d="M199,170.58A28.41,28.41,0,1,0,170.58,199,28.41,28.41,0,0,0,199,170.58Z"/></svg>