<svg xmlns="http://www.w3.org/2000/svg" viewBox="0 0 376.25 534"><defs><style>.a,.c{fill:#834a2d;}.a{stroke:#834a2d;stroke-linecap:square;stroke-miterlimit:10;}.b{fill:#fff;}</style></defs><title>I3-1 korkortonline.se</title><polygon class="a" points="0.5 0.5 0.5 533.5 375.75 533.5 375.75 0.5 0.5 0.5 0.5 0.5"/><polygon class="b" points="0.5 23.75 0.5 510 0.5 510 0.5 512.25 0.75 514.75 1.5 517 2.25 519 3.25 521.25 4.5 523 5.75 525 7.25 526.5 9 528 10.75 529.5 12.75 530.5 14.75 531.5 16.75 532.25 19 533 21.5 533.25 23.75 533.5 352.25 533.5 352.25 533.5 354.5 533.25 357 533 359.25 532.25 361.25 531.5 363.5 530.5 365.25 529.5 367 528 368.75 526.5 370.25 525 371.75 523 372.75 521.25 373.75 519 374.5 517 375.25 514.75 375.5 512.25 375.75 510 375.75 23.75 375.75 23.75 375.5 21.5 375.25 19 374.5 16.75 373.75 14.75 372.75 12.75 371.75 10.75 370.25 9 368.75 7.25 367 5.75 365.25 4.5 363.5 3.25 361.25 2.25 359.25 1.5 357 0.75 354.5 0.5 352.25 0.5 23.75 0.5 23.75 0.5 21.5 0.5 19 0.75 16.75 1.5 14.75 2.25 12.75 3.25 10.75 4.5 9 5.75 7.25 7.25 5.75 9 4.5 10.75 3.25 12.75 2.25 14.75 1.5 16.75 0.75 19 0.5 21.5 0.5 23.75 0.5 23.75 0.5 23.75"/><polygon class="c" points="12 23.75 12 510 12 510 12.25 512.25 13 514.5 14 516.5 15.5 518.25 15.5 518.25 17.25 519.75 19.25 520.75 21.5 521.5 23.75 521.75 352.25 521.75 352.25 521.75 354.5 521.5 356.75 520.75 358.75 519.75 360.5 518.25 360.5 518.25 362 516.5 363 514.5 363.75 512.25 364 510 364 23.75 364 23.75 363.75 21.5 363 19.25 362 17.25 360.5 15.5 358.75 14 356.75 13 354.5 12.25 352.25 12 23.75 12 23.75 12 21.5 12.25 19.25 13 17.25 14 15.5 15.5 15.5 15.5 14 17.25 13 19.25 12.25 21.5 12 23.75 12 23.75 12 23.75"/><polygon class="b" points="43 428 63.75 428 63.75 428 65.75 428.25 68 428.75 69.75 429.5 71.75 430.5 73.5 431.75 75 433 76.25 434.75 77.25 436.75 77.25 436.75 78 438.75 78.5 440.75 78.75 442.75 78.5 445 78.25 447 77.5 449 76.5 450.75 75.25 452.5 75.25 452.5 77 454.5 78.25 456.25 79.25 458.5 80 460.75 80.5 463 80.5 465.5 80 467.75 79.5 470 79.5 470 78.25 472.25 77 474.25 75.5 476 73.5 477.5 71.5 478.75 69.25 479.5 67 480 64.5 480.25 43 480.25 43 449.5 43 428 43 428"/><polygon class="b" points="94.25 432.5 94.25 432.5 94.5 431.25 94.75 430 95.25 429 96 428.25 97 427.5 98 426.75 99 426.5 100.25 426.5 100.25 426.5 101.5 426.5 102.75 426.75 103.75 427.5 104.5 428.25 105.25 429 105.75 430 106.25 431.25 106.25 432.5 106.25 432.5 106.25 433.5 105.75 434.75 105.25 435.75 104.5 436.5 103.75 437.25 102.75 438 101.5 438.25 100.25 438.25 100.25 438.25 99 438.25 98 438 97 437.25 96 436.5 95.25 435.75 94.75 434.75 94.5 433.5 94.25 432.5 94.25 432.5 94.25 432.5"/><polygon class="b" points="208.75 432.5 208.75 432.5 208.75 431.25 209.25 430 209.75 429 210.5 428.25 211.25 427.5 212.25 426.75 213.5 426.5 214.75 426.5 214.75 426.5 216 426.5 217 426.75 218 427.5 219 428.25 219.75 429 220.25 430 220.5 431.25 220.75 432.5 220.75 432.5 220.5 433.5 220.25 434.75 219.75 435.75 219 436.5 218 437.25 217 438 216 438.25 214.75 438.25 214.75 438.25 213.5 438.25 212.25 438 211.25 437.25 210.5 436.5 209.75 435.75 209.25 434.75 208.75 433.5 208.75 432.5 208.75 432.5 208.75 432.5"/><polygon class="b" points="237.75 451.75 237.75 473.75 237.75 473.75 237.75 475 238 476.25 238.75 477.5 239.5 478.5 239.5 478.5 240.5 479.25 241.5 479.75 242.75 480.25 244 480.25 250.75 480.25 250.75 470.75 249.25 470.75 249.25 470.75 248.5 470.5 247.75 470.25 247.75 470.25 247.25 469.5 247.25 468.5 247.25 451.75 252 451.75 252 442.25 251.25 442.25 247.25 442.25 247.25 428 237.75 432.75 237.75 442.25 233.75 442.25 233.75 451.75 237.75 451.75 237.75 451.75"/><polygon class="b" points="268.5 451.75 268.5 473.75 268.5 473.75 268.75 475 269 476.25 269.5 477.5 270.5 478.5 270.5 478.5 271.5 479.25 272.5 479.75 273.75 480.25 275 480.25 281.75 480.25 281.75 470.75 280.25 470.75 280.25 470.75 279.5 470.5 278.75 470.25 278.75 470.25 278.25 469.5 278 468.5 278 451.75 282.75 451.75 282.75 442.25 282 442.25 278 442.25 278 428 268.5 432.75 268.5 442.25 264.75 442.25 264.75 451.75 268.5 451.75 268.5 451.75"/><polygon class="b" points="333 442.25 323.5 442.25 323.5 445 323.5 445 322 444 320.5 443.25 319 442.5 317.25 442.25 317.25 442.25 315 441.75 312.75 441.75 310.5 442.25 308.5 442.75 308.5 442.75 305.5 444.5 303 446.5 300.75 449 299.25 451.75 299.25 451.75 298.5 454 297.75 456.5 297.5 459 297.5 461.25 297.5 463.75 297.75 466.25 298.5 468.75 299.25 471 299.25 471 300 472.75 301 474.25 302.25 475.75 303.5 477 305 478 306.5 479 308.25 480 310 480.5 310 480.5 311.75 480.75 313.5 481 315.5 480.75 317.25 480.5 317.25 480.5 319 480 320.5 479.5 322 478.75 323.5 477.75 323.5 480.25 333 480.25 333 442.25 333 442.25"/><polygon class="b" points="122.25 480.25 131.75 480.25 131.75 461.25 131.75 461.25 132.5 458.75 133.5 456.5 135.25 454.5 137.25 453 137.25 453 138.5 452.25 140 451.75 141.25 451.5 142.75 451.5 142.75 451.5 144.5 451.5 146.25 452 146.25 442.25 146.25 442.25 144.25 442 142.5 441.75 140.5 442 138.75 442.25 137 442.75 135 443.25 133.5 444 131.75 445 131.75 442.25 122.25 442.25 122.25 480.25 122.25 480.25"/><polygon class="b" points="105 442.25 95.5 442.25 95.5 480.25 105 480.25 105 442.25 105 442.25"/><polygon class="b" points="183.25 480.75 183.25 476.75 183.25 476.75 182 477.75 180.75 478.5 179.25 479 177.75 479.25 177.75 479.25 176 479.75 174.25 479.75 172.5 479.75 170.75 479.25 170.75 479.25 169 478.75 167.25 477.75 165.75 476.75 164.25 475.75 163 474.5 161.75 473 160.75 471.5 160 469.75 160 469.75 159.25 467.5 158.75 465.25 158.25 463 158.25 460.75 158.25 458.5 158.75 456.25 159.25 454 160 451.75 160 451.75 161.75 449 163.75 446.5 166.25 444.5 169.25 442.75 169.25 442.75 171.25 442.25 173.5 441.75 175.5 441.75 177.75 442.25 177.75 442.25 179.25 442.5 180.75 443.25 182 444 183.25 445 183.25 442.25 192.75 442.25 192.75 480.75 192.75 480.75 192.75 482.75 192.5 484.5 191.75 486.25 191 487.75 190 489.25 188.5 490.5 187 491.75 185.5 492.5 185.5 492.5 182.75 493.5 180.25 494 177.5 494.5 174.75 494.75 174.75 494.75 171 494.5 167.25 494.25 163.5 493.25 160 492 164 484 164 484 166.75 485 169.5 485.75 172.25 486.25 175.25 486.25 175.25 486.25 177.75 486 180 485.5 180 485.5 181.25 484.75 182.25 483.5 183 482.25 183.25 480.75 183.25 480.75 183.25 480.75"/><polygon class="b" points="219.5 442.25 210 442.25 210 480.25 219.5 480.25 219.5 442.25 219.5 442.25"/><polygon class="b" points="66 386.5 66 356 66 334.5 75.5 334.5 75.5 354 95 354 95 334.5 104.5 334.5 104.5 356 104.5 386.5 95 386.5 95 363.5 75.5 363.5 75.5 386.5 66 386.5 66 386.5"/><polygon class="b" points="119.25 367.75 119.25 367.75 119.5 370 119.75 372.5 120.5 374.75 121.25 376.75 122.5 378.75 123.75 380.75 125.5 382.5 127.25 384 127.25 384 129.75 385.5 132.5 386.5 135.25 387.25 138 387.25 138 387.25 140 387.25 141.75 387 143.5 386.75 145.5 386.25 147.25 385.5 148.75 384.75 150.5 383.75 152 382.75 146.5 375 146.5 375 145.5 376 144.25 376.75 143 377.25 141.75 377.75 140.25 378 139 378 137.5 378 136.25 377.75 136.25 377.75 134.75 377.5 133.5 376.75 132.5 376 131.5 375 130.5 373.75 130 372.75 129.5 371.25 129.25 369.75 155.75 369.75 155.75 366.75 155.75 366.75 155.75 364.5 155.25 362.5 154.5 360.25 153.5 358.25 152.5 356.25 151.25 354.5 149.5 353 147.75 351.5 147.75 351.5 145.5 350 143 349 140.25 348.25 137.5 348 137.5 348 134.75 348.25 132.25 349 129.75 350 127.25 351.5 127.25 351.5 125.5 353 123.75 354.75 122.5 356.5 121.25 358.75 120.5 360.75 119.75 363 119.5 365.25 119.25 367.75 119.25 367.75 119.25 367.75"/><polygon class="b" points="171.5 386.5 181 386.5 181 356 181 334.5 171.5 334.5 171.5 356 171.5 386.5 171.5 386.5"/><polygon class="b" points="197 338.75 197 338.75 197 337.5 197.5 336.5 198 335.5 198.75 334.5 199.5 333.75 200.5 333.25 201.75 333 203 332.75 203 332.75 204 333 205.25 333.25 206.25 333.75 207 334.5 207.75 335.5 208.5 336.5 208.75 337.5 209 338.75 209 338.75 208.75 340 208.5 341 207.75 342 207 343 206.25 343.75 205.25 344.25 204 344.75 203 344.75 203 344.75 201.75 344.75 200.5 344.25 199.5 343.75 198.75 343 198 342 197.5 341 197 340 197 338.75 197 338.75 197 338.75"/><polygon class="b" points="207.75 348.5 198.25 348.5 198.25 386.5 207.75 386.5 207.75 348.5 207.75 348.5"/><polygon class="b" points="248.75 387.25 248.75 383.25 248.75 383.25 247.5 384 246.25 384.75 244.75 385.25 243.25 385.75 243.25 385.75 241.5 386 239.75 386.25 238 386 236.25 385.75 236.25 385.75 234.5 385 232.75 384.25 231.25 383.25 229.75 382 228.5 380.75 227.25 379.5 226.25 377.75 225.5 376.25 225.5 376.25 224.75 374 224 371.75 223.75 369.5 223.75 367.25 223.75 364.75 224 362.5 224.75 360.25 225.5 358 225.5 358 227 355.25 229.25 352.75 231.75 350.75 234.75 349.25 234.75 349.25 236.75 348.5 239 348.25 241 348.25 243.25 348.5 243.25 348.5 244.75 349 246.25 349.5 247.5 350.5 248.75 351.25 248.75 348.5 258.25 348.5 258.25 387.25 258.25 387.25 258.25 389 258 391 257.25 392.75 256.5 394.25 255.25 395.75 254 397 252.5 398 251 399 251 399 248.25 399.75 245.5 400.5 243 400.75 240.25 401 240.25 401 236.25 401 232.75 400.5 229 399.5 225.5 398.25 229.5 390.25 229.5 390.25 232 391.5 235 392.25 237.75 392.75 240.75 392.75 240.75 392.75 243 392.5 245.25 391.75 245.25 391.75 246.75 391 247.75 390 248.5 388.75 248.75 387.25 248.75 387.25 248.75 387.25"/><polygon class="b" points="309.75 348.5 300.25 348.5 300.25 351.25 300.25 351.25 298.75 350.25 297.25 349.5 295.75 349 294.25 348.5 294.25 348.5 292 348.25 289.75 348.25 287.5 348.5 285.25 349.25 285.25 349.25 282.25 350.75 279.75 352.75 277.75 355.25 276 358 276 358 275.25 360.5 274.75 362.75 274.5 365.25 274.25 367.75 274.5 370.25 274.75 372.75 275.25 375 276 377.5 276 377.5 277 379 278 380.5 279 382 280.5 383.25 281.75 384.5 283.25 385.5 285 386.25 286.75 387 286.75 387 288.5 387.25 290.5 387.25 292.25 387.25 294.25 387 294.25 387 295.75 386.5 297.25 386 298.75 385 300.25 384.25 300.25 386.5 309.75 386.5 309.75 348.5 309.75 348.5"/><polygon class="b" points="70.75 70.75 305.25 70.75 305.25 305.25 70.75 305.25 70.75 70.75 70.75 70.75"/><polygon class="c" points="146.75 254.5 162.25 254.5 162.25 254.5 165.75 198.75 165.75 198.75 166.75 182.75 168.25 167 168.25 167 168.5 163.25 168.25 159.5 168.25 159.5 165.25 159.25 162 158.75 159 158 156.25 156.75 156.25 156.75 156 156.5 155.75 156.25 155.75 156.25 155.5 154 155.5 154 153.75 152.75 152 151.25 150.5 149.75 149.25 148 149.25 144.5 131.75 134.25 142.25 124.5 147 127.75 147 127.75 147.75 127.75 147.75 127.75 148.5 127.5 149 127 149 127 149.25 126.5 149.5 126.25 150 126 150.5 126 150.5 126 151.5 126.25 152 126.75 152 126.75 154.5 129 154.5 129 155 129.25 155 129.25 155.5 129.5 156.25 129.5 156.75 129.25 157.25 129 157.25 129 157.75 128.5 158.25 127.75 158.25 127.75 158.5 127.5 158.75 127.5 158.75 127.5 164.25 127.5 169.5 127.5 169.5 127.5 170.5 127.25 171.5 126.75 171.5 126.75 172.5 125.5 173.25 124 173.25 124 173.75 122 173.75 122 175.25 118.5 176.5 114.75 176.5 114.75 177.25 113.5 177.25 113.5 177.75 112.5 178 111.5 178 111.5 178 110.75 178 110 178 110 177.75 109.75 177.75 109.75 177.5 109.75 177.25 110 177.25 110 177 110.25 177 110.25 175.75 110.75 174.5 111 174.5 111 173.75 111 173 110.75 173 110.75 172.75 110.25 172.5 110 172.5 110 172.25 109.25 172.25 109.25 172 109 172 109 171.5 108.75 171.5 108.5 171.5 108.5 171.25 107.5 171 106.75 171 106.75 170.75 106 170.75 105.5 170.75 105.5 170.75 104.75 170.75 104.75 170.75 104.5 170.5 104.25 170.5 104.25 169.5 104.25 169.5 104.25 168.5 104 168.5 104 168.25 104 168.25 104 168.25 103.75 168.25 103.75 168.5 103.25 168.5 103.25 170.5 99.5 170.5 99.5 170.75 99 170.75 98.25 170.75 98.25 170 96 170 96 169.5 94.5 169.5 94.5 169.5 93.75 169.5 93.25 169.5 93.25 169.75 92.25 170 91.5 170 91.5 170.25 90 171.25 89 171.25 89 172.75 87.5 174.5 86 174.5 86 176.75 84.5 179.25 83.5 182 82.75 184.75 82.5 184.75 82.5 186.75 82.75 188.5 83.5 188.5 83.5 189.5 84 190.5 85 191.25 86 191.75 87 191.75 87 195.25 96.25 195.25 96.25 196 98.5 196.5 101 196.5 101 196.75 103.75 197.75 106.5 197.75 106.5 201.25 116 201.25 116 207.25 131.5 207.25 131.5 208.5 135 209.5 138.5 210.25 142 210.75 145.5 210.75 145.5 210.75 146 210.75 146 210.5 146.25 210.5 146.25 209.25 146.25 209.25 146.25 208.5 146.5 208.5 146.5 208.25 147 208.25 147 208 150 208.25 153 208.25 153 209.5 161.75 209.5 161.75 210.25 169.25 210.25 169.25 211.25 176 211.25 176 211.25 179 211.5 182.25 211.5 182.25 211.25 185.5 211.5 189 212 192.5 212.5 195.75 212.5 195.75 213.25 199.75 213.5 203.75 213.5 203.75 214.5 223.5 214.5 223.5 214.75 229.25 215.5 235 215.5 235 215.75 240 216 244.75 216 249.5 215.75 254.5 231.25 254.5 231.25 266.5 232.5 266.5 232.5 266.5 237.5 266.25 242.5 266 242.5 266 245 265.75 247.5 265 247.5 265 248.25 264.75 248.75 264.5 249.25 264 249.5 263.5 249.5 263.5 250 262.75 250.75 262.25 250.75 262.25 251.5 261.5 252 260.75 252 260.75 252.25 260.25 252.75 260 253 259.75 253.5 259.75 253.5 259.75 254.75 259.5 255.5 258.75 255.5 258.75 256.5 257.5 257.75 256.5 257.75 256.5 258.75 255.75 259.25 254.5 259.25 254.5 260 251.75 260 251.75 260.25 251 261 250.5 261 250.5 262.25 249.25 263.5 247.75 263.5 247.75 264.5 246 264.5 246 266 243.25 268.25 240.75 268.25 240.75 270.25 239 272.25 237.5 272.25 237.5 273 237 273.25 236.25 273.5 235.75 273.5 235 273.5 235 273.75 234.25 273.75 234.25 274.25 233.75 274.25 233.75 280.25 229 280.25 229 281.75 228 283.5 227.75 283.5 227.75 284.5 227.75 285 227 285 227 286 225.75 286 225.75 286.25 225.5 286.75 225.5 286.75 225.5 287.75 225.5 289 225.25 289 225.25 289.5 225 289.5 224.75 289.5 224.75 289.75 224.5 289.75 224.5 293.5 224 293.5 293.5 110.75 293.5 110.75 293 110.75 293 111 291.5 111 291.5 111.5 291 111.5 291 114.25 289.25 117.25 287.75 117.25 287.75 123.75 284.75 123.75 284.75 124.75 284 124.75 284 125.25 283.25 125.25 282.5 125.25 282.5 125.5 281.25 126 280.25 126 280.25 127.75 278.75 129.5 277.75 129.5 277.75 132 276.75 134.5 276 134.5 276 140.5 275.25 140.5 275.25 146.75 274.5 146.75 254.5 146.75 254.5"/><polygon class="c" points="145.75 363.75 145.75 363.75 145.25 362.25 144.75 361 144 359.75 143 358.75 141.75 358 140.5 357.25 139 357 137.5 356.75 137.5 356.75 136 357 134.75 357.25 133.5 358 132.25 358.75 131.25 359.75 130.5 361 129.75 362.25 129.5 363.75 145.75 363.75 145.75 363.75"/><polygon class="c" points="248.75 372.25 248.75 372.25 248.5 373.25 248 374.25 247.5 375.25 246.75 376 246 376.75 245 377.25 244 377.75 243 378 243 378 241.5 378.25 240 378 238.75 377.5 237.5 376.75 237.5 376.75 236 375.25 234.75 373.75 234 371.75 233.75 369.75 233.75 369.75 233.5 368.25 233.75 366.75 233.75 366.75 234 364.75 234.75 362.75 236 361 237.5 359.75 237.5 359.75 238.75 358.75 240 358.5 241.5 358.25 243 358.5 243 358.5 244 358.75 245 359.25 246 360 246.75 360.75 247.5 361.5 248 362.5 248.5 363.5 248.75 364.5 248.75 372.25 248.75 372.25"/><polygon class="c" points="300.25 372 300.25 372 299.75 373 299.25 374 298.75 375 298 375.75 297 376.5 296 377.25 295 377.75 293.75 378 293.75 378 292.25 378.25 291 378 289.5 377.5 288.25 376.75 288.25 376.75 286.75 375.25 285.75 373.75 284.75 371.75 284.25 369.75 284.25 369.75 284.25 367.5 284.25 365.5 284.25 365.5 284.75 363.5 285.75 361.5 286.75 359.75 288.25 358.5 288.25 358.5 289.5 357.75 291 357.25 292.25 357 293.75 357.25 293.75 357.25 295 357.5 296 358 297 358.5 298 359.25 298.75 360.25 299.25 361.25 299.75 362.25 300.25 363.25 300.25 372 300.25 372"/><polygon class="c" points="323.5 465.5 323.5 465.5 323 466.5 322.5 467.75 321.75 468.5 321 469.5 320.25 470.25 319.25 470.75 318 471.25 317 471.75 317 471.75 315.5 471.75 314 471.75 312.75 471.25 311.5 470.5 311.5 470.5 310 469 308.75 467.25 308 465.5 307.5 463.25 307.5 463.25 307.25 461.25 307.5 459 307.5 459 308 457 308.75 455.25 310 453.5 311.5 452 311.5 452 312.75 451.25 314 450.75 315.5 450.75 317 450.75 317 450.75 318 451 319.25 451.5 320.25 452.25 321 453 321.75 453.75 322.5 454.75 323 455.75 323.5 457 323.5 465.5 323.5 465.5"/><polygon class="c" points="64.5 470.75 64.5 470.75 65.75 470.5 66.75 470.25 67.75 470 68.75 469.25 69.5 468.5 70 467.75 70.5 466.75 70.75 465.5 70.75 465.5 71 464.5 71 463.5 70.75 462.25 70.25 461.25 69.75 460.5 69 459.75 68 459 67 458.5 67 458.5 65.75 458.25 64.25 458.25 52.75 458.25 52.75 470.75 64.5 470.75 64.5 470.75"/><polygon class="c" points="52.75 448.75 63.75 448.75 63.75 448.75 64.75 448.5 65.75 448.25 66.75 447.75 67.5 447 68.25 446.25 68.75 445.25 69 444.25 69.25 443 69.25 443 69 442 68.75 441 68.25 440 67.5 439.25 66.75 438.5 65.75 438 64.75 437.75 63.75 437.5 52.75 437.5 52.75 448.75 52.75 448.75"/><polygon class="c" points="183.25 465.75 183.25 465.75 183 466.75 182.5 467.75 182 468.75 181.25 469.5 180.5 470.25 179.5 471 178.5 471.25 177.5 471.75 177.5 471.75 176 471.75 174.5 471.75 173.25 471.25 172 470.5 172 470.5 170.5 469 169.5 467.25 168.75 465.25 168.25 463.25 168.25 463.25 168 461.75 168.25 460.25 168.25 460.25 168.75 458.25 169.5 456.5 170.5 454.75 172 453.25 172 453.25 173.25 452.5 174.5 452 176 451.75 177.5 452 177.5 452 178.5 452.25 179.5 452.75 180.5 453.5 181.25 454.25 182 455 182.5 456 183 457 183.25 458.25 183.25 465.75 183.25 465.75"/><polygon class="b" points="158 139.25 155 142.25 155 142.25 156.5 142.75 156.5 142.75 157 143 157.75 143 157.75 143 158.25 142.75 159 143 159 143 160.75 143.75 160.75 143.75 161.75 144 162.75 144.25 162.75 144.25 164.25 144.25 164.25 144.25 164.5 144.25 164.75 144 164.75 144 164.25 143.5 164.25 143.5 163.25 143 163.25 143 161.75 142.25 160.25 141.25 160.25 141.25 159.75 141 159.5 141 159.5 141 159 140.75 158.5 140.5 158.5 140.5 158.25 139.5 158.25 139.5 158 139.25 158 139.25"/></svg>