<svg xmlns="http://www.w3.org/2000/svg" viewBox="0 0 171.08 171.08"><defs><style>.a,.c{fill:#834a2d;}.a{stroke:#834a2d;}.b{fill:#fff;}</style></defs><title>I4-1 korkortonline.se</title><rect class="a" x="0.5" y="0.5" width="170.08" height="170.08"/><path class="b" d="M14.67,170.58H156.41a14.17,14.17,0,0,0,14.17-14.17V14.67A14.17,14.17,0,0,0,156.41.5H14.67A14.17,14.17,0,0,0,.5,14.67V156.41a14.17,14.17,0,0,0,14.17,14.17Z"/><path class="c" d="M14.67,162.07H156.41a5.68,5.68,0,0,0,5.67-5.66V14.67A5.68,5.68,0,0,0,156.41,9H14.67A5.67,5.67,0,0,0,9,14.67V156.41a5.67,5.67,0,0,0,5.67,5.66Z"/><path class="b" d="M85.54,53.44l-32.1,32.1,27.62,27.62v29A5.21,5.21,0,0,1,75,147.3a62.66,62.66,0,1,1,21.16,0,5.21,5.21,0,0,1-6.1-5.15v-29l27.62-27.62Z"/><path class="c" d="M85.54,40.78,40.78,85.54l31.33,31.33v20.67a53.71,53.71,0,1,1,26.86,0V116.87L130.3,85.54Z"/></svg>