<svg xmlns="http://www.w3.org/2000/svg" viewBox="0 0 1175.2 359.55"><defs><style>.a{fill:#ffce00;}.b{fill:#000;}</style></defs><title>J2-1 korkortonline.se</title><rect class="a" width="1175.2" height="359.55"/><rect class="b" width="1175.2" height="359.55" rx="28.63"/><rect class="a" x="14.46" y="14.46" width="1146.29" height="330.63" rx="14.17"/><polygon class="b" points="144.29 67.98 113.67 164.35 87.59 164.35 56.98 67.98 75.42 67.98 100.63 147.35 125.85 67.98 144.29 67.98"/><path class="b" d="M187.37,62.31a13,13,0,1,0-13-13A13,13,0,0,0,187.37,62.31Z"/><path class="b" d="M236.12,62.31a13,13,0,1,0-13-13A13,13,0,0,0,236.12,62.31Z"/><polygon class="b" points="192.12 146.78 186.53 164.35 168.09 164.35 198.71 67.98 224.79 67.98 255.4 164.35 236.96 164.35 231.38 146.78 192.12 146.78"/><polygon class="a" points="197.7 129.2 211.75 84.98 225.79 129.2 197.7 129.2"/><path class="b" d="M342.42,93.47,354.89,81a41.32,41.32,0,0,0-31.75-14.18A38,38,0,0,0,294.8,79.3a56.69,56.69,0,0,0,0,73.7,38.06,38.06,0,0,0,28.34,12.47,38.63,38.63,0,0,0,40.25-35.15V112.18H323.14v17.57h22.68a21,21,0,0,1-19.28,18.14,21.44,21.44,0,0,1-3.4,0,20.14,20.14,0,0,1-15.87-7.37,39.16,39.16,0,0,1,0-48.75,20.14,20.14,0,0,1,15.87-7.37A23.81,23.81,0,0,1,342.42,93.47Z"/><path class="b" d="M414.66,101l25.7,7.43a30.37,30.37,0,0,1,18.14,14.17,26,26,0,0,1,0,26.65,28.61,28.61,0,0,1-23.24,15.31A49.39,49.39,0,0,1,391,149.29L404,137.39a31.8,31.8,0,0,0,29.32,9.71,11,11,0,0,0,9.85-6.4,8.46,8.46,0,0,0,.19-9.19,12.86,12.86,0,0,0-7.78-6.14L410.06,118A24,24,0,0,1,397.6,80.07h0a32.92,32.92,0,0,1,20.47-12.16,50,50,0,0,1,41.73,11.4L448.29,92.6a32.42,32.42,0,0,0-27.21-7.37,15.33,15.33,0,0,0-9.64,5.66h0l.06-.07h0l-.06.07A6.46,6.46,0,0,0,414.66,101Z"/><polygon class="b" points="544.52 67.98 575.13 164.35 556.69 164.35 551.11 146.78 511.85 146.78 506.27 164.35 487.83 164.35 518.44 67.98 544.52 67.98"/><polygon class="a" points="517.43 129.2 531.48 84.98 545.53 129.2 517.43 129.2"/><polygon class="b" points="622.19 107.66 622.19 146.78 652.8 146.78 652.8 164.35 604.61 164.35 604.61 107.66 604.61 67.98 622.19 67.98 622.19 107.66"/><polygon class="b" points="712.04 85.55 712.04 113.33 712.04 164.35 694.47 164.35 694.47 113.33 694.47 85.55 672.92 85.55 672.92 67.98 733.59 67.98 733.59 85.55 712.04 85.55"/><polygon class="b" points="763.91 67.98 783.75 67.98 821.17 132.04 821.17 67.98 838.75 67.98 838.75 164.35 819.69 164.35 781.49 98.94 781.49 164.35 763.91 164.35 763.91 67.98"/><polygon class="b" points="892.03 107.66 892.03 164.35 874.46 164.35 874.46 107.66 874.46 67.98 892.03 67.98 892.03 107.66"/><polygon class="b" points="927.18 67.98 947.02 67.98 984.44 132.04 984.44 67.98 1002.01 67.98 1002.01 164.35 982.96 164.35 944.75 98.94 944.75 164.35 927.18 164.35 927.18 67.98"/><path class="b" d="M1095.27,93.47,1107.74,81A41.34,41.34,0,0,0,1076,66.82a38.07,38.07,0,0,0-28.35,12.48,56.72,56.72,0,0,0,0,73.7A38.1,38.1,0,0,0,1076,165.47a38.63,38.63,0,0,0,40.25-35.15V112.18H1076v17.57h22.68a21,21,0,0,1-19.28,18.14,21.44,21.44,0,0,1-3.4,0,20.12,20.12,0,0,1-15.87-7.37,39.16,39.16,0,0,1,0-48.75A20.12,20.12,0,0,1,1076,84.4,23.82,23.82,0,0,1,1095.27,93.47Z"/><path class="b" d="M351.77,280.23V217.87h17.58v62.36a35.15,35.15,0,0,1-70.3,0V217.87h17.57v62.36a17.58,17.58,0,1,0,35.15,0Z"/><path class="b" d="M422.63,314.25H405.06V217.87h37.41a28.63,28.63,0,0,1,0,57.26H422.63Z"/><path class="a" d="M422.63,257.56V235.45h19.84a11.06,11.06,0,1,1,0,22.11Z"/><path class="b" d="M517.3,314.25H499.73V217.87h37.41a28.63,28.63,0,0,1,0,57.26H517.3Z"/><path class="a" d="M517.3,257.56V235.45h19.84a11.06,11.06,0,1,1,0,22.11Z"/><polygon class="b" points="594.4 314.25 594.4 257.56 594.4 217.87 611.97 217.87 611.97 254.16 647.69 254.16 647.69 217.87 665.26 217.87 665.26 257.56 665.26 314.25 647.69 314.25 647.69 271.73 611.97 271.73 611.97 314.25 594.4 314.25"/><path class="b" d="M710.61,302.91a38.46,38.46,0,0,0,56.7,0,56.72,56.72,0,0,0,0-73.7,38.46,38.46,0,0,0-56.7,0,56.72,56.72,0,0,0,0,73.7Z"/><path class="a" d="M754.15,240.87a20.88,20.88,0,0,0-30.39,0,39.15,39.15,0,0,0,0,50.38,20.88,20.88,0,0,0,30.39,0,39.12,39.12,0,0,0,0-50.38Z"/><path class="b" d="M712.31,216.74A13.33,13.33,0,1,0,699,203.42,13.33,13.33,0,0,0,712.31,216.74Z"/><path class="b" d="M765,216.74a13.33,13.33,0,1,0-13.33-13.32A13.32,13.32,0,0,0,765,216.74Z"/><path class="b" d="M881.26,314.25H861.41L841,275.13H830.23v39.12H812.66V217.87h37.41a28.63,28.63,0,0,1,9.85,55.52l21.32,40.86Z"/><path class="a" d="M830.23,257.56V235.45h19.84a11.06,11.06,0,1,1,0,22.11Z"/></svg>