<svg xmlns="http://www.w3.org/2000/svg" viewBox="0 0 63.78 35.43"><defs><style>.a{fill:#000;}.b{fill:#fff;}</style></defs><title>M16-1 korkortonline.se</title><rect class="a" width="63.78" height="35.43"/><rect class="b" x="57.71" y="8.61" width="3.04" height="3.04"/><rect class="b" x="57.71" y="23.79" width="3.04" height="3.04"/><rect class="b" x="51.63" y="8.61" width="3.04" height="3.04"/><rect class="b" x="45.56" y="8.61" width="3.04" height="3.04"/><rect class="b" x="39.48" y="8.61" width="3.04" height="3.04"/><rect class="b" x="45.56" y="23.79" width="3.04" height="3.04"/><rect class="b" x="51.63" y="23.79" width="3.04" height="3.04"/><rect class="b" x="39.48" y="23.79" width="3.04" height="3.04"/><rect class="b" x="27.33" y="8.61" width="3.04" height="3.04"/><rect class="b" x="15.19" y="8.61" width="3.04" height="3.04"/><rect class="b" x="21.26" y="8.61" width="3.04" height="3.04"/><rect class="b" x="27.33" y="23.79" width="3.04" height="3.04"/><rect class="b" x="15.19" y="23.79" width="3.04" height="3.04"/><rect class="b" x="21.26" y="23.79" width="3.04" height="3.04"/><rect class="b" x="3.04" y="8.61" width="3.04" height="3.04"/><rect class="b" x="3.04" y="23.79" width="3.04" height="3.04"/><rect class="b" x="9.11" y="8.61" width="3.04" height="3.04"/><rect class="b" x="9.11" y="23.79" width="3.04" height="3.04"/><rect class="b" x="33.41" y="8.61" width="3.04" height="3.04"/><rect class="b" x="33.41" y="23.79" width="3.04" height="3.04"/></svg>