<svg xmlns="http://www.w3.org/2000/svg" viewBox="0 0 63.96 75.32"><defs><style>.a{fill:#000;}.a,.b{stroke:#000;stroke-linecap:round;stroke-linejoin:round;stroke-width:0.18px;}.b{fill:#fff;}</style></defs><title>M17-1 korkortonline.se</title><rect class="a" x="0.09" y="0.09" width="63.78" height="75.14"/><rect class="b" x="59.62" y="51.65" width="4.25" height="4.25"/><rect class="b" x="51.11" y="51.65" width="4.25" height="4.25"/><rect class="b" x="55.36" y="55.91" width="4.25" height="4.25"/><rect class="b" x="42.61" y="51.65" width="4.25" height="4.25"/><rect class="b" x="46.86" y="55.91" width="4.25" height="4.25"/><rect class="b" x="34.1" y="51.65" width="4.25" height="4.25"/><rect class="b" x="38.36" y="55.91" width="4.25" height="4.25"/><rect class="b" x="25.6" y="51.65" width="4.25" height="4.25"/><rect class="b" x="29.85" y="55.91" width="4.25" height="4.25"/><rect class="b" x="17.1" y="51.65" width="4.25" height="4.25"/><rect class="b" x="21.35" y="55.91" width="4.25" height="4.25"/><rect class="b" x="8.59" y="51.65" width="4.25" height="4.25"/><rect class="b" x="12.84" y="55.91" width="4.25" height="4.25"/><rect class="b" x="4.34" y="55.91" width="4.25" height="4.25"/><rect class="b" x="0.09" y="51.65" width="4.25" height="4.25"/><rect class="b" x="59.62" y="15.18" width="4.25" height="4.25"/><rect class="b" x="51.11" y="15.18" width="4.25" height="4.25"/><rect class="b" x="55.36" y="19.44" width="4.25" height="4.25"/><rect class="b" x="42.61" y="15.18" width="4.25" height="4.25"/><rect class="b" x="46.86" y="19.44" width="4.25" height="4.25"/><rect class="b" x="34.1" y="15.18" width="4.25" height="4.25"/><rect class="b" x="38.36" y="19.44" width="4.25" height="4.25"/><rect class="b" x="25.6" y="15.18" width="4.25" height="4.25"/><rect class="b" x="29.85" y="19.44" width="4.25" height="4.25"/><rect class="b" x="17.1" y="15.18" width="4.25" height="4.25"/><rect class="b" x="21.35" y="19.44" width="4.25" height="4.25"/><rect class="b" x="8.59" y="15.18" width="4.25" height="4.25"/><rect class="b" x="12.84" y="19.44" width="4.25" height="4.25"/><rect class="b" x="4.34" y="19.44" width="4.25" height="4.25"/><rect class="b" x="0.09" y="15.18" width="4.25" height="4.25"/></svg>