<svg xmlns="http://www.w3.org/2000/svg" viewBox="0 0 1559.06 2678.63"><defs><style>.a,.b{stroke:#fff;stroke-linecap:square;stroke-miterlimit:10;stroke-width:0;}.b,.c{fill:#fff;}</style></defs><title>M17a-1 korkortonline.se</title><rect class="a" width="1559.06" height="2678.63"/><polygon class="b" points="1062.99 1714.84 1062.99 864.44 1006.3 864.44 1006.3 1714.84 1062.99 1714.84 1062.99 1714.84"/><polygon class="b" points="70.86 751.06 1062.99 751.06 1062.99 864.44 70.86 864.44 70.86 751.06 70.86 751.06"/><polygon class="b" points="1062.99 2055 1006.3 2055 1006.3 1998.31 1062.99 1998.31 1062.99 2055 1062.99 2055"/><polygon class="b" points="1062.99 1941.61 1006.3 1941.61 1006.3 1884.92 1062.99 1884.92 1062.99 1941.61 1062.99 1941.61"/><polygon class="b" points="1062.99 2168.39 1006.3 2168.39 1006.3 2111.69 1062.99 2111.69 1062.99 2168.39 1062.99 2168.39"/><polygon class="b" points="1062.99 1828.22 1006.3 1828.22 1006.3 1771.53 1062.99 1771.53 1062.99 1828.22 1062.99 1828.22"/><polygon class="b" points="1062.99 2395.16 1006.3 2395.16 1006.3 2338.47 1062.99 2338.47 1062.99 2395.16 1062.99 2395.16"/><polygon class="b" points="1062.99 2281.77 1006.3 2281.77 1006.3 2225.08 1062.99 2225.08 1062.99 2281.77 1062.99 2281.77"/><polygon class="b" points="1062.99 2508.55 1006.3 2508.55 1006.3 2451.85 1062.99 2451.85 1062.99 2508.55 1062.99 2508.55"/><path class="c" d="M640.84,454.9a233.4,233.4,0,0,0-8.15,28.86,294.53,294.53,0,0,0-5.9,42.32,317.07,317.07,0,0,0,.15,44.56,278.8,278.8,0,0,0,9,53.44,187,187,0,0,0,18.84,45.8A105.91,105.91,0,0,0,670.07,690a72.24,72.24,0,0,0,10.22,8.66,49.86,49.86,0,0,0,17.76,7.91,38.1,38.1,0,0,0,15.19.39,47.19,47.19,0,0,0,16.69-6.27,84.49,84.49,0,0,0,25.29-25.5,160.54,160.54,0,0,0,17-34.72,241.31,241.31,0,0,0,9.79-36.32,299.12,299.12,0,0,0,4.73-38.77c0-.16,0-.3,0-.46L806,567.1c.11.77.21,1.54.31,2.32a40.18,40.18,0,0,0,.94,5.44c.44,1.95.93,3.89,1.5,5.82a40,40,0,0,0,2.72,6.76c.62,1.13,1.28,2.24,2,3.33a13.69,13.69,0,0,0,1.35,1.85,15,15,0,0,0,1.35,1.51A16.12,16.12,0,0,0,818,595.7a14.37,14.37,0,0,0,2,1.21,10.22,10.22,0,0,0,2.68.76,9.87,9.87,0,0,0,2.24,0,7.44,7.44,0,0,0,2.14-.6,10.34,10.34,0,0,0,2.23-1.23,12.87,12.87,0,0,0,2-1.7,32.32,32.32,0,0,0,2.6-3.12,45.31,45.31,0,0,0,2.48-4.41,61.27,61.27,0,0,0,2.85-7.62c.42-1.56.8-3.12,1.12-4.71a110,110,0,0,0,1.61-20.09,98.65,98.65,0,0,0-1.12-10l85.32-159.65,9.16,36.1a162.83,162.83,0,0,0-16.47,34.27,235.15,235.15,0,0,0-8.15,28.86,294.53,294.53,0,0,0-5.9,42.32,318.73,318.73,0,0,0,.15,44.57,280.4,280.4,0,0,0,9,53.43,187.12,187.12,0,0,0,18.84,45.81A106.26,106.26,0,0,0,948,690a72.24,72.24,0,0,0,10.22,8.66A49.51,49.51,0,0,0,976,706.6a38.1,38.1,0,0,0,15.19.39,46.92,46.92,0,0,0,16.69-6.27,84.4,84.4,0,0,0,25.3-25.5,160,160,0,0,0,17-34.72,240.13,240.13,0,0,0,9.79-36.32,300.87,300.87,0,0,0,4.73-38.77,319.43,319.43,0,0,0-.08-37.77,301,301,0,0,0-4.42-36A222.77,222.77,0,0,0,1043.56,438a132.82,132.82,0,0,0-16.39-26.81,79.91,79.91,0,0,0-14.88-14.4,57.4,57.4,0,0,0-8.32-5.07,47.78,47.78,0,0,0-6.85-2.75A41.1,41.1,0,0,0,981,387.19a41.54,41.54,0,0,0-8.61,1.7,47.54,47.54,0,0,0-8.63,3.6,64.38,64.38,0,0,0-15.65,11.94l-36-138a67.26,67.26,0,0,0,4.32-7.25,52.33,52.33,0,0,0,4.12-12.67,42,42,0,0,0,.3-13.74,44.81,44.81,0,0,0-2.19-9.78,41.45,41.45,0,0,0-4.23-9.2,47.08,47.08,0,0,0-7.25-9.1,49.14,49.14,0,0,0-5.59-4.8,65.94,65.94,0,0,0-5.65-3.48,64.23,64.23,0,0,0-6.8-3,35.11,35.11,0,0,0-5.07-1.37A39.63,39.63,0,0,0,873.88,191a32.58,32.58,0,0,0-5.32.24,40.19,40.19,0,0,0-7.29,1.36,59.21,59.21,0,0,0-7.54,2.78,67.7,67.7,0,0,0-6.64,3.75,12.79,12.79,0,0,0-3.27,3,8.2,8.2,0,0,0-2.18,3.82,10.23,10.23,0,0,0-.62,4.71,12.73,12.73,0,0,0,1,4,11,11,0,0,0,3.41,4.57,13.57,13.57,0,0,0,4.31,2.33,12.06,12.06,0,0,0,6.58.16l19.85-5.11a25.44,25.44,0,0,1,7.58-.64,20.54,20.54,0,0,1,9.32,3.59,19,19,0,0,1,6.77,7.06,21.15,21.15,0,0,1,2.69,9.31,23.67,23.67,0,0,1-1,7.8,24,24,0,0,1-4,7.09,13,13,0,0,0-2.89,6.57,9.37,9.37,0,0,0,.08,3c.07.5.16,1,.23,1.49l16.36,64.43H772.12l-7.31-27.93,41-27.15a12.66,12.66,0,0,0,5.28-7.49,12.32,12.32,0,0,0-13.4-15l-74.59,8.18a17,17,0,0,0-6.22,31.9L750,306.66l9.36,35.77L740.7,402a76.77,76.77,0,0,0-6.32-5.22,57.84,57.84,0,0,0-8.31-5.07,48.85,48.85,0,0,0-6.86-2.75,41.17,41.17,0,0,0-16.16-1.78,42.66,42.66,0,0,0-8.59,1.68,48.86,48.86,0,0,0-8.64,3.62,64.58,64.58,0,0,0-15.66,11.93,104.47,104.47,0,0,0-12.85,16.19A163,163,0,0,0,640.84,454.9Z"/><path d="M828.39,519.29c-.25-.15-.48-.28-.75-.41a7.34,7.34,0,0,0-1.62-.62c-.39-.1-.8-.19-1.2-.26a7.56,7.56,0,0,0-2.51,0l-44-168.29h139l2.5,9.9L832.49,522.93A15.49,15.49,0,0,0,828.39,519.29Z"/><path d="M806.92,542.4a62,62,0,0,1,2.42-9.08l-42.14-161-13.88,44.28A132.63,132.63,0,0,1,765.65,438a223.66,223.66,0,0,1,16.63,53.62,298.68,298.68,0,0,1,4.41,36q.39,6.25.53,12.55Z"/><path d="M668.45,464.4A110.82,110.82,0,0,0,660,481a160.61,160.61,0,0,0-10.46,41.41,201.38,201.38,0,0,0-1.11,37.63,186.86,186.86,0,0,0,4.67,31.57A145.68,145.68,0,0,0,662.07,618a99.54,99.54,0,0,0,9.45,16.54,62.66,62.66,0,0,0,14,14.42,39.21,39.21,0,0,0,13.18,6.37,33.31,33.31,0,0,0,23.16-2.62,53.34,53.34,0,0,0,15.86-12.87,86.22,86.22,0,0,0,10.59-15.69,138.14,138.14,0,0,0,12.54-34.79,190,190,0,0,0,4-26.85l-41-4.61a35.42,35.42,0,0,1-1.07,3.46,26.59,26.59,0,0,1-1.93,4.53,23.86,23.86,0,0,1-2.93,4.44,11.18,11.18,0,0,1-2.39,2.56,15.78,15.78,0,0,1-1.75,1.4c-.49.32-1,.62-1.5.89a17.54,17.54,0,0,1-1.83.81c-.63.18-1.27.35-1.91.48a10.66,10.66,0,0,1-2,.14,9,9,0,0,1-2.37-.23,9.64,9.64,0,0,1-1.57-.44,11.6,11.6,0,0,1-1.5-.63c-.44-.24-.89-.49-1.33-.75s-1.09-.76-1.6-1.17a17.85,17.85,0,0,1-1.69-1.55c-.63-.71-1.24-1.43-1.85-2.17a27.19,27.19,0,0,1-2.59-4.34,34.17,34.17,0,0,1-1.62-3.73c-.23-.65-.45-1.29-.65-2a29.26,29.26,0,0,1-1.1-4.43c-.22-1.1-.4-2.22-.52-3.33s-.21-2-.27-3c-.07-1.3-.08-2.62,0-3.92a51.32,51.32,0,0,1,.49-5.82,36,36,0,0,1,4.28-13.39,24.83,24.83,0,0,1,1.46-2.35,22,22,0,0,1,2.77-3.33,17.94,17.94,0,0,1,3.32-2.61,11.56,11.56,0,0,1,5-1.78l22.25-70.93a48.28,48.28,0,0,0-13.92-6.07,34.16,34.16,0,0,0-21.44,3,50.39,50.39,0,0,0-13.76,10.28A86.58,86.58,0,0,0,668.45,464.4Z"/><path d="M740.55,457.32l-21,67a29.5,29.5,0,0,1,3.82,8.74l42.18,4.72a196.45,196.45,0,0,0-4.36-32.84,120.67,120.67,0,0,0-19.41-45.8C741.36,458.52,741,457.93,740.55,457.32Z"/><path d="M926.39,560.18a186.86,186.86,0,0,0,4.67,31.57A143.74,143.74,0,0,0,940,618.1a99.23,99.23,0,0,0,9.45,16.54,63.19,63.19,0,0,0,13.94,14.42,39.49,39.49,0,0,0,13.2,6.37,33.31,33.31,0,0,0,23.16-2.63,53.3,53.3,0,0,0,15.86-12.86,88.21,88.21,0,0,0,10.59-15.7,155,155,0,0,0,16-57,197.94,197.94,0,0,0-3.58-62.31,120.94,120.94,0,0,0-19.41-45.79,48.31,48.31,0,0,0-28.41-20.48,36.77,36.77,0,0,0-31.25,9.82l17.64,67.55a10.83,10.83,0,0,1,2.36-1.3A10.31,10.31,0,0,1,982,514a9.27,9.27,0,0,1,2.92-.2,12.54,12.54,0,0,1,3.82.86,16.44,16.44,0,0,1,6,4.32,27,27,0,0,1,4.26,6.41,43.64,43.64,0,0,1,2.15,5.68,38.63,38.63,0,0,1,1.49,7.13,55.09,55.09,0,0,1,.37,8,33.3,33.3,0,0,1-.33,3.87,32.55,32.55,0,0,1-1.11,6,33.26,33.26,0,0,1-2.56,7.14,34.13,34.13,0,0,1-2.41,4.08,27.74,27.74,0,0,1-2.91,3.41,19.09,19.09,0,0,1-2.51,2c-.52.33-1.07.63-1.62.91a15.1,15.1,0,0,1-2.13.81,13.28,13.28,0,0,1-3.71.4,17.23,17.23,0,0,1-3.28-.6,18.51,18.51,0,0,1-5.27-3.17,24.67,24.67,0,0,1-4.22-5.29,28.4,28.4,0,0,1-2.17-4.21,43.26,43.26,0,0,1-2.09-6.57,41.38,41.38,0,0,1-1-6.74,36.71,36.71,0,0,1,0-7.63l-19.34-76.12a110.39,110.39,0,0,0-8.42,16.63,161.3,161.3,0,0,0-10.45,41.41A201.27,201.27,0,0,0,926.39,560.18Z"/></svg>