<svg xmlns="http://www.w3.org/2000/svg" viewBox="0 0 116.93 35.43"><defs><style>.a{fill:#000;}.b{fill:#7c868d;}.c{fill:#ffce00;}</style></defs><title>M22-1 korkortonline.se</title><rect class="a" width="116.93" height="35.43"/><polygon class="b" points="116.93 35.43 0 35.43 0 26.05 21.26 26.05 21.26 28.54 31.89 28.54 31.89 26.05 42.52 26.05 42.52 28.54 53.15 28.54 53.15 26.05 63.78 26.05 63.78 28.54 74.41 28.54 74.41 26.05 85.04 26.05 85.04 28.54 95.67 28.54 95.67 26.05 116.93 26.05 116.93 35.43"/><rect class="c" x="63.78" y="26.05" width="10.63" height="2.48"/><rect class="c" x="42.52" y="26.05" width="10.63" height="2.48"/><rect class="c" x="21.26" y="26.05" width="10.63" height="2.48"/><rect class="c" x="85.04" y="26.05" width="10.63" height="2.48"/></svg>