<svg xmlns="http://www.w3.org/2000/svg" viewBox="0 0 63.78 73.7"><defs><style>.a{fill:#000;}.b{fill:#fff;}</style></defs><title>M27-1 korkortonline.se</title><rect class="a" width="63.78" height="73.7"/><path class="b" d="M19.4,40.11a3.22,3.22,0,0,1,.13-.6l.12-.84c.05-.44.09-.87.13-1.3,0-.26,0-.53.07-.79q.3-1.5.66-3c.37-1.34.73-2.69,1.07-4,.26-.84.52-1.68.8-2.51a3.08,3.08,0,0,1,.5-1.05,2.81,2.81,0,0,1,.89-.86,16.72,16.72,0,0,1,2.38-.92,2.54,2.54,0,0,0,.46-.17,2.48,2.48,0,0,0,.58-.49.84.84,0,0,0,.12-.23s0,0,0-.06,0,0,0-.05a4,4,0,0,0,.07-1c0-.21,0-.42,0-.62a.33.33,0,0,0,0-.17,5.41,5.41,0,0,1-.69-2.18,5.88,5.88,0,0,1,.16-1.87c.05-.21.11-.43.18-.64a1.87,1.87,0,0,1,.35-.57,2.48,2.48,0,0,1,.88-.69,3.3,3.3,0,0,1,2-.35,2.56,2.56,0,0,1,1.14.48,2.73,2.73,0,0,1,.25.23,3.8,3.8,0,0,1,.54.77s0,.07,0,.11a1.39,1.39,0,0,1,.06.4l0,.22a5.2,5.2,0,0,1-.2.75,6.49,6.49,0,0,1,0,1.46c0,.23-.07.47-.12.7a1.88,1.88,0,0,1-.14.42,2,2,0,0,1-.1.48.51.51,0,0,1-.09.16,2.12,2.12,0,0,1-.44.41L30.8,22a1,1,0,0,1-.21.07,9.91,9.91,0,0,0-.08,1.72.79.79,0,0,0,.24.48,9.83,9.83,0,0,0,1.77,1.05,1.63,1.63,0,0,1,.66.44,3.31,3.31,0,0,1,.51.85,10.47,10.47,0,0,1,.45,2.07q.3,2.1.54,4.2c0,.48.1,1,.13,1.46a5.55,5.55,0,0,0,.13.71,14.47,14.47,0,0,1,.33,1.86c.09.18.17.37.25.55.17.4.33.79.48,1.2a1.28,1.28,0,0,1,0,.27,2.83,2.83,0,0,1,0,.41v0c0,.17-.09.34-.14.52a8.72,8.72,0,0,0,.24,1,.46.46,0,0,0,.21.28,9.93,9.93,0,0,0,1.83.64,2.3,2.3,0,0,0,.78-.07,1.42,1.42,0,0,0,.2-.41A.39.39,0,0,0,39,41l-.26-.16a1.19,1.19,0,0,1-.49-.69,1,1,0,0,1,0-.63c0-.15.07-.29.1-.43a.31.31,0,0,0,0-.19.36.36,0,0,0,0-.09h0a1.17,1.17,0,0,1-.1-.26,1.74,1.74,0,0,1,.15-1.12,1.41,1.41,0,0,1,.66-.74,2.59,2.59,0,0,1,2-.24,2,2,0,0,1,.88.41.58.58,0,0,1,.13.14,2.16,2.16,0,0,1,.35,1.08,5.73,5.73,0,0,1-.26,1.42,8.67,8.67,0,0,1-.92,1.69l-.12.14a.27.27,0,0,0,0,.21,2.63,2.63,0,0,0,.06.39.14.14,0,0,0,.06.12l0,0,.08.08a5,5,0,0,1,.89,1.38,4.35,4.35,0,0,1,.42,1c.5,1.48,1,3,1.47,4.46a2.06,2.06,0,0,1,.12.26c0,.12.1.24.14.37s0,.3.07.45a.29.29,0,0,1,0,.09.49.49,0,0,1-.22.23.67.67,0,0,1-.42,0,.6.6,0,0,1-.22-.16.25.25,0,0,1-.08-.12,2,2,0,0,1-.1-.4,3.23,3.23,0,0,1,0-.44l-.59-1.08-.91-1.67a13.22,13.22,0,0,0,.41,3.7,5.15,5.15,0,0,1-1,.65l.2,2.13.17,1.83a.39.39,0,0,1,.15-.06.42.42,0,0,1,.48.25.5.5,0,0,1,0,.12v0a7.28,7.28,0,0,1-.65.92.6.6,0,0,1-.23.19,1.15,1.15,0,0,1-.31.11.17.17,0,0,1-.14,0s0,0,0,0L39.42,51.5a4.46,4.46,0,0,1-.73,0l-.37,5.21a.75.75,0,0,1-.3.51l0,0a.53.53,0,0,1-.21.11,2,2,0,0,1-.42,0,1,1,0,0,1-.23-.07l-.88-.62a.33.33,0,0,1-.08-.36.59.59,0,0,1,.34-.37.7.7,0,0,1,.38,0,.39.39,0,0,1,.17.14h0l0,0-.67-5a5.61,5.61,0,0,1-1.38-.7c.56-1.32,1.07-2.67,1.51-4q.12-.46.21-.93c0-.26.08-.52.13-.78a1.92,1.92,0,0,0-.17-1l0,0a5.54,5.54,0,0,0-.57-.71c-.19-.21-.39-.41-.59-.61a2.09,2.09,0,0,1-.35-.49,4.28,4.28,0,0,1-.2-.44,1.47,1.47,0,0,1,0-.36c0-.44,0-.87.06-1.31-.12-.37-.24-.74-.38-1.1a3.35,3.35,0,0,0,0-.55c-.15-.23-.3-.45-.47-.67s-.35-.48-.51-.72A11.27,11.27,0,0,1,33,35.17a4.32,4.32,0,0,1-.23-.8,6.07,6.07,0,0,0-.13-.94c-.15-.59-.33-1.17-.53-1.74L32,40.07l-.83.4.27,5.08-.91,6.07a.6.6,0,0,1,.42-.16.58.58,0,0,1,.41.2.82.82,0,0,1,.09.77,2.15,2.15,0,0,1-.47.76,14.45,14.45,0,0,1-1.13,1.22,2,2,0,0,1-.66.46,1.49,1.49,0,0,1-.42.08.27.27,0,0,1-.19-.14,2.35,2.35,0,0,1-.22-.45,3.18,3.18,0,0,1-.06-.62c0-.26,0-.51,0-.77.05-.61.1-1.21.16-1.82,0-.88.07-1.76.07-2.64s-.07-1.53-.14-2.29l-.6-5.47h-.46q-.52,7.52-1.11,15a4.75,4.75,0,0,1-.45,1.28.69.69,0,0,1-.6.38,1,1,0,0,1-.92-.39,8.93,8.93,0,0,1-1.35-2.62.69.69,0,0,1,0-.49,1.41,1.41,0,0,1,.34-.39.5.5,0,0,1,.36-.09,2.67,2.67,0,0,1,.36.14l-.5-13.49-.56-.25.24-2.94q.33-3,.67-6.08c-.16.41-.32.81-.5,1.21s-.28.7-.44,1q-.51,1.19-.93,2.4c-.2.63-.39,1.26-.58,1.88s-.32,1.13-.47,1.7A4.29,4.29,0,0,1,21,40a4.36,4.36,0,0,1-.17,1,1.14,1.14,0,0,1-.15.34,2.11,2.11,0,0,1-.35.38l-.06,0a.56.56,0,0,1-.4,0,.81.81,0,0,1-.55-.79A4.17,4.17,0,0,1,19.4,40.11Z"/></svg>