<svg xmlns="http://www.w3.org/2000/svg" viewBox="0 0 63.78 73.7"><defs><style>.a{fill:#000;}.b{fill:#fff;}</style></defs><title>M28-1 korkortonline.se</title><rect class="a" width="63.78" height="73.7"/><path class="b" d="M38.4,37.15a23.05,23.05,0,0,0-2.19-2.23,3.58,3.58,0,0,1-1.12-2A7,7,0,0,1,35,31.86a6.47,6.47,0,0,1,.09-1.24,3.87,3.87,0,0,1,.27-.92,2.18,2.18,0,0,1,.52-.72.68.68,0,0,1,.47-.19.64.64,0,0,1,.47.17,2.09,2.09,0,0,1,.55.7,4.1,4.1,0,0,1,.32.91,6.45,6.45,0,0,1,.14,1.16l1.29-1.88c0-.24-.07-.48-.12-.73a9.27,9.27,0,0,0-.62-2,5,5,0,0,0-1.12-1.57,1.47,1.47,0,0,0-2,0,4.85,4.85,0,0,0-1.12,1.57,8.28,8.28,0,0,0-.62,2,14.54,14.54,0,0,0-.25,2.71v.85a7.22,7.22,0,0,0,2.55,5.24,11.27,11.27,0,0,1,1.24,1.52,3.15,3.15,0,0,1,.33.53,5.14,5.14,0,0,1,.3.94,7.33,7.33,0,0,1,0,2.53,4.91,4.91,0,0,1-.3.94,2.29,2.29,0,0,1-.53.73.69.69,0,0,1-.47.18.66.66,0,0,1-.47-.18,2.17,2.17,0,0,1-.54-.73,4.27,4.27,0,0,1-.29-.94A6.33,6.33,0,0,1,35,42.21l-1.63,2.38.06.3a8.49,8.49,0,0,0,.67,2,4.87,4.87,0,0,0,1.2,1.57,1.68,1.68,0,0,0,2.19,0,4.86,4.86,0,0,0,1.21-1.56,9.18,9.18,0,0,0,.69-2,13.86,13.86,0,0,0,.27-2.72,13.16,13.16,0,0,0-.26-2.73,8.63,8.63,0,0,0-.29-1.11A3.76,3.76,0,0,0,38.4,37.15Z"/><path class="b" d="M31.31,44.28a11.09,11.09,0,0,1-.67,2.33,5.67,5.67,0,0,1-1.22,1.86,1.45,1.45,0,0,1-2.06,0,5.69,5.69,0,0,1-1.23-1.86,11.07,11.07,0,0,1-.66-2.33,18.79,18.79,0,0,1-.27-3.18V25.51h1.56V42.59a4.14,4.14,0,0,0,.13,1,2.6,2.6,0,0,0,.35.8,1.92,1.92,0,0,0,.57.6,1.06,1.06,0,0,0,.58.17A1.12,1.12,0,0,0,29,45a2,2,0,0,0,.57-.6,2.58,2.58,0,0,0,.34-.8,4.15,4.15,0,0,0,.14-1V25.51h1.56V41.1A18.79,18.79,0,0,1,31.31,44.28Z"/><path class="b" d="M22.58,30.12a9.35,9.35,0,0,1-1.07,5.24,8.82,8.82,0,0,1,1.7,5A10,10,0,0,1,20.82,48a.73.73,0,0,1-.54.24H16.77V25.51h3.61a.72.72,0,0,1,.58.3A8.84,8.84,0,0,1,22.58,30.12Z"/><path class="b" d="M45.84,37.15a21,21,0,0,0-2.19-2.23,3.58,3.58,0,0,1-1.12-2,7,7,0,0,1-.12-1.11,6.47,6.47,0,0,1,.09-1.24,4.39,4.39,0,0,1,.27-.92,2.18,2.18,0,0,1,.52-.72.68.68,0,0,1,.47-.19.64.64,0,0,1,.47.17,2.09,2.09,0,0,1,.55.7,4.1,4.1,0,0,1,.32.91,6.45,6.45,0,0,1,.14,1.16l1.29-1.88c0-.24-.07-.48-.12-.73a8.28,8.28,0,0,0-.62-2,4.85,4.85,0,0,0-1.12-1.57,1.47,1.47,0,0,0-2,0,4.85,4.85,0,0,0-1.12,1.57,8.28,8.28,0,0,0-.62,2,14.54,14.54,0,0,0-.25,2.71v.85a7.22,7.22,0,0,0,2.55,5.24,11.27,11.27,0,0,1,1.24,1.52,2.62,2.62,0,0,1,.33.53,4,4,0,0,1,.3.94,7.33,7.33,0,0,1,0,2.53,3.82,3.82,0,0,1-.3.94,2.29,2.29,0,0,1-.53.73.69.69,0,0,1-.47.18.67.67,0,0,1-.47-.18,2,2,0,0,1-.53-.73,3.82,3.82,0,0,1-.3-.94,6.33,6.33,0,0,1-.12-1.23l-1.63,2.38.06.3a8.49,8.49,0,0,0,.67,2,4.87,4.87,0,0,0,1.2,1.57,1.68,1.68,0,0,0,2.19,0,4.73,4.73,0,0,0,1.21-1.56,9.18,9.18,0,0,0,.69-2,13.89,13.89,0,0,0,0-5.45,10.7,10.7,0,0,0-.3-1.11A3.76,3.76,0,0,0,45.84,37.15Z"/><path class="a" d="M20.1,44.5H18.33v-7H20.1a.67.67,0,0,1,.48.2,2.41,2.41,0,0,1,.57.83,4.7,4.7,0,0,1,.31,1,8.52,8.52,0,0,1,0,2.85,4.79,4.79,0,0,1-.31,1.06,2.62,2.62,0,0,1-.57.83A.71.71,0,0,1,20.1,44.5Z"/><path class="a" d="M20.61,33.65a2.38,2.38,0,0,1-.37.66.38.38,0,0,1-.29.13H18.33V29.06H20a.35.35,0,0,1,.29.13,2.33,2.33,0,0,1,.37.65,4.34,4.34,0,0,1,.19.81,7.6,7.6,0,0,1,0,2.2A4.43,4.43,0,0,1,20.61,33.65Z"/></svg>