<svg xmlns="http://www.w3.org/2000/svg" viewBox="0 0 63.78 73.7"><defs><style>.a{fill:#000;}.b{fill:#fff;}</style></defs><title>M29-1 korkortonline.se</title><rect class="a" width="63.78" height="73.7"/><ellipse class="b" cx="31.89" cy="36.85" rx="14.88" ry="22.68"/><path class="a" d="M31.89,20.55c-6.65,0-12,7.3-12,16.3s5.4,16.3,12.05,16.3,12-7.3,12-16.3S38.54,20.55,31.89,20.55Z"/><path class="b" d="M40.47,41.78a34.9,34.9,0,0,0,0-9.86,19.4,19.4,0,0,0-.88-3.59,9.49,9.49,0,0,0-1.65-2.92,1.69,1.69,0,0,0-2.6,0,9.32,9.32,0,0,0-1.66,2.92,19.37,19.37,0,0,0-.87,3.59,34.9,34.9,0,0,0,0,9.86,19.37,19.37,0,0,0,.87,3.59,9.1,9.1,0,0,0,1.66,2.92,1.69,1.69,0,0,0,2.6,0,9.27,9.27,0,0,0,1.65-2.92A19.4,19.4,0,0,0,40.47,41.78Z"/><path class="b" d="M26.66,29.25a1.29,1.29,0,0,1,.68-.23,1.33,1.33,0,0,1,.7.16,2.44,2.44,0,0,1,.7.62,3.18,3.18,0,0,1,.45.88A4.53,4.53,0,0,1,29.31,33a3,3,0,0,1-.36.92,2.22,2.22,0,0,1-.64.69,1.32,1.32,0,0,1-.8.23h-.66V38h.78a.86.86,0,0,1,.57.21,2.37,2.37,0,0,1,.63.81A3.84,3.84,0,0,1,29.19,40a7.3,7.3,0,0,1,.14,1.4,7.49,7.49,0,0,1-.14,1.41,4.08,4.08,0,0,1-.36,1.05,2.33,2.33,0,0,1-.63.8.88.88,0,0,1-1.14,0,2.33,2.33,0,0,1-.63-.8,4.08,4.08,0,0,1-.36-1.05,7.71,7.71,0,0,1-.14-1.26L23.81,42a14.16,14.16,0,0,0,.31,2.44A8.87,8.87,0,0,0,25,46.63a5.26,5.26,0,0,0,1.41,1.7,2.2,2.2,0,0,0,1.34.46A2.15,2.15,0,0,0,29,48.33a5.42,5.42,0,0,0,1.42-1.7,8.85,8.85,0,0,0,.82-2.24,13.94,13.94,0,0,0,0-5.94,9,9,0,0,0-.82-2.24l-.1-.17A7.68,7.68,0,0,0,31,34.25a11.74,11.74,0,0,0,0-5.36,7.8,7.8,0,0,0-.77-2,4.89,4.89,0,0,0-1.33-1.53,2.16,2.16,0,0,0-2.56,0A4.89,4.89,0,0,0,25,26.86a7.8,7.8,0,0,0-.77,2,12.1,12.1,0,0,0-.3,2.68V32l1.64.3c0-.08,0-.17,0-.26a4.52,4.52,0,0,1,.1-1.16,3.15,3.15,0,0,1,.36-.92A2.19,2.19,0,0,1,26.66,29.25Z"/><path class="a" d="M35.94,44.43a.87.87,0,0,0,.7.36.89.89,0,0,0,.7-.36,7,7,0,0,0,.95-2,14.66,14.66,0,0,0,.49-2.37,27.16,27.16,0,0,0,0-6.58,14.66,14.66,0,0,0-.49-2.37,7,7,0,0,0-.95-2,.89.89,0,0,0-.7-.36.87.87,0,0,0-.7.36,6.78,6.78,0,0,0-1,2,14.64,14.64,0,0,0-.48,2.37,27.16,27.16,0,0,0,0,6.58A14.64,14.64,0,0,0,35,42.44,6.78,6.78,0,0,0,35.94,44.43Z"/></svg>