<svg xmlns="http://www.w3.org/2000/svg" viewBox="0 0 727.33 840.47"><defs><style>.a{fill:#000;}.b{fill:#fff;}</style></defs><title>M30 korkortonline.se</title><rect class="a" width="727.33" height="840.47"/><polygon class="b" points="424.28 502.67 424.28 549.54 443.67 549.54 443.67 502.67 460.64 502.67 460.64 462.26 443.67 462.26 443.67 290.93 417.81 290.93 362.86 454.99 362.86 502.67 424.28 502.67"/><polygon class="a" points="383.05 462.26 424.28 462.26 424.28 339.19 383.05 462.26"/><polygon class="b" points="284.47 506.71 284.47 441.25 321.64 441.25 321.64 399.23 284.47 399.23 284.47 333.77 327.3 333.77 327.3 290.93 266.69 290.93 266.69 549.54 327.3 549.54 327.3 506.71 284.47 506.71"/></svg>