<svg xmlns="http://www.w3.org/2000/svg" viewBox="0 0 63.78 73.7"><defs><style>.a{fill:#000;}.b{fill:#fff;}</style></defs><title>M34-1 korkortonline.se</title><rect class="a" width="63.78" height="73.7"/><polygon class="b" points="49.71 48.19 51.27 48.19 48.58 25.51 46.59 25.51 43.9 48.19 45.46 48.19 46.05 43.94 49.13 43.94 49.71 48.19"/><polygon class="b" points="21.15 25.51 21.15 48.19 22.71 48.19 22.71 41.63 23.7 38.16 25.9 48.19 27.6 48.19 24.67 34.8 27.32 25.51 25.62 25.51 22.71 35.68 22.71 25.51 21.15 25.51"/><path class="b" d="M18,37.15a21.85,21.85,0,0,0-2.18-2.23,3.59,3.59,0,0,1-1.13-2,7,7,0,0,1-.12-1.11,6.31,6.31,0,0,1,.09-1.23,4.33,4.33,0,0,1,.28-.93,2.15,2.15,0,0,1,.51-.72.7.7,0,0,1,.47-.19.65.65,0,0,1,.48.17,2.06,2.06,0,0,1,.54.7,3.51,3.51,0,0,1,.32.91,6.46,6.46,0,0,1,.15,1.16l1.28-1.88c0-.24-.07-.48-.11-.73a8.77,8.77,0,0,0-.63-2,4.71,4.71,0,0,0-1.12-1.57,1.48,1.48,0,0,0-1-.38,1.45,1.45,0,0,0-1,.38,4.88,4.88,0,0,0-1.13,1.57,9.27,9.27,0,0,0-.62,2,15.44,15.44,0,0,0-.25,2.71v.85a7.26,7.26,0,0,0,2.55,5.24,11.35,11.35,0,0,1,1.25,1.52A3.11,3.11,0,0,1,17,40a4,4,0,0,1,.3.94,6.73,6.73,0,0,1,0,2.53,3.82,3.82,0,0,1-.3.94,2,2,0,0,1-.53.73.7.7,0,0,1-.94,0,2.14,2.14,0,0,1-.53-.73,3.82,3.82,0,0,1-.3-.94,7.22,7.22,0,0,1-.12-1.23l-1.62,2.38c0,.1,0,.2.05.3a8.66,8.66,0,0,0,.68,2,4.73,4.73,0,0,0,1.2,1.57,1.67,1.67,0,0,0,2.18,0,4.83,4.83,0,0,0,1.21-1.56,8.25,8.25,0,0,0,.69-2,13.87,13.87,0,0,0,.28-2.72A14.68,14.68,0,0,0,19,39.46a10.7,10.7,0,0,0-.3-1.11A3.76,3.76,0,0,0,18,37.15Z"/><path class="b" d="M31.11,25.8a9.13,9.13,0,0,0-1.59,2.88,19.54,19.54,0,0,0-.82,3.52,34.76,34.76,0,0,0,0,9.7,19.54,19.54,0,0,0,.82,3.52,9.13,9.13,0,0,0,1.59,2.88,1.57,1.57,0,0,0,2.44,0,9.13,9.13,0,0,0,1.59-2.88A19.54,19.54,0,0,0,36,41.9a34.76,34.76,0,0,0,0-9.7,19.54,19.54,0,0,0-.82-3.52,9.13,9.13,0,0,0-1.59-2.88,1.57,1.57,0,0,0-2.44,0Z"/><polygon class="b" points="42.67 48.19 42.67 44.43 39.62 44.43 39.62 25.51 38.06 25.51 38.06 48.19 42.67 48.19"/><polygon class="a" points="46.49 40.75 47.59 32.81 48.68 40.75 46.49 40.75"/><path class="a" d="M32.33,45.7a.87.87,0,0,0,.71-.38,7.18,7.18,0,0,0,1-2.16,15.89,15.89,0,0,0,.51-2.56,31.61,31.61,0,0,0,0-7.1A15.89,15.89,0,0,0,34,30.94a7.18,7.18,0,0,0-1-2.16.85.85,0,0,0-1.42,0,7.43,7.43,0,0,0-1,2.16,15.89,15.89,0,0,0-.51,2.56,31.61,31.61,0,0,0,0,7.1,15.89,15.89,0,0,0,.51,2.56,7.43,7.43,0,0,0,1,2.16A.87.87,0,0,0,32.33,45.7Z"/></svg>