<svg xmlns="http://www.w3.org/2000/svg" viewBox="0 0 116.93 35.43"><defs><style>.a{fill:#000;}.b{fill:#fff;}</style></defs><title>M4-1 korkortonline.se</title><rect class="a" width="116.93" height="35.43"/><rect class="b" x="113.39" y="17.1" width="3.54" height="1.24"/><rect class="b" x="99.21" y="17.1" width="3.54" height="1.24"/><rect class="b" x="106.3" y="17.1" width="3.54" height="1.24"/><rect class="b" x="92.13" y="17.1" width="3.54" height="1.24"/><rect class="b" x="77.95" y="17.1" width="3.54" height="1.24"/><rect class="b" x="85.04" y="17.1" width="3.54" height="1.24"/><rect class="b" x="70.87" y="17.1" width="3.54" height="1.24"/><rect class="b" x="63.78" y="17.1" width="3.54" height="1.24"/><rect class="b" x="56.69" y="17.1" width="3.54" height="1.24"/><rect class="b" x="42.52" y="17.1" width="3.54" height="1.24"/><rect class="b" x="35.43" y="17.1" width="3.54" height="1.24"/><rect class="b" x="21.26" y="17.1" width="3.54" height="1.24"/><rect class="b" x="7.09" y="17.1" width="3.54" height="1.24"/><rect class="b" x="14.17" y="17.1" width="3.54" height="1.24"/><rect class="b" x="28.35" y="17.1" width="3.54" height="1.24"/><rect class="b" x="49.61" y="17.1" width="3.54" height="1.24"/><rect class="b" y="17.1" width="3.54" height="1.24"/></svg>