<svg xmlns="http://www.w3.org/2000/svg" viewBox="0 0 802.81 634.15"><defs><style>.a{fill:#7c868d;}.a,.c,.e,.f,.g{stroke:#000;stroke-linecap:round;stroke-linejoin:round;stroke-width:3px;}.b,.e{fill:#000;}.c{fill:none;}.d,.g{fill:#fff;}.f{fill:#b5c0c7;}</style></defs><title>P10-1 korkortonline.se</title><polyline class="a" points="17.45 421.88 17.87 443.54 19.95 455.62 181.6 454.37 182.43 450.2 179.1 419.38 17.45 421.88"/><polyline class="a" points="496.98 448.54 498.64 414.8 655.71 412.31 656.12 420.22 652.79 446.45 496.98 448.54"/><path class="a" d="M644.46,473.52,32,479.35A29.11,29.11,0,0,1,7.87,471a33.22,33.22,0,0,0-5.41,27.48l.41,2.5A44.52,44.52,0,0,0,38.7,554.73l15.42.84,216.64-.42,260-4.16,114.16-5.42a68,68,0,0,0,20-82.46A22.79,22.79,0,0,1,644.46,473.52Z"/><polygon class="b" points="438.56 215.79 428.31 215.4 426.75 215.46 428.05 213.2 427.79 210.34 430.38 206.06 426.75 207.62 425.32 210.08 422.72 212.81 419.74 212.94 421.69 210.73 422.33 207.36 423.5 205.54 423.76 203.59 420.39 199.7 427.92 193.21 425.97 192.95 419.74 195.81 417.66 195.54 415.71 192.95 413.25 192.95 411.82 193.34 409.61 193.08 409.35 190.87 407.27 188.54 411.69 182.96 417.79 175.56 426.49 169.2 432.2 165.17 440.38 161.15 445.19 158.43 446.48 157.52 449.34 156.61 459.21 152.71 461.68 151.55 463.75 151.42 465.18 151.55 468.17 152.06 472.71 152.32 475.7 152.19 477.77 151.55 479.07 151.81 480.5 152.32 480.76 158.03 481.67 158.16 482.32 158.56 483.1 160.11 482.58 161.15 480.89 162.06 479.07 162.84 474.53 165.56 463.88 172.05 456.09 176.21 451.42 178.54 449.21 180.49 445.19 181.79 443.76 183.6 439.47 186.07 439.6 186.85 443.63 185.29 449.34 182.57 452.72 180.36 458.17 176.99 464.53 173.74 470.25 170.37 473.75 167.64 478.04 165.3 480.37 163.49 482.84 163.49 485.05 167.51 488.94 170.11 493.88 172.31 500.24 174.13 505.56 174.65 509.07 175.04 508.16 178.02 506.6 180.23 498.55 183.86 495.17 185.16 489.72 185.55 487.12 186.33 487.25 187.76 492.84 188.28 492.58 189.83 483.75 193.21 479.46 193.47 478.04 195.03 471.41 195.81 468.95 195.81 468.04 193.47 463.1 193.73 455.7 194.9 451.55 196.06 447.39 199.05 445.58 201 445.83 207.23 445.58 210.08 444.67 212.29 438.82 214.88 438.56 215.79"/><line class="c" x1="334.37" y1="341.09" x2="338.68" y2="341.09"/><path class="c" d="M330.57,339.82a5.57,5.57,0,0,0,1.17,4.37"/><path class="c" d="M331.71,339.66A4.49,4.49,0,0,0,333,344"/><path class="b" d="M118.31,293.94l-4.09,10.42.84,1.94h12.47a9,9,0,0,1,7.46-8.49l31.26-.42,2.71,0,20.47-.94,1.52-.85,3.86-13.43.43-2.17-31.25.71-4.88.23-34.47,1.49-1.51,4.4L163,285.6l3.12-.25L179,285l-3.32,6.36-7.66.32-1.74.16-48,2.07"/><polyline class="b" points="228.3 277.24 224.56 296.64 299.25 295.15 301.09 273.97 228.3 277.24"/><path class="d" d="M286,288.92l-47.28.63,1.89-9.46a1.12,1.12,0,0,1,1.1-1l45.14-1.22,1.49,1.58L286,288.92"/><polyline class="b" points="346.2 271.81 334.4 271.52 334.4 292.95 400.05 294.58 399.05 287.35 346.2 285.36 346.2 271.81"/><polyline class="b" points="429.46 274.4 442.92 274.4 449.15 295.08 448.15 296.32 435.44 296.32 429.46 274.4"/><polyline class="b" points="547.16 282.17 546.16 278.93 544.41 278.18 476.39 276.79 475.15 277.53 475.64 279.53 478.88 288 537.67 290.81 539.91 291.8 539.87 293.16 538.62 294.16 492.56 293.29 492.31 291.79 481.1 291.05 479.35 293.04 480.35 296.78 482.1 298.02 554.08 300.14 555.07 298.39 551.63 287.96 501.82 285.57 491.85 284.76 490.37 280.89 532.95 281.42 533.7 282.17 547.16 282.17"/><path class="e" d="M495.39,143.38l-9.48-15.65-2.39-.68H168.81l-2.73,1-10.92,20,3.35-1,2.28-.62,2.46-.61,2.09-.46,2-.4,3.59-6.23,30.34,0a456,456,0,0,1,59.38-5.25q62.59-2.4,125.24,0,27,1.07,53.9,3.61h41.43l1.49,4.58,7.08.91,5.58.74"/><path class="f" d="M456.42,111.87l-1.19-5.06-1.48-19.36a19,19,0,0,0-36.85-.3l-2,19.66-1.7,5.06h43.19"/><polyline class="a" points="413.23 127.05 413.23 111.87 456.42 111.87 456.42 127.05 413.23 127.05"/><path class="f" d="M237.66,111.87l-1.19-5.06L235,87.45a19,19,0,0,0-36.85-.3l-2,19.66-1.69,5.06h43.19"/><polyline class="a" points="194.47 127.05 194.47 111.87 237.66 111.87 237.66 127.05 194.47 127.05"/><polyline class="e" points="607.8 267.38 606.13 264.69 606.46 251.69 604.13 243.85 602.21 225.1 578.65 1.5 577.17 1.5 600.14 222.97 599.03 238.89 599.46 256.55 600.3 263.21 596.62 269.51 597.8 271.13 605.71 273.21 607.38 272.38 607.8 267.38"/><polyline class="e" points="56.43 279.04 57.64 276.9 56.5 266.14 57.07 261.94 59.56 247.9 60.02 244.16 67.64 130.67 79.89 8.21 81.04 8.21 66.95 161.48 61.34 246.81 62.67 261.24 63.27 265.66 66.39 274.06 66.7 276.86 60.78 279.66 56.43 279.04"/><path class="e" d="M648.5,542.56l4.29,54.24-20-.42a104.34,104.34,0,0,1-12.91,30.82H555.3A32.22,32.22,0,0,1,545.72,606l-2.11-55.59,101.27-4.8,3.62-3"/><path class="e" d="M17.19,544.56l-.57,36-2.5,25.82H35a36.06,36.06,0,0,0,15.42,26.24h54.57a11,11,0,0,0,11.67-9.16l7.91-68-70.4.14a48.41,48.41,0,0,1-36.93-11"/><path class="b" d="M3.7,497.68a55.65,55.65,0,0,0,24.59,3.75l355.37-4.58L659,494.35l11.67-2.92-.42,3.75-11.67,1.67L342,501,26.2,504.76a76.11,76.11,0,0,1-22.5-2.92v-4.16"/><path class="c" d="M20,455.62,27,459q312.09.93,624.08-8.75l1.67-3.75"/><polyline class="f" points="115.36 391.9 15.37 391.9 16.62 414.39 17.45 421.88 116.61 420.35 115.36 391.9"/><polyline class="f" points="179.1 419.38 177.85 391.9 115.36 391.9 116.61 420.35 179.1 419.38"/><polyline class="f" points="559.06 413.84 558.64 387.32 655.12 385.81 655.29 403.14 654.79 405.98 655.71 412.31 559.06 413.84"/><polyline class="f" points="498.64 414.8 499.73 388.16 558.64 387.32 559.06 413.84 498.64 414.8"/><polyline class="c" points="629.04 376.76 625.29 318.6 46.62 326.1 45.37 382.5 629.04 376.76"/><path class="c" d="M14.58,389.37a10.44,10.44,0,0,1,6.21-6.63L657,376.49"/><path class="c" d="M56.43,279l4.35.63,5.92-2.8-.31-2.8-3.12-8.4,5-13.07,49.48-82.75A101,101,0,0,1,173.13,144a456.21,456.21,0,0,1,105.5-10.57,1225.24,1225.24,0,0,1,225,11.07,55.92,55.92,0,0,1,35.42,20,486.16,486.16,0,0,1,56.66,87,18.14,18.14,0,0,0,3.74,5l.84,6.66-3.68,6.3,1.18,1.62,7.91,2.08,1.67-.83.42-5,15.41,18.74,29.58,60.38L657,376.07l3.33,50.4-3.75,26.23,8.33,10.41a22.79,22.79,0,0,1-20.41,10.41L32,479.35A29.11,29.11,0,0,1,7.87,471a76.53,76.53,0,0,0,2.5-25.82L15,384.4A229,229,0,0,1,56.43,279"/><polyline class="c" points="382.62 257.51 388.53 239.68 396.24 227.87 408.57 215.8 475.09 215.8 483.83 218.63 491.79 225.05 497.7 233.01 508.75 255.85 382.62 257.51"/><path class="c" d="M280.13,257.92a74,74,0,0,0-26.46-39.81H187.92a19.85,19.85,0,0,0-17.73,10.79l-10.52,28.44"/><polyline class="c" points="327.65 199.71 327.14 201.42 327.14 204.25 327.91 206.28"/><polyline class="c" points="320.97 199.71 321.49 201.42 321.49 204.25 320.72 206.28"/><path class="c" d="M291.45,206.28h62a7.85,7.85,0,0,1-1.34,15h-60.7a8.26,8.26,0,0,1,0-15"/><line class="c" x1="263.05" y1="199.71" x2="378.59" y2="199.71"/><path class="c" d="M84.41,256.4l29.78-60.94,14.63-20.54A52.76,52.76,0,0,1,158,155a254.16,254.16,0,0,1,40.89-7.25,1072.57,1072.57,0,0,1,274-1.87q12.56,1.53,24.92,4.26a55.89,55.89,0,0,1,27,14.65,211.23,211.23,0,0,1,21,24,333.73,333.73,0,0,1,38.32,65.48q-249.83,6-499.73,2.14"/><rect class="c" x="327.55" y="406.62" width="17.72" height="27.63"/><polygon class="c" points="233.27 401.16 438.84 398.82 438.84 440.63 233.27 442.97 233.27 401.16"/><polygon class="g" points="428.7 89.55 430.72 83.32 435.68 82.58 438.98 85.33 439.53 92.85 440.08 102.74 440.63 111.87 427.42 111.87 427.97 99.08 428.7 89.55"/><polygon class="g" points="209.94 89.55 211.96 83.32 216.91 82.58 220.22 85.33 220.76 92.85 221.31 102.74 221.87 111.87 208.66 111.87 209.21 99.08 209.94 89.55"/><path class="c" d="M338.66,337a4.49,4.49,0,0,0-5.63.39"/><path class="c" d="M341.4,342.39a5.58,5.58,0,0,0-.23-4"/><path class="c" d="M340.13,342.63a4.46,4.46,0,0,0-.11-4.1"/><path class="c" d="M332.32,344.81a5.59,5.59,0,0,0,7.9-.37,5.45,5.45,0,0,0,.61-.82"/><path class="c" d="M333.88,344.59a4.48,4.48,0,0,0,5.39-.75"/><path class="c" d="M340.19,336.9a5.58,5.58,0,0,0-7.89-.33,6,6,0,0,0-.81.93"/><polyline class="g" points="476.74 215.27 478.81 208.65 478.55 204.63 478.04 201.26 478.04 195.03"/><line class="c" x1="438.82" y1="214.88" x2="438.56" y2="215.79"/><path class="c" d="M703.67,236.93v5.8l1,6.12-1.94,3.54-3.86,3.22-6.45,4.83-6.77,2.9-5.8,6.12-10,6.12-8.7,4.83-8,4.51-5.48,2.9-6.77,2.58-2.57-.32-1.94-10.31.32-10.95-1.93-19-2.25-10.63v-11l.14-7.67.82-.7,5.16-.65,14.18,2.26H675l7.41,1h10.31l6.13-.32,5.8-1,8.05-5.15,6.45-2.58H732l7.74,2.9,8.38,4.51,8.05,2.58,5.8,2.25a5.78,5.78,0,0,1-1,9.35,32.49,32.49,0,0,0-6.12,4.5,10.63,10.63,0,0,1-8.7,10.31,8.74,8.74,0,0,0-6.44,5.16,5.85,5.85,0,0,1-8.06,2.89l-19.33-1.93-2.9-1.29H705.6l-2.9-2.25"/><polygon class="b" points="638.26 290.08 636.32 279.77 636.64 268.82 634.71 249.81 632.46 239.18 632.46 228.23 632.6 220.56 631.17 221.79 624.4 224.69 613.12 225.01 603.46 226.62 605.07 234.67 607.64 249.49 608.29 265.92 611.83 269.78 626.01 268.5 629.88 270.11 632.78 279.77 634.71 287.82 638.26 290.08"/><path class="b" d="M145.84,257.11A45.22,45.22,0,0,1,164.55,240a1.09,1.09,0,0,1,1.37.39l-6.25,17-11.15.39-2.68-.62"/><polyline class="b" points="272.48 240.15 280.3 256.17 280.3 257.54 291.05 257.15 290.86 255.98 274.63 239.56 273.46 238.97 272.48 240.15"/><path class="b" d="M189,217.28h64.52V203.79a35.22,35.22,0,0,0,8-28.14,62.13,62.13,0,0,0-18-19.94,76.14,76.14,0,0,0-32.84-2.34,39.91,39.91,0,0,0-25.62,21.69v8.6l4.3,9.38L190,196,188,200.86v12.51l1,3.91"/><polyline class="g" points="432.98 171.27 435.97 170.37 440.25 167.25 440.9 165.82 437.91 166.73 433.63 169.46 432.98 171.27"/><polyline class="d" points="453.37 188.8 457.26 188.41 459.47 187.63 462.32 185.68 462.45 184.9 459.47 186.2 456.35 186.85 454.27 187.76 453.37 188.8"/><polyline class="d" points="455.18 192.56 458.17 192.56 459.6 191.91 460.51 191.65 459.34 190.74 457.78 190.74 455.83 191.91 455.18 192.56"/><polyline class="d" points="435.71 201.51 438.3 201.26 439.47 200.09 439.73 199.44 437.65 199.7 437.4 200.48 436.49 200.74 435.71 201.51"/><polyline class="g" points="464.79 189.83 467.39 189.83 468.04 191 466.61 191.39 464.92 190.48 464.79 189.83"/><polyline class="d" points="477.13 187.89 479.07 188.02 478.81 186.98 478.17 186.72 476.35 186.72 477.13 187.89"/><path class="b" d="M487.77,222.76a70.42,70.42,0,0,1,20.63,32.53l32.87-1,26.1-.32,10.31-.64,6.12-1-12.25-22.23-1.28-3.22H553.83l-10.63-3.22-10.31-2.25-7.74-2.58-4.51-1-12.24.65-6.77,1.61-4.83.64-6.45.32-2.58,1.62"/><polyline class="b" points="600.55 225.98 599.59 254.32 598.3 254.32 589.28 239.5 583.8 232.1 581.87 228.55 582.83 227.59 592.18 226.3 600.55 225.98"/><polyline class="c" points="632.78 270.43 635.03 272.04 635.03 276.55 633.42 276.23 632.13 272.04 632.78 270.43"/><polyline class="c" points="721.75 256.87 717.52 267.53 726.87 272.04 732.65 258.25"/><path class="c" d="M801.31,165.09A40.22,40.22,0,1,0,761.1,205.3,40.22,40.22,0,0,0,801.31,165.09Z"/><line class="c" x1="740.01" y1="216.45" x2="745.93" y2="202.33"/><line class="c" x1="748.52" y1="220.95" x2="755.88" y2="204.96"/><polygon class="c" points="263.69 411.41 252.42 410.29 244.53 411.41 245.65 428.3 245.65 431.68 277.22 431.68 316.89 431.68 318.93 410.29 307.65 410.29 289.62 412.54 277.22 411.41 263.69 411.41"/><polygon class="c" points="355.44 411.96 354.92 431.61 422.56 431.61 422.82 410.91 406.04 410.91 395.56 412.75 386.9 412.22 374.32 412.49 371.44 414.84 360.95 411.7 355.44 411.96"/><polygon class="c" points="341.83 431.5 341.59 411.61 332.69 411.37 332.22 431.74 341.83 431.5"/></svg>