<svg xmlns="http://www.w3.org/2000/svg" viewBox="0 0 111.57 223.47"><defs><style>.a,.g{fill:#fff;}.b,.g,.h{stroke:#000;}.b{stroke-miterlimit:10;}.c{fill:#539ede;}.d{fill:#fcd925;}.e{fill:#d8432d;}.f{fill:#0076bc;}.g,.h{stroke-linecap:round;stroke-linejoin:round;stroke-width:2px;}.h{fill:none;}</style></defs><title>P2-1 korkortonline.se</title><polygon class="a" points="12 144.13 17.03 149.44 16.26 150.17 12 145.69 7.74 150.17 6.97 149.44 12 144.13"/><rect class="b" x="11.47" y="145.62" width="1.07" height="23.31"/><polygon class="b" points="12 144.13 17.03 149.44 16.26 150.17 12 145.69 7.74 150.17 6.97 149.44 12 144.13"/><path class="c" d="M.11,174.29a4,4,0,0,0-.11.91v42.66A4.09,4.09,0,0,0,4.09,222H19.91A4.09,4.09,0,0,0,24,217.86V175.22a4,4,0,0,0-.11-.91l-7.56-3.18H7.67Z"/><path class="d" d="M23.89,174.29a4.09,4.09,0,0,0-4-3.18H16.35V173a1.34,1.34,0,0,0,1.34,1.34Z"/><path class="d" d="M.11,174.29H6.32A1.35,1.35,0,0,0,7.67,173v-1.84H4.11A4.1,4.1,0,0,0,.11,174.29Z"/><rect class="e" x="13.89" y="221.91" width="6.26" height="1.3"/><rect class="e" x="3.89" y="221.91" width="6.26" height="1.3"/><rect class="f" x="19.9" y="190.47" width="0.99" height="17.59"/><rect class="f" x="3.12" y="190.47" width="0.99" height="17.59"/><path class="a" d="M3.11,208.07H20.9v3.26a1.88,1.88,0,0,1-1.88,1.9H5a1.9,1.9,0,0,1-1.9-1.89h0Z"/><path class="a" d="M6.32,183H17.71a3.21,3.21,0,0,1,3.21,3.21v4.27H3.12v-4.27A3.21,3.21,0,0,1,6.32,183Z"/><path d="M53.05,31.3a6.54,6.54,0,0,1-1.72-7.19l4.74-5.8a12,12,0,0,1,5.33-1.58,35.5,35.5,0,0,1,7.14.33A14.6,14.6,0,0,1,72.39,19l4.26,4.74A9.51,9.51,0,0,1,75,31.63a3,3,0,0,1-1.75-.88,19.2,19.2,0,0,0-18.78-.1,1.44,1.44,0,0,1-1.44.65"/><path d="M55.69,31.87v-.81a16.42,16.42,0,0,1,15.77,0v.88a22.7,22.7,0,0,1-15.77-.07"/><path d="M36.57,99.32V89l2.37-13.3,1.45-9,.79-5a10.84,10.84,0,0,1,4.35-7,16.56,16.56,0,0,1,4-2.11A22.79,22.79,0,0,0,56,49l1.31-.26,4.22,5.93.66.79.79.13L63.46,51l1.05-.4.66.27.53.52.13,4.35.53.92.66.26,2.23-4.47,1.06-3.69,1-.66,1.19.13.92.4,3.29.13,3.17-.92h2.64l1.44.26,1.58.39h2.24L89.29,48l1.18-1.71a43.07,43.07,0,0,0,17,3.68l-.27,3.82-.92,3.82a34.24,34.24,0,0,1-7.78,7.37l-3.56,1.59L91.12,69l-1.18,1.71L85.45,89.3v4.48l1.06,3,5.14,15.54,2,8.17-2.77,1.19-.26,9.35,1.06,12.25.65,43.86.8,16.46,5.79,8.56,2,2.51a4.61,4.61,0,0,1-5.66,6.59,50.34,50.34,0,0,1-7.65-3.69L78.87,209l-.27-2.23-.26-13.44-3-19.49-.92-.27-.14,35.16-4,4.22-8.7,6.07-5.4,3.82a3.31,3.31,0,0,1-5.14-3.43l1.06-2.76,5.27-8.17.79-2.24L54.89,161l-2.77-23.18-1.18-10.41-1.72-1.84L50,101.41l-.26-.92-.93.13-3.16,8.7-.66-.39-4.61-8.57-1.71-1.17H37.62l-1,.13"/><path class="g" d="M90.46,46.24a39.17,39.17,0,0,0,20.11,3.34l-9.85-25.52L94,24.23,91,25.65l-.57,20.61"/><path class="g" d="M87.65,100.25l-.09-3,.53-.92,1-.14.8.27.52.79L91.65,106,94,120.26l1.84,19.1.14,1.19a2.29,2.29,0,0,1-4.53.67l-.88-10.16.26-9.35,2.77-1.19-2-8.16-4-12.11"/><polyline class="g" points="36.57 99.32 41.18 121.84 43.82 121.45 49.39 120.26 50.01 101.42 49.74 100.5 48.82 100.63 45.66 109.33 45 108.93 40.39 100.37 38.68 99.19 37.62 99.19 36.57 99.32"/><path class="g" d="M43.27,121.53l-1.18,1.67v8.57l4.39,3.95a1.33,1.33,0,0,0,1.87-.09,1.43,1.43,0,0,0,.14-.2l-.35-5.27.52-.58.41,6a1.48,1.48,0,0,0,2.85.46l-1-8.71-1.71-1.84.17-5.27-6.12,1.26"/><path class="a" d="M83.68,89.62,83.84,93a21.23,21.23,0,0,1-7.69,2.63,76.49,76.49,0,0,1-23.38,3.24V95.4a64.2,64.2,0,0,0,18.46-2.81A.84.84,0,0,0,72,92a.82.82,0,0,0-.36-.91l-7.13-9.13L57.64,70.05,50.17,53.67l2.58-1.42,9.81,19.09L75.2,90.42l8.48-.78"/><path class="h" d="M55.35,33.64V39.1a8.56,8.56,0,1,0,17,2.27,8.71,8.71,0,0,0,0-2.55V33.59"/><path class="g" d="M100.72,24.06l-.67-4.34L99.8,9.12,99,5.6a1.23,1.23,0,0,0-.76-.88A1.29,1.29,0,0,0,97,4.85l-.16.84L97,10.61l-.4-2.93V3.59a1.17,1.17,0,0,0-2.26-.44v7L94,6.43,93.79,2a1.06,1.06,0,0,0-.62-.91,1,1,0,0,0-1.38.55,1.07,1.07,0,0,0-.07.61l-.08,3.52.08,5-.33-1.32-.34-6.59a1,1,0,1,0-1.91,0Q88.79,7.94,88.75,13a3.08,3.08,0,0,0,2.52,2.61,2.93,2.93,0,0,1-3.11-2.72v-.11A5.92,5.92,0,0,0,86.8,10a1,1,0,0,0-1.84.84,27,27,0,0,0,1.49,5.06,9.76,9.76,0,0,0,1.16,4.61A7,7,0,0,0,94,24.22l6.76-.16"/><polyline class="a" points="61.73 20.95 61.1 21.57 61.02 23.36 61.65 24.6 63.67 24.6 64.37 23.9 64.37 21.42 63.59 20.87 61.73 20.95"/></svg>