<svg xmlns="http://www.w3.org/2000/svg" viewBox="0 0 205.99 219.99"><defs><style>.a,.d{fill:#fff;}.a,.b,.c,.e{stroke:#000;}.a,.b,.c{stroke-linecap:round;stroke-linejoin:round;stroke-width:2px;}.b{fill:none;}.e{stroke-miterlimit:10;}.f{fill:#539ede;}.g{fill:#fcd925;}.h{fill:#d8432d;}.i{fill:#0076bc;}</style></defs><title>P4-1 korkortonline.se</title><path d="M112.63,33.35l1.5.64,2.17.43,13.14.15,2.54.94,7.77,4,6.67,4.06L150.13,45l4.35.29,5-1.23,3.63,18.79-7.7-.07-3.84-.15-2.9-.72-4.36-1.67L139.88,59l-3.33-.66-2-.8H133l-.66.07-7.54,18.94v8.7l3.55,5.52,1.6,5.22,2.73,15.76v2.83l-1.38,1.3L129.88,147l-1.31,54.17.51,1.53,6.17,8.13a4.89,4.89,0,0,1-5.66,7.26l-3.2-1-4.82-2.61-7-5.36-1.31-1.55-.36-1.52-.29-28.8-2.54-31.41-1,.07,1,37,.65,22.56-.65,1.38-11,9L92.17,220l-3.77-.22A4.37,4.37,0,0,1,86.66,214l7-9.64-3.84-57.1-2.76-29.09-1-.94-1.3-.22-.72-.73.14-3.55,1.24-10L87.88,92l1.67-5,.51-2.1V80.58L84.57,65l-12-.72-3.49,1.59-.65.08-.58-2.18L61,61.34l-4.5-5.45a4.83,4.83,0,0,1,0-4.85,26.58,26.58,0,0,1,13-9.29L74,41.31l9.29-.21,2.47-1.74,4.28-.8a18,18,0,0,0,7.11-3.27V33.71l.44.08h.33l.47-.06.39-.1,1.66-.47h0A3.77,3.77,0,0,0,102.6,37a4.17,4.17,0,0,1,4.21,1,1.1,1.1,0,0,0,1.56,0h0a1,1,0,0,0,.32-.65,13.43,13.43,0,0,0,4-4"/><path d="M118.12,12.37l-3.77,3.84a21.93,21.93,0,0,0-20-2,3.45,3.45,0,0,0-2.86,3.95v.05a3.89,3.89,0,0,0,.25.84,7.73,7.73,0,0,1-5.23-2,1.74,1.74,0,0,1-.14-2.45h0l.07-.08a20.19,20.19,0,0,1,17.13-3.45A11.49,11.49,0,0,0,93.2,9.83,2.37,2.37,0,0,1,90.51,9,21,21,0,0,1,87.9,4.32,2.92,2.92,0,0,1,89.55.56a3.33,3.33,0,0,1,.6-.16,33.84,33.84,0,0,1,12,.29,30.52,30.52,0,0,1,15.74,8.63,2.31,2.31,0,0,1,.15,3"/><polyline class="a" points="67.83 63.73 68.42 65.91 72.56 64.24 92.14 51.76 92.14 40.95 83.22 41.09 73.92 41.31 69.5 41.75 68.19 42.55 67.83 63.73"/><path class="b" d="M24.4,31.52a113.15,113.15,0,0,1,52.66-2.06"/><polyline class="c" points="18.7 34.29 24.48 28.94 24.41 31.52 26.43 33.23 18.7 34.29"/><polyline class="c" points="82.97 31.74 76.78 26.9 77.06 29.46 75.2 31.32 82.97 31.74"/><path class="a" d="M133.57,85.42a2.14,2.14,0,0,0-2.92-.73h0a2.25,2.25,0,0,0-.8.85v7.34h3.74V85.42"/><path class="a" d="M133.57,92.89a3.38,3.38,0,0,1,1.55,2.19V129.6a7.06,7.06,0,0,1-1.68,5.41,1.7,1.7,0,0,1-2.41.17h0a1.75,1.75,0,0,1-.59-1.2l.81-18.08,1.38-1.3v-2.81L129.93,96l-.71-2.32.61-.81Z"/><path class="a" d="M92.14,49.37l2.54,1.16a129.5,129.5,0,0,0,16.47-1.31.74.74,0,0,0,.63-.84h0a.71.71,0,0,0-.25-.46L108,47.77l5.59-.65A1.15,1.15,0,0,0,113,45a1.26,1.26,0,0,0-.57.14l-4.59.07,6.33-.87a.94.94,0,0,0,.94-1,1,1,0,0,0-1-.94H114l-6.18.15,5-.58a.91.91,0,0,0,.81-1,1,1,0,0,0-.74-.8L102,40.57l2.15-.51,2.25-.3a.69.69,0,0,0,.69-.71.71.71,0,0,0-.54-.67,12.2,12.2,0,0,0-7.3.11,4.16,4.16,0,0,0-2.7,1.57q-2.16,1.14-4.35,2.25v7"/><path class="a" d="M98.86,51.29l-3.7.1V52a157.3,157.3,0,0,0,17.26,26.35,1.14,1.14,0,0,1-.14,1.6h0a1.08,1.08,0,0,1-.78.25,78.48,78.48,0,0,1-19.73,0v4.63a137.82,137.82,0,0,0,30.52-.48,2.59,2.59,0,0,0,.06-3.65,2.19,2.19,0,0,0-.22-.2h-3.39A281.63,281.63,0,0,1,98.84,51.26"/><path d="M107.57,15.27l-1.16.36-.72.58-.36.58V18.1l-.15,1.16-.29.43-.51.3-.72-.3-.15-1.59-.29-1.81-.14-1.6-.73-.65-3.19-.22L96.54,14l-2.61.86-1,.72-.73,1L91.91,18l-.14.94a3.44,3.44,0,0,1,1.78-4.52h0a3.6,3.6,0,0,1,.83-.25,21.93,21.93,0,0,1,20,2l.36.51L114.67,20l-.58,3.55-.66,4.86-.79.22-1.53-1.23-1.45-1.6-.58-2.68.36-1.82.44-1.3.07-2.69-.44-1.16-.94-.72Z"/><polyline class="a" points="91.48 3.3 92.36 3.37 93.17 4.46 93.17 7.29 92.72 8.16 91.48 8.23 90.41 6.71 90.25 4.6 90.83 3.37 91.48 3.3"/><path class="a" d="M91.78,19l.07,3.26-.44.8.15,2.32.87.95,1.23.57a6.29,6.29,0,0,0,2.47,6.39,2.78,2.78,0,0,0,2.4.43,44.29,44.29,0,0,0,6.24-2.17l-2.27.91-2.13.72A3.79,3.79,0,0,0,102.59,37a4.15,4.15,0,0,1,4.2,1,1.12,1.12,0,0,0,1.57,0,1,1,0,0,0,.32-.65,13.18,13.18,0,0,0,4-4.14l-.07-4.57-1.53-1.23-1.44-1.6-.59-2.68.37-1.82.43-1.3.07-2.69-.43-1.16-.94-.72-1-.22-1.16.36-.72.58-.36.58v1.31l-.15,1.16-.29.43-.51.3-.72-.3-.15-1.59-.29-1.81-.14-1.6-.73-.65-3.19-.22L96.52,14l-2.61.86-1,.72-.73,1L91.89,18l-.14.94"/><polyline class="a" points="159.5 44.07 176.5 41.9 183.44 41.02 184.82 52.23 173.1 62.18 164.91 67.85 163.12 62.86 159.5 44.07"/><polyline class="a" points="183.44 41.02 186.09 39 188.85 38.5 196.29 37.61 197.18 37.74 197.56 38.5 197.44 39.25 195.41 40.14 193.28 41.27 191.5 42.66 190.38 43.79 190.13 44.29 190.75 43.66 192.01 42.4 194.03 41.4 196.29 40.52 199.96 40.14 202.47 40.14 203.1 40.64 202.72 41.77 201.22 42.4 199.19 43.29 197.31 43.79 199.71 43.54 202.84 42.4 204.62 42.4 205 43.29 204.75 44.16 202.97 44.92 197.18 46.18 197.31 46.43 204.24 45.17 204.5 45.43 204.75 46.69 204.24 47.44 201.72 48.45 195.79 49.21 200.34 49.33 200.96 49.84 200.96 50.59 200.71 51.47 199.57 52.11 196.18 52.36 186.97 51.85 184.56 50.09 183.44 41.02"/><polygon class="d" points="79.08 173.4 73.78 178.43 73.05 177.66 77.53 173.4 73.05 169.14 73.78 168.37 79.08 173.4"/><rect class="e" x="54.28" y="172.87" width="23.31" height="1.07"/><polygon class="e" points="79.08 173.4 73.78 178.43 73.05 177.66 77.53 173.4 73.05 169.14 73.78 168.37 79.08 173.4"/><path class="f" d="M48.93,161.51a4.06,4.06,0,0,0-.92-.11H5.36a4.09,4.09,0,0,0-4.09,4.09h0v15.81a4.09,4.09,0,0,0,4.09,4.09H48a3.91,3.91,0,0,0,.91-.11l3.19-7.56v-8.66Z"/><path class="g" d="M48.93,185.29a4.11,4.11,0,0,0,3.18-4v-3.56H50.27a1.34,1.34,0,0,0-1.34,1.34Z"/><path class="g" d="M48.93,161.51v6.21a1.35,1.35,0,0,0,1.34,1.35h1.84v-3.56A4.11,4.11,0,0,0,48.93,161.51Z"/><rect class="h" y="175.29" width="1.3" height="6.26"/><rect class="h" y="165.29" width="1.3" height="6.26"/><rect class="i" x="15.16" y="181.3" width="17.59" height="0.99"/><rect class="i" x="15.16" y="164.52" width="17.59" height="0.99"/><path class="d" d="M15.15,164.51V182.3H11.89a1.88,1.88,0,0,1-1.9-1.88h0v-14a1.89,1.89,0,0,1,1.88-1.9h3.28Z"/><path class="d" d="M40.23,167.72v11.39A3.21,3.21,0,0,1,37,182.32H32.75v-17.8H37A3.21,3.21,0,0,1,40.23,167.72Z"/></svg>