<svg xmlns="http://www.w3.org/2000/svg" viewBox="0 0 941.32 396.26"><defs><style>.a,.c{fill:#000;}.a{stroke:#000;}.b{fill:#fff;}</style></defs><title>P6-1 korkortonline.se</title><polygon class="a" points="0.5 0.5 0.5 395.76 712.25 395.76 940.46 0.5 0.5 0.5"/><path class="b" d="M.5,23V373.25A22.5,22.5,0,0,0,23,395.76H699.26a22.51,22.51,0,0,0,19.49-11.25L921,34.26A22.51,22.51,0,0,0,901.47.5H23A22.5,22.5,0,0,0,.5,23Z"/><path class="c" d="M10.5,23V373.25A12.51,12.51,0,0,0,23,385.76H699.26a12.49,12.49,0,0,0,10.83-6.25L912.3,29.26A12.51,12.51,0,0,0,901.47,10.5H23A12.51,12.51,0,0,0,10.5,23Z"/><path class="b" d="M800.68,131.34,779.84,53.59,702.09,74.42a10.61,10.61,0,0,0-2.56,19.44l29.8,17.21L604.28,327.67l26,15L755.32,126.08l29.8,17.2a10.61,10.61,0,0,0,15.56-11.94Z"/><path class="b" d="M232.49,138.06H248V100.54a9.76,9.76,0,0,1,19.51,0v37.52H283V97.29A22.48,22.48,0,0,0,248,79V76H232.49Z"/><polygon class="b" points="76.18 86.03 102.79 53.02 122.7 53.02 95.69 86.54 123.7 138.06 106.05 138.06 85.15 99.61 76.18 110.74 76.18 138.06 60.67 138.06 60.67 53.02 76.18 53.02 76.18 86.03 76.18 86.03"/><path class="b" d="M191.48,78.53a30.16,30.16,0,0,0-30,0,31.65,31.65,0,0,0-14.5,18,44,44,0,0,0,.5,20.51,31.27,31.27,0,0,0,14,18,30.16,30.16,0,0,0,30,0,31.27,31.27,0,0,0,14-18A44,44,0,0,0,206,96.54,31.71,31.71,0,0,0,191.48,78.53Z"/><path class="b" d="M464.08,78.53a30.14,30.14,0,0,0-30,0,31.63,31.63,0,0,0-14.51,18,44,44,0,0,0,.5,20.51,31.29,31.29,0,0,0,14,18,30.14,30.14,0,0,0,30,0,31.33,31.33,0,0,0,14-18,44,44,0,0,0,.5-20.51A31.71,31.71,0,0,0,464.08,78.53Z"/><path class="b" d="M360.54,138.06H376V107a18.72,18.72,0,0,1,9-13.5,15.92,15.92,0,0,1,9-2.5,12.63,12.63,0,0,1,5.5,1V76A32.82,32.82,0,0,0,376,80.53V76h-15.5Z"/><path class="b" d="M311.68,91.54v36a10.07,10.07,0,0,0,10.51,10.51h11V122.55h-2.5a3.27,3.27,0,0,1-3.5-3.5V91.54h7.75V76h-7.75V53l-15.51,7.5V76h-6.25V91.54Z"/><polygon class="b" points="501.09 138.06 516.6 138.06 516.6 88.04 516.6 53.02 501.09 53.02 501.09 88.04 501.09 138.06"/><polygon class="b" points="544.61 138.06 560.12 138.06 560.12 88.04 560.12 53.02 544.61 53.02 544.61 88.04 544.61 138.06"/><path class="b" d="M183.07,222.16H75.34a14.65,14.65,0,0,0-14.66,14.66v62.72A14.66,14.66,0,0,0,75,314.19a24,24,0,0,0,40.1,9.83,24,24,0,0,0,40.09-9.82h34.54a24,24,0,0,0,45.91,0,12.11,12.11,0,0,0,11.76-12.1V277.85l-8.45-22.61a19.33,19.33,0,0,0-18.1-12.56H197.73v-5.86A14.66,14.66,0,0,0,183.07,222.16Z"/><path class="c" d="M183.07,232.16H75.34a4.64,4.64,0,0,0-4.66,4.66v62.72a4.68,4.68,0,0,0,4.67,4.67h9a14,14,0,1,0,27.32,0h7a14,14,0,1,0,27.32,0H199a14,14,0,1,0,27.31,0h9a2.1,2.1,0,0,0,2.1-2.1V279.66l-7.82-20.92a9.32,9.32,0,0,0-8.73-6.06H196.36a3.74,3.74,0,0,0-3.74,3.73v15.85h-4.89V236.82a4.66,4.66,0,0,0-4.66-4.66Z"/><path class="c" d="M176.47,123.55a11.75,11.75,0,0,0,7-2,17.11,17.11,0,0,0,7-8.5,20.4,20.4,0,0,0,0-12.51,17.11,17.11,0,0,0-7-8.5,13.25,13.25,0,0,0-14,0,17.11,17.11,0,0,0-7,8.5,20.4,20.4,0,0,0,0,12.51,17.11,17.11,0,0,0,7,8.5A11.75,11.75,0,0,0,176.47,123.55Z"/><path class="c" d="M449.07,123.55a11.8,11.8,0,0,0,7-2,17,17,0,0,0,7-8.5,20.4,20.4,0,0,0,0-12.51,17,17,0,0,0-7-8.5,13.27,13.27,0,0,0-14,0,17,17,0,0,0-7,8.5,20.26,20.26,0,0,0,0,12.51,17,17,0,0,0,7,8.5A11.79,11.79,0,0,0,449.07,123.55Z"/><path class="c" d="M791,133.93,772.77,65.84,704.68,84.08a.62.62,0,0,0-.45.51.6.6,0,0,0,.3.61L743,107.41,617.94,324l8.67,5,125-216.6,38.46,22.21a.62.62,0,0,0,.9-.69Z"/></svg>