<svg xmlns="http://www.w3.org/2000/svg" viewBox="0 0 879.3 536.34"><defs><style>.a,.c{fill:#000;}.a{stroke:#000;}.b{fill:#fff;}</style></defs><title>P7-1 korkortonline.se</title><rect class="a" x="0.5" y="0.5" width="878.3" height="535.34"/><path class="b" d="M.5,23V513.33A22.5,22.5,0,0,0,23,535.84H856.29a22.5,22.5,0,0,0,22.51-22.51V23A22.5,22.5,0,0,0,856.29.5H23A22.51,22.51,0,0,0,.5,23Z"/><path class="c" d="M10.5,23V513.33A12.51,12.51,0,0,0,23,525.84H856.29a12.51,12.51,0,0,0,12.51-12.51V23A12.51,12.51,0,0,0,856.29,10.5H23A12.5,12.5,0,0,0,10.5,23Z"/><path class="b" d="M122.85,105.59a10.61,10.61,0,0,0-7.51,18.12L139.67,148,113.91,173.8a87.45,87.45,0,0,0-25.62,61.85V430.74h30V235.65A57.45,57.45,0,0,1,135.13,195l25.77-25.77,24.33,24.33a10.61,10.61,0,0,0,18.11-7.5v-80.5Z"/><polygon class="b" points="290.76 483.12 290.76 422.59 281.26 422.59 281.26 413.08 294.27 398.08 306.27 398.08 306.27 436.09 306.27 483.12 290.76 483.12"/><path class="b" d="M379.15,484.12a33.59,33.59,0,0,1-25-11,50.05,50.05,0,0,1,0-65,33.93,33.93,0,0,1,50,0,50,50,0,0,1,0,65A33.59,33.59,0,0,1,379.15,484.12Z"/><path class="b" d="M486.2,484.12a33.59,33.59,0,0,1-25-11,50,50,0,0,1,0-65,33.93,33.93,0,0,1,50,0,50,50,0,0,1,0,65A33.59,33.59,0,0,1,486.2,484.12Z"/><path class="b" d="M593.25,484.12a33.59,33.59,0,0,1-25-11,50,50,0,0,1,0-65,33.93,33.93,0,0,1,50,0,50.05,50.05,0,0,1,0,65A33.59,33.59,0,0,1,593.25,484.12Z"/><path class="b" d="M744,483.12h15.5V444.61a8.51,8.51,0,1,1,17,0v38.51H792V444.61a8.51,8.51,0,1,1,17,0v38.51H824.5v-43A20.1,20.1,0,0,0,788,428.59a21.2,21.2,0,0,0-28.52-5v-2.5H744Z"/><path class="b" d="M403.52,222.16H295.8a14.66,14.66,0,0,0-14.67,14.66v62.72a14.66,14.66,0,0,0,14.32,14.66A24,24,0,0,0,335.54,324a24,24,0,0,0,40.1-9.81h34.53a24,24,0,0,0,45.92,0,12.11,12.11,0,0,0,11.76-12.1V277.85l-8.45-22.61a19.34,19.34,0,0,0-18.11-12.56h-23.1v-5.86A14.66,14.66,0,0,0,403.52,222.16Z"/><path class="b" d="M684.54,78.53a30.16,30.16,0,0,0-30,0,31.65,31.65,0,0,0-14.5,18,44,44,0,0,0,.5,20.51,31.27,31.27,0,0,0,14,18,30.16,30.16,0,0,0,30,0,31.27,31.27,0,0,0,14-18,44,44,0,0,0,.5-20.51A31.65,31.65,0,0,0,684.54,78.53Z"/><path class="b" d="M453,138.06h15.51V100.54a9.76,9.76,0,0,1,19.51,0v37.52h15.5V97.29a22.47,22.47,0,0,0-35-18.26V76H453Z"/><polygon class="b" points="296.64 86.03 323.24 53.02 343.16 53.02 316.15 86.54 344.16 138.06 326.51 138.06 305.61 99.61 296.64 110.74 296.64 138.06 281.13 138.06 281.13 53.02 296.64 53.02 296.64 86.04 296.64 86.03"/><path class="b" d="M411.93,78.53a30.14,30.14,0,0,0-30,0,31.71,31.71,0,0,0-14.51,18,44,44,0,0,0,.5,20.51,31.33,31.33,0,0,0,14,18,30.14,30.14,0,0,0,30,0,31.25,31.25,0,0,0,14-18,44,44,0,0,0,.5-20.51A31.63,31.63,0,0,0,411.93,78.53Z"/><path class="b" d="M532.14,91.54v36a10.06,10.06,0,0,0,10.5,10.51h11V122.55h-2.5a3.27,3.27,0,0,1-3.51-3.5V91.54h7.76V76h-7.76V53l-15.5,7.5V76h-6.26V91.54Z"/><path class="b" d="M581,138.06H596.5v-31a18.71,18.71,0,0,1,9-13.51,16.05,16.05,0,0,1,9-2.5,12.68,12.68,0,0,1,5.5,1V76a32.82,32.82,0,0,0-23.51,4.5V76H581Z"/><polygon class="b" points="721.55 138.06 737.06 138.06 737.06 88.04 737.06 53.02 721.55 53.02 721.55 88.04 721.55 138.06"/><polygon class="b" points="765.07 138.06 780.57 138.06 780.57 88.04 780.57 53.02 765.07 53.02 765.07 88.04 765.07 138.06"/><path class="c" d="M669.53,123.55a11.75,11.75,0,0,0,7-2,17.11,17.11,0,0,0,7-8.5,20.4,20.4,0,0,0,0-12.51,17.11,17.11,0,0,0-7-8.5,13.25,13.25,0,0,0-14,0,17.11,17.11,0,0,0-7,8.5,20.4,20.4,0,0,0,0,12.51,17.11,17.11,0,0,0,7,8.5A11.75,11.75,0,0,0,669.53,123.55Z"/><path class="c" d="M396.93,123.55a11.79,11.79,0,0,0,7-2,17,17,0,0,0,7-8.5,20.26,20.26,0,0,0,0-12.51,17,17,0,0,0-7-8.5,13.27,13.27,0,0,0-14,0,17.1,17.1,0,0,0-7,8.5,20.4,20.4,0,0,0,0,12.51,17.1,17.1,0,0,0,7,8.5A11.8,11.8,0,0,0,396.93,123.55Z"/><path class="c" d="M379.15,468.61a18.06,18.06,0,0,1-13.4-5.79,34.51,34.51,0,0,1,0-44.45,18.41,18.41,0,0,1,26.81,0,34.54,34.54,0,0,1,0,44.45A18.09,18.09,0,0,1,379.15,468.61Z"/><path class="c" d="M486.2,468.61a18.1,18.1,0,0,1-13.41-5.79,34.54,34.54,0,0,1,0-44.45,18.42,18.42,0,0,1,26.82,0,34.54,34.54,0,0,1,0,44.45A18.1,18.1,0,0,1,486.2,468.61Z"/><path class="c" d="M593.25,468.61a18.09,18.09,0,0,1-13.41-5.79,34.54,34.54,0,0,1,0-44.45,18.42,18.42,0,0,1,26.82,0,34.54,34.54,0,0,1,0,44.45A18.1,18.1,0,0,1,593.25,468.61Z"/><path class="c" d="M122.85,115.59a.62.62,0,0,0-.57.38.64.64,0,0,0,.13.67L153.82,148,121,180.87a77.48,77.48,0,0,0-22.69,54.78V420.74h10V235.65A67.44,67.44,0,0,1,128.06,188l32.84-32.84,31.4,31.4a.58.58,0,0,0,.66.13.6.6,0,0,0,.38-.56v-70.5Z"/><path class="c" d="M403.52,232.16H295.8a4.66,4.66,0,0,0-4.67,4.66v62.72a4.66,4.66,0,0,0,4.66,4.67h9a14,14,0,1,0,27.32,0h7a14,14,0,1,0,27.31,0h53.13a14,14,0,1,0,27.32,0h9a2.1,2.1,0,0,0,2.1-2.1V279.66L450,258.74a9.34,9.34,0,0,0-8.74-6.06H416.81a3.72,3.72,0,0,0-3.73,3.73v15.85h-4.9V236.82a4.66,4.66,0,0,0-4.67-4.66Z"/></svg>