<svg xmlns="http://www.w3.org/2000/svg" viewBox="0 0 756.45 634.15"><defs><style>.a{fill:#b5c0c7;}.a,.b,.c,.d,.e{stroke:#000;stroke-linecap:round;stroke-linejoin:round;stroke-width:3px;}.b{fill:#7c868d;}.c{fill:#000;}.d{fill:none;}.e{fill:#fff;}</style></defs><title>P8-1 korkortonline.se</title><polyline class="a" points="559.06 413.84 558.64 387.32 655.12 385.81 655.29 403.14 654.79 405.98 655.71 412.31 559.06 413.84"/><path class="a" d="M237.66,111.87l-1.19-5.06L235,87.45a19,19,0,0,0-36.85-.3l-2,19.66-1.69,5.06h43.19"/><path class="a" d="M456.42,111.87l-1.19-5.06-1.48-19.36a19,19,0,0,0-36.85-.3l-2,19.66-1.7,5.06h43.19"/><path class="b" d="M644.46,473.53,32,479.36A29.18,29.18,0,0,1,7.87,471a33.22,33.22,0,0,0-5.41,27.48l.41,2.5A44.52,44.52,0,0,0,38.7,554.73l15.42.84,216.64-.42,260-4.16,114.16-5.42a68,68,0,0,0,20-82.46A22.82,22.82,0,0,1,644.46,473.53Z"/><polyline class="c" points="547.16 282.17 546.16 278.93 544.42 278.18 476.39 276.79 475.15 277.53 475.64 279.53 478.88 288 537.67 290.81 539.91 291.81 539.87 293.16 538.62 294.16 492.56 293.29 492.31 291.79 481.1 291.05 479.35 293.04 480.35 296.78 482.1 298.02 554.08 300.14 555.07 298.39 551.63 287.96 501.82 285.57 491.85 284.76 490.37 280.89 532.95 281.42 533.7 282.17 547.16 282.17"/><polyline class="c" points="429.46 274.39 442.92 274.39 449.15 295.08 448.15 296.32 435.44 296.32 429.46 274.39"/><polyline class="c" points="346.21 271.81 334.4 271.52 334.4 292.95 400.05 294.58 399.05 287.35 346.21 285.36 346.21 271.81"/><polyline class="c" points="228.31 277.24 224.56 296.64 299.25 295.15 301.09 273.97 228.31 277.24"/><path class="c" d="M118.31,293.94l-4.09,10.42.84,1.94h12.47a9,9,0,0,1,7.46-8.49l31.26-.42,2.71,0,20.47-.94,1.52-.85,3.86-13.43.43-2.17-31.25.71-4.88.23-34.47,1.49-1.51,4.4L163,285.6l3.12-.24L179,285l-3.32,6.36-7.66.32-1.74.16-48,2.07"/><path class="d" d="M340.19,336.9a5.58,5.58,0,0,0-7.89-.33,6,6,0,0,0-.81.93"/><path class="d" d="M333.88,344.59a4.5,4.5,0,0,0,5.4-.75"/><path class="d" d="M332.33,344.81a5.58,5.58,0,0,0,7.89-.37,5.45,5.45,0,0,0,.61-.82"/><path class="d" d="M340.13,342.63a4.46,4.46,0,0,0-.11-4.1"/><path class="d" d="M341.4,342.39a5.58,5.58,0,0,0-.23-4"/><path class="d" d="M338.66,337a4.49,4.49,0,0,0-5.63.39"/><polygon class="e" points="209.94 89.55 211.96 83.32 216.91 82.58 220.22 85.33 220.76 92.85 221.32 102.74 221.87 111.87 208.66 111.87 209.21 99.08 209.94 89.55"/><polygon class="e" points="428.7 89.55 430.72 83.32 435.68 82.58 438.98 85.33 439.53 92.85 440.08 102.74 440.63 111.87 427.42 111.87 427.97 99.08 428.7 89.55"/><polygon class="d" points="233.28 401.16 438.84 398.82 438.84 440.63 233.28 442.97 233.28 401.16"/><rect class="d" x="327.55" y="406.62" width="17.72" height="27.63"/><path class="d" d="M84.42,256.4l29.77-60.94,14.63-20.54A52.76,52.76,0,0,1,158,155a254.16,254.16,0,0,1,40.89-7.25,1072.57,1072.57,0,0,1,274-1.87q12.56,1.53,24.92,4.26a55.89,55.89,0,0,1,27,14.65,211.23,211.23,0,0,1,21,24,333.73,333.73,0,0,1,38.32,65.48q-249.83,6-499.72,2.14"/><line class="d" x1="263.05" y1="199.71" x2="378.59" y2="199.71"/><path class="d" d="M291.45,206.28h62a7.85,7.85,0,0,1-1.34,15h-60.7a8.27,8.27,0,0,1,0-15"/><polyline class="d" points="320.97 199.71 321.49 201.42 321.49 204.25 320.72 206.28"/><polyline class="d" points="327.65 199.71 327.14 201.42 327.14 204.25 327.91 206.28"/><path class="d" d="M280.13,257.92a74,74,0,0,0-26.46-39.81H187.92a19.85,19.85,0,0,0-17.73,10.79l-10.52,28.44"/><path class="d" d="M56.43,279l4.35.63,5.92-2.8-.31-2.8-3.12-8.4,5-13.07,49.49-82.75A101,101,0,0,1,173.13,144a456.21,456.21,0,0,1,105.5-10.57,1225.24,1225.24,0,0,1,225,11.07,55.92,55.92,0,0,1,35.42,20,486.16,486.16,0,0,1,56.66,87,18,18,0,0,0,3.75,5l.83,6.66-3.68,6.3,1.18,1.62,7.91,2.08,1.67-.83.42-5,15.41,18.74,29.58,60.39L657,376.07l3.33,50.39-3.75,26.24,8.33,10.41a22.82,22.82,0,0,1-20.41,10.42L32,479.36A29.18,29.18,0,0,1,7.87,471a76.53,76.53,0,0,0,2.5-25.82L15,384.4A229,229,0,0,1,56.43,279"/><path class="d" d="M14.58,389.37a10.44,10.44,0,0,1,6.21-6.63L657,376.49"/><polyline class="d" points="629.04 376.76 625.29 318.6 46.62 326.1 45.37 382.5 629.04 376.76"/><polyline class="b" points="496.98 448.54 498.64 414.81 655.71 412.31 656.12 420.22 652.79 446.45 496.98 448.54"/><polyline class="a" points="498.64 414.81 499.73 388.16 558.64 387.32 559.06 413.84 498.64 414.81"/><polyline class="b" points="17.45 421.88 17.87 443.54 19.95 455.62 181.6 454.37 182.43 450.2 179.1 419.38 17.45 421.88"/><polyline class="a" points="179.1 419.38 177.85 391.9 115.36 391.9 116.61 420.35 179.1 419.38"/><polyline class="a" points="115.36 391.9 15.37 391.9 16.62 414.39 17.45 421.88 116.61 420.35 115.36 391.9"/><path class="d" d="M20,455.62,27,459q312.09.93,624.09-8.75l1.66-3.74"/><path class="c" d="M3.71,497.68a55.58,55.58,0,0,0,24.58,3.75l355.37-4.58L659,494.35l11.67-2.92-.42,3.75-11.67,1.67L342,501,26.2,504.76a76,76,0,0,1-22.49-2.92v-4.16"/><path class="c" d="M17.19,544.56l-.57,36-2.5,25.82H35a36.06,36.06,0,0,0,15.42,26.24h54.57a11,11,0,0,0,11.67-9.16l7.91-68-70.4.14a48.41,48.41,0,0,1-36.93-11"/><path class="c" d="M648.5,542.56l4.29,54.24-20-.42a104.34,104.34,0,0,1-12.91,30.82H555.3A32.22,32.22,0,0,1,545.72,606l-2.11-55.59,101.27-4.8,3.62-3"/><polyline class="c" points="56.43 279.04 57.64 276.9 56.5 266.14 57.07 261.94 59.56 247.9 60.02 244.16 67.64 130.67 79.89 8.21 81.04 8.21 66.95 161.48 61.34 246.82 62.67 261.24 63.27 265.66 66.39 274.06 66.7 276.86 60.78 279.66 56.43 279.04"/><polyline class="c" points="607.8 267.38 606.13 264.69 606.46 251.69 604.13 243.85 602.21 225.1 578.65 1.5 577.17 1.5 600.14 222.97 599.03 238.89 599.47 256.55 600.3 263.21 596.62 269.51 597.8 271.13 605.71 273.21 607.38 272.38 607.8 267.38"/><polyline class="b" points="194.47 127.05 194.47 111.87 237.66 111.87 237.66 127.05 194.47 127.05"/><polyline class="b" points="413.23 127.05 413.23 111.87 456.42 111.87 456.42 127.05 413.23 127.05"/><path class="c" d="M495.39,143.38l-9.48-15.65-2.39-.68H168.81l-2.73,1-10.91,20,3.34-1,2.28-.62,2.46-.61,2.09-.46,2-.4,3.59-6.23,30.34,0a456,456,0,0,1,59.38-5.25q62.59-2.4,125.24,0,27,1.07,53.9,3.61h41.43l1.49,4.58,7.08.91,5.58.74"/><path class="e" d="M286,288.92l-47.28.63,1.89-9.46a1.12,1.12,0,0,1,1.1-1l45.14-1.22,1.49,1.58L286,288.92"/><path class="d" d="M331.71,339.66A4.49,4.49,0,0,0,333,344"/><path class="d" d="M330.57,339.82a5.57,5.57,0,0,0,1.17,4.37"/><line class="d" x1="334.37" y1="341.09" x2="338.68" y2="341.09"/><polygon class="d" points="690.27 216.39 698.72 214.19 709.38 212.35 717.83 211.98 735.1 211.62 743.55 211.62 752.37 209.78 754.58 209.41 754.95 211.98 751.27 216.02 746.86 219.33 739.88 221.53 732.9 222.27 727.02 223.74 724.45 225.57 721.87 229.98 718.57 233.66 707.91 238.43 701.29 239.9 694.31 239.9 689.9 241 688.07 242.1 684.02 250.19 672.26 260.1 661.97 267.08 650.95 273.7 641.03 279.94 632.58 283.25 628.16 283.61 623.75 281.78 622.65 273.33 620.82 256.06 619.71 229.62 619.62 218.29 620.08 218.23 621.18 216.39 624.12 216.39 628.53 217.86 636.62 219.33 649.11 218.59 664.18 218.59 675.2 217.13 679.61 217.13 684.02 217.49 690.27 216.39"/><polyline class="d" points="475.31 188.23 477.26 188.36 477 187.32 476.35 187.06 474.53 187.06 475.31 188.23"/><polyline class="d" points="462.98 190.17 465.57 190.17 466.22 191.34 464.79 191.73 463.11 190.82 462.98 190.17"/><polyline class="d" points="433.89 201.85 436.49 201.59 437.66 200.43 437.92 199.78 435.84 200.04 435.58 200.81 434.67 201.07 433.89 201.85"/><polyline class="d" points="453.37 192.9 456.35 192.9 457.78 192.25 458.69 191.99 457.52 191.08 455.96 191.08 454.02 192.25 453.37 192.9"/><polyline class="d" points="451.55 189.13 455.44 188.75 457.65 187.97 460.51 186.02 460.64 185.24 457.65 186.54 454.54 187.19 452.46 188.1 451.55 189.13"/><polyline class="d" points="431.16 171.61 434.15 170.7 438.44 167.59 439.08 166.16 436.1 167.07 431.81 169.79 431.16 171.61"/><polygon class="c" points="436.75 216.13 426.49 215.74 424.94 215.8 426.23 213.53 425.97 210.68 428.57 206.4 424.93 207.95 423.5 210.42 420.91 213.15 417.92 213.28 419.87 211.07 420.52 207.69 421.69 205.88 421.95 203.93 418.57 200.04 426.1 193.55 424.15 193.29 417.92 196.14 415.84 195.88 413.9 193.29 411.43 193.29 410 193.68 407.79 193.42 407.53 191.21 405.46 188.88 409.87 183.29 415.97 175.9 424.67 169.54 430.38 165.51 438.57 161.49 443.37 158.76 444.67 157.85 447.52 156.95 457.39 153.05 459.86 151.88 461.94 151.75 463.37 151.88 466.35 152.4 470.9 152.66 473.88 152.53 475.96 151.88 477.26 152.14 478.69 152.66 478.95 158.37 479.86 158.5 480.5 158.89 481.28 160.45 480.76 161.49 479.08 162.4 477.26 163.18 472.71 165.9 462.07 172.39 454.28 176.54 449.6 178.88 447.39 180.83 443.37 182.13 441.94 183.94 437.66 186.41 437.79 187.19 441.81 185.63 447.52 182.9 450.9 180.7 456.35 177.32 462.71 174.08 468.43 170.7 471.93 167.98 476.22 165.64 478.56 163.82 481.02 163.82 483.23 167.85 487.13 170.44 492.06 172.65 498.42 174.47 503.75 174.99 507.25 175.38 506.34 178.36 504.78 180.57 496.73 184.2 493.36 185.5 487.9 185.89 485.31 186.67 485.44 188.1 491.02 188.62 490.76 190.17 481.93 193.55 477.65 193.81 476.22 195.36 469.6 196.14 467.13 196.14 466.22 193.81 461.29 194.07 453.89 195.24 449.73 196.4 445.58 199.39 443.76 201.34 444.02 207.56 443.76 210.42 442.85 212.63 437.01 215.22 436.75 216.13"/><polyline class="d" points="474.92 215.61 477 208.99 476.74 204.97 476.22 201.59 476.22 195.36"/><path class="c" d="M145.84,257.11A45.22,45.22,0,0,1,164.55,240a1.09,1.09,0,0,1,1.37.39l-6.25,17-11.15.39-2.68-.62"/><polyline class="c" points="272.48 240.15 280.3 256.17 280.3 257.54 291.05 257.15 290.86 255.98 274.63 239.56 273.46 238.97 272.48 240.15"/><path class="c" d="M189,217.28h64.52V203.79a35.22,35.22,0,0,0,8-28.14,62.13,62.13,0,0,0-18-19.94,76.3,76.3,0,0,0-32.84-2.34,39.91,39.91,0,0,0-25.62,21.69v8.6l4.3,9.38L190,196,188,200.86v12.51l1,3.91"/><line class="d" x1="688.23" y1="242.01" x2="684.39" y2="229.98"/><path class="d" d="M749.8,233.29a180.33,180.33,0,0,1-65,130.77"/><path class="d" d="M749.8,233.29a323,323,0,0,1-15.07,38.2"/><path class="d" d="M749.8,233.29A208.57,208.57,0,0,0,755,280.67"/><line class="d" x1="684.76" y1="364.06" x2="706.81" y2="330.27"/><line class="d" x1="684.76" y1="364.06" x2="719.67" y2="345.33"/><polyline class="d" points="623.75 281.78 617.51 274.43 613.83 265.25"/><path class="c" d="M601,221.53h-4L594.36,223l-5.88,1.84h-5.15l-1.88.63q7.53,12.81,14.27,26.08a17.79,17.79,0,0,0,2.79,4l1-1V224.47l1.47-.37h1.1v2.58l1.47,7v6.24l1.84,7,.74,7v12.86l7.71-1.47,7.92-.39-.93-8.8-1.11-26.45-.09-11.32-2.11.3-8.82,1.47Z"/><path class="c" d="M487.6,222.56a70.51,70.51,0,0,1,20.62,32.54l32.87-1,26.1-.32,10.31-.64,6.13-1L571.38,230l-1.29-3.22H553.66L543,223.53l-10.32-2.25L525,218.7l-4.51-1-12.25.65L501.46,220l-4.84.64-6.44.32-2.58,1.61"/><polyline class="d" points="382.45 257.32 388.36 239.49 396.06 227.68 408.39 215.61 474.92 215.61 483.65 218.44 491.62 224.85 497.53 232.81 508.57 255.66 382.45 257.32"/><polygon class="d" points="263.69 411.41 252.42 410.29 244.53 411.41 245.65 428.31 245.65 431.68 277.22 431.68 316.89 431.68 318.93 410.29 307.65 410.29 289.62 412.54 277.22 411.41 263.69 411.41"/><polygon class="d" points="341.83 431.5 341.59 411.61 332.69 411.37 332.22 431.74 341.83 431.5"/><polygon class="d" points="355.44 411.96 354.92 431.61 422.56 431.61 422.82 410.91 406.04 410.91 395.56 412.75 386.9 412.22 374.32 412.48 371.44 414.84 360.95 411.7 355.44 411.96"/></svg>