<svg xmlns="http://www.w3.org/2000/svg" viewBox="0 0 1197.84 727.44"><defs><style>.a{fill:none;stroke:#000;stroke-linecap:round;stroke-linejoin:round;stroke-width:8px;}</style></defs><title>S12-1 korkortonline.se</title><circle class="a" cx="267.45" cy="596.95" r="78.62" transform="translate(-205.09 150.79) rotate(-22.5)"/><circle class="a" cx="871.51" cy="596.95" r="78.62" transform="translate(-163.85 794.09) rotate(-45)"/><path class="a" d="M128.42,87.28,113,118.19a26.19,26.19,0,0,0-2.76,11.72v41.52A26.16,26.16,0,0,0,113,183.15l16.2,32.4A26.21,26.21,0,0,0,152.6,230h91.63L156.56,394.42,73.07,432.7a26.18,26.18,0,0,0-15.29,23.82v83.09a26.12,26.12,0,0,0,2.9,12l16,31.13A26.19,26.19,0,0,0,100,597h62.62a104.84,104.84,0,0,1,209.67,0H766.67a104.84,104.84,0,0,1,209.67,0h131a26.21,26.21,0,0,0,26.21-26.21v-420a26.21,26.21,0,0,0-26.21-26.21h-391a26.27,26.27,0,0,1-8.29-1.35l-147-49a26.2,26.2,0,0,0-8.28-1.34H151.86A26.2,26.2,0,0,0,128.42,87.28Z" transform="translate(3 3)"/><path class="a" d="M251.45,266.26a15.73,15.73,0,0,1,13.86-8.3H375.82a15.71,15.71,0,0,1,15.72,15.72v105L182.77,394.42Z" transform="translate(3 3)"/><path class="a" d="M217.19,123.43H395.4a15.72,15.72,0,0,1,15.72,15.72v47.17a15.73,15.73,0,0,1-15.73,15.73H217.19a15.73,15.73,0,0,1-15.73-15.73V139.16A15.73,15.73,0,0,1,217.19,123.43Z"/><path class="a" d="M505.52,234.75h205.7a15.72,15.72,0,0,1,15.72,15.72v125.8A15.73,15.73,0,0,1,711.22,392H505.52a15.73,15.73,0,0,1-15.73-15.73V250.48A15.73,15.73,0,0,1,505.52,234.75Z"/><path class="a" d="M909.5,234.75h125.8A15.73,15.73,0,0,1,1051,250.48v125.8A15.73,15.73,0,0,1,1035.29,392H909.5a15.72,15.72,0,0,1-15.72-15.72V250.48A15.73,15.73,0,0,1,909.5,234.75Z"/><rect class="a" x="4" y="4" width="1189.84" height="719.44"/></svg>