<svg xmlns="http://www.w3.org/2000/svg" viewBox="0 0 245.78 149.4"><defs><style>.a{fill:none;stroke:#000;stroke-linecap:round;stroke-linejoin:round;stroke-width:2px;}</style></defs><title>S5-1 korkortonline.se</title><rect class="a" x="121.22" y="58.05" width="28.01" height="18.25"/><path class="a" d="M34.6,108.87a16,16,0,1,0,30.55,0h97.12a16,16,0,1,0,30.55,0h27.42a10.14,10.14,0,0,0,10.15-10.15V51.64a10.15,10.15,0,0,0-10.15-10.15H34.48a10.15,10.15,0,0,0-9.54,6.68L15.07,75.3V98.72a10.14,10.14,0,0,0,10.15,10.15h9.17"/><rect class="a" x="1" y="1" width="243.78" height="147.4"/><polygon class="a" points="47.39 76.3 47.39 58.05 33.65 58.05 27 76.3 47.39 76.3"/><rect class="a" x="53.33" y="58.05" width="28.01" height="18.25"/><rect class="a" x="87.27" y="58.05" width="28.01" height="18.25"/><rect class="a" x="189.1" y="58.05" width="26.93" height="18.25"/><rect class="a" x="155.16" y="58.05" width="28.01" height="18.25"/></svg>