<svg xmlns="http://www.w3.org/2000/svg" viewBox="0 0 245.78 149.4"><defs><style>.a{fill:none;stroke:#000;stroke-linecap:round;stroke-linejoin:round;stroke-width:2px;}</style></defs><title>S6-1 korkortonline.se</title><rect class="a" x="1" y="1" width="243.78" height="147.4"/><path class="a" d="M160.21,105a14.78,14.78,0,1,0-14.77,14.77A14.77,14.77,0,0,0,160.21,105Z"/><circle class="a" cx="145.44" cy="105" r="12.31" transform="translate(-31.65 133.59) rotate(-45)"/><path class="a" d="M172.53,105a27.09,27.09,0,1,0-27.09,27.09A27.09,27.09,0,0,0,172.53,105Z"/><path class="a" d="M97.41,112.85a18.32,18.32,0,1,0-18.32,18.31A18.32,18.32,0,0,0,97.41,112.85Z"/><circle class="a" cx="79.09" cy="112.85" r="9.08"/><path class="a" d="M86,112.85a6.93,6.93,0,1,0-6.93,6.92A6.93,6.93,0,0,0,86,112.85Z"/><path class="a" d="M92.43,58.78H86.82V45.06H80.59V58.78H75v8.64H69.55a7.69,7.69,0,0,0-7.69,7.7v25a21.39,21.39,0,0,1,37.85,7h15.62a30.15,30.15,0,1,1,60.15,0h8.33a38.48,38.48,0,0,0-11.32-29.43L165,25a8.27,8.27,0,0,0-8.19-7.11h-38A8.27,8.27,0,0,0,110.55,25l-6.21,42.79-11.91-.14Z"/><path class="a" d="M109.86,65.24l5-34.13a6.61,6.61,0,0,1,6.55-5.66h14.75L140,65.24Z"/><path class="a" d="M160.63,31.11l5,34.13H146.08l-3.82-39.79h11.82A6.62,6.62,0,0,1,160.63,31.11Z"/></svg>