<svg xmlns="http://www.w3.org/2000/svg" viewBox="0 0 245.78 149.4"><defs><style>.a{fill:none;stroke:#000;stroke-linecap:round;stroke-linejoin:round;stroke-width:2px;}</style></defs><title>S7-1 korkortonline.se</title><rect class="a" x="1" y="1" width="243.78" height="147.4"/><path class="a" d="M51.64,44.71a41.32,41.32,0,0,1-.37,7,10,10,0,0,0,9.65-.35l-6.11,12a32.58,32.58,0,0,0-21.65,3.08,1.3,1.3,0,0,0-.38.32,2.73,2.73,0,0,0,3.54,4A27.3,27.3,0,1,0,74.79,102a2.7,2.7,0,0,0,4.84,2.09,2.2,2.2,0,0,0,.26-.56A32.64,32.64,0,0,0,64.66,67.1l1.39-2.72q4.71,5.22,9.56,10.32Q80.13,80,84.93,85q4.21,5,8.79,9.66a102.34,102.34,0,0,0,9.86,9,23.31,23.31,0,0,0,9.32,4,66.8,66.8,0,0,0,17.31,1.67,16.73,16.73,0,0,0,9-3.33l.22-.16c.72-.5,1.45-1,2.18-1.48a10.51,10.51,0,0,1,1.9-1.09,6.33,6.33,0,0,1,1.22-.27h10.44a27.31,27.31,0,0,0,52.16-2.73L225.1,100V93h-17a27.55,27.55,0,0,0-.91-6.32,3,3,0,0,0,4.8-1.14,1.74,1.74,0,0,0,.05-1.29,32.64,32.64,0,0,0-11.59-16.63,11.6,11.6,0,0,0,2.15-1.06,12.93,12.93,0,0,0,3.24-2.75,13.19,13.19,0,0,0,1.65-2.41,8.2,8.2,0,0,0,.79-2.82,7.67,7.67,0,0,0-1.1-4.15,10,10,0,0,0-7.73-4.24,26.67,26.67,0,0,0-11,.86,119.75,119.75,0,0,1-30.3,1.67q-4.65-.52-9.32-.67c-.81,0-1.63,0-2.44.06a43.46,43.46,0,0,0-8.57,1,11,11,0,0,0-1.57.58,10.47,10.47,0,0,0-3.12,2.49,23.55,23.55,0,0,0-3.28,5.15,66.6,66.6,0,0,0-55.18-14l3.39-6.66a66.68,66.68,0,0,0,17.5-1,30.27,30.27,0,0,0,8.66-3,17.22,17.22,0,0,0,3-2.1,3.21,3.21,0,0,0,.67-.88,4.66,4.66,0,0,0-5.06-6.68c-1.27.37-2.56.71-3.85,1-1.8.51-3.61,1-5.43,1.43A53,53,0,0,1,79.5,31.42,12.14,12.14,0,0,1,78,31.3a30,30,0,0,1-6.1-1.55L67.4,38.68a19.34,19.34,0,0,0-15.76-3.41v9.44Z"/><path class="a" d="M47,78.75a16.64,16.64,0,1,0,10.4,2.63l-2.74,5.39A10.66,10.66,0,1,1,42,86.8,8.18,8.18,0,0,0,44.3,84Z"/><path class="a" d="M191.46,93a10.66,10.66,0,0,0-20.76-2.66h-6.19a16.65,16.65,0,0,1,33,2.66Z"/><path class="a" d="M196,100.43a16.65,16.65,0,0,1-29.23,2.24l7.36-.67A10.66,10.66,0,0,0,189,100.54Z"/></svg>