<svg xmlns="http://www.w3.org/2000/svg" viewBox="0 0 245.78 149.4"><defs><style>.a{fill:none;stroke:#000;stroke-linecap:round;stroke-linejoin:round;stroke-width:2px;}</style></defs><title>S8-1 korkortonline.se</title><rect class="a" x="1" y="1" width="243.78" height="147.4"/><path class="a" d="M144.17,99.39l6.84-.45a36.47,36.47,0,0,0,72.54-2.49l1.59.12a38.06,38.06,0,0,0-55-36.48l-10.41-18,3.86-8.67,10.57-4.82a3.55,3.55,0,0,0-1.46-6.77q-13.11-.43-26.23-.39a2.57,2.57,0,0,0-1.3,4.85q6.89,3.78,14.08,6.92l-3.79,8.51h-66L94.4,29.51a8.1,8.1,0,0,1,8.93-12h0l7.14,1.82,2,.5,1-3.93-2-.5-7.17-1.82h0A12.15,12.15,0,0,0,90,29.64l-12.91,32a38.06,38.06,0,0,0-19.26-5.53v1.6a36.47,36.47,0,1,0,28.93,58l1.29.94A38.07,38.07,0,0,0,80.49,64l2.21-5.48,40,34.77a11.34,11.34,0,0,0,11.45,16.21l2.38,7.76H134v4h10.32v-4h-3.6L138,108.3A11.34,11.34,0,0,0,144.17,99.39Z"/><path class="a" d="M71,87.49a14.17,14.17,0,0,1-13.69,8.77,2,2,0,0,1-1.75-3,2.05,2.05,0,0,1,1.76-1A10.12,10.12,0,0,0,67,86.61l7.22-17.88a30.55,30.55,0,1,0,3.33,2.57L71,87.5Z"/><path class="a" d="M132.41,79.56v-4H122.08v4H125l2.63,8.59A11.08,11.08,0,0,0,125.09,90L84.3,54.51l3.54-8.76h65.81L135.24,87.1a11,11,0,0,0-3.75-.16l-2.25-7.38Z"/><path class="a" d="M157.69,46.64l8.92,15.45A38,38,0,0,0,149.1,95l-5.23.34A11.32,11.32,0,0,0,139,88.63l18.25-41Z"/><path class="a" d="M183.63,91.58,170.39,68.64a30.55,30.55,0,0,0-13.75,25.88L183,92.79Z"/><path class="a" d="M187.27,89.79a4.35,4.35,0,1,1-3.56,7L157,98.55a30.51,30.51,0,1,0,16.95-31.9Z"/></svg>