<svg xmlns="http://www.w3.org/2000/svg" viewBox="0 0 245.78 149.4"><defs><style>.a{fill:none;stroke:#000;stroke-linecap:round;stroke-linejoin:round;stroke-width:2px;}</style></defs><title>S9-1 korkortonline.se</title><rect class="a" x="28.52" y="115.52" width="188.74" height="14.17"/><rect class="a" x="1" y="1" width="243.78" height="147.4"/><path class="a" d="M146.11,100.21a5.39,5.39,0,1,0-5.38,5.39A5.38,5.38,0,0,0,146.11,100.21Z"/><circle class="a" cx="140.73" cy="100.21" r="14.74"/><path class="a" d="M36.17,100.17v5.14a5.39,5.39,0,1,1-2.82,4.46h-2v-9.64H28.52V95H63.89V79.76l11.57-32.6a5.66,5.66,0,0,1,5.34-3.78H197.22a5.68,5.68,0,0,1,5.35,3.78l11.56,32.6v20.41H159.56L151.63,84.3H129.82l-7.93,15.87Z"/></svg>