<svg xmlns="http://www.w3.org/2000/svg" viewBox="0 0 414.26 340.16"><defs><style>.a{fill:#0c479d;}.b{fill:#fff;}.c{fill:#000;}.d{fill:#007a61;}</style></defs><title>SIG3-1 korkortonline.se</title><rect class="a" x="334.89" y="63.66" width="79.37" height="49.72"/><path class="b" d="M382,99.23l2.45-.16a13.05,13.05,0,0,0,26-.9l.57,0a13.62,13.62,0,0,0-19.69-13.06l-3.72-6.45,1.38-3.1,3.78-1.72a1.27,1.27,0,0,0-.52-2.43q-4.69-.15-9.39-.14a.92.92,0,0,0-.46,1.74q2.46,1.35,5,2.48l-1.36,3H362.39l1.76-4.36a2.9,2.9,0,0,1,3.2-4.3h0l2.55.65.71.18.35-1.41-.7-.18-2.57-.65h0a4.34,4.34,0,0,0-5.13,5.75L358,85.71a13.54,13.54,0,0,0-6.89-2v.57A13,13,0,1,0,361.41,105l.46.34a13.62,13.62,0,0,0-2.7-18.83l.79-2L374.28,97a4,4,0,0,0,4.09,5.8l.85,2.78h-.89v1.45H382v-1.45h-1.29l-1-3.2A4,4,0,0,0,382,99.23Z"/><rect class="c" width="119.05" height="340.16"/><rect class="c" x="167.44" width="119.05" height="340.16"/><rect class="c" x="334.89" y="113.39" width="79.37" height="226.77"/><path class="b" d="M102,170.08A42.52,42.52,0,1,0,59.53,212.6,42.52,42.52,0,0,0,102,170.08Z"/><circle class="b" cx="59.53" cy="59.53" r="42.52" transform="translate(-16.35 95.99) rotate(-70.67)"/><path class="b" d="M269.49,59.53A42.52,42.52,0,1,0,227,102.05,42.52,42.52,0,0,0,269.49,59.53Z"/><path class="b" d="M269.49,170.08A42.52,42.52,0,1,0,227,212.6,42.52,42.52,0,0,0,269.49,170.08Z"/><path class="b" d="M402.92,153.07a28.35,28.35,0,1,0-28.35,28.35A28.35,28.35,0,0,0,402.92,153.07Z"/><path class="b" d="M402.92,226.77a28.35,28.35,0,1,0-28.35,28.35A28.35,28.35,0,0,0,402.92,226.77Z"/><circle class="b" cx="59.53" cy="280.63" r="42.52" transform="translate(-6.93 1.56) rotate(-1.42)"/><circle class="c" cx="59.53" cy="59.53" r="37.76" transform="translate(-16.43 95.82) rotate(-70.54)"/><path class="c" d="M97.28,170.08a37.76,37.76,0,1,0-37.75,37.75A37.76,37.76,0,0,0,97.28,170.08Z"/><path class="c" d="M264.73,170.08A37.76,37.76,0,1,0,227,207.83,37.77,37.77,0,0,0,264.73,170.08Z"/><path class="c" d="M264.73,59.53A37.76,37.76,0,1,0,227,97.28,37.77,37.77,0,0,0,264.73,59.53Z"/><path class="d" d="M269.49,280.63A42.52,42.52,0,1,0,227,323.15,42.52,42.52,0,0,0,269.49,280.63Z"/><circle class="c" cx="59.53" cy="280.63" r="37.76" transform="translate(-225.55 312.71) rotate(-84.45)"/><path class="d" d="M96.9,285.17a38,38,0,0,0,0-9.88L49,277.19v-30L22.39,280.23l26.59,33v-30Z"/><path class="c" d="M399.74,153.07a25.17,25.17,0,1,0-25.17,25.17A25.17,25.17,0,0,0,399.74,153.07Z"/><path class="c" d="M399.74,226.77a25.17,25.17,0,1,0-25.17,25.17A25.17,25.17,0,0,0,399.74,226.77Z"/><path class="d" d="M402.92,300.47a28.35,28.35,0,1,0-28.35,28.35A28.34,28.34,0,0,0,402.92,300.47Z"/><path class="a" d="M355.77,95a5.09,5.09,0,0,1-4.9,3.14.7.7,0,0,1-.62-.37.71.71,0,0,1,0-.72.73.73,0,0,1,.62-.36,3.59,3.59,0,0,0,3.46-2l2.59-6.4a10.94,10.94,0,1,0,1.19.92L355.77,95Z"/><path class="a" d="M397.39,95.79a1.56,1.56,0,1,1-1.28,2.51l-9.57.63a10.92,10.92,0,1,0,6.07-11.42Z"/><path class="a" d="M396.08,96.43l-4.73-8.21a10.9,10.9,0,0,0-4.92,9.26l9.44-.62Z"/><path class="a" d="M386.8,80.35,390,85.88A13.65,13.65,0,0,0,383.93,95a14.28,14.28,0,0,0-.2,2.69l-1.87.12a4.14,4.14,0,0,0-1.75-2.41l6.53-14.66Z"/><path class="a" d="M377.75,92.13V90.68h-3.69v1.45h1L376,95.2a3.88,3.88,0,0,0-.91.65L360.54,83.17,361.81,80h23.55l-6.59,14.8a3.78,3.78,0,0,0-1.34-.06l-.81-2.64Z"/></svg>