<svg xmlns="http://www.w3.org/2000/svg" viewBox="0 0 414.26 340.16"><defs><style>.a{fill:#0c479d;}.b{fill:#fff;}.c{fill:#000;}.d{fill:#ffce00;}</style></defs><title>SIG4-1 korkortonline.se</title><rect class="a" x="334.89" y="63.66" width="79.37" height="49.72"/><path class="b" d="M382,99.23l2.45-.16a13.05,13.05,0,0,0,26-.9l.57,0a13.62,13.62,0,0,0-19.69-13.06l-3.72-6.45,1.38-3.1,3.78-1.72a1.27,1.27,0,0,0-.52-2.43q-4.69-.15-9.39-.14a.92.92,0,0,0-.46,1.74q2.46,1.35,5,2.48l-1.36,3H362.39l1.76-4.36a2.9,2.9,0,0,1,3.2-4.3h0l2.55.65.71.18.35-1.41-.7-.18-2.56-.65h0a4.34,4.34,0,0,0-5.13,5.75L358,85.71a13.54,13.54,0,0,0-6.89-2v.57A13,13,0,1,0,361.41,105l.46.34a13.61,13.61,0,0,0-2.7-18.83l.79-2L374.28,97a4,4,0,0,0,.33,4.11,4.09,4.09,0,0,0,3.76,1.69l.85,2.78h-.89v1.45H382v-1.45h-1.29l-1-3.2A4,4,0,0,0,382,99.23Z"/><rect class="c" width="119.05" height="340.16"/><rect class="c" x="167.44" width="119.05" height="340.16"/><rect class="c" x="334.89" y="113.39" width="79.37" height="226.77"/><path class="b" d="M102.05,59.53a42.52,42.52,0,1,0-42.52,42.52A42.52,42.52,0,0,0,102.05,59.53Z"/><path class="b" d="M102.05,280.63a42.52,42.52,0,1,0-42.52,42.52A42.52,42.52,0,0,0,102.05,280.63Z"/><circle class="b" cx="226.97" cy="280.63" r="42.52"/><circle class="b" cx="226.97" cy="59.53" r="42.52" transform="translate(116.89 266.75) rotate(-76.72)"/><path class="b" d="M402.92,153.07a28.35,28.35,0,1,0-28.35,28.35A28.35,28.35,0,0,0,402.92,153.07Z"/><path class="b" d="M402.92,300.47a28.35,28.35,0,1,0-28.35,28.35A28.34,28.34,0,0,0,402.92,300.47Z"/><path class="d" d="M102.05,170.08A42.52,42.52,0,1,0,59.53,212.6,42.52,42.52,0,0,0,102.05,170.08Z"/><path class="d" d="M269.49,170.08A42.52,42.52,0,1,0,227,212.6,42.52,42.52,0,0,0,269.49,170.08Z"/><path class="d" d="M402.92,226.77a28.35,28.35,0,1,0-28.35,28.35A28.35,28.35,0,0,0,402.92,226.77Z"/><polygon class="c" points="68.03 131.81 68.03 157.32 97.8 157.32 97.8 182.84 68.03 182.84 68.03 208.35 19.56 170.08 68.03 131.81"/><path class="c" d="M97.28,59.53A37.76,37.76,0,1,0,59.53,97.28,37.76,37.76,0,0,0,97.28,59.53Z"/><path class="c" d="M97.28,280.63a37.76,37.76,0,1,0-37.75,37.76A37.76,37.76,0,0,0,97.28,280.63Z"/><circle class="c" cx="226.97" cy="280.63" r="37.76"/><circle class="c" cx="226.97" cy="59.53" r="37.76" transform="translate(87.54 248.26) rotate(-68.24)"/><polygon class="d" points="59.53 152.22 59.53 165.83 86.31 165.83 86.31 174.33 59.53 174.33 59.53 187.94 37.42 170.08 59.53 152.22"/><path class="c" d="M399.74,300.47a25.17,25.17,0,1,0-25.17,25.17A25.17,25.17,0,0,0,399.74,300.47Z"/><path class="c" d="M399.74,153.07a25.17,25.17,0,1,0-25.17,25.17A25.17,25.17,0,0,0,399.74,153.07Z"/><path class="a" d="M355.77,95a5.09,5.09,0,0,1-4.9,3.14.7.7,0,0,1-.62-.37.71.71,0,0,1,0-.72.73.73,0,0,1,.62-.36,3.62,3.62,0,0,0,3.47-2l2.58-6.4a10.94,10.94,0,1,0,1.19.92L355.77,95Z"/><path class="a" d="M397.39,95.79a1.55,1.55,0,0,1,.6,3,1.57,1.57,0,0,1-1.88-.46l-9.57.63a10.92,10.92,0,1,0,6.07-11.42Z"/><path class="a" d="M396.09,96.43l-4.74-8.21a10.9,10.9,0,0,0-4.92,9.26l9.44-.62Z"/><path class="a" d="M386.8,80.35,390,85.88A13.65,13.65,0,0,0,383.93,95a14.28,14.28,0,0,0-.2,2.69l-1.87.12a4.14,4.14,0,0,0-1.75-2.41l6.53-14.66Z"/><path class="a" d="M377.75,92.13V90.68h-3.69v1.45h1L376,95.2a4.09,4.09,0,0,0-.91.65L360.54,83.17,361.81,80h23.55l-6.59,14.8a3.78,3.78,0,0,0-1.34-.06l-.81-2.64Z"/></svg>