<svg xmlns="http://www.w3.org/2000/svg" viewBox="0 0 119.05 229.61"><defs><style>.a{fill:#000;}.b{fill:#fff;}.c{fill:#dc0032;}</style></defs><title>SIG6-1 korkortonline.se</title><rect class="a" width="119.05" height="229.61"/><circle class="b" cx="59.53" cy="59.53" r="42.52" transform="translate(-9.29 11.03) rotate(-9.83)"/><circle class="b" cx="59.53" cy="170.08" r="42.52" transform="translate(-37.48 18.23) rotate(-13.28)"/><circle class="a" cx="59.53" cy="59.53" r="37.76" transform="translate(-7.23 8.24) rotate(-7.47)"/><path class="c" d="M59.53,66.76H60l2.13,25.93h8.08l-.22-1.06L66.75,91,65.48,66.76l.85-20.41,2.55,6.37V63.35L69,65.06a1.59,1.59,0,0,0,3.12,0l.14-1.71V51.87L68,41.24,62.5,36.57,63,29.76a3.8,3.8,0,0,0-.85-2.86,3.86,3.86,0,0,0-2.64-1.39,3.86,3.86,0,0,0-2.65,1.39A3.8,3.8,0,0,0,56,29.76l.52,6.81L51,41.24,46.77,51.87V63.35l.14,1.71a1.59,1.59,0,0,0,3.12,0l.14-1.71V52.72l2.55-6.37.85,20.41L52.3,91l-3.19.64-.21,1.06H57L59.1,66.76Z"/><circle class="a" cx="59.53" cy="170.08" r="37.76" transform="translate(-41.16 20.64) rotate(-14.68)"/></svg>