<svg xmlns="http://www.w3.org/2000/svg" viewBox="0 0 119.05 340.16"><defs><style>.a{fill:#000;}.b{fill:#fff;}</style></defs><title>SIG8-1 korkortonline.se</title><rect class="a" width="119.05" height="340.16"/><circle class="b" cx="59.53" cy="280.63" r="42.52"/><circle class="b" cx="59.53" cy="170.08" r="42.52" transform="translate(-40.66 20.3) rotate(-14.49)"/><circle class="b" cx="59.53" cy="59.53" r="42.52" transform="translate(-22.02 38.61) rotate(-30.62)"/><circle class="a" cx="59.53" cy="280.63" r="37.76" transform="translate(-57.59 18.75) rotate(-12.12)"/><circle class="a" cx="59.53" cy="170.08" r="37.76" transform="translate(-37.48 18.23) rotate(-13.28)"/><circle class="a" cx="59.53" cy="59.53" r="37.76" transform="translate(-24.66 59.53) rotate(-45)"/><path class="b" d="M64.59,70a8,8,0,1,1-13,6.16h-10A17.92,17.92,0,1,0,70.9,62.26L54.5,48.84a8,8,0,1,1,13-6.16h10A17.93,17.93,0,1,0,48.19,56.55Z"/></svg>