<svg xmlns="http://www.w3.org/2000/svg" viewBox="0 0 119.05 340.16"><defs><style>.a{fill:#000;}.b{fill:#fff;}</style></defs><title>SIG9-1 korkortonline.se</title><rect class="a" width="119.05" height="340.16"/><circle class="b" cx="59.53" cy="280.63" r="42.52"/><circle class="b" cx="59.53" cy="170.08" r="42.52" transform="translate(-102.83 91.91) rotate(-45)"/><circle class="b" cx="59.53" cy="59.53" r="42.52" transform="translate(-11.55 14.41) rotate(-12.59)"/><circle class="a" cx="59.53" cy="170.08" r="37.76" transform="translate(-102.83 91.91) rotate(-45)"/><circle class="a" cx="59.53" cy="59.53" r="37.76" transform="translate(-12.08 15.27) rotate(-13.28)"/><path class="b" d="M64.59,70a8,8,0,1,1-13,6.16h-10A17.92,17.92,0,1,0,70.9,62.26L54.5,48.84a8,8,0,1,1,13-6.16h10A17.93,17.93,0,1,0,48.19,56.55Z"/><rect class="b" x="26.15" y="162.9" width="66.76" height="14.37"/><circle class="a" cx="59.53" cy="280.63" r="37.76" transform="translate(-181 124.29) rotate(-45)"/></svg>