<svg xmlns="http://www.w3.org/2000/svg" viewBox="0 0 841.18 841.18"><defs><style>.a{fill:#ffce00;}.b{fill:#dc0032;}.c{fill:#000;}</style></defs><title>T10-1 korkortonline.se</title><rect class="a" width="841.18" height="841.18"/><rect class="b" width="841.18" height="841.18" rx="67.29"/><rect class="a" x="33.65" y="33.65" width="773.88" height="773.88" rx="33.65"/><circle class="c" cx="420.59" cy="525.74" r="68.35" transform="translate(-2.61 2.1) rotate(-0.28)"/><circle class="c" cx="502.6" cy="372.22" r="68.35" transform="translate(114.81 862.91) rotate(-88.2)"/><circle class="c" cx="338.57" cy="372.22" r="68.35" transform="translate(-113 594.18) rotate(-73.89)"/><path class="c" d="M420.59,189.26c-127.76,0-231.33,103.57-231.33,231.33S292.83,651.91,420.59,651.91,651.91,548.35,651.91,420.59,548.35,189.26,420.59,189.26Zm0,444.78c-117.89,0-213.45-95.57-213.45-213.45S302.7,207.14,420.59,207.14,634,302.7,634,420.59,538.47,634,420.59,634Z"/></svg>