<svg xmlns="http://www.w3.org/2000/svg" viewBox="0 0 273.13 128.56"><defs><style>.a{fill:none;stroke:#000;stroke-linecap:round;stroke-linejoin:round;}.b{fill:#000;}</style></defs><title>T11-1 korkortonline.se</title><rect class="a" x="14.67" y="14.67" width="243.78" height="99.21" rx="14.17"/><rect class="a" x="0.5" y="0.5" width="272.13" height="127.56"/><polygon class="b" points="204.59 50.11 204.59 18.93 249.95 64.28 204.59 109.63 204.59 78.45 150.74 78.45 150.74 50.11 204.59 50.11"/><polygon class="b" points="68.53 50.11 122.39 50.11 122.39 78.45 68.53 78.45 68.53 109.63 23.18 64.28 68.53 18.93 68.53 50.11"/><path class="a" d="M28.85.5H244.28a28.36,28.36,0,0,1,28.35,28.35V99.71a28.36,28.36,0,0,1-28.35,28.35H28.85A28.34,28.34,0,0,1,.5,99.71V28.85A28.34,28.34,0,0,1,28.85.5Z"/></svg>