<svg xmlns="http://www.w3.org/2000/svg" viewBox="0 0 360.06 169.2"><defs><style>.a{fill:#ffce00;}.b{fill:#dc0032;}.c{fill:#000;}</style></defs><title>T13-1 korkortonline.se</title><rect class="a" width="360.06" height="169.2"/><path class="b" d="M0,13.61v142A13.62,13.62,0,0,0,13.61,169.2H346.45a13.62,13.62,0,0,0,13.61-13.61v-142A13.62,13.62,0,0,0,346.45,0H13.61A13.62,13.62,0,0,0,0,13.61Z"/><path class="a" d="M6.8,13.61v142a6.81,6.81,0,0,0,6.81,6.81H346.45a6.81,6.81,0,0,0,6.81-6.81v-142a6.83,6.83,0,0,0-6.81-6.81H13.61A6.83,6.83,0,0,0,6.8,13.61Z"/><polygon class="c" points="29.48 21.32 54.29 21.32 54.29 29.59 37.75 29.59 37.75 38.66 51.63 38.66 51.63 46.93 37.75 46.93 37.75 66.67 29.48 66.67 29.48 39.99 29.48 21.32"/><polygon class="c" points="62.56 66.67 70.83 66.67 70.83 39.99 70.83 21.32 62.56 21.32 62.56 39.99 62.56 66.67"/><path class="c" d="M79.64,50.24a17.1,17.1,0,0,0,6.93,14.14,15.21,15.21,0,0,0,9.34,2.93,19.28,19.28,0,0,0,12.16-4l-4.8-6.67a10.5,10.5,0,0,1-9,2.4,8.08,8.08,0,0,1-6.14-6.94h23.21V49.46a17.09,17.09,0,0,0-6.93-13.36,15.06,15.06,0,0,0-17.88,0A17.09,17.09,0,0,0,79.64,50.24Z"/><path class="c" d="M120.72,66.67H129V50.13a10,10,0,0,1,4.8-7.2,8.54,8.54,0,0,1,4.81-1.34,6.73,6.73,0,0,1,2.93.54V33.59A17.5,17.5,0,0,0,129,36v-2.4h-8.27Z"/><polygon class="c" points="179.55 33.59 170.74 33.59 163.01 54.66 155.27 33.59 146.47 33.59 158.6 66.67 163.01 66.67 167.41 66.67 179.55 33.59"/><path class="c" d="M194.09,19.85a4.94,4.94,0,1,1-4.94,4.93A4.93,4.93,0,0,1,194.09,19.85Z"/><path class="c" d="M211.69,19.85a4.94,4.94,0,1,1-4.93,4.93A4.94,4.94,0,0,1,211.69,19.85Z"/><path class="c" d="M217.83,33.59h-8.27V36a11.74,11.74,0,0,0-5.34-2.4,14,14,0,0,0-7.73.53,15.89,15.89,0,0,0-8,7.74,24,24,0,0,0,0,16.81,15.37,15.37,0,0,0,9.34,8.27,13.84,13.84,0,0,0,6.4,0,13.46,13.46,0,0,0,5.34-2.4v2.13h8.27Z"/><path class="c" d="M249.31,67.2V63.74a10.91,10.91,0,0,1-4.8,2.13,12.75,12.75,0,0,1-6.14,0A15.34,15.34,0,0,1,229,57.6a21.1,21.1,0,0,1,0-15.74,15.89,15.89,0,0,1,8-7.74,13,13,0,0,1,7.47-.53,9.94,9.94,0,0,1,4.8,2.4v-2.4h8.27V67.2a10.26,10.26,0,0,1-6.4,10.14,27.65,27.65,0,0,1-9.34,1.87A27.93,27.93,0,0,1,229,76.81l3.47-6.94A20.36,20.36,0,0,0,242.37,72a12.12,12.12,0,0,0,4-.8A4.86,4.86,0,0,0,249.31,67.2Z"/><path class="c" d="M271.1,55.73a17.73,17.73,0,0,0,7.73,2.94,14.55,14.55,0,0,0,5.34-.27,2.72,2.72,0,0,0,1.6-1.07,1.87,1.87,0,0,0-1.07-2.93l-11.2-2.67a9.09,9.09,0,0,1-.8-17.07,19.36,19.36,0,0,1,5.87-1.34,23.67,23.67,0,0,1,16,4.27L290,44.26a17.91,17.91,0,0,0-11.21-2.67,6.65,6.65,0,0,0-2.4.54,1.62,1.62,0,0,0,.27,2.93c.26.1.53.19.8.27l10.41,2.4a9.39,9.39,0,0,1,4.53,15.47A12.2,12.2,0,0,1,285,66.67a35,35,0,0,1-8.8,0,19.76,19.76,0,0,1-9.61-4Z"/><path class="a" d="M102.58,46.77a7.16,7.16,0,0,0-14.14,0Z"/><path class="a" d="M209.56,53.87A7.56,7.56,0,0,1,204,59.2a5.81,5.81,0,0,1-4.8-1.07A9.61,9.61,0,0,1,195.69,52a13,13,0,0,1,0-3.74,9.61,9.61,0,0,1,3.47-6.13,5.81,5.81,0,0,1,4.8-1.07,7.56,7.56,0,0,1,5.6,5.33Z"/><path class="a" d="M249.31,54.13a6.55,6.55,0,0,1-5.07,5.07,5.81,5.81,0,0,1-4.8-1.07,9.29,9.29,0,0,1-3.2-6.13,6.67,6.67,0,0,1,0-2.67,9.31,9.31,0,0,1,3.2-6.14,5.84,5.84,0,0,1,4.8-1.06,6.88,6.88,0,0,1,5.07,5.33Z"/><polyline class="c" points="331.91 53.87 331.91 45.59 302.83 45.59 302.83 53.87 331.91 53.87"/><polygon class="c" points="99.33 104.13 90.52 104.13 82.79 125.2 75.06 104.13 66.25 104.13 78.39 137.21 82.79 137.21 87.19 137.21 99.33 104.13"/><path class="c" d="M113.87,90.39a4.94,4.94,0,1,1-4.94,4.93A4.94,4.94,0,0,1,113.87,90.39Z"/><path class="c" d="M131.48,90.39a4.94,4.94,0,1,1-4.94,4.93A4.93,4.93,0,0,1,131.48,90.39Z"/><path class="c" d="M137.61,104.13h-8.27v2.4a11.7,11.7,0,0,0-5.33-2.4,14,14,0,0,0-7.74.53,15.87,15.87,0,0,0-8,7.74,24,24,0,0,0,0,16.81,15.34,15.34,0,0,0,9.34,8.27,13.84,13.84,0,0,0,6.4,0,13.48,13.48,0,0,0,5.33-2.4v2.13h8.27Z"/><path class="a" d="M129.34,124.4a7.52,7.52,0,0,1-5.6,5.34,5.82,5.82,0,0,1-4.8-1.07,9.61,9.61,0,0,1-3.47-6.13,13,13,0,0,1,0-3.74,9.61,9.61,0,0,1,3.47-6.13,5.82,5.82,0,0,1,4.8-1.07,7.52,7.52,0,0,1,5.6,5.33Z"/><path class="c" d="M149.35,95.59a5.21,5.21,0,1,1,5.21,5.2A5.2,5.2,0,0,1,149.35,95.59Z"/><path class="c" d="M158.69,104.13h-8.27v32.81a4.32,4.32,0,0,1-4.27,4.54v8.27a12.58,12.58,0,0,0,12.54-12.81Z"/><path class="c" d="M169.36,137.21h8.27v-20a5.21,5.21,0,0,1,10.41,0v20h8.27V115.47a12,12,0,0,0-18.68-9.74v-1.6h-8.27Z"/><rect class="c" x="206.44" y="104.13" width="8.27" height="33.08"/><path class="c" d="M205.38,95.59a5.2,5.2,0,1,1,5.2,5.2A5.2,5.2,0,0,1,205.38,95.59Z"/><path class="c" d="M225.38,137.21h8.27v-20a5.21,5.21,0,0,1,10.41,0v20h8.27V115.47a12,12,0,0,0-18.68-9.74v-1.6h-8.27Z"/><path class="c" d="M283.27,137.74v-3.46a10.91,10.91,0,0,1-4.8,2.13,12.75,12.75,0,0,1-6.14,0,15.35,15.35,0,0,1-9.33-8.27,21.1,21.1,0,0,1,0-15.74,15.87,15.87,0,0,1,8-7.74,13,13,0,0,1,7.47-.53,9.94,9.94,0,0,1,4.8,2.4v-2.4h8.27v33.61a10.26,10.26,0,0,1-6.4,10.14,29.63,29.63,0,0,1-22.14-.53l3.47-6.94a20.42,20.42,0,0,0,9.87,2.14,12.17,12.17,0,0,0,4-.8A4.85,4.85,0,0,0,283.27,137.74Z"/><path class="a" d="M283.27,124.67a6.53,6.53,0,0,1-5.07,5.07,5.82,5.82,0,0,1-4.8-1.07,9.33,9.33,0,0,1-3.2-6.13,6.67,6.67,0,0,1,0-2.67,9.35,9.35,0,0,1,3.2-6.14,5.85,5.85,0,0,1,4.8-1.06,6.86,6.86,0,0,1,5.07,5.33Z"/></svg>