<svg xmlns="http://www.w3.org/2000/svg" viewBox="0 0 453.54 453.54"><defs><style>.a{fill:#ffce00;}.b{fill:#dc0032;}.c{fill:#000;}</style></defs><title>T15-1 korkortonline.se</title><rect class="a" width="453.54" height="453.54"/><path class="b" d="M0,425.2V28.35A28.34,28.34,0,0,1,28.35,0H425.2a28.34,28.34,0,0,1,28.34,28.35V425.2a28.34,28.34,0,0,1-28.34,28.34H28.35A28.34,28.34,0,0,1,0,425.2Z"/><path class="a" d="M14.17,425.2V28.35A14.17,14.17,0,0,1,28.35,14.17H425.2a14.17,14.17,0,0,1,14.17,14.18V425.2a14.17,14.17,0,0,1-14.17,14.17H28.35A14.18,14.18,0,0,1,14.17,425.2Z"/><path class="c" d="M195.67,240.94H25.51V212.6h159.3A65.17,65.17,0,0,0,195.67,240.94Z"/><path class="c" d="M212.6,257.88A65,65,0,0,0,241,268.73V428H212.6Z"/><path class="c" d="M260.79,25.51V175.75a17,17,0,0,0,17,17H428v68H249.45a56.69,56.69,0,0,1-56.69-56.7V25.51Z"/></svg>