<svg xmlns="http://www.w3.org/2000/svg" viewBox="0 0 1190.84 595.92"><defs><style>.a,.c{fill:#0c479d;}.a{stroke:#0c479d;stroke-linecap:round;stroke-linejoin:round;}.b{fill:#fff;}</style></defs><title>T16-1 korkortonline.se</title><rect class="a" x="0.5" y="0.5" width="1189.84" height="594.92"/><rect class="b" x="0.5" y="0.5" width="1189.84" height="594.92" rx="71.39"/><rect class="c" x="36.19" y="36.19" width="1118.45" height="523.53" rx="35.7"/><polygon class="b" points="332.37 190.87 389.06 369.35 354.92 369.35 344.58 336.81 271.87 336.81 261.54 369.35 227.39 369.35 284.08 190.87 332.37 190.87"/><polygon class="c" points="282.21 304.26 308.23 222.36 334.24 304.26 282.21 304.26"/><polygon class="b" points="541.29 239.17 506.62 239.17 476.2 322.08 445.77 239.17 411.11 239.17 458.88 369.35 476.2 369.35 493.52 369.35 541.29 239.17"/><path class="b" d="M656.24,371.45V357.8a42.62,42.62,0,0,1-18.89,8.4,49.59,49.59,0,0,1-24.15,0,60.36,60.36,0,0,1-36.75-32.54,83.15,83.15,0,0,1,0-62A62.48,62.48,0,0,1,608,241.27a51.31,51.31,0,0,1,29.4-2.1,39.17,39.17,0,0,1,18.89,9.45v-9.45h32.55V371.45a40.36,40.36,0,0,1-25.2,39.9,108.77,108.77,0,0,1-36.74,7.34,110,110,0,0,1-50.4-9.44L590.1,382a80.08,80.08,0,0,0,38.85,8.4,46.59,46.59,0,0,0,15.74-3.15A19,19,0,0,0,656.24,371.45Z"/><path class="c" d="M656.24,320A25.79,25.79,0,0,1,636.3,340a23,23,0,0,1-18.9-4.19,36.73,36.73,0,0,1-12.6-24.15,26.89,26.89,0,0,1,0-10.5A36.73,36.73,0,0,1,617.4,277a23,23,0,0,1,18.9-4.2,27.09,27.09,0,0,1,19.94,21Z"/><rect class="b" x="730.77" y="239.17" width="32.55" height="130.18"/><path class="b" d="M726.57,205.57A20.48,20.48,0,1,1,747.05,226,20.48,20.48,0,0,1,726.57,205.57Z"/><path class="b" d="M848.35,239.17v-6.3a9.46,9.46,0,0,1,9.45-9.45h10.5V190.87H837.85a23.59,23.59,0,0,0-22,22v26.25H800.06v32.54h15.75v97.64h32.54V271.71H868.3V239.17Z"/><path class="b" d="M909.12,271.71V347.3a21.12,21.12,0,0,0,22,22.05h23.1V336.81H949a6.87,6.87,0,0,1-7.35-7.35V271.71h16.27V239.17H941.67v-48.3l-32.55,15.75v32.55H896v32.54Z"/></svg>