<svg xmlns="http://www.w3.org/2000/svg" viewBox="0 0 552.17 293.33"><defs><style>.a,.c{fill:#0c479d;}.a{stroke:#0c479d;}.b{fill:#fff;}</style></defs><title>T17-1 korkortonline.se</title><rect class="a" x="0.5" y="0.5" width="551.17" height="292.33"/><path class="b" d="M.5,19.89V273.44a19.39,19.39,0,0,0,19.39,19.39H532.28a19.39,19.39,0,0,0,19.39-19.39V19.89A19.39,19.39,0,0,0,532.28.5H19.89A19.39,19.39,0,0,0,.5,19.89Z"/><path class="c" d="M9.45,19.89V273.44a10.43,10.43,0,0,0,10.44,10.44H532.28a10.43,10.43,0,0,0,10.44-10.44V19.89A10.43,10.43,0,0,0,532.28,9.45H19.89A10.43,10.43,0,0,0,9.45,19.89Z"/><rect class="b" x="48.58" y="42.35" width="140.38" height="208.63"/><rect class="c" x="52.96" y="46.74" width="131.6" height="199.86"/><rect class="b" x="92.01" y="175.53" width="53.52" height="53.52" rx="8.77"/><path class="c" d="M100.78,224.66h36a4.39,4.39,0,0,0,4.39-4.38v-36a4.39,4.39,0,0,0-4.39-4.38h-36a4.39,4.39,0,0,0-4.39,4.38v36A4.39,4.39,0,0,0,100.78,224.66Z"/><path class="b" d="M244.09,112.19a22.83,22.83,0,0,1,7-7l18.43-10.53A24.24,24.24,0,0,0,279.63,82.8a26,26,0,0,0,0-16.67,24,24,0,0,0-14.48-14,41.06,41.06,0,0,0-22.81.44A22.73,22.73,0,0,0,227,74.9h13.59a9.62,9.62,0,0,1,6.59-9.65,25.17,25.17,0,0,1,14,0,9.3,9.3,0,0,1,5.71,5.7,10.09,10.09,0,0,1,0,7,9.72,9.72,0,0,1-4,4.83L244.53,93.32A36,36,0,0,0,227,125.79h53.95v-13.6Z"/><path class="b" d="M347.09,85v31.58a8.84,8.84,0,0,0,9.22,9.22H366v-13.6h-2.2a2.89,2.89,0,0,1-3.07-3.07V85h6.8V71.39h-6.8V51.21l-13.6,6.58v13.6h-5.48V85Z"/><path class="b" d="M388.18,57.35a8.56,8.56,0,1,1,8.56,8.56A8.55,8.55,0,0,1,388.18,57.35Z"/><rect class="b" x="389.94" y="71.39" width="13.6" height="54.4"/><path class="b" d="M428.1,125.79h13.6V92a7.46,7.46,0,1,1,14.91,0v33.78h13.6V92a7.46,7.46,0,1,1,14.92,0v33.78h13.59V88.06A17.62,17.62,0,0,0,466.7,78a18.59,18.59,0,0,0-25-4.39V71.39H428.1Z"/><path class="b" d="M292.78,201.6a15.3,15.3,0,0,1,4.39,4.39,23.55,23.55,0,0,1,.44,24.13A26.52,26.52,0,0,1,280.5,242a44.5,44.5,0,0,1-16.67,0,26.52,26.52,0,0,1-17.11-11.84,23.55,23.55,0,0,1,.44-24.13,15.3,15.3,0,0,1,4.39-4.39,20.26,20.26,0,0,1-4.39-12.28,20.65,20.65,0,0,1,11-19.3,33.35,33.35,0,0,1,28.07,0,20.21,20.21,0,0,1,11,19.3A21.21,21.21,0,0,1,292.78,201.6Z"/><path class="c" d="M266.9,209.06h10.53a9.67,9.67,0,0,1,3.07.44,10.17,10.17,0,0,1,5.26,3.95,9.22,9.22,0,0,1,.44,9.21A14.05,14.05,0,0,1,277,228.8a25.67,25.67,0,0,1-9.65,0,14.05,14.05,0,0,1-9.21-6.14,9.22,9.22,0,0,1,.44-9.21,10.17,10.17,0,0,1,5.26-3.95A8.89,8.89,0,0,1,266.9,209.06Z"/><path class="c" d="M266.46,195h11a6.25,6.25,0,0,0,6.58-6.14,7.33,7.33,0,0,0-3.95-7,18.78,18.78,0,0,0-15.79,0,7.33,7.33,0,0,0-3.95,7,6,6,0,0,0,6.14,6.14Z"/><polyline class="b" points="367.79 221.06 367.79 207.47 319.98 207.47 319.98 221.06 367.79 221.06"/><polygon class="b" points="395.2 242.12 395.2 189.04 386.87 189.04 386.87 180.71 398.27 167.55 408.8 167.55 408.8 200.89 408.8 242.12 395.2 242.12"/><polygon class="b" points="430.29 181.15 430.29 167.55 482.93 167.55 482.93 179.83 457.05 242.12 442.33 242.12 467.66 181.15 430.29 181.15"/><path class="b" d="M164.6,144.46a108.44,108.44,0,0,1-91.67,0l17.63-37.8a66.74,66.74,0,0,0,56.42,0Z"/><path class="c" d="M91,137.16c1.08.33,2.16.64,3.25.93l6.48-13.9c-1.1-.26-2.2-.53-3.29-.83L91,137.16Z"/><polygon class="b" points="118.77 112.92 131.8 64.28 105.73 64.28 118.77 112.92"/><path class="c" d="M117.1,126.22q1.66,0,3.33,0v15.06q-1.67,0-3.33,0Z"/><path class="c" d="M146.5,137.16l-6.44-13.8c-1.09.3-2.19.57-3.29.83l6.49,13.9Q144.88,137.66,146.5,137.16Z"/><path class="b" d="M115,220.93h-6.8V183.65h14.48a11.08,11.08,0,0,1,0,22.15H115Z"/><path class="c" d="M115,199v-8.55h7.68a4.28,4.28,0,1,1,0,8.55Z"/></svg>