<svg xmlns="http://www.w3.org/2000/svg" viewBox="0 0 1190.84 595.92"><defs><style>.a,.c{fill:#0c479d;}.a{stroke:#0c479d;stroke-linecap:round;stroke-linejoin:round;}.b{fill:#fff;}</style></defs><title>T20-1 korkortonline.se</title><rect class="a" x="0.5" y="0.5" width="1189.84" height="594.92"/><rect class="b" x="0.5" y="0.5" width="1189.84" height="594.92" rx="71.39"/><rect class="c" x="36.19" y="36.19" width="1118.45" height="523.53" rx="35.7"/><path class="b" d="M138.61,369.35H106.06V190.87h69.29a53,53,0,1,1,0,106H138.61Z"/><path class="c" d="M138.61,264.36V223.42h36.74a20.47,20.47,0,0,1,0,40.94Z"/><polyline class="b" points="368 318.96 368 286.41 253.56 286.41 253.56 318.96 368 318.96"/><path class="b" d="M404.73,369.35h32.55V361a52.81,52.81,0,0,0,21,9.45,54.15,54.15,0,0,0,25.19,0,60.32,60.32,0,0,0,36.75-32.55,94.25,94.25,0,0,0,0-66.14,62.48,62.48,0,0,0-31.5-30.44,54.92,54.92,0,0,0-30.44-2.1,46.28,46.28,0,0,0-21,9.45V190.87H404.73V369.35Z"/><path class="c" d="M437.28,319a29.69,29.69,0,0,0,22.05,21,23,23,0,0,0,18.9-4.19,38,38,0,0,0,13.64-24.15,51.71,51.71,0,0,0,0-14.7,38,38,0,0,0-13.64-24.15,23,23,0,0,0-18.9-4.2,29.72,29.72,0,0,0-22.05,21Z"/><rect class="b" x="564.31" y="239.17" width="32.55" height="130.18"/><circle class="b" cx="580.58" cy="205.57" r="20.47" transform="translate(371.1 784.76) rotate(-89.61)"/><polygon class="b" points="638.84 369.35 671.39 369.35 671.39 264.37 671.39 190.87 638.84 190.87 638.84 264.37 638.84 369.35"/><path class="b" d="M717.58,205.57A20.47,20.47,0,1,1,738.05,226,20.47,20.47,0,0,1,717.58,205.57Z"/><path class="b" d="M754.32,239.17H721.77V368.3A17,17,0,0,1,705,386.15v32.54a49.51,49.51,0,0,0,49.34-50.39Z"/><path class="b" d="M789,304.68a67.29,67.29,0,0,0,27.3,55.64A59.78,59.78,0,0,0,853,371.87a75.71,75.71,0,0,0,47.86-15.75L882,329.88a41.42,41.42,0,0,1-35.26,9.45A31.8,31.8,0,0,1,822.56,312H913.9V301.62A67.28,67.28,0,0,0,886.6,249a59.24,59.24,0,0,0-70.34,0A67.29,67.29,0,0,0,789,304.68Z"/><path class="c" d="M879.25,291a28.19,28.19,0,0,0-55.64,0Z"/><path class="b" d="M953.67,271.71V347.3a21.11,21.11,0,0,0,22.05,22.05h23.09V336.81h-5.24a6.87,6.87,0,0,1-7.35-7.35V271.71h16.27V239.17H986.22v-48.3l-32.55,15.75v32.55H940.55v32.54Z"/><path class="b" d="M1042,271.71V347.3a21.11,21.11,0,0,0,22,22.05h23.09V336.81h-5.25a6.89,6.89,0,0,1-7.35-7.35V271.71h16.28V239.17h-16.28v-48.3L1042,206.62v32.55h-13.12v32.54Z"/></svg>