<svg xmlns="http://www.w3.org/2000/svg" xmlns:xlink="http://www.w3.org/1999/xlink" viewBox="0 0 59.53 59.53"><defs><style>.a{fill:none;}.b{fill:#ffce00;}.c{clip-path:url(#a);}.d{fill:#dc0032;}</style><clipPath id="a"><rect class="a" width="59.53" height="59.53"/></clipPath></defs><title>T23-1 korkortonline.se</title><rect class="b" width="59.53" height="59.53"/><g class="c"><path class="d" d="M0,4.76v50a4.78,4.78,0,0,0,4.76,4.76h50a4.78,4.78,0,0,0,4.76-4.76v-50A4.78,4.78,0,0,0,54.77,0h-50A4.78,4.78,0,0,0,0,4.76"/><path class="b" d="M2.38,4.76v50a2.39,2.39,0,0,0,2.38,2.38h50a2.39,2.39,0,0,0,2.38-2.38v-50a2.39,2.39,0,0,0-2.38-2.38h-50A2.39,2.39,0,0,0,2.38,4.76"/><path d="M19.64,14.88H31.37a8.59,8.59,0,0,1,6.66,14A9.08,9.08,0,0,1,31.9,44.65H19.64V14.88Z"/><path class="b" d="M31.93,39.29a3.7,3.7,0,0,0,1.42-7.11,7.13,7.13,0,0,0-1.6-.17H25v7.28Z"/><path class="b" d="M25,26.65h6.41a3.21,3.21,0,0,0,0-6.41H25Z"/></g></svg>