<svg xmlns="http://www.w3.org/2000/svg" viewBox="0 0 842.18 842.18"><defs><style>.a,.c{fill:#0c479d;}.a{stroke:#0c479d;stroke-linecap:round;stroke-linejoin:round;}.b{fill:#fff;}.d{fill:#dc0032;}</style></defs><title>T24-1 korkortonline.se</title><rect class="a" x="0.5" y="0.5" width="841.18" height="841.18"/><path class="b" d="M51,.5H791.21A50.46,50.46,0,0,1,841.68,51V791.21a50.46,50.46,0,0,1-50.47,50.47H51A50.46,50.46,0,0,1,.5,791.21V51A50.46,50.46,0,0,1,51,.5Z"/><path class="c" d="M51,25.74H791.21A25.24,25.24,0,0,1,816.45,51V791.21a25.24,25.24,0,0,1-25.24,25.24H51a25.24,25.24,0,0,1-25.24-25.24V51A25.23,25.23,0,0,1,51,25.74Z"/><path class="b" d="M25.74,584.37V343H211.83L163,251.22a550.61,550.61,0,0,0-137.3-17.4V177.36a629.55,629.55,0,0,1,150.35,18.22,56.48,56.48,0,0,1,36.37,28.32l64.81,121.9a134.11,134.11,0,0,1,45.4,130.4l-20.28,75.68v68.88a54.58,54.58,0,0,1-109.16,0V584.37Z"/><path class="b" d="M607,425.13V675.34H816.45V359.87A114.87,114.87,0,0,0,607,425.13Z"/><polygon class="d" points="654.87 508.64 731.39 474.21 714.56 540.79 686.77 531.73 703.84 612.23 765.3 557.5 737.54 548.39 795.68 415.28 687.77 465.79 731.39 380.08 683.95 363.24 654.87 508.64"/><path class="b" d="M324.31,466.61l.36.18,1.91.91,1.16.55,1.53.66,1.66.72,1.91.81,1.59.56,2,.78,1.91.63,1.93.62,1.72.53,1.63.41,1.87.44,1.66.31,1.69.34,1.81.22,1.69.19,1.91.12,2,0,1.66,0,1.75-.19,2.94-.43,1.93-.44,1.29-.38,1.8-.63,1.88-.68,2.31-.94,2-1,2-1,2-1,1.75-1L381,467l1.91-1.13,1.94-1.18,1.47-.85,2-1.22,1.72-1,1.22-.72,1.44-.78,1.78-1,2-1,2-1,1.63-.69,1.65-.68,1.66-.66,2.19-.69.93-.31,1.35-.41.78-.15,1.13-.31,1.59-.32,1.47-.34,1.66-.19,1.25-.22,1.81-.22,1.62-.12,1.38-.13,1.69-.09,1.4-.09h2.57l2,0,1.78.09,1.38.05,1.06,0,1.44.1L435,452l1.13.09,1.31.16,1.16.09,1.22.16,1.25.16,1.28.12,1.25.19,1.25.12,1.19.19,1.22.19,1.22.12,1.35.22,1.5.25,1.22.25,1.25.19,1.22.19,1.22.21,1.22.22,1.22.22,1.25.19,1.25.25v-9.46h3.73V423.86h56v11.21h35.44a5.6,5.6,0,0,1,0,11.2H520.94v29.88h35.44a5.6,5.6,0,1,1,0,11.2H520.94v11.21h-56V476.15h-3.73v-9.46l-1.25-.25-1.25-.19-1.22-.22-1.22-.21L455,465.6l-1.22-.19-1.25-.19-1.22-.25-1.5-.25-1.35-.21-1.22-.13-1.22-.19-1.19-.19-1.25-.12-1.25-.19-1.28-.12-1.25-.16-1.22-.15-1.16-.1-1.31-.15-1.13-.1-1.09-.06-1.44-.09-1.06,0-1.38-.05-1.78-.09-2,0h-2.57l-1.4.09-1.69.1-1.38.12-1.62.13-1.81.22-1.25.21-1.66.19-1.47.34-1.59.32-1.13.31-.78.16-1.35.4-.93.31-2.19.69-1.66.66-1.65.68-1.63.69-2,1-2,1-1.78,1-1.44.78-1.22.72-1.72,1-2,1.21-1.47.85-1.94,1.18L381,478l-1.46.82-1.75,1-2,1-2,1-2,1-2.31.94-1.88.69-1.8.63-1.29.37-1.93.44-2.94.44-1.75.18-1.66,0-2,0-1.91-.13-1.69-.19-1.81-.22-1.69-.34-1.66-.31-1.87-.44-1.63-.41-1.72-.53-1.93-.62-1.91-.63-2-.78-1.59-.56-1.91-.81-1.66-.72-1.53-.66-1.16-.55-1.91-.91-1.22-.59-.52-.23-.41-.18.15-.55Q323.66,471.44,324.31,466.61Z"/></svg>