<svg xmlns="http://www.w3.org/2000/svg" viewBox="0 0 842.18 842.18"><defs><style>.a,.c{fill:#fff;}.a{stroke:#000;}.b{fill:#000;}</style></defs><title>T25-1 korkortonline.se</title><rect class="a" x="0.5" y="0.5" width="841.18" height="841.18"/><rect class="b" x="0.5" y="0.5" width="841.18" height="841.18" rx="67.29"/><rect class="c" x="34.15" y="34.15" width="773.88" height="773.88" rx="33.65"/><path class="b" d="M318.29,373.25l52-29.69a67.9,67.9,0,0,0,28.34-33.27,72.8,72.8,0,0,0,0-46.84A67.36,67.36,0,0,0,357.93,224a115.58,115.58,0,0,0-64.18,1.23,63.93,63.93,0,0,0-43.12,62.86h37.85a27.35,27.35,0,0,1,18.73-27.45,71.38,71.38,0,0,1,39.73,0,26.44,26.44,0,0,1,16.24,16.23,28.46,28.46,0,0,1,0,20,27.56,27.56,0,0,1-11.24,13.74l-52,29.69a101.3,101.3,0,0,0-49.35,91.32H402.46V393.75H298A64.52,64.52,0,0,1,318.29,373.25Z"/><path class="b" d="M371,471.77A16.19,16.19,0,1,0,387.23,488,16.19,16.19,0,0,0,371,471.77Z"/><rect class="b" x="357.79" y="514.46" width="26.5" height="107.46"/><path class="b" d="M313.63,474.71l-26.5,12.82v26.93h-10.3V541h10.3v63.29a17.67,17.67,0,0,0,17.67,17.67H324v-26.5h-4.48a5.88,5.88,0,0,1-5.89-5.89V541h13.25v-26.5H313.63Z"/><path class="b" d="M523.1,512.78a34.8,34.8,0,0,0-28,14.29,36.68,36.68,0,0,0-49-8.19v-4.42H419.62V621.92h26.49V555.26c0-.3,0-.59,0-.88a14.73,14.73,0,0,1,29.44.88v66.66h26.5V555.26c0-.3,0-.59,0-.88a14.73,14.73,0,1,1,29.44.88v66.66H558V547.45A34.78,34.78,0,0,0,523.1,512.78Z"/><path class="b" d="M421.09,84.62c-185.83,0-336.47,150.64-336.47,336.47S235.26,757.56,421.09,757.56,757.56,606.92,757.56,421.09,606.92,84.62,421.09,84.62ZM690.26,564.35,654,543.42l-10.52,18.21,36.27,20.94a305.13,305.13,0,0,1-97.18,97.18l-20.94-36.27L543.42,654l20.93,36.26A304.82,304.82,0,0,1,431.6,725.83V684h-21v41.87a304.85,304.85,0,0,1-132.75-35.57L298.76,654l-18.21-10.52-20.94,36.27a304.93,304.93,0,0,1-97.18-97.18l36.27-20.94-10.52-18.21-36.27,20.93A305,305,0,0,1,116.34,431.6h41.88v-21H116.34a305,305,0,0,1,35.57-132.75l36.27,20.94,10.52-18.21-36.27-20.94a304.73,304.73,0,0,1,97.18-97.18l20.94,36.27,18.21-10.52-20.94-36.27a305,305,0,0,1,132.75-35.57v41.88h21V116.34a305,305,0,0,1,132.75,35.57l-20.93,36.27,18.21,10.52,20.94-36.27a304.93,304.93,0,0,1,97.18,97.18l-36.27,20.94L654,298.76l36.26-20.94a304.85,304.85,0,0,1,35.57,132.75H684v21h41.87A304.82,304.82,0,0,1,690.26,564.35Z"/><polygon class="b" points="583.01 297.15 545.16 316.69 545.16 345.38 491.37 345.38 581.71 221.31 534.89 221.31 442.12 348.71 442.12 383.24 545.16 383.24 545.16 431.6 583.01 431.6 583.01 383.24 610.35 383.24 610.35 345.38 583.01 345.38 583.01 297.15"/></svg>