<svg xmlns="http://www.w3.org/2000/svg" viewBox="0 0 1125.38 846.18"><defs><style>.a,.c{fill:#fff;}.a{stroke:#000;stroke-linecap:round;stroke-linejoin:round;stroke-width:5px;}.b{fill:#dc0032;}</style></defs><title>T6-1 korkortonline.se</title><rect class="a" x="2.5" y="2.5" width="1120.38" height="841.18"/><rect class="a" x="2.5" y="2.5" width="1120.38" height="841.18" rx="57.27"/><rect class="a" x="31.14" y="31.14" width="1063.11" height="783.91" rx="28.64"/><path class="a" d="M233,173.46a47.48,47.48,0,0,1-10.4-28.06,50.08,50.08,0,0,1,27.72-47.47,77.62,77.62,0,0,1,66.32,0,50.08,50.08,0,0,1,27.72,47.47A47.48,47.48,0,0,1,334,173.46a56.72,56.72,0,0,1,9.23,10.63,54.63,54.63,0,0,1,2,56.49,66.28,66.28,0,0,1-44.13,30.23,94.27,94.27,0,0,1-35.2,0,66.28,66.28,0,0,1-44.13-30.23,54.63,54.63,0,0,1,2-56.49A56.72,56.72,0,0,1,233,173.46Z"/><path class="a" d="M270.86,191.24h25.26a24.17,24.17,0,0,1,7.46,1.06,24.8,24.8,0,0,1,12.77,9.59,22.41,22.41,0,0,1,1.06,22.39,34.11,34.11,0,0,1-22.29,14.87,62.31,62.31,0,0,1-23.26,0,34.11,34.11,0,0,1-22.29-14.87,22.41,22.41,0,0,1,1.06-22.39,24.73,24.73,0,0,1,12.77-9.58A21.72,21.72,0,0,1,270.86,191.24Z"/><path class="a" d="M283.49,122.7a45.35,45.35,0,0,0-19.07,4.21A17.86,17.86,0,0,0,254.8,144a15.26,15.26,0,0,0,15.26,15h26.86a15.25,15.25,0,0,0,15.26-15,17.86,17.86,0,0,0-9.62-17.1A45.35,45.35,0,0,0,283.49,122.7Z"/><rect class="a" x="464.25" y="185.05" width="114.54" height="32.22"/><polygon class="a" points="720.19 91.99 745.25 91.99 745.25 270.96 713.03 270.96 713.03 143 693.34 143 693.34 122.96 720.19 91.99"/><polygon class="a" points="811.64 270.96 872.62 124.2 782.83 124.2 782.83 91.99 908.11 91.99 908.11 122.73 846.52 270.96 811.64 270.96"/><path class="a" d="M176.37,521.74a197.66,197.66,0,0,1,0-197.3l-27.91-16.07a229.86,229.86,0,0,0,0,229.44Z"/><path class="a" d="M225.85,415.07A47.48,47.48,0,0,1,215.45,387a50.08,50.08,0,0,1,27.72-47.46,77.52,77.52,0,0,1,66.32,0A50,50,0,0,1,337.21,387a47.48,47.48,0,0,1-10.4,28.06,57.09,57.09,0,0,1,9.24,10.63,54.64,54.64,0,0,1,2,56.5,66.3,66.3,0,0,1-44.13,30.22,94.27,94.27,0,0,1-35.2,0A66.3,66.3,0,0,1,214.6,482.2a54.64,54.64,0,0,1,2-56.5A57.4,57.4,0,0,1,225.85,415.07Z"/><path class="a" d="M263.7,432.85H289a24.49,24.49,0,0,1,7.46,1.07,24.83,24.83,0,0,1,12.77,9.58,22.41,22.41,0,0,1,1.06,22.4A34.06,34.06,0,0,1,288,480.76a61.89,61.89,0,0,1-23.26,0,34.06,34.06,0,0,1-22.29-14.86,22.43,22.43,0,0,1,1.06-22.4,24.87,24.87,0,0,1,12.77-9.58A22.22,22.22,0,0,1,263.7,432.85Z"/><path class="a" d="M276.33,364.32a45.38,45.38,0,0,0-19.07,4.2,17.86,17.86,0,0,0-9.62,17.1,15.27,15.27,0,0,0,15.26,15h26.86a15.27,15.27,0,0,0,15.27-15,17.89,17.89,0,0,0-9.63-17.1A45.34,45.34,0,0,0,276.33,364.32Z"/><rect class="a" x="457.1" y="426.67" width="114.54" height="32.21"/><polygon class="a" points="713.03 333.6 738.09 333.6 738.09 512.58 705.87 512.58 705.87 384.61 686.18 384.61 686.18 364.58 713.03 333.6"/><polygon class="a" points="892.69 333.6 852.84 333.6 773.88 442.03 773.88 471.41 861.58 471.41 861.58 512.58 893.79 512.58 893.79 471.41 917.06 471.41 917.06 439.2 893.79 439.2 893.79 398.15 861.58 414.78 861.58 439.2 815.8 439.2 892.69 333.6"/><path class="a" d="M949,521.74a197.66,197.66,0,0,0,0-197.3l27.92-16.07a229.86,229.86,0,0,1,0,229.44Z"/><path class="b" d="M231.22,656.69a47.48,47.48,0,0,1-10.4-28.06,50.07,50.07,0,0,1,27.72-47.46,77.52,77.52,0,0,1,66.32,0,50.07,50.07,0,0,1,27.72,47.46,47.48,47.48,0,0,1-10.4,28.06,57,57,0,0,1,9.23,10.63,54.63,54.63,0,0,1,2,56.49A66.28,66.28,0,0,1,299.3,754a94.27,94.27,0,0,1-35.2,0A66.28,66.28,0,0,1,220,723.81a54.63,54.63,0,0,1,2-56.49A57,57,0,0,1,231.22,656.69Z"/><path class="c" d="M281.7,605.93a45.35,45.35,0,0,0-19.07,4.21,17.86,17.86,0,0,0-9.62,17.1,15.27,15.27,0,0,0,15.26,15h26.86a15.26,15.26,0,0,0,15.26-15,17.86,17.86,0,0,0-9.62-17.1A45.35,45.35,0,0,0,281.7,605.93Z"/><path class="c" d="M269.07,674.47h25.26a23.89,23.89,0,0,1,7.46,1.07,24.73,24.73,0,0,1,12.77,9.58,22.41,22.41,0,0,1,1.06,22.39,34.07,34.07,0,0,1-22.29,14.87,61.89,61.89,0,0,1-23.26,0,34.07,34.07,0,0,1-22.29-14.87,22.41,22.41,0,0,1,1.06-22.39,24.73,24.73,0,0,1,12.77-9.58A21.72,21.72,0,0,1,269.07,674.47Z"/><rect class="b" x="462.47" y="668.29" width="114.54" height="32.21"/><polygon class="b" points="718.4 575.22 743.46 575.22 743.46 754.19 711.24 754.19 711.24 626.23 691.55 626.23 691.55 606.2 718.4 575.22"/><path class="b" d="M887,586.83A73.93,73.93,0,0,0,846,573.14a85,85,0,0,0-55.79,21.06L811.84,618a51.7,51.7,0,0,1,43.44-11.46,26.09,26.09,0,0,1,17.3,12.19,18.57,18.57,0,0,1,0,14,16.49,16.49,0,0,1-15.17,10H829.12v32.21h30.12a22.84,22.84,0,0,1,20.7,13.2,23.29,23.29,0,0,1,0,18.24A30.68,30.68,0,0,1,858.48,722a70.32,70.32,0,0,1-26.11.21,53,53,0,0,1-25.26-14.42L782.8,729a76.26,76.26,0,0,0,42.11,25.26,98.7,98.7,0,0,0,40,0A68.62,68.62,0,0,0,907,723.69a57,57,0,0,0,5.26-37.9,48.29,48.29,0,0,0-15.79-28.42A51.76,51.76,0,0,0,907,622.62,45.8,45.8,0,0,0,887,586.83Z"/></svg>