<svg xmlns="http://www.w3.org/2000/svg" xmlns:xlink="http://www.w3.org/1999/xlink" viewBox="0 0 64.94 32.62"><defs><style>.a,.c{fill:none;}.b{clip-path:url(#a);}.c{stroke:#000;stroke-linecap:round;stroke-linejoin:round;stroke-width:0.3px;}</style><clipPath id="a"><rect class="a" x="0.12" y="0.12" width="64.7" height="32.38"/></clipPath></defs><title>T8-1 korkortonline.se</title><g class="b"><path class="c" d="M16.42,12.86l-1.27,3.39H22.4V12.86Zm9.47-6.24H50.32a1.06,1.06,0,0,1,.75.31,1,1,0,0,1,.31.74V21.9a1.06,1.06,0,0,1-.31.75,1.09,1.09,0,0,1-.75.3h-2a3.18,3.18,0,1,1-6.2,0H40.51a3.17,3.17,0,1,1-6.19,0h-12a3.18,3.18,0,1,1-6.2,0H14a.47.47,0,0,1-.47-.47V17.39l1.77-4.75a2.12,2.12,0,0,1,2-1.37h5.55a.85.85,0,0,1,.85.85v3.59h1.11v-8a1,1,0,0,1,.31-.74A1.06,1.06,0,0,1,25.89,6.62ZM5.16,30.05H59.78a2.59,2.59,0,0,0,2.59-2.59V5.16a2.59,2.59,0,0,0-2.59-2.59H5.16A2.59,2.59,0,0,0,2.57,5.16v22.3A2.59,2.59,0,0,0,5.16,30.05Zm.16,2.42h54.3a5.16,5.16,0,0,0,5.17-5.17v-22A5.17,5.17,0,0,0,59.62.15H5.32A5.18,5.18,0,0,0,.15,5.32v22A5.17,5.17,0,0,0,5.32,32.47Zm-5.17,0H64.79V.15H.15Z"/></g></svg>