<svg xmlns="http://www.w3.org/2000/svg" viewBox="0 0 297.72 260.11"><defs><style>.a{fill:#7c868d;}.b{fill:#fff;}.c{fill:#000;}.d{fill:none;stroke:#000;stroke-linecap:round;stroke-linejoin:round;stroke-width:3px;}</style></defs><title>V3-1 korkortonline.se</title><path class="a" d="M152.08,78.38a5,5,0,0,0,5-4.2l11.74-33.45L177,41.9a33.43,33.43,0,0,0,17.62,10,137,137,0,0,0,43.45,17.61A59.12,59.12,0,0,1,268.6,97.08a382.68,382.68,0,0,1,28.76,163L247,260l-2-25.64L242.57,260l-162.45-.45v-6.89L58.57,197.7l-1.4,46-3,15.76-49.75-.13L2.72,238.24,0,190.65,4.08,148.5l4.09-29.91L24.5,91.4,51.73,68.28,78.36,57.16a85.5,85.5,0,0,0,31.7-15.85,6.16,6.16,0,0,1,7.64,0l13.5,35.22a4.38,4.38,0,0,0,3.54,1.8A34,34,0,0,0,152.08,78.38Z"/><polygon class="b" points="80.64 242.27 181.56 249.07 245.05 239.3 245.05 169.06 148.67 165.16 52.3 170.83 80.64 242.27"/><polygon class="c" points="216.82 197.64 216.82 209.08 216.82 230.09 209.58 230.09 209.58 209.08 209.58 197.64 200.71 197.64 200.71 190.4 225.69 190.4 225.69 197.64 216.82 197.64"/><polygon class="c" points="169.21 204.95 181.63 189.55 190.92 189.55 178.31 205.19 191.39 229.23 183.15 229.23 173.4 211.29 169.21 216.49 169.21 229.23 161.97 229.23 161.97 189.55 169.21 189.55 169.21 204.96 169.21 204.95"/><polygon class="c" points="137.71 189.55 150.32 229.23 142.72 229.23 140.43 222 124.26 222 121.96 229.23 114.37 229.23 126.97 189.55 137.71 189.55"/><polygon class="b" points="126.56 214.76 132.34 196.55 138.13 214.76 126.56 214.76"/><polygon class="c" points="111.33 188.7 98.73 228.38 87.99 228.38 75.38 188.7 82.97 188.7 93.36 221.38 103.74 188.7 111.33 188.7"/><path class="d" d="M105.78,1.5v.67a38.93,38.93,0,1,0,77.1-.67"/></svg>