<svg xmlns="http://www.w3.org/2000/svg" viewBox="0 0 456.81 114.39"><defs><style>.a{fill:#0c479d;stroke:#0c479d;}.b{fill:#fff;}</style></defs><title>X9-1 korkortonline.se</title><rect class="a" x="0.5" y="0.5" width="455.81" height="113.39"/><rect class="b" x="0.5" y="0.5" width="455.81" height="8.5"/><rect class="b" x="0.5" y="105.38" width="455.81" height="8.5"/><rect class="b" x="394.52" y="50.96" width="61.79" height="12.47"/><polygon class="b" points="323.65 63.43 323.65 88.37 354.83 57.19 323.65 26.01 323.65 50.96 242.58 50.96 242.58 63.43 323.65 63.43"/><polygon class="b" points="171.71 63.43 171.71 88.37 202.9 57.19 171.71 26.01 171.71 50.96 90.64 50.96 90.64 63.43 171.71 63.43"/><polygon class="b" points="0.5 63.43 19.78 63.43 19.78 88.37 50.96 57.19 19.78 26.01 19.78 50.96 0.5 50.96 0.5 63.43"/></svg>