<svg xmlns="http://www.w3.org/2000/svg" viewBox="0 0 902.47 842.31"><defs><style>.a,.b{fill:#000;}.b{stroke:#fff;stroke-linecap:round;stroke-linejoin:round;stroke-width:2px;}.c{fill:#fff;}.d{fill:#dc0032;}</style></defs><title>Y1-1 korkortonline.se</title><path class="a" d="M33.33,362.83,242.81,721.94C309.26,837,456.44,876.48,571.54,810a240.68,240.68,0,0,0,88.08-88.09L869.1,362.83c67.48-114.5,29.37-262-85.14-329.5A240.63,240.63,0,0,0,661.78,0H240.65C107.74,0,0,107.74,0,240.65A240.63,240.63,0,0,0,33.33,362.83Z"/><path class="b" d="M571.54,601.62A120.33,120.33,0,1,0,451.21,721.94,120.32,120.32,0,0,0,571.54,601.62Z"/><path class="c" d="M361,240.65A120.33,120.33,0,1,0,240.65,361,120.32,120.32,0,0,0,361,240.65Z"/><path class="d" d="M240.65,302.61,130.42,192.39a120.32,120.32,0,0,1,220.45,0Z"/><path class="c" d="M782.1,240.65A120.32,120.32,0,1,0,661.78,361,120.32,120.32,0,0,0,782.1,240.65Z"/><path class="d" d="M661.78,302.61,551.56,192.39a120.32,120.32,0,0,1,220.44,0Z"/></svg>