<svg xmlns="http://www.w3.org/2000/svg" viewBox="0 0 211.29 842.18"><defs><style>.a,.c{fill:#fff;}.a{stroke:#000;stroke-linecap:round;stroke-linejoin:round;}.b{fill:#0c479d;}</style></defs><title>Y4-1 korkortonline.se</title><rect class="a" x="0.5" y="0.5" width="210.29" height="841.18"/><polygon class="b" points="210.79 676 210.79 586.78 150.26 526.24 210.79 465.7 210.79 376.48 150.26 315.94 210.79 255.41 210.79 166.18 150.26 105.65 210.79 45.11 210.79 0.5 166.19 0.5 105.65 61.04 45.11 0.5 0.5 0.5 0.5 45.11 61.04 105.65 0.5 166.18 0.5 255.41 61.04 315.94 0.5 376.48 0.5 465.7 61.04 526.24 0.5 586.78 0.5 676 61.04 736.53 0.5 797.07 0.5 841.68 45.11 841.68 105.65 781.14 166.19 841.68 210.79 841.68 210.79 797.07 150.26 736.53 210.79 676"/><rect class="c" x="62.84" y="167.99" width="85.61" height="85.61" transform="translate(-118.11 136.45) rotate(-45)"/><rect class="c" x="62.84" y="378.28" width="85.61" height="85.61" transform="translate(-266.81 198.04) rotate(-45)"/><rect class="c" x="62.84" y="588.58" width="85.61" height="85.61" transform="translate(-415.51 259.63) rotate(-45)"/></svg>