<svg xmlns="http://www.w3.org/2000/svg" viewBox="0 0 608.38 540.03"><defs><style>.a{fill:#dc0032;}.b{fill:#ffce00;}</style></defs><title>A11-1</title><path class="a" d="M346.74,24.57a49.14,49.14,0,0,0-85.1,0L6.58,466.34A49.14,49.14,0,0,0,49.13,540H559.24a49.14,49.14,0,0,0,42.55-73.7l-255-441.77" transform="translate(0 -0.01)"/><path class="b" d="M62.23,483.35H546.15l-242-419.09-143.77,249L110.23,400.2,73.36,464.07,62.23,483.35" transform="translate(0 -0.01)"/><path d="M204,237.82h6.17a7.56,7.56,0,0,1,7.14,5.1l24.54,71.25a67.84,67.84,0,0,1,21.54,54.28,166.23,166.23,0,0,1-11,57.45v15.49a22.68,22.68,0,0,1-45.36,0V426.65H95l15.27-26.45h85.11V385.08H119l41.46-71.81h44.74l-12.25-35.59a6.42,6.42,0,0,0-6.07-4.33h-3.37L204,237.82" transform="translate(0 -0.01)"/><path class="b" d="M238.05,349.7a17.77,17.77,0,1,0-17.77,17.76,17.78,17.78,0,0,0,17.77-17.76" transform="translate(0 -0.01)"/><path d="M258.83,457.27l158.74-6.81-2.26-24.18L278.49,449.71l96-41.57-15.88-24.95-89.95,65,93-119.67-21.92-15.87-82.4,142,1.51,2.65M361.26,310l-15.12-8.69,2.27-26.83L363.9,263.9l4.54,13.23,22.68,8.32,2.27,15.11-3.79,15.88-21.92-.38L361.26,310" transform="translate(0 -0.01)"/><path d="M377.13,349.93l29.86-3.4,7.94,10.58,12.47,14.36,1.51,27.59-27.59-5.67-13.6,5.67-12.48-13.6L379,368.83l-1.89-18.9M535,464.07l11.13,19.28H62.23l11.13-19.28H535m-71.34-12.85-3.4-2.64L441,441.39l.75-9.07,3-16.25,19.27-5.29,4.16,4.54,4.16,6.42L478.8,424l-3,13.61-3,12.09-9.08,1.51" transform="translate(0 -0.01)"/></svg>