<svg xmlns="http://www.w3.org/2000/svg" viewBox="0 0 608.38 540.03"><defs><style>.a{fill:#dc0032;}.b{fill:#ffce00;}</style></defs><title>A13-1 korkortonline.se</title><path class="a" d="M6.58,466.34,261.64,24.57a49.14,49.14,0,0,1,85.1,0l255,441.77A49.14,49.14,0,0,1,559.24,540H49.13a49.14,49.14,0,0,1-42.55-73.7" transform="translate(0 -0.01)"/><path class="b" d="M62.23,483.35H546.15l-242-419.09-242,419.09" transform="translate(0 -0.01)"/><path d="M117.45,451.6H166.2l19.42-45.73H143.85l-26.4,45.73m109.23,0h48.75l3.2-45.73H249.08l-16.34,21.39-6.06,24.34m154.2,0H332.12l-3.19-45.73h33l6.49,5.93-7.23,1.74-6.94,14.93h20.84l5.77,23.13m107,0H439.08l-19.41-45.73h41.77l26.4,45.73" transform="translate(0 -0.01)"/><path d="M271.43,248.49l-31.15,24.87-.36.29a7,7,0,0,0,8.41,11.16l7.22-5.18,2.27,2,23.89-17.84,5.44-9.14,2.27,32.8-73,116.11-13.83-3-6.8,6.19,33.1,18,76.5-100.16L331,371.4l42.56,38.93-1.29,5.21-7.86,1.89-3,6.5h20.11L398.8,397.7l-30-30.46-14.21-19-21.76-46.11a29.69,29.69,0,0,0-3.18-26.46,9.84,9.84,0,0,1-1-5.06l-.83-32.2,12.09,18.14,6,38.69a7,7,0,0,0,13.89-1.59l-.62-8.45,2-.46-4.31-39.91-17.08-31a18.28,18.28,0,0,0-3.93-5.07A23.73,23.73,0,0,0,329.4,205q-5.72-2.49-11.26-5.37a8.45,8.45,0,0,1-4.7-4.38,22.51,22.51,0,0,1-1-8.54,56.37,56.37,0,0,1,2.49-9.68,32.35,32.35,0,0,0,.23-12.78,14.23,14.23,0,0,0-10-10.8,19.89,19.89,0,0,0-19.2,2,14.8,14.8,0,0,0-4.69,14.89,13,13,0,0,1,.23,4.53,18,18,0,0,0,4.23,16.78,9.75,9.75,0,0,0,4.94,1.34,4,4,0,0,1,4.21,2.82,3.85,3.85,0,0,1-.83,3.1q-4.92,4.23-10.07,8.15a32.14,32.14,0,0,0-5.28,5.08,16.89,16.89,0,0,0-2.43,6.59l-4.82,29.77" transform="translate(0 -0.01)"/></svg>