<svg xmlns="http://www.w3.org/2000/svg" viewBox="0 0 608.38 540.03"><defs><style>.a{fill:#dc0032;}.b{fill:#ffce00;}</style></defs><title>A17-1 korkortonline.se</title><path class="a" d="M49.13,540a49.14,49.14,0,0,1-42.55-73.7L261.64,24.57a49.14,49.14,0,0,1,85.1,0l255,441.77A49.14,49.14,0,0,1,559.24,540H49.13" transform="translate(0 -0.01)"/><path class="b" d="M62.23,483.35H546.15l-242-419.09-242,419.09" transform="translate(0 -0.01)"/><path d="M266.93,319.51q4.77-9.6,9.59-19.15,3.3-6.53,7-12.84l-4.81-2.41-12.58,23.66-9.8,19.29-6.84,13.05.06.51A4.1,4.1,0,0,1,246.6,346a8.2,8.2,0,0,1-6.49-.78,5.94,5.94,0,0,1-2.69-3.39,34.22,34.22,0,0,1-1.29-6l.05-1.33a20,20,0,0,1,.91-5.15l3.28-11.65,4.54-12.23,1.9-4.15-.11-2.8-1.85-16.65-2.68-18.33a8.9,8.9,0,0,1,1.45-6.28,31,31,0,0,1,5.66-6.27,46.68,46.68,0,0,0,4.83-4.71l3.81-4,.19-.21,0-1.84a4,4,0,0,0-1.95-3.51l-1.52-.07a6.28,6.28,0,0,1-3.12-1,9.19,9.19,0,0,1-2.1-1.83,11.62,11.62,0,0,1-2.78-8v-2.29L242,215.74l-6.75.09,1.11-1.52a20.4,20.4,0,0,1,5.53-5.19V207.9l.07-1.69.55-4.86,1.79-1.44,1.4-.86,2.05-1.07,2.91-1.26,1.32-.45,1.87-.58,2.77-.71,2.07-.3,1.73-.17h4.47l1.89,3.06A41,41,0,0,1,272,210.79c.46,2.19.82,4.39,1.11,6.6a16.31,16.31,0,0,0,4.68,9.47,19.89,19.89,0,0,0,3.86,3,24.17,24.17,0,0,0,10.3,3.28,68.72,68.72,0,0,1,15.74,3.18,40.75,40.75,0,0,1,10.14,4.95q2.07,1.38,4.09,2.82,5.56,3.94,11.08,8l5.86,4.71,5.16,4.44,3.48,2.91a27.86,27.86,0,0,1,6.8,8.42,11.42,11.42,0,0,1,1.29,5.73l.1,2.29a54.65,54.65,0,0,0,1,8.44l1.39,11.91.61,5.49A8.85,8.85,0,0,0,360,310a30.81,30.81,0,0,0,1.86,2.7,7.77,7.77,0,0,1,1.57,5.4l71,37.12,1.08-1.22a11.3,11.3,0,0,1,6.22-3.6,2.88,2.88,0,0,1,2.67.84,4.12,4.12,0,0,1,1.12,2.44,14.58,14.58,0,0,1-1.36,7.77l4.09,5.42-7.08-.7-.37.57a10.78,10.78,0,0,1-6.88,4.68,2.44,2.44,0,0,1-2.2-.66,5.79,5.79,0,0,1-1.61-3.23,11.35,11.35,0,0,1,1.12-6.75l-68.94-36-.45.88a7.46,7.46,0,0,1-4.13,3.62,3.43,3.43,0,0,1-1.59.17,4,4,0,0,1-1-.25,4.4,4.4,0,0,1-1.42-.94,16.78,16.78,0,0,1-2.37-2.94,23.61,23.61,0,0,1-2.44-5,9.88,9.88,0,0,1-.55-3.14,25,25,0,0,0-1.3-7.56l-.95-4.17-1.06-4.27-1.45-5.4-1.22-4.64-3.08-12.53-1,0a85.67,85.67,0,0,1-10.5-.93l1.16,1a16.18,16.18,0,0,1,2.61,2.75c.79,1.07,1.56,2.14,2.3,3.24a20.06,20.06,0,0,1,2,3.86c.23.56.45,1.12.68,1.69a27.87,27.87,0,0,1,2.07,11.59c-.08,2.4-.28,4.8-.58,7.19q-1.2,9.51-2.38,19l-.75,4.1a17.67,17.67,0,0,0,2.41,12.59,6.39,6.39,0,0,0,1.49,1.66,10.07,10.07,0,0,0,2.54,1.47,25,25,0,0,1,11.11,8.65,49.92,49.92,0,0,1,8.17,18.13,17.08,17.08,0,0,0,4.81,8.52,38.26,38.26,0,0,1,4.91,5.8c1.48,2.16,3,4.31,4.51,6.43l44.16-32.16,5.41,5.89L319.82,446.72a25.64,25.64,0,0,1-17.05,5,29.33,29.33,0,0,1-10.63-2.79,19.28,19.28,0,0,1-10.21-12.12,6.13,6.13,0,0,1-.21-2.3,1.37,1.37,0,0,1,.82-1.14,11.36,11.36,0,0,1,1.6-.59,7.36,7.36,0,0,1,3.7-.08,13.87,13.87,0,0,1,3.31,1.23,6.52,6.52,0,0,1,2.06,1.7,11,11,0,0,0,2.85,2.54,19.06,19.06,0,0,0,6.1,2.47,23.51,23.51,0,0,0,5.42.53,15.07,15.07,0,0,0,7.2-2c2-1.17,4-2.44,6-3.81q6-4.26,11.77-8.76,4.74-3.68,9.69-7.06a33.13,33.13,0,0,0,2.83-2.17l-.55-1.46a6.49,6.49,0,0,1-.13-4.22,24.86,24.86,0,0,1,2.84-6.09,34.16,34.16,0,0,1,2.11-2.94,6.88,6.88,0,0,0,1.51-3.77c.1-1.3.25-2.59.45-3.88l-44.62,22.24L286.5,427.74,266.19,438.5l-12.78,7-5.27,3.13a25.76,25.76,0,0,1-25.28.62A16.88,16.88,0,0,1,214,436.32a2.54,2.54,0,0,1,2-2.79,6.92,6.92,0,0,1,4.54.61,2.29,2.29,0,0,1,.9.79l2.08,2.18a10.71,10.71,0,0,0,4.32,2.74,28.54,28.54,0,0,0,20.57-1,41.44,41.44,0,0,0,6.23-3.42l8-5.32q9.21-6.15,19-11.37l-.23-1a6.72,6.72,0,0,1,1.41-5.89,52.49,52.49,0,0,0,4.54-6.23,16.42,16.42,0,0,0,2.13-12.1A62.76,62.76,0,0,0,281,372.83a301.94,301.94,0,0,0-18.22-25.45,16.45,16.45,0,0,1-3.25-7,6.51,6.51,0,0,1,.17-3.25c.42-1.33.9-2.64,1.45-3.92.88-2.06,1.72-4.13,2.52-6.23,1-2.55,2.09-5.06,3.31-7.51" transform="translate(0 -0.01)"/><path class="b" d="M349.34,386.93l-36.62,16.23-.88-2.43a33.35,33.35,0,0,0-8.22-12.65,5.82,5.82,0,0,1-1.49-2.41l-.62-2.39q-1.69-6.45-2.91-13a104.12,104.12,0,0,0-2.72-11.15,62.5,62.5,0,0,0-3.88-9.7,29.6,29.6,0,0,0-10.72-11.83l1.24-1.07A193.42,193.42,0,0,0,306.63,312v1.82a93.68,93.68,0,0,0,6,33.08,16.16,16.16,0,0,0,6.74,8.09,58.76,58.76,0,0,1,11.31,8.85c1.35,1.35,2.74,2.67,4.17,3.94a61.5,61.5,0,0,1,14.45,19.18m-80.62-106.7,5,2-13.4,26.46L248.71,332l-.24-3.3,1-1.36a31.42,31.42,0,0,0,3.7-6.78q2.76-7,6.13-13.64a38.22,38.22,0,0,0,2.74-7,202.77,202.77,0,0,1,6.7-19.69" transform="translate(0 -0.01)"/></svg>