<svg xmlns="http://www.w3.org/2000/svg" viewBox="0 0 570.41 506.28"><defs><style>.a{fill:#dc0032;}.b{fill:#ffce00;}.c{fill:#007a61;}</style></defs><title>A22-1 korkortonline.se</title><path class="a" d="M285.4.2a46.09,46.09,0,0,0-39.9,23L6.37,437.39a46.06,46.06,0,0,0,39.91,69.09H524.53a46.06,46.06,0,0,0,39.9-69.09L325.31,23.23A46.09,46.09,0,0,0,285.4.2Z" transform="translate(-0.2 -0.2)"/><path class="b" d="M512.24,453.33,285.4,60.43,58.56,453.33Z" transform="translate(-0.2 -0.2)"/><path d="M285.4,340a49.6,49.6,0,1,1-49.6,49.6A49.6,49.6,0,0,1,285.4,340Z" transform="translate(-0.2 -0.2)"/><path class="c" d="M285.4,354.13A35.43,35.43,0,1,1,250,389.56,35.43,35.43,0,0,1,285.4,354.13Z" transform="translate(-0.2 -0.2)"/><path d="M285.4,233.66a49.6,49.6,0,1,1-49.6,49.6A49.6,49.6,0,0,1,285.4,233.66Z" transform="translate(-0.2 -0.2)"/><path class="b" d="M285.4,247.83A35.43,35.43,0,1,1,250,283.26a35.43,35.43,0,0,1,35.43-35.43Z" transform="translate(-0.2 -0.2)"/><path d="M285.4,127.36A49.6,49.6,0,1,1,235.8,177a49.6,49.6,0,0,1,49.6-49.6Z" transform="translate(-0.2 -0.2)"/><path class="a" d="M285.4,141.53A35.43,35.43,0,1,1,250,177a35.43,35.43,0,0,1,35.43-35.43Z" transform="translate(-0.2 -0.2)"/></svg>