<svg xmlns="http://www.w3.org/2000/svg" viewBox="0 0 570.41 506.28"><defs><style>.a{fill:#dc0032;}.b{fill:#ffce00;}</style></defs><title>A23-1 korkortonline.se</title><path class="a" d="M285.4.2a46.09,46.09,0,0,0-39.9,23L6.37,437.39a46.06,46.06,0,0,0,39.91,69.09H524.53a46.06,46.06,0,0,0,39.9-69.09L325.31,23.23A46.09,46.09,0,0,0,285.4.2Z" transform="translate(-0.2 -0.2)"/><path class="b" d="M512.24,453.33,285.4,60.43,58.56,453.33Z" transform="translate(-0.2 -0.2)"/><path d="M151.26,323a2.4,2.4,0,0,0,1.07,2l18.12,12.21a7,7,0,0,0,3,1.16l56.28,5.81,63.75,84.6H331.7l-34.53-59.82V343.65a524.84,524.84,0,0,0,63.09-5.5l16.35,26.69h21.28L391,328.56l8.59-5.56L391,317.43l6.94-36.28H376.61l-16.35,26.69a526.9,526.9,0,0,0-63.09-5.5V277.06l34.53-59.81H293.45L229.7,301.84l-56.28,5.81a7.08,7.08,0,0,0-3,1.16L152.33,321A2.37,2.37,0,0,0,151.26,323Z" transform="translate(-0.2 -0.2)"/></svg>