<svg xmlns="http://www.w3.org/2000/svg" viewBox="0 0 570.41 506.28"><defs><style>.a{fill:#ffce00;}.b{fill:#dc0032;}</style></defs><title>A24-1 korkortonline.se</title><path class="a" d="M516.9,455.59l-231.5-401-231.5,401Z" transform="translate(-0.2 -0.2)"/><path class="b" d="M285.4.2a46.09,46.09,0,0,0-39.9,23L6.37,437.39a46.06,46.06,0,0,0,39.91,69.09H524.53a46.06,46.06,0,0,0,39.9-69.09L325.31,23.23A46.09,46.09,0,0,0,285.4.2Zm0,60.23,226.84,392.9H58.56Z" transform="translate(-0.2 -0.2)"/><path d="M361.94,358.87l-219,40.4a42.79,42.79,0,0,1-9.21-56.7l203.74-82.91,74,42.4a10.64,10.64,0,0,1,5.34,8.93l3.9,142.35h-24.1L399.85,311l-37.91,47.83Z" transform="translate(-0.2 -0.2)"/><path class="a" d="M249.26,303.21A49.62,49.62,0,0,1,262.73,370l27.63-5.1a56.69,56.69,0,0,0-17-71.46l-24.1,9.8Zm-56.69,23.08a42.52,42.52,0,0,1,9.21,54.92l29.06-5.36a46.06,46.06,0,0,0-12.05-60.23l-26.22,10.67Zm-44.65,64.85a39,39,0,0,0-8.5-43.23l22-8.94a31.9,31.9,0,0,1,9.92,47.86Zm198.43-36.6a70.86,70.86,0,0,0-19.14-83.05l-22.67,9.23a63.77,63.77,0,0,1,17,78.4l24.81-4.58Z" transform="translate(-0.2 -0.2)"/><path class="a" d="M346.85,278.08l44.47,25.47-29.59,37.34a74.09,74.09,0,0,0-14.88-62.81Z" transform="translate(-0.2 -0.2)"/></svg>