<svg xmlns="http://www.w3.org/2000/svg" viewBox="0 0 570.41 506.28"><defs><style>.a{fill:#dc0032;}.b{fill:#ffce00;}</style></defs><title>A26-1 korkortonline.se</title><path class="a" d="M285.4.2a46.09,46.09,0,0,0-39.9,23L6.37,437.39a46.06,46.06,0,0,0,39.91,69.09H524.53a46.06,46.06,0,0,0,39.9-69.09L325.31,23.23A46.09,46.09,0,0,0,285.4.2Z" transform="translate(-0.2 -0.2)"/><path class="b" d="M512.24,453.33,285.4,60.43,58.56,453.33Z" transform="translate(-0.2 -0.2)"/><path d="M363.36,400.18V332.86l46.06-15.59v82.91ZM337.84,306.7l24.1-53.92,43.94,53.86L359.1,325.72A95.35,95.35,0,0,0,337.84,306.7Zm12.75-59.59L330.4,302.29a95.63,95.63,0,0,0-90,0l-20.19-55.18ZM164.93,306.64l43.93-53.86L233,306.7a95.35,95.35,0,0,0-21.26,19Zm-3.55,93.54V317.27l46.07,15.59v67.32Zm191.35-3.54H218.08V337.11a83.64,83.64,0,0,1,134.65,0Zm95.66,31.89V407.27h-326v21.26Z" transform="translate(-0.2 -0.2)"/><path d="M207.45,400.18V332.86l-46.06-15.59v82.91ZM233,306.7l-24.09-53.92-43.94,53.86,46.77,19.08A95.57,95.57,0,0,1,233,306.7Z" transform="translate(-0.2 -0.2)"/></svg>