<svg xmlns="http://www.w3.org/2000/svg" viewBox="0 0 570.41 506.28"><defs><style>.a{fill:#dc0032;}.b{fill:#ffce00;}</style></defs><title>A27-1 korkortonline.se</title><path class="a" d="M285.4.2a46.09,46.09,0,0,0-39.9,23L6.37,437.39a46.06,46.06,0,0,0,39.91,69.09H524.53a46.06,46.06,0,0,0,39.9-69.09L325.31,23.23A46.09,46.09,0,0,0,285.4.2Z" transform="translate(-0.2 -0.2)"/><path class="b" d="M512.24,453.33,285.4,60.43,58.56,453.33Z" transform="translate(-0.2 -0.2)"/><path d="M247.76,334.61l-4.84,18a14.81,14.81,0,0,0,10.47,18.13H129.61v47.49H294.94V370.78H261.05a14.77,14.77,0,0,0,10.5-10.62l2.52-9.38,27.51,7.38,32.71,8.76,27.52,7.38-2.55,9.53a14.8,14.8,0,0,0,28.59,7.66l4.84-18.05,10.62-18.39a36.4,36.4,0,0,0-2.74-37.35l-8.42-36.47a15.29,15.29,0,0,0-7.54-10,170.65,170.65,0,0,0-78.77-21.11A15.3,15.3,0,0,0,294.33,255L268.8,282.39a36.38,36.38,0,0,0-21,31v21.24Z" transform="translate(-0.2 -0.2)"/><path class="b" d="M286.14,286.25l97.49,26.12-6.34-27.46a149.21,149.21,0,0,0-71.93-19.27Z" transform="translate(-0.2 -0.2)"/><path d="M414.24,408.17a8.31,8.31,0,1,0-8.31,8.31A8.31,8.31,0,0,0,414.24,408.17Zm8.91-20.77a8.31,8.31,0,1,0-8.31,8.31A8.31,8.31,0,0,0,423.15,387.4Zm-63.81,14.84a6.83,6.83,0,1,0-6.83,6.82A6.83,6.83,0,0,0,359.34,402.24Z" transform="translate(-0.2 -0.2)"/><path d="M356.67,387.4a8.31,8.31,0,1,0-8.31,8.31A8.31,8.31,0,0,0,356.67,387.4Zm-32.35,9.5a6.83,6.83,0,1,0-6.83,6.82A6.83,6.83,0,0,0,324.32,396.9Z" transform="translate(-0.2 -0.2)"/><path d="M338.27,387.4a8.31,8.31,0,1,0-8.31,8.31A8.31,8.31,0,0,0,338.27,387.4Zm-22.56,20.77a8.31,8.31,0,1,0-8.31,8.31A8.31,8.31,0,0,0,315.71,408.17Zm-3.56-19.58a8.31,8.31,0,1,0-8.31,8.31A8.31,8.31,0,0,0,312.15,388.59Zm32.05,19.58a8.31,8.31,0,1,0-8.31,8.31A8.31,8.31,0,0,0,344.2,408.17Zm59.66-17.8a6.83,6.83,0,1,0-6.83,6.82A6.83,6.83,0,0,0,403.86,390.37Zm-27.6,19.31a6.83,6.83,0,1,0-6.83,6.83A6.82,6.82,0,0,0,376.26,409.68Zm19.29-1.51a6.83,6.83,0,1,0-6.83,6.83A6.82,6.82,0,0,0,395.55,408.17Zm50.75,0a8.31,8.31,0,1,0-8.31,8.31A8.31,8.31,0,0,0,446.3,408.17Zm-17.51-5.93a6.83,6.83,0,1,0-6.83,6.82A6.83,6.83,0,0,0,428.79,402.24Zm15.13-14.84a8.31,8.31,0,1,0-8.31,8.31A8.31,8.31,0,0,0,443.92,387.4Z" transform="translate(-0.2 -0.2)"/></svg>