<svg xmlns="http://www.w3.org/2000/svg" viewBox="0 0 570.41 506.28"><defs><style>.a{fill:#dc0032;}.b{fill:#ffce00;}</style></defs><title>A29-1 korkortonline.se</title><path class="a" d="M285.4.2a46.09,46.09,0,0,1,39.91,23L564.43,437.39a46.06,46.06,0,0,1-39.9,69.09H46.28A46.06,46.06,0,0,1,6.37,437.39L245.5,23.23A46.09,46.09,0,0,1,285.4.2Z" transform="translate(-0.2 -0.2)"/><path class="b" d="M512.25,453.33,285.4,60.43,58.56,453.33Z" transform="translate(-0.2 -0.2)"/><path d="M186.19,318.69V283.26H384.62v35.43Z" transform="translate(-0.2 -0.2)"/><path d="M327.92,428.53V208.85L285.4,166.33l-42.52,42.52V428.53Z" transform="translate(-0.2 -0.2)"/></svg>