<svg xmlns="http://www.w3.org/2000/svg" viewBox="0 0 608.38 540.03"><defs><style>.a{fill:#dc0032;}.b{fill:#ffce00;}</style></defs><title>A3-1 korkortonline.se</title><path class="a" d="M49.13,540a49.14,49.14,0,0,1-42.55-73.7L261.64,24.57a49.14,49.14,0,0,1,85.1,0l255,441.77A49.14,49.14,0,0,1,559.24,540H49.13" transform="translate(0 -0.01)"/><path class="b" d="M546.15,483.35l-242-419.09-242,419.09H546.15" transform="translate(0 -0.01)"/><path d="M221.67,274.19l29.59-51.26-8-4.64,4.64-8,18.35-6.35,10.17,5.87L257.79,242l-23,39.82-13.13-7.58m67.58,40.15a32.87,32.87,0,0,1-15.8-21.55,48.93,48.93,0,0,1,31.79-55.07,33.17,33.17,0,0,1,42.36,24.46,48.91,48.91,0,0,1-31.79,55.06,32.83,32.83,0,0,1-26.56-2.9" transform="translate(0 -0.01)"/><path class="b" d="M296.83,301.2a17.66,17.66,0,0,1-8.52-11.45A33.76,33.76,0,0,1,310,252.11a18,18,0,0,1,22.71,13.11A33.78,33.78,0,0,1,311,302.86a17.65,17.65,0,0,1-14.19-1.66" transform="translate(0 -0.01)"/><path d="M183.21,273.8l-121,209.55H546.15L183.21,273.8M395,286.89A15.12,15.12,0,1,0,379.83,302,15.12,15.12,0,0,0,395,286.89M353.32,350.2l-7.56-13.1,75.59-43.64,7.56,13.1L353.32,350.2M410,356.76a15.12,15.12,0,1,0-15.12,15.12A15.11,15.11,0,0,0,410,356.76" transform="translate(0 -0.01)"/></svg>