<svg xmlns="http://www.w3.org/2000/svg" viewBox="0 0 570.41 506.28"><defs><style>.a{fill:#dc0032;}.b{fill:#ffce00;}</style></defs><title>A30-1 korkortonline.se</title><path class="a" d="M285.4.2a46.09,46.09,0,0,0-39.9,23L6.37,437.39a46.06,46.06,0,0,0,39.91,69.09H524.53a46.06,46.06,0,0,0,39.9-69.09L325.31,23.23A46.09,46.09,0,0,0,285.4.2Z" transform="translate(-0.2 -0.2)"/><path class="b" d="M58.56,453.33,285.4,60.43l226.84,392.9Z" transform="translate(-0.2 -0.2)"/><path d="M339.27,420.93l16.65,22.62,10.27-69.45-69.45-11,17,23.06A69.81,69.81,0,0,1,236.29,372l-30.37,29.76A112.33,112.33,0,0,0,339.27,420.93Zm2.25-195,10.62-26L287.53,227.4l26.84,65,10.83-26.5a69.8,69.8,0,0,1,28.26,73.46l41.23,10.39A112.31,112.31,0,0,0,341.52,226ZM173.33,321.37l-27.86,3.49,55.6,42.86,43.48-55.26L216.14,316a69.81,69.81,0,0,1,50.18-60.64l-11.16-41a112.31,112.31,0,0,0-81.83,107Z" transform="translate(-0.2 -0.2)"/></svg>