<svg xmlns="http://www.w3.org/2000/svg" viewBox="0 0 456.28 405.03"><defs><style>.a{fill:#dc0032;}.b{fill:#ffce00;}.c{fill:#000;}</style></defs><title>A31-1 korkortonline.se</title><path class="a" d="M260.06,18.43a36.85,36.85,0,0,0-63.83,0L4.94,349.75A36.86,36.86,0,0,0,36.85,405H419.43a36.86,36.86,0,0,0,31.92-55.28Z"/><polygon class="b" points="46.5 363.01 227.97 48.69 409.45 363.01 46.5 363.01"/><path class="c" d="M237.26,321.51a30.16,30.16,0,1,0-30.16,30.16A30.16,30.16,0,0,0,237.26,321.51Z"/><circle class="c" cx="133.24" cy="331.28" r="20.39" transform="translate(-200.07 459.34) rotate(-89.11)"/><circle class="b" cx="133.24" cy="331.28" r="10.11" transform="translate(-200.07 459.34) rotate(-89.11)"/><circle class="c" cx="133.24" cy="331.28" r="7.71" transform="translate(-198.34 463.76) rotate(-89.87)"/><circle class="b" cx="207.1" cy="321.51" r="16.45"/><path class="c" d="M220.81,321.51a13.71,13.71,0,1,0-13.71,13.71A13.71,13.71,0,0,0,220.81,321.51Z"/><path class="c" d="M388.1,331.28a7.71,7.71,0,1,0-7.71,7.71A7.72,7.72,0,0,0,388.1,331.28Z"/><path class="c" d="M386.46,323.19l-7.09-12.28a20.39,20.39,0,1,0,18.15,31.43l-7.1-12.28a10.1,10.1,0,1,1-4-6.87Z"/><path class="c" d="M274.11,259.84v-8.59h-6.73v61.86H249.11a43,43,0,0,0-8.81-18.68l-8.92-62.35A11.75,11.75,0,0,0,219.76,222H177.39a11.75,11.75,0,0,0-11.62,10.06l-7,48-10.71-.12v-9.87h-6.25V254.79H134.9v15.27h-6.24v9.64h-6a8.57,8.57,0,0,0-8.57,8.56v28.91a23.82,23.82,0,0,1,41.85,6.74H173.6a33.58,33.58,0,1,1,67,0h37.89l16.42-16.42h82.46l-27.49-47.62Z"/><path class="b" d="M173.11,239.24a7.36,7.36,0,0,1,7.29-6.3h16.44l4.26,44.32H167.51Z"/><path class="b" d="M224.06,239.24l5.59,38H207.86l-4.26-44.32h13.17A7.37,7.37,0,0,1,224.06,239.24Z"/><circle class="c" cx="335.5" cy="331.28" r="20.39"/><path class="b" d="M345.61,331.28a10.11,10.11,0,1,0-10.11,10.11A10.11,10.11,0,0,0,345.61,331.28Z"/><path class="c" d="M343.21,331.28A7.71,7.71,0,1,0,335.5,339,7.72,7.72,0,0,0,343.21,331.28Z"/></svg>