<svg xmlns="http://www.w3.org/2000/svg" viewBox="0 0 570.41 506.28"><defs><style>.a{fill:#ffce00;}.b{fill:#dc0032;}</style></defs><title>A32-1 korkortonline.se</title><path class="a" d="M53.9,455.59l231.5-401,231.5,401Z" transform="translate(-0.2 -0.2)"/><path d="M503.51,437.55a19.93,19.93,0,1,1-22.68-32.76H387.45a19.93,19.93,0,1,1-26.15,3.64l-52.23-13.25,1.25,1.55a4.35,4.35,0,0,1,1,3.45A18.7,18.7,0,0,0,312,408v0l1.52,5.11v0h0q2.34,8.34,4.87,16.63a3.34,3.34,0,0,1-.39,2.88l0,0a5.53,5.53,0,0,1-1.86,1.64h0a.78.78,0,0,0-.38.8,1.34,1.34,0,0,1,0,.2l-.1,4.78L305,440a29.4,29.4,0,0,1,4.23-7.71,0,0,0,0,1,0,0,6.07,6.07,0,0,0,.73-4.74q-1-3.85-2.23-7.66l-.48-1.56q-.76-2.58-1.64-5.13c-.38-1-.81-2-1.28-3l-.25-.53a19.66,19.66,0,0,0-2.3-3.87l-.15-.19c-.75-.79-1.51-1.56-2.28-2.32h0q-2.1-2.08-4.35-4-3.11-2.58-6.39-4.92a35.74,35.74,0,0,1-3.83-3.44,43.36,43.36,0,0,1-4.34-5.33,14.29,14.29,0,0,0-5.95,12.77,19.5,19.5,0,0,0,.36,2.14h0c.38,1.86.72,3.73,1,5.6a3.53,3.53,0,0,1-1.5,3.53l0,0a56.08,56.08,0,0,0-12.62,12.69,45.14,45.14,0,0,0-4.8,8.79l-.22.57a4.78,4.78,0,0,1-1.93,2.45,3.18,3.18,0,0,1-.67.32h0l-.17.05a.67.67,0,0,0-.35.25.43.43,0,0,0-.09.23l-.13,1.07-.38,4.14-11.4-.14A39.1,39.1,0,0,1,247,431l.13-.19a51.82,51.82,0,0,1,5.27-7.55q3.33-4.23,6.33-8.7a37.74,37.74,0,0,0,3.46-6.79,4.21,4.21,0,0,0,0-3.16,75,75,0,0,1-3.23-9.36l0-.1q-1.44-5.55-2.78-11.12-2.61.6-5.23,1.06a95.9,95.9,0,0,1-31.17.33q.8,3.69,1.35,7.41c.5,2.78,1.08,5.55,1.72,8.3q.69,2.44,1.32,4.89,1,3.3,1.66,6.65c0,.26.08.52.11.78a27.79,27.79,0,0,0,2.41,8.52q1.18,2.58,2.5,5.08a.61.61,0,0,1,0,.12,4.18,4.18,0,0,1-1.52,5,3.42,3.42,0,0,0-.77.7,7.27,7.27,0,0,0-1.68,4.48l0,.75-.17,2L215.89,440a27.76,27.76,0,0,1,5.72-9.64l.19-.24a5.28,5.28,0,0,0,.41-4.7v0a137,137,0,0,0-14-28.41l0,0c-1.16-2-2.27-4-3.31-6.09a12.65,12.65,0,0,0-2-2.91,1.3,1.3,0,0,0-.34-.28,21.24,21.24,0,0,1-2.84-1.94,16.1,16.1,0,0,1-2.33,1.3c-1.13.48-2.27.92-3.43,1.31a37.86,37.86,0,0,1-11,2,61,61,0,0,1-8.15,1.57,1.7,1.7,0,0,0-1.16.71,1.66,1.66,0,0,0-.28,1.33l.15.61q1.4,7,2.27,14s0,0,0,0a2.3,2.3,0,0,0,.86,1.39,1.23,1.23,0,0,0,.38.19,7.1,7.1,0,0,1,4.49,4.2l4.07,0,0,9.75a18.63,18.63,0,0,1-13.63-7.9,7.72,7.72,0,0,1-.59-1c-.6-1.3-1.14-2.62-1.63-4l-.77-2.09a142.87,142.87,0,0,1-6-19.49,5.67,5.67,0,0,1,.59-4.28l0-.08a4.89,4.89,0,0,1,1-1.12,25,25,0,0,1,5.72-3.58h0a66.19,66.19,0,0,1,18-5.76,26.52,26.52,0,0,1-3-10.36c0-.21,0-.42,0-.62v-.48q0-3.46-.1-6.93l-.12-6.42a28.71,28.71,0,0,0-4.55-15.3c-1.35.72-2.72,1.39-4.13,2a45.4,45.4,0,0,1-1.81,6.06,14.58,14.58,0,0,0-1.46,6.15,9.59,9.59,0,0,0-.05,2.83,2.57,2.57,0,0,1-1.24,2.11,1,1,0,0,1-.31.1,6.67,6.67,0,0,0-2.34.74,6.54,6.54,0,0,1-9.24-2.72,6.65,6.65,0,0,1-.37-1.46,117,117,0,0,1-1-15.76c-.09-3.6-.06-7.21.11-10.81a80,80,0,0,0-.68-8.32q-3.57-3.06-7.29-5.93a46.84,46.84,0,0,1,14.46,1,31.26,31.26,0,0,1,23.16,1.86,40.2,40.2,0,0,1,7.51,5.16,36.87,36.87,0,0,1,5.22,6.14,50.62,50.62,0,0,0,9.56,10.88,28.65,28.65,0,0,0,14,5.49,95.74,95.74,0,0,0,26-.26,114.7,114.7,0,0,0,11.37-1.89,33,33,0,0,1,17.28.33q5.49,1.57,10.95,3.32A23.22,23.22,0,0,1,307.61,343a17.21,17.21,0,0,1,2.35,1.53,183.16,183.16,0,0,0,51.15-11.69,4.08,4.08,0,0,1,3.69-2.66,26.58,26.58,0,0,1,10.45,1l7.18-17.63a2.08,2.08,0,0,0-2.05-2.67,33.9,33.9,0,0,1-4.72-.21,2.21,2.21,0,0,1-1.64-1.64,32,32,0,0,1-1.11-14.66,5.72,5.72,0,0,1,.44-1.46,7.52,7.52,0,0,1,7.09-4.47,13,13,0,0,1,1.87.2,8.89,8.89,0,0,1,7.3,7.68,36.63,36.63,0,0,0,5.53,17.23,43,43,0,0,1,6.77,14.35c.75,2.11,1.55,4.21,2.39,6.28h39.56l59.66,103.33Z" transform="translate(-0.2 -0.2)"/><path class="a" d="M321.58,385.65l-14.19.23,40.14,10.18-10.79-12.71V372.91h12.55l16.33-25.72a6.17,6.17,0,0,1,5.19-2.85h14.08l-2.06-5.74a5.68,5.68,0,0,1-7,2.66l-14.63-5a182.81,182.81,0,0,1-48.13,11.42,30.09,30.09,0,0,1,6.57,16.4q1.43,10.72,1.91,21.54Z" transform="translate(-0.2 -0.2)"/><path class="b" d="M285.4.2a46.09,46.09,0,0,1,39.91,23L564.43,437.39a46.06,46.06,0,0,1-39.9,69.09H46.28A46.06,46.06,0,0,1,6.37,437.39L245.5,23.23A46.09,46.09,0,0,1,285.4.2Zm0,60.23L58.56,453.33H512.24Z" transform="translate(-0.2 -0.2)"/></svg>