<svg xmlns="http://www.w3.org/2000/svg" viewBox="0 0 570.41 506.28"><defs><style>.a{fill:#dc0032;}.b{fill:#ffce00;}</style></defs><title>A33-1 korkortonline.se</title><path class="a" d="M285.4.2a46.09,46.09,0,0,0-39.9,23L6.37,437.39a46.06,46.06,0,0,0,39.91,69.09H524.53a46.06,46.06,0,0,0,39.9-69.09L325.31,23.23A46.09,46.09,0,0,0,285.4.2Z" transform="translate(-0.2 -0.2)"/><path class="b" d="M512.24,453.33,285.4,60.43,58.56,453.33Z" transform="translate(-0.2 -0.2)"/><path d="M148.07,380.06a7.4,7.4,0,0,1,12.15-6.9c.21.21.41.44.61.66a54.63,54.63,0,0,0,34.3,21.8,36.54,36.54,0,0,0,13-1.25,9,9,0,0,0,4.66-3.72l8.57-11.94a126,126,0,0,1-32.49-14.47,62.07,62.07,0,0,1-14.6-12.73,77,77,0,0,1,63-40.29q16.18-29.81,32.1-59.74A31.69,31.69,0,0,1,273,276.86l-16.51,48.26,23.76-34.81a11.64,11.64,0,0,1,9.67-4.66,6.23,6.23,0,0,1,5.6-4,40.61,40.61,0,0,1,15.84,1.55l10.87-26.71a3.16,3.16,0,0,0-3.1-4,51.71,51.71,0,0,1-7.15-.31,3.36,3.36,0,0,1-2.48-2.49,48.14,48.14,0,0,1-1.69-22.2,8.67,8.67,0,0,1,.66-2.23,11.4,11.4,0,0,1,10.75-6.77,22.29,22.29,0,0,1,2.82.3,13.49,13.49,0,0,1,11.06,11.64,55.42,55.42,0,0,0,8.39,26.1,65.1,65.1,0,0,1,10.25,21.74q3.19,9,7.15,17.71a37,37,0,0,1-.62,31.68h32A12.44,12.44,0,0,1,402.64,340v38.21a17.79,17.79,0,0,1,10.87,31.38,26.48,26.48,0,0,1-10.74,4.83,28.09,28.09,0,0,1-4.67.45H320.74a19,19,0,0,1-2.26-.11,23.36,23.36,0,0,1-13.27-6.59,8,8,0,0,1-1.42-1.82,19,19,0,0,1,3.15-23.56l-41.3.39-3.26.11-8.42.2a126,126,0,0,1-19.76-1.86l-7.39,11.8a69.36,69.36,0,0,1,32.06,6.72,17.77,17.77,0,0,1,2.88,1.71,25.4,25.4,0,0,1,6.27,6.92,3.19,3.19,0,0,1,.19.48,4.62,4.62,0,0,1-2.82,5.33,2.92,2.92,0,0,1-.72.18,9.3,9.3,0,0,1-1.5.1H214.7a94.59,94.59,0,0,1-49.08-13.36,35.19,35.19,0,0,1-15.4-16,33.86,33.86,0,0,1-2-4.92,5.45,5.45,0,0,1-.14-.58Z" transform="translate(-0.2 -0.2)"/><path class="b" d="M290.52,350.5a165.38,165.38,0,0,0,13.4-23.09,8.33,8.33,0,0,1,1.37-2.24,4.56,4.56,0,0,1,3.62-1.22l1.07.23q8.64,2,17.39,3.41H326a8.5,8.5,0,0,0-8.5,8.5V352.2a69.48,69.48,0,0,1-26.93-1.7ZM325.91,303H304.59a9.31,9.31,0,0,0-7.87,4.33l-23.42,36.9a39.81,39.81,0,0,1-13.15-11.91l23.31-34.15a12.41,12.41,0,0,1,14.26-4.76l14.52,4.93a8.62,8.62,0,0,0,10.56-4l3.11,8.7Z" transform="translate(-0.2 -0.2)"/></svg>