<svg xmlns="http://www.w3.org/2000/svg" viewBox="0 0 570.41 506.28"><defs><style>.a{fill:#dc0032;}.b{fill:#ffce00;}</style></defs><title>A34-1 korkortonline.se</title><path class="a" d="M285.4.2a46.09,46.09,0,0,0-39.9,23L6.37,437.39a46.06,46.06,0,0,0,39.91,69.09H524.53a46.06,46.06,0,0,0,39.9-69.09L325.31,23.23A46.09,46.09,0,0,0,285.4.2Z" transform="translate(-0.2 -0.2)"/><path class="b" d="M512.24,453.33,285.4,60.43,58.56,453.33Z" transform="translate(-0.2 -0.2)"/><path d="M341.82,397.47h51.09v8.08a12.13,12.13,0,0,0,24.26,0V390.24l4.51-16.81a29.8,29.8,0,0,0-10.09-29l-14.4-27.09a12.56,12.56,0,0,0-8.08-6.29A139.78,139.78,0,0,0,355,307l-10.52-19.79a12.56,12.56,0,0,0-8.08-6.29,139.78,139.78,0,0,0-34.14-4.05L291.71,257.1a12.56,12.56,0,0,0-8.08-6.29,139.87,139.87,0,0,0-66.83,0,12.56,12.56,0,0,0-8.08,6.29l-14.4,27.09a29.81,29.81,0,0,0-10.09,29L188.74,330V345.3a12.13,12.13,0,1,0,24.25-.14v-8h23.35a29.62,29.62,0,0,0,.63,6.09l4.5,16.82v15.3a12.13,12.13,0,1,0,24.26-.13v-8h23.35a29.77,29.77,0,0,0,.63,6.09l4.5,16.81v15.31a12.13,12.13,0,1,0,24.26-.13v-7.95Z" transform="translate(-0.2 -0.2)"/><path class="b" d="M317.15,313.69a12.47,12.47,0,0,1,5.13-2.62,140.43,140.43,0,0,1,18.88-3.3l-7.69-14.47a122.47,122.47,0,0,0-61,0L261.6,313.69Zm8,9.74-10.84,20.39h82.71L386.2,323.43A122.2,122.2,0,0,0,325.18,323.43Zm-60.77-39.86a12.37,12.37,0,0,1,5.13-2.63,138.84,138.84,0,0,1,18.88-3.29l-7.69-14.48a122.47,122.47,0,0,0-61,0l-10.84,20.4Z" transform="translate(-0.2 -0.2)"/></svg>