<svg xmlns="http://www.w3.org/2000/svg" viewBox="0 0 570.41 506.28"><defs><style>.a{fill:#dc0032;}.b{fill:#ffce00;}.c{isolation:isolate;}</style></defs><title>A35-1 korkortonline.se</title><path class="a" d="M285.4.2a46.09,46.09,0,0,0-39.9,23L6.37,437.39a46.06,46.06,0,0,0,39.91,69.09H524.53a46.06,46.06,0,0,0,39.9-69.09L325.31,23.23A46.09,46.09,0,0,0,285.4.2Z" transform="translate(-0.2 -0.2)"/><path class="b" d="M512.24,453.33,285.4,60.43,58.56,453.33Z" transform="translate(-0.2 -0.2)"/><path d="M194.68,256.08l-11.32,14.16V432.08H206V270.24Zm181.44,0,11.33,14.16V432.08H364.79V270.24Zm-90.72,0,11.33,14.16V432.08H274.07V270.24Zm-45.36,0,11.33,14.16V432.08H228.72V270.24Zm90.72,0-11.33,14.16V432.08h22.66V270.24Z" transform="translate(-0.2 -0.2)"/><path class="c" d="M172,392.55H398.79v22.66H172Zm0-88.63H398.79V281.27H172Z" transform="translate(-0.2 -0.2)"/></svg>