<svg xmlns="http://www.w3.org/2000/svg" viewBox="0 0 570.41 506.28"><defs><style>.a{fill:#dc0032;}.b{fill:#ffce00;}</style></defs><title>A37-1 korkortonline.se</title><path class="a" d="M285.4.2a46.09,46.09,0,0,0-39.9,23L6.37,437.39a46.06,46.06,0,0,0,39.91,69.09H524.53a46.06,46.06,0,0,0,39.9-69.09L325.31,23.23A46.09,46.09,0,0,0,285.4.2Z" transform="translate(-0.2 -0.2)"/><path class="b" d="M512.24,453.33,285.4,60.43,58.56,453.33Z" transform="translate(-0.2 -0.2)"/><path d="M356.54,412.61a15.59,15.59,0,1,0,22.13,0h35.69a10.63,10.63,0,0,0,10.4-12.84l-17.08-80.38a3.55,3.55,0,0,0-3.47-2.81H297.93l57.63-40.68V263.51L285.4,215.82l-70.16,47.69V275.9l57.63,40.68H166.6a3.54,3.54,0,0,0-3.47,2.81L146,399.77a10.63,10.63,0,0,0,10.4,12.84h35.69a15.59,15.59,0,1,0,22.13,0H230.4a15.59,15.59,0,1,0,22.13,0h65.75a15.59,15.59,0,1,0,22.13,0h16.13Z" transform="translate(-0.2 -0.2)"/><path class="b" d="M179.1,395.24V338.55h21.26v56.69ZM250,366.9H218.08V338.55H250Zm17.72-28.35V366.9h35.43V338.55Zm85,0h-31.9V366.9h31.9Zm39,56.69V338.55H370.44v56.69ZM339.61,269.81,285.4,308.08l-54.21-38.27L285.4,233Z" transform="translate(-0.2 -0.2)"/></svg>