<svg xmlns="http://www.w3.org/2000/svg" viewBox="0 0 608.38 540.04"><defs><style>.a{fill:#dc0032;}.b{fill:#ffce00;}</style></defs><title>A41-1 korkortonline.se</title><path class="a" d="M559.25,540a49.14,49.14,0,0,0,42.55-73.71L346.74,24.57a49.13,49.13,0,0,0-85.1,0L6.58,466.33A49.14,49.14,0,0,0,49.13,540H559.25" transform="translate(0 0)"/><path class="b" d="M546.15,483.34H62.23l242-419.09,242,419.09" transform="translate(0 0)"/><path d="M256.58,306.4l10.8-37.66-12.83-3.68a20.35,20.35,0,1,1,11-39.18L290.24,233l29.21.51a50,50,0,0,1,42.07,29.67l37,35.76A21.08,21.08,0,0,1,405,314.84a234.67,234.67,0,0,1-30.91,107.79,21,21,0,0,1-13.89,10.12l-50.35,10.7a50,50,0,0,1-51.41,2.87l-25-15-24.68-7.08a20.35,20.35,0,1,1,11.21-39.13l13,3.74,10.79-37.65,12.84-44.76" transform="translate(0 0)"/><path class="b" d="M355.46,412.23a205.25,205.25,0,0,0,28.22-98.42l-27.87-26.92-38.25,133.4,37.9-8.06" transform="translate(0 0)"/></svg>