<svg xmlns="http://www.w3.org/2000/svg" viewBox="0 0 608.38 540.03"><defs><style>.a{fill:#dc0032;}.b{fill:#ffce00;}</style></defs><title>A5-1 korkortonline.se</title><path class="a" d="M261.64,24.57,6.58,466.34A49.14,49.14,0,0,0,49.13,540H559.24a49.14,49.14,0,0,0,42.55-73.7l-255-441.77a49.14,49.14,0,0,0-85.1,0" transform="translate(0 -0.01)"/><path class="b" d="M546.15,483.35H62.23l242-419.09,242,419.09" transform="translate(0 -0.01)"/><path d="M239.94,464.45V381.3l49.13-60.47V230.12H239.94v75.59l-45.36,60.47v98.27h45.36m128.5-83.15-49.13-60.47V230.12h49.13v75.59l45.35,60.47v98.27H368.44V381.3" transform="translate(0 -0.01)"/></svg>