<svg xmlns="http://www.w3.org/2000/svg" viewBox="0 0 608.38 540.03"><defs><style>.a{fill:#dc0032;}.b{fill:#ffce00;}</style></defs><title>A6-1 korkortonline.se</title><path class="a" d="M261.64,24.57,6.58,466.34A49.14,49.14,0,0,0,49.13,540H559.24a49.14,49.14,0,0,0,42.55-73.7l-255-441.77a49.14,49.14,0,0,0-85.1,0" transform="translate(0 -0.01)"/><path class="b" d="M62.23,483.35l242-419.09,242,419.09H62.23" transform="translate(0 -0.01)"/><path d="M283.77,420.36a31.78,31.78,0,0,0-2.94,1.81c-1,.73-1.95,1.45-2.95,2.15a33.11,33.11,0,0,1-36.5,2.68,18.08,18.08,0,0,1-2.41-1.66,37.89,37.89,0,0,0-51.95.56V377.52L344.17,220.38,314.77,191,154.42,351.33l26.19,26.19h-31.1l-48,83.15H506.87l-48-83.15H421.35V425.9a43.12,43.12,0,0,0-55.27-1.19,29.57,29.57,0,0,1-2.83,2.14,28,28,0,0,1-33.34-2.54,34.8,34.8,0,0,0-4.21-3.13,43.12,43.12,0,0,0-41.93-.82" transform="translate(0 -0.01)"/></svg>