<svg xmlns="http://www.w3.org/2000/svg" viewBox="0 0 608.38 540.03"><defs><style>.a{fill:#dc0032;}.b{fill:#ffce00;}</style></defs><title>A8-1 korkortonline.se</title><path class="a" d="M49.13,540a49.14,49.14,0,0,1-42.55-73.7L261.64,24.57a49.14,49.14,0,0,1,85.1,0l255,441.77A49.14,49.14,0,0,1,559.24,540H49.13" transform="translate(0 -0.01)"/><path class="b" d="M62.23,483.35l242-419.08,242,419.08H62.23" transform="translate(0 -0.01)"/><path d="M328.1,406.86a29.49,29.49,0,0,1-47.82,0L252,367.69a40.07,40.07,0,0,0-66.47,2.21l-1.23,2c-.34.55-.66,1.1-.95,1.67q-1.23,2.4-2.57,4.72-1.08,1.85-2,3.78-1.56,3.34-3.17,6.69-2,4-4.29,7.89-1.73,2.82-3.69,5.49a33.34,33.34,0,0,1-3.86,4.37,38.08,38.08,0,0,1-4,3.35,23.27,23.27,0,0,1-4.2,2.4,31.38,31.38,0,0,1-7,2.14,59.39,59.39,0,0,1-10.55.95H116.72v49.13H491.65V415.32H470.38a59.22,59.22,0,0,1-10.55-.95,31.38,31.38,0,0,1-7-2.14,23.7,23.7,0,0,1-4.21-2.4,40.21,40.21,0,0,1-4-3.35,34.09,34.09,0,0,1-3.86-4.37q-2-2.67-3.68-5.49-2.34-3.84-4.29-7.89-1.61-3.35-3.18-6.69c-.6-1.29-1.26-2.55-2-3.78q-1.35-2.33-2.57-4.72c-.29-.57-.61-1.12-.95-1.67l-1.24-2a40.06,40.06,0,0,0-66.46-2.21L328.1,406.86" transform="translate(0 -0.01)"/></svg>