<svg xmlns="http://www.w3.org/2000/svg" viewBox="0 0 500 500"><defs><style>.a{fill:#0c479d;}.b{fill:#fff;}</style></defs><title>B8-1 korkortonline.se</title><path class="a" d="M0,0H500V500H0Z" transform="translate(0 0)"/><path class="b" d="M29.16,0A29.12,29.12,0,0,0,0,29.16V470.84A29.12,29.12,0,0,0,29.16,500H470.84A29.12,29.12,0,0,0,500,470.84V29.16A29.12,29.12,0,0,0,470.84,0Z" transform="translate(0 0)"/><path class="a" d="M29.16,12.5A16.63,16.63,0,0,0,12.5,29.16V470.84A16.64,16.64,0,0,0,29.16,487.5H470.84a16.66,16.66,0,0,0,16.66-16.66V29.16A16.64,16.64,0,0,0,470.84,12.5Z" transform="translate(0 0)"/><path class="b" d="M12.5,423.72,250,12.5,487.5,423.72Z" transform="translate(0 0)"/><path d="M166.85,405.39h53.36l1.48-21.05H172.1l-5.25,21.05Zm-66.19,0,8.94-21.05H59.46L47.3,405.39Zm181.61,0-1.48-21.05h49.59l5.25,21.05Zm117.07,0-8.94-21.05h50.14l12.16,21.05Zm-288-86.58h-14l-9.72,16.85H114A50.28,50.28,0,0,1,111.3,318.81ZM373,335.66h39.43l-9.72-16.85H379.91a54.27,54.27,0,0,1-1,10.72h-4.23a50.15,50.15,0,0,1-1.7,6.13ZM278.74,325H262.79l-1.17,23.66-34,2.11L228,344l12.87-9.62-.37-15.77L195.27,277.3l-1.16,2.3a51.59,51.59,0,0,1,5.79,74.63l-3.86-2.3a47.16,47.16,0,1,1-33.67-79.63v-4.25a54.08,54.08,0,0,1,25.2,6.94l16.35-36.92a12.21,12.21,0,0,1,7.33-21l20.58-21.25a10.61,10.61,0,0,0,2.95-6.6l-.11-19a24,24,0,0,1,4.09-12.15l2.55-4.51,3.28-4.44a2.77,2.77,0,0,0-.9-4.47,9.43,9.43,0,0,0-4.16-.75,8.64,8.64,0,0,1-7-5.76l-2.07-8.62-3.17-10.06a17,17,0,0,1,2.84-13.9,6.23,6.23,0,0,1,2-1.76,30,30,0,0,1,16.22-5.33,10.37,10.37,0,0,1,8.73,4.34,30.13,30.13,0,0,1,5.81,14c.42,3,.75,6,1,9A33.38,33.38,0,0,0,270,142.93a10.18,10.18,0,0,0,3,2.73,9.92,9.92,0,0,1,2.95,2.71A67,67,0,0,1,285.74,163c.75,1.51,1.5,3,2.27,4.49a9,9,0,0,0,1.17,1.76,16.52,16.52,0,0,1,2.37,3.81q2,4.45,4.34,8.76l4.44,10.07,2.07,4.75,3.32,8.65,3,8.47c1,2.76,1.93,5.52,2.86,8.3a17.67,17.67,0,0,1-2.88,16.52,25.22,25.22,0,0,1-4.71,4.58l-8.23,14.3,9.28,14.71a51.3,51.3,0,0,1,71,54H371.9A47,47,0,0,1,278.74,325Z" transform="translate(0 0)"/><path class="b" d="M186.25,296a33.93,33.93,0,1,1-9.59-7c.74.37,1.47.77,2.17,1.21l-3.69,8.19-1.92,3.73-2.09,3.42a16,16,0,0,1-6.58,6l-.5-.2a8.37,8.37,0,1,0,6,6.65l.58-.29a10.54,10.54,0,0,0,3.3-2.6c1-1.23,2.09-2.45,3.17-3.65L180,307l6-11.18.29.2ZM314.35,287a33.86,33.86,0,1,1-22.49,38h27.4a8.3,8.3,0,1,0,11.22-12.23L314.35,287Z" transform="translate(0 0)"/><path class="b" d="M306.69,290.74l13.6,21.63a6.67,6.67,0,0,0-3.19,4.84H291.33a33.71,33.71,0,0,1,15.36-26.47ZM291,266l6.56,10.29A51,51,0,0,0,274,317.21H262.9v-2.09L291,266Zm-26.43,9.11,20.6-16.28-21.79,38.65Zm-24.78,31.77-41.06-37.47L203,260h23.13L239,282.11Zm-15.84-55.07H206.45l7.93-17.16a10.6,10.6,0,0,0,10.45-6.87l27.31-21.21,10,22.84-16.72,7.46A30.85,30.85,0,0,0,223.93,251.82Z" transform="translate(0 0)"/></svg>