<svg xmlns="http://www.w3.org/2000/svg" viewBox="0 0 1000 1000"><defs><style>.a,.c{fill:#dc0032;}.b{fill:#ffce00;}.c{isolation:isolate;}</style></defs><title>C13-1 korkortonline.se</title><path class="a" d="M500.2,1000.2c-276.14,0-500-223.86-500-500S224.06.2,500.2.2s500,223.86,500,500-223.86,500-500,500Z" transform="translate(-0.2 -0.2)"/><path class="b" d="M500.2,883.53c-211.71,0-383.33-171.62-383.33-383.33S288.49,116.86,500.2,116.86,883.54,288.49,883.54,500.2,711.91,883.53,500.2,883.53Z" transform="translate(-0.2 -0.2)"/><path d="M162.7,583.46a18.33,18.33,0,0,1,30.09-17.09c.52.53,1,1.08,1.52,1.65a135.26,135.26,0,0,0,84.93,54,90.82,90.82,0,0,0,32.31-3.08,22.44,22.44,0,0,0,11.54-9.23l21.22-29.57a312.08,312.08,0,0,1-80.46-35.82,153.88,153.88,0,0,1-36.16-31.54A190.77,190.77,0,0,1,383.61,413q40.08-73.8,79.49-148A78.48,78.48,0,0,1,472,327.9L431.07,447.41l58.85-86.22a28.9,28.9,0,0,1,24-11.54,15.41,15.41,0,0,1,13.85-10A100.31,100.31,0,0,1,567,343.5l26.93-66.16a7.82,7.82,0,0,0-7.7-10,124.43,124.43,0,0,1-17.69-.77,8.36,8.36,0,0,1-6.16-6.16,119.69,119.69,0,0,1-4.17-55,21.59,21.59,0,0,1,1.64-5.51,28.2,28.2,0,0,1,26.6-16.76,55,55,0,0,1,7,.75,33.38,33.38,0,0,1,27.39,28.82,137.14,137.14,0,0,0,20.77,64.62A161.55,161.55,0,0,1,667,331.19q7.92,22.29,17.69,43.85a91.62,91.62,0,0,1-1.53,78.47h79.23a30.78,30.78,0,0,1,30.77,30.77v94.63a44.06,44.06,0,0,1,26.93,77.7,65.59,65.59,0,0,1-26.59,12,72.41,72.41,0,0,1-11.58,1.1H590.31a43.35,43.35,0,0,1-5.58-.27,58,58,0,0,1-32.89-16.32,19.63,19.63,0,0,1-3.51-4.5,47,47,0,0,1,7.82-58.34l-102.28,1c-2.69.1-5.39.17-8.08.26L425,592A310.15,310.15,0,0,1,376,587.37l-18.3,29.23a171.75,171.75,0,0,1,79.39,16.65,42.7,42.7,0,0,1,7.13,4.24,62.2,62.2,0,0,1,15.52,17.13,5.78,5.78,0,0,1,.47,1.19,11.39,11.39,0,0,1-7,13.18,6.79,6.79,0,0,1-1.77.46,23.06,23.06,0,0,1-3.71.25H327.69a234.41,234.41,0,0,1-121.54-33.09A87.15,87.15,0,0,1,168,597.08a81.91,81.91,0,0,1-5-12.16c-.13-.48-.25-1-.35-1.45Z" transform="translate(-0.2 -0.2)"/><path class="b" d="M603.12,392.73h-52.8a23.06,23.06,0,0,0-19.48,10.72l-58,91.37a98.12,98.12,0,0,1-32.57-29.48L498,380.76A30.78,30.78,0,0,1,533.31,369l36,12.22a21.37,21.37,0,0,0,26.16-10l7.7,21.54Z" transform="translate(-0.2 -0.2)"/><path class="c" d="M866.13,813.09l-53,53L134.27,187.3l53-53Z" transform="translate(-0.2 -0.2)"/></svg>