<svg xmlns="http://www.w3.org/2000/svg" viewBox="0 0 1000 1000"><defs><style>.a,.c{fill:#dc0032;}.b{fill:#ffce00;}.c{isolation:isolate;}</style></defs><title>C14-1 korkortonline.se</title><path class="a" d="M500.2,1000.2c-276.14,0-500-223.86-500-500S224.06.2,500.2.2s500,223.86,500,500-223.86,500-500,500Z" transform="translate(-0.2 -0.2)"/><path class="b" d="M500.2,883.53c-211.71,0-383.33-171.62-383.33-383.33S288.49,116.86,500.2,116.86,883.54,288.49,883.54,500.2,711.91,883.53,500.2,883.53Z" transform="translate(-0.2 -0.2)"/><path d="M753.19,654.41q-2.48-8.29-5.28-16.49-1.83-4.86-4.1-9.53L743,626.7a61,61,0,0,0-7.39-12.47c-.16-.21-.32-.4-.49-.59q-3.58-3.82-7.33-7.48l0,0q-6.74-6.71-14-12.9-10-8.31-20.55-15.83a116.43,116.43,0,0,1-12.32-11.07h0A142.42,142.42,0,0,1,667,549.2a46,46,0,0,0-19.13,41.06,61.92,61.92,0,0,0,1.15,6.87l0,0q1.83,9,3.35,18a11.38,11.38,0,0,1-4.82,11.36,1.7,1.7,0,0,1-.14.1q-4.27,3.12-8.37,6.46L456.9,373q5.06-2.49,10.27-4.68,3.18-34.05,8.94-67.78a44.78,44.78,0,0,1,16.11-26.6,30.52,30.52,0,0,0,2-15.92,34.94,34.94,0,0,1-7.22-.42,8,8,0,0,1-5.72-3A48.49,48.49,0,0,1,477,237.81a24.41,24.41,0,0,1,.7-11.88,48.52,48.52,0,0,1-.79-5.23,25.11,25.11,0,0,1-1-8.53,14.73,14.73,0,0,1,10.86-14.58A58.38,58.38,0,0,1,498.27,195a27.87,27.87,0,0,1,20.25,4.45,20.76,20.76,0,0,1,4.67,6.06,51.9,51.9,0,0,1,4.26,19.13,80.32,80.32,0,0,1-4.12,23.55,26.83,26.83,0,0,0,3.53,20.62,164.79,164.79,0,0,1,11.23,28.83,112.21,112.21,0,0,1,4.56,19.56q.66,8.81,2,17.52a59.1,59.1,0,0,0,5,16.76q1.79,4.5,3.41,9.06,5.68,21.4,10.88,42.95a372.37,372.37,0,0,0,44.54-6.9A105.91,105.91,0,0,1,664,397.6q17.68,5.06,35.2,10.66a74.79,74.79,0,0,1,55.15,4,58.35,58.35,0,0,1,20.71,19.09,96.52,96.52,0,0,1,18.07,48.75q4.62,34.49,6.14,69.25l-45.6.73a543.41,543.41,0,0,0-5-81.43,112,112,0,0,0-12.19-36.36,26.21,26.21,0,0,0-5-6.08,18.11,18.11,0,0,0-2.51-1.83,36.31,36.31,0,0,0-20.88-5.28,105,105,0,0,1,22.49,39.37,62.59,62.59,0,0,1,1.66,7,163.3,163.3,0,0,1,1.93,37.54,168.79,168.79,0,0,0,.82,27.53,86.73,86.73,0,0,0,14.41,37.09c.2.29.41.57.63.85q6.4,8.3,13,16.44a13.91,13.91,0,0,1,3.09,11.1,61.14,61.14,0,0,0,2.19,25.08v0l4.94,16.59,0,0q7.5,26.83,15.66,53.46a10.83,10.83,0,0,1-1.27,9.26l-.05.08a17.67,17.67,0,0,1-6,5.26h0a2.61,2.61,0,0,0-1.22,2.59,4.42,4.42,0,0,1,0,.63l-.32,15.38-34.2-.37a95.93,95.93,0,0,1,13.59-24.79s0,0,0,0a19.44,19.44,0,0,0,2.36-15.22q-3.3-12.39-7.16-24.63l-1.55-5ZM293.14,448.59a3.12,3.12,0,0,0,1-.4,8.28,8.28,0,0,0,3.39-7.08,31.26,31.26,0,0,1-.62-9.1,47.06,47.06,0,0,1,3-20.07A145.46,145.46,0,0,0,304.08,392a154.45,154.45,0,0,0,13.83-8.27A224,224,0,0,1,341.17,431a156.71,156.71,0,0,1,9,26,144.91,144.91,0,0,1,3.05,20.19A85.64,85.64,0,0,0,363,514.83a213,213,0,0,0-58,18.53l-.1,0a80.62,80.62,0,0,0-18.4,11.48,16.05,16.05,0,0,0-3.25,3.63l-.15.23a18.19,18.19,0,0,0-1.9,13.76,464.62,464.62,0,0,0,19.24,62.67l2.48,6.73c1.58,4.32,3.34,8.59,5.26,12.77a22.73,22.73,0,0,0,1.88,3.2,59.83,59.83,0,0,0,43.84,25.39L353.87,642l-13.1.08a22.7,22.7,0,0,0-14.41-13.49,3.9,3.9,0,0,1-1.24-.62,7.3,7.3,0,0,1-2.75-4.47s0-.08,0-.13q-2.82-22.68-7.32-45.13l-.46-2a5.47,5.47,0,0,1,4.61-6.55,197.61,197.61,0,0,0,26.22-5,122.19,122.19,0,0,0,35.23-6.41q5.58-1.89,11-4.2a52.3,52.3,0,0,0,7.5-4.17,70.85,70.85,0,0,0,9.12,6.22,4.82,4.82,0,0,1,1.12.9,42.54,42.54,0,0,1,6.42,9.35q5,9.95,10.65,19.58l.06.09a439.16,439.16,0,0,1,45.09,91.34l0,.07a17,17,0,0,1-1.33,15.1,6.28,6.28,0,0,1-.59.77,89.82,89.82,0,0,0-18.41,31l34.8.25.53-6.48c.06-.8.1-1.62.12-2.42a23.12,23.12,0,0,1,5.38-14.39,11.52,11.52,0,0,1,2.48-2.25,13.43,13.43,0,0,0,4.9-16.07c-.05-.13-.11-.26-.18-.4q-4.23-8-8-16.32h0a89.28,89.28,0,0,1-7.89-28.72l0-.23q-2.29-11.28-5.53-22.31-2-7.89-4.23-15.73-3.11-13.26-5.55-26.69-1.76-12-4.33-23.82,13.31,2.07,26.75,3.06L318.55,306.15a100.58,100.58,0,0,0-57.34,5.42,150.92,150.92,0,0,0-46.57.85q12.69,8.19,24.94,17A247.3,247.3,0,0,1,244,355.94q.65,17.37,2.56,34.66a374.63,374.63,0,0,0,7.35,50.21,22,22,0,0,0,1.57,4.59,21,21,0,0,0,30.33,6.21,22,22,0,0,1,7.31-3Z" transform="translate(-0.2 -0.2)"/><path class="c" d="M806.23,871.88l-61.43,43L194.17,128.52l61.43-43Z" transform="translate(-0.2 -0.2)"/></svg>