<svg xmlns="http://www.w3.org/2000/svg" viewBox="0 0 1000 1000"><defs><style>.a,.c{fill:#dc0032;}.b{fill:#ffce00;}.c{isolation:isolate;}</style></defs><title>C15-1 korkortonline.se</title><path class="a" d="M500.2,1000.2c-276.14,0-500-223.86-500-500S224.06.2,500.2.2s500,223.86,500,500-223.86,500-500,500Z" transform="translate(-0.2 -0.2)"/><path class="b" d="M500.2,883.53c-211.71,0-383.33-171.62-383.33-383.33S288.49,116.86,500.2,116.86,883.54,288.49,883.54,500.2,711.91,883.53,500.2,883.53Z" transform="translate(-0.2 -0.2)"/><path class="c" d="M914.9,744.8l-43,61.43L85.5,255.6l43-61.44Z" transform="translate(-0.2 -0.2)"/><path d="M444.29,180.21a36.72,36.72,0,0,1,11.64-37,49.34,49.34,0,0,1,47.65-5.07A35.31,35.31,0,0,1,528.34,165a80,80,0,0,1-.56,31.7,140.28,140.28,0,0,0-6.19,24,56,56,0,0,0,2.6,21.2,20.86,20.86,0,0,0,11.66,10.88q13.74,7.14,27.95,13.32a58.7,58.7,0,0,1,16,9.57,45.65,45.65,0,0,1,9.75,12.56l42.4,76.92,10.69,99.06-4.87,1.13,1.53,21a17.35,17.35,0,0,1-34.45,3.93l-14.92-96-30-45,2.06,79.92a24.49,24.49,0,0,0,2.44,12.57,73.64,73.64,0,0,1,8.58,63.62l-111.4-78-2.61-37.77-13.51,22.71-2.61,1.94L403.89,387l16-12.79,12-73.89a41.82,41.82,0,0,1,6-16.35A80.05,80.05,0,0,1,451,271.36q12.8-9.75,25-20.23a9.52,9.52,0,0,0,2.07-7.69,9.85,9.85,0,0,0-10.46-7,24.12,24.12,0,0,1-12.25-3.31,44.62,44.62,0,0,1-10.5-41.65,32.74,32.74,0,0,0-.57-11.25ZM373,456.9l-30.13-21.1a17.36,17.36,0,1,0,19.74,28.55L373,456.9ZM567.74,679.25,504.33,563.12,314.47,811.7,232.3,767.05l16.88-15.38,34.34,7.5L442.73,505.74l203.1,142.2,15.71,21L736,744.54l-43,65.09h-49.9l7.5-16.13,19.51-4.69,3.19-12.94L567.74,679.25Z" transform="translate(-0.2 -0.2)"/></svg>