<svg xmlns="http://www.w3.org/2000/svg" viewBox="0 0 1000 1000"><defs><style>.a{fill:#ffce00;}.b{isolation:isolate;}.c{fill:#dc0032;}</style></defs><title>C16-1 korkortonline.se</title><path class="a" d="M500.2,50.2c-248.53,0-450,201.47-450,450s201.47,450,450,450,450-201.47,450-450-201.47-450-450-450Z" transform="translate(-0.2 -0.2)"/><path class="b" d="M890.2,640.2l-140-140,140-140Zm-780,0,140-140-140-140Z" transform="translate(-0.2 -0.2)"/><path class="c" d="M500.2,1000.2c-276.14,0-500-223.86-500-500S224.06.2,500.2.2s500,223.86,500,500-223.86,500-500,500Zm0-116.66c211.71,0,383.34-171.63,383.34-383.34S711.91,116.87,500.2,116.87,116.86,288.49,116.86,500.2,288.49,883.54,500.2,883.54Z" transform="translate(-0.2 -0.2)"/><path d="M328.82,543.24a81.54,81.54,0,0,1,25.09-25.1L419.8,480.5a86.42,86.42,0,0,0,36.07-42.36,92.44,92.44,0,0,0,0-59.6,85.72,85.72,0,0,0-51.76-50.2,146.84,146.84,0,0,0-81.57,1.57,81.38,81.38,0,0,0-54.9,80h48.63A34.36,34.36,0,0,1,339.8,375.4a90.35,90.35,0,0,1,50.19,0,33.21,33.21,0,0,1,20.39,20.39,35.79,35.79,0,0,1,0,25.1,34.54,34.54,0,0,1-14.11,17.25l-65.89,37.65a128.8,128.8,0,0,0-62.74,116.08H460.58V543.24ZM538,631.73V555.25H507.64v76.48H538m91.61-79.37A66,66,0,0,1,650,532l53.52-30.59A70.22,70.22,0,0,0,732.87,467a75.24,75.24,0,0,0,0-48.44,69.66,69.66,0,0,0-42.06-40.78A119.3,119.3,0,0,0,624.54,379a66.11,66.11,0,0,0-44.61,65h39.51a27.94,27.94,0,0,1,19.12-28,73.44,73.44,0,0,1,40.78,0,27,27,0,0,1,16.57,16.57,29.09,29.09,0,0,1,0,20.39,28.14,28.14,0,0,1-11.47,14l-53.53,30.58a104.65,104.65,0,0,0-51,94.32H736.69V552.36ZM421.28,825.2h30.39V749.73a16.67,16.67,0,1,1,33.33,0V825.2h30.39V749.73a16.68,16.68,0,1,1,33.34,0V825.2h30.39V740.89a39.37,39.37,0,0,0-71.57-22.55,41.53,41.53,0,0,0-55.88-9.81v-4.9H421.28V825.2Z" transform="translate(-0.2 -0.2)"/></svg>