<svg xmlns="http://www.w3.org/2000/svg" viewBox="0 0 1000 1000"><defs><style>.a{fill:#ffce00;}.b{fill:#dc0032;}</style></defs><title>C19-1 korkortonline.se</title><path class="a" d="M500.2,50.2c248.53,0,450,201.47,450,450s-201.47,450-450,450-450-201.47-450-450,201.47-450,450-450Z" transform="translate(-0.2 -0.2)"/><path d="M756.54,584.79a48.46,48.46,0,1,0-48.46,48.46A48.46,48.46,0,0,0,756.54,584.79Z" transform="translate(-0.2 -0.2)"/><path class="a" d="M724.24,584.79a16.16,16.16,0,1,0-16.16,16.15A16.17,16.17,0,0,0,724.24,584.79Z" transform="translate(-0.2 -0.2)"/><path d="M239.22,584.79a48.47,48.47,0,1,0-48.46,48.46A48.46,48.46,0,0,0,239.22,584.79Z" transform="translate(-0.2 -0.2)"/><path class="a" d="M206.91,584.79a16.16,16.16,0,1,0-16.15,16.15,16.16,16.16,0,0,0,16.15-16.15Z" transform="translate(-0.2 -0.2)"/><path d="M821.16,457.1a286.1,286.1,0,0,1,33.37-37.31,20,20,0,0,1,9.28-4.28L874,414.19q-2.76-12-6.3-23.87L855,391.72h0a41.42,41.42,0,0,0-26.93,14.61L786.54,454,639.79,474.11a15.39,15.39,0,0,0-13.3,14.95L625,567.76a4.59,4.59,0,0,0,4.61,4.72H653.3a56.15,56.15,0,0,1,109.57,0h114a383.11,383.11,0,0,0,4.46-115.39ZM136,572.48a56.16,56.16,0,0,1,109.58,0h92.9a12.29,12.29,0,0,0,10-6.92,118,118,0,0,0-3.51-81.2c-.14-.32-.28-.64-.44-.95a10.72,10.72,0,0,0-.61-1,24.54,24.54,0,0,0-19.28-11.13L228.45,464a370.8,370.8,0,0,0-40.77-49.23,79.72,79.72,0,0,0-55.88-21.27A384.24,384.24,0,0,0,123,430.94h13.18A48.74,48.74,0,0,1,165.38,442q8.56,10.1,17.69,19.69H118.61a383.56,383.56,0,0,0,4.94,110.77H136ZM421.28,610.2h30.39V534.72a16.67,16.67,0,1,1,33.33,0V610.2h30.39V534.72a16.68,16.68,0,1,1,33.34,0V610.2h30.39V525.89a39.38,39.38,0,0,0-71.57-22.55,41.52,41.52,0,0,0-55.88-9.8v-4.91H421.28V610.2ZM592.69,419.42a85.56,85.56,0,0,1-63.73-28,127.51,127.51,0,0,1,0-165.69,86.43,86.43,0,0,1,127.45,0,127.45,127.45,0,0,1,0,165.69,85.53,85.53,0,0,1-63.72,28ZM424.27,359.51a32.74,32.74,0,0,0,1.28-19.11A30.23,30.23,0,0,0,409,320a59.53,59.53,0,0,0-29.31-3.83,62.34,62.34,0,0,0-33.14,15.3l-33.14-16.57L337.61,200.2H456.14v39.51H369.65l-8.44,40a122.06,122.06,0,0,1,17.18-3A85.77,85.77,0,0,1,423,283a71,71,0,0,1,37,94.32,79.25,79.25,0,0,1-51,39.51,103.83,103.83,0,0,1-94.31-28l28-26.77a64.76,64.76,0,0,0,57.35,16.57,36.71,36.71,0,0,0,24.22-19.12Z" transform="translate(-0.2 -0.2)"/><path class="a" d="M592.69,379.91a46.1,46.1,0,0,1-34.16-14.75,88,88,0,0,1,0-113.25,46.93,46.93,0,0,1,68.32,0,88,88,0,0,1,0,113.25,46.07,46.07,0,0,1-34.16,14.75Z" transform="translate(-0.2 -0.2)"/><path class="b" d="M500.2,1000.2c276.14,0,500-223.86,500-500S776.34.2,500.2.2.2,224.06.2,500.2s223.86,500,500,500Zm0-116.66c-211.71,0-383.33-171.63-383.33-383.34S288.49,116.87,500.2,116.87,883.54,288.49,883.54,500.2,711.91,883.54,500.2,883.54Z" transform="translate(-0.2 -0.2)"/><path d="M666.86,741.88,575.2,833.54V761.88h-150v71.66l-91.66-91.66,91.66-91.67v71.67h150V650.21Z" transform="translate(-0.2 -0.2)"/></svg>