<svg xmlns="http://www.w3.org/2000/svg" viewBox="0 0 1000 1000"><defs><style>.a{fill:#dc0032;}.b{fill:#ffce00;}</style></defs><title>C20-1 korkortonline.se</title><path class="a" d="M500.2,1000.2c-276.14,0-500-223.86-500-500S224.06.2,500.2.2s500,223.86,500,500-223.86,500-500,500Z" transform="translate(-0.2 -0.2)"/><path class="b" d="M500.2,883.53c-211.71,0-383.33-171.62-383.33-383.33S288.49,116.86,500.2,116.86,883.53,288.49,883.53,500.2,711.91,883.53,500.2,883.53Z" transform="translate(-0.2 -0.2)"/><path d="M262.14,650.2V430.74H227.68V396.28l47.15-54.41h43.53V650.2ZM456.2,594a94.11,94.11,0,0,1,29-29l76.17-43.53a99.92,99.92,0,0,0,41.71-49,107,107,0,0,0,0-68.92,99.12,99.12,0,0,0-59.85-58,169.75,169.75,0,0,0-94.31,1.81,94.08,94.08,0,0,0-63.48,92.5h56.22a39.75,39.75,0,0,1,27.21-39.9,104.51,104.51,0,0,1,58,0,38.41,38.41,0,0,1,23.58,23.58,41.42,41.42,0,0,1,0,29,40.11,40.11,0,0,1-16.32,19.95L458,516A148.9,148.9,0,0,0,385.46,650.2H608.55V594H456.2Zm277.57-89.69V617.23a31.54,31.54,0,0,0,32.94,32.94h34.5V601.54h-7.84a10.27,10.27,0,0,1-11-11V504.29H806.7V455.66H782.39V383.5L733.77,407v48.63H714.16v48.63Z" transform="translate(-0.2 -0.2)"/></svg>