<svg xmlns="http://www.w3.org/2000/svg" viewBox="0 0 1000 1000"><defs><style>.a{fill:#dc0032;}.b{fill:#ffce00;}</style></defs><title>C24-1 korkortonline.se</title><path class="a" d="M500.2,1000.2c-276.14,0-500-223.86-500-500S224.06.2,500.2.2s500,223.86,500,500-223.86,500-500,500Z" transform="translate(-0.2 -0.2)"/><path class="b" d="M500.2,883.53c-211.71,0-383.33-171.62-383.33-383.33S288.49,116.86,500.2,116.86,883.54,288.49,883.54,500.2,711.91,883.53,500.2,883.53Z" transform="translate(-0.2 -0.2)"/><path d="M287.72,475.2V285.4h-29.8V255.59l40.79-47.05h37.64V475.2ZM690.67,329.32V442.26a31.55,31.55,0,0,0,32.94,32.94h34.51V426.57h-7.84a10.27,10.27,0,0,1-11-11V329.32h24.31V280.69H739.3V208.53l-48.63,23.53v48.63H671.06v48.63Zm-186.95,149a105.31,105.31,0,0,1-78.43-34.51,156.88,156.88,0,0,1,0-203.92,106.38,106.38,0,0,1,156.86,0,156.92,156.92,0,0,1,0,203.92,105.33,105.33,0,0,1-78.43,34.51Z" transform="translate(-0.2 -0.2)"/><path class="b" d="M503.72,429.71a56.71,56.71,0,0,1-42.05-18.15,108.32,108.32,0,0,1,0-139.39,57.77,57.77,0,0,1,84.09,0,108.29,108.29,0,0,1,0,139.39,56.71,56.71,0,0,1-42,18.15Z" transform="translate(-0.2 -0.2)"/><path d="M608.53,518H391.87L500.2,626.35ZM629,635.5a171.4,171.4,0,0,1,146.53,81.65l-26.21,16.13a140.68,140.68,0,0,0-126.1-66.88s0,0,0,0H377.14s0,0,0,0A140.67,140.67,0,0,0,251,733.28l-26.22-16.13A171.43,171.43,0,0,1,371.36,635.5c1.92,0,3.85,0,5.78.12H623.26c1.93-.07,3.86-.12,5.78-.12Z" transform="translate(-0.2 -0.2)"/><path d="M614,843.28a86.16,86.16,0,1,0-86.16-86.15A86.15,86.15,0,0,0,614,843.28Z" transform="translate(-0.2 -0.2)"/><path class="b" d="M614,795.59a38.47,38.47,0,1,0-38.47-38.46A38.46,38.46,0,0,0,614,795.59Z" transform="translate(-0.2 -0.2)"/><path d="M614,787.13a30,30,0,1,0-30-30A30,30,0,0,0,614,787.13ZM386.36,843.28a86.16,86.16,0,1,1,86.16-86.15A86.15,86.15,0,0,1,386.36,843.28Z" transform="translate(-0.2 -0.2)"/><path class="b" d="M386.36,795.59a38.47,38.47,0,1,1,38.47-38.46A38.46,38.46,0,0,1,386.36,795.59Z" transform="translate(-0.2 -0.2)"/><path d="M386.36,787.13a30,30,0,1,1,30-30A30,30,0,0,1,386.36,787.13Z" transform="translate(-0.2 -0.2)"/></svg>