<svg xmlns="http://www.w3.org/2000/svg" viewBox="0 0 1000 1000"><defs><style>.a,.c{fill:#dc0032;}.b{fill:#ffce00;}.c{isolation:isolate;}</style></defs><title>C26-1 korkortonline.se</title><path class="a" d="M500.2,1000.2c-276.14,0-500-223.86-500-500S224.06.2,500.2.2s500,223.86,500,500-223.86,500-500,500Z" transform="translate(-0.2 -0.2)"/><path class="b" d="M500.2,883.53c-211.71,0-383.33-171.62-383.33-383.33S288.49,116.86,500.2,116.86,883.53,288.49,883.53,500.2,711.91,883.53,500.2,883.53Z" transform="translate(-0.2 -0.2)"/><path d="M500.2,230.9c-106.53,0-192.89,86.36-192.89,192.89v271H274l91.67,91.66,91.67-91.66H424v-271a76.23,76.23,0,1,1,152.46,0V786.42H693.09V423.79c0-106.53-86.36-192.89-192.89-192.89Z" transform="translate(-0.2 -0.2)"/><path class="c" d="M914.9,744.8l-43,61.43L85.5,255.6l43-61.44Z" transform="translate(-0.2 -0.2)"/></svg>