<svg xmlns="http://www.w3.org/2000/svg" viewBox="0 0 1000 1000"><defs><style>.a{fill:#dc0032;}.b{fill:#ffce00;}</style></defs><title>C27-1 korkortonline.se</title><path class="a" d="M500.2,1000.2c-276.14,0-500-223.86-500-500S224.06.2,500.2.2s500,223.86,500,500-223.86,500-500,500Z" transform="translate(-0.2 -0.2)"/><path class="b" d="M500.2,883.53c-211.71,0-383.33-171.62-383.33-383.33S288.49,116.86,500.2,116.86,883.53,288.49,883.53,500.2,711.91,883.53,500.2,883.53Z" transform="translate(-0.2 -0.2)"/><path d="M172.55,607.28v16h655.3v-16Z" transform="translate(-0.2 -0.2)"/><path class="a" d="M321.69,354.62a319.54,319.54,0,0,0-76.28,9.25,28.72,28.72,0,0,0-18.47,14.38l-32.87,61.84a68,68,0,0,0-23,66.16l10.28,38.4v34.94a27.69,27.69,0,1,0,55.37-.28V561.12h170v18.19a27.69,27.69,0,1,0,55.38.28V544.65l10.28-38.4a68,68,0,0,0-23-66.16l-32.88-61.84A28.67,28.67,0,0,0,398,363.87a319.42,319.42,0,0,0-76.28-9.25Zm0,28.66a279,279,0,0,1,69.66,8.81l24.75,46.56H227.29L252,392.09a279,279,0,0,1,69.65-8.81Z" transform="translate(-0.2 -0.2)"/><path d="M678.71,354.62A319.54,319.54,0,0,1,755,363.87a28.72,28.72,0,0,1,18.47,14.38l32.87,61.84a68,68,0,0,1,23,66.16l-10.28,38.4v34.94a27.69,27.69,0,1,1-55.37-.28V561.12h-170v18.19a27.69,27.69,0,1,1-55.38.28V544.65l-10.28-38.4a68,68,0,0,1,23-66.16L584,378.25a28.67,28.67,0,0,1,18.46-14.38,319.56,319.56,0,0,1,76.29-9.25Zm0,28.66a279,279,0,0,0-69.66,8.81L584.3,438.65H773.11l-24.75-46.56a279,279,0,0,0-69.65-8.81Z" transform="translate(-0.2 -0.2)"/></svg>