<svg xmlns="http://www.w3.org/2000/svg" viewBox="0 0 1000 1000"><defs><style>.a{fill:#ffce00;}.b{fill:#7c868d;}.c{isolation:isolate;}</style></defs><title>C28-1 korkortonline.se</title><path class="a" d="M500.2,1000.2c-276.14,0-500-223.86-500-500S224.06.2,500.2.2s500,223.86,500,500-223.86,500-500,500Z" transform="translate(-0.2 -0.2)"/><path class="b" d="M172.55,607.28v16h655.3v-16Z" transform="translate(-0.2 -0.2)"/><path class="b" d="M321.69,354.62a319.54,319.54,0,0,0-76.28,9.25,28.72,28.72,0,0,0-18.47,14.38l-32.87,61.84a68,68,0,0,0-23,66.16l10.28,38.4v34.94a27.69,27.69,0,1,0,55.37-.28V561.12h170v18.19a27.69,27.69,0,1,0,55.38.28V544.65l10.28-38.4a68,68,0,0,0-23-66.16l-32.88-61.84A28.67,28.67,0,0,0,398,363.87a319.42,319.42,0,0,0-76.28-9.25Zm0,28.66a279,279,0,0,1,69.66,8.81l24.75,46.56H227.29L252,392.09a279.45,279.45,0,0,1,69.65-8.81Zm357-28.66A319.54,319.54,0,0,1,755,363.87a28.72,28.72,0,0,1,18.47,14.38l32.87,61.84a68,68,0,0,1,23,66.16l-10.28,38.4v34.94a27.69,27.69,0,1,1-55.37-.28V561.12h-170v18.19a27.69,27.69,0,1,1-55.38.28V544.65l-10.28-38.4a68,68,0,0,1,23-66.16L584,378.25a28.67,28.67,0,0,1,18.46-14.38,319.54,319.54,0,0,1,76.28-9.25Zm0,28.66a279,279,0,0,0-69.66,8.81L584.3,438.65H773.11l-24.75-46.56a279.45,279.45,0,0,0-69.65-8.81Z" transform="translate(-0.2 -0.2)"/><path class="c" d="M846.62,139.64q-14.58-14-30-26.6L113,816.65q12.6,15.38,26.6,30l707-707Zm14.14,14.14-707,707q14.58,14,30,26.6L887.36,183.75q-12.6-15.37-26.6-30Zm-59.93-53.21q-16.35-12.33-33.45-23.11L77.46,767.37q10.82,17.08,23.11,33.46L800.83,100.57Zm99,99L199.57,899.82q16.35,12.34,33.45,23.12L922.94,233q-10.82-17.09-23.11-33.45Z" transform="translate(-0.2 -0.2)"/></svg>