<svg xmlns="http://www.w3.org/2000/svg" viewBox="0 0 1000 1000"><defs><style>.a{fill:#dc0032;}.b{fill:#ffce00;}</style></defs><title>C29-1 korkortonline.se</title><path class="a" d="M500.2,1000.2c-276.14,0-500-223.86-500-500S224.06.2,500.2.2s500,223.86,500,500-223.86,500-500,500Z" transform="translate(-0.2 -0.2)"/><path class="b" d="M500.2,883.53c-211.71,0-383.33-171.62-383.33-383.33S288.49,116.86,500.2,116.86,883.53,288.49,883.53,500.2,711.91,883.53,500.2,883.53Z" transform="translate(-0.2 -0.2)"/><path d="M220.2,645.74v16H827.85v-16Z" transform="translate(-0.2 -0.2)"/><path d="M678.71,393.08A319.54,319.54,0,0,1,755,402.33a28.72,28.72,0,0,1,18.47,14.38l32.87,61.84a68,68,0,0,1,23,66.16l-10.28,38.4v34.94a27.69,27.69,0,1,1-55.37-.28V599.58h-170v18.19a27.69,27.69,0,1,1-55.38.28V583.11l-10.28-38.4a68,68,0,0,1,23-66.16L584,416.71a28.67,28.67,0,0,1,18.46-14.38,319.56,319.56,0,0,1,76.29-9.25Zm0,28.66a279,279,0,0,0-69.66,8.81L584.3,477.11H773.11l-24.75-46.56a279,279,0,0,0-69.65-8.81Z" transform="translate(-0.2 -0.2)"/><path class="a" d="M264.94,250.49a27.68,27.68,0,0,0-27.69,27.69V467.27h-4.63a15.4,15.4,0,0,0-15.37,15.41v94.43a15.36,15.36,0,0,0,15.37,15.38h4.63v25.56a27.69,27.69,0,1,0,55.37,0V592.49H415.87v25.56a27.69,27.69,0,1,0,55.38,0V592.49h4.62a15.36,15.36,0,0,0,15.38-15.38V482.68a15.4,15.4,0,0,0-15.38-15.41h-4.62V278.18a27.68,27.68,0,0,0-27.69-27.69Z" transform="translate(-0.2 -0.2)"/></svg>