<svg xmlns="http://www.w3.org/2000/svg" viewBox="0 0 1000 1000"><defs><style>.a{fill:#dc0032;}.b{fill:#ffce00;}</style></defs><title>C31-1 korkortonline.se</title><path class="a" d="M500.2,1000.2c-276.14,0-500-223.86-500-500S224.06.2,500.2.2s500,223.86,500,500-223.86,500-500,500Z" transform="translate(-0.2 -0.2)"/><path class="b" d="M500.2,883.53c-211.71,0-383.33-171.62-383.33-383.33S288.49,116.86,500.2,116.86,883.53,288.49,883.53,500.2,711.91,883.53,500.2,883.53Z" transform="translate(-0.2 -0.2)"/><path d="M450.7,596.92a134.55,134.55,0,0,0-45.26-101.4,132.59,132.59,0,0,0-55.72-224.15,131.12,131.12,0,0,0-162.21,98.76l76,15.75a53.59,53.59,0,1,1,51.69,67H288.17v85.17h26.55a58.75,58.75,0,1,1-57.11,72.52L183,630.4A135.86,135.86,0,0,0,450.7,596.92ZM678.6,267a124.26,124.26,0,0,0-78,27.5,208.4,208.4,0,0,0-58.88,75.41,340.53,340.53,0,0,0,0,260.72A208.35,208.35,0,0,0,600.6,706a124.37,124.37,0,0,0,156,0,208.22,208.22,0,0,0,58.87-75.37,340.55,340.55,0,0,0,0-260.73,208.32,208.32,0,0,0-58.87-75.4,124.3,124.3,0,0,0-78-27.5Zm0,77.78a46.55,46.55,0,0,1,29.25,10.34,130.67,130.67,0,0,1,36.34,46,262.7,262.7,0,0,1,0,198.35,130.48,130.48,0,0,1-36.34,45.94,46.44,46.44,0,0,1-58.5,0A130.62,130.62,0,0,1,613,599.39,262.82,262.82,0,0,1,613,401a130.69,130.69,0,0,1,36.35-46,46.49,46.49,0,0,1,29.25-10.35Z" transform="translate(-0.2 -0.2)"/></svg>