<svg xmlns="http://www.w3.org/2000/svg" viewBox="0 0 1000 1000"><defs><style>.a,.c{fill:#dc0032;}.b{fill:#0c479d;}.c{isolation:isolate;}.d{fill:#fff;}</style></defs><title>C38-1 korkortonline.se</title><path class="a" d="M500.2,1000.2c-276.14,0-500-223.86-500-500S224.06.2,500.2.2s500,223.86,500,500-223.86,500-500,500Z" transform="translate(-0.2 -0.2)"/><path class="b" d="M500.2,883.53c-211.71,0-383.33-171.62-383.33-383.33S288.49,116.86,500.2,116.86,883.53,288.49,883.53,500.2,711.91,883.53,500.2,883.53Z" transform="translate(-0.2 -0.2)"/><path class="c" d="M866.13,813.09l-53,53L134.27,187.31l53-53Z" transform="translate(-0.2 -0.2)"/><path class="d" d="M608.53,483.53h83.34V250.2H608.53V483.53ZM247.93,775.2h83.33V541.87H247.93Zm143.94,0H475.2V541.87H391.87Z" transform="translate(-0.2 -0.2)"/></svg>