<svg xmlns="http://www.w3.org/2000/svg" viewBox="0 0 500 750"><defs><style>.a{fill:#ffce00;}.b,.d{fill:#dc0032;}.c{fill:#0c479d;}.d{isolation:isolate;}</style></defs><title>C40-1 korkortonline.se</title><path class="a" d="M0,0H500V750H0Z" transform="translate(0 0)"/><path class="b" d="M29.16,0A29.12,29.12,0,0,0,0,29.16V720.84A29.12,29.12,0,0,0,29.16,750H470.84A29.12,29.12,0,0,0,500,720.84V29.16A29.12,29.12,0,0,0,470.84,0Z" transform="translate(0 0)"/><path class="a" d="M17,716.66A16.32,16.32,0,0,0,33.34,733H466.66A16.32,16.32,0,0,0,483,716.66V33.34A16.32,16.32,0,0,0,466.66,17H33.34A16.32,16.32,0,0,0,17,33.34Z" transform="translate(0 0)"/><path d="M98.6,91.92v40.59h31.77v18.24h-50v-100H98.6ZM211.84,77.81H193.6V83.1a25.94,25.94,0,0,0-11.76-5.29A30.8,30.8,0,0,0,164.78,79,35,35,0,0,0,147.13,96a52.89,52.89,0,0,0,0,37.06,33.83,33.83,0,0,0,20.59,18.24,30.35,30.35,0,0,0,14.12,0A29.58,29.58,0,0,0,193.6,146v4.71h18.24V77.81Z" transform="translate(0 0)"/><path class="a" d="M193.6,122.51a16.66,16.66,0,0,1-12.35,11.77,12.87,12.87,0,0,1-10.59-2.36A21.31,21.31,0,0,1,163,118.39a29.09,29.09,0,0,1,0-8.23,21.33,21.33,0,0,1,7.65-13.53,12.9,12.9,0,0,1,10.59-2.35A16.63,16.63,0,0,1,193.6,106Z" transform="translate(0 0)"/><path d="M241.64,126.63a39.28,39.28,0,0,0,17.06,6.47,31.3,31.3,0,0,0,11.77-.59,6,6,0,0,0,3.53-2.35,4.14,4.14,0,0,0-2.36-6.47l-24.7-5.88a20.05,20.05,0,0,1-1.76-37.65,41.92,41.92,0,0,1,12.94-2.94,52,52,0,0,1,35.29,9.41l-10,14.7a39.56,39.56,0,0,0-24.71-5.88,14.59,14.59,0,0,0-5.29,1.18,3.56,3.56,0,0,0,.59,6.47c.58.22,1.17.42,1.76.59L278.7,109a20.72,20.72,0,0,1,10,34.12,27,27,0,0,1-16.47,7.65,77.82,77.82,0,0,1-19.41,0,43.65,43.65,0,0,1-21.18-8.83l10-15.29ZM316.25,96v42.35a11.85,11.85,0,0,0,12.36,12.36h12.94V132.51h-2.94a3.86,3.86,0,0,1-4.12-4.12V96h9.12V77.81h-9.12V50.75l-18.24,8.82V77.81H308.9V96Zm109,26.47V104.28H361.1v18.23h64.12M151.84,265.1a33.78,33.78,0,0,1-20.59,18.23,30,30,0,0,1-14.11,0A29.4,29.4,0,0,1,105.37,278v31.77H87.14v-100h18.23v5.29a25.87,25.87,0,0,1,11.77-5.29,30.77,30.77,0,0,1,17,1.17A35,35,0,0,1,151.84,228a52.89,52.89,0,0,1,0,37.06Z" transform="translate(0 0)"/><path class="a" d="M105.37,254.51a16.66,16.66,0,0,0,12.35,11.77,12.91,12.91,0,0,0,10.59-2.36A21.31,21.31,0,0,0,136,250.39a29.09,29.09,0,0,0,0-8.23,21.33,21.33,0,0,0-7.65-13.53,12.94,12.94,0,0,0-10.59-2.36A16.67,16.67,0,0,0,105.37,238Z" transform="translate(0 0)"/><path d="M176.54,282.75h18.24v-100H176.54Zm107.65-72.94H266v5.29a25.83,25.83,0,0,0-11.76-5.29A30.8,30.8,0,0,0,237.13,211,35,35,0,0,0,219.48,228a52.89,52.89,0,0,0,0,37.06,33.78,33.78,0,0,0,20.59,18.23,30.09,30.09,0,0,0,14.12,0A29.43,29.43,0,0,0,266,278v4.71h18.24Z" transform="translate(0 0)"/><path class="a" d="M266,254.51a16.66,16.66,0,0,1-12.35,11.77A12.91,12.91,0,0,1,243,263.92a21.31,21.31,0,0,1-7.65-13.53,29.09,29.09,0,0,1,0-8.23A21.33,21.33,0,0,1,243,228.63a13,13,0,0,1,10.59-2.36A16.67,16.67,0,0,1,266,238Z" transform="translate(0 0)"/><path d="M309.41,228v42.35a11.84,11.84,0,0,0,12.35,12.36H334.7V264.51h-2.94a3.85,3.85,0,0,1-4.11-4.11V228h9.12V209.81h-9.12V182.75l-18.24,8.82v18.24h-7.35V228Zm54.07,30.59a39.16,39.16,0,0,0,17.06,6.47,31.3,31.3,0,0,0,11.77-.59,6.08,6.08,0,0,0,3.53-2.35,4.14,4.14,0,0,0-2.35-6.47l-24.71-5.88A20,20,0,0,1,367,212.16,42.27,42.27,0,0,1,380,209.22a52,52,0,0,1,35.29,9.41l-10,14.7a39.5,39.5,0,0,0-24.71-5.88,14.59,14.59,0,0,0-5.29,1.18,3.56,3.56,0,0,0,.59,6.47c.58.22,1.17.42,1.76.59L400.55,241a20.72,20.72,0,0,1,10,34.12,27,27,0,0,1-16.47,7.65,77.82,77.82,0,0,1-19.41,0,43.65,43.65,0,0,1-21.18-8.83l10-15.29Z" transform="translate(0 0)"/><path class="b" d="M250,681.25a125,125,0,1,1,125-125,125,125,0,0,1-125,125Z" transform="translate(0 0)"/><path class="c" d="M250,652.08a95.83,95.83,0,1,1,95.83-95.83A95.82,95.82,0,0,1,250,652.08Z" transform="translate(0 0)"/><path class="d" d="M341.48,634.47l-13.26,13.26L158.52,478l13.26-13.26Z" transform="translate(0 0)"/><path class="d" d="M158.52,634.47l13.26,13.26L341.48,478l-13.26-13.26Z" transform="translate(0 0)"/></svg>