<svg xmlns="http://www.w3.org/2000/svg" viewBox="0 0 500 750"><defs><style>.a{fill:#ffce00;}.b,.d{fill:#dc0032;}.c{fill:#0c479d;}.d{isolation:isolate;}</style></defs><title>C42-1 korkortonline.se</title><path class="a" d="M0,0H500V750H0Z" transform="translate(0 0)"/><path class="b" d="M29.16,0A29.12,29.12,0,0,0,0,29.16V720.84A29.12,29.12,0,0,0,29.16,750H470.84A29.12,29.12,0,0,0,500,720.84V29.16A29.12,29.12,0,0,0,470.84,0Z" transform="translate(0 0)"/><path class="a" d="M17,716.66A16.32,16.32,0,0,0,33.34,733H466.66A16.32,16.32,0,0,0,483,716.66V33.34A16.32,16.32,0,0,0,466.66,17H33.34A16.32,16.32,0,0,0,17,33.34Z" transform="translate(0 0)"/><path class="b" d="M250,681.25a125,125,0,1,1,125-125,125,125,0,0,1-125,125Z" transform="translate(0 0)"/><path class="c" d="M250,652.08a95.83,95.83,0,1,1,95.83-95.83A95.82,95.82,0,0,1,250,652.08Z" transform="translate(0 0)"/><path class="d" d="M341.48,634.47l-13.26,13.26L158.52,478l13.26-13.26Z" transform="translate(0 0)"/><path d="M151.84,265.1a33.83,33.83,0,0,1-20.59,18.24,30.35,30.35,0,0,1-14.12,0,29.58,29.58,0,0,1-11.76-5.3v31.77H87.13v-100h18.24v5.29a26,26,0,0,1,11.76-5.29A30.8,30.8,0,0,1,134.19,211,35,35,0,0,1,151.84,228,52.78,52.78,0,0,1,151.84,265.1Z" transform="translate(0 0)"/><path class="a" d="M105.37,254.51a16.66,16.66,0,0,0,12.35,11.77,12.87,12.87,0,0,0,10.59-2.36A21.26,21.26,0,0,0,136,250.4a29.16,29.16,0,0,0,0-8.24,21.31,21.31,0,0,0-7.65-13.53,12.9,12.9,0,0,0-10.59-2.35A16.64,16.64,0,0,0,105.37,238Z" transform="translate(0 0)"/><path d="M176.54,282.75h18.24v-100H176.54Zm107.65-72.94H266v5.29a26,26,0,0,0-11.76-5.29A30.8,30.8,0,0,0,237.13,211,35,35,0,0,0,219.48,228a52.89,52.89,0,0,0,0,37.06,33.83,33.83,0,0,0,20.59,18.24,30.35,30.35,0,0,0,14.12,0A29.58,29.58,0,0,0,266,278v4.71h18.24V209.81Z" transform="translate(0 0)"/><path class="a" d="M266,254.51a16.64,16.64,0,0,1-12.35,11.77A12.88,12.88,0,0,1,243,263.92a21.31,21.31,0,0,1-7.65-13.52,29.16,29.16,0,0,1,0-8.24A21.36,21.36,0,0,1,243,228.63a12.91,12.91,0,0,1,10.59-2.35A16.63,16.63,0,0,1,266,238Z" transform="translate(0 0)"/><path d="M309.41,228V270.4a11.84,11.84,0,0,0,12.36,12.35h12.94V264.51h-2.94a3.86,3.86,0,0,1-4.12-4.11V228h9.11V209.81h-9.11V182.75l-18.24,8.82v18.24h-7.35V228ZM124.13,50.75l-31.77,100H65.3l-31.76-100H52.67l26.16,82.36L105,50.75ZM155,47.51A10.89,10.89,0,1,1,144.12,58.4,10.89,10.89,0,0,1,155,47.51Zm38.83,0A10.89,10.89,0,1,1,183,58.4,10.88,10.88,0,0,1,193.83,47.51Zm13.53,30.3H189.12V83.1a26,26,0,0,0-11.76-5.29A30.8,30.8,0,0,0,160.3,79,35,35,0,0,0,142.65,96a52.89,52.89,0,0,0,0,37.06,33.83,33.83,0,0,0,20.59,18.24,30.35,30.35,0,0,0,14.12,0,29.58,29.58,0,0,0,11.76-5.3v4.71h18.24ZM363.48,258.63a39.16,39.16,0,0,0,17.06,6.47,31.3,31.3,0,0,0,11.77-.59,6.08,6.08,0,0,0,3.53-2.35,4.15,4.15,0,0,0-2.35-6.47l-24.71-5.88A20.05,20.05,0,0,1,367,212.16,42.47,42.47,0,0,1,380,209.22a52,52,0,0,1,35.3,9.41l-10,14.71a39.5,39.5,0,0,0-24.71-5.89,14.59,14.59,0,0,0-5.29,1.18,3.57,3.57,0,0,0,.59,6.47,18.17,18.17,0,0,0,1.76.59L400.54,241a20.72,20.72,0,0,1,10,34.12,27,27,0,0,1-16.47,7.65,77.82,77.82,0,0,1-19.41,0,43.73,43.73,0,0,1-21.18-8.82l10-15.3ZM230.88,150.75h18.24V106.63a11.47,11.47,0,0,1,22.94,0v44.12h18.23V102.81a26.41,26.41,0,0,0-41.17-21.47V77.81H230.88v72.94Z" transform="translate(0 0)"/><path class="a" d="M189.12,122.51a16.66,16.66,0,0,1-12.35,11.77,12.9,12.9,0,0,1-10.59-2.35,21.35,21.35,0,0,1-7.65-13.54,29.85,29.85,0,0,1,0-8.23,21.33,21.33,0,0,1,7.65-13.53,12.9,12.9,0,0,1,10.59-2.35A16.64,16.64,0,0,1,189.12,106Z" transform="translate(0 0)"/><path d="M378.53,77.81V50.75H360.29V83.1a26,26,0,0,0-11.76-5.29A30.8,30.8,0,0,0,331.47,79,35,35,0,0,0,313.82,96a52.89,52.89,0,0,0,0,37.06,33.83,33.83,0,0,0,20.59,18.24,30.35,30.35,0,0,0,14.12,0,29.58,29.58,0,0,0,11.76-5.3v4.71h18.24V77.81Zm84.7,44.7V104.28H399.11v18.23h64.12" transform="translate(0 0)"/><path class="a" d="M360.29,122.51a16.64,16.64,0,0,1-12.35,11.77,12.9,12.9,0,0,1-10.59-2.35,21.35,21.35,0,0,1-7.65-13.54,29.09,29.09,0,0,1,0-8.23,21.33,21.33,0,0,1,7.65-13.53,12.9,12.9,0,0,1,10.59-2.35A16.63,16.63,0,0,1,360.29,106v16.47Z" transform="translate(0 0)"/></svg>