<svg xmlns="http://www.w3.org/2000/svg" viewBox="0 0 1000 1000"><defs><style>.a{fill:#ffce00;}.b,.c{fill:#dc0032;}.c{isolation:isolate;}</style></defs><title>C44-1 korkortonline.se</title><path class="a" d="M500.2,50.2c248.53,0,450,201.47,450,450s-201.47,450-450,450-450-201.47-450-450,201.47-450,450-450Z" transform="translate(-0.2 -0.2)"/><path d="M202.53,213.57,820.45,755.42C930,591.49,923.94,283.66,771.51,158.57s-429.58-84.46-569,55Z" transform="translate(-0.2 -0.2)"/><path class="a" d="M859.09,642.27a405.07,405.07,0,0,1-39.38,74.83l-11.54-9.47-4.3-45.25q28.08-8.73,55.22-20.11Zm-508.47-495a283.34,283.34,0,0,0,479.7,158.1c-97.67-165.48-302.78-233.08-479.7-158.1Z" transform="translate(-0.2 -0.2)"/><path d="M759.39,757.65l-21.72-23.08H686.76l3.08-35.42L181.51,260.61c-23.64,35.37-41.23,101-52,142.13q14.32,24,30.89,46.62l-35.91,40q5.1,6.71,10.37,13.27l47.52-25.18a584.32,584.32,0,0,0,54.37,57l-27.41,46.27q6.32,5.58,12.77,11l41.69-34a583.11,583.11,0,0,0,64.44,45.31l-17.85,50.73q7.28,4.23,14.66,8.29l34.26-41.46a582.7,582.7,0,0,0,72.05,31.87l-7.61,53.23q8,2.75,16,5.27l25.51-47.34a582.7,582.7,0,0,0,76.88,17.2L545,734.57H179.86c6.14,7.95,20.39,15.64,27.12,23.08Z" transform="translate(-0.2 -0.2)"/><path class="a" d="M668.44,734.57H562.36l15.16-49.35a584.79,584.79,0,0,0,78.75,1.86l12.17,47.49Z" transform="translate(-0.2 -0.2)"/><path class="b" d="M500.2,1000.2c276.14,0,500-223.86,500-500S776.34.2,500.2.2.2,224.06.2,500.2s223.86,500,500,500Zm0-116.67c-211.71,0-383.33-171.62-383.33-383.33S288.49,116.86,500.2,116.86,883.53,288.49,883.53,500.2,711.91,883.53,500.2,883.53Z" transform="translate(-0.2 -0.2)"/><path class="c" d="M892.41,780,844.2,837.46,108.79,220.39,157,162.94Z" transform="translate(-0.2 -0.2)"/></svg>