<svg xmlns="http://www.w3.org/2000/svg" viewBox="0 0 1586.45 603.52"><defs><style>.a{fill:#ffce00;}.b{fill:#dc0032;}.c{fill:#000;}.d{fill:#0c479d;}</style></defs><title>C45-1 korkortonline.se</title><path class="a" d="M0,0V603.52H1586.45V0H0" transform="translate(0 0)"/><path class="b" d="M0,74.21V529.32a74.2,74.2,0,0,0,74.2,74.2H1512.25a74.19,74.19,0,0,0,74.2-74.2V74.21A74.2,74.2,0,0,0,1512.25,0H74.2A74.2,74.2,0,0,0,0,74.21" transform="translate(0 0)"/><path class="a" d="M37.1,74.21V529.32a37.1,37.1,0,0,0,37.1,37.1H1512.25a37.11,37.11,0,0,0,37.11-37.1V74.21a37.1,37.1,0,0,0-37.11-37.11H74.2A37.1,37.1,0,0,0,37.1,74.21" transform="translate(0 0)"/><path class="c" d="M885.18,355.59h158.59v-45.1H885.18Z" transform="translate(0 0)"/><path class="c" d="M1120.15,425.43v-176H1092.5V221.74l37.83-43.65h34.92V425.43h-45.1" transform="translate(0 0)"/><path class="c" d="M1409,291a50.77,50.77,0,0,1,14.54,14.55,78.12,78.12,0,0,1,1.46,80,87.8,87.8,0,0,1-56.75,39.28,147.24,147.24,0,0,1-55.28,0,87.8,87.8,0,0,1-56.75-39.28,78.12,78.12,0,0,1,1.46-80A50.68,50.68,0,0,1,1272.18,291a67.22,67.22,0,0,1-14.55-40.74,68.54,68.54,0,0,1,36.37-64,110.7,110.7,0,0,1,93.12,0,67,67,0,0,1,36.37,64A70.41,70.41,0,0,1,1409,291" transform="translate(0 0)"/><path class="c" d="M809.53,291a50.55,50.55,0,0,1,14.55,14.55,78.12,78.12,0,0,1,1.46,80,87.8,87.8,0,0,1-56.75,39.28,147.24,147.24,0,0,1-55.28,0,87.8,87.8,0,0,1-56.75-39.28,78.12,78.12,0,0,1,1.46-80A50.55,50.55,0,0,1,672.77,291a67.16,67.16,0,0,1-14.55-40.74,68.54,68.54,0,0,1,36.37-64,110.7,110.7,0,0,1,93.12,0,67,67,0,0,1,36.37,64A70.35,70.35,0,0,1,809.53,291" transform="translate(0 0)"/><path class="b" d="M531.79,301.76c0-102.45-83.06-185.51-185.51-185.51S160.77,199.31,160.77,301.76s83.06,185.51,185.51,185.51,185.51-83.06,185.51-185.51" transform="translate(0 0)"/><path class="a" d="M1323.1,315.77H1358a32.77,32.77,0,0,1,10.17,1.46,33.94,33.94,0,0,1,17.47,13.09,30.64,30.64,0,0,1,1.45,30.56,46.72,46.72,0,0,1-30.56,20.37,85.66,85.66,0,0,1-32,0A46.77,46.77,0,0,1,1294,360.88a30.61,30.61,0,0,1,1.46-30.56,33.84,33.84,0,0,1,17.46-13.09,30,30,0,0,1,10.18-1.46" transform="translate(0 0)"/><path class="a" d="M723.69,315.77h34.92a32.79,32.79,0,0,1,10.18,1.46,33.84,33.84,0,0,1,17.46,13.09,30.61,30.61,0,0,1,1.46,30.56,46.77,46.77,0,0,1-30.56,20.37,85.66,85.66,0,0,1-32,0,46.77,46.77,0,0,1-30.56-20.37,30.61,30.61,0,0,1,1.46-30.56,33.84,33.84,0,0,1,17.46-13.09,30,30,0,0,1,10.18-1.46" transform="translate(0 0)"/><path class="a" d="M722.24,269.21h36.37a20.71,20.71,0,0,0,21.82-20.37,24.3,24.3,0,0,0-13.09-23.27,62.27,62.27,0,0,0-52.38,0,24.3,24.3,0,0,0-13.09,23.27,20,20,0,0,0,20.37,20.37" transform="translate(0 0)"/><path class="a" d="M1321.65,269.21H1358a20.7,20.7,0,0,0,21.81-20.37,24.28,24.28,0,0,0-13.09-23.27,62.27,62.27,0,0,0-52.38,0,24.3,24.3,0,0,0-13.09,23.27,20,20,0,0,0,20.37,20.37" transform="translate(0 0)"/><path class="d" d="M436.53,411.68,236.36,211.51A142.22,142.22,0,0,0,436.53,411.68" transform="translate(0 0)"/><path class="d" d="M456.2,392,256,191.84A142.22,142.22,0,0,1,456.2,392" transform="translate(0 0)"/></svg>