<svg xmlns="http://www.w3.org/2000/svg" viewBox="0 0 1000 1000"><defs><style>.a,.c{fill:#dc0032;}.b{fill:#ffce00;}.c{isolation:isolate;}</style></defs><title>C7-1 korkortonline.se</title><path class="a" d="M500.2.2c276.14,0,500,223.86,500,500s-223.86,500-500,500S.2,776.34.2,500.2,224.06.2,500.2.2Z" transform="translate(-0.2 -0.2)"/><path class="b" d="M500.2,116.87c211.71,0,383.33,171.62,383.33,383.33S711.91,883.54,500.2,883.54,116.87,711.91,116.87,500.2,288.49,116.87,500.2,116.87Z" transform="translate(-0.2 -0.2)"/><path d="M188.33,613.68a7.85,7.85,0,0,0,7.86,7.84h33.52a52.34,52.34,0,1,0,102.2,0H530.67a52.34,52.34,0,1,0,102.2,0h26a52.34,52.34,0,1,0,102.19,0h33.52A17.45,17.45,0,0,0,812.08,604l0-234.67a17.46,17.46,0,0,0-17.46-17.44l-403,0a17.45,17.45,0,0,0-17.45,17.45l0,132.59H355.82V442.68a14,14,0,0,0-14-14H250.26a34.89,34.89,0,0,0-32.68,22.68l-29.25,78.27v84Z" transform="translate(-0.2 -0.2)"/><path class="b" d="M243.58,463.62l-20.87,55.83H326.32V463.61Z" transform="translate(-0.2 -0.2)"/><path class="c" d="M194.17,128.52l61.43-43L806.23,871.88l-61.43,43Z" transform="translate(-0.2 -0.2)"/></svg>