<svg xmlns="http://www.w3.org/2000/svg" viewBox="0 0 1000 1000"><defs><style>.a,.c{fill:#dc0032;}.b{fill:#ffce00;}.c{isolation:isolate;}</style></defs><title>C8-1 korkortonline.se</title><path class="a" d="M500.2.2c276.14,0,500,223.86,500,500s-223.86,500-500,500S.2,776.34.2,500.2,224.06.2,500.2.2Z" transform="translate(-0.2 -0.2)"/><path class="b" d="M500.2,116.87c211.71,0,383.33,171.62,383.33,383.33S711.91,883.54,500.2,883.54,116.87,711.91,116.87,500.2,288.49,116.87,500.2,116.87Z" transform="translate(-0.2 -0.2)"/><path d="M400.63,667.19a85.11,85.11,0,1,0-85.11,85.1,85.11,85.11,0,0,0,85.11-85.1Z" transform="translate(-0.2 -0.2)"/><path class="b" d="M357.72,667.19a42.2,42.2,0,1,0-42.2,42.19,42.19,42.19,0,0,0,42.2-42.19Z" transform="translate(-0.2 -0.2)"/><path d="M347.71,667.19a32.19,32.19,0,1,0-32.19,32.18,32.19,32.19,0,0,0,32.19-32.18ZM512.34,261.14h68.6l17.77,184.93h-99.6l60.18,60.19A140.16,140.16,0,0,1,763.56,640.61h38.68a178.81,178.81,0,0,0-52.58-136.8L714.64,259a38.45,38.45,0,0,0-38.07-33H499.79A38.46,38.46,0,0,0,461.73,259l-19,130.77,21,21L481.9,287.43a30.77,30.77,0,0,1,30.44-26.29Z" transform="translate(-0.2 -0.2)"/><path class="b" d="M694.53,287.43l23.34,158.64h-91L609.14,261.14h55a30.77,30.77,0,0,1,30.44,26.29Z" transform="translate(-0.2 -0.2)"/><path d="M567.46,620.49A57.21,57.21,0,0,0,634,687l-66.52-66.52Z" transform="translate(-0.2 -0.2)"/><path d="M514.75,567.78,558,611a68.65,68.65,0,0,0,85.47,85.46l43.23,43.23A125.86,125.86,0,0,1,514.75,567.78Zm166.13,60.06a57.21,57.21,0,0,0-54.26-54.26l54.26,54.26Z" transform="translate(-0.2 -0.2)"/><path d="M570,516.93A125.86,125.86,0,0,1,737.53,684.5l-45.62-45.63a68.65,68.65,0,0,0-76.32-76.31L570,516.93ZM322.48,416V375.51l29,29V416H363l14.52,14.52v26.65l27,.32,99.83,99.82a140.23,140.23,0,0,0-20.38,83.38h-72.6a99.41,99.41,0,0,0-175.91-32.41V492a35.75,35.75,0,0,1,35.76-35.75h25.22V416.05h26.07Z" transform="translate(-0.2 -0.2)"/><path class="c" d="M134.27,187.31l53-53L866.13,813.09l-53,53Z" transform="translate(-0.2 -0.2)"/></svg>