<svg xmlns="http://www.w3.org/2000/svg" viewBox="0 0 898.59 1122.9"><defs><style>.a{fill:#fff;}.b{fill:none;stroke:#000;stroke-linecap:round;stroke-linejoin:round;stroke-width:1.33px;}.c{fill:#000;}.d{fill:#0c479d;}.e{fill:#e97300;}</style></defs><title>D12-1 korkortonline.se</title><path class="a" d="M.67.67H897.92V1122.24H.67V.67" transform="translate(0 -0.01)"/><path class="b" d="M.67.67H897.92V1122.24H.67Z" transform="translate(0 -0.01)"/><path class="c" d="M72.45.67H826.14a71.78,71.78,0,0,1,71.78,71.78v978a71.78,71.78,0,0,1-71.78,71.78H72.45A71.78,71.78,0,0,1,.67,1050.46v-978A71.78,71.78,0,0,1,72.45.67" transform="translate(0 -0.01)"/><path class="a" d="M72.45,36.56H826.14A35.89,35.89,0,0,1,862,72.45v978a35.89,35.89,0,0,1-35.89,35.89H72.45a35.89,35.89,0,0,1-35.89-35.89v-978A35.89,35.89,0,0,1,72.45,36.56" transform="translate(0 -0.01)"/><path class="d" d="M531.44,915.12H497V821.6a55.27,55.27,0,0,0-55.27-55.27H396.85v68.79l-86-86,86-86v68.78h44.92a89.67,89.67,0,0,1,89.67,89.67Zm-82.77-335c-118.1,0-213.84,95.74-213.84,213.85s95.74,213.84,213.84,213.84S662.52,912.1,662.52,794,566.77,580.15,448.67,580.15" transform="translate(0 -0.01)"/><path class="c" d="M469.23,440.33h39.88v22.43a7.48,7.48,0,0,0,7.48,7.48h14.95a7.48,7.48,0,0,0,7.48-7.48V388a7.48,7.48,0,0,0-7.48-7.48H516.59a7.48,7.48,0,0,0-7.48,7.48v22.43H469.23a24.9,24.9,0,0,0-39.87,0H389.48V388a7.48,7.48,0,0,0-7.48-7.48H367.05a7.48,7.48,0,0,0-7.48,7.48v74.77a7.48,7.48,0,0,0,7.48,7.48H382a7.48,7.48,0,0,0,7.48-7.48V440.33h39.88a24.92,24.92,0,0,0,39.87,0" transform="translate(0 -0.01)"/><path class="c" d="M556.22,470.24a7.48,7.48,0,0,1-7.48-7.48V388a7.48,7.48,0,0,1,7.48-7.48h14.95a7.48,7.48,0,0,1,7.48,7.48v74.77a7.48,7.48,0,0,1-7.48,7.48H556.22" transform="translate(0 -0.01)"/><path class="c" d="M319.94,462.76V388a7.48,7.48,0,0,1,7.48-7.48h14.95a7.48,7.48,0,0,1,7.48,7.48v74.77a7.48,7.48,0,0,1-7.48,7.48H327.42a7.48,7.48,0,0,1-7.48-7.48" transform="translate(0 -0.01)"/><path class="c" d="M310.22,365.56H588.37V148.72A37.39,37.39,0,0,0,551,111.33H347.61a37.39,37.39,0,0,0-37.39,37.39V365.56" transform="translate(0 -0.01)"/><path class="e" d="M359.57,305.74H539V160.68H359.57V305.74" transform="translate(0 -0.01)"/></svg>