<svg xmlns="http://www.w3.org/2000/svg" viewBox="0 0 1010 1010"><defs><style>.a{fill:#0c479d;}.b{fill:#fff;}</style></defs><title>D6-1 korkortonline.se</title><path class="a" d="M505.2.2C226.3.2.2,226.3.2,505.2s226.1,505,505,505,505-226.1,505-505S784.1.2,505.2.2Z" transform="translate(-0.2 -0.2)"/><path class="b" d="M505.2,5.2c-276.14,0-500,223.86-500,500s223.86,500,500,500,500-223.86,500-500-223.86-500-500-500Z" transform="translate(-0.2 -0.2)"/><path class="a" d="M505.2,28.53c263.26,0,476.67,213.41,476.67,476.67S768.46,981.87,505.2,981.87,28.53,768.46,28.53,505.2,241.94,28.53,505.2,28.53Z" transform="translate(-0.2 -0.2)"/><path class="b" d="M543.38,755.51l12.35-.81a65.84,65.84,0,0,0,131-4.5l2.88.21a68.73,68.73,0,0,0-99.33-65.85L571.47,652l7-15.66,19.07-8.69a6.4,6.4,0,0,0-2.62-12.22q-23.67-.8-47.36-.71a4.64,4.64,0,0,0-2.35,8.75Q557.6,630.3,570.6,636l-6.84,15.35H444.64l8.89-22a14.63,14.63,0,0,1,16.12-21.71l.06,0,12.89,3.28,3.54.9,1.8-7.09-3.54-.9-12.94-3.29h0a21.93,21.93,0,0,0-25.88,29L422.23,687.3a68.81,68.81,0,0,0-34.76-10v2.89a65.84,65.84,0,1,0,52.22,104.67l2.34,1.69a68.72,68.72,0,0,0-13.62-95l4-9.89,72.2,62.77a20.48,20.48,0,0,0,20.69,29.27l4.28,14h-4.49V795h18.64V787.7h-6.5l-4.93-16.11a20.43,20.43,0,0,0,11.09-16.08Z" transform="translate(-0.2 -0.2)"/><path class="a" d="M411.23,734a25.61,25.61,0,0,1-24.71,15.84,3.65,3.65,0,1,1,0-7.29A18.27,18.27,0,0,0,404,732.44l13-32.28a55.07,55.07,0,1,0,6,4.63L411.23,734Z" transform="translate(-0.2 -0.2)"/><path class="a" d="M621.21,738.17a7.86,7.86,0,1,1-6.43,12.66L566.49,754a55.09,55.09,0,1,0,30.6-57.61l24.12,41.78Z" transform="translate(-0.2 -0.2)"/><path class="a" d="M614.64,741.41,590.73,700a55.09,55.09,0,0,0-24.82,46.71l47.62-3.12,1.11-2.18Z" transform="translate(-0.2 -0.2)"/><path class="a" d="M567.79,660.27l16.11,27.9a68.78,68.78,0,0,0-31.61,59.43l-9.44.62A20.52,20.52,0,0,0,534,736.08l32.94-74,.81-1.82Z" transform="translate(-0.2 -0.2)"/><path class="a" d="M522.15,719.71v-7.32H503.5v7.32h5.28l4.74,15.5a20.11,20.11,0,0,0-4.59,3.28l-73.64-64,6.39-15.83H560.5l-33.23,74.66a20.54,20.54,0,0,0-6.77-.29l-4.07-13.32h5.72Z" transform="translate(-0.2 -0.2)"/><path class="b" d="M397.57,356.44a31.17,31.17,0,0,1,1.1-5.16q.57-3.64,1.11-7.29.63-5.55,1.07-11.11.24-3.42.57-6.84,2.64-12.81,5.74-25.5,4.74-17.24,9.17-34.56,3.29-10.83,6.85-21.58a26.44,26.44,0,0,1,4.26-9,24.23,24.23,0,0,1,7.72-7.36,141.34,141.34,0,0,1,20.36-7.92,17.37,17.37,0,0,0,4-1.5,19.11,19.11,0,0,0,5-4.16,5.83,5.83,0,0,0,1-2c0-.18.08-.36.11-.54s.05-.27.07-.4a37.72,37.72,0,0,0,.65-8.48c0-1.78,0-3.55,0-5.33a2.32,2.32,0,0,0-.36-1.4,48.5,48.5,0,0,1-5.92-18.74,51.92,51.92,0,0,1,1.4-16.05q.66-2.79,1.55-5.51a15.78,15.78,0,0,1,3-4.89,20.8,20.8,0,0,1,7.57-5.9,27.78,27.78,0,0,1,17.32-3,21.49,21.49,0,0,1,9.8,4,17.5,17.5,0,0,1,2.19,2,31.72,31.72,0,0,1,4.58,6.57c.14.33.27.66.39,1a9.85,9.85,0,0,1,.48,3.41c-.08.63-.17,1.26-.26,1.89a44.6,44.6,0,0,1-1.69,6.42,55.89,55.89,0,0,1-.37,12.53q-.37,3-1,6.05a15.76,15.76,0,0,1-1.16,3.62,19.51,19.51,0,0,1-.92,4.07,4.78,4.78,0,0,1-.73,1.42,18,18,0,0,1-3.83,3.51c-.94.6-1.9,1.18-2.86,1.75a6.79,6.79,0,0,1-1.79.62A81.74,81.74,0,0,0,493,216a6.79,6.79,0,0,0,2,4.06,80.07,80.07,0,0,0,15.25,9,14,14,0,0,1,5.61,3.81,29,29,0,0,1,4.45,7.29A91,91,0,0,1,524.17,258q2.55,18,4.66,36.07.67,6.26,1.14,12.52a35.35,35.35,0,0,0,1.11,6.13,123.47,123.47,0,0,1,2.84,16l2.14,4.71c1.43,3.41,2.8,6.83,4.1,10.29a11,11,0,0,1,.41,2.35,19.49,19.49,0,0,1-.28,3.49c0,.14,0,.28-.07.42-.4,1.5-.79,3-1.18,4.49a86.64,86.64,0,0,0,2.08,8.7,4.07,4.07,0,0,0,1.78,2.38A87.1,87.1,0,0,0,558.58,371a22.4,22.4,0,0,0,6.73-.57,12.43,12.43,0,0,0,1.71-3.58,3.31,3.31,0,0,0-.9-2.46L563.88,363a10.25,10.25,0,0,1-4.25-5.9,8.45,8.45,0,0,1,0-5.44c.33-1.22.63-2.46.92-3.7a3,3,0,0,0,0-1.61,3.41,3.41,0,0,0-.37-.74l-.06-.09a8.47,8.47,0,0,1-.92-2.22,14.88,14.88,0,0,1,1.33-9.64,12,12,0,0,1,5.67-6.34,22,22,0,0,1,17.35-2.09,18.08,18.08,0,0,1,7.51,3.51,5.79,5.79,0,0,1,1.12,1.2,17.78,17.78,0,0,1,3,9.28A45.47,45.47,0,0,1,593,351.39a73,73,0,0,1-7.91,14.53l-1,1.25a2.34,2.34,0,0,0-.41,1.79,33.76,33.76,0,0,0,.48,3.35,1.51,1.51,0,0,0,.52,1l.19.17q.38.33.72.69A45.56,45.56,0,0,1,593.18,386a42.12,42.12,0,0,1,3.6,9q6.44,19.13,12.62,38.32c.36.74.68,1.5,1,2.27a23.46,23.46,0,0,1,1.25,3.17c.21,1.28.39,2.56.56,3.84a1.91,1.91,0,0,1-.16.78,4.19,4.19,0,0,1-1.89,2,6,6,0,0,1-3.62-.1,5.71,5.71,0,0,1-1.9-1.36,2.68,2.68,0,0,1-.66-1,20.94,20.94,0,0,1-.87-3.51,21.35,21.35,0,0,1,0-3.75l-5.1-9.28L590.22,412a112.19,112.19,0,0,0,3.51,31.76,44,44,0,0,1-8.13,5.6l1.69,18.31,1.45,15.71a3.29,3.29,0,0,1,1.3-.5,3.63,3.63,0,0,1,4.13,2.16,2.23,2.23,0,0,1,.13,1,.39.39,0,0,1-.06.18,64.45,64.45,0,0,1-5.56,7.89,5,5,0,0,1-2,1.59,9.91,9.91,0,0,1-2.69,1,1.87,1.87,0,0,1-1.2-.26.81.81,0,0,1-.27-.39l-13-41.88a39.06,39.06,0,0,1-6.21.24l-3.2,44.73a6.64,6.64,0,0,1-2.57,4.43l-.14.12a4.66,4.66,0,0,1-1.87.94,15.4,15.4,0,0,1-3.59,0A10.16,10.16,0,0,1,550,504q-3.78-2.69-7.61-5.31a2.68,2.68,0,0,1-.65-3.1,4.94,4.94,0,0,1,2.91-3.14,5.61,5.61,0,0,1,3.24.28,3.58,3.58,0,0,1,1.51,1.24.27.27,0,0,0,.26,0,.29.29,0,0,0,.11-.24L544,451a48.93,48.93,0,0,1-11.85-6q7.26-17,12.93-34.65a70.29,70.29,0,0,0,1.81-8c.39-2.22.76-4.45,1.11-6.67a15.26,15.26,0,0,0-1.47-8.44,3.37,3.37,0,0,0-.19-.32,57,57,0,0,0-4.94-6.1q-2.46-2.67-5-5.23a21.14,21.14,0,0,1-3.06-4.22c-.62-1.25-1.19-2.52-1.7-3.81a15.78,15.78,0,0,1-.36-3.06c.09-3.74.25-7.48.5-11.21q-1.46-4.79-3.18-9.49a40.59,40.59,0,0,0,0-4.68,58.5,58.5,0,0,0-4-5.78q-2.26-3-4.35-6.21a94.09,94.09,0,0,1-6.13-13.2,36.26,36.26,0,0,1-2-6.83A43.7,43.7,0,0,0,511,299q-1.92-7.56-4.55-14.91l-.55,72-7.2,3.39,2.39,43.65-7.85,52.12a5,5,0,0,1,7.13.37,7.09,7.09,0,0,1,.78,6.63,18.73,18.73,0,0,1-4,6.49,141.27,141.27,0,0,1-9.67,10.51,18.55,18.55,0,0,1-5.69,3.94,13,13,0,0,1-3.61.63,2.21,2.21,0,0,1-1.66-1.12,18.7,18.7,0,0,1-1.86-3.88,22.74,22.74,0,0,1-.52-5.33q0-3.33-.09-6.66.63-7.79,1.36-15.58.56-11.36.59-22.73-.24-9.84-1.19-19.64-2.62-23.49-5.16-47l-4,.14q-4.49,64.5-9.47,129a42.07,42.07,0,0,1-3.92,11,5.8,5.8,0,0,1-5.13,3.23,8.76,8.76,0,0,1-7.9-3.38,75.78,75.78,0,0,1-11.57-22.5,5.73,5.73,0,0,1,.27-4.15,10.8,10.8,0,0,1,2.92-3.35,4,4,0,0,1,3.06-.78,18,18,0,0,1,3.08,1.19l-4.31-115.82-4.8-2.2L430,329q2.81-26.13,5.74-52.25-2,5.23-4.26,10.38-1.79,4.53-3.84,9-4.28,10.2-8,20.6-2.5,8.07-4.95,16.18-2.12,7.21-4,14.52a43.83,43.83,0,0,1,.52,7.59,39.28,39.28,0,0,1-1.45,8.68,11.88,11.88,0,0,1-1.31,2.88,16,16,0,0,1-3.06,3.3,1.31,1.31,0,0,1-.43.24,4.73,4.73,0,0,1-3.45-.23,7,7,0,0,1-4.75-6.83,34.26,34.26,0,0,1,.83-6.62Z" transform="translate(-0.2 -0.2)"/></svg>