<svg xmlns="http://www.w3.org/2000/svg" viewBox="0 0 1010 1010"><defs><style>.a{fill:#0c479d;}.b{fill:#fff;}</style></defs><title>D8-1 korkortonline.se</title><path class="a" d="M505.2.2C226.3.2.2,226.3.2,505.2s226.1,505,505,505,505-226.1,505-505S784.1.2,505.2.2Z" transform="translate(-0.2 -0.2)"/><path class="b" d="M505.2,5.2c-276.14,0-500,223.86-500,500s223.86,500,500,500,500-223.86,500-500-223.86-500-500-500Z" transform="translate(-0.2 -0.2)"/><path class="a" d="M505.2,28.53c263.26,0,476.67,213.41,476.67,476.67S768.46,981.87,505.2,981.87,28.53,768.46,28.53,505.2,241.94,28.53,505.2,28.53Z" transform="translate(-0.2 -0.2)"/><path class="b" d="M288.11,666.81a11.91,11.91,0,0,1-5.95-8.42q-3.59-28.78-9.33-57.24a9.62,9.62,0,0,1,7.86-12.61,245.38,245.38,0,0,0,32.46-6.28,148.72,148.72,0,0,0,51.19-10.78,61,61,0,0,0,16-8.29,86.1,86.1,0,0,0,12.6,8.83,8.9,8.9,0,0,1,2.07,1.65,55.77,55.77,0,0,1,8.4,12.24q6.19,12.27,13.13,24.13a547,547,0,0,1,56.21,113.85,23.92,23.92,0,0,1-2.35,22,108.31,108.31,0,0,0-22.49,37.15l37.26.27.81-10a31.48,31.48,0,0,1,9.74-23.26A13.78,13.78,0,0,0,502,732.72q-5.31-10.11-10.08-20.48a113.91,113.91,0,0,1-10-36.54,329.63,329.63,0,0,0-9.27-35.51q-5.61-22.26-9.72-44.86-2.25-15.33-5.59-30.48a411.87,411.87,0,0,0,161.09-5.7q5.42,22.33,11.15,44.6a300.34,300.34,0,0,0,12.77,37,19.77,19.77,0,0,1,.14,14.72,155.8,155.8,0,0,1-14.07,27.59q-12,18-25.43,34.93a204,204,0,0,0-21.13,30.37,152,152,0,0,0-21.37,35l39.46.48,1.55-16.79.51-4.3a4.71,4.71,0,0,1,.93-2.3,5.84,5.84,0,0,1,2.79-2l.81-.23,0,0a7.85,7.85,0,0,0,2-.94,16,16,0,0,0,6.54-8.34c.3-.78.59-1.55.88-2.34A188,188,0,0,1,635.4,711a227.47,227.47,0,0,1,51.12-51.35,11.27,11.27,0,0,0,4.86-11.31q-1.87-11.14-4.14-22.23a81.22,81.22,0,0,1-1.49-8.89A60,60,0,0,1,713.08,562a172.56,172.56,0,0,0,18.6,23.24,141.19,141.19,0,0,0,23.9,19.86,314.81,314.81,0,0,1,34.14,29.45q4.89,4.78,9.56,9.77a79.25,79.25,0,0,1,10.17,17.14,142.07,142.07,0,0,1,9.73,25.09l4.7,15.27q4.82,15.23,8.92,30.67a27,27,0,0,1-3.35,21.26,115.71,115.71,0,0,0-16.17,29.15l36.5.4.41-19.43a6.07,6.07,0,0,1,2.95-6.11,19,19,0,0,0,6.54-5.7,10.54,10.54,0,0,0,1.23-9.05Q850.79,710,841.46,676.65l-6.13-20.57a78.44,78.44,0,0,1-2.81-32.34,14.38,14.38,0,0,0-3.2-11.53q-8.51-10.46-16.71-21.12a110.52,110.52,0,0,1-18.72-47.78,212.47,212.47,0,0,1-1-34.67,199.18,199.18,0,0,0-3.11-50.13,58.44,58.44,0,0,0-1.58-6,209,209,0,0,0-24.78-47.83,45.17,45.17,0,0,1,25.89,6.56,23.14,23.14,0,0,1,3.11,2.27,31.9,31.9,0,0,1,6.22,7.53,139.25,139.25,0,0,1,15.13,45.09,673.82,673.82,0,0,1,6.13,101l56.55-.91q-1.9-43.08-7.62-85.86a119.7,119.7,0,0,0-22.41-60.46,72.06,72.06,0,0,0-25.68-23.66,92.59,92.59,0,0,0-68.38-5Q730.6,384.28,708.67,378a131.59,131.59,0,0,0-68.87-1.32,459.52,459.52,0,0,1-55.22,8.56q-6.44-26.7-13.5-53.26-2-5.66-4.22-11.23A73,73,0,0,1,560.62,300q-1.62-10.82-2.46-21.72A138.25,138.25,0,0,0,552.51,254a204.61,204.61,0,0,0-13.92-35.75,33.22,33.22,0,0,1-4.38-25.57,100,100,0,0,0,5.11-29.2,64.63,64.63,0,0,0-5.3-23.72,25.42,25.42,0,0,0-5.78-7.52,34.55,34.55,0,0,0-25.11-5.52A73,73,0,0,0,488.85,130a18.28,18.28,0,0,0-13.46,18.09,30.81,30.81,0,0,0,1.28,10.58,58.89,58.89,0,0,0,1,6.48,30.15,30.15,0,0,0-.87,14.73,60.22,60.22,0,0,0,5.3,20.79,10,10,0,0,0,7.1,3.73,43.28,43.28,0,0,0,8.95.52,38,38,0,0,1-2.51,19.74,55.55,55.55,0,0,0-20,33q-7.14,41.81-11.09,84.06a225.23,225.23,0,0,0-39.91,21.68,257.46,257.46,0,0,1-49.23-39.83,253.08,253.08,0,0,0-53.33-42.35,124.74,124.74,0,0,0-112.91-9.85,186.43,186.43,0,0,0-57.75,1.06q15.73,10.14,30.92,21.11a309.08,309.08,0,0,1,5.52,32.84q.8,21.54,3.17,43a465.13,465.13,0,0,0,9.11,62.25,27.8,27.8,0,0,0,1.95,5.7A26,26,0,0,0,239.7,445a27.42,27.42,0,0,1,9.06-3.76h.05a3.57,3.57,0,0,0,1.16-.48,10.29,10.29,0,0,0,4.21-8.78,38.52,38.52,0,0,1-.77-11.28,58.54,58.54,0,0,1,3.75-24.89,179.11,179.11,0,0,0,5.17-24.7,190,190,0,0,0,17.14-10.24,277.26,277.26,0,0,1,28.85,58.54,193.53,193.53,0,0,1,11.2,32.25,179.41,179.41,0,0,1,3.79,25A106.17,106.17,0,0,0,336.85,526a261.5,261.5,0,0,0-72.19,23,96.87,96.87,0,0,0-24.2,15.52,19.71,19.71,0,0,0-3.68,17.31A572.63,572.63,0,0,0,262,663a203.79,203.79,0,0,0,8.7,21.6A71.29,71.29,0,0,0,324.14,717l-.07-33.1-18.28.12a25.34,25.34,0,0,0-17.68-17.17Z" transform="translate(-0.2 -0.2)"/></svg>