<svg xmlns="http://www.w3.org/2000/svg" viewBox="0 0 1010 1010"><defs><style>.a{fill:#0c479d;}.b{fill:#fff;}</style></defs><title>D9-1 korkortonline.se</title><path class="a" d="M505.2.2C226.3.2.2,226.3.2,505.2s226.1,505,505,505,505-226.1,505-505S784.1.2,505.2.2Z" transform="translate(-0.2 -0.2)"/><path class="b" d="M505.2,5.2c-276.14,0-500,223.86-500,500s223.86,500,500,500,500-223.86,500-500-223.86-500-500-500Z" transform="translate(-0.2 -0.2)"/><path class="a" d="M505.2,28.53c263.26,0,476.67,213.41,476.67,476.67S768.46,981.87,505.2,981.87,28.53,768.46,28.53,505.2,241.94,28.53,505.2,28.53Z" transform="translate(-0.2 -0.2)"/><path class="b" d="M135.55,596.19a20.09,20.09,0,0,1,33-18.74c.58.59,1.13,1.2,1.67,1.81a148.15,148.15,0,0,0,93.07,59.14,99.29,99.29,0,0,0,35.4-3.37,24.56,24.56,0,0,0,12.65-10.12l23.26-32.4a341.58,341.58,0,0,1-88.18-39.25,168.77,168.77,0,0,1-39.62-34.56A209,209,0,0,1,377.63,409.39q43.9-80.88,87.1-162.14a86,86,0,0,1,9.71,68.89l-44.8,131,64.47-94.49A31.69,31.69,0,0,1,520.37,340a16.87,16.87,0,0,1,15.18-11,110.25,110.25,0,0,1,43,4.21l29.5-72.5a8.56,8.56,0,0,0-8.42-11,135.2,135.2,0,0,1-19.4-.85,9.15,9.15,0,0,1-6.74-6.74,131,131,0,0,1-4.57-60.26,23.48,23.48,0,0,1,1.79-6,31,31,0,0,1,29.16-18.37,61.78,61.78,0,0,1,7.67.82,36.59,36.59,0,0,1,30,31.58,150.33,150.33,0,0,0,22.76,70.81,177.08,177.08,0,0,1,27.82,59q8.67,24.42,19.39,48.05a100.37,100.37,0,0,1-1.69,86h86.83a33.73,33.73,0,0,1,33.72,33.72V591.19a48.28,48.28,0,0,1,29.51,85.14,71.88,71.88,0,0,1-29.14,13.14,79.36,79.36,0,0,1-12.69,1.2H604.13a46.29,46.29,0,0,1-6.12-.3,63.71,63.71,0,0,1-36-17.87,22.2,22.2,0,0,1-3.85-4.94,51.47,51.47,0,0,1,8.57-63.93l-112.07,1-8.86.29-22.84.56a343,343,0,0,1-53.62-5.06l-20.06,32a188,188,0,0,1,87,18.24,47.76,47.76,0,0,1,7.81,4.65,68,68,0,0,1,17,18.77,6.09,6.09,0,0,1,.52,1.3,12.51,12.51,0,0,1-7.65,14.45,7.35,7.35,0,0,1-1.95.49,23.08,23.08,0,0,1-4.07.27H316.36a256.92,256.92,0,0,1-133.19-36.25,95.52,95.52,0,0,1-41.78-43.32,91.43,91.43,0,0,1-5.46-13.33c-.14-.52-.27-1-.38-1.58Z" transform="translate(-0.2 -0.2)"/><path class="a" d="M618.16,387.19H560.31A25.29,25.29,0,0,0,539,398.92L475.4,499.05a107.79,107.79,0,0,1-35.69-32.3L503,374.06a33.71,33.71,0,0,1,38.7-12.92l39.41,13.4a23.42,23.42,0,0,0,28.66-11Z" transform="translate(-0.2 -0.2)"/><path class="a" d="M522.12,516a446.05,446.05,0,0,0,36.36-62.67,22.52,22.52,0,0,1,3.73-6.08,12.32,12.32,0,0,1,9.81-3.31q1.47.27,2.91.63,23.45,5.37,47.19,9.23h-3.84a23.08,23.08,0,0,0-23.08,23.08v43.73A188.58,188.58,0,0,1,522.12,516Z" transform="translate(-0.2 -0.2)"/></svg>