<svg xmlns="http://www.w3.org/2000/svg" viewBox="0 0 341.16 454.54"><defs><style>.a,.c{fill:#007a61;}.a{stroke:#007a61;}.b{fill:#fff;}</style></defs><title>E1-1 korkortonline.se</title><rect class="a" x="0.5" y="0.5" width="340.16" height="453.54"/><rect class="b" x="0.5" y="0.5" width="340.16" height="453.54" rx="19.84"/><path class="c" d="M20.34,9H320.81a11.34,11.34,0,0,1,11.34,11.34V434.2a11.34,11.34,0,0,1-11.34,11.34H20.34A11.35,11.35,0,0,1,9,434.2V20.34A11.34,11.34,0,0,1,20.34,9Z"/><polygon class="b" points="213.73 156.41 192.96 34.52 178.79 34.52 183.3 156.41 213.73 156.41"/><polygon class="b" points="126.84 156.41 147.61 34.52 161.78 34.52 157.27 156.41 126.84 156.41"/><polygon class="b" points="312.02 181.92 269.5 181.92 275.17 210.26 241.15 210.26 246.82 181.92 94.04 181.92 99.71 210.26 65.7 210.26 71.37 181.92 28.85 181.92 28.85 167.74 312.02 167.74 312.02 181.92"/><polygon class="b" points="192.96 417.19 185.3 210.26 222.9 210.26 258.16 417.19 192.96 417.19"/><polygon class="b" points="117.67 210.26 155.27 210.26 147.61 417.19 82.41 417.19 117.67 210.26"/></svg>