<svg xmlns="http://www.w3.org/2000/svg" viewBox="0 0 397.85 397.85"><defs><style>.a,.c{fill:#fff;}.a{stroke:#0c479d;}.b{fill:#0c479d;}</style></defs><title>E11-1 korkortonline.se</title><rect class="a" x="0.5" y="0.5" width="396.85" height="396.85"/><path class="b" d="M23.18.5H374.67a22.67,22.67,0,0,1,22.68,22.68V374.67a22.67,22.67,0,0,1-22.68,22.68H23.18A22.67,22.67,0,0,1,.5,374.67V23.18A22.67,22.67,0,0,1,23.18.5Z"/><rect class="c" x="11.84" y="11.84" width="374.17" height="374.17" rx="11.34"/><rect class="b" x="51.52" y="51.52" width="294.8" height="294.8"/><path class="c" d="M221.07,89.19H212.8V91.6a11.8,11.8,0,0,0-5.34-2.41,14,14,0,0,0-7.74.54,15.87,15.87,0,0,0-8,7.74,23.93,23.93,0,0,0,0,16.8,15.31,15.31,0,0,0,9.34,8.27,14.62,14.62,0,0,0,11.74-2.4v2.14h8.27Z"/><path class="b" d="M212.8,109.47a7.58,7.58,0,0,1-5.61,5.34,5.89,5.89,0,0,1-4.8-1.07,9.71,9.71,0,0,1-3.47-6.14,13.7,13.7,0,0,1,0-3.73,9.71,9.71,0,0,1,3.47-6.14,5.89,5.89,0,0,1,4.8-1.07A7.58,7.58,0,0,1,212.8,102Z"/><polygon class="c" points="87.95 299.29 87.95 275.57 79.68 275.57 79.68 320.93 87.95 320.93 87.95 311.06 91.17 307.8 100.29 320.93 110.36 320.93 97.08 301.81 110.89 287.85 99.26 287.85 87.95 299.29"/><path class="c" d="M123.69,320.93H132V300.39a4.54,4.54,0,1,1,9.08,0v20.54h8.27V300.39a4.54,4.54,0,1,1,9.07,0v20.54h8.27V298a10.72,10.72,0,0,0-19.48-6.13A11.31,11.31,0,0,0,132,289.18v-1.33h-8.27Z"/><polygon class="c" points="209.76 275.57 190.91 320.93 181.96 320.93 200.8 275.57 209.76 275.57"/><path class="c" d="M226,296.12v19.21a5.38,5.38,0,0,0,5.61,5.6h5.87v-8.27h-1.34a1.77,1.77,0,0,1-1.36-.51,1.72,1.72,0,0,1-.5-1.36V296.12h4.13v-8.27h-4.13V275.57l-8.28,4v8.27h-3.33v8.27Z"/><path class="c" d="M250.94,279.31a5.21,5.21,0,1,1,5.21,5.2A5.2,5.2,0,0,1,250.94,279.31Z"/><rect class="c" x="252.01" y="287.85" width="8.27" height="33.08"/><path class="c" d="M275.22,320.93h8.27V300.39a4.54,4.54,0,1,1,9.07,0v20.54h8.27V300.39a4.54,4.54,0,1,1,9.07,0v20.54h8.27V298a10.71,10.71,0,0,0-19.47-6.13,11.31,11.31,0,0,0-15.21-2.67v-1.33h-8.27Z"/><path class="c" d="M133.3,122.28h8.27V101.74a4.54,4.54,0,1,1,9.07,0v20.54h8.27V101.74a4.54,4.54,0,1,1,9.07,0v20.54h8.27v-23a10.72,10.72,0,0,0-19.48-6.13,11.29,11.29,0,0,0-15.2-2.67V89.19H133.3Z"/><polygon class="c" points="255.32 105.74 266.82 89.19 256.75 89.19 250.28 98.49 243.81 89.19 233.74 89.19 245.24 105.74 233.74 122.28 243.81 122.28 250.28 112.98 256.75 122.28 266.82 122.28 255.32 105.74"/><path class="c" d="M129.76,204h15.87a12.76,12.76,0,0,1,11.91,7.37,13,13,0,0,1,0,10.21,16.84,16.84,0,0,1-11.91,8.5,37.52,37.52,0,0,1-14.17,0,28.32,28.32,0,0,1-13.6-7.93l-13,11.33a41,41,0,0,0,22.67,13.61,53.2,53.2,0,0,0,21.55,0,37,37,0,0,0,22.67-16.44,30.59,30.59,0,0,0,2.84-20.41A26,26,0,0,0,166,195a27.84,27.84,0,0,0,5.67-18.71A24.64,24.64,0,0,0,160.94,157a39.74,39.74,0,0,0-22.11-7.37A45.79,45.79,0,0,0,108.78,161l11.34,12.47a28.36,28.36,0,0,1,23.81-6.24,14.46,14.46,0,0,1,9.64,6.81,10.47,10.47,0,0,1,0,7.93,9.33,9.33,0,0,1-9.07,5.67H129.76Z"/><path class="c" d="M252.61,248.25a38.1,38.1,0,0,1-28.35-12.47,56.72,56.72,0,0,1,0-73.7,38.44,38.44,0,0,1,56.7,0,56.72,56.72,0,0,1,0,73.7A38.1,38.1,0,0,1,252.61,248.25Z"/><path class="b" d="M252.61,230.67a20.45,20.45,0,0,1-15.19-6.56,39.1,39.1,0,0,1,0-50.37,20.88,20.88,0,0,1,30.39,0,39.14,39.14,0,0,1,0,50.37A20.48,20.48,0,0,1,252.61,230.67Z"/></svg>