<svg xmlns="http://www.w3.org/2000/svg" viewBox="0 0 250.45 250.45"><defs><style>.a,.c{fill:#000;}.a{stroke:#000;}.b{fill:#fff;}.d{fill:none;}</style></defs><title>E14-1 korkortonline.se</title><rect class="a" x="0.5" y="0.5" width="249.45" height="249.45"/><path class="b" d="M24.26,250H226.19A23.76,23.76,0,0,0,250,226.19V24.26A23.76,23.76,0,0,0,226.19.5H24.26A23.76,23.76,0,0,0,.5,24.26V226.19A23.76,23.76,0,0,0,24.26,250Z"/><path class="c" d="M13.69,231.61,171.29,12.38h-147A11.88,11.88,0,0,0,12.38,24.26V226.19A11.9,11.9,0,0,0,13.69,231.61Z"/><path class="d" d="M23.05,238,185.25,12.38Z"/><path class="c" d="M236.64,18.6a11.89,11.89,0,0,1,1.43,5.66V226.19a11.88,11.88,0,0,1-11.88,11.88H78.86Z"/><path class="c" d="M23.05,238a12.1,12.1,0,0,0,1.21.06H37L199.21,12.38h-14Z"/><path class="d" d="M227.12,12.41l-.93,0"/><line class="d" x1="226.19" y1="12.38" x2="227.12" y2="12.41"/><polygon class="c" points="226.19 12.38 213.18 12.38 50.93 238.07 64.9 238.07 227.12 12.41 226.19 12.38"/></svg>