<svg xmlns="http://www.w3.org/2000/svg" viewBox="0 0 510.24 510.24"><defs><style>.a{fill:#ffce00;}.b{fill:#dc0032;}.c{fill:#0c479d;}</style></defs><title>E20-1 korkortonline.se</title><rect class="a" width="510.24" height="510.24"/><path class="b" d="M0,34v442.2a34,34,0,0,0,34,34h442.2a34,34,0,0,0,34-34V34a34,34,0,0,0-34-34H34A34,34,0,0,0,0,34Z"/><rect class="a" x="17.01" y="17.01" width="476.22" height="476.22" rx="17.01"/><circle class="b" cx="255.12" cy="255.12" r="170.08" transform="translate(-105.67 255.12) rotate(-45)"/><path class="c" d="M337.86,355.9,154.34,172.38A130.39,130.39,0,0,0,337.86,355.9Z"/><path class="c" d="M355.9,337.86,172.38,154.34A130.39,130.39,0,0,1,355.9,337.86Z"/></svg>