<svg xmlns="http://www.w3.org/2000/svg" viewBox="0 0 511.24 511.24"><defs><style>.a,.c{fill:#fff;}.a{stroke:#000;}.b{fill:#7c868d;}.d{fill:#000;}</style></defs><title>E21-1 korkortonline.se</title><rect class="a" x="0.5" y="0.5" width="510.24" height="510.24"/><circle class="b" cx="255.62" cy="255.62" r="170.08" transform="translate(-105.88 255.62) rotate(-45)"/><path class="c" d="M338.36,356.4,154.84,172.88A130.39,130.39,0,0,0,338.36,356.4Z"/><path class="c" d="M356.4,338.36,172.88,154.84A130.39,130.39,0,0,1,356.4,338.36Z"/><polygon class="d" points="414.73 0.5 16.5 510.74 0.5 510.74 398.73 0.5 414.73 0.5"/><polygon class="d" points="510.74 0.5 112.51 510.74 96.51 510.74 494.73 0.5 510.74 0.5"/><polygon class="d" points="462.73 0.5 64.51 510.74 80.51 510.74 478.73 0.5 462.73 0.5"/><polygon class="d" points="430.73 0.5 32.5 510.74 48.5 510.74 446.73 0.5 430.73 0.5"/></svg>