<svg xmlns="http://www.w3.org/2000/svg" viewBox="0 0 256.12 171.08"><defs><style>.a,.c{fill:#0c479d;}.a{stroke:#0c479d;}.b{fill:#fff;}</style></defs><title>E23-1 korkortonline.se</title><rect class="a" x="0.5" y="0.5" width="255.12" height="170.08"/><rect class="b" x="0.5" y="0.5" width="255.12" height="170.08" rx="18.6"/><path class="c" d="M19.1,8.47H237A10.64,10.64,0,0,1,247.64,19.1V152A10.64,10.64,0,0,1,237,162.61H19.1A10.65,10.65,0,0,1,8.47,152V19.1A10.65,10.65,0,0,1,19.1,8.47Z"/><polygon class="b" points="50.73 63.93 50.73 83.54 50.73 119.56 38.33 119.56 38.33 83.54 38.33 63.93 23.12 63.93 23.12 51.52 65.94 51.52 65.94 63.93 50.73 63.93"/><polygon class="b" points="114.93 51.52 136.54 119.56 123.52 119.56 119.58 107.15 91.87 107.15 87.93 119.56 74.91 119.56 96.52 51.52 114.93 51.52"/><polygon class="c" points="95.81 94.74 105.73 63.52 115.64 94.74 95.81 94.74"/><polygon class="b" points="200.43 51.52 181.62 85.14 200.83 119.56 186.62 119.56 174.42 97.69 162.22 119.56 148.01 119.56 167.22 85.14 148.41 51.52 162.62 51.52 174.42 72.61 186.22 51.52 200.43 51.52"/><polygon class="b" points="227.21 79.54 227.21 119.56 214.8 119.56 214.8 79.54 214.8 51.52 227.21 51.52 227.21 79.54"/></svg>