<svg xmlns="http://www.w3.org/2000/svg" viewBox="0 0 341.16 341.16"><defs><style>.a,.c{fill:#0c479d;}.a{stroke:#0c479d;}.b{fill:#fff;}</style></defs><title>E24-1 korkortonline.se</title><rect class="a" x="0.5" y="0.5" width="340.16" height="340.16"/><path class="b" d="M23.18,340.66H318A22.67,22.67,0,0,0,340.66,318V23.18A22.68,22.68,0,0,0,318,.5H23.18A22.67,22.67,0,0,0,.5,23.18V318A22.68,22.68,0,0,0,23.18,340.66Z"/><path class="c" d="M23.18,329.32H318A11.34,11.34,0,0,0,329.32,318V23.18A11.34,11.34,0,0,0,318,11.84H23.18A11.34,11.34,0,0,0,11.84,23.18V318a11.34,11.34,0,0,0,11.34,11.34Z"/><polygon class="b" points="191.25 300.99 191.25 196.01 208.37 186.26 208.37 300.99 191.25 300.99"/><polygon class="b" points="63.13 230.57 96.8 198.66 83.69 175.63 39.06 188.3 63.13 230.57"/><path class="b" d="M295.87,109.46a12.56,12.56,0,0,1-4.71,17.13L131.6,217.44a12.56,12.56,0,0,1-17.13-4.7L80.6,153.26a12.57,12.57,0,0,1,4.7-17.14L244.86,45.27A12.57,12.57,0,0,1,262,50Z"/></svg>