<svg xmlns="http://www.w3.org/2000/svg" viewBox="0 0 341.16 341.16"><defs><style>.a,.c{fill:#fff;}.a{stroke:#1a1102;}.b{fill:#1a1102;}.d{fill:#ffce00;}</style></defs><title>E25-1 korkortonline.se</title><rect class="a" x="0.5" y="0.5" width="340.16" height="340.16"/><rect class="b" x="0.5" y="0.5" width="340.16" height="340.16" rx="28.35"/><path class="c" d="M28.85,326.48H312.31a14.16,14.16,0,0,0,14.17-14.17V28.85a14.17,14.17,0,0,0-14.17-14.18H28.85A14.18,14.18,0,0,0,14.67,28.85V312.31a14.17,14.17,0,0,0,14.18,14.17Z"/><path class="b" d="M196.09,48.31l82.14,118L318,186.92V312.31a5.67,5.67,0,0,1-5.67,5.67H28.85a5.67,5.67,0,0,1-5.67-5.67V223.36l121.88-175Z"/><path class="c" d="M197.67,311.78l-2.41-26.21a42,42,0,0,1-47.45-20.88l-4.32,47.09Z"/><path class="c" d="M311.78,311.78V234.39l-3.81,0a16.48,16.48,0,0,1-7.18-1.87l-40.4-25.95a42,42,0,0,1-39.08,59.08,42,42,0,0,1-20.7,18.14l49,28Z"/><path class="c" d="M126.39,214.4,147,226.7A42,42,0,0,0,143,248l-27.25-16.44a11.83,11.83,0,0,1,10.66-17.14Z"/><path class="c" d="M119.93,201.6,151,220.12a42,42,0,0,1,16.68-13.48l-38.5-22.35a11,11,0,0,0-12.8,6.66A8.77,8.77,0,0,0,119.93,201.6Z"/><path class="c" d="M196.8,190.23l-64.4-37.38a11,11,0,0,0-12.79,6.66,8.75,8.75,0,0,0,3.56,10.64l55.73,33.24a43,43,0,0,1,6.71-.41A41.84,41.84,0,0,1,196.8,190.23Z"/><path class="c" d="M159.79,136.65a11,11,0,0,0-12.8,6.66A8.76,8.76,0,0,0,150.55,154L204,185.84a41.94,41.94,0,0,1,17.71-4.08l-23.43-15A35.91,35.91,0,0,1,188.07,158a7.58,7.58,0,0,1-1.58-3.66,19.12,19.12,0,0,1-.19-2.28Z"/><path class="d" d="M220.59,244.93a35.76,35.76,0,1,0-35.76,35.76A35.76,35.76,0,0,0,220.59,244.93Z"/><path class="d" d="M224.21,259.41a42,42,0,0,0-31.74-55.74,35.76,35.76,0,1,1,31.74,55.74Z"/><path class="c" d="M192.62,153.43a13.25,13.25,0,0,1,0-3.33A2.69,2.69,0,0,1,193,149l6.06-7.71a5.68,5.68,0,0,1,3-1.3q2.81-.33,5.61-.52a17.39,17.39,0,0,1,4.83.35,21.74,21.74,0,0,1,3.47,1.06l95.84,49.78v37.49l-3.73,0a10.41,10.41,0,0,1-4.17-1.06L201.5,161.39a29.49,29.49,0,0,1-8.59-7.29A1.45,1.45,0,0,1,192.62,153.43Z"/><polygon class="c" points="166.4 62.5 174.76 62.5 173.75 51.47 167.41 51.47 166.4 62.5"/><path class="c" d="M160.16,130.39a18,18,0,0,1,2.05.49l19.89,11.55L179.49,114H161.67Z"/><polygon class="c" points="163.68 92.05 177.47 92.05 175.92 75.16 165.24 75.16 163.68 92.05"/></svg>