<svg xmlns="http://www.w3.org/2000/svg" viewBox="0 0 227.77 227.77"><defs><style>.a,.c{fill:#fff;}.a{stroke:#007a61;}.b{fill:#007a61;}</style></defs><title>E28-1 korkortonline.se</title><path class="a" d="M19.4,227.27h189a18.88,18.88,0,0,0,18.9-18.9V19.4A18.9,18.9,0,0,0,208.37.5H19.4A18.9,18.9,0,0,0,.5,19.4v189a18.88,18.88,0,0,0,18.9,18.9Z"/><path class="b" d="M19.4,215.93h189a7.55,7.55,0,0,0,7.56-7.56V19.4a7.55,7.55,0,0,0-7.56-7.56H19.4a7.55,7.55,0,0,0-7.56,7.56v189a7.55,7.55,0,0,0,7.56,7.56Z"/><path class="c" d="M139.46,57.66a13.22,13.22,0,1,0-13.22,13.21A13.22,13.22,0,0,0,139.46,57.66Z"/><rect class="c" x="16.25" y="32.25" width="53.23" height="167.19"/><path class="c" d="M199,168.49l-34.56-2.18a10,10,0,0,1-8.73-7.29l-6.27-23.37-14.15,24.62-7.81,36.47a9.12,9.12,0,0,1-17.25-5.87l8.9-35.18.33-3.31,1.38-2.39,16.25-32.2L126.06,97.14l-14.81,16a8,8,0,0,1-6.24,2.55L90.46,115a8,8,0,0,1-.64-15.72l11.81,1.4a2.94,2.94,0,0,0,2.6-1L125.8,74a2.94,2.94,0,0,1,2.26-1.06H178.2a1.42,1.42,0,0,1,1.23.72l15.21,26.94a8.88,8.88,0,0,1-14.91,6.48l-9-18.47L155.85,89l2.67,4.9,7.77,18.93,2.23,11.79,3.13,26.74,27.74,1.06a8.06,8.06,0,0,1-.36,16.09Z"/></svg>