<svg xmlns="http://www.w3.org/2000/svg" viewBox="0 0 375.03 114.39"><defs><style>.a,.c{fill:#007a61;}.a{stroke:#007a61;}.b{fill:#fff;}</style></defs><title>E29-1 korkortonline.se</title><rect class="a" x="0.5" y="0.5" width="374.03" height="113.39"/><rect class="b" x="0.5" y="0.5" width="374.03" height="113.39" rx="12.49"/><path class="c" d="M63.86,10.2A22.69,22.69,0,0,1,76.63,6.27H362A6.72,6.72,0,0,1,368.77,13v88.4a6.73,6.73,0,0,1-6.73,6.73H76.63a22.62,22.62,0,0,1-12.77-3.94l-60.21-41a7.2,7.2,0,0,1,0-11.91Z"/><polygon class="b" points="182.33 95.42 182.33 79.28 179.8 79.28 179.8 76.75 183.27 72.74 186.47 72.74 186.47 82.88 186.47 95.42 182.33 95.42"/><path class="b" d="M202.83,95.69a9,9,0,0,1-6.67-2.94,13.35,13.35,0,0,1,0-17.34,9.06,9.06,0,0,1,13.34,0,13.31,13.31,0,0,1,0,17.34A9,9,0,0,1,202.83,95.69Z"/><path class="c" d="M202.83,91.55A4.83,4.83,0,0,1,199.26,90a9.21,9.21,0,0,1,0-11.85,4.9,4.9,0,0,1,7.15,0,9.21,9.21,0,0,1,0,11.85A4.84,4.84,0,0,1,202.83,91.55Z"/><path class="b" d="M228.31,95.69a9,9,0,0,1-6.67-2.94,13.35,13.35,0,0,1,0-17.34,9.06,9.06,0,0,1,13.34,0,13.35,13.35,0,0,1,0,17.34A9,9,0,0,1,228.31,95.69Z"/><path class="c" d="M228.31,91.55A4.83,4.83,0,0,1,224.74,90a9.21,9.21,0,0,1,0-11.85,4.9,4.9,0,0,1,7.15,0,9.21,9.21,0,0,1,0,11.85A4.84,4.84,0,0,1,228.31,91.55Z"/><path class="b" d="M244.83,95.42H249V85.15a2.27,2.27,0,1,1,4.54,0V95.42h4.13V85.15a2.27,2.27,0,1,1,4.54,0V95.42h4.13V84a5.36,5.36,0,0,0-9.74-3.07,5.64,5.64,0,0,0-7.6-1.33v-.67h-4.13Z"/><rect class="b" x="116.96" y="17.29" width="41.5" height="79.34"/><polygon class="b" points="258.7 41.69 203.99 41.69 212.87 32.91 198.6 32.91 185.14 46.19 198.6 59.47 212.87 59.47 203.99 50.7 258.7 50.7 258.7 41.69"/><path class="b" d="M310.89,25.52a6.78,6.78,0,1,0-6.77,6.77A6.77,6.77,0,0,0,310.89,25.52Z"/><path class="b" d="M341.42,82.32,323.71,81.2a5.13,5.13,0,0,1-4.47-3.74l-3.22-12L308.77,78.1l-4,18.69a4.67,4.67,0,0,1-8.84-3l4.56-18,.17-1.7.71-1.22,8.32-16.5L304,45.75l-7.59,8.18a4.1,4.1,0,0,1-3.2,1.3l-7.46-.34a4.1,4.1,0,0,1-.32-8l6,.71a1.52,1.52,0,0,0,1.34-.53l11.05-13.13a1.52,1.52,0,0,1,1.16-.54h25.69a.76.76,0,0,1,.64.37l7.79,13.81a4.55,4.55,0,0,1-7.64,3.32l-4.64-9.47-7.6.19,1.37,2.51,4,9.7,1.15,6,1.6,13.71,14.21.54a4.13,4.13,0,0,1-.18,8.25Z"/></svg>