<svg xmlns="http://www.w3.org/2000/svg" viewBox="0 0 341.16 454.54"><defs><style>.a,.c{fill:#007a61;}.a{stroke:#007a61;}.b{fill:#fff;}</style></defs><title>E3-1 korkortonline.se</title><rect class="a" x="0.5" y="0.5" width="340.16" height="453.54"/><rect class="b" x="0.5" y="0.5" width="340.16" height="453.54" rx="19.84"/><path class="c" d="M20.34,9H320.81a11.34,11.34,0,0,1,11.34,11.34V434.2a11.34,11.34,0,0,1-11.34,11.34H20.34A11.34,11.34,0,0,1,9,434.2V20.34A11.34,11.34,0,0,1,20.34,9Z"/><path class="b" d="M285.89,283.75l8.45-31.54a55.88,55.88,0,0,0-18.92-54.35l-27-50.81a23.57,23.57,0,0,0-15.16-11.81,262.53,262.53,0,0,0-125.34,0,23.57,23.57,0,0,0-15.16,11.81l-27,50.81a55.88,55.88,0,0,0-18.92,54.35l8.45,31.54v25.1a19.61,19.61,0,1,0,39.22,0V292H246.67v16.86a19.61,19.61,0,1,0,39.22,0Z"/><path class="c" d="M235.62,160.59a229.42,229.42,0,0,0-130.08,0L84.68,199.82H256.47Z"/><path class="c" d="M231,274v-20.4a225.62,225.62,0,0,0-120.8,0V274Z"/><path class="c" d="M283.54,240.21a22.36,22.36,0,1,0-22.36,22.36A22.36,22.36,0,0,0,283.54,240.21Z"/><circle class="c" cx="79.98" cy="240.21" r="22.36"/></svg>