<svg xmlns="http://www.w3.org/2000/svg" viewBox="0 0 226.77 340.16"><defs><style>.a{fill:#ffd300;}.b{fill:#dc0032;}.c{fill:#000;}</style></defs><title>E31-1 korkortonline.se</title><rect class="a" width="226.77" height="340.16"/><rect class="b" width="226.77" height="340.16" rx="11.34"/><rect class="a" x="5.67" y="5.67" width="215.43" height="328.82" rx="5.67"/><path class="c" d="M165.62,158.23l-7.7-14.48a6.71,6.71,0,0,0-4.32-3.37,74.92,74.92,0,0,0-35.72,0,6.68,6.68,0,0,0-4.32,3.37l-7.7,14.48a15.93,15.93,0,0,0-5.4,15.49l2.41,9v8.18a6.49,6.49,0,1,0,13-.07v-4.25h39.8v4.32a6.49,6.49,0,1,0,13,0v-8.18l2.4-9A15.92,15.92,0,0,0,165.62,158.23Z"/><path class="a" d="M152.05,147a65.52,65.52,0,0,0-32.62,0l-5.8,10.9h44.22Z"/><path class="c" d="M102.91,184.69a9.69,9.69,0,0,1-4.16-5.15,10.63,10.63,0,0,1-11.24-3.3A9.7,9.7,0,0,1,75.65,171a9.27,9.27,0,0,1-12.22-6.36,8.6,8.6,0,0,1-3.8-2c-.52-.47-1-1-1.5-1.48a14.17,14.17,0,0,1-1.85-2.43,16.83,16.83,0,0,1-1.92-4.39,8,8,0,0,1,5.78-9.65,12.85,12.85,0,0,1,17-8.68,14.18,14.18,0,0,1,7.82,16.38,12.92,12.92,0,0,1,2.69,12.7,3.55,3.55,0,0,1,1.83,0,11.61,11.61,0,0,1,7.58,5c3.66,1.09,5.65,4.37,5.87,8.2Z"/><path class="b" d="M113.39,85a85,85,0,1,0,85,85A85,85,0,0,0,113.39,85ZM66.44,215.92a65.21,65.21,0,0,1-4.29-87.48l91.77,91.76A65.21,65.21,0,0,1,66.44,215.92Zm96.5-4.74L71.17,119.42a65.2,65.2,0,0,1,91.77,91.76Z"/><path class="c" d="M55.32,276.82h6.5L53,286.9l9.17,15.52h-5.8l-6.81-11.59-2.92,3.36v8.23H41.57v-25.6h5.07v9.95Z"/><path class="c" d="M72.45,297.75h8.82v4.67H67.38v-25.6h5.07v20.93Z"/><path class="c" d="M101.69,276.82l8.83,25.6H105.2l-1.6-4.67H92.28l-1.59,4.67H85.37l8.82-25.6Zm-7.81,16.25H102l-4.07-11.74Z"/><path class="c" d="M128.48,287.51a8.9,8.9,0,0,1,5.24,3.77,6.6,6.6,0,0,1,0,7.11,8.31,8.31,0,0,1-6.74,4.06,12.94,12.94,0,0,1-2.26.16,14.89,14.89,0,0,1-10.48-4.22l3.71-3.17a9.62,9.62,0,0,0,6.77,2.72,9.85,9.85,0,0,0,1.71-.13,3.22,3.22,0,0,0,2.84-1.73,2.11,2.11,0,0,0,.07-2.43,3.65,3.65,0,0,0-2.25-1.63l-7.37-1.95a6.55,6.55,0,0,1-5.07-6.18,6.13,6.13,0,0,1,1.46-3.93,9.88,9.88,0,0,1,5.94-3.24,16.71,16.71,0,0,1,2.57-.22,15.21,15.21,0,0,1,9.48,3.26l-3.33,3.52a10,10,0,0,0-6.15-2.08,9.66,9.66,0,0,0-1.7.13,4.42,4.42,0,0,0-2.78,1.5,1.59,1.59,0,0,0-.42,1.06,1.78,1.78,0,0,0,1.32,1.66Z"/><path class="c" d="M153.31,287.51a8.87,8.87,0,0,1,5.24,3.77,6.54,6.54,0,0,1,0,7.11,8.3,8.3,0,0,1-6.73,4.06,13,13,0,0,1-2.26.16,14.93,14.93,0,0,1-10.49-4.22l3.72-3.17a9.61,9.61,0,0,0,6.77,2.72,9.74,9.74,0,0,0,1.7-.13,3.23,3.23,0,0,0,2.85-1.73,2,2,0,0,0,.42-1.25,2.09,2.09,0,0,0-.35-1.18,3.7,3.7,0,0,0-2.26-1.63l-7.36-1.95a6.54,6.54,0,0,1-5.07-6.18A6.13,6.13,0,0,1,141,280a9.85,9.85,0,0,1,5.94-3.24,16.71,16.71,0,0,1,2.57-.22,15.21,15.21,0,0,1,9.48,3.26l-3.34,3.52a10,10,0,0,0-6.14-2.08,9.85,9.85,0,0,0-1.71.13,4.4,4.4,0,0,0-2.77,1.5,1.59,1.59,0,0,0-.42,1.06,1.76,1.76,0,0,0,1.32,1.66Z"/><path class="c" d="M180.23,284.21h-3.12v-2.88l4.27-4.51h3.92v25.6h-5.07Z"/><path class="c" d="M30.62,60.2V34.6h5.89l5.28,7.23L47,34.6h5.89V60.2H48.25V40.87l-6.46,8.9-6.5-8.9V60.2Z"/><path class="c" d="M63.67,60.2H59V34.6h4.67V60.2Z"/><path class="c" d="M73.69,55.53h8.13V60.2H69V34.6h4.67V55.53Z"/><path class="c" d="M89.21,55.53a2.09,2.09,0,0,0,2.08-2.11V34.6H96V53.42a6.78,6.78,0,0,1-6.75,6.78H86.65V55.53Z"/><path class="c" d="M119.1,37.71a14.63,14.63,0,0,1,3.58,9.66v.13a14.57,14.57,0,0,1-3.58,9.63,9.93,9.93,0,0,1-7.43,3.29h-.09a9.87,9.87,0,0,1-7.43-3.29,14.57,14.57,0,0,1-3.58-9.63v-.13a14.63,14.63,0,0,1,3.58-9.66,10,10,0,0,1,7.43-3.3h.09A9.9,9.9,0,0,1,119.1,37.71Zm-14.5-3.3a3.51,3.51,0,1,1,3.52-3.49A3.53,3.53,0,0,1,104.6,34.41Zm13.44,13v-.06a9.9,9.9,0,0,0-2.4-6.59,5.3,5.3,0,0,0-4-1.73h-.09a5.23,5.23,0,0,0-3.94,1.73,9.93,9.93,0,0,0-2.43,6.59v.13a9.87,9.87,0,0,0,2.43,6.56,5.12,5.12,0,0,0,3.94,1.72h.09a5.18,5.18,0,0,0,4-1.72A9.84,9.84,0,0,0,118,47.5Zm.48-13A3.51,3.51,0,1,1,122,30.92,3.51,3.51,0,0,1,118.52,34.41Z"/><path class="c" d="M127.16,55.69l11.42-16.42H127.16V34.6h17.47v4.19L133,55.53h11.68V60.2H127.16Z"/><path class="c" d="M167.67,37.61a14.59,14.59,0,0,1,3.62,9.73v.13a14.7,14.7,0,0,1-3.62,9.72,10.07,10.07,0,0,1-7.49,3.3h-.09a10.07,10.07,0,0,1-7.49-3.3A14.7,14.7,0,0,1,149,47.47v-.13a14.59,14.59,0,0,1,3.62-9.73,10,10,0,0,1,7.49-3.33h.09A10,10,0,0,1,167.67,37.61Zm-1.06,9.79v-.06a10,10,0,0,0-2.43-6.63,5.28,5.28,0,0,0-4-1.76h-.09a5.22,5.22,0,0,0-4,1.76,9.92,9.92,0,0,0-2.46,6.63v.13a9.9,9.9,0,0,0,2.46,6.62,5.19,5.19,0,0,0,4,1.73h.09a5.25,5.25,0,0,0,4-1.73,10,10,0,0,0,2.43-6.62Z"/><path class="c" d="M181.62,34.6l9.92,17v-17h4.67V60.2h-5.05L181,42.83V60.2h-4.68V34.6Z"/></svg>