<svg xmlns="http://www.w3.org/2000/svg" viewBox="0 0 397.85 397.85"><defs><style>.a,.c{fill:#fff;}.a{stroke:#0c479d;}.b{fill:#0c479d;}.d{fill:#dc0032;}</style></defs><title>E34-1 korkortonline.se</title><rect class="a" x="0.5" y="0.5" width="396.85" height="396.85"/><path class="b" d="M23.18.5H374.67a22.67,22.67,0,0,1,22.68,22.66V374.67a22.67,22.67,0,0,1-22.66,22.68H23.18A22.67,22.67,0,0,1,.5,374.69V23.18A22.67,22.67,0,0,1,23.16.5Z"/><rect class="c" x="11.84" y="11.84" width="374.17" height="374.17" rx="11.34"/><rect class="b" x="51.52" y="51.52" width="294.8" height="294.8"/><path class="c" d="M146.46,121.42l2.7-10.1a17.9,17.9,0,0,0-6.06-17.4l-8.64-16.27a7.58,7.58,0,0,0-4.85-3.78,84.1,84.1,0,0,0-40.14,0,7.58,7.58,0,0,0-4.85,3.78L76,93.92a17.9,17.9,0,0,0-6.06,17.4l2.7,10.1v8a6.28,6.28,0,0,0,12.56,0h0v-5.4H133.9v5.4a6.28,6.28,0,1,0,12.56,0h0Z"/><path class="b" d="M130.36,82a73.43,73.43,0,0,0-41.65,0L82,94.55h55Z"/><path class="b" d="M128.88,118.3v-6.53a72.16,72.16,0,0,0-38.68,0v6.53Z"/><path class="b" d="M145.7,107.48a7.16,7.16,0,1,0-7.16,7.16,7.16,7.16,0,0,0,7.16-7.16Z"/><circle class="b" cx="80.53" cy="107.48" r="7.16"/><path class="c" d="M221,228.91l7.47-.49a39.78,39.78,0,0,0,79.13-2.72l1.74.13a41.52,41.52,0,0,0-60-39.78L238,166.38l4.21-9.46,11.53-5.26a3.86,3.86,0,0,0-1.59-7.38q-14.31-.48-28.61-.43a2.81,2.81,0,0,0-1.42,5.29q7.5,4.13,15.35,7.55L233.3,166h-72l5.38-13.3a8.83,8.83,0,0,1,9.73-13.11h0l7.78,2,2.14.54,1.09-4.27-2.14-.55-7.82-2h0a13.26,13.26,0,0,0-15.64,17.54L147.79,187.7a41.53,41.53,0,0,0-21-6v1.75a39.78,39.78,0,1,0,31.55,63.21l1.41,1a41.52,41.52,0,0,0-8.23-57.41l2.41-6,43.63,37.94a12.36,12.36,0,0,0,12.5,17.68l2.58,8.47h-2.72v4.42h11.27v-4.43h-3.93l-3-9.73a12.36,12.36,0,0,0,6.7-9.72Z"/><path class="b" d="M141.15,215.93a15.48,15.48,0,0,1-14.93,9.57,2.2,2.2,0,1,1-.16-4.4h.16A11,11,0,0,0,136.76,215l7.88-19.5a33.21,33.21,0,1,0,3.64,2.79l-7.14,17.67Z"/><path class="b" d="M268,218.43a4.75,4.75,0,1,1-3.88,7.65L235,228a33.3,33.3,0,1,0,18.49-34.81Z"/><path class="b" d="M264,220.39l-14.44-25a33.29,33.29,0,0,0-15,28.22l28.77-1.88.67-1.32Z"/><path class="b" d="M235.74,171.36l9.73,16.86a41.54,41.54,0,0,0-19.1,35.91l-5.7.38a12.34,12.34,0,0,0-5.33-7.34l19.91-44.71.49-1.1Z"/><path class="b" d="M208.16,207.28v-4.42H196.9v4.42h3.19l2.87,9.36a12.38,12.38,0,0,0-2.78,2L155.69,180l3.86-9.56h71.78l-20.08,45.1a12.42,12.42,0,0,0-4.08-.17l-2.46-8Z"/><path class="d" d="M386,21.84,21.84,386a11.33,11.33,0,0,1-10-10L376,11.84A11.33,11.33,0,0,1,386,21.84Z"/></svg>