<svg xmlns="http://www.w3.org/2000/svg" viewBox="0 0 341.16 454.54"><defs><style>.a,.c{fill:#007a61;}.a{stroke:#007a61;}.b{fill:#fff;}.d{fill:#dc0032;}</style></defs><title>E4-1 korkortonline.se</title><rect class="a" x="0.5" y="0.5" width="340.16" height="453.54"/><rect class="b" x="0.5" y="0.5" width="340.16" height="453.54" rx="19.84"/><path class="c" d="M20.34,9H320.81a11.34,11.34,0,0,1,11.34,11.34V434.2a11.34,11.34,0,0,1-11.34,11.34H20.34A11.35,11.35,0,0,1,9,434.2V20.34A11.35,11.35,0,0,1,20.34,9Z"/><path class="b" d="M244.08,176.51l11.7-15.59,19.64,36.94a55.89,55.89,0,0,1,18.92,54.35l-8.45,31.54v25.1a19.61,19.61,0,1,1-39.22,0V292H157.48L171,273.94Z"/><path class="b" d="M92.75,147.05l-27,50.81a55.89,55.89,0,0,0-18.92,54.35l8.45,31.54v25.1a19.63,19.63,0,0,0,7.26,15.24L207.87,130.31a262.52,262.52,0,0,0-100,4.93A23.55,23.55,0,0,0,92.75,147.05Z"/><path class="c" d="M283.54,240.21a22.36,22.36,0,1,0-22.36,22.36A22.36,22.36,0,0,0,283.54,240.21Z"/><path class="c" d="M102.33,240.21A22.36,22.36,0,1,0,80,262.57,22.35,22.35,0,0,0,102.33,240.21Z"/><path class="d" d="M332.15,59.08,42.31,445.54h-22A11.35,11.35,0,0,1,9,434.2V395.46L298.85,9h22a11.34,11.34,0,0,1,11.34,11.34Z"/><path class="c" d="M231,273.94V253.55a225.49,225.49,0,0,0-39.25-7.24L171,273.94Z"/><polygon class="c" points="226.6 199.82 244.08 176.51 256.48 199.82 226.6 199.82"/><path class="c" d="M84.68,199.82h71.06l35.76-47.68a229.32,229.32,0,0,0-86,8.46Z"/><path class="c" d="M116.72,251.84c-2.19.53-4.37,1.11-6.54,1.71v7Z"/></svg>