<svg xmlns="http://www.w3.org/2000/svg" viewBox="0 0 681.31 341.16"><defs><style>.a,.c{fill:#000;}.a{stroke:#000;}.b{fill:#fff;}</style></defs><title>E5-1 korkortonline.se</title><rect class="a" x="0.5" y="0.5" width="680.31" height="340.16"/><path class="b" d="M31.11,340.66H650.2A30.61,30.61,0,0,0,680.81,310V31.11A30.61,30.61,0,0,0,650.2.5H31.11A30.63,30.63,0,0,0,.5,31.11V310a30.63,30.63,0,0,0,30.61,30.62Z"/><rect class="c" x="11.84" y="11.84" width="657.64" height="317.48" rx="19.28"/><path class="b" d="M303.92,189h34V173.3h34V189h34L426.38,208v18.36h10.88V187.59l55.79-26.54,55.78,26.54v45.58h10.89V129.08l41.5-15,41.5,15V218.2h15.42V31.11a7.94,7.94,0,0,0-7.94-7.93H31.11a7.93,7.93,0,0,0-7.93,7.93V219.56H38.6V199.15l64-38.1,64,38.1v55.79h10.88V225L225,42.68,272.63,225v25.86h10.88V208Z"/></svg>