<svg xmlns="http://www.w3.org/2000/svg" viewBox="0 0 681.31 341.16"><defs><style>.a,.e{fill:#000;}.a{stroke:#000;}.b{fill:#fff;}.c{fill:none;}.d{fill:#dc0032;}</style></defs><title>E6-1 korkortonline.se</title><rect class="a" x="0.5" y="0.5" width="680.31" height="340.16"/><path class="b" d="M31.11,340.66H650.2A30.61,30.61,0,0,0,680.81,310V31.11A30.61,30.61,0,0,0,650.2.5H31.11A30.63,30.63,0,0,0,.5,31.11V310a30.63,30.63,0,0,0,30.61,30.62Z"/><rect class="c" x="11.84" y="11.84" width="657.64" height="317.48" rx="19.28"/><path class="d" d="M54.87,329.32,667.65,22.93A19.26,19.26,0,0,0,650.2,11.84H626.45L13.66,318.23a19.28,19.28,0,0,0,17.45,11.09Z"/><path class="e" d="M58.14,327.62,271.43,221l1.2,4.6v25.85h10.88V214.93l50.83-25.42h3.6v-1.79l27.7-13.85H372v15.64l34-.56L426.38,208v18.36h10.88V187.59l55.79-26.54,55.78,26.54v45.58h10.89V129.08l41.5-15,41.5,15V218.2h15.42V31.11a8,8,0,0,0-.66-3.16l10.15-5.08a19.41,19.41,0,0,1,1.85,8.24V310a19.28,19.28,0,0,1-19.28,19.28H54.74Z"/><path class="e" d="M23.18,31.11V219.56H38.6V199.15l64-38.1,64,38.1v42.66L13.66,318.23A19.31,19.31,0,0,1,11.84,310V31.11A19.27,19.27,0,0,1,31.11,11.84H626.45L603.77,23.18H31.11A7.93,7.93,0,0,0,23.18,31.11Z"/><polygon class="e" points="177.38 236.37 177.38 224.44 225 42.68 264.38 192.87 177.38 236.37"/><path class="c" d="M658.16,218.2a0,0,0,0,1,0,0,0,0,0,0,1,0,0l0,0Z"/><path class="c" d="M669.5,218.2a0,0,0,0,1,0,0,0,0,0,0,1,0,0l0,0Z"/></svg>