<svg xmlns="http://www.w3.org/2000/svg" viewBox="0 0 397.85 397.85"><defs><style>.a{fill:#0c479d;}.b{fill:#fff;}.c{fill:#dc0032;}.d{fill:none;stroke:#0c479d;}</style></defs><title>E8-1 korkortonline.se</title><path class="a" d="M23.18.5H374.67a22.67,22.67,0,0,1,22.68,22.68V374.67a22.67,22.67,0,0,1-22.68,22.68H23.18A22.67,22.67,0,0,1,.5,374.67V23.18A22.67,22.67,0,0,1,23.18.5Z"/><rect class="b" x="11.84" y="11.84" width="374.17" height="374.17" rx="11.34"/><polygon class="a" points="51.52 336.31 51.52 51.52 336.31 51.52 51.52 336.31"/><polygon class="a" points="346.33 61.55 346.33 346.33 61.55 346.33 346.33 61.55"/><path class="b" d="M147.71,240.12l-.65-17.5L143.59,221l1.51-18.17q2-18.86,4.14-37.7c-1,2.52-2,5-3.07,7.49-.86,2.18-1.79,4.34-2.77,6.47q-3.09,7.35-5.77,14.86-1.8,5.82-3.56,11.67c-1,3.47-2,7-2.9,10.47a32.51,32.51,0,0,1,.38,5.48,28.85,28.85,0,0,1-1.05,6.26,8.5,8.5,0,0,1-.95,2.08,11.89,11.89,0,0,1-2.2,2.39,1.23,1.23,0,0,1-.32.17,3.51,3.51,0,0,1-2.49-.17,5.07,5.07,0,0,1-3.42-4.93,24,24,0,0,1,.6-4.78,23.68,23.68,0,0,1,.79-3.72c.28-1.75.54-3.5.81-5.26q.44-4,.77-8c.11-1.65.25-3.29.41-4.94q1.89-9.23,4.14-18.39,3.42-12.45,6.62-24.94,2.36-7.81,4.94-15.56a19,19,0,0,1,3.07-6.5,17.55,17.55,0,0,1,5.57-5.31,101.49,101.49,0,0,1,14.69-5.71,12.84,12.84,0,0,0,2.86-1.08,13.73,13.73,0,0,0,3.61-3,4.21,4.21,0,0,0,.73-1.41c0-.13.06-.26.08-.39a2.5,2.5,0,0,0,.05-.29,27.29,27.29,0,0,0,.47-6.12c0-1.28,0-2.56,0-3.84a1.72,1.72,0,0,0-.26-1,34.93,34.93,0,0,1-4.27-13.52,37.32,37.32,0,0,1,1-11.58c.32-1.34.69-2.67,1.12-4a11.69,11.69,0,0,1,2.15-3.52,15.2,15.2,0,0,1,5.47-4.26,20,20,0,0,1,12.5-2.15A15.56,15.56,0,0,1,196.13,71a12.3,12.3,0,0,1,1.58,1.48,22.24,22.24,0,0,1,3.3,4.74c.11.23.2.47.29.71a7.36,7.36,0,0,1,.34,2.46c0,.46-.11.91-.18,1.37a31,31,0,0,1-1.23,4.63,39.64,39.64,0,0,1-.26,9c-.18,1.46-.43,2.92-.73,4.37a12,12,0,0,1-.84,2.61,13.39,13.39,0,0,1-.67,2.93,3.28,3.28,0,0,1-.52,1,13.05,13.05,0,0,1-2.76,2.54c-.69.43-1.37.85-2.07,1.26a4.94,4.94,0,0,1-1.29.45,58.8,58.8,0,0,0-.52,10.69,4.88,4.88,0,0,0,1.47,2.94,57.57,57.57,0,0,0,11,6.48,10.12,10.12,0,0,1,4,2.75,20.7,20.7,0,0,1,3.22,5.26,66,66,0,0,1,2.75,12.84q1.44,10.22,2.7,20.48l-11.7,11.69c-.12-.86-.29-1.72-.49-2.58q-1.38-5.44-3.28-10.75l-.13,17.24Z"/><path class="b" d="M217.79,190.08c.08.34.16.66.25,1a90.06,90.06,0,0,1,2,11.51c.52,1.14,1,2.27,1.55,3.4q1.55,3.69,3,7.42a8.29,8.29,0,0,1,.29,1.7,13.21,13.21,0,0,1-.2,2.51,2.87,2.87,0,0,1-.05.31c-.29,1.08-.57,2.16-.86,3.24a64.46,64.46,0,0,0,1.51,6.28,2.87,2.87,0,0,0,1.28,1.71,63.29,63.29,0,0,0,11.31,4,16.22,16.22,0,0,0,4.86-.41,9.14,9.14,0,0,0,1.23-2.58,2.39,2.39,0,0,0-.65-1.78l-1.61-1a7.43,7.43,0,0,1-3.07-4.27,6.12,6.12,0,0,1,0-3.92q.36-1.32.66-2.67a2.08,2.08,0,0,0,0-1.16,2.4,2.4,0,0,0-.27-.53l-.05-.07a6.21,6.21,0,0,1-.66-1.6,10.81,10.81,0,0,1,1-7,8.67,8.67,0,0,1,4.09-4.57,15.91,15.91,0,0,1,12.52-1.5,13.05,13.05,0,0,1,5.42,2.53,4.4,4.4,0,0,1,.81.86,13,13,0,0,1,2.15,6.7,32.83,32.83,0,0,1-1.59,8.79,52.13,52.13,0,0,1-5.7,10.48l-.75.9a1.72,1.72,0,0,0-.29,1.3,22,22,0,0,0,.35,2.42,1.08,1.08,0,0,0,.37.7l.14.12c.18.16.35.33.52.5a33.18,33.18,0,0,1,5.52,8.56,30.28,30.28,0,0,1,2.6,6.48q4.63,13.8,9.11,27.65c.25.53.48,1.08.69,1.64a15.43,15.43,0,0,1,.9,2.28c.16.92.29,1.85.41,2.78a1.3,1.3,0,0,1-.12.55,2.91,2.91,0,0,1-1.36,1.45,4.23,4.23,0,0,1-2.61-.07,3.92,3.92,0,0,1-1.37-1,1.93,1.93,0,0,1-.48-.74,14.6,14.6,0,0,1-.62-2.53,14.43,14.43,0,0,1,0-2.71l-3.67-6.69-5.64-10.35a81.23,81.23,0,0,0,2.54,22.92,32,32,0,0,1-5.87,4l1.22,13.2,1.05,11.34a2.53,2.53,0,0,1,.94-.37,2.64,2.64,0,0,1,3,1.56,1.56,1.56,0,0,1,.09.74.28.28,0,0,1,0,.13,49.1,49.1,0,0,1-4,5.7,3.63,3.63,0,0,1-1.43,1.14,6.84,6.84,0,0,1-2,.72,1.38,1.38,0,0,1-.86-.18.61.61,0,0,1-.19-.29l-9.41-30.21a28.06,28.06,0,0,1-4.49.17L239,325.6a4.79,4.79,0,0,1-1.85,3.2l-.1.08a3.26,3.26,0,0,1-1.35.68,10.69,10.69,0,0,1-2.59,0,7.55,7.55,0,0,1-1.39-.46q-2.73-1.93-5.5-3.83a1.94,1.94,0,0,1-.46-2.24,3.62,3.62,0,0,1,2.09-2.27,4.06,4.06,0,0,1,2.34.21,2.52,2.52,0,0,1,1.09.9.2.2,0,0,0,.27-.2l-4.13-30.78a35.13,35.13,0,0,1-8.55-4.34q5.24-12.27,9.33-25a51.06,51.06,0,0,0,1.3-5.76c.28-1.6.55-3.21.8-4.81a11,11,0,0,0-1.06-6.09,1.09,1.09,0,0,0-.14-.23,39.57,39.57,0,0,0-3.56-4.4q-1.77-1.92-3.62-3.77a15.41,15.41,0,0,1-2.21-3c-.45-.9-.85-1.82-1.23-2.75a12.47,12.47,0,0,1-.26-2.2q.11-4,.37-8.09-1-3.46-2.3-6.85a27.07,27.07,0,0,0,0-3.37,39.8,39.8,0,0,0-2.9-4.17c-1.09-1.46-2.14-3-3.13-4.48q-.71-1.25-1.35-2.52Z"/><path class="b" d="M200,207.88l-.12,14.47-5.19,2.45,1.72,31.49-5.66,37.6a3.59,3.59,0,0,1,5.14.27,5.15,5.15,0,0,1,.57,4.78,13.65,13.65,0,0,1-2.91,4.68,102,102,0,0,1-7,7.58,13.55,13.55,0,0,1-4.1,2.85,9.59,9.59,0,0,1-2.61.45,1.56,1.56,0,0,1-1.19-.81,13.14,13.14,0,0,1-1.35-2.8,16.51,16.51,0,0,1-.37-3.84q0-2.4-.06-4.8.45-5.62,1-11.25.42-8.19.43-16.39-.16-7.1-.86-14.17-1.5-13.51-3-27Z"/><path class="b" d="M170.06,237.81q-2.88,40.95-6.05,81.86a30.48,30.48,0,0,1-2.83,8,4.17,4.17,0,0,1-3.7,2.33,6.3,6.3,0,0,1-5.7-2.44,54.57,54.57,0,0,1-8.34-16.23,4.07,4.07,0,0,1,.19-3,7.66,7.66,0,0,1,2.11-2.42,2.89,2.89,0,0,1,2.2-.57,13.25,13.25,0,0,1,2.22.86l-1.73-46.72Z"/><path class="c" d="M385.94,21.93l-364,364a11.33,11.33,0,0,1-10-10l364-364A11.34,11.34,0,0,1,385.94,21.93Z"/><rect class="d" x="0.5" y="0.5" width="396.85" height="396.85"/></svg>