<svg xmlns="http://www.w3.org/2000/svg" viewBox="0 0 397.85 284.46"><defs><style>.a,.c{fill:#fff;}.a{stroke:#0c479d;}.b{fill:#0c479d;}</style></defs><title>E9-1 korkortonline.se</title><rect class="a" x="0.5" y="0.5" width="396.85" height="283.46"/><path class="b" d="M23.18,284H374.67a22.67,22.67,0,0,0,22.68-22.67V23.18A22.67,22.67,0,0,0,374.67.5H23.18A22.67,22.67,0,0,0,.5,23.18V261.29A22.67,22.67,0,0,0,23.18,284Z"/><rect class="c" x="11.84" y="11.84" width="374.17" height="260.79" rx="11.34"/><polygon class="b" points="133.73 60.03 133.73 94.04 142.23 94.04 142.23 88.37 159.24 34.52 176.25 88.37 176.25 94.04 184.75 94.04 184.75 69.67 224.44 51.52 264.12 69.67 264.12 85.54 346.33 85.54 346.33 232.94 51.52 232.94 51.52 85.54 65.7 85.54 65.7 60.03 74.2 51.52 91.21 51.52 91.21 43.02 108.22 43.02 108.22 51.52 125.22 51.52 133.73 60.03"/><path class="c" d="M200.06,182.26a4.45,4.45,0,0,0,2.55.28c2.28-.53,4.54-1.09,6.8-1.7A62.41,62.41,0,0,0,208,195.58a36.54,36.54,0,0,0-5.67,5.45,11.45,11.45,0,0,1-1.26,1.35l-.38.33-.09.07a10.87,10.87,0,0,1-1,.64,3.4,3.4,0,0,0-1.71,1.85,1.18,1.18,0,0,0-.09.37h0l0,.3a5.14,5.14,0,0,1-.21.86,15.15,15.15,0,0,1-6.27,7.78,6.81,6.81,0,0,1-4.25,1.13h-1.8a.66.66,0,0,0-.55,1.05.55.55,0,0,0,.18.16l0,0q2.24,1.68,4.61,3.18a2.84,2.84,0,0,0,1.92.44,1,1,0,0,0,.31-.14,15.81,15.81,0,0,0,1.54-1.3,10.48,10.48,0,0,0,3.11,1.14,23.25,23.25,0,0,1,3.41-4.54,34.93,34.93,0,0,0,4.81-8.22l5.11-2a61.11,61.11,0,0,0,6.8-3.68,14,14,0,0,1,3.4,3,17.07,17.07,0,0,0,9.91,5.75l.47,0a50.61,50.61,0,0,1,10.59,1.69,7.24,7.24,0,0,1,.57-1.7,5.62,5.62,0,0,1,3.35,3.26.61.61,0,0,0,.19.26.89.89,0,0,0,.67.13.86.86,0,0,0,.55-.4.28.28,0,0,0,.05-.23q-.1-1.23-.27-2.46t-.57-2.55l-.16-.9-.09-.64a2.4,2.4,0,0,0-.35-.86,1.46,1.46,0,0,0-1.1-.43,22.42,22.42,0,0,1-5.67,0,11.36,11.36,0,0,0-7.65-.29,62.07,62.07,0,0,0-4.54-7.37,2.29,2.29,0,0,1-.28-1.7,6.76,6.76,0,0,0-.12-2.76,1.74,1.74,0,0,0-.34-.68c-.81-1.11-1.6-2.22-2.37-3.36a28.12,28.12,0,0,1-3.12-11,30.91,30.91,0,0,0,6.23-.29,1.42,1.42,0,0,1,1.42.57,14.13,14.13,0,0,0,6.52,4.53,5.7,5.7,0,0,0,3.16.34,1,1,0,0,0,.45-.2,5.6,5.6,0,0,0,1.21-1.27,8.23,8.23,0,0,0,1-1.76.38.38,0,0,0-.08-.42.84.84,0,0,0-.82-.15,1.41,1.41,0,0,0-.29.18,4,4,0,0,1-2.58.74.65.65,0,0,1-.19,0,2.42,2.42,0,0,1-.76-.53l-5.11-4.82a10.11,10.11,0,0,0-4.53-2l-8.79-1.7a5.43,5.43,0,0,1,0-2.27,7.94,7.94,0,0,0,5.95-2.26l-.76-.26a.4.4,0,0,1-.17-.15.69.69,0,0,1,0-.68.36.36,0,0,1,.07-.1,11.29,11.29,0,0,0,1.66-3.63,2.25,2.25,0,0,1-3.11-.57,14,14,0,0,1-1.67-3.3,1,1,0,0,0-.11-.23,3.37,3.37,0,0,0-1.91-1.57,10.2,10.2,0,0,0-7.65.55,4.1,4.1,0,0,0-1.7,2,8,8,0,0,0-.65,1.86,9.26,9.26,0,0,0,.1,3.44,17.29,17.29,0,0,0,1.68,4.62,2.84,2.84,0,0,0,1.87,1.42,1.08,1.08,0,0,1,.49.15.48.48,0,0,1,.23.37,1.71,1.71,0,0,1-.32,1.18,11.42,11.42,0,0,1-3.69,2.89c-1.33.51-2.64,1.07-3.93,1.69l-.76.46a1.9,1.9,0,0,1-1.5.31c-.82-.24-1.63-.51-2.43-.82a14.33,14.33,0,0,1-2.72-1.41,2.33,2.33,0,0,1-.76-.48.8.8,0,0,1-.13-.22,3.75,3.75,0,0,0-.24-.44,3.43,3.43,0,0,0-1-1.07.67.67,0,0,0-.18-.07,3.41,3.41,0,0,1-1.33-.56,2.82,2.82,0,0,0-1.27-.54,1,1,0,0,0-.3,0,12.24,12.24,0,0,0-1.6.32l-.5.14a.42.42,0,0,0-.3.34v0a8.61,8.61,0,0,0,1,3.16,1.45,1.45,0,0,0,.34.4,2.21,2.21,0,0,0,1.6.39,2.85,2.85,0,0,1,2.11.56,18.12,18.12,0,0,1,1.93,1.57A18.75,18.75,0,0,0,200.06,182.26Z"/><path class="c" d="M102.75,135.9c.35-.06.71-.11,1.06-.14a3.39,3.39,0,0,0,1.18-.23l.21-.1a.66.66,0,0,0,.32-.47,6,6,0,0,1,.36-1.32q.2-.73.45-1.44c.09-.37.18-.74.26-1.1a1.67,1.67,0,0,0,0-.8,2.75,2.75,0,0,1-.06-1,4.3,4.3,0,0,1,.28-1.74c.09-.26.18-.53.25-.79a2.26,2.26,0,0,0,.08-.44,4.86,4.86,0,0,0-1.23-3.64,7.92,7.92,0,0,0-5-2.6,5.26,5.26,0,0,0-5.25,1.77,7.73,7.73,0,0,0-1.63,4.42,9.49,9.49,0,0,0,.45,4.16,10.86,10.86,0,0,1,1,4.19,4.67,4.67,0,0,1-2.61,4.67,27.64,27.64,0,0,0-5.29,3.83,80.25,80.25,0,0,0-6.15,8.07,36.38,36.38,0,0,0-3.65,5.52q-1.89,8.11-3.29,16.34a3.36,3.36,0,0,1,1.33,1.18,1.24,1.24,0,0,1-.58,1,.88.88,0,0,1-.69-.08l-.11-.08a.57.57,0,0,0-.58-.13.3.3,0,0,0-.17.12.47.47,0,0,0,0,.47,9.8,9.8,0,0,0,3.41,4.35,1.11,1.11,0,0,0,1.13,0h0c.39-.35.79-.68,1.19-1a3.89,3.89,0,0,0,.53-.46,1.86,1.86,0,0,0,.45-.75c.28-.86.54-1.72.76-2.59L82.3,175q.44-6.87,1.51-13.66a48.53,48.53,0,0,1,5.36-6.76l1.94,10.75-2.68,12.32,2.69.45,1.62,3q-.83,5.42-1.72,10.8a6,6,0,0,1-2.72,3.71A17.06,17.06,0,0,0,83,199.5q-4.22,5.3-8.64,10.41a4.74,4.74,0,0,0,.36.58.36.36,0,0,1,0,.09.61.61,0,0,1-.16.54c-.57.74-1.17,1.46-1.81,2.15a.58.58,0,0,0-.08.22.53.53,0,0,0,0,.28s0,.08,0,.12l.22.27c.11.12.2.25.3.37a64.27,64.27,0,0,0,5.53,6.36q1.32.15,2.64.18a9.35,9.35,0,0,0,3.79-.77.68.68,0,0,0,.27-.67.66.66,0,0,0-.52-.51,7.67,7.67,0,0,1-1.89-.8,1.54,1.54,0,0,1-.76-1.58,8.86,8.86,0,0,1,2.05-.4A22.1,22.1,0,0,1,86,212a8.38,8.38,0,0,1,1.33-2.08,31.9,31.9,0,0,1,3.24-3.13A23.85,23.85,0,0,0,94,202.69a16.47,16.47,0,0,1,2.92-2.86,7.12,7.12,0,0,0,2.47-3.64,30.14,30.14,0,0,0,1.7-6.93,17.91,17.91,0,0,1,2.85,2.79,22.66,22.66,0,0,1,1.71,2.4,5.52,5.52,0,0,1,.58,2.26q0,1,.06,1.95c.05.81.08,1.63.08,2.45a15.51,15.51,0,0,0,1.4,4.95c.4.85.76,1.72,1.09,2.61s.5,1.56.76,2.34l.05.17,3.24,9.8a9,9,0,0,0,1.62-.2,7.9,7.9,0,0,0-.14,1.94,5.88,5.88,0,0,0,.08,1,1.94,1.94,0,0,0,.67,1.22.85.85,0,0,0,.72.16,14.65,14.65,0,0,0,4.84-1.45q3.3-1.65,6.7-3.08a18.87,18.87,0,0,0,1.77-1.19l0,0a.45.45,0,0,0-.05-.55,1.37,1.37,0,0,0-.68-.39h0a1.16,1.16,0,0,0-.61,0,9.81,9.81,0,0,1-6.4-1,12.5,12.5,0,0,1,1.72-1.44q-3-8.44-6.57-16.64a11.8,11.8,0,0,1-1-4.22,7,7,0,0,0-1.42-4.21q-3.88-6.75-8.12-13.29.38-6.24,1-12.47a117.92,117.92,0,0,0,11.7,7.88,13.08,13.08,0,0,0,1.44-1.35c1,.33,1.9.7,2.82,1.12a1.33,1.33,0,0,0,1.1.12q1.52-.4,3-.9a2.25,2.25,0,0,0,.61-.33.63.63,0,0,0,.23-.46,4.31,4.31,0,0,0-.2-1.38c-.17-.53-.33-1.07-.47-1.61a1.69,1.69,0,0,0-.15-.43,1.33,1.33,0,0,0-.81-.53,2.43,2.43,0,0,0-.6-.05c-1,0-2-.09-3-.2a5,5,0,0,0,0-1q-6.78-4.68-13.8-9a41.55,41.55,0,0,0-7-20A4,4,0,0,1,102.75,135.9Z"/><path class="c" d="M180.2,150.09H147.89v5.11a2.27,2.27,0,0,1-2.27,2.26h-2.83a2.25,2.25,0,0,1-2.27-2.26v-5.11h-3.4v-2.55H135.7a3.39,3.39,0,0,1,0-4.25h1.42v-7.65a14.72,14.72,0,0,1,0-1.76,10.13,10.13,0,0,1,3.35-6.46,125.69,125.69,0,0,1,3.55-13.22,4.51,4.51,0,0,1,3.43-3,85.82,85.82,0,0,1,33.09,0,4.51,4.51,0,0,1,3.43,3,125.69,125.69,0,0,1,3.55,13.22,10.19,10.19,0,0,1,3.36,6.46,17.17,17.17,0,0,1,0,1.76v7.65h1.42a3.39,3.39,0,0,1,0,4.25H191v2.55h-3.4v5.11a2.25,2.25,0,0,1-2.26,2.26h-2.84a2.27,2.27,0,0,1-2.27-2.26Z"/><path class="c" d="M228.68,138.44a226.77,226.77,0,0,0,72.78,85.85h16.26a226.83,226.83,0,0,1-84.21-85.85Z"/><polygon class="c" points="260.39 126.89 264.36 124.6 264.36 178.14 331.26 178.14 331.26 124.6 335.23 126.89 335.23 122.31 297.81 100.71 260.39 122.31 260.39 126.89"/><path class="b" d="M151,142.72h26.08a5.68,5.68,0,0,0-1.42-7.37H152.42A5.67,5.67,0,0,0,151,142.72Z"/><path class="b" d="M146.75,135.35a3.69,3.69,0,1,0-3.68,3.69A3.68,3.68,0,0,0,146.75,135.35Z"/><path class="b" d="M183.05,127.54a90.88,90.88,0,0,0-38-.2,1.12,1.12,0,0,1-1.33-1.36q1.06-4.7,2.51-9.29a3.38,3.38,0,0,1,2.62-2.32,82.42,82.42,0,0,1,30.36,0,3.38,3.38,0,0,1,2.61,2.32q1.47,4.69,2.56,9.49a1.13,1.13,0,0,1-.3,1A1.11,1.11,0,0,1,183.05,127.54Z"/><path class="b" d="M188.71,135.35A3.69,3.69,0,1,0,185,139,3.69,3.69,0,0,0,188.71,135.35Z"/><polygon class="b" points="267.76 122.64 297.81 105.29 327.85 122.64 327.85 174.74 306.31 174.74 306.31 150.36 289.3 150.36 289.3 174.74 267.76 174.74 267.76 122.64"/><rect class="c" x="289.3" y="123.15" width="17.01" height="17.01"/></svg>