<svg xmlns="http://www.w3.org/2000/svg" viewBox="0 0 461.14 162.93"><defs><style>.a,.c{fill:#0c479d;}.a{stroke:#0c479d;}.b{fill:#fff;}</style></defs><title>F12-1 korkortonline.se</title><rect class="a" x="0.5" y="0.5" width="460.14" height="161.93"/><path class="b" d="M.5,12.69V150.24a12.19,12.19,0,0,0,12.19,12.19H448.45a12.19,12.19,0,0,0,12.19-12.19V12.69A12.19,12.19,0,0,0,448.45.5H12.69A12.19,12.19,0,0,0,.5,12.69Z"/><path class="c" d="M6.13,12.69V150.24a6.56,6.56,0,0,0,6.56,6.56H448.45a6.56,6.56,0,0,0,6.56-6.56V12.69a6.56,6.56,0,0,0-6.56-6.56H12.69a6.56,6.56,0,0,0-6.56,6.56Z"/><path class="b" d="M33.79,43.42H51.72a16.21,16.21,0,0,1,10.75,3.86,19,19,0,0,1,6.9,13.24,50.76,50.76,0,0,1,0,12.68,20.12,20.12,0,0,1-6.9,13A15.76,15.76,0,0,1,51.72,90.3H33.79V43.42Z"/><path class="c" d="M42.34,81.75V52h9.45A7.76,7.76,0,0,1,57,53.84a10.47,10.47,0,0,1,3.86,7.52,42.14,42.14,0,0,1,0,10.82,11.55,11.55,0,0,1-4.08,7.59,7.22,7.22,0,0,1-5,2Z"/><polygon class="b" points="114.05 43.42 128.94 90.3 119.97 90.3 117.25 81.75 98.15 81.75 95.44 90.3 86.47 90.3 101.36 43.42 114.05 43.42"/><polygon class="c" points="100.87 73.2 107.7 51.69 114.54 73.2 100.87 73.2"/><polygon class="b" points="156.24 62.72 156.24 81.75 171.14 81.75 171.14 90.3 147.69 90.3 147.69 62.72 147.69 43.42 156.24 43.42 156.24 62.72"/><path class="b" d="M218,40.66a6.35,6.35,0,1,0-6.34-6.35A6.35,6.35,0,0,0,218,40.66Z"/><path class="b" d="M194.3,40.66A6.35,6.35,0,1,0,188,34.31,6.35,6.35,0,0,0,194.3,40.66Z"/><polygon class="b" points="196.61 81.75 193.9 90.3 184.93 90.3 199.82 43.42 212.51 43.42 227.4 90.3 218.43 90.3 215.71 81.75 196.61 81.75"/><polygon class="c" points="199.33 73.2 206.16 51.69 213 73.2 199.33 73.2"/><polygon class="b" points="254.7 62.72 254.7 81.75 269.6 81.75 269.6 90.3 246.15 90.3 246.15 62.72 246.15 43.42 254.7 43.42 254.7 62.72"/><polygon class="b" points="325.86 43.42 310.96 90.3 298.28 90.3 283.38 43.42 292.36 43.42 304.62 82.03 316.89 43.42 325.86 43.42"/><polygon class="b" points="344.61 43.42 370.26 43.42 370.26 51.97 353.16 51.97 353.16 61.34 367.5 61.34 367.5 69.89 353.16 69.89 353.16 81.75 370.26 81.75 370.26 90.3 344.61 90.3 344.61 62.72 344.61 43.42"/><polygon class="b" points="390.67 43.42 400.32 43.42 418.52 74.58 418.52 43.42 427.07 43.42 427.07 90.3 417.8 90.3 399.22 58.48 399.22 90.3 390.67 90.3 390.67 43.42"/><path class="b" d="M153.89,122.57a51,51,0,0,1-76.67,0,51,51,0,0,1-38.34,17.35v-8.55a42.47,42.47,0,0,0,38.34-24.19,42.47,42.47,0,0,0,76.67,0,42.48,42.48,0,0,0,76.68,0,42.47,42.47,0,0,0,76.67,0,42.48,42.48,0,0,0,76.68,0,42.47,42.47,0,0,0,38.34,24.19v8.55a51,51,0,0,1-38.34-17.35,51,51,0,0,1-76.68,0,51,51,0,0,1-76.67,0,51,51,0,0,1-76.68,0Z"/></svg>