<svg xmlns="http://www.w3.org/2000/svg" viewBox="0 0 176.53 235.04"><defs><style>.a,.c{fill:#fff;}.a{stroke:#000;}.b{fill:#000;}</style></defs><title>F16-1 korkortonline.se</title><rect class="a" x="0.5" y="0.5" width="175.53" height="234.04"/><path class="b" d="M.5,10.25V224.79a9.75,9.75,0,0,0,9.75,9.75h156a9.73,9.73,0,0,0,9.75-9.75V10.25A9.75,9.75,0,0,0,166.28.5h-156A9.76,9.76,0,0,0,.5,10.25Z"/><rect class="c" x="5.38" y="5.38" width="165.78" height="224.29" rx="4.88"/><path class="b" d="M113.13,128.78a50.37,50.37,0,0,0-3.72-4.14l-34-34a40.94,40.94,0,0,1-12-29V55.11H83.88L57.55,20,31.22,55.11H51.7v6.55A52.65,52.65,0,0,0,67.12,98.9l34,34a40.94,40.94,0,0,1,12,29V215h11.7V55.11h20.48L119,20,92.65,55.11h20.48v73.67Z"/></svg>