<svg xmlns="http://www.w3.org/2000/svg" viewBox="0 0 166.78 235.04"><defs><style>.a,.c{fill:#fff;}.a{stroke:#000;}.b{fill:#000;}</style></defs><title>F17-1 korkortonline.se</title><rect class="a" x="0.5" y="0.5" width="165.78" height="234.04"/><path class="b" d="M.82,9.85V224.39a9.75,9.75,0,0,0,9.75,9.75H156.85a9.75,9.75,0,0,0,9.75-9.75V9.85A9.76,9.76,0,0,0,156.85.1H10.57A9.76,9.76,0,0,0,.82,9.85Z"/><rect class="c" x="5.7" y="4.98" width="156.03" height="224.29" rx="4.88"/><path class="b" d="M105.86,106.11c-.19.23-.38.44-.59.66a31.7,31.7,0,0,1-2.74,2.43l-30.8,23.25A39,39,0,0,0,60.31,160v54.61H48.6V160a50.73,50.73,0,0,1,13-33.88,36.92,36.92,0,0,1,3.89-3.5L95,100.39a20.36,20.36,0,0,0,1.86-1.73,39,39,0,0,0,10.28-26.4V54.71H86.64L113,19.6l26.33,35.11H118.82V214.64H107.11v-110C106.71,105.15,106.29,105.64,105.86,106.11Z"/></svg>