<svg xmlns="http://www.w3.org/2000/svg" viewBox="0 0 235.04 235.04"><defs><style>.a,.c{fill:#fff;}.a{stroke:#000;}.b{fill:#000;}</style></defs><title>F18-1 [Konvert] korkortonline.se</title><rect class="a" x="0.5" y="0.5" width="234.04" height="234.04"/><path class="b" d="M.5,10.25V224.79a9.75,9.75,0,0,0,9.75,9.75H224.79a9.73,9.73,0,0,0,9.75-9.75V10.25A9.75,9.75,0,0,0,224.79.5H10.25A9.76,9.76,0,0,0,.5,10.25Z"/><path class="c" d="M5.38,10.25V224.79a4.88,4.88,0,0,0,4.87,4.88H224.79a4.89,4.89,0,0,0,4.88-4.88V10.25a4.88,4.88,0,0,0-4.88-4.87H10.25a4.85,4.85,0,0,0-4.87,4.87Z"/><polygon class="b" points="54.13 177.01 27.8 141.9 48.28 141.9 48.28 52.19 59.99 52.19 59.99 141.9 80.47 141.9 54.13 177.01"/><polygon class="b" points="154.58 55.11 180.91 20 207.24 55.11 186.76 55.11 186.76 215.04 175.06 215.04 175.06 55.11 154.58 55.11"/><polygon class="b" points="112.65 20 138.97 55.11 118.5 55.11 118.5 215.04 106.79 215.04 106.79 55.11 86.32 55.11 112.65 20"/></svg>