<svg xmlns="http://www.w3.org/2000/svg" viewBox="0 0 543.46 562.88"><defs><style>.a,.c{fill:#0c479d;}.a{stroke:#0c479d;}.b{fill:#fff;}.d{fill:#dc0032;}.e{fill:#ffce00;}.f{fill:#000;}</style></defs><title>F2-1 korkortonline.se</title><rect class="a" x="0.5" y="0.5" width="542.46" height="561.88"/><rect class="b" x="0.5" y="0.5" width="542.46" height="561.88" rx="12.53"/><path class="c" d="M6.28,13V549.85A6.76,6.76,0,0,0,13,556.6h517.4a6.75,6.75,0,0,0,6.75-6.75V13a6.75,6.75,0,0,0-6.75-6.75H13A6.75,6.75,0,0,0,6.28,13Z"/><path class="b" d="M96.29,36.16v74.21a12.52,12.52,0,0,0,12.52,12.53H225.43A12.53,12.53,0,0,0,238,110.37V36.16a12.53,12.53,0,0,0-12.53-12.53H108.81A12.52,12.52,0,0,0,96.29,36.16Z"/><path class="c" d="M102.07,36.16v74.21a6.74,6.74,0,0,0,6.74,6.75H225.43a6.76,6.76,0,0,0,6.75-6.75V36.16a6.75,6.75,0,0,0-6.75-6.75H108.81A6.75,6.75,0,0,0,102.07,36.16Z"/><circle class="d" cx="392.52" cy="373.57" r="49.61" transform="translate(-149.19 386.97) rotate(-45)"/><path class="e" d="M365.19,346.94,414,405.11a38.16,38.16,0,0,1-48.81-58.17Z"/><path class="e" d="M371,342l48.81,58.17A38.16,38.16,0,0,0,371,342Z"/><polygon class="f" points="412.52 404.1 412.52 403.34 401.07 389.7 401.07 404.1 412.52 404.1"/><path class="f" d="M401.07,377.82v-7.3a2.29,2.29,0,0,0-2.29-2.29H393l-9.61-11.45h15.37a13.76,13.76,0,0,1,13.74,13.74v21Z"/><polygon class="f" points="368.1 356.78 373.45 356.78 383.06 368.23 368.1 368.23 368.1 371.44 359.17 362.51 368.1 353.58 368.1 356.78"/><path class="b" d="M34.71,242h19a13.89,13.89,0,0,1,10.78,22.67,14.69,14.69,0,0,1-9.93,25.51H34.71V242Z"/><path class="c" d="M54.55,281.36A5.9,5.9,0,0,0,56.82,270a12.08,12.08,0,0,0-2.55-.29H43.5v11.63Z"/><path class="c" d="M43.5,261H53.7a5.11,5.11,0,1,0,0-10.21H43.5Z"/><path class="b" d="M94.52,247.62a28.38,28.38,0,0,0,0,36.86,19.24,19.24,0,0,0,28.35,0,28.38,28.38,0,0,0,0-36.86,19.24,19.24,0,0,0-28.35,0Z"/><path class="c" d="M101.1,278.64a10.43,10.43,0,0,0,15.19,0,19.56,19.56,0,0,0,0-25.18,10.43,10.43,0,0,0-15.19,0,19.53,19.53,0,0,0,0,25.18Z"/><path class="b" d="M150.08,242H168.5a16.74,16.74,0,0,1,11.06,4,19.51,19.51,0,0,1,7.08,13.61,51.73,51.73,0,0,1,0,13,20.66,20.66,0,0,1-7.08,13.32,16.22,16.22,0,0,1-11.06,4.25H150.08V242Z"/><path class="c" d="M158.87,281.36V250.74h9.7a8,8,0,0,1,5.36,1.93,10.76,10.76,0,0,1,4,7.72,43.64,43.64,0,0,1,0,11.13,11.9,11.9,0,0,1-4.19,7.8,7.51,7.51,0,0,1-5.19,2Z"/><polygon class="b" points="232.56 241.96 247.87 290.14 238.65 290.14 235.86 281.36 216.23 281.36 213.44 290.14 204.22 290.14 219.52 241.96 232.56 241.96"/><polygon class="c" points="219.02 272.57 226.04 250.46 233.07 272.57 219.02 272.57"/><polygon class="b" points="266.36 49.17 292.73 49.17 292.73 57.96 275.15 57.96 275.15 67.6 289.89 67.6 289.89 76.38 275.15 76.38 275.15 97.36 266.36 97.36 266.36 69.01 266.36 49.17"/><polygon class="b" points="337.79 49.17 353.1 97.36 343.88 97.36 341.09 88.57 321.46 88.57 318.67 97.36 309.45 97.36 324.75 49.17 337.79 49.17"/><polygon class="c" points="324.25 79.78 331.27 57.67 338.3 79.78 324.25 79.78"/><polygon class="b" points="381.16 69.01 381.16 88.57 396.47 88.57 396.47 97.36 372.37 97.36 372.37 69.01 372.37 49.17 381.16 49.17 381.16 69.01"/><path class="b" d="M439.84,80.35V49.17h8.78V80.35a17.58,17.58,0,1,1-35.15,0V49.17h8.79V80.35a8.79,8.79,0,1,0,17.58,0Z"/><polygon class="b" points="471.01 49.17 480.94 49.17 499.65 81.2 499.65 49.17 508.43 49.17 508.43 97.36 498.91 97.36 479.8 64.65 479.8 97.36 471.01 97.36 471.01 49.17"/><path class="b" d="M384,257.55v-68h-19.5a6,6,0,0,1-4.25-10.26L392.52,147l32.26,32.26a6,6,0,0,1-4.26,10.26H401v68A116.22,116.22,0,0,1,452.43,473l-43.16,26A17,17,0,0,0,401,513.53v19H384V422.45a50.08,50.08,0,0,0,17,0v61.62l42.63-25.65A99.22,99.22,0,0,0,401,274.55v50.12a49.57,49.57,0,0,0-17,0V274.55H316v19.5a6,6,0,0,1-10.27,4.25l-32.25-32.25,32.25-32.25A6,6,0,0,1,316,238.05v19.5Z"/><path class="b" d="M144.89,84.6a7.33,7.33,0,0,0,.28-4.25,6.72,6.72,0,0,0-3.68-4.53A13.2,13.2,0,0,0,135,75a13.79,13.79,0,0,0-7.37,3.4l-7.37-3.69,5.38-25.51H152V58H132.74l-1.88,8.89a26.11,26.11,0,0,1,3.82-.67,19,19,0,0,1,9.92,1.42,15.5,15.5,0,0,1,9.08,10.48,15.66,15.66,0,0,1-.86,10.49,17.6,17.6,0,0,1-11.33,8.79,23.09,23.09,0,0,1-21-6.24l6.24-6a14.4,14.4,0,0,0,12.75,3.69A8.21,8.21,0,0,0,144.89,84.6Z"/><path class="b" d="M193.4,97.93a19,19,0,0,1-14.17-6.24,28.33,28.33,0,0,1,0-36.85,19.21,19.21,0,0,1,28.34,0,28.33,28.33,0,0,1,0,36.85A19.05,19.05,0,0,1,193.4,97.93Z"/><path class="c" d="M193.4,89.14a10.28,10.28,0,0,1-7.6-3.28,19.58,19.58,0,0,1,0-25.19,10.44,10.44,0,0,1,15.2,0,19.58,19.58,0,0,1,0,25.19A10.28,10.28,0,0,1,193.4,89.14Z"/></svg>