<svg xmlns="http://www.w3.org/2000/svg" viewBox="0 0 288.65 358.87"><defs><style>.a{fill:#0c479d;}.b{fill:#fff;}</style></defs><title>F21-1 korkortonline.se</title><rect class="a" width="288.65" height="358.87"/><rect class="b" x="4.39" y="5.85" width="6.83" height="19.5"/><rect class="b" x="4.39" y="87.77" width="6.83" height="19.5"/><rect class="b" x="4.39" y="169.68" width="6.83" height="19.5"/><rect class="b" x="4.39" y="251.6" width="6.83" height="19.5"/><rect class="b" x="4.39" y="333.51" width="6.83" height="19.5"/><rect class="b" x="140.91" y="333.51" width="6.83" height="19.5"/><rect class="b" x="140.91" y="251.6" width="6.83" height="19.5"/><rect class="b" x="140.91" y="169.68" width="6.83" height="19.5"/><rect class="b" x="140.91" y="87.77" width="6.83" height="19.5"/><rect class="b" x="140.91" y="5.85" width="6.83" height="19.5"/><polygon class="b" points="89.72 162.38 51.22 123.89 67.77 107.34 19.5 100.44 26.4 148.71 42.95 132.16 89.72 178.93 89.72 339.36 101.42 339.36 101.42 58.51 124.82 58.51 95.57 19.5 66.31 58.51 89.72 58.51 89.72 162.38"/><rect class="b" x="277.44" y="5.85" width="6.83" height="19.5"/><rect class="b" x="277.44" y="87.77" width="6.83" height="19.5"/><rect class="b" x="277.44" y="169.68" width="6.83" height="19.5"/><rect class="b" x="277.44" y="251.6" width="6.83" height="19.5"/><rect class="b" x="277.44" y="333.51" width="6.83" height="19.5"/><polygon class="b" points="262.25 148.71 245.71 132.16 212.59 165.28 212.59 339.36 200.89 339.36 200.89 160.43 237.43 123.89 220.88 107.34 269.15 100.44 262.25 148.71"/></svg>