<svg xmlns="http://www.w3.org/2000/svg" viewBox="0 0 319.94 351.93"><defs><style>.a{fill:#e97300;}.b{fill:#000;}</style></defs><title>F23-1 korkortonline.se</title><rect class="a" width="319.94" height="351.93"/><path class="b" d="M20,351.93H299.94a20,20,0,0,0,20-20V20a20,20,0,0,0-20-20H20A20,20,0,0,0,0,20V331.93a20,20,0,0,0,20,20Z"/><path class="a" d="M20,341.93H299.94a10,10,0,0,0,10-10V20a10,10,0,0,0-10-10H20A10,10,0,0,0,10,20V331.93A10,10,0,0,0,20,341.93Z"/><polygon class="b" points="95.98 29.99 95.98 70.66 247.95 88.66 247.95 263.27 95.98 281.27 95.98 321.94 71.99 321.94 71.99 259.95 223.96 241.95 223.96 109.98 71.99 91.98 71.99 29.99 95.98 29.99"/><rect class="b" x="71.99" y="205.96" width="24" height="24"/><rect class="b" x="71.99" y="163.97" width="24" height="24"/><rect class="b" x="71.99" y="121.98" width="24" height="24"/></svg>