<svg xmlns="http://www.w3.org/2000/svg" viewBox="0 0 521.58 578.27"><defs><style>.a{fill:#e97300;}.b{fill:#000;}</style></defs><title>F25-1 korkortonline.se</title><rect class="a" width="521.58" height="578.27"/><path class="b" d="M0,28.35V549.92a28.34,28.34,0,0,0,28.35,28.35H493.23a28.36,28.36,0,0,0,28.35-28.35V28.35A28.36,28.36,0,0,0,493.23,0H28.35A28.34,28.34,0,0,0,0,28.35Z"/><rect class="a" x="14.17" y="14.17" width="493.23" height="549.92" rx="14.17"/><polygon class="b" points="36.85 320.31 263.62 36.85 36.85 36.85 36.85 320.31"/><path class="b" d="M183.77,275.37a175.74,175.74,0,0,0-67.55,138.49v102h34v-102a141.73,141.73,0,0,1,54.47-111.69l35.64-28.05,36.81,46.78L310,197.65l-127.53,3,36.82,46.78-35.65,28.05Z"/><polygon class="b" points="374.17 515.91 374.17 164.41 314.64 164.41 391.18 62.36 467.72 164.41 408.19 164.41 408.19 515.91 374.17 515.91"/><rect class="b" x="255.12" y="348.66" width="17.01" height="45.35"/><rect class="b" x="255.12" y="433.7" width="17.01" height="45.36"/><rect class="b" x="255.12" y="518.74" width="17.01" height="45.36"/></svg>