<svg xmlns="http://www.w3.org/2000/svg" viewBox="0 0 231.04 93.49"><defs><style>.a{fill:#7c868d;}.b{fill:#000;}.c{fill:#ffce00;}</style></defs><title>F27-1 korkortonline.se</title><rect class="a" width="231.04" height="93.49"/><rect class="b" width="231.04" height="93.49" rx="37.35"/><path class="c" d="M7.23,37.35V56.14A30.11,30.11,0,0,0,37.35,86.26H193.69a30.13,30.13,0,0,0,30.12-30.12V37.35A30.11,30.11,0,0,0,193.69,7.23H37.35A30.11,30.11,0,0,0,7.23,37.35Z"/><path class="b" d="M66.27,22.65H57.83L62.9,70.84H87l-.26-.62a4.7,4.7,0,0,1-.36-2.34,49.31,49.31,0,0,1,14.2-30.2l7,7a1.2,1.2,0,0,0,2-.86v-20a1.2,1.2,0,0,0-1.2-1.2h-20a1.2,1.2,0,0,0-.85,2.05l7,7A57.78,57.78,0,0,0,79,46.92a1.21,1.21,0,0,1-1.1.74,1.19,1.19,0,0,1-1.12-.72Z"/><polygon class="b" points="46.74 70.84 22.65 70.84 43.38 22.65 51.81 22.65 46.74 70.84"/><path class="b" d="M195.65,58.08a7.26,7.26,0,0,0,.28-4.25,6.76,6.76,0,0,0-3.68-4.54,13.44,13.44,0,0,0-6.52-.85,13.88,13.88,0,0,0-7.37,3.41L171,48.16l5.38-25.51h26.37v8.79H183.5l-1.88,8.88a27.74,27.74,0,0,1,3.82-.66,19.09,19.09,0,0,1,9.93,1.41,15.54,15.54,0,0,1,9.07,10.49,15.72,15.72,0,0,1-.85,10.49,17.68,17.68,0,0,1-11.34,8.79,23.12,23.12,0,0,1-21-6.24l6.24-5.95a14.4,14.4,0,0,0,12.75,3.68A8.12,8.12,0,0,0,195.65,58.08Z"/><polygon class="b" points="128.88 31.44 128.88 22.65 162.89 22.65 162.89 30.59 146.17 70.84 136.65 70.84 153.02 31.44 128.88 31.44"/></svg>