<svg xmlns="http://www.w3.org/2000/svg" viewBox="0 0 788.73 550.59"><defs><style>.a,.c{fill:#0c479d;}.a{stroke:#0c479d;}.b{fill:#fff;}</style></defs><title>F3-1 korkortonline.se</title><rect class="a" x="0.5" y="436.36" width="787.73" height="113.73"/><rect class="a" x="0.5" y="291.56" width="787.73" height="144.8"/><rect class="a" x="0.5" y="0.5" width="334.91" height="145.53"/><rect class="a" x="0.5" y="146.03" width="787.73" height="145.53"/><rect class="b" x="0.5" y="0.5" width="334.91" height="145.53" rx="12.53"/><path class="b" d="M.5,448.89v88.67A12.53,12.53,0,0,0,13,550.09H775.7a12.53,12.53,0,0,0,12.53-12.53V448.89a12.53,12.53,0,0,0-12.53-12.53H13A12.53,12.53,0,0,0,.5,448.89Z"/><rect class="b" x="0.5" y="146.03" width="787.73" height="145.53" rx="12.53"/><rect class="b" x="0.5" y="291.56" width="787.73" height="144.8" rx="12.53"/><rect class="c" x="6.28" y="6.28" width="323.35" height="133.97" rx="6.75"/><rect class="c" x="6.28" y="442.14" width="776.17" height="102.16" rx="6.75"/><path class="c" d="M6.28,158.56V279A6.75,6.75,0,0,0,13,285.78H775.7a6.76,6.76,0,0,0,6.75-6.75V158.56a6.76,6.76,0,0,0-6.75-6.75H13a6.76,6.76,0,0,0-6.75,6.75Z"/><path class="c" d="M6.28,304.09V423.83A6.76,6.76,0,0,0,13,430.58H775.7a6.76,6.76,0,0,0,6.75-6.75V304.09a6.76,6.76,0,0,0-6.75-6.75H13a6.76,6.76,0,0,0-6.75,6.75Z"/><path class="b" d="M115.16,62.64,82.9,30.38,50.65,62.64A6,6,0,0,0,54.9,72.9H74.4v43.25h17V72.9h19.5a6,6,0,0,0,4.25-10.26Z"/><path class="b" d="M68.39,177.67a6,6,0,0,1,10.26,4.26v19.49H98.49a31.18,31.18,0,0,1,31.18,31.19v29.07h-17V232.61a14.18,14.18,0,0,0-14.18-14.18H78.65v19.5a6,6,0,0,1-10.26,4.25L36.13,209.93Z"/><path class="b" d="M97.42,323.2a6,6,0,0,0-10.26,4.26V347H67.31a31.17,31.17,0,0,0-31.18,31.18v28.34h17V378.14A14.18,14.18,0,0,1,67.31,364H87.16v19.5a6,6,0,0,0,10.26,4.25l32.26-32.25Z"/><path class="b" d="M159.52,36.16v74.21a12.53,12.53,0,0,0,12.53,12.53H288.67a12.53,12.53,0,0,0,12.53-12.53V36.16a12.53,12.53,0,0,0-12.53-12.53H172.05A12.53,12.53,0,0,0,159.52,36.16Z"/><path class="b" d="M159.52,181.69V255.9a12.53,12.53,0,0,0,12.53,12.53h191.8a12.53,12.53,0,0,0,12.52-12.53V181.69a12.53,12.53,0,0,0-12.52-12.53H172.05A12.53,12.53,0,0,0,159.52,181.69Z"/><rect class="c" x="165.31" y="29.41" width="130.11" height="87.7" rx="6.75"/><path class="c" d="M165.31,181.69V255.9a6.75,6.75,0,0,0,6.74,6.75h191.8a6.74,6.74,0,0,0,6.74-6.75V181.69a6.74,6.74,0,0,0-6.74-6.75H172.05a6.74,6.74,0,0,0-6.74,6.75Z"/><path class="b" d="M213.35,71.18A9.82,9.82,0,0,1,216.19,74a15.22,15.22,0,0,1,.28,15.59,17.08,17.08,0,0,1-11.05,7.65,28.68,28.68,0,0,1-10.77,0,17.1,17.1,0,0,1-11.06-7.65A15.22,15.22,0,0,1,183.87,74a9.94,9.94,0,0,1,2.84-2.83,13.12,13.12,0,0,1-2.84-7.94A13.36,13.36,0,0,1,191,50.77a21.54,21.54,0,0,1,18.14,0,13,13,0,0,1,7.09,12.47A13.71,13.71,0,0,1,213.35,71.18Z"/><path class="c" d="M196.63,76h6.8a6.1,6.1,0,0,1,2,.28,6.61,6.61,0,0,1,3.4,2.55,6,6,0,0,1,.28,6,9.09,9.09,0,0,1-5.95,4,16.79,16.79,0,0,1-6.24,0,9.09,9.09,0,0,1-5.95-4,6,6,0,0,1,.28-6,6.63,6.63,0,0,1,3.41-2.55A5.56,5.56,0,0,1,196.63,76Z"/><path class="c" d="M196.35,66.92h7.08a4.05,4.05,0,0,0,4.26-4,4.75,4.75,0,0,0-2.56-4.54,12.12,12.12,0,0,0-10.2,0A4.74,4.74,0,0,0,192.38,63a3.89,3.89,0,0,0,4,4Z"/><path class="b" d="M257.91,97.93a19.07,19.07,0,0,1-14.17-6.24,28.36,28.36,0,0,1,0-36.85,19.22,19.22,0,0,1,28.35,0,28.36,28.36,0,0,1,0,36.85A19.07,19.07,0,0,1,257.91,97.93Z"/><path class="c" d="M257.91,89.14a10.24,10.24,0,0,1-7.59-3.28,19.54,19.54,0,0,1,0-25.19,10.43,10.43,0,0,1,15.19,0,19.58,19.58,0,0,1,0,25.19A10.28,10.28,0,0,1,257.91,89.14Z"/><path class="b" d="M286,504.56a7.26,7.26,0,0,0,.29-4.25,6.8,6.8,0,0,0-3.69-4.54,13.44,13.44,0,0,0-6.52-.85,13.88,13.88,0,0,0-7.37,3.41l-7.37-3.69,5.39-25.51h26.36v8.79H273.81l-1.87,8.88a27.23,27.23,0,0,1,3.82-.66,19,19,0,0,1,9.92,1.41,15.8,15.8,0,0,1,8.22,21,17.65,17.65,0,0,1-11.34,8.79,23.12,23.12,0,0,1-21-6.24l6.24-5.95a14.42,14.42,0,0,0,12.76,3.68A8.13,8.13,0,0,0,286,504.56Z"/><path class="b" d="M334.47,517.88a19,19,0,0,1-14.17-6.23,28.36,28.36,0,0,1,0-36.85,19.22,19.22,0,0,1,28.35,0,28.36,28.36,0,0,1,0,36.85A19,19,0,0,1,334.47,517.88Z"/><path class="c" d="M334.47,509.1a10.26,10.26,0,0,1-7.59-3.28,19.54,19.54,0,0,1,0-25.19,10.43,10.43,0,0,1,15.19,0,19.58,19.58,0,0,1,0,25.19A10.28,10.28,0,0,1,334.47,509.1Z"/><path class="b" d="M395.13,517.88A19,19,0,0,1,381,511.65a28.36,28.36,0,0,1,0-36.85,19.22,19.22,0,0,1,28.35,0,28.36,28.36,0,0,1,0,36.85A19,19,0,0,1,395.13,517.88Z"/><path class="c" d="M395.13,509.1a10.26,10.26,0,0,1-7.59-3.28,19.54,19.54,0,0,1,0-25.19,10.43,10.43,0,0,1,15.19,0,19.58,19.58,0,0,1,0,25.19A10.28,10.28,0,0,1,395.13,509.1Z"/><path class="b" d="M480.54,517.32h8.78V495.5a4.82,4.82,0,1,1,9.64,0v21.82h8.79V495.5a4.82,4.82,0,1,1,9.64,0v21.82h8.78V492.94a11.38,11.38,0,0,0-20.69-6.52,12,12,0,0,0-16.16-2.84v-1.41h-8.78Z"/><path class="b" d="M207.29,234.1a14.83,14.83,0,0,1,4.53-4.53l11.91-6.81a15.58,15.58,0,0,0,6.52-7.65,16.69,16.69,0,0,0,0-10.77,15.5,15.5,0,0,0-9.35-9.07,26.61,26.61,0,0,0-14.75.28A14.72,14.72,0,0,0,196.23,210H205a6.22,6.22,0,0,1,4.25-6.24,16.45,16.45,0,0,1,9.07,0,6,6,0,0,1,3.69,3.69,6.42,6.42,0,0,1,0,4.53,6.22,6.22,0,0,1-2.55,3.12l-11.91,6.8a23.3,23.3,0,0,0-11.34,21H231.1V234.1Z"/><polygon class="b" points="250.94 203.49 250.94 194.7 284.96 194.7 284.96 202.64 268.23 242.89 258.72 242.89 275.09 203.49 250.94 203.49"/><path class="b" d="M315.85,234.1a14.76,14.76,0,0,1,4.54-4.53l11.9-6.81a15.58,15.58,0,0,0,6.52-7.65,16.69,16.69,0,0,0,0-10.77,15.48,15.48,0,0,0-9.35-9.07,26.58,26.58,0,0,0-14.74.28A14.72,14.72,0,0,0,304.8,210h8.79a6.21,6.21,0,0,1,4.25-6.24,16.45,16.45,0,0,1,9.07,0,6,6,0,0,1,3.68,3.69,6.42,6.42,0,0,1,0,4.53,6.22,6.22,0,0,1-2.55,3.12l-11.9,6.8a23.28,23.28,0,0,0-11.34,21h34.86V234.1Z"/><path class="b" d="M404.77,194.7h19a13.9,13.9,0,0,1,10.77,22.68,14.69,14.69,0,0,1-9.92,25.51H404.77V194.7Z"/><path class="c" d="M424.62,234.1a5.9,5.9,0,0,0,2.27-11.34,12.24,12.24,0,0,0-2.56-.28H413.56V234.1Z"/><path class="c" d="M413.56,213.69h10.21a5.1,5.1,0,1,0,0-10.2H413.56Z"/><path class="b" d="M464.58,200.37a28.36,28.36,0,0,0,0,36.85,19.22,19.22,0,0,0,28.35,0,28.36,28.36,0,0,0,0-36.85,19.22,19.22,0,0,0-28.35,0Z"/><path class="c" d="M471.16,231.39a10.43,10.43,0,0,0,15.19,0,19.54,19.54,0,0,0,0-25.19,10.43,10.43,0,0,0-15.19,0,19.58,19.58,0,0,0,0,25.19Z"/><polygon class="b" points="528.93 214.54 528.93 234.1 544.24 234.1 544.24 242.89 520.14 242.89 520.14 214.54 520.14 194.7 528.93 194.7 528.93 214.54"/><polygon class="b" points="570.03 214.54 570.03 234.1 585.34 234.1 585.34 242.89 561.24 242.89 561.24 214.54 561.24 194.7 570.03 194.7 570.03 214.54"/><polygon class="b" points="602.34 194.7 612.26 194.7 630.97 226.73 630.97 194.7 639.76 194.7 639.76 242.89 630.23 242.89 611.13 210.18 611.13 242.89 602.34 242.89 602.34 194.7"/><path class="b" d="M693.33,191.87a6.52,6.52,0,1,0-6.52-6.52A6.52,6.52,0,0,0,693.33,191.87Z"/><path class="b" d="M669,191.87a6.52,6.52,0,1,0-6.52-6.52A6.52,6.52,0,0,0,669,191.87Z"/><polygon class="b" points="671.33 234.1 668.53 242.89 659.31 242.89 674.62 194.7 687.66 194.7 702.97 242.89 693.75 242.89 690.96 234.1 671.33 234.1"/><polygon class="c" points="674.12 225.32 681.14 203.2 688.16 225.32 674.12 225.32"/><path class="b" d="M732.14,211.24,745,215a15.13,15.13,0,0,1,9.07,7.09,13,13,0,0,1,0,13.32A14.27,14.27,0,0,1,742.44,243a24.68,24.68,0,0,1-22.11-7.65l6.47-6a15.88,15.88,0,0,0,14.66,4.85,5.51,5.51,0,0,0,4.93-3.2,4.22,4.22,0,0,0,.09-4.59,6.46,6.46,0,0,0-3.89-3.07l-12.75-3.68a12,12,0,0,1-6.23-19h0a16.51,16.51,0,0,1,10.24-6.08,25,25,0,0,1,20.86,5.7L749,207a16.24,16.24,0,0,0-13.6-3.68,7.62,7.62,0,0,0-4.82,2.83h0l0,0h0l0,0a3.22,3.22,0,0,0-.54,3A3.26,3.26,0,0,0,732.14,211.24Z"/><polygon class="b" points="159.52 339.87 185.89 339.87 185.89 348.65 168.31 348.65 168.31 358.29 183.05 358.29 183.05 367.08 168.31 367.08 168.31 388.06 159.52 388.06 159.52 359.71 159.52 339.87"/><path class="b" d="M210.55,345.54a28.33,28.33,0,0,0,0,36.85,19.23,19.23,0,0,0,28.34,0,28.33,28.33,0,0,0,0-36.85,19.21,19.21,0,0,0-28.34,0Z"/><path class="c" d="M217.12,376.55a10.44,10.44,0,0,0,15.2,0,19.56,19.56,0,0,0,0-25.18,10.44,10.44,0,0,0-15.2,0,19.56,19.56,0,0,0,0,25.18Z"/><path class="b" d="M300.4,388.06h-9.92l-10.2-19.56h-5.39v19.56H266.1V339.87h18.71a14.31,14.31,0,0,1,4.92,27.75l10.66,20.44Z"/><path class="c" d="M274.89,359.71V348.65h9.92a5.53,5.53,0,0,1,0,11.06Z"/><path class="b" d="M329.86,356.4l12.85,3.71a15.16,15.16,0,0,1,9.07,7.09,13,13,0,0,1,0,13.32,14.3,14.3,0,0,1-11.62,7.66,24.69,24.69,0,0,1-22.11-7.66l6.47-5.95a15.89,15.89,0,0,0,14.66,4.86,5.5,5.5,0,0,0,4.92-3.2,4.22,4.22,0,0,0,.09-4.6,6.36,6.36,0,0,0-3.88-3.06l-12.75-3.69a12,12,0,0,1-6.23-19h0a16.48,16.48,0,0,1,10.23-6.08,25,25,0,0,1,20.87,5.7l-5.75,6.65a16.23,16.23,0,0,0-13.61-3.69,7.68,7.68,0,0,0-4.82,2.84h0l0,0h0l0,0a3.23,3.23,0,0,0,1.61,5.07Z"/><path class="b" d="M373.81,339.87h19a13.89,13.89,0,0,1,10.77,22.67,14.69,14.69,0,0,1-9.92,25.52H373.81V339.87Z"/><path class="c" d="M393.66,379.27a5.9,5.9,0,0,0,2.26-11.34,11.45,11.45,0,0,0-2.55-.28H382.6v11.62Z"/><path class="c" d="M382.6,358.86h10.21a5.11,5.11,0,0,0,0-10.21H382.6Z"/><polygon class="b" points="454.03 339.87 469.34 388.06 460.12 388.06 457.33 379.27 437.69 379.27 434.9 388.06 425.68 388.06 440.99 339.87 454.03 339.87"/><polygon class="c" points="440.49 370.48 447.51 348.37 454.54 370.48 440.49 370.48"/><path class="b" d="M521.21,344.44a20.82,20.82,0,0,0-15.59-4.82A21.84,21.84,0,0,0,490,350.4a28.08,28.08,0,0,0-3.12,13.6,29.53,29.53,0,0,0,3.4,14.18,19.67,19.67,0,0,0,15.59,10.2,20.41,20.41,0,0,0,15.31-4.82l-5.72-6.67a11.65,11.65,0,0,1-8.78,2.74,10.86,10.86,0,0,1-8.65-5.61A20.6,20.6,0,0,1,495.7,364a19.37,19.37,0,0,1,2.05-9.37,13.06,13.06,0,0,1,9-6.25,12,12,0,0,1,8.76,2.8Z"/><polygon class="b" points="550.4 358.57 565.48 339.87 576.76 339.87 561.46 358.86 577.33 388.06 567.33 388.06 555.49 366.27 550.4 372.57 550.4 388.06 541.62 388.06 541.62 339.87 550.4 339.87 550.4 358.57 550.4 358.57"/><polygon class="b" points="623.25 339.87 638.56 388.06 629.34 388.06 626.55 379.27 606.91 379.27 604.12 388.06 594.9 388.06 610.21 339.87 623.25 339.87"/><polygon class="c" points="609.71 370.48 616.73 348.37 623.75 370.48 609.71 370.48"/></svg>