<svg xmlns="http://www.w3.org/2000/svg" viewBox="0 0 141.91 99.39"><defs><style>.a,.c{fill:#fff;}.a{stroke:#000;stroke-linecap:round;stroke-linejoin:round;stroke-width:0.18px;}.b{fill:#000;}</style></defs><title>F30-1 korkortonline.se</title><rect class="a" x="0.09" y="0.09" width="141.73" height="99.21"/><path class="b" d="M12.84,99.3H129.06a12.77,12.77,0,0,0,12.76-12.76V12.84A12.75,12.75,0,0,0,129.06.09H12.84A12.74,12.74,0,0,0,.09,12.84v73.7A12.75,12.75,0,0,0,12.84,99.3Z"/><rect class="c" x="5.76" y="5.76" width="130.39" height="87.87" rx="7.09"/><path class="b" d="M106.39,49.69A35.44,35.44,0,1,0,71,85.13,35.44,35.44,0,0,0,106.39,49.69Z"/><path class="c" d="M93,49.69a22,22,0,1,0-22,22A22,22,0,0,0,93,49.69Z"/></svg>