<svg xmlns="http://www.w3.org/2000/svg" viewBox="0 0 136.24 88.05"><defs><style>.a,.c{fill:#0c479d;}.a{stroke:#0c479d;stroke-linecap:round;stroke-linejoin:round;stroke-width:0.18px;}.b{fill:#fff;}</style></defs><title>F31-1 korkortonline.se</title><rect class="a" x="0.09" y="0.09" width="136.06" height="87.87"/><rect class="b" x="0.09" y="0.09" width="136.06" height="87.87" rx="9.92"/><path class="c" d="M10,4.34H126.23A5.67,5.67,0,0,1,131.9,10V78a5.67,5.67,0,0,1-5.67,5.67H10A5.67,5.67,0,0,1,4.34,78V10A5.67,5.67,0,0,1,10,4.34Z"/><path class="b" d="M50.41,19.75h66a2.87,2.87,0,0,1,2.86,2.86V61a2.85,2.85,0,0,1-2.85,2.85h-5.49a8.57,8.57,0,1,1-16.73,0H89.91a8.57,8.57,0,1,1-16.73,0H40.64a8.57,8.57,0,1,1-16.73,0H18.42a1.28,1.28,0,0,1-1.29-1.28V48.84L21.92,36a5.72,5.72,0,0,1,5.35-3.71h15a2.29,2.29,0,0,1,2.28,2.28v9.71h3V22.6a2.85,2.85,0,0,1,2.86-2.85Z"/><polygon class="c" points="24.83 38.03 21.42 47.17 40.98 47.17 40.98 38.03 24.83 38.03"/></svg>