<svg xmlns="http://www.w3.org/2000/svg" viewBox="0 0 341.16 227.77"><defs><style>.a,.c{fill:#fff;}.a{stroke:#000;}.b{fill:#dc0032;}</style></defs><title>F33-1 korkortonline.se</title><rect class="a" x="0.5" y="0.5" width="340.16" height="226.77"/><path class="b" d="M.5,25.16V202.61a24.66,24.66,0,0,0,24.66,24.66H316a24.66,24.66,0,0,0,24.66-24.66V25.16A24.66,24.66,0,0,0,316,.5H25.16A24.65,24.65,0,0,0,.5,25.16Z"/><path class="c" d="M13.26,25.16V202.61a11.9,11.9,0,0,0,11.9,11.91H316a11.9,11.9,0,0,0,11.9-11.91V25.16A11.9,11.9,0,0,0,316,13.26H25.16a11.88,11.88,0,0,0-11.9,11.9Z"/><ellipse class="b" cx="170.58" cy="113.89" rx="119.05" ry="87.87"/><path class="c" d="M64.28,113.89a52.92,52.92,0,0,0,1,10.31,56.46,56.46,0,0,0,3.1,10.22,63.1,63.1,0,0,0,5.17,10,73.62,73.62,0,0,0,7.26,9.52,84.84,84.84,0,0,0,9.26,8.83,98.39,98.39,0,0,0,11.11,7.88,111.71,111.71,0,0,0,12.73,6.7A126.43,126.43,0,0,0,128,182.64a136.76,136.76,0,0,0,15.08,3.77,146.34,146.34,0,0,0,15.74,2.13,147.37,147.37,0,0,0,16,.4,145.2,145.2,0,0,0,15.92-1.32,141.65,141.65,0,0,0,15.43-3A132,132,0,0,0,220.76,180a120.25,120.25,0,0,0,13.4-6.08,104.59,104.59,0,0,0,11.9-7.35,90.38,90.38,0,0,0,10.15-8.42,77,77,0,0,0,8.21-9.22,67,67,0,0,0,6.17-9.79A59.64,59.64,0,0,0,274.66,129a53.72,53.72,0,0,0,2-10.29,52.34,52.34,0,0,0-.06-10.32A54.47,54.47,0,0,0,274,96.6,60.5,60.5,0,0,0,268.6,85a71.6,71.6,0,0,0-8.13-11,85,85,0,0,0-10.79-10.1,100.34,100.34,0,0,0-13.2-8.81A117.91,117.91,0,0,0,221.24,48a132.88,132.88,0,0,0-16.83-5.23,142.19,142.19,0,0,0-17.91-3.09,147.84,147.84,0,0,0-36.73.61,139.22,139.22,0,0,0-17.66,3.68,128.78,128.78,0,0,0-16.46,5.77,113,113,0,0,0-14.74,7.64,97.17,97.17,0,0,0-12.58,9.19A81.94,81.94,0,0,0,78.24,76.9a69.22,69.22,0,0,0-7.4,11.2,59,59,0,0,0-4.63,11.66,53.28,53.28,0,0,0-1.88,11.85C64.3,112.37,64.28,113.13,64.28,113.89Z"/><polygon class="b" points="213.2 159.24 213.2 110.82 205.59 110.82 205.59 103.21 216 91.21 225.6 91.21 225.6 121.62 225.6 159.24 213.2 159.24"/><path class="b" d="M184.25,159.24H165.58l-19.21-36.82H136.23v36.82H119.69V68.53h35.22a26.95,26.95,0,0,1,9.26,52.25l20.07,38.46Z"/><path class="c" d="M136.23,105.88V85.07h18.68a10.41,10.41,0,0,1,0,20.81Z"/></svg>