<svg xmlns="http://www.w3.org/2000/svg" viewBox="0 0 345.36 74.59"><defs><style>.a,.c,.d{fill:#00205c;}.a{stroke:#00205c;}.b{fill:#fff;}.c{stroke:#000;stroke-linecap:round;stroke-linejoin:round;stroke-width:0.18px;}</style></defs><title>F34-1 korkortonline.se</title><rect class="a" x="0.5" y="0.5" width="344.36" height="73.59"/><path class="b" d="M290,74.09a14.64,14.64,0,0,0,8.25-2.55l44.58-30.38a4.67,4.67,0,0,0,0-7.73L298.23,3A14.71,14.71,0,0,0,290,.5H8.61A8.11,8.11,0,0,0,.5,8.61V66a8.11,8.11,0,0,0,8.11,8.11Z"/><path class="c" d="M290,70.35A10.93,10.93,0,0,0,297.8,67l25.78-26.48a4.7,4.7,0,0,0,0-6.53L297.8,7.54A10.92,10.92,0,0,0,290,4.24H81.26V70.35Z"/><path class="d" d="M72.84,4.24H8.92A4.69,4.69,0,0,0,4.24,8.92V65.67a4.69,4.69,0,0,0,4.68,4.68H72.84a4.69,4.69,0,0,0,4.68-4.68V8.92a4.68,4.68,0,0,0-4.68-4.68Z"/><path class="b" d="M35.26,43.82l-1.81-.12A9.63,9.63,0,0,1,14.29,43l-.42,0a10.06,10.06,0,0,1,10-10.7,10.19,10.19,0,0,1,4.5,1.06l2.75-4.76-1-2.29-2.79-1.27a.94.94,0,0,1-.53-1.05.93.93,0,0,1,.91-.74q3.47-.12,6.93-.1a.68.68,0,0,1,.69.5.69.69,0,0,1-.34.78q-1.83,1-3.72,1.83l1,2.24H49.71L48.4,25.35A2.11,2.11,0,0,0,48.29,23a2.14,2.14,0,0,0-2.24-.8h0l-1.89.48-.52.13-.26-1,.52-.13,1.89-.48h0a3.21,3.21,0,0,1,3.78,4.25L53,33.84a10,10,0,0,1,5.08-1.47v.43a9.63,9.63,0,1,1-7.64,15.31l-.34.25a10.06,10.06,0,0,1,2-13.9L51.5,33,40.93,42.19a3,3,0,0,1-3,4.29l-.63,2.05h.66V49.6H35.21V48.53h.95l.72-2.36A3,3,0,0,1,35.26,43.82Z"/><path class="d" d="M54.59,40.67A3.76,3.76,0,0,0,58.21,43a.52.52,0,0,0,.46-.27.51.51,0,0,0,0-.53.52.52,0,0,0-.46-.27,2.68,2.68,0,0,1-2.56-1.48l-1.9-4.72a8,8,0,1,1-.88.67l1.72,4.28Z"/><path class="d" d="M24.83,41.75l3.5-6.06A8,8,0,0,1,32,42.53l-7-.46Z"/><path class="d" d="M23.87,41.28a1.15,1.15,0,0,0-.45,2.19,1.13,1.13,0,0,0,1.39-.34l7.07.47a8.07,8.07,0,1,1-4.48-8.43Z"/><path class="d" d="M38.37,38.58V37.51h2.72v1.07h-.77l-.69,2.27a2.84,2.84,0,0,1,.67.48L51.07,32l-.93-2.32H32.75l4.87,10.93a2.74,2.74,0,0,1,1,0l.59-2Z"/><path class="d" d="M31.69,29.88,29.33,34a10.08,10.08,0,0,1,4.47,6.71,9.48,9.48,0,0,1,.15,2l1.39.09A3,3,0,0,1,36.63,41L31.81,30.15Z"/><path class="b" d="M118.7,24.66a13.45,13.45,0,0,0-10.09-3.11,14.11,14.11,0,0,0-10.09,7,18.27,18.27,0,0,0-2,8.8,19.13,19.13,0,0,0,2.2,9.17,12.69,12.69,0,0,0,10.09,6.6A13.23,13.23,0,0,0,118.7,50L115,45.66a7.49,7.49,0,0,1-5.68,1.77,7,7,0,0,1-5.6-3.63,13.26,13.26,0,0,1-1.53-6.51,12.61,12.61,0,0,1,1.33-6.06,8.39,8.39,0,0,1,5.82-4A7.73,7.73,0,0,1,115,29Z"/><path class="b" d="M129.85,41.62a11.72,11.72,0,0,0,4.77,9.72,10.35,10.35,0,0,0,6.42,2,13.16,13.16,0,0,0,8.36-2.75L146.1,46a7.23,7.23,0,0,1-6.16,1.66,5.55,5.55,0,0,1-4.22-4.77h16V41.09a11.79,11.79,0,0,0-4.77-9.19,10.36,10.36,0,0,0-12.29,0A11.74,11.74,0,0,0,129.85,41.62Z"/><path class="d" d="M145.62,39.24a4.92,4.92,0,0,0-9.72,0Z"/><path class="b" d="M157.75,52.88h5.68V39.13a3.58,3.58,0,1,1,7.15,0V52.88h5.69V37.94a8.24,8.24,0,0,0-12.84-6.7v-1.1h-5.68Z"/><path class="b" d="M186.78,35.83V49a3.68,3.68,0,0,0,3.85,3.85h4V47.2h-.92a1.19,1.19,0,0,1-1.28-1.29V35.83h2.84V30.14h-2.84V21.7l-5.69,2.75v5.69h-2.29v5.69Z"/><path class="b" d="M204.69,52.88h5.69V41.51a6.86,6.86,0,0,1,3.3-4.95,5.87,5.87,0,0,1,3.3-.92,4.8,4.8,0,0,1,2,.37V30.14a12,12,0,0,0-8.62,1.65V30.14h-5.69Z"/><path class="b" d="M232.21,30.14h-5.69v15a8.23,8.23,0,0,0,12.84,6.69v1.1H245V30.14h-5.68V43.9a3.58,3.58,0,0,1-7.15,0Z"/><path class="b" d="M255.31,52.88H261V38.76a3.12,3.12,0,1,1,6.24,0V52.88h5.68V38.76a3.12,3.12,0,1,1,6.24,0V52.88h5.68V37.11a7.37,7.37,0,0,0-13.39-4.22A7.75,7.75,0,0,0,261,31.06v-.92h-5.69Z"/></svg>