<svg xmlns="http://www.w3.org/2000/svg" viewBox="0 0 360.09 254.92"><defs><style>.a,.c{fill:#00205c;}.a{stroke:#00205c;}.b{fill:#fff;}</style></defs><title>F35-1 korkortonline.se</title><rect class="a" x="0.5" y="0.5" width="359.09" height="71.6"/><rect class="b" x="0.5" y="0.5" width="359.09" height="71.6" rx="7.89"/><rect class="c" x="4.14" y="4.14" width="351.81" height="64.32" rx="4.25"/><path class="b" d="M185.51,42.65l1.76-.12a9.38,9.38,0,0,0,18.65-.64l.41,0a9.79,9.79,0,0,0-9.76-10.41,9.93,9.93,0,0,0-4.38,1l-2.68-4.63,1-2.23,2.71-1.24a.91.91,0,0,0-.37-1.73c-2.25-.08-4.5-.11-6.74-.11a.66.66,0,0,0-.34,1.25c1.18.65,2.39,1.24,3.62,1.78l-1,2.19h-17l1.26-3.14a2.09,2.09,0,0,1,2.3-3.09h0l1.83.47.51.13.25-1-.5-.13-1.85-.47h0a3.12,3.12,0,0,0-3.68,4.14l-3.32,8.22a9.87,9.87,0,0,0-5-1.43v.41a9.37,9.37,0,1,0,7.43,14.9l.33.25a9.78,9.78,0,0,0-1.93-13.53l.56-1.41L180,41.07a2.91,2.91,0,0,0,2.95,4.16l.61,2h-.64v1h2.65v-1h-.92l-.7-2.29A2.9,2.9,0,0,0,185.51,42.65Z"/><rect class="a" x="0.5" y="72.1" width="359.09" height="91.16"/><rect class="a" x="0.5" y="163.26" width="359.09" height="91.16"/><path class="b" d="M.5,171.15v75.39a7.88,7.88,0,0,0,7.89,7.88H351.7a7.88,7.88,0,0,0,7.89-7.88V171.15a7.89,7.89,0,0,0-7.89-7.89H8.39A7.89,7.89,0,0,0,.5,171.15Z"/><rect class="b" x="0.5" y="72.1" width="359.09" height="91.16" rx="7.89"/><rect class="c" x="4.14" y="75.74" width="351.81" height="83.88" rx="4.25"/><rect class="c" x="4.14" y="166.9" width="351.81" height="83.88" rx="4.25"/><path class="b" d="M43.24,183.18a3.78,3.78,0,0,1,6.46,2.68v12.28H62.19a19.63,19.63,0,0,1,19.64,19.63v17.84H71.12V217.77a8.93,8.93,0,0,0-8.93-8.93H49.7v12.28a3.78,3.78,0,0,1-6.46,2.68L22.93,203.49Z"/><polygon class="b" points="100.53 220.44 100.53 202.6 100.53 190.1 106.06 190.1 106.06 201.53 117.31 201.53 117.31 190.1 122.84 190.1 122.84 202.6 122.84 220.44 117.31 220.44 117.31 207.06 106.06 207.06 106.06 220.44 100.53 220.44"/><path class="b" d="M152.73,198.31H147.2v1.61a7.94,7.94,0,0,0-3.57-1.61,9.42,9.42,0,0,0-5.18.36,10.59,10.59,0,0,0-5.35,5.18,16,16,0,0,0,0,11.24,10.21,10.21,0,0,0,6.24,5.53,9.15,9.15,0,0,0,4.29,0,8.94,8.94,0,0,0,3.57-1.6v1.42h5.53Z"/><path class="b" d="M176.64,220.8v-2.32a7.35,7.35,0,0,1-3.21,1.43,8.41,8.41,0,0,1-4.11,0,10.27,10.27,0,0,1-6.24-5.53,14.1,14.1,0,0,1,0-10.53,10.59,10.59,0,0,1,5.35-5.18,8.8,8.8,0,0,1,5-.36,6.62,6.62,0,0,1,3.21,1.61v-1.61h5.53V220.8a6.85,6.85,0,0,1-4.28,6.78,18.31,18.31,0,0,1-6.25,1.25,18.67,18.67,0,0,1-8.56-1.6l2.32-4.65A13.46,13.46,0,0,0,172,224a7.94,7.94,0,0,0,2.68-.53A3.25,3.25,0,0,0,176.64,220.8Z"/><path class="b" d="M212.15,198.31h-5.53v1.61a7.89,7.89,0,0,0-3.57-1.61,9.39,9.39,0,0,0-5.17.36,10.61,10.61,0,0,0-5.36,5.18,16.1,16.1,0,0,0,0,11.24,10.25,10.25,0,0,0,6.25,5.53,9.11,9.11,0,0,0,4.28,0,8.88,8.88,0,0,0,3.57-1.6v1.42h5.53Z"/><path class="b" d="M72.69,111.22,52.38,90.91,32.07,111.22a3.78,3.78,0,0,0,2.68,6.46H47v26.77h10.7V117.68H70a3.78,3.78,0,0,0,2.68-6.46Z"/><polygon class="b" points="106.06 114.29 115.55 102.51 122.66 102.51 113.02 114.47 123.02 132.85 116.72 132.85 109.26 119.14 106.06 123.1 106.06 132.85 100.53 132.85 100.53 102.51 106.06 102.51 106.06 114.29 106.06 114.29"/><path class="b" d="M137,110.72h-5.53v14.54A8,8,0,0,0,144,131.78v1.07h5.53V110.72H144v13.39a3.48,3.48,0,0,1-7,0Z"/><path class="b" d="M159.5,132.85H165V119.11a3,3,0,1,1,6.07,0v13.74h5.53V119.11a3,3,0,1,1,6.07,0v13.74h5.53V117.5a7.17,7.17,0,0,0-13-4.1A7.56,7.56,0,0,0,165,111.61v-.89H159.5Z"/><polygon class="b" points="198.23 132.85 203.76 132.85 203.76 115 203.76 102.51 198.23 102.51 198.23 115 198.23 132.85"/><path class="b" d="M233.74,110.72h-5.53v1.61a7.89,7.89,0,0,0-3.57-1.61,9.3,9.3,0,0,0-5.17.36,10.59,10.59,0,0,0-5.36,5.17,16,16,0,0,0,0,11.25,10.31,10.31,0,0,0,6.25,5.53,9.75,9.75,0,0,0,7.85-1.61v1.43h5.53Z"/><path class="b" d="M335.58,124.82a4.55,4.55,0,0,0,.18-2.68,4.24,4.24,0,0,0-2.32-2.85,8.35,8.35,0,0,0-4.11-.54,8.8,8.8,0,0,0-4.64,2.14l-4.64-2.32,3.4-16.06H340V108H327.93l-1.18,5.6a16.19,16.19,0,0,1,2.41-.42,11.92,11.92,0,0,1,6.24.89,9.74,9.74,0,0,1,5.71,6.6,9.89,9.89,0,0,1-.53,6.61,11.11,11.11,0,0,1-7.14,5.53,14.55,14.55,0,0,1-13.21-3.93l3.93-3.74a9.08,9.08,0,0,0,8,2.32A5.12,5.12,0,0,0,335.58,124.82Z"/><path class="c" d="M166.7,39.59a3.64,3.64,0,0,1-3.52,2.25.52.52,0,0,1-.45-.78.53.53,0,0,1,.45-.25,2.6,2.6,0,0,0,2.49-1.45l1.86-4.59a7.87,7.87,0,1,0,.85.66l-1.68,4.16Z"/><path class="c" d="M195.66,40.64l-3.4-5.9a7.85,7.85,0,0,0-3.54,6.65L195.5,41Z"/><path class="c" d="M196.6,40.18a1.12,1.12,0,0,1,.43,2.13,1.12,1.12,0,0,1-1.35-.33l-6.88.45a7.85,7.85,0,1,0,4.36-8.2Z"/><path class="c" d="M182.49,37.55v-1h-2.65v1h.75l.67,2.21a3.2,3.2,0,0,0-.65.46l-10.48-9.11.91-2.25H188l-4.73,10.63a2.82,2.82,0,0,0-1,0l-.58-1.9Z"/><path class="c" d="M189,29.09l2.29,4a9.81,9.81,0,0,0-4.35,6.53,10.4,10.4,0,0,0-.15,1.93l-1.34.09a2.91,2.91,0,0,0-1.26-1.73l4.69-10.53Z"/><path class="c" d="M228.21,124.28a5.05,5.05,0,0,1-3.75,3.57,3.89,3.89,0,0,1-3.21-.71,6.48,6.48,0,0,1-2.32-4.1,8.73,8.73,0,0,1,0-2.5,6.48,6.48,0,0,1,2.32-4.11,3.89,3.89,0,0,1,3.21-.71,5.05,5.05,0,0,1,3.75,3.57Z"/><path class="c" d="M147.2,211.88a5.07,5.07,0,0,1-3.75,3.57,3.93,3.93,0,0,1-3.21-.72,6.41,6.41,0,0,1-2.32-4.1,8.73,8.73,0,0,1,0-2.5,6.46,6.46,0,0,1,2.32-4.11,4,4,0,0,1,3.21-.71,5.05,5.05,0,0,1,3.75,3.57Z"/><path class="c" d="M176.64,212.06a4.4,4.4,0,0,1-3.39,3.39,3.93,3.93,0,0,1-3.21-.72,6.19,6.19,0,0,1-2.14-4.1,4.5,4.5,0,0,1,0-1.79,6.19,6.19,0,0,1,2.14-4.1,3.93,3.93,0,0,1,3.21-.72,4.62,4.62,0,0,1,3.39,3.57Z"/><path class="c" d="M206.62,211.88a5.07,5.07,0,0,1-3.75,3.57,3.93,3.93,0,0,1-3.21-.72,6.45,6.45,0,0,1-2.32-4.1,8.73,8.73,0,0,1,0-2.5,6.5,6.5,0,0,1,2.32-4.11,4,4,0,0,1,3.21-.71,5.05,5.05,0,0,1,3.75,3.57Z"/><path class="b" d="M325.49,214.91a9.23,9.23,0,0,1,2.85-2.85l7.5-4.29a9.82,9.82,0,0,0,4.1-4.82,10.5,10.5,0,0,0,0-6.78,9.78,9.78,0,0,0-5.89-5.71,16.74,16.74,0,0,0-9.28.18,9.24,9.24,0,0,0-6.24,9.1h5.53a3.9,3.9,0,0,1,2.68-3.92,10.27,10.27,0,0,1,5.71,0,3.79,3.79,0,0,1,2.32,2.32,4.11,4.11,0,0,1,0,2.85,4,4,0,0,1-1.61,2l-7.49,4.29a14.62,14.62,0,0,0-7.14,13.2h22v-5.53Z"/><polyline class="b" points="308.98 227.58 308.98 213.66 303.45 213.66 303.45 227.58 308.98 227.58"/><path class="b" d="M281.36,220.8a12,12,0,0,1-8.93-3.93,17.86,17.86,0,0,1,0-23.2,12.12,12.12,0,0,1,17.85,0,17.86,17.86,0,0,1,0,23.2A12,12,0,0,1,281.36,220.8Z"/><path class="c" d="M281.36,215.27a6.49,6.49,0,0,1-4.79-2.07,12.32,12.32,0,0,1,0-15.86,6.59,6.59,0,0,1,9.57,0,12.32,12.32,0,0,1,0,15.86A6.47,6.47,0,0,1,281.36,215.27Z"/></svg>