<svg xmlns="http://www.w3.org/2000/svg" viewBox="0 0 206.71 81.1"><defs><style>.a,.c{fill:#00205c;}.a{stroke:#00205c;stroke-linecap:round;stroke-linejoin:round;stroke-width:0.18px;}.b{fill:#fff;}</style></defs><title>F36-1 korkortonline.se</title><rect class="a" x="0.09" y="0.09" width="206.54" height="80.92"/><path class="b" d="M.09,8.2V72.91A8.11,8.11,0,0,0,8.2,81H198.52a8.11,8.11,0,0,0,8.11-8.1V8.2A8.11,8.11,0,0,0,198.52.09H8.2A8.09,8.09,0,0,0,.09,8.2Z"/><rect class="c" x="3.83" y="3.83" width="199.05" height="73.44" rx="4.37"/><polygon class="b" points="28.71 34.13 28.71 46.79 38.61 46.79 38.61 52.47 23.02 52.47 23.02 34.13 23.02 21.29 28.71 21.29 28.71 34.13"/><path class="b" d="M51.7,29.73H46v15a8.24,8.24,0,0,0,12.84,6.69v1.1h5.69V29.73H58.85V43.49a3.58,3.58,0,0,1-7.15,0Z"/><path class="b" d="M74.81,52.47h5.68V38.72a3.58,3.58,0,0,1,7.16,0V52.47h5.68V37.53a8.24,8.24,0,0,0-12.84-6.7v-1.1H74.81Z"/><path class="b" d="M123.78,29.73V21.29h-5.69V31.38a8.06,8.06,0,0,0-3.67-1.65,9.56,9.56,0,0,0-5.32.37,10.9,10.9,0,0,0-5.5,5.31,16.54,16.54,0,0,0,0,11.56A10.55,10.55,0,0,0,110,52.66a9.62,9.62,0,0,0,4.4,0A9.2,9.2,0,0,0,118.09,51v1.47h5.69Z"/><path class="b" d="M134.05,52.47h5.68V51a9.26,9.26,0,0,0,3.67,1.66,9.62,9.62,0,0,0,4.4,0A10.52,10.52,0,0,0,154.22,47a16.43,16.43,0,0,0,0-11.56,10.86,10.86,0,0,0-5.5-5.31,9.55,9.55,0,0,0-5.32-.37,8.11,8.11,0,0,0-3.67,1.65V21.29h-5.68V52.47Z"/><polygon class="b" points="186.05 29.73 179.99 29.73 174.67 44.21 169.36 29.73 163.3 29.73 171.65 52.47 168.55 60.91 174.6 60.91 186.05 29.73"/><path class="c" d="M118.09,43.67a5.2,5.2,0,0,1-3.85,3.67,4,4,0,0,1-3.3-.74,6.64,6.64,0,0,1-2.39-4.22,9.15,9.15,0,0,1,0-2.56,6.64,6.64,0,0,1,2.39-4.22,4,4,0,0,1,3.3-.74,5.21,5.21,0,0,1,3.85,3.67Z"/><path class="c" d="M139.73,43.67a5.21,5.21,0,0,0,3.86,3.67,4,4,0,0,0,3.3-.74,6.63,6.63,0,0,0,2.38-4.22,9.15,9.15,0,0,0,0-2.56,6.63,6.63,0,0,0-2.38-4.22,4,4,0,0,0-3.3-.74,5.23,5.23,0,0,0-3.86,3.67Z"/></svg>