<svg xmlns="http://www.w3.org/2000/svg" viewBox="0 0 280.19 148.17"><defs><style>.a,.c{fill:#00205c;}.a{stroke:#00205c;}.b{fill:#fff;}</style></defs><title>F37-1 korkortonline.se</title><rect class="a" x="0.5" y="74.09" width="279.19" height="73.59"/><path class="b" d="M.5,82.19v57.38a8.11,8.11,0,0,0,8.11,8.1h263a8.11,8.11,0,0,0,8.11-8.1V82.19a8.11,8.11,0,0,0-8.11-8.1H8.61A8.11,8.11,0,0,0,.5,82.19Z"/><rect class="c" x="4.24" y="77.83" width="271.7" height="66.1" rx="4.37"/><rect class="a" x="0.5" y="0.5" width="279.19" height="73.59"/><path class="b" d="M.5,8.61V66a8.11,8.11,0,0,0,8.11,8.11h263A8.11,8.11,0,0,0,279.69,66V8.61A8.11,8.11,0,0,0,271.58.5H8.61A8.09,8.09,0,0,0,.5,8.61Z"/><rect class="c" x="4.24" y="4.24" width="271.7" height="66.1" rx="4.37"/><path class="b" d="M145.71,43.82l1.81-.12A9.64,9.64,0,0,0,166.69,43l.42,0a10.06,10.06,0,0,0-10-10.7,10.19,10.19,0,0,0-4.5,1.06l-2.75-4.76,1-2.29,2.79-1.27a.94.94,0,0,0-.38-1.79q-3.47-.12-6.93-.1a.66.66,0,0,0-.68.5.67.67,0,0,0,.34.78q1.82,1,3.72,1.83l-1,2.24H131.27l1.3-3.22a2.13,2.13,0,0,1,2.36-3.17h0l1.89.48.52.13.26-1-.52-.13-1.89-.48h0a3.22,3.22,0,0,0-3.79,4.25L128,33.84a10.06,10.06,0,0,0-5.09-1.47v.43a9.63,9.63,0,1,0,7.64,15.31l.34.25a10,10,0,0,0-2-13.9l.58-1.45L140,42.19a3,3,0,0,0,3,4.29l.62,2.05H143V49.6h2.72V48.53h-.95l-.72-2.36A3,3,0,0,0,145.71,43.82Z"/><path class="c" d="M126.38,40.67A3.76,3.76,0,0,1,122.76,43a.52.52,0,0,1-.46-.27.54.54,0,0,1,.46-.8,2.67,2.67,0,0,0,2.56-1.48l1.91-4.72a8,8,0,1,0,.88.67l-1.73,4.28Z"/><path class="c" d="M156.14,41.75l-3.5-6.06A8.09,8.09,0,0,0,149,42.53l7-.46Z"/><path class="c" d="M157.1,41.28a1.15,1.15,0,1,1-.94,1.85l-7.06.47a8.06,8.06,0,1,0,4.47-8.43Z"/><path class="c" d="M142.61,38.58V37.51h-2.73v1.07h.77l.69,2.27a2.84,2.84,0,0,0-.67.48L129.9,32l.93-2.32h17.39l-4.86,10.93a3,3,0,0,0-1,0l-.6-2Z"/><path class="c" d="M149.29,29.88,151.64,34a10.08,10.08,0,0,0-4.47,6.71,9.48,9.48,0,0,0-.15,2l-1.38.09A3,3,0,0,0,144.35,41l4.82-10.82Z"/><path class="b" d="M43.72,98.25a13.46,13.46,0,0,0-10.09-3.12,14.16,14.16,0,0,0-10.09,7,18.22,18.22,0,0,0-2,8.81,19,19,0,0,0,2.2,9.17,12.72,12.72,0,0,0,10.09,6.6,13.2,13.2,0,0,0,9.91-3.12L40,119.25A7.54,7.54,0,0,1,34.34,121a7,7,0,0,1-5.61-3.63,13.39,13.39,0,0,1-1.52-6.51,12.47,12.47,0,0,1,1.33-6.06,8.39,8.39,0,0,1,5.82-4A7.73,7.73,0,0,1,40,102.59Z"/><path class="b" d="M54.87,115.21a11.74,11.74,0,0,0,4.77,9.72,10.48,10.48,0,0,0,6.42,2,13.27,13.27,0,0,0,8.36-2.75l-3.3-4.59A7.2,7.2,0,0,1,65,121.26a5.54,5.54,0,0,1-4.22-4.76h16v-1.82a11.79,11.79,0,0,0-4.77-9.19,10.36,10.36,0,0,0-12.29,0A11.74,11.74,0,0,0,54.87,115.21Z"/><path class="c" d="M70.64,112.83a4.92,4.92,0,0,0-9.72,0Z"/><path class="b" d="M82.76,126.47h5.69V112.72a3.58,3.58,0,1,1,7.15,0v13.75h5.69v-15a8.24,8.24,0,0,0-12.84-6.69v-1.1H82.76Z"/><path class="b" d="M111.8,109.41v13.21a3.68,3.68,0,0,0,3.85,3.85h4v-5.68h-.92a1.26,1.26,0,0,1-.94-.35,1.21,1.21,0,0,1-.34-.94V109.41h2.84v-5.68h-2.84V95.29L111.8,98v5.69h-2.29v5.68Z"/><path class="b" d="M129.71,126.47h5.69V115.1a6.83,6.83,0,0,1,3.3-4.95,5.87,5.87,0,0,1,3.3-.92,4.68,4.68,0,0,1,2,.37v-5.87a12,12,0,0,0-8.62,1.65v-1.65h-5.69Z"/><path class="b" d="M157.22,103.73h-5.68v14.94a8.24,8.24,0,0,0,12.84,6.7v1.1h5.68V103.73h-5.68v13.75a3.58,3.58,0,1,1-7.16,0Z"/><path class="b" d="M180.33,126.47H186V112.35a3.12,3.12,0,1,1,6.23,0v14.12h5.69V112.35a3.12,3.12,0,1,1,6.24,0v14.12h5.68V110.7a7.37,7.37,0,0,0-13.39-4.22A7.77,7.77,0,0,0,186,104.64v-.91h-5.69Z"/><path class="b" d="M244.71,112.54h5.13a4.13,4.13,0,0,1,3.86,2.38,4.2,4.2,0,0,1,0,3.3,5.44,5.44,0,0,1-3.86,2.75,12.16,12.16,0,0,1-4.58,0,9.14,9.14,0,0,1-4.4-2.56l-4.22,3.67a13.31,13.31,0,0,0,7.34,4.4,17.4,17.4,0,0,0,7,0,11.94,11.94,0,0,0,7.33-5.32,9.89,9.89,0,0,0,.92-6.61,8.48,8.48,0,0,0-2.75-5,9,9,0,0,0,1.83-6,8,8,0,0,0-3.48-6.24,12.89,12.89,0,0,0-7.16-2.38,14.81,14.81,0,0,0-9.72,3.67l3.67,4a9.15,9.15,0,0,1,7.7-2,4.63,4.63,0,0,1,3.12,2.2,3.34,3.34,0,0,1,0,2.56,3,3,0,0,1-2.93,1.84h-4.77Z"/></svg>