<svg xmlns="http://www.w3.org/2000/svg" viewBox="0 0 693.36 125.24"><defs><style>.a,.c{fill:#0c479d;}.a{stroke:#0c479d;stroke-linecap:round;stroke-linejoin:round;stroke-width:0.18px;}.b{fill:#fff;}</style></defs><title>F5-1 korkortonline.se</title><rect class="a" x="0.09" y="0.09" width="693.18" height="125.06"/><path class="b" d="M608.46,125.15a22.63,22.63,0,0,0,13.75-4.65l68.22-52.14a7.22,7.22,0,0,0,0-11.48L622.21,4.74A22.63,22.63,0,0,0,608.46.09H12.62A12.53,12.53,0,0,0,.09,12.62v100a12.53,12.53,0,0,0,12.53,12.53Z"/><path class="c" d="M608.46,119.37a16.86,16.86,0,0,0,12.82-5.91L660.7,67.32a7.24,7.24,0,0,0,0-9.39L621.28,11.78a16.86,16.86,0,0,0-12.82-5.91H12.62a6.76,6.76,0,0,0-6.75,6.75v100a6.76,6.76,0,0,0,6.75,6.75Z"/><polygon class="b" points="34.27 44.2 44.19 44.2 62.9 76.23 62.9 44.2 71.69 44.2 71.69 92.38 62.16 92.38 43.06 59.68 43.06 92.38 34.27 92.38 34.27 44.2"/><polygon class="b" points="128.09 44.2 113.92 69.99 113.92 92.38 105.13 92.38 105.13 69.99 90.96 44.2 100.99 44.2 109.53 59.74 118.07 44.2 128.09 44.2"/><polygon class="b" points="155.87 62.9 170.95 44.2 182.23 44.2 166.93 63.19 182.8 92.38 172.8 92.38 160.95 70.6 155.87 76.9 155.87 92.38 147.08 92.38 147.08 44.2 155.87 44.2 155.87 62.9 155.87 62.9"/><path class="b" d="M208.31,86.71a19.22,19.22,0,0,0,28.35,0,28.36,28.36,0,0,0,0-36.85,19.24,19.24,0,0,0-28.35,0,28.36,28.36,0,0,0,0,36.85Z"/><path class="c" d="M230.08,55.7a10.43,10.43,0,0,0-15.19,0,19.56,19.56,0,0,0,0,25.18,10.43,10.43,0,0,0,15.19,0,19.56,19.56,0,0,0,0-25.18Z"/><path class="b" d="M235.52,43.63A6.66,6.66,0,1,0,228.86,37,6.67,6.67,0,0,0,235.52,43.63Z"/><path class="b" d="M209.16,43.63A6.66,6.66,0,1,0,202.5,37,6.66,6.66,0,0,0,209.16,43.63Z"/><path class="b" d="M272.66,92.38h-8.79V44.2h18.71a14.32,14.32,0,0,1,0,28.63h-9.92Z"/><path class="c" d="M272.66,64V53h9.92a5.53,5.53,0,0,1,0,11.06Z"/><polygon class="b" points="324.53 64.04 324.53 92.38 315.74 92.38 315.74 64.04 315.74 44.2 324.53 44.2 324.53 64.04"/><polygon class="b" points="346.63 44.2 356.55 44.2 375.26 76.23 375.26 44.2 384.05 44.2 384.05 92.38 374.52 92.38 355.42 59.68 355.42 92.38 346.63 92.38 346.63 44.2"/><path class="b" d="M435.21,56.94l6.24-6.23a20.66,20.66,0,0,0-15.88-7.09,19,19,0,0,0-14.17,6.24,28.36,28.36,0,0,0,0,36.85,19,19,0,0,0,14.17,6.23A19.31,19.31,0,0,0,445.7,75.37V66.3H425.57v8.78h11.34a10.49,10.49,0,0,1-9.64,9.07,9.65,9.65,0,0,1-1.7,0,10.05,10.05,0,0,1-7.93-3.68,19.61,19.61,0,0,1,0-24.38,10.05,10.05,0,0,1,7.93-3.68A11.92,11.92,0,0,1,435.21,56.94Z"/><path class="b" d="M577.28,70.85h7.94a6.37,6.37,0,0,1,5.95,3.68,6.48,6.48,0,0,1,0,5.11,8.43,8.43,0,0,1-5.95,4.25,19.21,19.21,0,0,1-7.09,0,14.16,14.16,0,0,1-6.8-4l-6.52,5.67a20.5,20.5,0,0,0,11.34,6.8,26.4,26.4,0,0,0,10.77,0,18.48,18.48,0,0,0,11.34-8.22A15.34,15.34,0,0,0,599.67,74a13,13,0,0,0-4.25-7.66A14,14,0,0,0,598.26,57a12.37,12.37,0,0,0-5.39-9.64,19.84,19.84,0,0,0-11.06-3.68,22.84,22.84,0,0,0-15,5.67l5.67,6.23a14.2,14.2,0,0,1,11.91-3.12,7.24,7.24,0,0,1,4.81,3.41,5.13,5.13,0,0,1,0,4,4.65,4.65,0,0,1-4.53,2.84h-7.37Z"/><path class="b" d="M520.3,83.6a14.79,14.79,0,0,1,4.54-4.54l11.91-6.8a15.68,15.68,0,0,0,6.52-7.65,16.86,16.86,0,0,0,0-10.78,15.52,15.52,0,0,0-9.36-9.07,26.49,26.49,0,0,0-14.74.29,14.7,14.7,0,0,0-9.92,14.45H518a6.2,6.2,0,0,1,4.25-6.23,16.27,16.27,0,0,1,9.07,0A6,6,0,0,1,535.05,57a6.56,6.56,0,0,1,0,4.54,6.37,6.37,0,0,1-2.56,3.12l-11.9,6.8a23.27,23.27,0,0,0-11.34,21h34.87V83.6Z"/></svg>