<svg xmlns="http://www.w3.org/2000/svg" viewBox="0 0 664.03 241.86"><defs><style>.a,.c{fill:#0c479d;}.a{stroke:#0c479d;stroke-linecap:round;stroke-linejoin:round;stroke-width:0.18px;}.b{fill:#fff;}</style></defs><title>F7-1 korkortonline.se</title><polygon class="a" points="0.09 0.09 0.09 241.77 524.41 241.77 663.94 0.09 0.09 0.09"/><path class="b" d="M.09,12.62V229.24a12.53,12.53,0,0,0,12.53,12.53H517.17A12.54,12.54,0,0,0,528,235.51L653.09,18.88A12.53,12.53,0,0,0,642.24.09H12.62A12.53,12.53,0,0,0,.09,12.62Z"/><path class="c" d="M5.87,12.62V229.24A6.76,6.76,0,0,0,12.62,236H517.17a6.77,6.77,0,0,0,5.85-3.38L648.08,16a6.75,6.75,0,0,0-5.84-10.12H12.62a6.76,6.76,0,0,0-6.75,6.75Z"/><path class="b" d="M34.3,35.75V110a12.53,12.53,0,0,0,12.53,12.53H163.45A12.53,12.53,0,0,0,176,110V35.75a12.53,12.53,0,0,0-12.53-12.53H46.83A12.53,12.53,0,0,0,34.3,35.75Z"/><path class="c" d="M40.09,35.75V110a6.74,6.74,0,0,0,6.74,6.75H163.45A6.76,6.76,0,0,0,170.2,110V35.75A6.76,6.76,0,0,0,163.45,29H46.83a6.74,6.74,0,0,0-6.74,6.75Z"/><polygon class="b" points="57.8 57.55 57.8 48.76 91.82 48.76 91.82 56.7 75.09 96.95 65.58 96.95 81.95 57.55 57.8 57.55"/><path class="b" d="M131.42,97.51a19,19,0,0,1-14.18-6.23,28.36,28.36,0,0,1,0-36.85,19.22,19.22,0,0,1,28.35,0,28.36,28.36,0,0,1,0,36.85A19,19,0,0,1,131.42,97.51Z"/><path class="c" d="M131.42,88.73a10.28,10.28,0,0,1-7.6-3.28,19.58,19.58,0,0,1,0-25.19,10.43,10.43,0,0,1,15.19,0,19.54,19.54,0,0,1,0,25.19A10.24,10.24,0,0,1,131.42,88.73Z"/><polygon class="b" points="213.31 96.95 204.52 96.95 204.52 48.76 215.58 48.76 225.5 62.37 235.42 48.76 246.47 48.76 246.47 96.95 237.69 96.95 237.69 60.56 225.5 77.28 213.31 60.56 213.31 96.95"/><path class="b" d="M273.82,54.43a28.36,28.36,0,0,0,0,36.85,19.24,19.24,0,0,0,28.35,0,28.36,28.36,0,0,0,0-36.85,19.22,19.22,0,0,0-28.35,0Z"/><path class="c" d="M280.4,85.45a10.44,10.44,0,0,0,15.2,0,19.58,19.58,0,0,0,0-25.19,10.44,10.44,0,0,0-15.2,0,19.58,19.58,0,0,0,0,25.19Z"/><path class="b" d="M363.68,97h-9.92l-10.2-19.56h-5.39V97h-8.79V48.76h18.71A14.32,14.32,0,0,1,353,76.52L363.67,97Z"/><path class="c" d="M338.17,68.6v-11h9.92a5.53,5.53,0,1,1,0,11Z"/><polygon class="b" points="408.75 48.76 424.06 96.95 414.84 96.95 412.05 88.16 392.42 88.16 389.62 96.95 380.4 96.95 395.71 48.76 408.75 48.76"/><polygon class="c" points="395.21 79.37 402.23 57.26 409.25 79.37 395.21 79.37"/><polygon class="b" points="34.3 160.81 60.66 160.81 60.66 169.6 43.09 169.6 43.09 179.24 57.83 179.24 57.83 188.03 43.09 188.03 43.09 200.21 60.66 200.21 60.66 209 34.3 209 34.3 180.66 34.3 160.81"/><polygon class="b" points="81.64 160.81 91.56 160.81 110.27 192.84 110.27 160.81 119.05 160.81 119.05 209 109.53 209 90.42 176.29 90.42 209 81.64 209 81.64 160.81"/><polygon class="b" points="150.23 179.52 165.31 160.81 176.6 160.81 161.29 179.81 177.16 209 167.16 209 155.32 187.22 150.23 193.52 150.23 209 141.45 209 141.45 160.81 150.23 160.81 150.23 179.52 150.23 179.52"/><path class="b" d="M202.67,203.33a19.22,19.22,0,0,0,28.35,0,28.36,28.36,0,0,0,0-36.85,19.24,19.24,0,0,0-28.35,0,28.36,28.36,0,0,0,0,36.85Z"/><path class="c" d="M224.44,172.31a10.43,10.43,0,0,0-15.19,0,19.58,19.58,0,0,0,0,25.19,10.43,10.43,0,0,0,15.19,0,19.54,19.54,0,0,0,0-25.19Z"/><path class="b" d="M229.89,160.25a6.67,6.67,0,1,0-6.67-6.66A6.66,6.66,0,0,0,229.89,160.25Z"/><path class="b" d="M203.52,160.25a6.67,6.67,0,1,0-6.66-6.66A6.67,6.67,0,0,0,203.52,160.25Z"/><path class="b" d="M267,209h-8.79V160.81h18.71a14.32,14.32,0,0,1,0,28.63H267Z"/><path class="c" d="M267,180.66V169.6h9.92a5.53,5.53,0,1,1,0,11.06Z"/><polygon class="b" points="318.89 180.66 318.89 209 310.1 209 310.1 180.66 310.1 160.81 318.89 160.81 318.89 180.66"/><polygon class="b" points="341 160.81 350.92 160.81 369.63 192.84 369.63 160.81 378.41 160.81 378.41 209 368.89 209 349.78 176.29 349.78 209 341 209 341 160.81"/><path class="b" d="M429.57,173.56l6.24-6.24a20.65,20.65,0,0,0-15.87-7.08,19,19,0,0,0-14.18,6.23,28.36,28.36,0,0,0,0,36.85,19,19,0,0,0,14.18,6.24A19.31,19.31,0,0,0,440.06,192v-9.07H419.94v8.79h11.33a10.5,10.5,0,0,1-9.63,9.07,9.65,9.65,0,0,1-1.7,0,10.07,10.07,0,0,1-7.94-3.68,19.61,19.61,0,0,1,0-24.38,10.11,10.11,0,0,1,7.94-3.69A11.89,11.89,0,0,1,429.57,173.56Z"/><path class="b" d="M579.73,83.08,567.92,39,523.86,50.83a6,6,0,0,0-1.45,11l16.89,9.75L468.43,194.33l14.73,8.51L554,80.1l16.88,9.75a6,6,0,0,0,8.82-6.77Z"/></svg>