<svg id="Lager_1" data-name="Lager 1" xmlns="http://www.w3.org/2000/svg" viewBox="0 0 1121 145.71"><defs><style>.cls-1{fill:#0C479D;}.cls-2{fill:none;stroke:#08325f;stroke-linecap:round;stroke-linejoin:round;stroke-width:0.18px;}.cls-3{fill:#fff;}</style></defs><title>korkortonline.se</title><rect class="cls-1" x="515.21" y="0.09" width="605.7" height="145.53"/><rect class="cls-2" x="515.21" y="0.09" width="605.7" height="145.53"/><rect class="cls-1" x="0.09" y="0.09" width="403.56" height="144.8"/><rect class="cls-2" x="0.09" y="0.09" width="403.56" height="144.8"/><path class="cls-3" d="M515.41,13.17V133.64a12.53,12.53,0,0,0,12.53,12.53h580.64a12.53,12.53,0,0,0,12.53-12.53V13.17A12.53,12.53,0,0,0,1108.58.64H527.94a12.53,12.53,0,0,0-12.53,12.53" transform="translate(-0.2 -0.55)"/><path class="cls-3" d="M.29,13.17V132.91a12.53,12.53,0,0,0,12.53,12.53h378.5a12.53,12.53,0,0,0,12.53-12.53V13.17A12.53,12.53,0,0,0,391.32.64H12.82A12.53,12.53,0,0,0,.29,13.17" transform="translate(-0.2 -0.55)"/><path class="cls-1" d="M6.07,13.17V132.91a6.76,6.76,0,0,0,6.75,6.75h378.5a6.76,6.76,0,0,0,6.75-6.75V13.17a6.75,6.75,0,0,0-6.75-6.74H12.82a6.75,6.75,0,0,0-6.75,6.74" transform="translate(-0.2 -0.55)"/><path class="cls-1" d="M521.2,13.17V133.64a6.74,6.74,0,0,0,6.74,6.75h580.64a6.75,6.75,0,0,0,6.75-6.75V13.17a6.75,6.75,0,0,0-6.75-6.74H527.94a6.74,6.74,0,0,0-6.74,6.74" transform="translate(-0.2 -0.55)"/><path class="cls-3" d="M674.44,36.3v74.21A12.53,12.53,0,0,0,687,123H803.58a12.53,12.53,0,0,0,12.53-12.53V36.3a12.53,12.53,0,0,0-12.53-12.53H687A12.53,12.53,0,0,0,674.44,36.3" transform="translate(-0.2 -0.55)"/><path class="cls-1" d="M680.22,36.3v74.21a6.76,6.76,0,0,0,6.75,6.75H803.58a6.76,6.76,0,0,0,6.75-6.75V36.3a6.75,6.75,0,0,0-6.75-6.74H687a6.75,6.75,0,0,0-6.75,6.74" transform="translate(-0.2 -0.55)"/><path class="cls-3" d="M723,84.75a7.18,7.18,0,0,0,.28-4.25A6.72,6.72,0,0,0,719.64,76a13.2,13.2,0,0,0-6.52-.85,13.86,13.86,0,0,0-7.37,3.4l-7.37-3.69,5.39-25.51h26.36V58.1H710.89L709,67a27.25,27.25,0,0,1,3.82-.67,19.06,19.06,0,0,1,9.92,1.42,15.52,15.52,0,0,1,9.07,10.49A15.73,15.73,0,0,1,731,88.72a17.66,17.66,0,0,1-11.34,8.78,23.08,23.08,0,0,1-21-6.23l6.24-6A14.41,14.41,0,0,0,717.65,89,8.15,8.15,0,0,0,723,84.75" transform="translate(-0.2 -0.55)"/><path class="cls-3" d="M771.55,98.07a19,19,0,0,1-14.17-6.24,28.36,28.36,0,0,1,0-36.85,19.24,19.24,0,0,1,28.35,0,28.36,28.36,0,0,1,0,36.85,19,19,0,0,1-14.18,6.24" transform="translate(-0.2 -0.55)"/><path class="cls-1" d="M771.55,89.28A10.17,10.17,0,0,1,764,86a19.54,19.54,0,0,1,0-25.19,10.43,10.43,0,0,1,15.19,0,19.58,19.58,0,0,1,0,25.19,10.2,10.2,0,0,1-7.6,3.28" transform="translate(-0.2 -0.55)"/><polyline class="cls-3" points="844.31 48.76 870.67 48.76 870.67 57.55 853.1 57.55 853.1 67.19 867.84 67.19 867.84 75.97 853.1 75.97 853.1 96.95 844.31 96.95 844.31 48.76"/><polyline class="cls-3" points="915.74 48.76 931.05 96.95 921.83 96.95 919.04 88.16 899.41 88.16 896.62 96.95 887.4 96.95 902.7 48.76 915.74 48.76"/><polyline class="cls-1" points="902.2 79.37 909.22 57.26 916.25 79.37 902.2 79.37"/><polyline class="cls-3" points="959.11 68.6 959.11 88.16 974.42 88.16 974.42 96.95 950.32 96.95 950.32 48.76 959.11 48.76 959.11 68.6"/><path class="cls-3" d="M1018,80.5V49.31h8.79V80.5a17.58,17.58,0,0,1-35.15,0V49.31h8.78V80.5a8.79,8.79,0,0,0,17.58,0" transform="translate(-0.2 -0.55)"/><polyline class="cls-3" points="1048.97 48.76 1058.89 48.76 1077.6 80.79 1077.6 48.76 1086.38 48.76 1086.38 96.95 1076.86 96.95 1057.75 64.24 1057.75 96.95 1048.97 96.95 1048.97 48.76"/><path class="cls-3" d="M159.31,49h19a13.89,13.89,0,0,1,10.77,22.67,14.69,14.69,0,0,1-9.92,25.52H159.31V49" transform="translate(-0.2 -0.55)"/><path class="cls-1" d="M179.15,88.35A5.9,5.9,0,0,0,181.42,77a11.52,11.52,0,0,0-2.55-.28H168.1V88.35h11.05" transform="translate(-0.2 -0.55)"/><path class="cls-1" d="M168.1,67.94h10.2a5.11,5.11,0,0,0,0-10.21H168.1V67.94" transform="translate(-0.2 -0.55)"/><path class="cls-3" d="M219.12,54.62a28.36,28.36,0,0,0,0,36.85,19.24,19.24,0,0,0,28.35,0,28.36,28.36,0,0,0,0-36.85,19.22,19.22,0,0,0-28.35,0" transform="translate(-0.2 -0.55)"/><path class="cls-1" d="M225.7,85.64a10.43,10.43,0,0,0,15.19,0,19.58,19.58,0,0,0,0-25.19,10.43,10.43,0,0,0-15.19,0,19.54,19.54,0,0,0,0,25.19" transform="translate(-0.2 -0.55)"/><path class="cls-3" d="M274.68,49H293.1a16.7,16.7,0,0,1,11.06,4,19.46,19.46,0,0,1,7.08,13.6,51.73,51.73,0,0,1,0,13,20.68,20.68,0,0,1-7.08,13.32,16.28,16.28,0,0,1-11.06,4.26H274.68V49" transform="translate(-0.2 -0.55)"/><path class="cls-1" d="M283.46,88.35V57.73h9.71a8,8,0,0,1,5.36,1.94,10.7,10.7,0,0,1,4,7.72,43.12,43.12,0,0,1,0,11.12,11.88,11.88,0,0,1-4.19,7.8,7.44,7.44,0,0,1-5.19,2h-9.68" transform="translate(-0.2 -0.55)"/><polyline class="cls-3" points="356.96 48.39 372.27 96.58 363.05 96.58 360.26 87.8 340.63 87.8 337.83 96.58 328.61 96.58 343.92 48.39 356.96 48.39"/><polyline class="cls-1" points="343.42 79.01 350.44 56.89 357.46 79.01 343.42 79.01"/><path class="cls-3" d="M630.07,62.78,597.82,30.52,565.56,62.78A6,6,0,0,0,569.82,73h19.49V116.3h17V73h19.5a6,6,0,0,0,4.25-10.26" transform="translate(-0.2 -0.55)"/><path class="cls-3" d="M115,62.78,82.69,30.52,50.44,62.78A6,6,0,0,0,54.69,73h19.5v42.52h17V73h19.49A6,6,0,0,0,115,62.78" transform="translate(-0.2 -0.55)"/></svg>