<svg xmlns="http://www.w3.org/2000/svg" viewBox="0 0 454.54 454.54"><defs><style>.a,.c{fill:#0c479d;}.a{stroke:#0c479d;}.b{fill:#fff;}.d{fill:#000;}.e{fill:none;}</style></defs><title>G10-1 korkortonline.se</title><rect class="a" x="0.5" y="0.5" width="453.54" height="453.54"/><path class="b" d="M28.85.5H425.7A28.34,28.34,0,0,1,454,28.85V425.7A28.34,28.34,0,0,1,425.7,454H28.85A28.34,28.34,0,0,1,.5,425.7V28.85A28.35,28.35,0,0,1,28.85.5Z"/><path class="c" d="M28.85,14.67H425.7a14.18,14.18,0,0,1,14.17,14.18V425.7a14.18,14.18,0,0,1-14.17,14.17H28.85A14.17,14.17,0,0,1,14.67,425.7V28.85A14.18,14.18,0,0,1,28.85,14.67Z"/><rect class="b" x="85.54" y="85.54" width="283.46" height="283.46"/><circle class="d" cx="182.09" cy="331.1" r="22.79"/><circle class="d" cx="290.47" cy="331.1" r="22.79"/><path class="d" d="M133,140.49a5.34,5.34,0,0,1,5.17,4l22.35,83.83a5.37,5.37,0,0,1-.07,3l-20.26,63.94a5.35,5.35,0,0,0,5.1,7H313.44a5.35,5.35,0,0,0,5.35-5.35v-2.68a5.35,5.35,0,0,0-5.35-5.35H163.58a5.35,5.35,0,0,1-5.09-7l15.92-50.24a5.39,5.39,0,0,0,.07-3l-1-3.85a5.35,5.35,0,0,0,5.17,4H295.69a5.34,5.34,0,0,0,5.17-4l24.05-90.95a5.35,5.35,0,0,0-5.17-6.72H154.58a5.35,5.35,0,0,0-5.17,6.72l-.72-2.73a5.37,5.37,0,0,0-5.18-4h-21a5.35,5.35,0,0,0-5.35,5.35v2.68a5.35,5.35,0,0,0,5.35,5.35Z"/><line class="e" x1="165" y1="140.49" x2="188.88" y2="140.49"/><polygon class="b" points="165 140.49 188.88 140.49 190.93 156.54 169.25 156.54 165 140.49"/><polygon class="b" points="172.79 169.91 192.64 169.91 194.69 185.96 177.03 185.96 172.79 169.91"/><polygon class="b" points="180.57 199.34 196.4 199.34 198.45 215.39 184.81 215.39 180.57 199.34"/><polygon class="b" points="209.88 199.34 230.47 199.34 230.47 215.39 211.93 215.39 209.88 199.34"/><polygon class="b" points="230.47 185.96 230.47 169.91 206.12 169.91 208.17 185.96 230.47 185.96"/><polygon class="b" points="230.47 140.49 230.47 156.54 204.41 156.54 202.36 140.49 230.47 140.49"/><polygon class="b" points="309.32 140.49 285.45 140.49 283.39 156.54 305.07 156.54 309.32 140.49"/><polygon class="b" points="301.54 169.91 281.69 169.91 279.64 185.96 297.29 185.96 301.54 169.91"/><polygon class="b" points="293.75 199.34 277.93 199.34 275.88 215.39 289.51 215.39 293.75 199.34"/><polygon class="b" points="264.44 199.34 243.85 199.34 243.85 215.39 262.39 215.39 264.44 199.34"/><polygon class="b" points="243.85 185.96 243.85 169.91 268.2 169.91 266.15 185.96 243.85 185.96"/><polygon class="b" points="243.85 140.49 243.85 156.54 269.91 156.54 271.96 140.49 243.85 140.49"/></svg>