<svg xmlns="http://www.w3.org/2000/svg" viewBox="0 0 842.18 842.18"><defs><style>.a,.c{fill:#0c479d;}.a{stroke:#0c479d;}.b{fill:#fff;}.d{fill:#000;}</style></defs><title>G11-1 korkortonline.se</title><rect class="a" x="0.5" y="0.5" width="841.18" height="841.18"/><path class="b" d="M51,.5H791.21A50.47,50.47,0,0,1,841.68,51V791.21a50.46,50.46,0,0,1-50.47,50.47H51A50.47,50.47,0,0,1,.5,791.21V51A50.47,50.47,0,0,1,51,.5Z"/><path class="c" d="M51,25.74H791.21A25.23,25.23,0,0,1,816.45,51V791.21a25.27,25.27,0,0,1-25.24,25.24H51a25.23,25.23,0,0,1-25.23-25.24V51A25.22,25.22,0,0,1,51,25.74Z"/><rect class="b" x="158.22" y="158.22" width="525.74" height="525.74"/><path class="d" d="M313.23,401.58l-16.18,0-4.11,59.9-83.85.11,37.38,53.25a43.6,43.6,0,0,1,44.86-4.24,53.66,53.66,0,0,0,41.57-.05,53.59,53.59,0,0,1,41.56-.06,53.66,53.66,0,0,0,41.57-.05,53.62,53.62,0,0,1,41.57-.06,53.64,53.64,0,0,0,41.56,0,53.62,53.62,0,0,1,41.57-.06,53.62,53.62,0,0,0,41.57-.05,49.25,49.25,0,0,1,47.92,4.13,87.91,87.91,0,0,0,6.54-37.74l-30.55,0-4.81-13.18-19.16,0L582,298.21l-12,0,.22,165.31h-12L552.87,442l-133.58.17,15.17-56.92-35.93.05-15.17,56.92-34.14,0-4.7-40.73-19.31,0-.15-113.2h-12Z"/></svg>