<svg xmlns="http://www.w3.org/2000/svg" viewBox="0 0 454.54 454.54"><defs><style>.a,.c{fill:#0c479d;}.a{stroke:#0c479d;}.b{fill:#fff;}.d{fill:none;}.e{fill:#dc0032;}</style></defs><title>G4-1 korkortonline.se</title><rect class="a" x="0.5" y="0.5" width="453.54" height="453.54"/><path class="b" d="M28.85.5H425.7A28.34,28.34,0,0,1,454,28.85V425.7A28.34,28.34,0,0,1,425.7,454H28.85A28.34,28.34,0,0,1,.5,425.7V28.85A28.35,28.35,0,0,1,28.85.5Z"/><path class="c" d="M28.85,14.67H425.7a14.18,14.18,0,0,1,14.17,14.18V425.7a14.18,14.18,0,0,1-14.17,14.17H28.85A14.17,14.17,0,0,1,14.67,425.7V28.85A14.18,14.18,0,0,1,28.85,14.67Z"/><rect class="b" x="85.54" y="85.54" width="283.46" height="283.46"/><path class="d" d="M200.11,227.27"/><path class="d" d="M227.27,200.11"/><path class="d" d="M227.27,254.43"/><polygon class="e" points="267.43 347.74 187.11 347.74 187.11 267.43 106.8 267.43 106.8 187.11 187.11 187.11 187.11 106.8 267.43 106.8 267.43 187.11 347.74 187.11 347.74 267.43 267.43 267.43 267.43 347.74"/></svg>