<svg xmlns="http://www.w3.org/2000/svg" viewBox="0 0 454.54 454.54"><defs><style>.a,.c{fill:#0c479d;}.a{stroke:#0c479d;}.b{fill:#fff;}.d{fill:#000;}</style></defs><title>G5-1 korkortonline.se</title><rect class="a" x="0.5" y="0.5" width="453.54" height="453.54"/><path class="b" d="M28.85.5H425.7A28.34,28.34,0,0,1,454,28.85V425.7A28.34,28.34,0,0,1,425.7,454H28.85A28.34,28.34,0,0,1,.5,425.7V28.85A28.35,28.35,0,0,1,28.85.5Z"/><path class="c" d="M28.85,14.67H425.7a14.18,14.18,0,0,1,14.17,14.18V425.7a14.18,14.18,0,0,1-14.17,14.17H28.85A14.17,14.17,0,0,1,14.67,425.7V28.85A14.18,14.18,0,0,1,28.85,14.67Z"/><rect class="b" x="85.54" y="85.54" width="283.46" height="283.46"/><path class="d" d="M250.58,227.27"/><path class="d" d="M204,227.27"/><path class="d" d="M227.27,204"/><path class="d" d="M227.27,250.58"/><path class="d" d="M318,146l13.7-5.2a56.56,56.56,0,0,0-85.51-10.39l9.92,9.45A42.42,42.42,0,0,1,318,146Z"/><path class="d" d="M173.41,130.42a43.82,43.82,0,0,0,56.22,10.39l9.93,9.93a56.5,56.5,0,0,1-77.49-12.29Z"/><polygon class="d" points="104.44 335.46 343.52 335.46 340.43 158.29 322.46 158.29 320.34 279.71 248.06 237.67 248.06 279.71 176.25 237.67 176.25 279.71 104.44 237.67 104.44 335.46"/></svg>