<svg xmlns="http://www.w3.org/2000/svg" viewBox="0 0 454.54 454.54"><defs><style>.a,.c{fill:#0c479d;}.a{stroke:#0c479d;}.b{fill:#fff;}.d{fill:#000;}</style></defs><title>H10-1 korkortonline.se</title><rect class="a" x="0.5" y="0.5" width="453.54" height="453.54"/><path class="b" d="M28.85.5H425.7A28.34,28.34,0,0,1,454,28.85V425.7A28.34,28.34,0,0,1,425.7,454H28.85A28.34,28.34,0,0,1,.5,425.7V28.85A28.35,28.35,0,0,1,28.85.5Z"/><path class="c" d="M28.85,14.67H425.7a14.18,14.18,0,0,1,14.17,14.18V425.7a14.18,14.18,0,0,1-14.17,14.17H28.85A14.17,14.17,0,0,1,14.67,425.7V28.85A14.18,14.18,0,0,1,28.85,14.67Z"/><rect class="b" x="85.54" y="85.54" width="283.46" height="283.46"/><polygon class="d" points="101.92 221.38 227.27 133.61 352.63 221.38 335.93 245.22 313.73 229.68 313.73 317.98 227.27 317.98 140.81 317.98 140.81 229.68 118.61 245.22 101.92 221.38"/><polygon class="b" points="227.27 230.11 190.89 230.11 227.27 230.11 263.65 230.11 263.65 258.45 227.27 258.45 190.89 258.45 190.89 230.11 227.27 230.11"/></svg>