<svg xmlns="http://www.w3.org/2000/svg" viewBox="0 0 454.54 454.54"><defs><style>.a,.c{fill:#0c479d;}.a{stroke:#0c479d;}.b{fill:#fff;}.d{fill:#000;}</style></defs><title>H11-1 korkortonline.se</title><rect class="a" x="0.5" y="0.5" width="453.54" height="453.54"/><path class="b" d="M28.85.5H425.7A28.34,28.34,0,0,1,454,28.85V425.7A28.34,28.34,0,0,1,425.7,454H28.85A28.34,28.34,0,0,1,.5,425.7V28.85A28.35,28.35,0,0,1,28.85.5Z"/><path class="c" d="M28.85,14.67H425.7a14.18,14.18,0,0,1,14.17,14.18V425.7a14.18,14.18,0,0,1-14.17,14.17H28.85A14.17,14.17,0,0,1,14.67,425.7V28.85A14.18,14.18,0,0,1,28.85,14.67Z"/><rect class="b" x="85.54" y="85.54" width="283.46" height="283.46"/><polygon class="d" points="208.29 157.15 108.22 330.48 227.27 330.48 346.33 330.48 246.25 157.15 253.7 144.25 277.11 103.7 239.14 103.7 227.27 124.27 215.4 103.7 177.44 103.7 208.29 157.15"/><polygon class="b" points="167.27 302.39 162.55 302.39 187.74 258.75 227.27 190.28 266.8 258.75 292 302.39 287.27 302.39 269.79 302.39 227.27 228.74 184.75 302.39 167.27 302.39"/></svg>