<svg xmlns="http://www.w3.org/2000/svg" viewBox="0 0 454.54 454.54"><defs><style>.a,.c{fill:#0c479d;}.a{stroke:#0c479d;}.b{fill:#fff;}.d{fill:#000;}</style></defs><title>H13-1 korkortonline.se</title><rect class="a" x="0.5" y="0.5" width="453.54" height="453.54"/><path class="b" d="M28.85.5H425.7A28.34,28.34,0,0,1,454,28.85V425.7A28.34,28.34,0,0,1,425.7,454H28.85A28.34,28.34,0,0,1,.5,425.7V28.85A28.35,28.35,0,0,1,28.85.5Z"/><path class="c" d="M28.85,14.67H425.7a14.18,14.18,0,0,1,14.17,14.18V425.7a14.18,14.18,0,0,1-14.17,14.17H28.85A14.17,14.17,0,0,1,14.67,425.7V28.85A14.18,14.18,0,0,1,28.85,14.67Z"/><rect class="b" x="85.54" y="85.54" width="283.46" height="283.46"/><polygon class="d" points="130.89 294.36 121.44 294.36 103.02 294.36 103.02 273.57 183.33 273.57 183.33 294.36 157.82 294.36 157.82 322.7 245.22 322.7 245.22 252.31 174.83 252.31 216.88 210.26 198.45 210.26 240.97 167.74 223.02 167.74 257.74 107.6 292.47 167.74 273.57 167.74 316.09 210.26 297.67 210.26 339.71 252.31 268.85 252.31 268.85 322.7 338.3 322.7 338.3 344.44 103.02 344.44 103.02 322.7 103.49 322.7 121.44 322.7 130.89 322.7 130.89 294.36"/></svg>