<svg xmlns="http://www.w3.org/2000/svg" viewBox="0 0 454.54 454.54"><defs><style>.a,.c{fill:#0c479d;}.a{stroke:#0c479d;}.b{fill:#fff;}.d{fill:#000;}</style></defs><title>H14-1 korkortonline.se</title><rect class="a" x="0.5" y="0.5" width="453.54" height="453.54"/><path class="b" d="M28.85.5H425.7A28.34,28.34,0,0,1,454,28.85V425.7A28.34,28.34,0,0,1,425.7,454H28.85A28.34,28.34,0,0,1,.5,425.7V28.85A28.35,28.35,0,0,1,28.85.5Z"/><path class="c" d="M28.85,14.67H425.7a14.18,14.18,0,0,1,14.17,14.18V425.7a14.18,14.18,0,0,1-14.17,14.17H28.85A14.17,14.17,0,0,1,14.67,425.7V28.85A14.18,14.18,0,0,1,28.85,14.67Z"/><rect class="b" x="85.54" y="85.54" width="283.46" height="283.46"/><polygon class="d" points="180.03 320.34 227.27 320.34 274.52 320.34 274.52 134.2 227.27 134.2 180.03 134.2 180.03 320.34"/><polygon class="d" points="176.72 162.55 176.72 131.37 227.27 131.37 277.82 131.37 277.82 162.55 284.43 162.55 300.03 111.52 227.27 111.52 154.52 111.52 170.12 162.55 176.72 162.55"/><polygon class="d" points="351.52 343.02 351.52 324.12 227.27 324.12 103.02 324.12 103.02 343.02 227.27 343.02 351.52 343.02"/><path class="b" d="M213.1,205.54a53.47,53.47,0,0,1,14.17,15.12,53.61,53.61,0,0,1,14.17-15.12,25.64,25.64,0,0,0,9.45-13.23,11.88,11.88,0,0,0-23-5.76.57.57,0,0,1-1.14,0,11.88,11.88,0,0,0-23,5.76A25.7,25.7,0,0,0,213.1,205.54Z"/></svg>