<svg xmlns="http://www.w3.org/2000/svg" viewBox="0 0 454.54 454.54"><defs><style>.a,.c{fill:#0c479d;}.a{stroke:#0c479d;}.b{fill:#fff;}.d{fill:#000;}.e{fill:#ffce00;stroke:#ffce00;}</style></defs><title>H20-1 korkortonline.se</title><rect class="a" x="0.5" y="0.5" width="453.54" height="453.54"/><path class="b" d="M28.85.5H425.7A28.34,28.34,0,0,1,454,28.85V425.7A28.34,28.34,0,0,1,425.7,454H28.85A28.34,28.34,0,0,1,.5,425.7V28.85A28.35,28.35,0,0,1,28.85.5Z"/><path class="c" d="M28.85,14.67H425.7a14.18,14.18,0,0,1,14.17,14.18V425.7a14.18,14.18,0,0,1-14.17,14.17H28.85A14.17,14.17,0,0,1,14.67,425.7V28.85A14.18,14.18,0,0,1,28.85,14.67Z"/><rect class="b" x="85.54" y="85.54" width="283.46" height="283.46"/><path class="d" d="M236.69,141a6,6,0,0,0,1.88-2.31,4.32,4.32,0,0,0,.34-1.46c0-1.05-.13-2.09-.23-3.14A28.61,28.61,0,0,0,232,119.45c-.35-.37-.72-.73-1.1-1.07a14.44,14.44,0,0,0-1.8-1.2l-1.49-.61a18.68,18.68,0,0,0-5.4-.95,14.6,14.6,0,0,0-7.78,2.45,12.2,12.2,0,0,0-4.12,5.66,26.29,26.29,0,0,0-1.15,3.86c-.12.6-.22,1.21-.3,1.81s-.16,1.45-.2,2.18a19.28,19.28,0,0,0,1.16,7.1,70.76,70.76,0,0,0,4.73,9.46,25.5,25.5,0,0,0,3.43,5.6,3.11,3.11,0,0,0,2.87.93,12.12,12.12,0,0,0,2.44-1.7q4-3.54,8-7.21,2.73-2.34,5.42-4.73Z"/><path class="d" d="M215.34,100.63q-2-.75-4-1.41a4.8,4.8,0,0,0-4.68,1.17q-2.56,2.79-5.38,5.31a1.65,1.65,0,0,0-.45,1.13,1.8,1.8,0,0,0,.43,1.12,4.41,4.41,0,0,0,3.89,1.75c1.12,0,2.25,0,3.37.09q3.39.21,6.78.59,4,.62,8,1.31a46.17,46.17,0,0,1,6.54,1.69c1.4.38,2.81.71,4.23,1a4,4,0,0,0,2.47-.11,2.56,2.56,0,0,0,1.34-.94,1.23,1.23,0,0,0,.16-.82l-.06-.19a3.82,3.82,0,0,0-.59-1,3.59,3.59,0,0,0-1.18-.86,45.76,45.76,0,0,1-5.91-2.72c-2.15-1-4.29-2.06-6.4-3.16a65.9,65.9,0,0,0-8.58-4Z"/><path class="d" d="M180,259.28a3.4,3.4,0,0,0-.87-.82c-3-2.69-5.87-5.41-8.78-8.13a10.33,10.33,0,0,1-3.54-6.23,32.18,32.18,0,0,1,.22-8.82,41.26,41.26,0,0,1,1.16-4.5l28.39-91a33.82,33.82,0,0,1,1.94-4.61,12.73,12.73,0,0,1,2.57-2.86,5.61,5.61,0,0,0,2.36-3.59,26.57,26.57,0,0,1,2-5.68,10.79,10.79,0,0,1,3.69-4.6,26.2,26.2,0,0,1,2.83-1.82,4.27,4.27,0,0,0,.44-.3l.09-.09a1.59,1.59,0,0,0,.14-.26.64.64,0,0,0,0-.07.78.78,0,0,0-.06-.43.75.75,0,0,0-.47-.4c-.91-.24-1.81-.5-2.71-.76a11.17,11.17,0,0,0-3.2-.42,30,30,0,0,0-5.19.42,8.83,8.83,0,0,0-2.17.74,7.92,7.92,0,0,0-1.39,1,14.81,14.81,0,0,0-4.19,5.65c-.27.8-.52,1.61-.74,2.43q-.72,2.82-1.35,5.65a12.55,12.55,0,0,0,.09,4.81c.07.21.14.41.19.62a6.47,6.47,0,0,1-.28,2.9l-28.27,90.6q-.73,2.48-1.43,5c-.32,1.19-.6,2.39-.83,3.6q-.66,3.15-1.08,6.33a19.73,19.73,0,0,0,0,6.37,21.43,21.43,0,0,0,1.79,5.53,17,17,0,0,0,3.17,4.36,31.48,31.48,0,0,0,4.77,4.46,11.29,11.29,0,0,0,3.73,1.39,5.86,5.86,0,0,0,2.91-.17,9.56,9.56,0,0,0,1.88-1,6.33,6.33,0,0,0,2.33-2.51A2.94,2.94,0,0,0,180,259.28Z"/><path class="d" d="M282.64,319.58q.78-6.29,1.28-12.61.33-4.55.75-9.08,1.41-23.83,1.08-47.74a127,127,0,0,0-3.75-31c-.43-1.51-.92-3-1.45-4.48q-2.4-7.71-5-15.37a100.76,100.76,0,0,0-7.22-15.21q-2.12-4-4.31-8.07a13.37,13.37,0,0,1-.76-2,16.79,16.79,0,0,1-.83-4.5,11.82,11.82,0,0,1,.14-2.45c.31-1.67.61-3.35.88-5l1.24-7.69a20.45,20.45,0,0,0,.24-2.47q0-1.12.06-2.25c0-.43,0-.85,0-1.28a2.21,2.21,0,0,0-1.71-2.08,2.17,2.17,0,0,0-1.35.2,4.74,4.74,0,0,0-1.12,1.2l-18.5,24.68-.12.16a1.41,1.41,0,0,1-.39.38l0,0a1,1,0,0,1-.92,0,.44.44,0,0,1-.15-.12,1,1,0,0,1-.25-.73,1.41,1.41,0,0,1,.28-.68l21-29.64a15.55,15.55,0,0,0,3.63-9.27,12.2,12.2,0,0,0-1.21-4,11.2,11.2,0,0,0-6.65-5.49q-2.32-.72-4.65-1.41a85.48,85.48,0,0,1-9.63-3.06,55.6,55.6,0,0,0-6.6-2,.94.94,0,0,0-.55,0,.39.39,0,0,0-.28.47,1.6,1.6,0,0,0,.19.53l.26.59c.15.35.3.7.44,1a80.11,80.11,0,0,1,3.55,8.7,19.21,19.21,0,0,1,.89,3.74,1.66,1.66,0,0,0,1,1.3l.24.09h0l1.51.65c.24.08.48.17.71.27a1.06,1.06,0,0,1,.65.59,1,1,0,0,1,0,.89,1.62,1.62,0,0,1-.1.18,24.93,24.93,0,0,1-1.9,3,30.21,30.21,0,0,1-4.3,4.6q-4,3.91-8.3,7.55c-1.64,1.25-3.22,2.56-4.76,3.94a69.43,69.43,0,0,0-8.5,8.56,16,16,0,0,0-2.59,3.71,13.7,13.7,0,0,0-1.46,5.47,16.1,16.1,0,0,0,.31,2.93,28.63,28.63,0,0,0,1.18,3.75c.49,1.16,1,2.3,1.63,3.41q2,3.66,4.36,7.14Q230.06,202.2,239,215a6.41,6.41,0,0,1,1,2.05,5.36,5.36,0,0,1-.15,3.07,4.78,4.78,0,0,1-.47.93c-.65,1-1.28,2-1.87,3a13.47,13.47,0,0,0-1.42,3.2,14.74,14.74,0,0,0-.39,1.59,18.9,18.9,0,0,0-.35,5q.08,7.38.62,14.74.92,14.43,2,28.85a14.91,14.91,0,0,1-.46,5.15,9.92,9.92,0,0,1-2.49,4.84c-.81.95-1.66,1.85-2.55,2.71q-1.92,2-4,3.9-7,6-13.49,12.47-5,4.62-10.15,9-6.1,5.4-12.66,10.26-5,3.44-10,7c-.46.3-.91.6-1.35.92-.16.12-.31.25-.46.38l-.27.29a4.24,4.24,0,0,0-.88,1.94,7.69,7.69,0,0,0,.27,2.34,46.87,46.87,0,0,0,3.7,9.7c1.33,2.46,2.63,4.93,3.89,7.43a17.05,17.05,0,0,0,2.86,3.69,5.4,5.4,0,0,0,3.3,1.59,10.64,10.64,0,0,0,3.42-.19,1.63,1.63,0,0,0,1.24-1.51v-.14c-.27-1.53-.53-3.06-.76-4.59a37.86,37.86,0,0,1,.6-13.1,1.89,1.89,0,0,1,2-.8q6.21,3.22,12.55,6.21a2.94,2.94,0,0,0,3.63-.69,58.06,58.06,0,0,0,4.06-4.53q11.28-12.63,22-25.73,6-7.44,11.71-15.13a17.88,17.88,0,0,0,3-4.7,24.9,24.9,0,0,0,2.14-7q1.19-4.89,2.25-9.81c.35-1.74.65-3.48.92-5.24a3.93,3.93,0,0,1,1-2,.48.48,0,0,1,.44-.14.35.35,0,0,1,.19.12.81.81,0,0,1,.2.53,73,73,0,0,1,.22,8,89.79,89.79,0,0,1-1.46,14.54q-2,9.71-3.62,19.5a137.49,137.49,0,0,1-3.2,17.67q-1.68,8-4.12,15.7c-1.17,3.68-2.34,7.36-3.54,11a3.39,3.39,0,0,0-.15.77,3.31,3.31,0,0,0,.69,1.93.68.68,0,0,0,.26.18,16.67,16.67,0,0,0,4.18.89,15.93,15.93,0,0,0,6.19-1.4l.14-.06q7.74-4.28,15.64-8.28a5.65,5.65,0,0,0,3.13-4.22c0-.32.05-.65.08-1Q280.6,333.72,282.64,319.58Z"/><path class="e" d="M124.84,211.77"/><path class="e" d="M7.66,410.67"/><path class="e" d="M242.77,413.73"/></svg>