<svg xmlns="http://www.w3.org/2000/svg" viewBox="0 0 454.54 454.54"><defs><style>.a,.c{fill:#0c479d;}.a{stroke:#0c479d;}.b{fill:#fff;}.d{fill:#000;}.e{fill:none;}</style></defs><title>H22-1 korkortonline.se</title><rect class="a" x="0.5" y="0.5" width="453.54" height="453.54"/><path class="b" d="M28.85.5H425.7A28.34,28.34,0,0,1,454,28.85V425.7A28.34,28.34,0,0,1,425.7,454H28.85A28.34,28.34,0,0,1,.5,425.7V28.85A28.35,28.35,0,0,1,28.85.5Z"/><path class="c" d="M28.85,14.67H425.7a14.18,14.18,0,0,1,14.17,14.18V425.7a14.18,14.18,0,0,1-14.17,14.17H28.85A14.17,14.17,0,0,1,14.67,425.7V28.85A14.18,14.18,0,0,1,28.85,14.67Z"/><rect class="b" x="85.54" y="85.54" width="283.46" height="283.46"/><path class="d" d="M301.44,206.48h-25v41.58h25a53.39,53.39,0,1,1-53.38,53.38v-25H206.48v25a53.39,53.39,0,1,1-53.38-53.38h25V206.48h-25a53.39,53.39,0,1,1,53.38-53.38v25h41.58v-25a53.39,53.39,0,1,1,53.38,53.38Z"/><path class="e" d="M247.63,227.27"/><path class="e" d="M206.91,227.27"/><path class="e" d="M227.27,206.91"/><path class="e" d="M227.27,247.63"/><path class="b" d="M276.41,178.14v-25a25,25,0,1,1,25,25Z"/><path class="b" d="M276.41,301.44a25,25,0,1,0,25-25h-25Z"/><path class="b" d="M178.14,301.44v-25h-25a25,25,0,1,0,25,25Z"/><path class="b" d="M178.14,153.1a25,25,0,1,0-25,25h25Z"/><rect class="b" x="206.48" y="206.48" width="41.57" height="41.57"/></svg>