<svg xmlns="http://www.w3.org/2000/svg" viewBox="0 0 729.75 842.18"><defs><style>.a,.c{fill:#0c479d;}.a{stroke:#0c479d;}.b{fill:#fff;}.d{fill:#000;}</style></defs><title>H23-1 korkortonline.se</title><rect class="a" x="0.5" y="0.5" width="728.75" height="841.18"/><rect class="b" x="0.5" y="0.5" width="728.75" height="841.18" rx="16.66"/><path class="c" d="M8.83,17.16V825a8.33,8.33,0,0,0,8.33,8.33H712.59a8.33,8.33,0,0,0,8.33-8.33V17.16a8.33,8.33,0,0,0-8.33-8.33H17.16a8.33,8.33,0,0,0-8.33,8.33Z"/><rect class="b" x="58.8" y="50.47" width="612.15" height="616.31"/><rect class="d" x="100.44" y="79.62" width="166.57" height="166.57"/><rect class="b" x="112.94" y="92.11" width="141.58" height="141.58"/><path class="d" d="M165.07,151.43h7.55v72.36h63.13V113.92a11.9,11.9,0,0,0-11.9-11.9H184.51a11.89,11.89,0,0,0-11.89,11.9v.68H161.69a25.49,25.49,0,0,0-24.62,18.89l-13.5,50.4a21.11,21.11,0,1,0,41.5,5.47Z"/><path class="b" d="M134.05,186.7a10.25,10.25,0,1,0,20.16,2.66V145.29L165.9,134.2h6.72v-9.49H161.53a14.16,14.16,0,0,0-13.68,10.49Z"/><rect class="b" x="186.76" y="114.6" width="34.05" height="22"/><rect class="d" x="100.44" y="275.34" width="166.57" height="166.57"/><rect class="b" x="112.94" y="287.83" width="141.58" height="141.58"/><path class="d" d="M236.59,396.89l-40.16-37.14L195,358.41l12.85-13.62a16.63,16.63,0,0,0,15.8-1.79c.68-.57,1.35-1.17,2-1.77l17.77-17.54a4.23,4.23,0,0,0-5.88-6.06l-18.13,18a1.67,1.67,0,0,1-.53.32,2.41,2.41,0,0,1-2.86-3.41,1,1,0,0,1,.17-.25l18.31-18.2.08-.1a4.2,4.2,0,0,0-5.72-5.88,1.89,1.89,0,0,0-.27.2l-18,18a3,3,0,0,1-.7.47,2.42,2.42,0,0,1-3.07-3.13,1.84,1.84,0,0,1,.3-.43l18.07-18a4.23,4.23,0,0,0-6-5.9l-17.9,18a16,16,0,0,0-1.72,2,16.59,16.59,0,0,0-1.61,15.45L183.75,348l-8.42-7.79a18.16,18.16,0,0,0-6.14-20.77,63.75,63.75,0,0,0-27.41-14.85,10.27,10.27,0,0,0-1.09-.17,12.41,12.41,0,0,0-5.92,1.09,9.42,9.42,0,0,0-1.32.73,8.52,8.52,0,0,0-2.44,2.63,12.39,12.39,0,0,0-1.45,6.75,5.75,5.75,0,0,0,.15,1,63.6,63.6,0,0,0,14.93,27.43,18.15,18.15,0,0,0,20.78,6.09l7.46,8L129.64,398.6a14.76,14.76,0,0,0-1.27,1.78,10.28,10.28,0,0,0,14,13.45,8.13,8.13,0,0,0,1.41-1.06L184,370.11l1.49,1.6,36.8,39.6a9.55,9.55,0,0,0,1,.82,10.51,10.51,0,0,0,14.42-13.89A15.35,15.35,0,0,0,236.59,396.89Z"/><rect class="d" x="100.44" y="471.06" width="166.57" height="166.57"/><rect class="b" x="112.94" y="483.55" width="141.58" height="141.59"/><path class="d" d="M247,582.77a17.64,17.64,0,0,0-.22-2.81,52.87,52.87,0,0,0-43.2-38.12,43.4,43.4,0,0,0-10.86-9V499.13a8.26,8.26,0,0,0-16.51,0V510H138.42V499.13a8.26,8.26,0,0,0-16.52,0v79.76a8.36,8.36,0,0,0,16.52,0V562.13l30.68,25.75v21.21a8.29,8.29,0,0,0,16.51,0V588.33h44.84v20.76a8.29,8.29,0,0,0,16.52,0V582.77Z"/><path class="b" d="M152.81,546.32a61.55,61.55,0,0,1,48.38-5.19,52.36,52.36,0,0,0-62.77-6.88Z"/><rect class="d" x="308.66" y="79.62" width="320.65" height="166.57"/><rect class="b" x="321.15" y="92.11" width="141.58" height="141.58"/><rect class="b" x="475.23" y="92.11" width="141.58" height="141.58"/><rect class="d" x="308.66" y="275.34" width="320.65" height="166.57"/><rect class="b" x="321.15" y="287.83" width="141.58" height="141.58"/><rect class="b" x="475.23" y="287.83" width="141.58" height="141.58"/><rect class="d" x="308.66" y="471.06" width="320.65" height="166.57"/><rect class="b" x="321.15" y="483.55" width="141.58" height="141.59"/><rect class="b" x="475.23" y="483.55" width="141.58" height="141.59"/><path class="b" d="M436.5,791.71V754a8.33,8.33,0,1,1,16.66,0v37.72h15V754a8.33,8.33,0,1,1,16.65,0v37.72h15V749.58a19.68,19.68,0,0,0-35.58-11.53,20.75,20.75,0,0,0-27.72-4.64v-2.5h-15v60.8Z"/><polygon class="b" points="356.54 791.71 356.54 773.5 362.68 767.29 379.64 791.71 397.89 791.71 373.4 756.45 398.65 730.91 377.57 730.91 356.54 752.18 356.54 708.42 341.55 708.42 341.55 791.71 356.54 791.71"/><polygon class="b" points="239.94 708.42 251.6 708.42 251.6 791.71 236.61 791.71 236.61 732.16 227.45 732.16 227.45 722.84 239.94 708.42"/></svg>