<svg xmlns="http://www.w3.org/2000/svg" viewBox="0 0 454.54 454.54"><defs><style>.a,.c{fill:#0c479d;}.a{stroke:#0c479d;}.b{fill:#fff;}.d{fill:#000;}</style></defs><title>H24-1 korkortonline.se</title><rect class="a" x="0.5" y="0.5" width="453.54" height="453.54"/><path class="b" d="M28.85.5H425.7A28.34,28.34,0,0,1,454,28.85V425.7A28.34,28.34,0,0,1,425.7,454H28.85A28.34,28.34,0,0,1,.5,425.7V28.85A28.35,28.35,0,0,1,28.85.5Z"/><path class="c" d="M28.85,14.67H425.7a14.18,14.18,0,0,1,14.17,14.18V425.7a14.18,14.18,0,0,1-14.17,14.17H28.85A14.17,14.17,0,0,1,14.67,425.7V28.85A14.18,14.18,0,0,1,28.85,14.67Z"/><rect class="b" x="85.54" y="85.54" width="283.46" height="283.46"/><path class="d" d="M111.22,111.05h33.52a24.53,24.53,0,0,1,19,40,25.92,25.92,0,0,1-17.51,45h-35v-85Z"/><path class="d" d="M263,196.09l-15.39-20a137.44,137.44,0,0,0,8.47-23.76L242,147.12a123.6,123.6,0,0,1-4.82,15.39L227,149.33a68.23,68.23,0,0,0,6.49-6.46,21.87,21.87,0,0,0-1.24-27.55A19.64,19.64,0,0,0,219,110.67h0a19.33,19.33,0,0,0-17.87,11.74A27.48,27.48,0,0,0,200,133.55,41.88,41.88,0,0,0,205.54,146l-.06,0a29.32,29.32,0,0,0-13.09,35.12c0,.09.07.18.11.28a24.77,24.77,0,0,0,19.44,15,35.06,35.06,0,0,0,26.34-8l5.87,7.63Z"/><path class="d" d="M285.79,111.05h33.52a24.53,24.53,0,0,1,19,40,25.92,25.92,0,0,1-17.51,45h-35v-85Z"/><path class="b" d="M126.73,144.57h18a9,9,0,0,0,0-18h-18Z"/><path class="b" d="M146.24,180.58a10.41,10.41,0,0,0,4-20,20.69,20.69,0,0,0-4.5-.5h-19v20.51Z"/><path class="b" d="M216.3,181.7a20.06,20.06,0,0,0,12.86-5.1l-14.44-18.77-1.57,1a14.4,14.4,0,0,0-6.78,17,9.83,9.83,0,0,0,9.69,5.88Z"/><path class="b" d="M220.17,137a18.56,18.56,0,0,0,4.54-5.65,8.89,8.89,0,0,0-.29-4.82,7.47,7.47,0,0,0-3.85-3,5.45,5.45,0,0,0-5.47,1.12,5.21,5.21,0,0,0-2,3.59,7.49,7.49,0,0,0,.73,5,19.13,19.13,0,0,0,4,5.35C218.61,138.08,219.39,137.54,220.17,137Z"/><path class="b" d="M301.3,144.57h18a9,9,0,0,0,0-18h-18Z"/><path class="b" d="M320.81,180.58a10.41,10.41,0,0,0,4-20,20.69,20.69,0,0,0-4.5-.5h-19v20.51Z"/><path class="d" d="M102.55,259.27V352h19.21V333h211v19H352V233.79a9.61,9.61,0,0,0-19.22-.08v37.37a44.44,44.44,0,0,1-39.58,36.4H121.76V259.27a9.61,9.61,0,1,0-19.21,0"/><path class="d" d="M321.84,263c-4.57-5.78-17-3.59-27.69,4.89s-15.73,20-11.17,25.8,17,3.59,27.69-4.88S326.4,268.73,321.84,263Z"/><path class="d" d="M267.11,298.05A8.76,8.76,0,0,0,276,287.83a15.6,15.6,0,0,0-8.91-11.55,195.05,195.05,0,0,0-126,0,13.21,13.21,0,0,0-8.9,11.55,9.57,9.57,0,0,0,8.9,10.22h126"/></svg>