<svg xmlns="http://www.w3.org/2000/svg" viewBox="0 0 454.54 454.54"><defs><style>.a,.c{fill:#0c479d;}.a{stroke:#0c479d;}.b{fill:#fff;}.d{fill:#000;}</style></defs><title>H26-1 korkortonline.se</title><rect class="a" x="0.5" y="0.5" width="453.54" height="453.54"/><path class="b" d="M28.85.5H425.7A28.34,28.34,0,0,1,454,28.85V425.7A28.34,28.34,0,0,1,425.7,454H28.85A28.34,28.34,0,0,1,.5,425.7V28.85A28.35,28.35,0,0,1,28.85.5Z"/><path class="c" d="M28.85,14.67H425.7a14.18,14.18,0,0,1,14.17,14.18V425.7a14.18,14.18,0,0,1-14.17,14.17H28.85A14.17,14.17,0,0,1,14.67,425.7V28.85A14.18,14.18,0,0,1,28.85,14.67Z"/><rect class="b" x="85.54" y="85.54" width="283.46" height="283.46"/><path class="d" d="M270.47,145.47a10.56,10.56,0,0,1-3.21-2.58,34,34,0,0,1-7.44-16.95q-.65-4.59-1.57-9.12a30.86,30.86,0,0,0-6.83-13.89,10.55,10.55,0,0,0-9.17-3.84,30.49,30.49,0,0,0-16.16,6.47,6.37,6.37,0,0,0-1.88,1.92,17.38,17.38,0,0,0-2,14.34l3.88,10,2.67,8.65a8.82,8.82,0,0,0,7.52,5.41,9.45,9.45,0,0,1,4.28.49,2.83,2.83,0,0,1,1.21,4.49l-3.05,4.73-2.31,4.76A24.58,24.58,0,0,0,233.05,173l1.34,19.31a10.79,10.79,0,0,1-2.57,6.91L214.29,219.8l-.88.76-6.77,6.05-5.76,5.1a7.07,7.07,0,0,0,4,12.87,11.55,11.55,0,0,0,8.49-3.91l4.34-4.28,1.93,2.53,30.69-27.23A599.94,599.94,0,0,1,239,293.29q-.6,3.6-1.47,7.14,3.17.44,6.35.83a.41.41,0,0,0,0,.11q-.54,20-.91,40a2.38,2.38,0,0,1-1.3,2.07,186.4,186.4,0,0,1-22.31,9.63,5,5,0,0,0-2.33,7.69h35.57a1.53,1.53,0,0,0,1.3-.72q4.68-19.32,9.24-38.67,2.1-8.91,4-17.85,14,1,28,1.2a25.42,25.42,0,0,1,.46,3.25q1.59,20,4.82,39.87a2,2,0,0,1-1.35,2.23,64.28,64.28,0,0,0-12.31,5.71,3.67,3.67,0,0,0-.69,5.77h23.21L325,357a1.07,1.07,0,0,0,.77-1,9.79,9.79,0,0,0-.11-1.87q-4.41-27.42-8.74-54.85-.86-7.62-1.13-15.29-.27-7-1.17-14c.08-3.21.22-6.41.42-9.62.25-3.42.59-6.84,1-10.24a72,72,0,0,0-.07-10.59,105.09,105.09,0,0,0-2.79-18.92,94.33,94.33,0,0,0-5-15.09A246.49,246.49,0,0,0,273.64,148,9.49,9.49,0,0,0,270.47,145.47Z"/><path class="d" d="M166.92,199.92H144.07a2.27,2.27,0,0,0-1.84,3.58,45.06,45.06,0,0,1,6,40.91,2.27,2.27,0,0,0,2.14,3h33.2a2.26,2.26,0,0,0,2.14-3,45.09,45.09,0,0,1,6-40.91,2.26,2.26,0,0,0-1.84-3.58Z"/><path class="d" d="M178.26,271.17a2.27,2.27,0,0,1,2.27-2.27h40.82a2.25,2.25,0,0,0,2.26-2.26V254.16a2.26,2.26,0,0,0-2.26-2.26H112.5a2.26,2.26,0,0,0-2.27,2.26v12.48a2.29,2.29,0,0,0,.66,1.6,2.25,2.25,0,0,0,1.61.66h40.82a2.27,2.27,0,0,1,2.26,2.27v70.35a2.26,2.26,0,0,1-2.26,2.26H129.5a2.27,2.27,0,0,0-2.26,2.27v12.47a2.27,2.27,0,0,0,2.26,2.27h74.84a2.27,2.27,0,0,0,2.27-2.27V346.05a2.27,2.27,0,0,0-2.27-2.27H180.53a2.27,2.27,0,0,1-2.27-2.26Z"/></svg>