<svg xmlns="http://www.w3.org/2000/svg" viewBox="0 0 842.18 842.18"><defs><style>.a,.c{fill:#0c479d;}.a{stroke:#0c479d;}.b{fill:#fff;}.d{fill:#000;}</style></defs><title>H28-1 korkortonline.se</title><rect class="a" x="0.5" y="0.5" width="841.18" height="841.18"/><rect class="b" x="0.5" y="0.5" width="841.18" height="841.18" rx="50.47"/><path class="c" d="M51,25.74H791.21A25.24,25.24,0,0,1,816.45,51V791.21a25.24,25.24,0,0,1-25.24,25.24H51a25.24,25.24,0,0,1-25.24-25.24V51A25.23,25.23,0,0,1,51,25.74Z"/><rect class="b" x="158.22" y="158.22" width="525.74" height="525.74"/><path class="d" d="M308.43,522.64a33.8,33.8,0,1,0-33.79,33.79A33.79,33.79,0,0,0,308.43,522.64Z"/><path class="d" d="M578.81,522.64A33.8,33.8,0,1,0,545,556.43,33.8,33.8,0,0,0,578.81,522.64Z"/><path class="d" d="M214.87,303.55l-6.64,13.29a11.24,11.24,0,0,0-1.19,5v17.85a11.29,11.29,0,0,0,1.19,5l7,13.93a11.28,11.28,0,0,0,10.08,6.23h39.39L227,435.58,191.08,452a11.28,11.28,0,0,0-6.57,10.24V498a11.37,11.37,0,0,0,1.24,5.15l6.88,13.38a11.26,11.26,0,0,0,10,6.12h26.92a45.07,45.07,0,1,1,90.13,0H500a45.07,45.07,0,1,1,90.13,0h56.33a11.27,11.27,0,0,0,11.26-11.27V330.81a11.27,11.27,0,0,0-11.26-11.27H478.33a11.35,11.35,0,0,1-3.57-.57l-63.2-21.07a11.34,11.34,0,0,0-3.56-.58H225A11.27,11.27,0,0,0,214.87,303.55Z"/><path class="b" d="M267.76,380.48a6.77,6.77,0,0,1,6-3.56h47.5a6.76,6.76,0,0,1,6.76,6.76v45.14l-89.74,6.76Z"/><rect class="b" x="244.98" y="317.8" width="90.13" height="33.8" rx="6.76"/><rect class="b" x="368.93" y="365.65" width="112.66" height="67.59" rx="6.76"/><rect class="b" x="553.3" y="365.65" width="67.59" height="67.59" rx="6.76"/></svg>