<svg xmlns="http://www.w3.org/2000/svg" viewBox="0 0 454.54 454.54"><defs><style>.a,.c{fill:#0c479d;}.a{stroke:#0c479d;}.b{fill:#fff;}.d{fill:#000;}</style></defs><title>H5-1 korkortonline.se</title><rect class="a" x="0.5" y="0.5" width="453.54" height="453.54"/><path class="b" d="M28.85.5H425.7A28.34,28.34,0,0,1,454,28.85V425.7A28.34,28.34,0,0,1,425.7,454H28.85A28.34,28.34,0,0,1,.5,425.7V28.85A28.35,28.35,0,0,1,28.85.5Z"/><path class="c" d="M28.85,14.67H425.7a14.18,14.18,0,0,1,14.17,14.18V425.7a14.18,14.18,0,0,1-14.17,14.17H28.85A14.17,14.17,0,0,1,14.67,425.7V28.85A14.18,14.18,0,0,1,28.85,14.67Z"/><rect class="b" x="85.54" y="85.54" width="283.46" height="283.46"/><path class="d" d="M277.11,284.91A127,127,0,0,0,291,253.73a51.94,51.94,0,0,0,48-49.61V160.19H298.81L300,132.31H153.09l4,92.13A127,127,0,0,0,176,284.91H100.42a6.85,6.85,0,0,0-2.84,10.87,102.48,102.48,0,0,0,65.2,29.29h128.5a102.46,102.46,0,0,0,65.2-29.29,6.86,6.86,0,0,0-2.83-10.87Z"/><path class="b" d="M294.88,235.78a35.59,35.59,0,0,0,26.17-31.66v-26H298l-2,46.3q-.28,5.69-1.09,11.32a0,0,0,0,1,0,0Z"/></svg>