<svg xmlns="http://www.w3.org/2000/svg" viewBox="0 0 454.54 494.88"><defs><style>.a,.c,.d{fill:#834a2d;}.a{stroke:#834a2d;}.b{fill:#fff;}.c{stroke:#000;stroke-linecap:round;stroke-linejoin:round;stroke-width:0.18px;}</style></defs><title>I2-1 korkortonline.se</title><rect class="a" x="0.5" y="0.5" width="453.54" height="493.88"/><path class="b" d="M.5,28.85V466a28.35,28.35,0,0,0,28.35,28.35H425.7A28.35,28.35,0,0,0,454,466V28.85A28.34,28.34,0,0,0,425.7.5H28.85A28.34,28.34,0,0,0,.5,28.85Z"/><path class="c" d="M14.67,28.85V466A14.17,14.17,0,0,0,28.85,480.2H425.7A14.17,14.17,0,0,0,439.87,466V28.85A14.17,14.17,0,0,0,425.7,14.67H28.85A14.17,14.17,0,0,0,14.67,28.85Z"/><rect class="b" x="85.54" y="85.54" width="283.46" height="283.46"/><path class="b" d="M77.18,412.25,84,405.46a22.54,22.54,0,0,0-17.28-7.71,20.7,20.7,0,0,0-15.43,6.79,30.88,30.88,0,0,0,0,40.11,20.78,20.78,0,0,0,15.43,6.79A21,21,0,0,0,88.6,432.31v-9.88H66.69V432H79a11.53,11.53,0,0,1-12.34,9.87,11,11,0,0,1-8.64-4,21.32,21.32,0,0,1,0-26.53,11,11,0,0,1,8.64-4A13,13,0,0,1,77.18,412.25Z"/><polygon class="b" points="103.87 450.83 113.43 450.83 113.43 419.98 113.43 398.38 103.87 398.38 103.87 419.98 103.87 450.83"/><path class="b" d="M165.26,412.57H155.7v2.78a13.59,13.59,0,0,0-6.17-2.78,16.15,16.15,0,0,0-8.95.62,18.35,18.35,0,0,0-9.26,8.95,27.77,27.77,0,0,0,0,19.43,17.77,17.77,0,0,0,10.8,9.57,16,16,0,0,0,7.41,0,15.54,15.54,0,0,0,6.17-2.78v2.47h9.56Z"/><path class="b" d="M186,438.18a20.55,20.55,0,0,0,9,3.39,16.23,16.23,0,0,0,6.17-.31A3.11,3.11,0,0,0,203,440a2.17,2.17,0,0,0-1.23-3.39l-13-3.09a10.52,10.52,0,0,1-.93-19.75,22.64,22.64,0,0,1,6.79-1.54,27.34,27.34,0,0,1,18.52,4.94L208,424.91a20.67,20.67,0,0,0-13-3.08,7.63,7.63,0,0,0-2.78.61,1.91,1.91,0,0,0-.94,1.8,1.89,1.89,0,0,0,1.25,1.6c.31.11.62.22.93.31l12,2.77a10.87,10.87,0,0,1,5.25,17.9,14.21,14.21,0,0,1-8.64,4,40.33,40.33,0,0,1-10.18,0,22.8,22.8,0,0,1-11.11-4.63Z"/><path class="b" d="M229.43,450.83H239V431.7a11.52,11.52,0,0,1,5.55-8.33,9.83,9.83,0,0,1,5.55-1.54,7.9,7.9,0,0,1,3.4.61v-9.87a20.25,20.25,0,0,0-14.5,2.78v-2.78h-9.57Z"/><path class="b" d="M265.53,402.7a6,6,0,1,1,6,6A6,6,0,0,1,265.53,402.7Z"/><rect class="b" x="266.76" y="412.57" width="9.56" height="38.26"/><polygon class="b" points="303.17 425.81 303.17 398.38 293.6 398.38 293.6 450.83 303.17 450.83 303.17 439.41 306.89 435.64 317.44 450.83 329.08 450.83 313.73 428.72 329.7 412.57 316.25 412.57 303.17 425.81"/><path class="b" d="M347.87,431.89a19.79,19.79,0,0,0,8,16.35,17.6,17.6,0,0,0,10.8,3.39A22.26,22.26,0,0,0,380.76,447l-5.55-7.72a12.18,12.18,0,0,1-10.37,2.78,9.33,9.33,0,0,1-7.09-8h26.84V431a19.79,19.79,0,0,0-8-15.46,17.46,17.46,0,0,0-20.68,0A19.81,19.81,0,0,0,347.87,431.89Z"/><path class="b" d="M395.82,422.14v22.21a6.2,6.2,0,0,0,6.48,6.48h6.79v-9.57h-1.55a2,2,0,0,1-1.57-.58,2.06,2.06,0,0,1-.59-1.58v-17h4.79v-9.57h-4.79V398.38L395.82,403v9.56H392v9.57Z"/><path class="d" d="M162.44,244.6l2,5.11a14.81,14.81,0,0,1,1.13,6.24,36.24,36.24,0,0,1-3,13.1q-4.91,11.34-10,22.59a64.25,64.25,0,0,1-14.36,20.21,7.22,7.22,0,0,1-3.29,1.81,19.07,19.07,0,0,1-23.09-14,9.27,9.27,0,0,1-.09-4.06q1.08-5.44,2.51-10.81A101,101,0,0,1,137.83,242a7.62,7.62,0,0,1,3.29-2.08,64.88,64.88,0,0,1,7.78-1.9,21.62,21.62,0,0,0,4.67-1.38,6.12,6.12,0,0,0,3.65-6.71.92.92,0,0,1,1.65-.69,4.22,4.22,0,0,1,.78,2.33,1.57,1.57,0,0,0,.51,1.13.38.38,0,0,0,.43,0,.36.36,0,0,0,.18-.39L195,199.28a6.36,6.36,0,0,1,4.6-11.37h6.92l14.57-14a3.56,3.56,0,0,1-1.17-4.4,15.84,15.84,0,0,1,8.82-8.18,2.43,2.43,0,0,1,2.87.9.75.75,0,0,0,.5.31.74.74,0,0,0,.58-.13l35.66-34.22v-9.86l-.35-1.17a9.06,9.06,0,0,1,1.34-8,15.92,15.92,0,0,1,12-6.47A37.89,37.89,0,0,1,296.6,105a9,9,0,0,1,5,4.67,16.15,16.15,0,0,1,1.44,5.57,60.09,60.09,0,0,1,0,8.9,18,18,0,0,1-3.6,9.53l-.43,5.88a1.68,1.68,0,0,0,.9,1.61,96.94,96.94,0,0,0,22.12,8.36,7.53,7.53,0,0,1,5.4,5,34.74,34.74,0,0,1,1.65,11q-.09,8.09-.27,16.17a30.38,30.38,0,0,1-1.71,9.44,84.19,84.19,0,0,1-7.28,15.53,3.77,3.77,0,0,0-.54,2.25c.19,2.7.46,5.4.81,8.08q.92,7,1.44,14.11a21.23,21.23,0,0,1-1.17,8.62A36.28,36.28,0,0,0,318.33,250a51.57,51.57,0,0,0,.36,9.62q.9,7,1.16,14a205.06,205.06,0,0,0,3.43,30.46q1.59,8.42,2.79,16.89,1.73,12.27,3.6,24.52l-19.61,5.66H290.19v-1.35h.45a6.36,6.36,0,0,1,1.89-4.31,11.85,11.85,0,0,1,5.57-3.15,23,23,0,0,0,5.85-2.34,2.59,2.59,0,0,0,1.26-1.79L298,293.07,286.91,253l-18.82,35.73-14.84,61.74H216.34v-1.35h.45a9.11,9.11,0,0,1,1.89-6.34,10,10,0,0,1,4.68-2.58,150.48,150.48,0,0,0,17.41-8.72v-50l21.34-59.82,2-27-2.63-1.1-5.53,10.25-42.44-.1.15-2.84h-2a7.59,7.59,0,0,0-9,.59h-1.8l-38.09,36.87-1.8-.15-.1.86.56,2.3Z"/><path class="d" d="M155.7,436a8.73,8.73,0,0,1-6.48,6.17,6.8,6.8,0,0,1-5.55-1.23,11.18,11.18,0,0,1-4-7.1,15.63,15.63,0,0,1,0-4.32,11.18,11.18,0,0,1,4-7.1,6.77,6.77,0,0,1,5.55-1.23,8.73,8.73,0,0,1,6.48,6.17Z"/><path class="d" d="M374.41,427.88a8.29,8.29,0,0,0-16.36,0Z"/><path class="b" d="M239.29,188.3l-24.6-.44,14-13.55a2.82,2.82,0,0,1,1-.61,3,3,0,0,1,2.56.28,7.6,7.6,0,0,1,2.29,2.12,14.17,14.17,0,0,0,3.35,3.34,14.52,14.52,0,0,0,3.51,1.84,1.88,1.88,0,0,1,1.23,1.62,2.76,2.76,0,0,1-.39,1.61,31.73,31.73,0,0,1-2.57,3.63A.47.47,0,0,1,239.29,188.3Z"/><path class="b" d="M249.89,171.25l-11.64-5.89,31.55-30.78a.83.83,0,0,1,.67-.22.77.77,0,0,1,.59.39c.36.58.69,1.18,1,1.78a2.57,2.57,0,0,0,1.93,1.35c1.79.22,3.58.43,5.37.62a2.12,2.12,0,0,1,1.52.89,1.54,1.54,0,0,1-.17,2,25.25,25.25,0,0,1-4.24,3.41,14,14,0,0,1-5.44,2,12.89,12.89,0,0,0-4.79,1.72q-1.67,1-3.3,2.07a9.09,9.09,0,0,0-4,5.77,12.1,12.1,0,0,1-3.08,5.83,20.81,20.81,0,0,0-4.94,8.6.72.72,0,0,1-.64.51A1.39,1.39,0,0,1,249.89,171.25Z"/><path class="b" d="M123.6,306.64a13.39,13.39,0,0,0,9.38,1.44,8.54,8.54,0,0,0,4.57-2.64,73.22,73.22,0,0,0,6-7.69,99.31,99.31,0,0,0,12.38-25.47q2.2-6.9,4.81-13.69a6.66,6.66,0,0,0-.12-5,46.4,46.4,0,0,1-1.86-5,5.47,5.47,0,0,0-2.37-3.05,22,22,0,0,0-5.65-2.46,7.92,7.92,0,0,0-6.23.85,25.76,25.76,0,0,0-6.58,5.68,58.06,58.06,0,0,0-8.11,13q-3.08,6.83-6.54,13.47a66.87,66.87,0,0,0-5.57,14.77c-.5,2.06-1,4.12-1.36,6.2a7.77,7.77,0,0,0,.18,3.74,5.83,5.83,0,0,0,2.1,3A22.79,22.79,0,0,0,123.6,306.64Z"/><path class="d" d="M137.35,260.36a68.1,68.1,0,0,1,6.38-8.81,15.38,15.38,0,0,1,3.29-2.89,6.67,6.67,0,0,1,2.89-1,3.93,3.93,0,0,0,2-.81.8.8,0,0,0,.3-.55.77.77,0,0,0-.19-.58c-.18-.22-.35-.44-.51-.68a.81.81,0,0,0-.62-.36,9.06,9.06,0,0,0-4,.58,12.65,12.65,0,0,0-3.43,2,18.45,18.45,0,0,0-3.56,3.82,185.55,185.55,0,0,0-10.26,16.28,49.89,49.89,0,0,0-3,6.28,2.36,2.36,0,0,0-.06,1.53,1.21,1.21,0,0,0,.67.78,1.25,1.25,0,0,0,1,0,3.6,3.6,0,0,0,1.47-1.29,11.72,11.72,0,0,0,1.43-3.06,14.53,14.53,0,0,1,1.57-3.45Q135.23,264.3,137.35,260.36Z"/></svg>