<svg xmlns="http://www.w3.org/2000/svg" viewBox="0 0 476 232.44"><defs><style>.a{fill:#ffce00;}.b{fill:#dc0032;}</style></defs><title>J3-1 korkortonline.se</title><rect class="a" width="475.97" height="232.44"/><path class="b" d="M28.35,0H447.62A28.34,28.34,0,0,1,476,28.3V204.09a28.34,28.34,0,0,1-28.33,28.35H28.35A28.34,28.34,0,0,1,0,204.11V28.35A28.34,28.34,0,0,1,28.33,0Z" transform="translate(0 0)"/><path class="a" d="M28.35,14.17H447.62A14.18,14.18,0,0,1,461.8,28.35V204.09a14.18,14.18,0,0,1-14.18,14.18H28.35a14.18,14.18,0,0,1-14.18-14.18V28.35A14.19,14.19,0,0,1,28.35,14.17Z" transform="translate(0 0)"/><polygon points="177.62 192.76 185.89 192.76 185.89 166.08 185.89 147.4 177.62 147.4 177.62 166.08 177.62 192.76"/><path d="M194.69,176.32a17.07,17.07,0,0,0,6.94,14.14A15.22,15.22,0,0,0,211,193.4a19.25,19.25,0,0,0,12.17-4l-4.81-6.66a10.52,10.52,0,0,1-9,2.4,8.08,8.08,0,0,1-6.13-6.94h23.21v-2.65a17.07,17.07,0,0,0-6.94-13.36,15,15,0,0,0-17.87,0A17.05,17.05,0,0,0,194.69,176.32Z" transform="translate(0 0)"/><path d="M265.66,159.67V147.4h-8.28v14.67a11.86,11.86,0,0,0-5.33-2.4,14,14,0,0,0-7.74.54,15.78,15.78,0,0,0-8,7.73,24,24,0,0,0,0,16.81,15.31,15.31,0,0,0,9.34,8.27,14.58,14.58,0,0,0,11.73-2.4v2.14h8.28Z" transform="translate(0 0)"/><path d="M276.33,192.76h8.27v-20a5.2,5.2,0,1,1,10.4,0h0v20h8.27V171a12,12,0,0,0-18.67-9.74v-1.6h-8.27Z" transform="translate(0 0)"/><path d="M312.34,151.14a5.2,5.2,0,1,1,5.2,5.2,5.2,5.2,0,0,1-5.2-5.2Z" transform="translate(0 0)"/><rect x="313.41" y="159.67" width="8.27" height="33.08"/><path d="M332.35,192.76h8.27v-20a5.2,5.2,0,1,1,10.4,0h0v20h8.27V171a12,12,0,0,0-18.67-9.74v-1.6h-8.27Z" transform="translate(0 0)"/><path d="M390.24,193.29v-3.47a11,11,0,0,1-4.8,2.14,12.75,12.75,0,0,1-6.14,0,15.33,15.33,0,0,1-9.34-8.28,21.1,21.1,0,0,1,0-15.74,15.89,15.89,0,0,1,8-7.73,13.09,13.09,0,0,1,7.48-.54,10,10,0,0,1,4.8,2.4v-2.4h8.27v33.62a10.25,10.25,0,0,1-6.41,10.14,29.6,29.6,0,0,1-22.14-.54l3.47-6.93a20.33,20.33,0,0,0,9.87,2.13,11.68,11.68,0,0,0,4-.8A4.85,4.85,0,0,0,390.24,193.29Z" transform="translate(0 0)"/><polygon points="165.04 77.07 165.04 95.48 179.45 95.48 179.45 103.75 156.77 103.75 156.77 77.07 156.77 58.39 165.04 58.39 165.04 77.07"/><path d="M185.45,62.13a5.2,5.2,0,1,1,5.2,5.2h0A5.2,5.2,0,0,1,185.45,62.13Z" transform="translate(0 0)"/><rect x="186.52" y="70.67" width="8.27" height="33.08"/><polygon points="236.27 70.67 227.46 70.67 219.73 91.73 212 70.67 203.19 70.67 215.33 103.75 219.73 103.75 224.13 103.75 236.27 70.67"/><path d="M247.52,92.81a17.75,17.75,0,0,0,7.74,2.93,14.33,14.33,0,0,0,5.34-.26,2.75,2.75,0,0,0,1.6-1.07,1.88,1.88,0,0,0-.4-2.63,1.86,1.86,0,0,0-.67-.31l-11.21-2.66a9.1,9.1,0,0,1-.8-17.08A19.18,19.18,0,0,1,255,70.4a23.58,23.58,0,0,1,16,4.27l-4.53,6.67a17.91,17.91,0,0,0-11.21-2.67,6.4,6.4,0,0,0-2.4.53,1.62,1.62,0,0,0,.27,2.94,7.46,7.46,0,0,0,.8.26l10.4,2.4a9.4,9.4,0,0,1,4.54,15.48,12.3,12.3,0,0,1-7.47,3.47,35.1,35.1,0,0,1-8.81,0,19.92,19.92,0,0,1-9.6-4Z" transform="translate(0 0)"/><path d="M291.53,70.67V69.06a2.42,2.42,0,0,1,2.4-2.4h2.67V58.39h-7.74a6,6,0,0,0-5.6,5.61v6.67h-4v8.27h4v24.81h8.27V78.94h5.07V70.67Z" transform="translate(0 0)"/><path d="M336.08,70.67h-8.27v2.4a11.6,11.6,0,0,0-5.33-2.4,13.89,13.89,0,0,0-7.74.53,15.83,15.83,0,0,0-8,7.74,23.93,23.93,0,0,0,0,16.8,15.29,15.29,0,0,0,9.33,8.27,13.62,13.62,0,0,0,6.41,0,13.48,13.48,0,0,0,5.33-2.4v2.14h8.27Z" transform="translate(0 0)"/><path d="M346.75,103.75H355V87.21A10,10,0,0,1,359.83,80a8.48,8.48,0,0,1,4.8-1.33,6.87,6.87,0,0,1,2.93.53V70.67A17.44,17.44,0,0,0,355,73.07v-2.4h-8.27Z" transform="translate(0 0)"/><polygon points="374.76 103.75 383.04 103.75 383.04 77.07 383.04 58.39 374.76 58.39 374.76 77.07 374.76 103.75"/><path d="M392.64,62.13a5.2,5.2,0,1,1,5.2,5.2,5.2,5.2,0,0,1-5.2-5.2Z" transform="translate(0 0)"/><rect x="393.7" y="70.67" width="8.27" height="33.08"/><path d="M433.45,104.28v-3.47a10.82,10.82,0,0,1-4.8,2.14,12.75,12.75,0,0,1-6.14,0,15.35,15.35,0,0,1-9.33-8.27,21.1,21.1,0,0,1,0-15.74,15.83,15.83,0,0,1,8-7.74,13,13,0,0,1,7.47-.53,9.86,9.86,0,0,1,4.8,2.4v-2.4h8.27v33.61a10.23,10.23,0,0,1-6.4,10.14,27.65,27.65,0,0,1-9.34,1.87,28,28,0,0,1-12.8-2.4l3.47-6.94a20.33,20.33,0,0,0,9.87,2.13,11.68,11.68,0,0,0,4-.8A4.83,4.83,0,0,0,433.45,104.28Z" transform="translate(0 0)"/><polygon points="30.05 133.79 86.74 108.28 74.27 157.61 53.69 150.89 66.33 210.54 111.86 169.99 91.29 163.24 134.36 64.63 54.43 102.05 86.74 38.55 51.59 26.08 30.05 133.79"/><path class="a" d="M327.81,90.94a7.55,7.55,0,0,1-5.6,5.34,5.89,5.89,0,0,1-4.8-1.07,9.66,9.66,0,0,1-3.47-6.14,13,13,0,0,1,0-3.73,9.66,9.66,0,0,1,3.47-6.14,5.89,5.89,0,0,1,4.8-1.07,7.55,7.55,0,0,1,5.6,5.34Z" transform="translate(0 0)"/><path class="a" d="M433.45,91.21a6.56,6.56,0,0,1-5.07,5.07,5.89,5.89,0,0,1-4.8-1.07,9.35,9.35,0,0,1-3.2-6.14,6.62,6.62,0,0,1,0-2.66,9.35,9.35,0,0,1,3.2-6.14,5.85,5.85,0,0,1,4.8-1.07,6.87,6.87,0,0,1,5.07,5.34Z" transform="translate(0 0)"/><path class="a" d="M217.63,172.85a7.16,7.16,0,0,0-14.14,0Z" transform="translate(0 0)"/><path class="a" d="M257.38,180a7.55,7.55,0,0,1-5.6,5.34,5.89,5.89,0,0,1-4.8-1.07,9.66,9.66,0,0,1-3.47-6.14,13,13,0,0,1,0-3.73,9.66,9.66,0,0,1,3.47-6.14,5.89,5.89,0,0,1,4.8-1.07,7.55,7.55,0,0,1,5.6,5.34Z" transform="translate(0 0)"/><path class="a" d="M390.24,180.22a6.59,6.59,0,0,1-5.07,5.07,5.89,5.89,0,0,1-4.8-1.07,9.31,9.31,0,0,1-3.2-6.14,6.67,6.67,0,0,1,0-2.67,9.29,9.29,0,0,1,3.2-6.13,5.81,5.81,0,0,1,4.8-1.07,6.89,6.89,0,0,1,5.07,5.34Z" transform="translate(0 0)"/></svg>