<svg xmlns="http://www.w3.org/2000/svg" viewBox="0 0 116.93 228.16"><defs><style>.a{fill:#000;}.b{fill:#fff;}</style></defs><title>M19-1 korkortonline.se</title><rect class="a" y="128.48" width="116.93" height="35.43"/><rect class="a" y="192.73" width="116.93" height="35.43"/><rect class="a" width="116.93" height="35.43"/><rect class="a" y="64.24" width="116.93" height="35.43"/><polygon class="b" points="22.65 138.76 72.25 138.76 82.18 148.68 93.52 148.68 75.09 152.93 58.08 148.68 68 148.68 60.92 141.59 22.65 141.59 22.65 138.76"/><polygon class="b" points="25.48 79.68 22.65 79.68 22.65 76.85 65.17 76.85 65.17 72.59 93.52 78.26 65.17 83.93 65.17 79.68 39.66 79.68 46.74 86.77 58.08 86.77 39.66 91.02 22.65 86.77 32.57 86.77 25.48 79.68"/><polygon class="b" points="23.03 16.3 23.03 19.13 65.55 19.13 65.55 23.39 93.9 17.72 65.55 12.05 65.55 16.3 23.03 16.3"/><polygon class="b" points="56.66 215.25 39.66 219.5 22.65 215.25 32.57 215.25 25.48 208.17 22.65 208.17 22.65 205.33 72.25 205.33 82.18 215.25 93.52 215.25 75.09 219.5 58.08 215.25 68 215.25 60.92 208.17 39.66 208.17 46.74 215.25 56.66 215.25"/></svg>