<svg xmlns="http://www.w3.org/2000/svg" viewBox="0 0 63.78 73.7"><defs><style>.a{fill:#000;}.b{fill:#fff;}</style></defs><title>M26-1 korkortonline.se</title><rect class="a" width="63.78" height="73.7"/><path class="b" d="M15,40.59A21.35,21.35,0,0,0,14.36,43a24,24,0,0,0-.48,3.49,24.84,24.84,0,0,0,0,3.66,22.6,22.6,0,0,0,.74,4.4,15.52,15.52,0,0,0,1.55,3.77,8.45,8.45,0,0,0,1.26,1.66,6.31,6.31,0,0,0,.84.71,4.17,4.17,0,0,0,1.46.65,2.93,2.93,0,0,0,1.25,0,3.77,3.77,0,0,0,1.38-.51,7.06,7.06,0,0,0,2.08-2.1,13.08,13.08,0,0,0,1.4-2.86,20.29,20.29,0,0,0,.81-3A26.19,26.19,0,0,0,27,49.68v0l1.58.18a1.23,1.23,0,0,0,0,.19,3.54,3.54,0,0,0,.08.45c0,.16.08.32.12.48a3,3,0,0,0,.23.56c.05.09.1.18.16.27l.11.15a.69.69,0,0,0,.11.13l.15.12a.7.7,0,0,0,.16.1.63.63,0,0,0,.22.07h.19l.17-.05.19-.1.16-.14a2.39,2.39,0,0,0,.21-.26,3.35,3.35,0,0,0,.21-.36,5.33,5.33,0,0,0,.23-.63c0-.13.07-.26.1-.39a10.11,10.11,0,0,0,.13-1.65c0-.28,0-.55-.09-.83l7-13.14.75,3a13.29,13.29,0,0,0-1.35,2.82A17.76,17.76,0,0,0,37.24,43a24,24,0,0,0-.49,3.49,26.3,26.3,0,0,0,0,3.66,24.22,24.22,0,0,0,.74,4.4,15.52,15.52,0,0,0,1.55,3.77,9.31,9.31,0,0,0,1.26,1.66,6.31,6.31,0,0,0,.84.71,4.14,4.14,0,0,0,1.47.65,2.93,2.93,0,0,0,1.25,0,3.79,3.79,0,0,0,1.37-.51,6.83,6.83,0,0,0,2.08-2.1,13.08,13.08,0,0,0,1.4-2.86,19.13,19.13,0,0,0,.81-3,24.38,24.38,0,0,0,.39-3.19,26.9,26.9,0,0,0,0-3.11,24.65,24.65,0,0,0-.36-3,18.35,18.35,0,0,0-1.37-4.41A10.64,10.64,0,0,0,46.83,37a6.54,6.54,0,0,0-1.22-1.19,6,6,0,0,0-.69-.41,3.88,3.88,0,0,0-.56-.23A3.33,3.33,0,0,0,43,35a4.25,4.25,0,0,0-.71.14,4.09,4.09,0,0,0-.71.3,5.36,5.36,0,0,0-1.29,1l-3-11.35a5.29,5.29,0,0,0,.36-.6,4.22,4.22,0,0,0,.34-1,3.3,3.3,0,0,0,0-1.13,3.66,3.66,0,0,0-.18-.81,3.26,3.26,0,0,0-.35-.76,4.28,4.28,0,0,0-1-1.14L36,19.31a4.72,4.72,0,0,0-.56-.24,1.91,1.91,0,0,0-.41-.11,3.44,3.44,0,0,0-.84-.1,3.1,3.1,0,0,0-.43,0,3.75,3.75,0,0,0-.6.11c-.22.07-.42.14-.63.23s-.37.2-.54.31a1.07,1.07,0,0,0-.27.25.65.65,0,0,0-.18.31.88.88,0,0,0,0,.39,1.23,1.23,0,0,0,.08.33,1,1,0,0,0,.28.38,1.24,1.24,0,0,0,.36.19,1,1,0,0,0,.54,0L34.4,21a2.24,2.24,0,0,1,.63,0,1.61,1.61,0,0,1,.76.29,1.58,1.58,0,0,1,.56.59,1.67,1.67,0,0,1,.22.76,1.94,1.94,0,0,1-.08.64,2.13,2.13,0,0,1-.33.59,1.06,1.06,0,0,0-.24.54,1,1,0,0,0,0,.24.69.69,0,0,1,0,.13L37.29,30H25.84l-.6-2.3,3.37-2.23a1.1,1.1,0,0,0,.44-.62,1,1,0,0,0-1.11-1.24l-6.14.68a1.4,1.4,0,0,0-.51,2.62L24,28.39l.77,2.94-1.54,4.9c-.16-.15-.34-.29-.52-.43a5.11,5.11,0,0,0-.68-.41,3.57,3.57,0,0,0-.57-.23A3.33,3.33,0,0,0,20.15,35a4.13,4.13,0,0,0-.7.14,4.09,4.09,0,0,0-.71.3,5.18,5.18,0,0,0-1.29,1,9,9,0,0,0-1.06,1.33A13.65,13.65,0,0,0,15,40.59Z"/><path class="a" d="M30.47,45.89l-.06,0-.14-.05-.09,0H30L26.34,31.93H37.78l.21.82L30.81,46.19A1.21,1.21,0,0,0,30.47,45.89Z"/><path class="a" d="M28.7,47.79a6.37,6.37,0,0,1,.2-.75L25.43,33.79l-1.14,3.65a11.36,11.36,0,0,1,1,1.76,17.89,17.89,0,0,1,1.36,4.41,22.8,22.8,0,0,1,.37,3c0,.35,0,.69,0,1Z"/><path class="a" d="M17.31,41.37a8.41,8.41,0,0,0-.7,1.37,13.76,13.76,0,0,0-.86,3.41,16.78,16.78,0,0,0-.09,3.09,14.19,14.19,0,0,0,.39,2.6A12,12,0,0,0,16.78,54a8.71,8.71,0,0,0,.78,1.36,4.81,4.81,0,0,0,1.15,1.19,3.09,3.09,0,0,0,1.08.52,2.75,2.75,0,0,0,1.91-.21A4.45,4.45,0,0,0,23,55.81a6.71,6.71,0,0,0,.87-1.3,11.14,11.14,0,0,0,1-2.86,15.09,15.09,0,0,0,.32-2.21l-3.37-.38-.09.29a2.43,2.43,0,0,1-.16.37,2.25,2.25,0,0,1-.24.36.85.85,0,0,1-.2.22l-.14.11-.13.07-.15.07-.15,0h-.17a.68.68,0,0,1-.2,0l-.13,0-.12,0-.11-.07-.13-.09-.14-.13L19.45,50a2.16,2.16,0,0,1-.22-.36c-.05-.1-.09-.2-.13-.3a1.42,1.42,0,0,1-.05-.16,2.22,2.22,0,0,1-.09-.37,2.56,2.56,0,0,1-.05-.27c0-.09,0-.17,0-.25s0-.22,0-.32a3.88,3.88,0,0,1,0-.48,2.84,2.84,0,0,1,.35-1.1l.12-.2a1.49,1.49,0,0,1,.23-.27,1.44,1.44,0,0,1,.27-.22.91.91,0,0,1,.42-.14l1.83-5.84a3.69,3.69,0,0,0-1.15-.5,2.83,2.83,0,0,0-1.76.24,4.09,4.09,0,0,0-1.13.85A6.61,6.61,0,0,0,17.31,41.37Z"/><path class="a" d="M23.24,40.79,21.51,46.3a2.59,2.59,0,0,1,.32.72l3.47.39a17.64,17.64,0,0,0-.36-2.71,10.08,10.08,0,0,0-1.6-3.77Z"/><path class="a" d="M38.54,49.25a15.09,15.09,0,0,0,.38,2.6A12,12,0,0,0,39.65,54a8.71,8.71,0,0,0,.78,1.36,5.41,5.41,0,0,0,1.15,1.19,3.14,3.14,0,0,0,1.09.52,2.72,2.72,0,0,0,1.9-.22,4.43,4.43,0,0,0,1.31-1,7.19,7.19,0,0,0,.87-1.3,12.57,12.57,0,0,0,1.32-4.68,16.66,16.66,0,0,0-.29-5.13,9.94,9.94,0,0,0-1.6-3.77,4,4,0,0,0-2.34-1.69,3,3,0,0,0-2.57.81l1.45,5.56a1.18,1.18,0,0,1,.19-.11,1.52,1.52,0,0,1,.2-.06.65.65,0,0,1,.24,0,.88.88,0,0,1,.32.07,1.33,1.33,0,0,1,.49.35,2,2,0,0,1,.35.53,3.8,3.8,0,0,1,.18.47,3,3,0,0,1,.12.58,3.65,3.65,0,0,1,0,.66c0,.11,0,.22,0,.32a4,4,0,0,1-.09.5,3.19,3.19,0,0,1-.21.59c-.06.11-.13.22-.2.33a2.2,2.2,0,0,1-.24.28,1.46,1.46,0,0,1-.21.16l-.13.08-.18.07a1.53,1.53,0,0,1-.3,0L43,50.41a1.5,1.5,0,0,1-.44-.26,2.07,2.07,0,0,1-.34-.44,2.21,2.21,0,0,1-.18-.34,3.74,3.74,0,0,1-.17-.54,3.63,3.63,0,0,1-.09-.56,3.31,3.31,0,0,1,0-.63l-1.59-6.26a8.37,8.37,0,0,0-.69,1.37,12.94,12.94,0,0,0-.86,3.41A16,16,0,0,0,38.54,49.25Z"/></svg>