<svg xmlns="http://www.w3.org/2000/svg" viewBox="0 0 63.78 73.7"><defs><style>.a{fill:#000;}.b{fill:#fff;}</style></defs><title>M31-1 korkortonline.se</title><rect class="a" width="63.78" height="73.7"/><polygon class="b" points="34.44 11.34 40.25 11.34 40.25 14.31 38.13 14.31 38.13 34.02 36.57 34.02 36.57 14.31 34.44 14.31 34.44 11.34"/><path class="b" d="M32.26,23a20.87,20.87,0,0,0-2.18-2.23A3.63,3.63,0,0,1,29,18.8a7,7,0,0,1-.12-1.11,6.41,6.41,0,0,1,.09-1.24,4.09,4.09,0,0,1,.28-.92,2.19,2.19,0,0,1,.51-.73.82.82,0,0,1,.47-.19.78.78,0,0,1,.48.17,2.16,2.16,0,0,1,.54.7,3.79,3.79,0,0,1,.32.91,6.69,6.69,0,0,1,.15,1.17L33,15.68c0-.24-.07-.49-.11-.73a8.77,8.77,0,0,0-.63-2,4.61,4.61,0,0,0-1.12-1.57,1.44,1.44,0,0,0-1-.38,1.4,1.4,0,0,0-1,.38A4.78,4.78,0,0,0,28,13a9.27,9.27,0,0,0-.62,2,14.46,14.46,0,0,0-.25,2.71v.85a7.28,7.28,0,0,0,2.55,5.24,11.26,11.26,0,0,1,1.25,1.51,3.65,3.65,0,0,1,.32.54,3.82,3.82,0,0,1,.3.94A6.64,6.64,0,0,1,31.67,28a6.75,6.75,0,0,1-.12,1.27,4,4,0,0,1-.3.94,2.11,2.11,0,0,1-.53.73.7.7,0,0,1-.94,0,2.11,2.11,0,0,1-.53-.73,4,4,0,0,1-.3-.94A6.41,6.41,0,0,1,28.83,28l-1.62,2.37a2.68,2.68,0,0,0,.05.3,8.58,8.58,0,0,0,.68,2,4.7,4.7,0,0,0,1.2,1.57,1.67,1.67,0,0,0,1.09.4,1.61,1.61,0,0,0,1.09-.4,4.73,4.73,0,0,0,1.21-1.56,8,8,0,0,0,.69-2A13.9,13.9,0,0,0,33.5,28a14.66,14.66,0,0,0-.26-2.72,10.06,10.06,0,0,0-.3-1.11A3.66,3.66,0,0,0,32.26,23Z"/><polygon class="b" points="24.8 34.02 26.36 34.02 23.67 11.34 21.68 11.34 18.99 34.02 20.55 34.02 21.14 29.76 24.22 29.76 24.8 34.02"/><line class="b" x1="14.03" y1="34.02" x2="14.03" y2="11.34"/><polygon class="b" points="18.64 34.02 18.64 30.26 15.59 30.26 15.59 11.34 14.03 11.34 14.03 34.02 18.64 34.02"/><rect class="b" x="41.95" y="20.34" width="7.94" height="3.68"/><path class="b" d="M46.51,51.33a22.07,22.07,0,0,0-2.19-2.24,3.54,3.54,0,0,1-1.12-2,5.08,5.08,0,0,1-.12-1.1,6.41,6.41,0,0,1,.09-1.24,3.81,3.81,0,0,1,.27-.93,2.18,2.18,0,0,1,.52-.72.66.66,0,0,1,.46-.19.74.74,0,0,1,.48.17,2.09,2.09,0,0,1,.55.7,4.1,4.1,0,0,1,.32.91,6.45,6.45,0,0,1,.14,1.17L47.2,44l-.12-.73a9.36,9.36,0,0,0-.62-2,4.84,4.84,0,0,0-1.13-1.56,1.41,1.41,0,0,0-1-.39,1.45,1.45,0,0,0-1,.39,4.67,4.67,0,0,0-1.12,1.56,8.85,8.85,0,0,0-.63,2,15.23,15.23,0,0,0-.24,2.7v.85a7.23,7.23,0,0,0,2.55,5.25,11.32,11.32,0,0,1,1.24,1.51,5.84,5.84,0,0,1,.33.53,4.45,4.45,0,0,1,.29.94,6.75,6.75,0,0,1,.12,1.27,6.83,6.83,0,0,1-.12,1.27,4.36,4.36,0,0,1-.29.93,2.31,2.31,0,0,1-.54.74.7.7,0,0,1-.47.18.74.74,0,0,1-.47-.18,2.45,2.45,0,0,1-.53-.74,4.36,4.36,0,0,1-.29-.93,6.43,6.43,0,0,1-.12-1.24l-1.63,2.38.06.3a8.06,8.06,0,0,0,.67,2,4.87,4.87,0,0,0,1.2,1.57,1.68,1.68,0,0,0,1.09.41,1.71,1.71,0,0,0,1.1-.4,5,5,0,0,0,1.21-1.56,8.51,8.51,0,0,0,.68-2,13.84,13.84,0,0,0,0-5.44,7.41,7.41,0,0,0-.3-1.12A3.89,3.89,0,0,0,46.51,51.33Z"/><polygon class="b" points="34.58 39.69 40.39 39.69 40.39 42.66 38.27 42.66 38.27 62.36 36.71 62.36 36.71 42.66 34.58 42.66 34.58 39.69"/><polygon class="b" points="32.39 62.36 33.95 62.36 31.25 39.69 29.27 39.69 26.57 62.36 28.13 62.36 28.72 58.11 31.8 58.11 32.39 62.36"/><polygon class="b" points="26.22 62.36 26.22 58.61 23.17 58.61 23.17 39.69 21.61 39.69 21.61 62.36 26.22 62.36"/><line class="b" x1="21.61" y1="62.36" x2="21.61" y2="39.69"/><path class="b" d="M14,62.36V39.69h3.12a1.07,1.07,0,0,1,.82.37,5.58,5.58,0,0,1,1,1.76A11.06,11.06,0,0,1,19.55,44a19.92,19.92,0,0,1,.22,3,20,20,0,0,1-.22,3A11.06,11.06,0,0,1,19,52.15a5.58,5.58,0,0,1-1,1.76,1.07,1.07,0,0,1-.82.37H15.59v8.08Z"/><polygon class="a" points="21.58 26.57 22.68 18.64 23.77 26.57 21.58 26.57"/><path class="a" d="M15.59,50.81h1a.87.87,0,0,0,.57-.22,2.93,2.93,0,0,0,.64-.88,4.94,4.94,0,0,0,.35-1.13,8.38,8.38,0,0,0,0-3,4.94,4.94,0,0,0-.35-1.13,2.93,2.93,0,0,0-.64-.88.87.87,0,0,0-.57-.22h-1Z"/><polygon class="a" points="29.16 54.92 30.26 46.98 31.36 54.92 29.16 54.92"/></svg>