<svg xmlns="http://www.w3.org/2000/svg" viewBox="0 0 63.78 73.7"><defs><style>.a{fill:#000;}.b{fill:#fff;}</style></defs><title>M32-1 korkortonline.se</title><rect class="a" width="63.78" height="73.7"/><path class="b" d="M30.13,25.8a9.31,9.31,0,0,0-1.58,2.88,20.45,20.45,0,0,0-.83,3.52,35.81,35.81,0,0,0,0,9.7,20.45,20.45,0,0,0,.83,3.52,9.31,9.31,0,0,0,1.58,2.88,1.58,1.58,0,0,0,2.45,0,9.11,9.11,0,0,0,1.58-2.88A18.75,18.75,0,0,0,35,41.9a35.83,35.83,0,0,0,.34-4.85A35.83,35.83,0,0,0,35,32.2a18.75,18.75,0,0,0-.83-3.52,9.11,9.11,0,0,0-1.58-2.88,1.58,1.58,0,0,0-2.45,0Z"/><path class="b" d="M18.2,37.15A23.05,23.05,0,0,0,16,34.92a3.58,3.58,0,0,1-1.12-2,6,6,0,0,1-.13-1.11,7.39,7.39,0,0,1,.09-1.24,4.42,4.42,0,0,1,.28-.92,2.3,2.3,0,0,1,.51-.72.7.7,0,0,1,.47-.19.65.65,0,0,1,.48.17,2.22,2.22,0,0,1,.55.7,3.49,3.49,0,0,1,.31.91,5.67,5.67,0,0,1,.15,1.16l1.29-1.88-.12-.73a9.27,9.27,0,0,0-.62-2A4.88,4.88,0,0,0,17,25.55a1.45,1.45,0,0,0-1-.38,1.48,1.48,0,0,0-1,.38,4.71,4.71,0,0,0-1.12,1.57,8.77,8.77,0,0,0-.63,2,15.43,15.43,0,0,0-.24,2.71v.85a7.19,7.19,0,0,0,2.55,5.24,12.09,12.09,0,0,1,1.24,1.52,4,4,0,0,1,.33.53,4.45,4.45,0,0,1,.29.94,6.73,6.73,0,0,1,0,2.53,4.27,4.27,0,0,1-.29.94,2.17,2.17,0,0,1-.54.73.67.67,0,0,1-.47.18.69.69,0,0,1-.47-.18,2.29,2.29,0,0,1-.53-.73,4.3,4.3,0,0,1-.3-.94,7.21,7.21,0,0,1-.11-1.23l-1.63,2.38.06.3a8.06,8.06,0,0,0,.67,2,4.87,4.87,0,0,0,1.2,1.57,1.67,1.67,0,0,0,2.18,0,4.73,4.73,0,0,0,1.21-1.56,8.25,8.25,0,0,0,.69-2,13.89,13.89,0,0,0,0-5.45,7.29,7.29,0,0,0-.3-1.11A3.94,3.94,0,0,0,18.2,37.15Z"/><polygon class="b" points="20.37 25.51 26.18 25.51 26.18 28.49 24.06 28.49 24.06 48.19 22.5 48.19 22.5 28.49 20.37 28.49 20.37 25.51"/><path class="a" d="M31.36,45.7a.88.88,0,0,0,.71-.38,7.43,7.43,0,0,0,1-2.16,15.87,15.87,0,0,0,.5-2.56,30.11,30.11,0,0,0,0-7.1,15.87,15.87,0,0,0-.5-2.56,7.43,7.43,0,0,0-1-2.16.88.88,0,0,0-.71-.38.87.87,0,0,0-.71.38,7.46,7.46,0,0,0-1,2.16,17,17,0,0,0-.5,2.56,31.61,31.61,0,0,0,0,7.1,17,17,0,0,0,.5,2.56,7.46,7.46,0,0,0,1,2.16A.87.87,0,0,0,31.36,45.7Z"/><path class="b" d="M45.11,48.19V25.51h3.11a1.1,1.1,0,0,1,.83.38,5.47,5.47,0,0,1,1,1.76,11.61,11.61,0,0,1,.55,2.18,21.12,21.12,0,0,1,.22,3,21.37,21.37,0,0,1-.22,3A11.51,11.51,0,0,1,50.08,38a5.52,5.52,0,0,1-1,1.77,1.13,1.13,0,0,1-.83.37H46.66v8.08Z"/><path class="b" d="M37.52,48.19V25.51h3.12a1.07,1.07,0,0,1,.82.38,5.69,5.69,0,0,1,1,1.76A11.58,11.58,0,0,1,43,29.83a19.73,19.73,0,0,1,.22,3,20,20,0,0,1-.22,3A11.48,11.48,0,0,1,42.5,38a5.74,5.74,0,0,1-1,1.77,1.09,1.09,0,0,1-.82.37H39.08v8.08Z"/><path class="a" d="M39.08,36.64h1a.86.86,0,0,0,.56-.22,2.77,2.77,0,0,0,.64-.88,4.94,4.94,0,0,0,.35-1.13,7.93,7.93,0,0,0,.15-1.53,7.76,7.76,0,0,0-.15-1.52,4.94,4.94,0,0,0-.35-1.13,2.7,2.7,0,0,0-.64-.89.85.85,0,0,0-.56-.21h-1Z"/><path class="a" d="M46.66,36.64h1a.82.82,0,0,0,.56-.22,2.77,2.77,0,0,0,.64-.88,5.51,5.51,0,0,0,.36-1.13,8.8,8.8,0,0,0,.14-1.53,8.6,8.6,0,0,0-.14-1.52,5.51,5.51,0,0,0-.36-1.13,2.7,2.7,0,0,0-.64-.89.81.81,0,0,0-.56-.21h-1Z"/></svg>