<svg xmlns="http://www.w3.org/2000/svg" viewBox="0 0 116.93 35.43"><defs><style>.a{fill:#000;}.b{fill:#fff;}</style></defs><title>M5-1 korkortonline.se</title><rect class="a" width="116.93" height="35.43"/><rect class="b" x="111.61" y="17.01" width="1.42" height="1.42"/><rect class="b" x="114.45" y="17.01" width="1.42" height="1.42"/><rect class="b" x="100.28" y="17.01" width="1.42" height="1.42"/><rect class="b" x="103.11" y="17.01" width="1.42" height="1.42"/><rect class="b" x="105.95" y="17.01" width="1.42" height="1.42"/><rect class="b" x="108.78" y="17.01" width="1.42" height="1.42"/><rect class="b" x="88.94" y="17.01" width="1.42" height="1.42"/><rect class="b" x="91.77" y="17.01" width="1.42" height="1.42"/><rect class="b" x="94.61" y="17.01" width="1.42" height="1.42"/><rect class="b" x="77.6" y="17.01" width="1.42" height="1.42"/><rect class="b" x="80.43" y="17.01" width="1.42" height="1.42"/><rect class="b" x="83.27" y="17.01" width="1.42" height="1.42"/><rect class="b" x="77.6" y="17.01" width="1.42" height="1.42"/><rect class="b" x="86.1" y="17.01" width="1.42" height="1.42"/><rect class="b" x="71.93" y="17.01" width="1.42" height="1.42"/><rect class="b" x="69.09" y="17.01" width="1.42" height="1.42"/><rect class="b" x="66.26" y="17.01" width="1.42" height="1.42"/><rect class="b" x="63.43" y="17.01" width="1.42" height="1.42"/><rect class="b" x="60.59" y="17.01" width="1.42" height="1.42"/><rect class="b" x="57.76" y="17.01" width="1.42" height="1.42"/><rect class="b" x="54.92" y="17.01" width="1.42" height="1.42"/><rect class="b" x="52.09" y="17.01" width="1.42" height="1.42"/><rect class="b" x="74.76" y="17.01" width="1.42" height="1.42"/><rect class="b" x="74.76" y="17.01" width="1.42" height="1.42"/><rect class="b" x="43.58" y="17.01" width="1.42" height="1.42"/><rect class="b" x="40.75" y="17.01" width="1.42" height="1.42"/><rect class="b" x="49.25" y="17.01" width="1.42" height="1.42"/><rect class="b" x="46.42" y="17.01" width="1.42" height="1.42"/><rect class="b" x="37.91" y="17.01" width="1.42" height="1.42"/><rect class="b" x="37.91" y="17.01" width="1.42" height="1.42"/><rect class="b" x="35.08" y="17.01" width="1.42" height="1.42"/><rect class="b" x="32.24" y="17.01" width="1.42" height="1.42"/><rect class="b" x="29.41" y="17.01" width="1.42" height="1.42"/><rect class="b" x="26.58" y="17.01" width="1.42" height="1.42"/><rect class="b" x="23.74" y="17.01" width="1.42" height="1.42"/><rect class="b" x="20.91" y="17.01" width="1.42" height="1.42"/><rect class="b" x="18.07" y="17.01" width="1.42" height="1.42"/><rect class="b" x="6.73" y="17.01" width="1.42" height="1.42"/><rect class="b" x="15.24" y="17.01" width="1.42" height="1.42"/><rect class="b" x="12.4" y="17.01" width="1.42" height="1.42"/><rect class="b" x="9.57" y="17.01" width="1.42" height="1.42"/><rect class="b" x="1.06" y="17.01" width="1.42" height="1.42"/><rect class="b" x="3.9" y="17.01" width="1.42" height="1.42"/><rect class="b" x="97.44" y="17.01" width="1.42" height="1.42"/></svg>