<svg xmlns="http://www.w3.org/2000/svg" viewBox="0 0 116.93 61.22"><defs><style>.a{fill:#000;}.b{fill:#fff;}</style></defs><title>M9-1 korkortonline.se</title><rect class="a" width="116.93" height="61.22"/><polygon class="b" points="74.42 24.19 71.97 22.25 75.77 20.75 74.91 18.58 67.37 21.57 72.98 26.01 74.42 24.19"/><path class="b" d="M57.86,23.28A306.83,306.83,0,0,1,116.93,43.6v1.28A305.76,305.76,0,0,0,7.74,17v-.77H116.93v1.16H59.69l-6.15,2.44Z"/><polygon class="b" points="95.25 18.63 96.03 20.82 85.89 24.47 92.44 29.98 90.95 31.76 81.31 23.65 95.25 18.63"/><polygon class="b" points="111.58 37.51 99.81 27.04 116.93 21.41 116.93 18.97 95.25 26.09 110.04 39.25 111.58 37.51"/><polygon class="b" points="113.71 29.9 116.93 32.87 116.93 36.03 109.19 28.89 116.93 26.45 116.93 28.89 113.71 29.9"/></svg>