<svg xmlns="http://www.w3.org/2000/svg" viewBox="0 0 142.41 219.95"><defs><style>.a,.b{fill:#fff;}.a,.c,.d{stroke:#000;}.a,.c{stroke-linecap:round;stroke-linejoin:round;stroke-width:2px;}.c{fill:none;}.d{stroke-miterlimit:10;}.e{fill:#539ede;}.f{fill:#fcd925;}.g{fill:#d8432d;}.h{fill:#0076bc;}</style></defs><title>P1-1 korkortonline.se</title><path d="M92.54,15.51a6.92,6.92,0,0,1-1.81-7.62l5-6.15A12.5,12.5,0,0,1,101.37.06,37,37,0,0,1,109,.42a15.11,15.11,0,0,1,4.07,2l4.52,5a10.14,10.14,0,0,1-1.73,8.39,3.33,3.33,0,0,1-1.87-.93,20.31,20.31,0,0,0-19.88-.1,1.51,1.51,0,0,1-1.52.66"/><path d="M46.53,56.85A43.75,43.75,0,0,0,73.81,44.14a37.73,37.73,0,0,1,14.77-7.51A20,20,0,0,0,96,32.94a1.4,1.4,0,0,1,1.77,0l3.15,8.2a1,1,0,0,0,1.36.42,1,1,0,0,0,.42-1.35h0v-4.4a1.06,1.06,0,0,1,1-.54,1,1,0,0,1,.93.68v4.51a1.18,1.18,0,0,0,1.18,1.16h0a1.15,1.15,0,0,0,1.14-1l2.74-7.8,1.92.27a7.9,7.9,0,0,0,4.1,2.34,32.61,32.61,0,0,0,10.13,4.1A13.73,13.73,0,0,1,133,46a89.29,89.29,0,0,1,6.57,40.35,18.15,18.15,0,0,0-7,9.85,1.66,1.66,0,0,1-2,1.18,1.63,1.63,0,0,1-.43-.18L128.82,92h-2.73l.13,2.33,2.19,7.53.14,8.89.41.93-.14,4-.68,1.23-.56,87.42,7,7.24a4.71,4.71,0,0,1-.12,6.66h0a4.8,4.8,0,0,1-1,.72,15.13,15.13,0,0,1-11.32-3.29q-5-4-10-8.07L111,170.48l-1.36-26.1-.69-.55-.41.27-1,30.23-.55,33.1a3.67,3.67,0,0,1-1.64,3q-6.7,4.47-13.68,8.48a7.77,7.77,0,0,1-8.91-.8,1.65,1.65,0,0,1-.28-2.19,69.08,69.08,0,0,1,8.63-10l-.27-27.77-4.24-60.47-3.37-2.54A67.89,67.89,0,0,1,89,87.37v-5.2L82,64.38a1.39,1.39,0,0,0-1.79-.81h0a1.15,1.15,0,0,0-.25.12,42.82,42.82,0,0,1-17,6A135.14,135.14,0,0,1,46.5,70.79v-14"/><path class="a" d="M139.49,86.27l1.92-.55-4.53,21.07L135.37,111H131l-1-14a1.84,1.84,0,0,0,2.5-.73h0a2.29,2.29,0,0,0,.1-.23,25,25,0,0,1,6.85-9.85"/><path class="a" d="M135.39,111l2.88,6.44.94,4.66a6.26,6.26,0,0,1-4.67,7.12.82.82,0,0,1-.82-.27l.69-5.06-.69,1.09-.41,4.1-1.37-.68L131,111.05h4.37"/><path class="a" d="M23.92,65.81A5.1,5.1,0,0,1,20.14,69,37.13,37.13,0,0,1,7,68.87a1.75,1.75,0,0,1,.62-3.45,1.41,1.41,0,0,1,.22.06h0a18.62,18.62,0,0,1-5.36-.54,1.13,1.13,0,0,1-.6-1.48,1.11,1.11,0,0,1,1.26-.67L8.87,63a25.84,25.84,0,0,1-7.27-.8,1.21,1.21,0,0,1-.44-1.64A1.19,1.19,0,0,1,2.22,60c2.29.14,4.58.22,6.88.22a18.69,18.69,0,0,1-6-.65A1.84,1.84,0,0,1,3.84,57L4,57c2.84.21,5.68.33,8.5.35a7.17,7.17,0,0,1,2.93,4,8,8,0,0,0-6.23-5.39,1,1,0,0,1-.56-1.3,1,1,0,0,1,.56-.56,19.24,19.24,0,0,1,14.7,3.5"/><path class="b" d="M123.26,85v2.87a12.21,12.21,0,0,1-6.16,1.37,93.58,93.58,0,0,1-26.69-2.19V83.4a73.17,73.17,0,0,0,20.41,1.09.9.9,0,0,0,.81-1,.88.88,0,0,0-.39-.65l-8.81-13.22L95.17,57.05,87.26,39.63,90,38.12l10.4,20.25,17,26.54,5.88.13"/><path class="c" d="M130.43,102.56h-2l.13,8.07.41.93-.14,4-.69,1.23L128,143.63a2.13,2.13,0,1,0,4.23-.51h0a2.07,2.07,0,0,0-.1-.43L132,128.47l-1-17.38-.58-8.48"/><polygon class="a" points="46.53 79.24 46.53 56.85 23.92 57.55 23.92 68.53 46.53 79.24"/><path d="M95.33,16.12v-.86a17.38,17.38,0,0,1,16.73,0v.93a24,24,0,0,1-16.73-.05"/><path class="a" d="M95,18v5.78a9.07,9.07,0,0,0,18,2.37,9.19,9.19,0,0,0,0-2.67V18"/><polyline class="b" points="103.88 6.45 103.21 7.11 103.14 9 103.79 10.33 105.94 10.33 106.68 9.58 106.68 6.94 105.86 6.36 103.88 6.45"/><polygon class="b" points="34.5 140.75 39.53 146.06 38.76 146.79 34.5 142.31 30.25 146.79 29.47 146.06 34.5 140.75"/><rect class="d" x="33.97" y="142.24" width="1.07" height="23.31"/><polygon class="d" points="34.5 140.75 39.53 146.06 38.76 146.79 34.5 142.31 30.25 146.79 29.47 146.06 34.5 140.75"/><path class="e" d="M22.62,170.91a3.56,3.56,0,0,0-.12.91v42.66a4.09,4.09,0,0,0,4.09,4.09H42.41a4.09,4.09,0,0,0,4.09-4.09V171.84a4,4,0,0,0-.11-.91l-7.55-3.18H30.17Z"/><path class="f" d="M46.39,170.91a4.08,4.08,0,0,0-4-3.18H38.85v1.84a1.34,1.34,0,0,0,1.35,1.34Z"/><path class="f" d="M22.62,170.91h6.2a1.34,1.34,0,0,0,1.35-1.34v-1.84H26.61A4.09,4.09,0,0,0,22.62,170.91Z"/><rect class="g" x="36.39" y="218.53" width="6.26" height="1.3"/><rect class="g" x="26.39" y="218.53" width="6.26" height="1.3"/><rect class="h" x="42.4" y="187.09" width="0.99" height="17.59"/><rect class="h" x="25.62" y="187.09" width="0.99" height="17.59"/><path class="b" d="M25.61,204.69h17.8V208a1.89,1.89,0,0,1-1.89,1.9h-14a1.89,1.89,0,0,1-1.9-1.89h0Z"/><path class="b" d="M28.82,179.6H40.21a3.21,3.21,0,0,1,3.21,3.21v4.27H25.63v-4.27A3.2,3.2,0,0,1,28.82,179.6Z"/></svg>