<svg xmlns="http://www.w3.org/2000/svg" viewBox="0 0 638.84 549.61"><defs><style>.a{fill:#7c868d;}.a,.b,.c,.d,.f,.h,.i{stroke:#000;stroke-linecap:round;stroke-linejoin:round;stroke-width:3px;}.b{fill:#b5c0c7;}.c,.e{fill:#000;}.d,.g{fill:#fff;}.f{fill:none;}.h{fill:#dc0032;}.i{fill:#0c479d;}</style></defs><title>P11-1 korkortonline.se</title><path class="a" d="M618.41,390.15l12.29,22.47a56,56,0,0,1-9.57,65.82L593.59,491.6h-548L16.28,475.75A76.46,76.46,0,0,1,6.4,403.64a67,67,0,0,1,10.71-18.43A44.61,44.61,0,0,0,7,405.19a13.62,13.62,0,0,0,9.54,11l10.29,2.83,20.13,2.09H612.75a18.14,18.14,0,0,0,15.9-9.58l.71-1.39-11-20"/><path class="b" d="M450.18,394.16l36.72-27.5,56.83-.27,36.57,31,1,0a263.28,263.28,0,0,0,2.42-66.35l-110.08,1.62a8.71,8.71,0,0,0-8.5,6.06q-7.87,24.84-17.8,49a4.91,4.91,0,0,0,2.83,6.47Z"/><path class="b" d="M605.62,330a8.69,8.69,0,0,0,8.43-7.88l-.21-5.65,3.45,10.1-.41,5.26,2,5.66,2,8.09-.81,7.28-1.22,6.48-.81,12.94.81,12.14a11.16,11.16,0,0,1-9.3,12.95H607Q607.56,363.7,605.62,330Z"/><path class="b" d="M186,394.16l-.95.1L148.9,363.65l-59.15.29L56,397.38l-1.11,0a262.81,262.81,0,0,1-2.43-66.35l110.08,1.62a8.7,8.7,0,0,1,8.5,6.06q7.88,24.84,17.81,49a4.93,4.93,0,0,1-2.84,6.47Z"/><path class="b" d="M22.28,312.92l-.2,9.23A8.69,8.69,0,0,0,31.81,330,197,197,0,0,0,31,397.4H26.53a11.16,11.16,0,0,1-9.31-12.95L18,372.31l-.81-12.94L16,352.89l-.8-7.28,2-8.09,2-5.66-.4-5.26Z"/><path class="b" d="M235.5,54.22l-1.19-5.07L232.83,29.8A19,19,0,0,0,196,29.5l-2,19.65-1.7,5.07H235.5"/><path class="b" d="M428.32,54.22l-1.19-5.07L425.65,29.8a19,19,0,0,0-36.86-.3l-2,19.65-1.69,5.07h43.19"/><path class="c" d="M368.82,135.13l24.11,8.09a49.25,49.25,0,0,0,23.18-.62,62.17,62.17,0,0,0,25.2-13.69v-9l-.93-2.18A19.29,19.29,0,0,0,431.51,100l-19.6-2.8-19.76-1.25-9.64.63-5.29.93a22,22,0,0,0-11.67,14.31,4.07,4.07,0,0,0,.78,3.57l.15,3.27v3.73l2.49,3.11-.31,1.71,1.87,2.33,1.09,1.09,20.53,1.56,4.2.46v1.09l-8.55-.31-7.94-.93-7-.62-3.11-1.25-1.4,1.25-.47,1.86.94,1.4"/><path class="c" d="M259,125.65l1.26.48-.16,2.05-5.85,6.95a58.18,58.18,0,0,1-61.64,3L191,132.92l.48-.63,24.5.47h13l6.79-.95-.16-.94-7.9.94-17.23.16L200,131.34l-7.11.32-3-1.11-4.74-2.05a6.33,6.33,0,0,1-2.85-7.11,42.92,42.92,0,0,1,15-22.44l13.11-1,17.23-1.58,8.06-1.26a17,17,0,0,1,15,3.79,30.63,30.63,0,0,1,5.37,6.16,39,39,0,0,1,5.06,11.22,10.05,10.05,0,0,1-2.21,9.32"/><polygon class="a" points="543.73 366.39 486.9 366.66 450.18 394.16 465.11 395.78 580.3 397.38 543.73 366.39"/><path class="a" d="M607,397.4H581.27a263.28,263.28,0,0,0,2.42-66.35l19.83-1.22a8.7,8.7,0,0,0,2.1.2Q607.57,363.67,607,397.4Z"/><polygon class="a" points="185.03 394.26 171.01 395.78 55.97 397.38 89.75 363.94 148.91 363.65 185.03 394.26"/><path class="a" d="M32.6,329.83l19.83,1.22a262.81,262.81,0,0,0,2.43,66.35H31A197,197,0,0,1,31.81,330,7.27,7.27,0,0,0,32.6,329.83Z"/><polygon class="d" points="400.6 31.9 402.62 25.66 407.57 24.93 410.87 27.68 411.42 35.19 411.97 45.09 412.52 54.22 399.32 54.22 399.87 41.43 400.6 31.9"/><polygon class="d" points="207.78 31.9 209.8 25.66 214.75 24.93 218.06 27.68 218.61 35.19 219.16 45.09 219.71 54.22 206.5 54.22 207.05 41.43 207.78 31.9"/><path class="e" d="M358.91,213.07l.49,7.78,32.16,1.24.75-7.87Q375.62,213.61,358.91,213.07Z"/><path class="f" d="M143.51,96.94,190.87,88a1005.76,1005.76,0,0,1,269.52,6l23.87,9a8.11,8.11,0,0,1,4.18,4.89,621.41,621.41,0,0,1,39.29,109.92v7.62a10.16,10.16,0,0,0,7.41,7.62l20.34,8.47a95.53,95.53,0,0,1,44,40.7l14.24,33.27a9.18,9.18,0,0,1-8.13,10.91q-286.66,9.93-573.43-2.6a13.32,13.32,0,0,1-9.85-11.26L29,289.24l8.63-18.94a97,97,0,0,1,57.78-42.57l39.42-117.58,2.94-7.92a8.25,8.25,0,0,1,5.73-5.29"/><path class="f" d="M138,101.59l-3.19-1.17-1.59.23-5.65,5.2A29.84,29.84,0,0,0,97.74,104l-2,3.85v21.48a4.76,4.76,0,0,0,5.43,3.84h7.47l20.87-7.06,2.62-7.8-1.33-10.69,1.36-1.13,2.49,1.13.9.68,2.52-6.75"/><path class="f" d="M110.79,181.88H56.35A10.33,10.33,0,0,0,48,189.51V209a4.7,4.7,0,0,0,4.52,5.42l47.31.24,11-32.74"/><path class="f" d="M102.94,210.31l33-95.64a12.51,12.51,0,0,1,9.05-9,890.91,890.91,0,0,1,341.06,3.11l24.8,60.68,13.49,43a1884.14,1884.14,0,0,0-421.43-2.13l-3.82,14a1867.57,1867.57,0,0,1,427.13.39V218l-1.88-5.54"/><path class="f" d="M283.28,115.39h62a7.85,7.85,0,0,1-1.34,15H283.28a8.26,8.26,0,0,1,0-15"/><polyline class="c" points="313.11 90.68 314.24 93.31 314.24 111.98 313.21 115.39 317.96 115.39 317.03 111.88 317.03 93.31 317.96 90.73 313.11 90.68"/><polyline class="e" points="463.25 95.03 447.88 69.4 174.14 69.4 155.72 94.63 176.27 90.75 182.48 81.01 436.86 81.01 443.96 91.51 460.39 93.96 463.25 95.03"/><polyline class="a" points="192.31 69.4 192.31 54.22 235.5 54.22 235.5 69.4 192.31 69.4"/><polyline class="a" points="385.13 69.4 385.13 54.22 428.32 54.22 428.32 69.4 385.13 69.4"/><path class="e" d="M165.48,81.26l2-69.94V.91a.92.92,0,0,1,1.83,0l-.71,23.2-1.24,54.57-1.89,2.58"/><polyline class="e" points="333.84 69.4 336.67 61.78 335.73 22.78 336.36 19.32 337.93 19.32 337.3 28.76 338.25 61.78 341.39 69.4 333.84 69.4"/><path class="e" d="M446.15,69.4a411.94,411.94,0,0,0-6-67.06,1,1,0,0,0-.74-.8A1,1,0,0,0,438.29,3,566.17,566.17,0,0,1,444,69.4h2.2"/><line class="f" x1="100.35" y1="230.56" x2="123.45" y2="227.92"/><path class="f" d="M128.82,227.36a989.93,989.93,0,0,1,101-6"/><line class="f" x1="279.38" y1="220.89" x2="339.45" y2="222.13"/><line class="f" x1="359.64" y1="222.63" x2="439.65" y2="226.87"/><line class="f" x1="448.63" y1="226.87" x2="454.36" y2="227.61"/><line class="f" x1="526.9" y1="233.84" x2="468.07" y2="228.36"/><path class="f" d="M456.44,205.61a78.22,78.22,0,0,0-94.06-5.18l6.24,0a79.31,79.31,0,0,1,82.85,4.7l5,.46"/><polyline class="f" points="426.19 168.06 434.17 186 435.18 192.81"/><line class="f" x1="435.31" y1="196.5" x2="436.45" y2="204.18"/><polyline class="f" points="378.94 155.11 372.35 159.34 360.64 186.75 358.4 200.31"/><path class="f" d="M520,190.11l2.89-5.35,2-1.75L581,186.25l1.74,2.74,1,3.24L583,215.15a5.54,5.54,0,0,1-5.73,5.74l-49.52-.75v-2.42L520,190.11"/><polyline class="e" points="416.47 262.5 429.93 262.5 436.16 283.18 435.17 284.42 422.45 284.42 416.47 262.5"/><polyline class="e" points="534.62 274.96 533.63 271.72 531.88 270.97 461.59 265.24 460.34 265.99 460.84 267.98 464.08 276.45 523.66 280.94 525.9 281.93 526.15 284.18 524.9 285.17 479.54 282.43 479.29 280.94 468.07 280.19 466.32 282.18 467.32 285.92 469.07 287.17 540.36 291.15 541.35 289.41 537.61 277.7 487.01 275.2 477.04 273.21 477.04 271.22 520.41 274.21 521.16 274.96 534.62 274.96"/><polyline class="e" points="333.22 258.76 320.26 258.76 320.26 280.19 387.06 282.68 386.06 275.45 333.22 273.46 333.22 258.76"/><path class="e" d="M376.83,213.4l-5.23-4.23-2-1.49-2-.75-1,1-.75,1L333,199.71a326.89,326.89,0,0,0-139.59-6l1.75,2a302.17,302.17,0,0,1,92.47,1.74v-2.74l-8.22-1.24-13.71-1.25-15.21-.75a333.56,333.56,0,0,1,74.78,8.23,301.24,301.24,0,0,1,39.88,12l1.24,1.39,10.47.34"/><path class="e" d="M256.2,213.05l-8.73-5.62L244,209.17a270.72,270.72,0,0,0-137.34-8.72l-.75,3.24a283.6,283.6,0,0,1,137.59,7.23l.5,2.52,12.22-.39"/><path class="f" d="M200.61,158.59a38.63,38.63,0,0,0-8.47,12.71l-8.76,25.22"/><line class="f" x1="182.41" y1="199.3" x2="181.17" y2="203.55"/><polyline class="f" points="250.21 159.34 252.21 161.58 265.9 189.29"/><line class="f" x1="268.43" y1="194.75" x2="269.91" y2="199.84"/><path class="e" d="M235.27,213.78l-.26,7.35h33.9l.74-8.43q-17.19.41-34.38,1.08"/><polyline class="e" points="215.32 261 211.58 282.43 286.26 280.94 288.1 259.76 215.32 261"/><path class="g" d="M273.05,274.71l-47.28.63,1.89-9.46a1.14,1.14,0,0,1,1.1-1l45.15-1.22,1.48,1.58-2.34,9.47"/><path class="e" d="M104.25,277.12l-3.79,9.52.84,1.94h12.47a7.8,7.8,0,0,1,7.16-7.58l31.26-.43,2.61-1.34,21.57-.85,1.52-.84,4-12.13-.68-2.27-31.34,1.52-4.89,1.43-34.46,2.19L109,272l39.85-1.09,3.12-1.35,14.83-.42-3.12,4.55-9.78.42-1.43,1.26-48.19,1.77"/><line class="f" x1="133.57" y1="239.13" x2="144.19" y2="260.7"/><line class="f" x1="145.2" y1="262.63" x2="147" y2="265.49"/><line class="f" x1="155.31" y1="279.21" x2="184.41" y2="326.28"/><path class="f" d="M310.53,305.35l.5-3.23a16.82,16.82,0,0,1,16.21,1.24"/><polyline class="f" points="312.28 307.85 314.52 308.59 318.51 308.59"/><line class="f" x1="323" y1="308.59" x2="327.24" y2="308.1"/><line class="f" x1="506.39" y1="235.57" x2="486.99" y2="267.31"/><line class="f" x1="478.07" y1="287.67" x2="455.4" y2="329.29"/><path class="h" d="M224.72,348H283.8a5.67,5.67,0,0,1,5.67,5.67v21a5.66,5.66,0,0,1-5.67,5.66H224.72a5.66,5.66,0,0,1-5.67-5.66v-21a5.67,5.67,0,0,1,5.67-5.67Z"/><path class="i" d="M357.87,348H417a5.67,5.67,0,0,1,5.67,5.67v21A5.66,5.66,0,0,1,417,380.4H357.87a5.66,5.66,0,0,1-5.67-5.66v-21a5.67,5.67,0,0,1,5.67-5.67Z"/><polyline class="a" points="426.71 388.61 428.36 390.8 436.88 390.8 441.28 386.96 455.03 339.41 453.11 336.94 446.5 336.94 443.48 338.58 442.66 339.41 426.71 388.61"/><polyline class="a" points="213.9 388.61 212.25 390.8 203.72 390.8 199.33 386.96 185.58 339.41 187.5 336.94 194.1 336.94 197.13 338.58 197.95 339.41 213.9 388.61"/><path class="a" d="M352.2,368.27H289.47v7.14a5.78,5.78,0,0,1-4.38,4.85H224.62l11,10.54H406.36l10.72-10.4-60.25-.09a5.67,5.67,0,0,1-4.5-4.37l-.13-7.67"/><path class="c" d="M634.16,442.65a55.55,55.55,0,0,1-21.29,9.87H457.1v1.73H613.39a60.66,60.66,0,0,0,21.11-9.17l-.34-2.43"/><path class="e" d="M618.89,479.5l-4.09,29.18a120.43,120.43,0,0,1-9.24,33.77,17,17,0,0,1-9.37,7.16H526.57a17.73,17.73,0,0,1-5.38-8.82,108.16,108.16,0,0,1-5.65-26.32q-1-11.42-1-22.87h79l25.3-12.1"/><rect class="d" x="213.5" y="443.14" width="210.1" height="43.68"/><path class="e" d="M14,472.58l7.44,55.52a42,42,0,0,0,12,20h58.1A42.63,42.63,0,0,0,101,532.76a108.86,108.86,0,0,0,4.8-41.16H45.61L16.28,475.75,14,472.58"/><polyline class="a" points="106.08 499.2 105.77 491.6 514.58 491.6 514.58 499.98 106.09 499.98 106.08 499.2"/><path class="c" d="M180.54,449.13,38.79,446.41A107.19,107.19,0,0,1,17,443.69,31.15,31.15,0,0,1,4,437.17l-.54,2.71a49.6,49.6,0,0,0,30.2,9.25l146.65,3.54.27-3.54"/><path class="e" d="M480,207.77a40.16,40.16,0,0,0-27.58-25.5A251.17,251.17,0,0,1,426.88,174a4.93,4.93,0,0,0-5.17,1,25,25,0,0,1-34.81-.34A86.62,86.62,0,0,0,339,198.81l2.41.34,9.65-.69,9.31,1a91.72,91.72,0,0,1,34.13-10.69l-.34-6.89,5.17,1,3.1,1.37-1.73,1.73.35,1.72,3.1.35,2.64-2-.91-2.41,4.48-.41,2.38-.47-.66,3.23.35,1,1.72,1.38,2.41.34a46.31,46.31,0,0,1,39,18.27l24.47.69"/><path class="e" d="M409,203.29l20.34-.35,8.27.69,6.21,1,3.44-.69v-1a49.38,49.38,0,0,0-35.5-10,11.84,11.84,0,0,1-4.14,6.2,2.32,2.32,0,0,0,1.38,4.14"/><polyline class="e" points="407.09 191.27 404.6 190.96 401.95 191.42 400.08 192.36 399.46 193.45 401.18 199.35 402.26 200.44 403.35 201.38 404.44 201.38 404.75 199.98 405.37 197.18 406.93 193.91 407.55 192.05 407.09 191.27"/><polyline class="e" points="399.62 202.31 400.71 201.06 396.97 193.6 395.26 192.36 392.31 192.51 380.33 195.78 372.86 197.8 369.91 199.51 368.97 200.75 369.6 201.22 371.93 201.84 399.62 202.31"/><polyline class="g" points="402.11 111.18 405.37 111.03 407.87 111.65 408.8 112.74 408.18 113.98 406.93 114.29 404.6 114.29 401.8 113.83 400.71 112.89 401.02 111.81 402.11 111.18"/><polyline class="g" points="404.13 133.73 408.18 134.35 414.87 134.04 419.53 133.73 422.64 132.64 426.84 131.71 426.84 130.93 422.64 131.4 418.75 132.02 414.55 132.64 410.98 132.8 407.24 132.95 404.75 132.95 404.29 133.11 404.13 133.73"/><polyline class="g" points="430.58 130.78 434 130 437.58 129.07 438.51 128.44 438.2 127.98 437.11 127.98 435.87 128.91 433.07 129.84 430.73 130.16 430.58 130.78"/><polyline class="g" points="435.24 125.18 439.29 124.56 438.98 122.07 437.42 123.16 435.24 125.18"/><path class="f" d="M374,136.87l3.38,6.66.47,8.86,9.06,22.3a24.65,24.65,0,0,0,35-.06l6.23-13.22L431.82,144l3.23-10.17"/><polyline class="e" points="292.94 200.1 292.94 197.57 263.7 195.2 244.42 194.73 235.41 194.88 232.25 196.31 231.3 198.36 231.14 201.36 292.94 200.1"/><polyline class="e" points="236.84 189.36 258.97 189.04 289.63 191.41 289.94 189.04 264.65 176.41 260.07 174.67 255.49 173.56 253.43 173.56 250.43 171.51 248.38 168.98 240.79 173.88 236.36 184.31 236.05 186.83 236.36 188.25 236.84 189.36"/><polyline class="e" points="223.71 191.69 229.4 191.06 229.4 184.11 227.98 181.11 226.56 180.47 224.82 181.42 223.08 180.95 222.13 181.11 221.81 182.53 221.81 187.11 223.71 191.69"/><polyline class="e" points="228.29 194.22 223.71 194.69 223.87 195.48 224.19 196.91 225.45 199.75 226.71 200.38 227.98 199.43 228.45 197.38 228.45 195.01 228.29 194.22"/><polyline class="e" points="159.32 205.43 169.87 204.33 176.12 203.38 184.7 203.09 187.13 202.48 186.82 200.24 167.43 198.92 166.7 198.07 162.88 198.26 160.6 201.09 158.81 201.75 158.02 203.75 159.32 205.43"/><polyline class="e" points="163.02 196.59 163.97 194.22 169.34 190.43 174.56 187.43 179.14 184.9 186.57 182.21 192.89 179.53 196.84 177.79 201.11 175.26 204.74 172.26 206.96 175.26 209.17 177 212.17 178.1 215.18 178.74 217.55 184.27 217.55 190.43 197.47 195.48 218.34 195.01 219.92 197.06 219.6 200.38 218.18 201.01 202.69 201.17 200.95 199.91 200.95 198.17 194 198.49 184.83 196.75 163.02 196.59"/><polyline class="g" points="216.76 115.38 222.13 115.7 227.35 114.43 227.03 112.7 224.97 111.59 221.5 111.59 217.39 112.22 216.44 113.49 216.76 115.38"/><polyline class="g" points="239.52 130.71 245.36 130.23 249.63 129.76 254.69 128.5 257.06 126.44 253.58 127.55 250.74 128.02 246 128.97 241.73 129.92 239.67 130.07 239.52 130.71"/><path class="f" d="M195.45,139.64l.6,4,2.53,4.58,1.9,4.9.63,4.74,1.26,5.69,3.16,7a27.77,27.77,0,0,0,41.89-3.47,10.27,10.27,0,0,0,1.9-4.9q.81-7.36,1.89-14.7.82-5.58,1.33-11.2"/><line class="f" x1="229.56" y1="189.49" x2="236.23" y2="187.67"/><line class="f" x1="222.51" y1="189.99" x2="217.55" y2="188.81"/><polygon class="f" points="243.92 455.26 232.65 454.13 224.76 455.26 225.88 472.15 225.88 475.53 257.45 475.53 297.12 475.53 299.16 454.13 287.88 454.13 269.85 456.38 257.45 455.26 243.92 455.26"/><polygon class="f" points="335.67 455.81 335.15 475.45 402.79 475.45 403.05 454.76 386.27 454.76 375.79 456.59 367.13 456.07 354.55 456.33 351.67 458.69 341.18 455.54 335.67 455.81"/><path class="a" d="M357.87,348a5.67,5.67,0,0,0-5.61,4.84,14.22,14.22,0,0,0,0,4.12H289.47v-3.57a5.69,5.69,0,0,0-5.2-5.37h-60.2a5.69,5.69,0,0,0-4.91,4.55l-.11,3.56-4.6-2.47-6.6-10.44a5.36,5.36,0,0,1,4.4-8H430a4.4,4.4,0,0,1,3.85,6.32l-8.25,11.82-3,2.47v-2.19A5.67,5.67,0,0,0,417,348Z"/></svg>