<svg xmlns="http://www.w3.org/2000/svg" viewBox="0 0 124.12 219.95"><defs><style>.a,.b,.d,.f{stroke:#000;}.a,.b,.d{stroke-linecap:round;stroke-linejoin:round;stroke-width:2px;}.b,.e{fill:#fff;}.c{fill:#dc0032;}.d{fill:none;}.f{stroke-miterlimit:10;}.g{fill:#539ede;}.h{fill:#fcd925;}.i{fill:#d8432d;}.j{fill:#0076bc;}</style></defs><title>P3-1 korkortonline.se</title><path d="M110.26,110.56l-.14-8.9-2.19-7.52-.14-2.33h2.74l1.23,5.2a1.68,1.68,0,0,0,2.29-.55,2.09,2.09,0,0,0,.17-.41,18.11,18.11,0,0,1,7-9.85,89.34,89.34,0,0,0-6.57-40.36,13.76,13.76,0,0,0-7.12-6.43,31.66,31.66,0,0,1-10.12-4.1A7.91,7.91,0,0,1,93.35,33l-2-.28L88.6,40.49a1.17,1.17,0,0,1-2.33-.13v-4.5A1,1,0,0,0,85,35.21l-.1,0a1,1,0,0,0-.55.47V40.1a1,1,0,0,1-.63,1.26l0,0A1,1,0,0,1,82.58,41l-3.15-8.2a1.44,1.44,0,0,0-1.78,0,20.16,20.16,0,0,1-7.39,3.69,37.86,37.86,0,0,0-14.78,7.55l-4.66,6.38-2.64,7.93-2.36,8.73-.27,14.27.6,5.83h.2l1.82,1.26,4.88,9.08.69.42,3.36-9.22h.07l1.6-5.52,1-6.88,1.06-8.19.78-4.53a1.4,1.4,0,0,1,1.93.44,1.15,1.15,0,0,1,.12.25l7,17.78v5.2a68.26,68.26,0,0,0-5.75,27.78l3.42,2.6,4.24,60.47.27,27.76a68.55,68.55,0,0,0-8.63,10,1.63,1.63,0,0,0,.28,2.19,7.76,7.76,0,0,0,8.89.82q7-4,13.69-8.48a3.72,3.72,0,0,0,1.64-3l.55-33.09.93-30.24.41-.27.69.55,1.37,26.1,1.09,37.08q5,4.08,10,8.07a15.14,15.14,0,0,0,11.36,3.15,4.72,4.72,0,0,0,1.81-6.42,4.46,4.46,0,0,0-.72-1l-7-7.25.55-87.42Z"/><polyline class="a" points="44.77 142.04 39.4 136.41 41.94 136.45 43.6 134.43 44.77 142.04"/><polyline class="a" points="35.13 106.3 33.03 113.79 35.26 112.56 37.68 113.57 35.13 106.3"/><path d="M75.77,14.78a20.34,20.34,0,0,1,19.88.1,3.28,3.28,0,0,0,1.86.93,10.1,10.1,0,0,0,1.73-8.39l-4.52-5a15,15,0,0,0-4-2A37,37,0,0,0,83.09.06a12.46,12.46,0,0,0-5.64,1.68l-5,6.15a6.91,6.91,0,0,0,1.83,7.62A1.54,1.54,0,0,0,75.77,14.78Z"/><path d="M77,15.24v.86a24,24,0,0,0,16.73,0v-.93A17.41,17.41,0,0,0,77,15.24Z"/><path class="b" d="M59.62,119.52l-.25-2.41-1.82-2,.18-5.59-6.49,1.34L50,112.63v9A9,9,0,0,1,59.62,119.52Z"/><path class="c" d="M65.35,127.9a9,9,0,1,0-9,9h0A9,9,0,0,0,65.35,127.9Z"/><path class="d" d="M35.26,112.56A44,44,0,0,0,42,136.42"/><path class="b" d="M112.14,102.49h-2l.13,8.08.41.93-.14,4-.69,1.23-.16,26.81a2.13,2.13,0,1,0,4.24-.46,1.89,1.89,0,0,0-.11-.47l-.14-14.23-1-17.37-.58-8.49"/><path class="b" d="M117.1,111l2.87,6.44,1,4.66a6.23,6.23,0,0,1-4.66,7.11.82.82,0,0,1-.82-.27l.69-5.06-.69,1.1-.41,4.1-1.37-.69-1-17.37h4.37"/><path class="e" d="M72.07,83.33a72.28,72.28,0,0,0,20.39,1.1.9.9,0,0,0,.81-1v0a.87.87,0,0,0-.4-.67L84.12,69.5,76.86,56.91,68.92,39.54,71.66,38l10.4,20.25,17,26.54L105,85v2.87a12.21,12.21,0,0,1-6.16,1.37A93.16,93.16,0,0,1,72.1,87Z"/><polygon class="b" points="57.71 109.57 58.37 89.58 58.09 88.61 57.11 88.75 53.76 97.97 53.06 97.55 48.16 88.47 46.35 87.21 45.23 87.21 44.11 87.35 49.01 111.24 57.71 109.57"/><line class="d" x1="58.37" y1="89.58" x2="58.09" y2="88.61"/><line class="d" x1="51.8" y1="110.82" x2="57.71" y2="109.57"/><line class="d" x1="49" y1="111.24" x2="51.8" y2="110.82"/><line class="d" x1="45.23" y1="87.21" x2="44.11" y2="87.35"/><path class="d" d="M76.68,17.93v5.78a9.08,9.08,0,0,0,18,2.43,9.25,9.25,0,0,0-.05-2.73V17.88"/><polygon class="e" points="83.45 4.46 82.79 5.13 82.7 7.02 83.36 8.34 85.51 8.34 86.25 7.6 86.25 4.96 85.43 4.38 83.45 4.46"/><path class="b" d="M121.2,86.24l1.92-.54-4.52,21.06L117.1,111h-4.38l-1-14a1.82,1.82,0,0,0,2.47-.72,1.43,1.43,0,0,0,.13-.28,25.29,25.29,0,0,1,6.88-9.77"/><line class="d" x1="110.53" y1="115.48" x2="109.84" y2="116.71"/><line class="d" x1="110.67" y1="111.51" x2="110.53" y2="115.48"/><line class="d" x1="110.26" y1="110.56" x2="110.67" y2="111.51"/><polygon class="e" points="12 140.01 17.03 145.31 16.26 146.05 12 141.56 7.74 146.05 6.97 145.31 12 140.01"/><rect class="f" x="11.47" y="141.5" width="1.07" height="23.31"/><polygon class="f" points="12 140.01 17.03 145.31 16.26 146.05 12 141.56 7.74 146.05 6.97 145.31 12 140.01"/><path class="g" d="M.11,170.17a4,4,0,0,0-.11.91v42.65a4.1,4.1,0,0,0,4.09,4.1H19.91a4.1,4.1,0,0,0,4.09-4.1V171.1a4,4,0,0,0-.11-.91L16.33,167H7.67Z"/><path class="h" d="M23.89,170.17a4.09,4.09,0,0,0-4-3.18H16.35v1.83a1.34,1.34,0,0,0,1.34,1.35Z"/><path class="h" d="M.11,170.17H6.32a1.35,1.35,0,0,0,1.35-1.35V167H4.11A4.09,4.09,0,0,0,.11,170.17Z"/><rect class="i" x="13.89" y="217.79" width="6.26" height="1.3"/><rect class="i" x="3.89" y="217.79" width="6.26" height="1.3"/><rect class="j" x="19.9" y="186.35" width="0.99" height="17.59"/><rect class="j" x="3.12" y="186.35" width="0.99" height="17.59"/><path class="e" d="M3.11,204H20.9v3.26a1.89,1.89,0,0,1-1.88,1.9H5a1.9,1.9,0,0,1-1.9-1.89h0Z"/><path class="e" d="M6.32,178.86H17.71a3.21,3.21,0,0,1,3.21,3.21v4.27H3.12v-4.27A3.21,3.21,0,0,1,6.32,178.86Z"/></svg>