<svg xmlns="http://www.w3.org/2000/svg" viewBox="0 0 145.76 219.99"><defs><style>.a,.d{fill:#fff;}.b{fill:none;}.b,.c,.d,.e{stroke:#000;}.b,.c,.d{stroke-linecap:round;stroke-linejoin:round;stroke-width:2px;}.e{stroke-miterlimit:10;}.f{fill:#539ede;}.g{fill:#fcd925;}.h{fill:#d8432d;}.i{fill:#0076bc;}</style></defs><title>P5-1 korkortonline.se</title><path d="M95.89,15.51a6.91,6.91,0,0,1-1.83-7.62l5-6.15A12.5,12.5,0,0,1,104.71.06a37.7,37.7,0,0,1,7.58.35,15.32,15.32,0,0,1,4.08,2l4.52,5a10.14,10.14,0,0,1-1.73,8.39,3.37,3.37,0,0,1-1.87-.93,20.31,20.31,0,0,0-19.88-.1,1.52,1.52,0,0,1-1.55.67"/><path d="M49.88,56.85A43.79,43.79,0,0,0,77.15,44.13a37.93,37.93,0,0,1,14.78-7.52,20.13,20.13,0,0,0,7.42-3.69,1.39,1.39,0,0,1,1.78,0l3.15,8.2a1,1,0,0,0,1.39.21h0a1,1,0,0,0,.36-1.13v-4.4a1.06,1.06,0,0,1,1-.55,1,1,0,0,1,.93.69v4.51a1.16,1.16,0,0,0,1.18,1.15,1.17,1.17,0,0,0,1.15-1l2.74-7.8,1.92.27a7.74,7.74,0,0,0,4.1,2.33,32,32,0,0,0,10.13,4.11,13.84,13.84,0,0,1,7.14,6.43,89.15,89.15,0,0,1,6.56,40.35,18.15,18.15,0,0,0-7,9.85,1.65,1.65,0,0,1-2,1.14h0a1.44,1.44,0,0,1-.4-.18l-1.23-5.2h-2.77l.13,2.33,2.2,7.52.13,8.9.41.93-.13,4-.69,1.23-.56,87.41,7,7.25a4.72,4.72,0,0,1-.12,6.66h0a5.08,5.08,0,0,1-1,.72,15.13,15.13,0,0,1-11.36-3.15q-5-4-10-8.07l-1.1-37.1L113,144.41l-.68-.55-.41.28-1,30.23-.55,33.1a3.75,3.75,0,0,1-1.64,3Q102,214.94,95,219a7.77,7.77,0,0,1-8.91-.8,1.64,1.64,0,0,1-.27-2.19,69,69,0,0,1,8.62-10l-.27-27.77-4.25-60.48-3.42-2.59a68,68,0,0,1,5.84-27.79v-5.2l-7-17.79a1.4,1.4,0,0,0-1.81-.8.9.9,0,0,0-.24.12,42.87,42.87,0,0,1-17,6,137.31,137.31,0,0,1-16.46,1.09v-14"/><path d="M98.68,16.12v-.86a17.38,17.38,0,0,1,16.73,0v.93a24.13,24.13,0,0,1-16.73-.07"/><path class="a" d="M126.55,85v2.87a12.3,12.3,0,0,1-6.15,1.37,93.16,93.16,0,0,1-26.69-2.19V83.4a73,73,0,0,0,20.39,1.09.89.89,0,0,0,.81-1v0a.88.88,0,0,0-.4-.66l-8.75-13.27L98.5,57,90.56,39.63l2.79-1.51L103.7,58.33l17,26.54,5.88.13"/><path class="b" d="M98.35,18v5.78a9.08,9.08,0,1,0,18,2.42,8.92,8.92,0,0,0,0-2.73V18"/><path class="b" d="M12.35,79.21a43.78,43.78,0,0,0,6.71,23.86"/><polyline class="c" points="21.9 108.69 16.52 103.06 19.07 103.1 20.73 101.07 21.9 108.69"/><polygon class="d" points="49.88 79.24 49.88 56.85 27.27 57.55 27.27 68.53 49.88 79.24"/><path class="d" d="M27.27,57.55a2,2,0,0,1-1.77,2.12,43.66,43.66,0,0,0-10.72-1.5l-2.12.38-5,2L3.05,62.42l-1.39.77a1.22,1.22,0,0,0-.51,1.67h0a1.21,1.21,0,0,0,.38.43l1.63.25,4.61-.87L10,63.06l5-.12-.75.38-4,.12-1.13.75L9,65.06l.37.62,1.5.26h3.73l1.75,1,3.48.37,1.87-.37,1.88-1.61h3.68"/><polyline class="c" points="12.26 72.95 10.16 80.44 12.39 79.21 14.8 80.21 12.26 72.95"/><path class="d" d="M142.84,86.27l1.92-.55-4.52,21.07L138.73,111h-4.38l-1-14a1.83,1.83,0,0,0,2.48-.73h0a2.4,2.4,0,0,0,.11-.23,25,25,0,0,1,6.84-9.85"/><path class="d" d="M133.77,102.56h-2l.13,8.07.41.93-.14,4-.68,1.23-.14,26.79a2.13,2.13,0,0,0,4.23-.51h0a3,3,0,0,0-.09-.43l-.14-14.22-1-17.38-.59-8.48"/><path class="d" d="M138.73,111l2.88,6.44,1,4.66a6.27,6.27,0,0,1-4.67,7.12.84.84,0,0,1-.82-.27l.69-5.07-.69,1.09-.41,4.11-1.36-.68-1-17.38h4.38"/><polyline class="a" points="105.08 4.53 104.43 5.19 104.34 7.09 105 8.41 107.15 8.41 107.89 7.67 107.89 5.03 107.07 4.45 105.08 4.53"/><polygon class="a" points="40.65 140.41 45.68 145.71 44.9 146.44 40.65 141.96 36.39 146.44 35.62 145.71 40.65 140.41"/><rect class="e" x="40.11" y="141.9" width="1.07" height="23.31"/><polygon class="e" points="40.65 140.41 45.68 145.71 44.9 146.44 40.65 141.96 36.39 146.44 35.62 145.71 40.65 140.41"/><path class="f" d="M28.76,170.56a4.06,4.06,0,0,0-.11.92v42.65a4.09,4.09,0,0,0,4.09,4.09H48.56a4.09,4.09,0,0,0,4.09-4.09V171.5a3.44,3.44,0,0,0-.12-.91L45,167.4H36.31Z"/><path class="g" d="M52.53,170.56a4.1,4.1,0,0,0-4-3.18H45v1.84a1.34,1.34,0,0,0,1.34,1.34Z"/><path class="g" d="M28.76,170.56H35a1.34,1.34,0,0,0,1.34-1.34v-1.84H32.75A4.09,4.09,0,0,0,28.76,170.56Z"/><rect class="h" x="42.53" y="218.19" width="6.26" height="1.3"/><rect class="h" x="32.53" y="218.19" width="6.26" height="1.3"/><rect class="i" x="48.55" y="186.74" width="0.99" height="17.59"/><rect class="i" x="31.77" y="186.74" width="0.99" height="17.59"/><path class="a" d="M31.76,204.34H49.55v3.26a1.88,1.88,0,0,1-1.88,1.9h-14a1.89,1.89,0,0,1-1.9-1.88v-3.28Z"/><path class="a" d="M35,179.25H46.36a3.21,3.21,0,0,1,3.21,3.21v4.28H31.77v-4.28A3.22,3.22,0,0,1,35,179.25Z"/></svg>