<svg xmlns="http://www.w3.org/2000/svg" viewBox="0 0 699.07 552.61"><defs><style>.a,.e{fill:#7c868d;}.a,.b,.c,.e,.f,.h,.i{stroke:#000;stroke-width:3px;}.a,.b,.c,.f,.i{stroke-linecap:round;stroke-linejoin:round;}.b,.g{fill:#fff;}.c{fill:#b5c0c7;}.d,.i{fill:#000;}.f{fill:none;}.h{fill:#b5c0c7;}</style></defs><title>P9-1 korkortonline.se</title><path class="a" d="M618.41,391.65l12.29,22.47a56,56,0,0,1-9.57,65.82L593.59,493.1h-548L16.28,477.25A76.46,76.46,0,0,1,6.4,405.14a67,67,0,0,1,10.71-18.43A44.61,44.61,0,0,0,7,406.69a13.62,13.62,0,0,0,9.54,11l10.29,2.83,20.13,2.09H612.75a18.14,18.14,0,0,0,15.9-9.58l.71-1.39-11-20"/><rect class="b" x="213.5" y="444.63" width="210.1" height="43.68"/><path class="c" d="M235.5,55.71l-1.19-5.06L232.83,31.3A19,19,0,0,0,196,31l-2,19.65-1.7,5.06H235.5"/><path class="c" d="M428.32,55.71l-1.19-5.06L425.65,31.3a19,19,0,0,0-36.86-.3l-2,19.65-1.69,5.06h43.19"/><path class="d" d="M259,127.15l1.26.47-.16,2.06-5.85,6.95a58.18,58.18,0,0,1-61.64,3L191,134.42l.48-.63,24.5.47h13l6.79-.95-.16-.94-7.9.94-17.23.16L200,132.84l-7.11.31-3-1.1L185.15,130a6.33,6.33,0,0,1-2.85-7.11,42.92,42.92,0,0,1,15-22.44l13.11-1,17.23-1.58,8.06-1.26a17,17,0,0,1,15,3.79,30.63,30.63,0,0,1,5.37,6.16,39,39,0,0,1,5.06,11.22,10.05,10.05,0,0,1-2.21,9.32"/><path class="d" d="M370.85,137.56,395,145.65a49.25,49.25,0,0,0,23.18-.62,62,62,0,0,0,25.2-13.69v-9l-.93-2.18a19.31,19.31,0,0,0-8.87-17.73l-19.6-2.8-19.76-1.24-9.64.62-5.29.93a22,22,0,0,0-11.67,14.31,4.09,4.09,0,0,0,.78,3.58l.15,3.26v3.73l2.49,3.11-.31,1.71,1.87,2.34,1.09,1.09,20.53,1.55,4.2.47v1.09l-8.55-.32-7.94-.93-7-.62-3.11-1.24-1.4,1.24-.47,1.87.94,1.39"/><path class="e" d="M357.87,349.54a5.67,5.67,0,0,0-5.61,4.84,14.22,14.22,0,0,0,0,4.12H289.47v-3.58a5.69,5.69,0,0,0-5.2-5.36h-60.2a5.69,5.69,0,0,0-4.91,4.55l-.11,3.56-4.6-2.47-6.6-10.44a5.36,5.36,0,0,1,4.4-8H430a4.4,4.4,0,0,1,3.85,6.32l-8.25,11.81-3,2.48v-2.19a5.67,5.67,0,0,0-5.67-5.67Z"/><polygon class="f" points="335.67 457.31 335.15 476.95 402.79 476.95 403.05 456.26 386.27 456.26 375.78 458.09 367.13 457.57 354.55 457.83 351.67 460.19 341.18 457.04 335.67 457.31"/><polygon class="f" points="243.92 456.76 232.65 455.63 224.76 456.76 225.88 473.65 225.88 477.03 257.45 477.03 297.12 477.03 299.16 455.63 287.88 455.63 269.85 457.88 257.45 456.76 243.92 456.76"/><line class="f" x1="222.51" y1="191.49" x2="217.55" y2="190.31"/><line class="f" x1="229.56" y1="190.99" x2="236.23" y2="189.17"/><polyline class="d" points="292.94 201.6 292.94 199.07 263.7 196.7 244.42 196.23 235.41 196.38 232.25 197.81 231.3 199.86 231.14 202.86 292.94 201.6"/><polyline class="d" points="223.71 193.19 229.4 192.56 229.4 185.61 227.98 182.61 226.56 181.97 224.82 182.92 223.08 182.45 222.13 182.61 221.81 184.03 221.81 188.61 223.71 193.19"/><polyline class="d" points="228.29 195.72 223.71 196.19 223.87 196.98 224.19 198.41 225.45 201.25 226.71 201.88 227.98 200.93 228.45 198.88 228.45 196.51 228.29 195.72"/><polyline class="d" points="159.32 206.93 169.87 205.83 176.12 204.88 184.7 204.59 187.13 203.98 186.82 201.74 167.43 200.42 166.7 199.57 162.88 199.76 160.6 202.59 158.81 203.25 158.02 205.25 159.32 206.93"/><polyline class="d" points="236.84 190.86 258.96 190.54 289.63 192.91 289.94 190.54 264.65 177.91 260.07 176.17 255.49 175.06 253.43 175.06 250.43 173.01 248.38 170.48 240.79 175.38 236.36 185.81 236.05 188.33 236.36 189.75 236.84 190.86"/><polyline class="d" points="163.02 198.09 163.97 195.72 169.34 191.93 174.56 188.93 179.14 186.4 186.57 183.71 192.89 181.03 196.84 179.29 201.11 176.76 204.75 173.76 206.96 176.76 209.17 178.5 212.17 179.6 215.18 180.24 217.55 185.77 217.55 191.93 197.47 196.98 218.34 196.51 219.92 198.56 219.6 201.88 218.18 202.51 202.69 202.67 200.95 201.41 200.95 199.67 194 199.99 184.83 198.25 163.02 198.09"/><polyline class="g" points="216.76 116.88 222.13 117.2 227.35 115.93 227.03 114.2 224.97 113.09 221.5 113.09 217.39 113.72 216.44 114.99 216.76 116.88"/><polyline class="g" points="239.52 132.21 245.36 131.73 249.63 131.26 254.69 130 257.06 127.94 253.58 129.05 250.74 129.52 246 130.47 241.73 131.42 239.67 131.57 239.52 132.21"/><path class="f" d="M195.45,141.14l.6,4,2.53,4.58,1.9,4.9.63,4.74,1.26,5.69,3.16,7a27.77,27.77,0,0,0,41.89-3.47,10.27,10.27,0,0,0,1.9-4.9q.81-7.36,1.89-14.7.82-5.58,1.33-11.2"/><polyline class="f" points="530.21 231.54 539.23 231.54 556.53 231.06 555.57 229.66 553.49 222.03 527.73 221.64 527.73 226.84 530.21 231.54"/><line class="f" x1="561.77" y1="222.95" x2="566.96" y2="242.74"/><line class="f" x1="640.77" y1="307.6" x2="668.65" y2="289.54"/><line class="f" x1="640.77" y1="307.6" x2="657.29" y2="276.11"/><line class="f" x1="690.86" y1="194.56" x2="678.46" y2="232.24"/><line class="f" x1="690.86" y1="194.56" x2="697.57" y2="233.27"/><path class="f" d="M690.86,194.56a165.69,165.69,0,0,1-50.09,113"/><path class="d" d="M441.85,181q-6.54-2.1-12.94-4.57a5,5,0,0,0-5.17,1,25,25,0,0,1-34.81-.34A86.62,86.62,0,0,0,341,201.24l2.41.35,9.65-.69,9.31,1a82.67,82.67,0,0,1,32.22-10.68l-.34-6.89,7.08,1,1.38,1.38L401.57,190l.35.19,4.24.35,0-2,.61-2.41,5.63-.8,2.38-.84-.66,4,.35,1,1.72,1.37,2.41.35a49.32,49.32,0,0,1,7.59.41,40.72,40.72,0,0,1,22.56,9.15l7.82,4.57,1.15,1.91,8.2-.19,4.58,1.14,9.15,1,12,1.33,15.07.95,12.59,2.87h5.53L518.16,193l-6.87,1.14-6.87.19-7.63-1.71-6.1-.38H475.05l-5.54-1.15-8.77-3.43-6.1-1.72-6.68-2.1Z"/><polyline class="d" points="448.34 206.15 432.32 204.24 418.58 204.24 410 204.81 408.28 204.05 406.18 204.62 401.6 204.24 400.84 203.28 400.08 203.67 397.41 202.33 392.83 202.52 390.16 203.67 384.24 203.86 379.09 204.24 375.28 203.48 373.75 202.14 373.75 200.62 386.92 196.23 392.26 194.9 396.83 195.66 398.17 196.61 399.12 196.61 400.27 193.75 405.04 193.37 407.9 193.37 409.62 195.66 410.95 196.23 411.71 195.28 413.24 195.66 413.24 198.14 414 197.75 414.38 195.28 418.58 195.28 424.11 195.85 427.17 195.85 429.64 197.56 438.04 198.71 440.9 200.23 441.85 201.38 444.14 201.95 447.96 203.67 448.72 204.24 448.34 206.15"/><path class="f" d="M482,210.2c0-.1-.07-.2-.1-.3"/><path class="f" d="M376,139.3,379.4,146l.47,8.87,9.06,22.29a24.66,24.66,0,0,0,35-.06l6.22-13.21,3.73-17.42,3.23-10.16"/><polyline class="g" points="437.27 127.61 441.32 126.99 441.01 124.5 439.45 125.59 437.27 127.61"/><polyline class="g" points="432.61 133.21 436.03 132.43 439.61 131.5 440.54 130.88 440.23 130.41 439.14 130.41 437.89 131.34 435.1 132.28 432.76 132.59 432.61 133.21"/><polyline class="g" points="406.16 136.16 410.2 136.79 416.89 136.48 421.56 136.16 424.67 135.08 428.87 134.14 428.87 133.37 424.67 133.83 420.78 134.46 416.58 135.08 413.01 135.23 409.27 135.39 406.78 135.39 406.32 135.54 406.16 136.16"/><polyline class="g" points="404.14 113.62 407.41 113.46 409.89 114.08 410.83 115.17 410.2 116.42 408.96 116.73 406.63 116.73 403.83 116.26 402.74 115.33 403.05 114.24 404.14 113.62"/><polyline class="f" points="540.6 184.24 560.73 185.27 562.8 179.08 575.71 183.72 594.81 181.66 611.34 178.04 632.51 174.95 651.1 172.88 666.59 171.33 682.6 171.33 697.57 167.2 691.89 173.91 683.11 179.08 673.3 182.17 665.04 182.17 661.94 185.79 654.71 193.01 642.32 196.63 631.99 200.75 621.66 193.01 626.31 199.72 627.86 204.88 625.28 212.63 621.15 215.72 612.89 218.82 590.68 235.34 579.32 242.56 574.67 244.63 570.54 244.63 567.45 243.08 562.28 239.47 556.53 231.06"/><polygon class="e" points="543.73 367.89 486.89 368.16 450.18 395.66 465.11 397.28 580.3 398.88 543.73 367.89"/><path class="h" d="M450.18,395.66l36.72-27.5,56.83-.27,36.57,31,1,0a263.28,263.28,0,0,0,2.42-66.35l-110.08,1.62a8.7,8.7,0,0,0-8.5,6.07q-7.87,24.83-17.8,48.95a4.91,4.91,0,0,0,2.83,6.47Z"/><path class="h" d="M605.62,331.53a8.69,8.69,0,0,0,8.43-7.88l-.21-5.65,3.45,10.1-.41,5.26,2,5.66,2,8.09-.81,7.28-1.22,6.48-.81,12.94L618.9,386a11.16,11.16,0,0,1-9.3,12.95H607Q607.56,365.2,605.62,331.53Z"/><path class="e" d="M607,398.9H581.27a263.28,263.28,0,0,0,2.42-66.35l19.84-1.22a8.11,8.11,0,0,0,2.09.2Q607.55,365.17,607,398.9Z"/><polygon class="e" points="185.03 395.76 171.01 397.28 55.97 398.88 89.75 365.43 148.9 365.14 185.03 395.76"/><path class="h" d="M186,395.66l-.95.1L148.9,365.15l-59.15.28L56,398.88l-1.11,0a262.81,262.81,0,0,1-2.43-66.35l110.08,1.62a8.7,8.7,0,0,1,8.5,6.07q7.88,24.83,17.81,48.95a4.93,4.93,0,0,1-2.84,6.47Z"/><path class="h" d="M22.28,314.41l-.2,9.24a8.69,8.69,0,0,0,9.73,7.82A197,197,0,0,0,31,398.9H26.53A11.16,11.16,0,0,1,17.22,386L18,373.81l-.81-12.94L16,354.39l-.8-7.28,2-8.09,2-5.66-.4-5.26Z"/><path class="e" d="M32.6,331.33l19.83,1.22a262.81,262.81,0,0,0,2.43,66.35H31a197,197,0,0,1,.83-67.43A7.27,7.27,0,0,0,32.6,331.33Z"/><polygon class="b" points="400.6 33.4 402.62 27.16 407.57 26.43 410.87 29.18 411.42 36.69 411.97 46.59 412.52 55.72 399.31 55.72 399.87 42.93 400.6 33.4"/><polygon class="b" points="207.78 33.4 209.8 27.16 214.75 26.43 218.06 29.18 218.61 36.69 219.16 46.59 219.71 55.72 206.5 55.72 207.05 42.93 207.78 33.4"/><path class="i" d="M358.91,214.57l.49,7.78,32.16,1.24.75-7.87Q375.62,215.11,358.91,214.57Z"/><path class="f" d="M143.51,98.44l47.36-8.94a1005.76,1005.76,0,0,1,269.52,6l23.87,9a8.08,8.08,0,0,1,4.18,4.89,621.41,621.41,0,0,1,39.29,109.92v7.62a10.16,10.16,0,0,0,7.41,7.62l20.34,8.47a95.53,95.53,0,0,1,44,40.7l14.24,33.27a9.18,9.18,0,0,1-8.14,10.91q-286.65,9.92-573.42-2.6A13.32,13.32,0,0,1,22.28,314L29,290.74l8.63-18.94a97,97,0,0,1,57.78-42.57l39.42-117.58,2.94-7.92a8.23,8.23,0,0,1,5.73-5.29"/><path class="f" d="M138,103.09l-3.19-1.17-1.59.23-5.65,5.2a29.84,29.84,0,0,0-29.86-1.81l-2,3.85v21.48a4.76,4.76,0,0,0,5.43,3.84h7.47l20.87-7.06,2.62-7.8-1.32-10.69,1.35-1.13,2.49,1.13.9.68,2.52-6.75"/><path class="f" d="M110.79,183.38H56.35A10.33,10.33,0,0,0,48,191v19.45a4.71,4.71,0,0,0,4.52,5.42l47.31.24,11-32.74"/><path class="f" d="M102.94,211.81l33-95.64a12.51,12.51,0,0,1,9.05-9,890.91,890.91,0,0,1,341.06,3.11l24.8,60.68,13.49,43a1884.14,1884.14,0,0,0-421.43-2.13l-3.82,14a1867.57,1867.57,0,0,1,427.13.39v-6.71l-1.88-5.54"/><path class="f" d="M283.28,116.89h62a7.85,7.85,0,0,1-1.34,15H283.28a8.26,8.26,0,0,1,0-15"/><polyline class="i" points="313.11 92.18 314.24 94.81 314.24 113.48 313.21 116.89 317.96 116.89 317.03 113.38 317.03 94.81 317.96 92.22 313.11 92.18"/><polyline class="i" points="463.25 96.53 447.88 70.9 174.14 70.9 155.72 96.13 176.27 92.25 182.48 82.51 436.86 82.51 443.96 93.01 460.39 95.46 463.25 96.53"/><polyline class="a" points="192.31 70.9 192.31 55.72 235.5 55.72 235.5 70.9 192.31 70.9"/><polyline class="a" points="385.13 70.9 385.13 55.72 428.32 55.72 428.32 70.9 385.13 70.9"/><path class="i" d="M165.48,82.76l2-69.94V2.41a.92.92,0,0,1,1.83,0l-.71,23.2-1.24,54.57-1.89,2.58"/><polyline class="i" points="333.84 70.9 336.67 63.28 335.73 24.28 336.36 20.82 337.93 20.82 337.3 30.26 338.25 63.28 341.39 70.9 333.84 70.9"/><path class="i" d="M446.15,70.9a411.85,411.85,0,0,0-6-67.06,1,1,0,0,0-.74-.8,1,1,0,0,0-1.14,1.43A566,566,0,0,1,444,70.9h2.2"/><line class="f" x1="100.35" y1="232.06" x2="123.45" y2="229.42"/><path class="f" d="M128.82,228.86a989.93,989.93,0,0,1,101-6"/><line class="f" x1="279.38" y1="222.39" x2="339.45" y2="223.63"/><line class="f" x1="359.64" y1="224.13" x2="439.65" y2="228.37"/><line class="f" x1="448.63" y1="228.37" x2="454.36" y2="229.11"/><line class="f" x1="526.9" y1="235.34" x2="468.07" y2="229.86"/><path class="f" d="M456.44,207.11a78.22,78.22,0,0,0-94.06-5.18l6.24,0a79.31,79.31,0,0,1,82.85,4.7l5,.46"/><polyline class="f" points="426.19 169.56 434.17 187.5 435.18 194.31"/><line class="f" x1="435.31" y1="198" x2="436.45" y2="205.68"/><polyline class="f" points="380.25 155.76 372.35 160.84 360.64 188.25 358.4 201.81"/><path class="f" d="M520,191.61l2.89-5.35,2-1.75L581,187.75l1.74,2.74,1,3.24L583,216.65a5.54,5.54,0,0,1-5.73,5.74l-49.52-.75v-2.42L520,191.61"/><polyline class="d" points="416.47 264 429.93 264 436.16 284.68 435.17 285.92 422.45 285.92 416.47 264"/><polyline class="d" points="534.62 276.45 533.63 273.22 531.88 272.47 461.59 266.74 460.34 267.49 460.84 269.48 464.08 277.95 523.65 282.44 525.9 283.43 526.15 285.68 524.9 286.67 479.54 283.93 479.29 282.44 468.07 281.69 466.32 283.68 467.32 287.42 469.07 288.66 540.36 292.65 541.35 290.91 537.61 279.2 487.01 276.7 477.04 274.71 477.04 272.72 520.41 275.71 521.16 276.45 534.62 276.45"/><polyline class="d" points="333.22 260.26 320.26 260.26 320.26 281.69 387.06 284.18 386.06 276.95 333.22 274.96 333.22 260.26"/><path class="d" d="M376.83,214.9l-5.23-4.23-2-1.49-2-.75-1,1-.75,1L333,201.21a326.89,326.89,0,0,0-139.59-6l1.75,2A302.17,302.17,0,0,1,287.6,199v-2.74L279.38,195l-13.71-1.25L250.46,193a333.56,333.56,0,0,1,74.78,8.23,301.24,301.24,0,0,1,39.88,12l1.24,1.39,10.47.34"/><path class="d" d="M256.2,214.55l-8.73-5.62L244,210.67A270.72,270.72,0,0,0,106.64,202l-.75,3.24a283.6,283.6,0,0,1,137.59,7.23l.5,2.52,12.22-.39"/><path class="f" d="M200.61,160.09a38.63,38.63,0,0,0-8.47,12.71L183.38,198"/><line class="f" x1="182.41" y1="200.8" x2="181.17" y2="205.05"/><polyline class="f" points="250.21 160.84 252.21 163.08 265.9 190.79"/><line class="f" x1="268.43" y1="196.25" x2="269.91" y2="201.34"/><path class="i" d="M235.27,215.28l-.26,7.35h33.9l.74-8.43q-17.19.41-34.38,1.08"/><polyline class="d" points="215.32 262.5 211.58 283.93 286.26 282.44 288.1 261.26 215.32 262.5"/><path class="g" d="M273.05,276.21l-47.28.63,1.89-9.46a1.14,1.14,0,0,1,1.1-1l45.15-1.22,1.48,1.58-2.34,9.47"/><path class="d" d="M104.25,278.62l-3.79,9.52.84,1.94h12.47a7.8,7.8,0,0,1,7.16-7.58l31.26-.43,2.61-1.34,21.57-.85,1.52-.84,4-12.13-.68-2.27-31.34,1.52-4.89,1.43-34.46,2.19-1.51,3.7,39.85-1.09,3.12-1.35,14.83-.42-3.12,4.55-9.78.42-1.43,1.26-48.19,1.77"/><line class="f" x1="133.57" y1="240.63" x2="144.19" y2="262.2"/><line class="f" x1="145.2" y1="264.13" x2="147" y2="266.99"/><line class="f" x1="155.31" y1="280.71" x2="184.41" y2="327.78"/><path class="f" d="M310.54,306.85l.49-3.24a16.85,16.85,0,0,1,16.21,1.25"/><polyline class="f" points="312.28 309.35 314.52 310.09 318.51 310.09"/><line class="f" x1="323" y1="310.09" x2="327.24" y2="309.59"/><line class="f" x1="506.39" y1="237.07" x2="486.99" y2="268.81"/><line class="f" x1="478.07" y1="289.17" x2="455.4" y2="330.79"/><path class="f" d="M224.72,349.54H283.8a5.67,5.67,0,0,1,5.67,5.67v21a5.66,5.66,0,0,1-5.67,5.66H224.72a5.66,5.66,0,0,1-5.67-5.66v-21a5.67,5.67,0,0,1,5.67-5.67Z"/><path class="f" d="M357.87,349.54H417a5.67,5.67,0,0,1,5.67,5.67v21A5.66,5.66,0,0,1,417,381.9H357.87a5.66,5.66,0,0,1-5.67-5.66v-21a5.67,5.67,0,0,1,5.67-5.67Z"/><polyline class="e" points="426.71 390.11 428.36 392.31 436.88 392.31 441.28 388.46 455.03 340.91 453.1 338.43 446.5 338.43 443.48 340.08 442.66 340.91 426.71 390.11"/><polyline class="e" points="213.9 390.11 212.25 392.31 203.72 392.31 199.33 388.46 185.58 340.91 187.5 338.43 194.1 338.43 197.13 340.08 197.95 340.91 213.9 390.11"/><path class="e" d="M352.2,369.77H289.47v7.14a5.78,5.78,0,0,1-4.38,4.85H224.62l11,10.54H406.36l10.72-10.4-60.25-.09a5.67,5.67,0,0,1-4.5-4.38l-.13-7.66"/><path class="i" d="M634.16,444.15A55.55,55.55,0,0,1,612.87,454H457.1v1.73H613.39a60.66,60.66,0,0,0,21.11-9.17l-.34-2.43"/><path class="i" d="M618.9,481l-4.1,29.18A120.43,120.43,0,0,1,605.56,544a17,17,0,0,1-9.37,7.16H526.57a17.73,17.73,0,0,1-5.38-8.82A108.16,108.16,0,0,1,515.54,516c-.66-7.6-1-15.24-1-22.87h79L618.9,481"/><path class="i" d="M14,474.08l7.44,55.52a42,42,0,0,0,12,20h58.1A42.63,42.63,0,0,0,101,534.26a108.86,108.86,0,0,0,4.8-41.16H45.61L16.28,477.25,14,474.08"/><polyline class="a" points="106.08 500.69 105.77 493.1 514.57 493.1 514.57 501.48 106.09 501.48 106.08 500.69"/><path class="i" d="M180.54,450.63,38.79,447.91A107.19,107.19,0,0,1,17,445.19,31.17,31.17,0,0,1,4,438.66l-.54,2.72a49.6,49.6,0,0,0,30.2,9.25l146.65,3.54.27-3.54"/></svg>