<svg xmlns="http://www.w3.org/2000/svg" viewBox="0 0 245.78 149.4"><defs><style>.a{fill:none;stroke:#000;stroke-linecap:round;stroke-linejoin:round;stroke-width:2px;}</style></defs><title>S1-1 korkortonline.se</title><rect class="a" x="1" y="1" width="243.78" height="147.4"/><path class="a" d="M86.55,25.23h132a5.7,5.7,0,0,1,5.71,5.71v76.84a5.7,5.7,0,0,1-5.71,5.71h-11a17.14,17.14,0,1,1-33.46,0h-8.53a17.14,17.14,0,1,1-33.46,0H67a17.14,17.14,0,1,1-33.47,0h-11A2.57,2.57,0,0,1,20,110.93V83.43L29.58,57.8a11.43,11.43,0,0,1,10.7-7.43h30a4.58,4.58,0,0,1,4.58,4.57V74.36h6V31a5.72,5.72,0,0,1,5.71-5.72Z" transform="translate(0.91 0.91)"/><polygon class="a" points="38.28 65.55 32.51 80.99 65.78 80.99 65.78 65.54 38.28 65.55"/></svg>