<svg xmlns="http://www.w3.org/2000/svg" viewBox="0 0 245.78 206.09"><defs><style>.a{fill:none;stroke:#000;stroke-linecap:round;stroke-linejoin:round;stroke-width:2px;}</style></defs><title>S10-1 korkortonline.se</title><path class="a" d="M68.82,117.15a16.49,16.49,0,0,1,.56-2.6c.19-1.23.38-2.46.56-3.69q.32-2.79.54-5.61c.08-1.15.18-2.3.29-3.45q1.33-6.48,2.9-12.89,2.39-8.7,4.63-17.46Q80,66,81.76,60.55A13.53,13.53,0,0,1,83.92,56a12.17,12.17,0,0,1,3.9-3.72,72.91,72.91,0,0,1,10.28-4,8.75,8.75,0,0,0,2-.75,9.71,9.71,0,0,0,2.53-2.11,2.85,2.85,0,0,0,.52-1l.06-.27,0-.2a19.26,19.26,0,0,0,.33-4.29c0-.9,0-1.79,0-2.69a1.18,1.18,0,0,0-.18-.71,24.54,24.54,0,0,1-3-9.47,26,26,0,0,1,.71-8.1q.33-1.41.78-2.79a8.05,8.05,0,0,1,1.51-2.47,10.41,10.41,0,0,1,3.82-3A14,14,0,0,1,116,9a10.89,10.89,0,0,1,4.94,2A9.88,9.88,0,0,1,122,12a15.8,15.8,0,0,1,2.31,3.32,5.38,5.38,0,0,1,.2.51,5.27,5.27,0,0,1,.25,1.72c0,.32-.09.64-.13.95a22.88,22.88,0,0,1-.86,3.25,28.53,28.53,0,0,1-.19,6.33c-.12,1-.3,2-.51,3.06a8.5,8.5,0,0,1-.59,1.83,9.79,9.79,0,0,1-.46,2,2.73,2.73,0,0,1-.37.72,9.06,9.06,0,0,1-1.94,1.77c-.47.3-1,.6-1.44.88a3.29,3.29,0,0,1-.91.32,42.64,42.64,0,0,0-.36,7.49,3.37,3.37,0,0,0,1,2.05,39.74,39.74,0,0,0,7.7,4.54,7.09,7.09,0,0,1,2.83,1.93,14.49,14.49,0,0,1,2.25,3.68,45.45,45.45,0,0,1,1.93,9q1.29,9.11,2.36,18.23c.22,2.1.42,4.21.57,6.32a18.18,18.18,0,0,0,.57,3.1,62.66,62.66,0,0,1,1.43,8.06l1.08,2.38q1.08,2.58,2.07,5.2a5.93,5.93,0,0,1,.21,1.19,9.43,9.43,0,0,1-.14,1.76c0,.07,0,.14,0,.21l-.6,2.27a43.83,43.83,0,0,0,1.06,4.39,2,2,0,0,0,.9,1.21,44,44,0,0,0,7.92,2.78,11.11,11.11,0,0,0,3.4-.29,6.35,6.35,0,0,0,.86-1.8,1.7,1.7,0,0,0-.45-1.25l-1.14-.71a5.22,5.22,0,0,1-2.14-3,4.18,4.18,0,0,1,0-2.75c.16-.62.32-1.24.46-1.87a1.59,1.59,0,0,0,0-.81,1.69,1.69,0,0,0-.19-.38l0,0a3.9,3.9,0,0,1-.46-1.12,7.49,7.49,0,0,1,.67-4.88,6.05,6.05,0,0,1,2.86-3.2,11.16,11.16,0,0,1,8.77-1.05,9.11,9.11,0,0,1,3.79,1.77,3,3,0,0,1,.57.61,9,9,0,0,1,1.5,4.69,22.6,22.6,0,0,1-1.11,6.15,36,36,0,0,1-4,7.34c-.17.22-.35.43-.52.64a1.21,1.21,0,0,0-.21.9c.06.57.14,1.14.25,1.7a.74.74,0,0,0,.26.49.39.39,0,0,0,.1.08l.36.35a23.43,23.43,0,0,1,3.87,6,21,21,0,0,1,1.82,4.54q3.24,9.66,6.37,19.36a11.5,11.5,0,0,1,.49,1.14,11.68,11.68,0,0,1,.63,1.61c.11.64.2,1.29.28,1.94a.87.87,0,0,1-.07.39,2.09,2.09,0,0,1-1,1,2.94,2.94,0,0,1-1.83-.05,2.81,2.81,0,0,1-1-.68,1.36,1.36,0,0,1-.33-.52,10,10,0,0,1-.44-1.77,11,11,0,0,1,0-1.9l-2.58-4.69-3.94-7.24a56.32,56.32,0,0,0,1.78,16,21.76,21.76,0,0,1-4.11,2.83l.85,9.25.74,7.94a1.68,1.68,0,0,1,.65-.26,1.86,1.86,0,0,1,2.09,1.1,1.13,1.13,0,0,1,.06.52.11.11,0,0,1,0,.08,31.51,31.51,0,0,1-2.81,4,2.38,2.38,0,0,1-1,.8A4.65,4.65,0,0,1,163,188a1,1,0,0,1-.6-.13.41.41,0,0,1-.14-.2l-6.59-21.16a18.29,18.29,0,0,1-3.14.12l-1.62,22.6a3.34,3.34,0,0,1-1.29,2.24l-.08.06a2.2,2.2,0,0,1-.94.47,7.31,7.31,0,0,1-1.81,0,4.88,4.88,0,0,1-1-.32q-1.9-1.36-3.85-2.68a1.36,1.36,0,0,1-.32-1.57,2.47,2.47,0,0,1,1.47-1.59,2.85,2.85,0,0,1,1.63.15,1.73,1.73,0,0,1,.77.62.13.13,0,0,0,.13,0,.14.14,0,0,0,.06-.12L142.81,165a25,25,0,0,1-6-3q3.68-8.59,6.54-17.5a37.23,37.23,0,0,0,.91-4c.2-1.13.38-2.25.56-3.38a7.65,7.65,0,0,0-.74-4.26.86.86,0,0,0-.1-.16,27.47,27.47,0,0,0-2.49-3.08c-.83-.9-1.68-1.78-2.54-2.64a11.22,11.22,0,0,1-1.55-2.14c-.31-.63-.6-1.27-.86-1.92a8.1,8.1,0,0,1-.18-1.55c0-1.88.13-3.77.26-5.66q-.74-2.41-1.61-4.8a20.64,20.64,0,0,0,0-2.36,29.36,29.36,0,0,0-2-2.92c-.76-1-1.49-2.07-2.19-3.14a48.06,48.06,0,0,1-3.1-6.67,18.68,18.68,0,0,1-1-3.45,22.83,22.83,0,0,0-.56-4.11c-.65-2.55-1.41-5.06-2.3-7.53L123.56,117l-3.63,1.71,1.2,22-4,26.33a2.53,2.53,0,0,1,3.6.19,3.57,3.57,0,0,1,.39,3.35,9.55,9.55,0,0,1-2,3.28,72.18,72.18,0,0,1-4.89,5.31,9.48,9.48,0,0,1-2.87,2,6.7,6.7,0,0,1-1.83.32,1.16,1.16,0,0,1-.84-.57,9.82,9.82,0,0,1-.94-2,11.58,11.58,0,0,1-.26-2.69c0-1.12,0-2.24,0-3.36q.32-3.94.68-7.88.28-5.73.3-11.48-.12-5-.6-9.92-1.32-11.88-2.61-23.75l-2,.08q-2.27,32.58-4.78,65.15a21.27,21.27,0,0,1-2,5.57,3,3,0,0,1-2.59,1.64,4.46,4.46,0,0,1-4-1.71A38.44,38.44,0,0,1,84,179.25a2.88,2.88,0,0,1,.14-2.1,5.54,5.54,0,0,1,1.47-1.69,2,2,0,0,1,1.55-.4,9.78,9.78,0,0,1,1.55.61l-2.17-58.52L84.14,116l1.06-12.73q1.41-13.2,2.9-26.4c-.68,1.77-1.39,3.52-2.15,5.25-.61,1.53-1.25,3-2,4.53q-2.15,5.15-4,10.4-1.27,4.08-2.5,8.18c-.72,2.43-1.39,4.88-2,7.33a21.5,21.5,0,0,1,.26,3.84,19.76,19.76,0,0,1-.73,4.38,5.65,5.65,0,0,1-.66,1.46A8.13,8.13,0,0,1,72.77,124a1,1,0,0,1-.23.12A2.39,2.39,0,0,1,70.8,124a3.55,3.55,0,0,1-2.4-3.45A17.16,17.16,0,0,1,68.82,117.15Z"/><rect class="a" x="1" y="1" width="243.78" height="204.09"/></svg>