<svg xmlns="http://www.w3.org/2000/svg" viewBox="0 0 347.83 217.43"><defs><style>.a{fill:none;stroke:#000;stroke-linecap:round;stroke-linejoin:round;stroke-width:2px;}</style></defs><title>S13-1 korkortonline.se</title><rect class="a" x="1" y="1" width="345.83" height="215.43"/><path class="a" d="M240.48,168.57a39.27,39.27,0,0,0-30.43,0,39.18,39.18,0,0,1-30.43,0,39.24,39.24,0,0,0-30.42,0,39.18,39.18,0,0,1-30.43,0,39.24,39.24,0,0,0-30.42,0,39.18,39.18,0,0,1-30.43,0,36.05,36.05,0,0,0-35.07,3.07,181.19,181.19,0,0,1-4.83-47H70.68L76,46.11H49.26l.46-6.92H311.44l3.18,74h16.43l-27.31,58.43a31.94,31.94,0,0,0-32.84-3.06A39.15,39.15,0,0,1,240.48,168.57Z"/><path class="a" d="M77.61,124.6h38.91a42.1,42.1,0,0,0,.23-4.63,42.73,42.73,0,0,0-1.46-9.87,12.46,12.46,0,0,1,.2-7.13q-3.08-.78-6.1-1.67A5.07,5.07,0,0,1,106.31,96q3.5-14.75,7.36-29.42a4.71,4.71,0,0,1,4.7-3.35,44.52,44.52,0,0,1,7,2.08l-1.77,7.42a26,26,0,0,1,3.73-2,2.67,2.67,0,0,0,1.42-1.51,20.88,20.88,0,0,0,1.41-5c.09-1.73.21-3.46.37-5.18a7.44,7.44,0,0,1,2.54-4.27,5.28,5.28,0,0,1,1.09-.6,11.36,11.36,0,0,1,5.69-.51,5.84,5.84,0,0,1,5,5,23.86,23.86,0,0,1-.42,5.13c-.15,1-.31,2-.48,3a5.27,5.27,0,0,1-5,4.64,2.44,2.44,0,0,0-1.39.56,2.06,2.06,0,0,0-.55.75c-.23.55-.45,1.11-.67,1.68a2.27,2.27,0,0,0-.25,1.12,28.55,28.55,0,0,0,.22,3.58,8.47,8.47,0,0,0,2.46,5.74,49.41,49.41,0,0,1,3.78-5.63,2,2,0,0,1,2.78-.31,2.86,2.86,0,0,1,1.15,3.17,96,96,0,0,1-4.89,16.7c-.21.54-.41,1.08-.62,1.63a5,5,0,0,1-.67,1.38,2.37,2.37,0,0,1-.75.62,4.83,4.83,0,0,1-3,.4c-.35,1.1-.65,2.22-.9,3.35a12.62,12.62,0,0,0,.44,6.42,38.47,38.47,0,0,0,5,10.37c.33.51.64,1,1,1.56h25.65l5.28-78.49H82.89Z"/><line class="a" x1="222.02" y1="124.6" x2="232.08" y2="124.6"/><path class="a" d="M232.08,124.6q-.57-2.77-1.2-5.53a2.18,2.18,0,0,0-.71-1.57,19.4,19.4,0,0,1-2.92-3.66q-1.2-2.45-2.62-4.76-2.53-4.5-5.1-9A165.26,165.26,0,0,0,222,124.6"/><path class="a" d="M276.47,46.11H180l-5.28,78.49h16.8q1.89-3.37,3.58-6.84A108,108,0,0,0,200.24,106a26.31,26.31,0,0,0,1.86-10,32.09,32.09,0,0,0-4.69,5.52,5.32,5.32,0,0,0-.65,1.36q-1.57,5.43-3.64,10.69a3.24,3.24,0,0,1-3.09,2,2,2,0,0,1-1.37-.47,4.19,4.19,0,0,1-.76-4.62q1.36-3.9,2.61-7.84c.42-1.23.86-2.45,1.32-3.67a51.19,51.19,0,0,1,4.86-8.9,37.62,37.62,0,0,1,5.41-7.19A11.72,11.72,0,0,1,204.33,81a7.66,7.66,0,0,0,2.76-5.53,45.78,45.78,0,0,1-8.59-2.53l-.07,0-.08-.06,0-.07a.16.16,0,0,1,0-.13l.07-.06a9.45,9.45,0,0,0,2.85-3.15,26.12,26.12,0,0,0,2.79-5.72,9.12,9.12,0,0,1,6.06-6,9.24,9.24,0,0,1,9,3.55,4.22,4.22,0,0,1,.55,3.3,10,10,0,0,0,0,3.69,10.58,10.58,0,0,1-.39,4.61,5.49,5.49,0,0,1-2.57,3.25,3.36,3.36,0,0,0-1.31,1.14,4.73,4.73,0,0,0-.09,3,2.31,2.31,0,0,0,.22.51,26,26,0,0,0,2.71,3.55,44.73,44.73,0,0,1,8.43,15.86c.27.82.57,1.62.91,2.41a56.4,56.4,0,0,0,3,5.44,44.55,44.55,0,0,0,3.08,4,3,3,0,0,1,1,1.91c.28,1,.61,2.08,1,3.1.43,1.27.88,2.53,1.36,3.78,1.19-.64,2.38-1.27,3.57-1.92a2.72,2.72,0,0,0,1-3.41,15.23,15.23,0,0,1-.91-5.71,10.88,10.88,0,0,1,.77-4A4.32,4.32,0,0,1,244,103a8.66,8.66,0,0,1,6,0,5.26,5.26,0,0,1,3.29,3.82,6.82,6.82,0,0,1,.17,2.06,13.09,13.09,0,0,1,0,1.88A11.61,11.61,0,0,1,253,114a2.44,2.44,0,0,1-1.36,1.81l-1.38.66a1.62,1.62,0,0,0-.74,2.05,5.47,5.47,0,0,0,1.56,2,36.55,36.55,0,0,1,4.14,4h15.3Z"/><polygon class="a" points="304.81 46.11 307.71 113.5 278.29 113.5 283.41 46.11 304.81 46.11"/></svg>