<svg xmlns="http://www.w3.org/2000/svg" viewBox="0 0 245.78 149.4"><defs><style>.a{fill:none;stroke:#000;stroke-linecap:round;stroke-linejoin:round;stroke-width:2px;}</style></defs><title>S2-1 korkortonline.se</title><rect class="a" x="1" y="1" width="243.78" height="147.4"/><path class="a" d="M1,67.23H11.66V83.91H1v49.24a15.62,15.62,0,0,0,10.13-6.76,15.62,15.62,0,0,0,2.2-12H72.71a15.64,15.64,0,1,0,30.53,0H111a15.64,15.64,0,1,0,30.53,0h56.74a15.64,15.64,0,1,0,30.53,0h16V33.86H191.87a4.9,4.9,0,0,0-4.89,4.9v63.38h-30.2V39.07a5.22,5.22,0,0,0-5.21-5.21H31.16A5.21,5.21,0,0,0,26,39.09V78.7H20.48V61a4.18,4.18,0,0,0-4.17-4.17H1Z"/></svg>