<svg xmlns="http://www.w3.org/2000/svg" viewBox="0 0 245.78 149.4"><defs><style>.a{fill:none;stroke:#000;stroke-linecap:round;stroke-linejoin:round;stroke-width:2px;}</style></defs><title>S3-1 korkortonline.se</title><rect class="a" x="1" y="1" width="243.78" height="147.4"/><path class="a" d="M154.05,45.59A9.85,9.85,0,0,1,162.27,50l4.94,7.46a2.84,2.84,0,0,1-2.36,4.4H137.42V45.59Z"/><path class="a" d="M231.19,71.53V93.36a9.75,9.75,0,0,1-9.75,9.75H198a16.33,16.33,0,1,1-32.47,0H71.48a16.33,16.33,0,1,1-32.47,0H23.35L16.24,79.84a12.08,12.08,0,0,1,9.87-15.5l56.08-7.88,22.09-16.64a24.33,24.33,0,0,1,14.64-4.9h34.14A24.35,24.35,0,0,1,170.27,42l14.47,14.48,38.06,5.35A9.75,9.75,0,0,1,231.19,71.53Z"/><line class="a" x1="128.77" y1="45.59" x2="115.91" y2="45.59"/><line class="a" x1="128.77" y1="61.87" x2="128.77" y2="45.59"/><line class="a" x1="90.32" y1="61.87" x2="107.65" y2="61.87"/><line class="a" x1="108.75" y1="47.99" x2="90.32" y2="61.87"/><line class="a" x1="107.65" y1="61.87" x2="128.77" y2="61.87"/><path class="a" d="M115.91,45.59a11.87,11.87,0,0,0-7.16,2.4"/></svg>