<svg xmlns="http://www.w3.org/2000/svg" viewBox="0 0 245.78 149.4"><defs><style>.a{fill:none;stroke:#000;stroke-linecap:round;stroke-linejoin:round;stroke-width:2px;}</style></defs><title>S4-1 korkortonline.se</title><rect class="a" x="1" y="1" width="243.78" height="147.4"/><path class="a" d="M32.75,113.89A14.74,14.74,0,1,0,18,128.63,14.74,14.74,0,0,0,32.75,113.89Z"/><path class="a" d="M22.92,113.89A4.92,4.92,0,1,0,18,118.8,4.91,4.91,0,0,0,22.92,113.89Z"/><path class="a" d="M170.94,113.93a5.39,5.39,0,1,0-5.39,5.39A5.38,5.38,0,0,0,170.94,113.93Z"/><circle class="a" cx="165.55" cy="113.93" r="14.74"/><path class="a" d="M176.45,98l7.94,15.87H239V93.48l-11.57-32.6a5.66,5.66,0,0,0-5.34-3.78H105.63a5.68,5.68,0,0,0-5.35,3.78L88.72,93.48v15.27h-23a35.92,35.92,0,0,0-.83-25.4c0-.1-.09-.2-.14-.29a3.37,3.37,0,0,0-.19-.32,7.44,7.44,0,0,0-5.86-3.38l-29.25-2.2a112.47,112.47,0,0,0-12.4-15A24.29,24.29,0,0,0,1,55.71V67.1h.4a14.8,14.8,0,0,1,8.89,3.37c1.73,2,3.53,4,5.38,6H1v35.87a17.08,17.08,0,0,1,34.09,1.56H146.71L154.65,98Z"/></svg>