<svg xmlns="http://www.w3.org/2000/svg" viewBox="0 0 414.26 340.16"><defs><style>.a{fill:#0c479d;}.b{fill:#fff;}.c{fill:#000;}.d{fill:#ffce00;}.e{fill:#dc0032;}</style></defs><title>SIG2-1 korkortonline.se</title><rect class="a" x="334.89" y="63.66" width="79.37" height="49.72"/><path class="b" d="M382,99.23l2.45-.16a13.05,13.05,0,0,0,26-.9l.57,0a13.62,13.62,0,0,0-19.69-13.06l-3.72-6.45,1.38-3.1,3.78-1.72a1.27,1.27,0,0,0-.52-2.43q-4.69-.15-9.39-.14a.92.92,0,0,0-.46,1.74q2.46,1.35,5,2.48l-1.36,3H362.39l1.76-4.36a2.9,2.9,0,0,1,3.2-4.3h0l2.55.65.71.18.35-1.41-.7-.18-2.56-.65h0a4.34,4.34,0,0,0-5.13,5.75L358,85.71a13.54,13.54,0,0,0-6.89-2v.57A13,13,0,1,0,361.41,105l.46.34a13.61,13.61,0,0,0-2.7-18.83l.8-2L374.28,97a4,4,0,0,0,.33,4.11,4.09,4.09,0,0,0,3.76,1.69l.85,2.78h-.89v1.45H382v-1.45h-1.29l-1-3.2A4,4,0,0,0,382,99.23Z"/><rect class="c" width="119.05" height="340.16"/><rect class="c" x="167.44" width="119.05" height="340.16"/><rect class="c" x="334.89" y="113.39" width="79.37" height="226.77"/><circle class="b" cx="59.53" cy="280.63" r="42.52" transform="translate(-7.11 1.6) rotate(-1.46)"/><circle class="b" cx="226.97" cy="280.63" r="42.52" transform="translate(-18.33 15.87) rotate(-3.85)"/><path class="b" d="M402.92,300.47a28.35,28.35,0,1,0-28.35,28.35A28.34,28.34,0,0,0,402.92,300.47Z"/><path class="d" d="M102.05,170.08A42.52,42.52,0,1,0,59.53,212.6,42.52,42.52,0,0,0,102.05,170.08Z"/><path class="d" d="M269.49,170.08A42.52,42.52,0,1,0,227,212.6,42.52,42.52,0,0,0,269.49,170.08Z"/><path class="d" d="M402.92,226.77a28.35,28.35,0,1,0-28.35,28.35A28.35,28.35,0,0,0,402.92,226.77Z"/><polygon class="c" points="68.03 131.81 68.03 157.32 97.8 157.32 97.8 182.84 68.03 182.84 68.03 208.35 19.56 170.08 68.03 131.81"/><circle class="e" cx="59.53" cy="59.53" r="42.52" transform="translate(-16.2 96.3) rotate(-70.9)"/><circle class="c" cx="59.53" cy="280.63" r="37.76" transform="translate(-225.37 314.24) rotate(-84.75)"/><circle class="c" cx="226.97" cy="280.63" r="37.76" transform="translate(-59.79 499.81) rotate(-88.43)"/><circle class="e" cx="226.97" cy="59.53" r="42.52" transform="translate(111.18 263.62) rotate(-75.13)"/><polygon class="c" points="68.03 21.26 68.03 46.77 97.8 46.77 97.8 72.28 68.03 72.28 68.03 97.8 19.56 59.53 68.03 21.26"/><polygon class="e" points="59.53 41.67 59.53 55.27 86.31 55.27 86.31 63.78 59.53 63.78 59.53 77.39 37.42 59.53 59.53 41.67"/><polygon class="d" points="59.53 152.22 59.53 165.83 86.31 165.83 86.31 174.33 59.53 174.33 59.53 187.94 37.42 170.08 59.53 152.22"/><path class="e" d="M402.92,153.07a28.35,28.35,0,1,0-28.35,28.35A28.35,28.35,0,0,0,402.92,153.07Z"/><path class="c" d="M399.74,300.47a25.17,25.17,0,1,0-25.17,25.17A25.17,25.17,0,0,0,399.74,300.47Z"/><path class="a" d="M355.77,95a5.09,5.09,0,0,1-4.9,3.14.73.73,0,0,1-.62-1.09.73.73,0,0,1,.63-.36,3.61,3.61,0,0,0,3.46-2l2.58-6.4a10.94,10.94,0,1,0,1.19.92L355.77,95Z"/><path class="a" d="M397.39,95.79a1.56,1.56,0,0,1,.61,3,1.58,1.58,0,0,1-1.89-.46l-9.57.63a10.92,10.92,0,1,0,6.07-11.42Z"/><path class="a" d="M396.09,96.43l-4.74-8.21a10.92,10.92,0,0,0-4.92,9.26l9.44-.62Z"/><path class="a" d="M386.8,80.35,390,85.88A13.65,13.65,0,0,0,383.93,95a14.28,14.28,0,0,0-.2,2.69l-1.87.12a4.1,4.1,0,0,0-1.75-2.41l6.53-14.66Z"/><path class="a" d="M377.75,92.13V90.68h-3.69v1.45h1L376,95.2a4.09,4.09,0,0,0-.91.65L360.54,83.17,361.81,80h23.55l-6.59,14.8a3.78,3.78,0,0,0-1.34-.06l-.81-2.64Z"/></svg>