<svg xmlns="http://www.w3.org/2000/svg" viewBox="0 0 119.05 229.61"><defs><style>.a{fill:#000;}.b{fill:#fff;}.c{fill:#007a61;}</style></defs><title>SIG7-1 korkortonline.se</title><rect class="a" width="119.05" height="229.61"/><circle class="b" cx="59.53" cy="170.08" r="42.52" transform="translate(-37.48 18.23) rotate(-13.28)"/><circle class="b" cx="59.53" cy="59.53" r="42.52" transform="translate(-9.29 11.03) rotate(-9.83)"/><circle class="a" cx="59.53" cy="170.08" r="37.76" transform="translate(-41.16 20.64) rotate(-14.68)"/><circle class="a" cx="59.53" cy="59.53" r="37.76" transform="translate(-7.23 8.24) rotate(-7.47)"/><path class="c" d="M56.52,139.2v.1a3.39,3.39,0,0,1-.05.84,32.88,32.88,0,0,0-.23,3.85,1,1,0,0,0,.8,1.14,6.56,6.56,0,0,0,1.32.13v2.34l-4.89,1.7-4.68,8.29-8.92,4.68-2.13,1.49A1.36,1.36,0,0,0,39,166.1h0L41.14,165l10.63-4,2.77-4.47L56.66,171,43.05,196.5l-3-.64L39,196.92l7.23,4,15.52-23.59,11.06,21L70.48,201l.42,1.49,7.66-3.82L66.23,169.29l1.06-13.61,5.95,4.25,2,10.21a1.53,1.53,0,0,0,1.59.85,1.51,1.51,0,0,0,1.26-1.28l-1.7-11.9L69,149.73l-6.59-1.92c.15-2.28.22-4.57.21-6.85a.85.85,0,0,0,0-.16,3.35,3.35,0,0,0-3.19-3.4,13,13,0,0,0-1.65.07,1.36,1.36,0,0,0-1.23,1.19c0,.18,0,.36,0,.54Z"/></svg>