<svg xmlns="http://www.w3.org/2000/svg" viewBox="0 0 666.46 846.18"><defs><style>.a{fill:none;stroke:#000;stroke-linecap:round;stroke-linejoin:round;stroke-width:5px;}</style></defs><title>T1-1 korkortonline.se</title><rect class="a" x="2.5" y="2.5" width="661.46" height="388.75"/><rect class="a" x="2.5" y="2.5" width="661.46" height="388.75" rx="37.13"/><rect class="a" x="21.07" y="21.07" width="624.33" height="351.62" rx="18.57"/><path class="a" d="M160.49,176.57V155.68H102.85A35.55,35.55,0,0,1,114,144.37L142.71,128a37.45,37.45,0,0,0,15.64-18.36,40.12,40.12,0,0,0,0-25.84A37.15,37.15,0,0,0,135.91,62a63.74,63.74,0,0,0-35.41.68A35.28,35.28,0,0,0,76.7,97.38H97.59a15.08,15.08,0,0,1,10.33-15.14,39.32,39.32,0,0,1,21.93,0,14.57,14.57,0,0,1,9,9,15.72,15.72,0,0,1,0,11,15.15,15.15,0,0,1-6.2,7.58l-28.67,16.38a55.92,55.92,0,0,0-27.24,50.4Z"/><path class="a" d="M233.43,177.9a46.25,46.25,0,0,0,34.1-15,68.22,68.22,0,0,0,0-88.69,46.24,46.24,0,0,0-68.2,0,68.22,68.22,0,0,0,0,88.69A46.25,46.25,0,0,0,233.43,177.9Z"/><path class="a" d="M233.43,157a25.33,25.33,0,0,0,18.47-8,47.32,47.32,0,0,0,0-61,25.34,25.34,0,0,0-36.94,0,47.32,47.32,0,0,0,0,61A25.35,25.35,0,0,0,233.43,157Z"/><path class="a" d="M354.12,177.9a46.25,46.25,0,0,0,34.1-15,68.22,68.22,0,0,0,0-88.69,46.24,46.24,0,0,0-68.2,0,68.22,68.22,0,0,0,0,88.69A46.25,46.25,0,0,0,354.12,177.9Z"/><path class="a" d="M354.12,157a25.35,25.35,0,0,0,18.47-8,47.32,47.32,0,0,0,0-61,25.34,25.34,0,0,0-36.94,0,47.32,47.32,0,0,0,0,61A25.33,25.33,0,0,0,354.12,157Z"/><rect class="a" x="478.29" y="120.87" width="74.27" height="20.89"/><path class="a" d="M109.2,281.54h16.38a15.55,15.55,0,0,1,4.83.69,16.1,16.1,0,0,1,8.28,6.21,14.53,14.53,0,0,1,.69,14.52,22.08,22.08,0,0,1-14.45,9.64,40.31,40.31,0,0,1-15.09,0A22.08,22.08,0,0,1,95.39,303a14.53,14.53,0,0,1,.69-14.52,16.1,16.1,0,0,1,8.28-6.21A14.19,14.19,0,0,1,109.2,281.54Z"/><path class="a" d="M84.66,270a30.75,30.75,0,0,1-6.75-18.2,32.46,32.46,0,0,1,18-30.77,50.29,50.29,0,0,1,43,0,32.46,32.46,0,0,1,18,30.77,30.75,30.75,0,0,1-6.75,18.2,36.74,36.74,0,0,1,6,6.89,35.41,35.41,0,0,1,1.31,36.63,43,43,0,0,1-28.61,19.6,61.28,61.28,0,0,1-22.83,0,43,43,0,0,1-28.61-19.6,35.41,35.41,0,0,1,1.31-36.63A36.74,36.74,0,0,1,84.66,270Z"/><path class="a" d="M117.39,237.1A29.35,29.35,0,0,0,105,239.83a11.58,11.58,0,0,0-6.24,11.08,9.9,9.9,0,0,0,9.9,9.74h17.41a9.9,9.9,0,0,0,9.9-9.74,11.58,11.58,0,0,0-6.24-11.08A29.34,29.34,0,0,0,117.39,237.1Z"/><path class="a" d="M231.11,334.56a46.25,46.25,0,0,0,34.1-15,68.22,68.22,0,0,0,0-88.69,46.24,46.24,0,0,0-68.2,0,68.22,68.22,0,0,0,0,88.69A46.25,46.25,0,0,0,231.11,334.56Z"/><path class="a" d="M231.11,313.67a25.37,25.37,0,0,0,18.47-8,47.33,47.33,0,0,0,0-61,25.34,25.34,0,0,0-36.94,0,47.33,47.33,0,0,0,0,61A25.37,25.37,0,0,0,231.11,313.67Z"/><path class="a" d="M351.8,334.56a46.25,46.25,0,0,0,34.1-15,68.22,68.22,0,0,0,0-88.69,46.25,46.25,0,0,0-68.21,0,68.25,68.25,0,0,0,0,88.69A46.29,46.29,0,0,0,351.8,334.56Z"/><path class="a" d="M351.8,313.67a25.37,25.37,0,0,0,18.47-8,47.33,47.33,0,0,0,0-61,25.34,25.34,0,0,0-36.94,0,47.33,47.33,0,0,0,0,61A25.36,25.36,0,0,0,351.8,313.67Z"/><path class="a" d="M500.34,333.23V280.68a11.61,11.61,0,1,1,23.21,0v52.55h20.88V280.68a11.61,11.61,0,1,1,23.21,0v52.55h20.89V274.52A27.42,27.42,0,0,0,539,258.46,28.9,28.9,0,0,0,500.34,252v-3.48H479.45v84.71Z"/><rect class="a" x="3.69" y="454.93" width="631.29" height="388.75"/><rect class="a" x="3.69" y="454.93" width="631.29" height="388.75" rx="37.13"/><rect class="a" x="22.26" y="473.49" width="594.15" height="351.62" rx="18.57"/><path class="a" d="M125.54,630.33a46.25,46.25,0,0,0,34.1-15,68.22,68.22,0,0,0,0-88.69,46.24,46.24,0,0,0-68.2,0,68.22,68.22,0,0,0,0,88.69A46.25,46.25,0,0,0,125.54,630.33Z"/><path class="a" d="M125.54,609.44a25.33,25.33,0,0,0,18.47-8,47.33,47.33,0,0,0,0-61,25.36,25.36,0,0,0-36.94,0,47.33,47.33,0,0,0,0,61A25.35,25.35,0,0,0,125.54,609.44Z"/><polygon class="a" points="93.05 669.61 109.3 669.61 109.3 785.66 88.41 785.66 88.41 702.69 75.64 702.69 75.64 689.7 93.05 669.61"/><rect class="a" x="137.15" y="759.55" width="20.89" height="52.22"/><path class="a" d="M268.44,785.66V764.77H210.81A35.62,35.62,0,0,1,222,753.46l28.68-16.39a37.45,37.45,0,0,0,15.64-18.36,40.12,40.12,0,0,0,0-25.84,37.17,37.17,0,0,0-22.44-21.76,63.78,63.78,0,0,0-35.42.68,35.26,35.26,0,0,0-23.79,34.69h20.89a15.09,15.09,0,0,1,10.33-15.15,39.32,39.32,0,0,1,21.93,0,14.6,14.6,0,0,1,9,8.95,15.72,15.72,0,0,1,0,11,15.3,15.3,0,0,1-6.2,7.58l-28.68,16.38a55.91,55.91,0,0,0-27.23,50.4Z"/><polygon class="a" points="369.24 785.66 369.24 760.29 377.79 751.63 401.42 785.66 426.85 785.66 392.73 736.52 427.9 700.95 398.53 700.95 369.24 730.58 369.24 669.61 348.35 669.61 348.35 785.66 369.24 785.66"/><path class="a" d="M471.36,785.66V733.11a11.61,11.61,0,1,1,23.21,0v52.55h20.89V733.11a11.61,11.61,0,1,1,23.21,0v52.55h20.88V727A27.41,27.41,0,0,0,510,710.88a28.91,28.91,0,0,0-38.63-6.45v-3.49H450.47v84.72Z"/><rect class="a" x="245.07" y="573.29" width="74.27" height="20.89"/></svg>