<svg xmlns="http://www.w3.org/2000/svg" viewBox="0 0 846.18 846.18"><defs><style>.a{fill:none;stroke:#000;stroke-linecap:round;stroke-linejoin:round;stroke-width:5px;}</style></defs><title>T12-1 korkortonline.se</title><rect class="a" x="2.5" y="2.5" width="841.18" height="841.18"/><path class="a" d="M69.79,2.5h706.6a67.29,67.29,0,0,1,67.29,67.29v706.6a67.29,67.29,0,0,1-67.29,67.29H69.79A67.29,67.29,0,0,1,2.5,776.39V69.79A67.29,67.29,0,0,1,69.79,2.5Z"/><path class="a" d="M69.79,36.15h706.6A33.64,33.64,0,0,1,810,69.79v706.6A33.63,33.63,0,0,1,776.39,810H69.79a33.64,33.64,0,0,1-33.64-33.64V69.79A33.64,33.64,0,0,1,69.79,36.15Z"/><polygon class="a" points="454.64 107.65 454.64 307.43 128.68 307.43 128.68 738.53 254.85 738.53 254.85 433.61 454.64 433.61 454.64 633.39 717.5 370.52 454.64 107.65"/></svg>