<svg xmlns="http://www.w3.org/2000/svg" viewBox="0 0 754.19 360.98"><defs><style>.a,.c{fill:#dc0032;}.a{stroke:#dc0032;}.b{fill:#fff;}</style></defs><title>T14-1 korkortonline.se</title><rect class="a" x="0.5" y="0.5" width="753.19" height="359.98"/><path class="b" d="M.5,28.84v303.3a28.34,28.34,0,0,0,28.34,28.34H725.35a28.34,28.34,0,0,0,28.34-28.34V28.84A28.34,28.34,0,0,0,725.35.5H28.84A28.34,28.34,0,0,0,.5,28.84Z"/><path class="c" d="M14.67,28.84v303.3a14.17,14.17,0,0,0,14.17,14.17H725.35a14.19,14.19,0,0,0,14.18-14.17V28.84a14.19,14.19,0,0,0-14.18-14.17H28.84A14.17,14.17,0,0,0,14.67,28.84Z"/><path class="b" d="M203.22,269.21a37.74,37.74,0,0,0,16.44,6.24,30.28,30.28,0,0,0,11.34-.57,5.81,5.81,0,0,0,3.4-2.26,4,4,0,0,0-2.27-6.24l-23.81-5.67a19.32,19.32,0,0,1-1.7-36.28,40.82,40.82,0,0,1,12.47-2.84,50.21,50.21,0,0,1,34,9.07l-9.64,14.18a37.93,37.93,0,0,0-23.81-5.67,13.76,13.76,0,0,0-5.1,1.13,3.44,3.44,0,0,0,.56,6.24c.56.21,1.13.4,1.71.56l22.11,5.11a20,20,0,0,1,9.63,32.88,26,26,0,0,1-15.87,7.37,75.09,75.09,0,0,1-18.71,0A42,42,0,0,1,193.58,284Z"/><path class="b" d="M275.12,239.73v40.82A11.41,11.41,0,0,0,287,292.46H299.5V274.88h-2.83a3.72,3.72,0,0,1-4-4V239.73h8.79V222.16H292.7V196.08l-17.58,8.5v17.58H268v17.57Z"/><path class="b" d="M369.94,225a34.18,34.18,0,0,0-34,0,35.89,35.89,0,0,0-16.44,20.41,49.93,49.93,0,0,0,.56,23.25,35.41,35.41,0,0,0,15.88,20.41,34.18,34.18,0,0,0,34,0,35.41,35.41,0,0,0,15.88-20.41,49.93,49.93,0,0,0,.56-23.25A35.89,35.89,0,0,0,369.94,225Z"/><path class="b" d="M469.72,275.45A32.6,32.6,0,0,1,449.88,293a29.25,29.25,0,0,1-13.61,0,28.51,28.51,0,0,1-11.34-5.11v30.62H407.36V222.16h17.57v5.1a25,25,0,0,1,11.34-5.1,29.71,29.71,0,0,1,16.44,1.13,33.76,33.76,0,0,1,17,16.44A51,51,0,0,1,469.72,275.45Z"/><path class="b" d="M555.89,275.45A32.57,32.57,0,0,1,536.05,293a29.25,29.25,0,0,1-13.61,0,28.51,28.51,0,0,1-11.34-5.11v30.62H493.53V222.16H511.1v5.1a25,25,0,0,1,11.34-5.1,29.71,29.71,0,0,1,16.44,1.13,33.76,33.76,0,0,1,17,16.44A51,51,0,0,1,555.89,275.45Z"/><polygon class="b" points="57.18 45.85 109.91 45.85 109.91 63.42 74.76 63.42 74.76 82.7 104.24 82.7 104.24 100.27 74.76 100.27 74.76 142.22 57.18 142.22 57.18 85.53 57.18 45.85"/><polygon class="b" points="127.48 142.22 145.06 142.22 145.06 85.53 145.06 45.85 127.48 45.85 127.48 85.53 127.48 142.22"/><path class="b" d="M163.76,107.3a36.32,36.32,0,0,0,14.74,30.05,32.34,32.34,0,0,0,19.84,6.24,41,41,0,0,0,25.85-8.51L214,120.91a22.34,22.34,0,0,1-19,5.1,17.18,17.18,0,0,1-13-14.74h49.33v-5.62a36.35,36.35,0,0,0-14.74-28.4,32,32,0,0,0-38,0A36.32,36.32,0,0,0,163.76,107.3Z"/><path class="b" d="M251.07,142.22h17.57V107.07a21.17,21.17,0,0,1,10.2-15.3,18.17,18.17,0,0,1,10.21-2.84,14.51,14.51,0,0,1,6.24,1.14V71.92A37.2,37.2,0,0,0,268.64,77V71.92H251.07Z"/><polygon class="b" points="376.07 71.92 357.35 71.92 340.92 116.7 324.49 71.92 305.77 71.92 331.57 142.22 340.92 142.22 350.27 142.22 376.07 71.92"/><path class="b" d="M457.42,71.92H439.85V77a25.12,25.12,0,0,0-11.34-5.11,29.62,29.62,0,0,0-16.44,1.14,33.72,33.72,0,0,0-17,16.44,51,51,0,0,0,0,35.72,32.61,32.61,0,0,0,19.84,17.57,29.25,29.25,0,0,0,13.61,0,28.63,28.63,0,0,0,11.34-5.1v4.53h17.57Z"/><path class="b" d="M444.38,42.73A10.49,10.49,0,1,1,433.9,53.22,10.48,10.48,0,0,1,444.38,42.73Z"/><path class="b" d="M407,42.73a10.49,10.49,0,1,1-10.49,10.49A10.49,10.49,0,0,1,407,42.73Z"/><path class="b" d="M524.32,143.36V136a23.11,23.11,0,0,1-10.21,4.53,26.89,26.89,0,0,1-13,0A32.59,32.59,0,0,1,481.23,123a44.88,44.88,0,0,1,0-33.45,33.72,33.72,0,0,1,17-16.44,27.73,27.73,0,0,1,15.87-1.14A21.15,21.15,0,0,1,524.32,77V71.92h17.57v71.44a21.77,21.77,0,0,1-13.6,21.54,63,63,0,0,1-47.06-1.13L488.6,149a43.2,43.2,0,0,0,21,4.53,25,25,0,0,0,8.5-1.7A10.3,10.3,0,0,0,524.32,143.36Z"/><path class="b" d="M570.62,119a37.82,37.82,0,0,0,16.44,6.24,30.49,30.49,0,0,0,11.34-.57,5.83,5.83,0,0,0,3.4-2.27,4,4,0,0,0-2.27-6.24l-23.81-5.66A19.33,19.33,0,0,1,574,74.19a40.81,40.81,0,0,1,12.47-2.83,50.24,50.24,0,0,1,34,9.07L610.87,94.6a38.09,38.09,0,0,0-23.81-5.67,14,14,0,0,0-5.1,1.14,3.43,3.43,0,0,0,.56,6.23,17.85,17.85,0,0,0,1.7.57l22.11,5.1A20,20,0,0,1,616,134.85a26,26,0,0,1-15.87,7.37,74.15,74.15,0,0,1-18.71,0,42,42,0,0,1-20.41-8.5Z"/><path class="c" d="M212.52,99.93a15.22,15.22,0,0,0-30.05,0Z"/><path class="c" d="M439.85,115a16.07,16.07,0,0,1-11.91,11.34,12.42,12.42,0,0,1-10.2-2.27,20.5,20.5,0,0,1-7.37-13,27.72,27.72,0,0,1,0-7.93,20.5,20.5,0,0,1,7.37-13,12.42,12.42,0,0,1,10.2-2.27,16.06,16.06,0,0,1,11.91,11.34Z"/><path class="c" d="M524.32,115.58a14,14,0,0,1-10.77,10.77,12.44,12.44,0,0,1-10.21-2.27,19.78,19.78,0,0,1-6.8-13,14.24,14.24,0,0,1,0-5.67,19.81,19.81,0,0,1,6.8-13,12.43,12.43,0,0,1,10.21-2.26,14.63,14.63,0,0,1,10.77,11.33Z"/><polyline class="b" points="699.85 115.01 699.85 97.44 638.05 97.44 638.05 115.01 699.85 115.01"/><path class="c" d="M352.93,276a13.48,13.48,0,0,0,7.94-2.27,19.38,19.38,0,0,0,7.94-9.64,23,23,0,0,0,0-14.17,19.38,19.38,0,0,0-7.94-9.64,15,15,0,0,0-15.87,0,19.38,19.38,0,0,0-7.94,9.64,23,23,0,0,0,0,14.17,19.38,19.38,0,0,0,7.94,9.64A13.47,13.47,0,0,0,352.93,276Z"/><path class="c" d="M424.93,265.25a16.06,16.06,0,0,0,11.91,11.33,12.41,12.41,0,0,0,10.2-2.26,20.52,20.52,0,0,0,7.37-13,27.79,27.79,0,0,0,0-7.94,20.5,20.5,0,0,0-7.37-13,12.42,12.42,0,0,0-10.2-2.27,16.07,16.07,0,0,0-11.91,11.34Z"/><path class="c" d="M511.1,265.25A16.06,16.06,0,0,0,523,276.58a12.41,12.41,0,0,0,10.2-2.26,20.48,20.48,0,0,0,7.37-13,27.79,27.79,0,0,0,0-7.94,20.45,20.45,0,0,0-7.37-13A12.42,12.42,0,0,0,523,238a16.07,16.07,0,0,0-11.91,11.34Z"/></svg>