<svg xmlns="http://www.w3.org/2000/svg" viewBox="0 0 1191.2 596.1"><defs><style>.a,.c{fill:#0c479d;}.a{stroke:#0c479d;stroke-linecap:round;stroke-linejoin:round;}.b{fill:#fff;}</style></defs><title>T18-1 korkortonline.se</title><rect class="a" x="0.5" y="0.5" width="1190.2" height="595.1"/><rect class="b" x="0.5" y="0.5" width="1190.2" height="595.1" rx="71.41"/><rect class="c" x="36.21" y="36.21" width="1118.78" height="523.69" rx="35.71"/><path class="b" d="M262.37,364.21A63.57,63.57,0,0,1,282,344.61l51.46-29.41a67.53,67.53,0,0,0,28.18-33.08,72.35,72.35,0,0,0,0-46.56,67,67,0,0,0-40.44-39.2,114.65,114.65,0,0,0-63.71,1.22,63.57,63.57,0,0,0-42.88,62.49h38a26.85,26.85,0,0,1,18.38-27,70.64,70.64,0,0,1,39.21,0A25.94,25.94,0,0,1,326.08,249a27.9,27.9,0,0,1,0,19.6,27,27,0,0,1-11,13.48L263.6,311.53a100.6,100.6,0,0,0-49,90.66h150.7v-38Z"/><path class="b" d="M550.05,288.25v88.21a24.63,24.63,0,0,0,23.5,25.73c.74,0,1.49,0,2.23,0h27v-38h-6.12a7.36,7.36,0,0,1-1.15,0,8,8,0,0,1-7.43-8.58V288.25h19v-38H588V193.91l-38,18.37v38H534.73v38Z"/><path class="b" d="M664.81,211.06A23.89,23.89,0,1,1,688.7,235,23.89,23.89,0,0,1,664.81,211.06Z"/><rect class="b" x="669.71" y="250.27" width="37.98" height="151.93"/><path class="b" d="M776.29,402.19h38V307.87c0-.42,0-.83,0-1.25a20.84,20.84,0,0,1,41.66,1.25v94.32h38V307.87c0-.42,0-.83,0-1.25a20.83,20.83,0,0,1,41.65,1.25v94.32h38V296.82a49.21,49.21,0,0,0-89.44-28.18,51.91,51.91,0,0,0-69.84-12.25v-6.12h-38Z"/></svg>