<svg xmlns="http://www.w3.org/2000/svg" viewBox="0 0 1190.84 595.92"><defs><style>.a,.c{fill:#0c479d;}.a{stroke:#0c479d;stroke-linecap:round;stroke-linejoin:round;}.b{fill:#fff;}</style></defs><title>T19-1 korkortonline.se</title><rect class="a" x="0.5" y="0.5" width="1189.84" height="594.92"/><rect class="b" x="0.5" y="0.5" width="1189.84" height="594.92" rx="71.39"/><rect class="c" x="36.19" y="36.19" width="1118.45" height="523.53" rx="35.7"/><path class="b" d="M148.19,208.72h70.34a51.47,51.47,0,0,1,39.89,84,54.39,54.39,0,0,1-36.74,94.49H148.19V208.72Z"/><path class="c" d="M180.73,279.06h37.8a18.9,18.9,0,1,0,0-37.79h-37.8Z"/><path class="c" d="M221.68,354.65a21.84,21.84,0,0,0,8.4-42,42.9,42.9,0,0,0-9.45-1.05h-39.9v43Z"/><path class="b" d="M401.2,262.27a63.24,63.24,0,0,0-63,0,66.51,66.51,0,0,0-30.45,37.79,92.5,92.5,0,0,0,1.05,43,65.62,65.62,0,0,0,29.4,37.8,63.24,63.24,0,0,0,63,0,65.57,65.57,0,0,0,29.39-37.8,92.24,92.24,0,0,0,1.05-43A66.45,66.45,0,0,0,401.2,262.27Z"/><path class="c" d="M369.7,356.75a24.85,24.85,0,0,0,14.7-4.2,35.93,35.93,0,0,0,14.7-17.84,42.79,42.79,0,0,0,0-26.25,36,36,0,0,0-14.7-17.85,27.82,27.82,0,0,0-29.4,0,35.88,35.88,0,0,0-14.69,17.85,42.65,42.65,0,0,0,0,26.25A35.85,35.85,0,0,0,355,352.55,24.85,24.85,0,0,0,369.7,356.75Z"/><path class="b" d="M463.14,322.53a67.25,67.25,0,0,0,27.29,55.64,59.78,59.78,0,0,0,36.75,11.55A75.71,75.71,0,0,0,575,374l-18.9-26.24a41.37,41.37,0,0,1-35.26,9.44,31.8,31.8,0,0,1-24.15-27.29h91.34V319.47a67.23,67.23,0,0,0-27.3-52.58,59.24,59.24,0,0,0-70.34,0A67.24,67.24,0,0,0,463.14,322.53Z"/><path class="c" d="M553.43,308.88a28.19,28.19,0,0,0-55.65,0Z"/><path class="b" d="M624.81,387.2h32.55V308.46a20.47,20.47,0,1,1,40.94,0V387.2h32.55V301.64a47.16,47.16,0,0,0-73.49-38.32V257H624.81Z"/><path class="b" d="M888.32,257v-48.3H855.77v57.74a46.33,46.33,0,0,0-21-9.44,54.87,54.87,0,0,0-30.45,2.1,62.38,62.38,0,0,0-31.49,30.44,94.25,94.25,0,0,0,0,66.14,60.3,60.3,0,0,0,36.74,32.55,54.2,54.2,0,0,0,25.2,0,52.84,52.84,0,0,0,21-9.45v8.4h32.55Z"/><path class="c" d="M855.77,336.81a29.69,29.69,0,0,1-22,21,23,23,0,0,1-18.9-4.2,38,38,0,0,1-13.65-24.14,52.45,52.45,0,0,1,0-14.7,38,38,0,0,1,13.65-24.15,23,23,0,0,1,18.9-4.2,29.71,29.71,0,0,1,22,21Z"/><path class="b" d="M923,322.53a67.29,67.29,0,0,0,27.3,55.64A59.78,59.78,0,0,0,987,389.72,75.71,75.71,0,0,0,1034.87,374L1016,347.73a41.38,41.38,0,0,1-35.26,9.44,31.78,31.78,0,0,1-24.15-27.29h91.34V319.47a67.25,67.25,0,0,0-27.3-52.58,59.24,59.24,0,0,0-70.34,0A67.27,67.27,0,0,0,923,322.53Z"/><path class="c" d="M1013.25,308.88a28.19,28.19,0,0,0-55.64,0Z"/></svg>