<svg xmlns="http://www.w3.org/2000/svg" viewBox="0 0 1194.84 591.13"><defs><style>.a{fill:none;stroke:#000;stroke-linecap:round;stroke-linejoin:round;stroke-width:5px;}</style></defs><title>T22-1 korkortonline.se</title><rect class="a" x="2.5" y="2.5" width="1189.84" height="586.13"/><rect class="a" x="2.5" y="2.5" width="1189.84" height="586.13" rx="93.78"/><rect class="a" x="49.39" y="49.39" width="1096.06" height="492.35" rx="46.89"/><polygon class="a" points="245.74 442.1 245.74 201.78 179.8 201.78 179.8 149.03 364.44 149.03 364.44 201.78 298.5 201.78 298.5 442.1 245.74 442.1"/><path class="a" d="M556.81,313.85a46.64,46.64,0,0,0-92.2,0Z"/><path class="a" d="M561.06,377.57a68.32,68.32,0,0,1-58.18,15.57A52.56,52.56,0,0,1,463,348H613.28V330.88a110.46,110.46,0,0,0-44.82-86.34,97.31,97.31,0,0,0-115.5,0,110.43,110.43,0,0,0-44.82,91.37A110.41,110.41,0,0,0,453,427.27a98.24,98.24,0,0,0,60.33,19,124.39,124.39,0,0,0,78.6-25.86l-30.83-42.81Z"/><polygon class="a" points="871.41 442.1 797.02 335.13 871.41 228.16 806.32 228.16 764.47 288.33 722.62 228.16 657.53 228.16 731.92 335.13 657.53 442.1 722.62 442.1 764.47 381.93 806.32 442.1 871.41 442.1"/><path class="a" d="M911,228.16h20.52v-53.6L984.27,149v79.13h26.37v52.75H984.27v96.71A11.72,11.72,0,0,0,996,389.35h8.93V442.1H966.68a35.17,35.17,0,0,1-35.16-35.17v-126H911Z"/></svg>