<svg xmlns="http://www.w3.org/2000/svg" viewBox="0 0 522.37 306.15"><defs><style>.a{fill:#ffce00;}.b{fill:#dc0032;}.c{fill:#000;}</style></defs><title>T3-1 korkortonline.se</title><rect class="a" width="522.37" height="306.15"/><path class="b" d="M0,278.57v-251A27.59,27.59,0,0,1,27.58,0H494.79a27.59,27.59,0,0,1,27.58,27.58v251a27.59,27.59,0,0,1-27.58,27.58H27.58A27.59,27.59,0,0,1,0,278.57Z"/><path class="a" d="M13.79,278.57v-251A13.79,13.79,0,0,1,27.58,13.79H494.79a13.78,13.78,0,0,1,13.79,13.79v251a13.79,13.79,0,0,1-13.79,13.79H27.58a13.79,13.79,0,0,1-13.79-13.79Z"/><path class="c" d="M74.43,76.3l25,7.23a29.55,29.55,0,0,1,17.65,13.79,25.33,25.33,0,0,1,0,25.93,27.83,27.83,0,0,1-22.62,14.89,48.06,48.06,0,0,1-43-14.89L64,111.67a30.93,30.93,0,0,0,28.53,9.44,10.72,10.72,0,0,0,9.59-6.22,8.23,8.23,0,0,0,.17-8.94,12.39,12.39,0,0,0-7.56-6L70,92.81A23.39,23.39,0,0,1,57.83,55.89h0A32,32,0,0,1,77.75,44.07a48.67,48.67,0,0,1,40.6,11.09L107.16,68.08a31.64,31.64,0,0,0-26.48-7.17,14.89,14.89,0,0,0-9.38,5.52h0l.06-.07h0l-.06.07a6.28,6.28,0,0,0,3.13,9.87Z"/><polygon class="c" points="172.38 61.23 172.38 88.26 172.38 137.9 155.28 137.9 155.28 88.26 155.28 61.23 134.32 61.23 134.32 44.13 193.34 44.13 193.34 61.23 172.38 61.23"/><path class="c" d="M220.37,55.16a55.17,55.17,0,0,0,0,71.71,37.4,37.4,0,0,0,55.16,0,55.17,55.17,0,0,0,0-71.71,37.42,37.42,0,0,0-55.16,0Z"/><path class="a" d="M233.16,115.52a20.3,20.3,0,0,0,29.57,0,38.05,38.05,0,0,0,0-49,20.32,20.32,0,0,0-29.57,0,38.09,38.09,0,0,0,0,49Z"/><path class="c" d="M324.62,137.9h-17.1V44.13h36.41a27.86,27.86,0,0,1,0,55.71H324.62Z"/><path class="a" d="M324.62,82.74V61.23h19.31a10.76,10.76,0,1,1,0,21.51Z"/><path class="c" d="M405.16,137.9h-17.1V44.13h36.4a27.86,27.86,0,1,1,0,55.71h-19.3Z"/><path class="a" d="M405.16,82.74V61.23h19.3a10.76,10.76,0,1,1,0,21.51Z"/><path class="c" d="M75.29,244.92a28.73,28.73,0,0,1,8.83-8.83l23.17-13.24A30.44,30.44,0,0,0,120,208a32.56,32.56,0,0,0,0-21,30.13,30.13,0,0,0-18.21-17.65,51.61,51.61,0,0,0-28.68.55A28.6,28.6,0,0,0,53.78,198h17.1a12.1,12.1,0,0,1,8.28-12.14,31.9,31.9,0,0,1,17.65,0,11.69,11.69,0,0,1,7.17,7.18,12.63,12.63,0,0,1,0,8.82A12.16,12.16,0,0,1,99,208L75.85,221.2A45.29,45.29,0,0,0,53.78,262h67.85v-17.1Z"/><path class="c" d="M179.38,263.12A37,37,0,0,1,151.8,251a55.17,55.17,0,0,1,0-71.71,37.41,37.41,0,0,1,55.17,0A55.2,55.2,0,0,1,207,251,37,37,0,0,1,179.38,263.12Z"/><path class="a" d="M179.38,246a19.92,19.92,0,0,1-14.78-6.38,38.1,38.1,0,0,1,0-49,20.32,20.32,0,0,1,29.57,0,38.1,38.1,0,0,1,0,49A19.93,19.93,0,0,1,179.38,246Z"/><path class="c" d="M275.92,263.12A37,37,0,0,1,248.34,251a55.17,55.17,0,0,1,0-71.71,37.4,37.4,0,0,1,55.16,0,55.17,55.17,0,0,1,0,71.71A37,37,0,0,1,275.92,263.12Z"/><path class="a" d="M275.92,246a19.93,19.93,0,0,1-14.79-6.38,38.1,38.1,0,0,1,0-49,20.32,20.32,0,0,1,29.57,0,38.07,38.07,0,0,1,0,49A19.92,19.92,0,0,1,275.92,246Z"/><path class="c" d="M378.4,262h17.1V219.55a9.38,9.38,0,1,1,18.76,0V262h17.1V219.55a9.38,9.38,0,1,1,18.75,0V262h17.1V214.58a22.16,22.16,0,0,0-40.27-12.69,23.36,23.36,0,0,0-31.44-5.52v-2.75H378.4Z"/></svg>