<svg xmlns="http://www.w3.org/2000/svg" viewBox="0 0 502.85 187.09"><defs><style>.a{fill:#ffce00;}.b{fill:#dc0032;}.c{fill:#000;}</style></defs><title>T4-1 korkortonline.se</title><rect class="a" width="502.85" height="187.09"/><path class="b" d="M0,158.74V28.35A28.35,28.35,0,0,1,28.35,0H474.5a28.34,28.34,0,0,1,28.35,28.35V158.74a28.35,28.35,0,0,1-28.35,28.35H28.35A28.35,28.35,0,0,1,0,158.74Z"/><path class="a" d="M14.17,158.74V28.35A14.18,14.18,0,0,1,28.35,14.17H474.5a14.19,14.19,0,0,1,14.18,14.18V158.74a14.17,14.17,0,0,1-14.18,14.17H28.35A14.17,14.17,0,0,1,14.17,158.74Z"/><path class="c" d="M102,98.66h15.88a12.74,12.74,0,0,1,11.9,7.37,12.94,12.94,0,0,1,0,10.21,16.82,16.82,0,0,1-11.9,8.5,37.93,37.93,0,0,1-14.17,0,28.32,28.32,0,0,1-13.61-7.94l-13,11.34a41.05,41.05,0,0,0,22.68,13.61,53.16,53.16,0,0,0,21.54,0A37,37,0,0,0,144,125.31a30.66,30.66,0,0,0,2.83-20.41,26,26,0,0,0-8.5-15.31A27.91,27.91,0,0,0,144,70.88a24.7,24.7,0,0,0-10.77-19.27,39.74,39.74,0,0,0-22.11-7.37A45.76,45.76,0,0,0,81.07,55.57L92.41,68.05a28.35,28.35,0,0,1,23.81-6.24,14.53,14.53,0,0,1,9.64,6.8,10.49,10.49,0,0,1,0,7.94,9.34,9.34,0,0,1-9.07,5.67H102Z"/><polyline class="c" points="181.98 164.41 181.98 120.19 164.4 120.19 164.4 164.41 181.98 164.41"/><path class="c" d="M251.17,116.22a14.6,14.6,0,0,0,.57-8.5,13.45,13.45,0,0,0-7.37-9.07,26.53,26.53,0,0,0-13-1.71,27.74,27.74,0,0,0-14.74,6.81l-14.74-7.37,10.77-51h52.73V62.93H226.87l-3.75,17.78a53.58,53.58,0,0,1,7.64-1.34,38.26,38.26,0,0,1,19.85,2.83,31.6,31.6,0,0,1,16.44,42,35.29,35.29,0,0,1-22.68,17.57,46.16,46.16,0,0,1-42-12.47l12.47-11.91a28.77,28.77,0,0,0,25.51,7.37A16.28,16.28,0,0,0,251.17,116.22Z"/><path class="c" d="M332.2,141.73h17.58V98.09a9.64,9.64,0,1,1,19.28,0v43.64h17.57V98.09a9.64,9.64,0,1,1,19.28,0v43.64h17.57V93a22.77,22.77,0,0,0-41.38-13,24,24,0,0,0-32.32-5.67V71.43H332.2Z"/><polygon class="c" points="68.03 93.54 14.17 39.69 14.17 147.4 68.03 93.54"/><polygon class="c" points="434.82 93.54 488.68 39.69 488.68 147.4 434.82 93.54"/></svg>