<svg xmlns="http://www.w3.org/2000/svg" viewBox="0 0 1189.84 563.91"><defs><style>.a{fill:#ffce00;}.b{fill:#dc0032;}.c{fill:#000;}</style></defs><title>T5-1 korkortonline.se</title><rect class="a" width="1189.84" height="563.91"/><path class="b" d="M0,84.59V479.32a84.59,84.59,0,0,0,84.59,84.59H1105.26a84.59,84.59,0,0,0,84.58-84.59V90.22A90.22,90.22,0,0,0,1099.62,0H84.59A84.59,84.59,0,0,0,0,84.59Z"/><rect class="a" x="45.11" y="45.11" width="1099.62" height="473.68" rx="45.11"/><path class="c" d="M341.77,159.27a116.48,116.48,0,0,0-64.68-21.57,134,134,0,0,0-87.9,33.18l34.14,37.55a81.43,81.43,0,0,1,68.43-18A41.05,41.05,0,0,1,319,209.58a29.3,29.3,0,0,1,0,22.12,26,26,0,0,1-23.9,15.8H250.55v50.75H298A36,36,0,0,1,330.61,319a36.65,36.65,0,0,1,0,28.73,48.26,48.26,0,0,1-33.81,24.48,110.36,110.36,0,0,1-41.15.33,83.31,83.31,0,0,1-39.79-22.71l-38.3,33.3A120.12,120.12,0,0,0,243.92,423a155.19,155.19,0,0,0,63,0,108.09,108.09,0,0,0,66.35-48.09,89.68,89.68,0,0,0,8.29-59.71,76.13,76.13,0,0,0-24.88-44.78,81.51,81.51,0,0,0,16.59-54.73A72.18,72.18,0,0,0,341.77,159.27Z"/><rect class="c" x="437.03" y="359.49" width="50.75" height="126.88"/><path class="c" d="M734.5,141v50.75H621.41l-11.16,52.85a160,160,0,0,1,23.08-4.09,111.48,111.48,0,0,1,58,8.29,92.44,92.44,0,0,1,48.1,122.74,103.17,103.17,0,0,1-66.35,51.41A135.09,135.09,0,0,1,550.4,386.44l36.71-35a84,84,0,0,0,74.35,21.47,47.4,47.4,0,0,0,31.29-24.7,42.29,42.29,0,0,0,1.65-24.68A39.12,39.12,0,0,0,673,297.16a77.33,77.33,0,0,0-38-5A80.83,80.83,0,0,0,592.16,312l-43.42-21.71L580.26,141Z"/><path class="c" d="M919.17,217.1H938.9V165.53L989.66,141V217.1H1015v50.76H989.66v93a11.28,11.28,0,0,0,11.27,11.28h8.6v50.75H972.74A33.84,33.84,0,0,1,938.9,389.1V267.86H919.17Z"/></svg>