<svg xmlns="http://www.w3.org/2000/svg" viewBox="0 0 227.58 227.58"><defs><style>.a,.c{fill:#0c479d;}.a{stroke:#0c479d;}.b{fill:#fff;}</style></defs><title>T7-1 korkortonline.se</title><rect class="a" x="0.5" y="0.5" width="226.58" height="226.58"/><path class="b" d="M14.1,227.08H213.49a13.6,13.6,0,0,0,13.59-13.59V14.09A13.6,13.6,0,0,0,213.49.5H14.1A13.6,13.6,0,0,0,.5,14.09v199.4a13.59,13.59,0,0,0,13.6,13.59Z"/><path class="c" d="M14.1,220.28H213.49a6.79,6.79,0,0,0,6.79-6.79V14.09a6.79,6.79,0,0,0-6.79-6.79H14.1a6.79,6.79,0,0,0-6.8,6.79v199.4a6.79,6.79,0,0,0,6.8,6.79Z"/><path class="b" d="M73.44,97.06,75,111.63a43.31,43.31,0,1,0,69.91,40.49l7.85,17.63A56.19,56.19,0,1,1,73.44,97.06Z"/><path class="b" d="M81,129.3h58.26l23.59,53,29.76-15.16-5.72-12.85L169.61,163l-21.28-47.79H93L90.88,95.06h35.8V81H89.41L87.25,60.52A17.26,17.26,0,1,0,72.93,53Z"/></svg>