<svg xmlns="http://www.w3.org/2000/svg" viewBox="0 0 368.5 170.08"><defs><style>.a{fill:#ffce00;}.b{fill:#dc0032;}.c{fill:#000;}</style></defs><title>T9-1 korkortonline.se</title><rect class="a" width="368.5" height="170.08"/><path class="b" d="M28.35,0H340.16A28.34,28.34,0,0,1,368.5,28.35V141.73a28.34,28.34,0,0,1-28.34,28.35H28.35A28.34,28.34,0,0,1,0,141.73V28.35A28.34,28.34,0,0,1,28.35,0Z"/><rect class="a" x="14.17" y="14.17" width="340.16" height="141.73" rx="14.17"/><path class="c" d="M76.54,85a22.68,22.68,0,1,0-22.68,22.68A22.69,22.69,0,0,0,76.54,85Z"/><circle class="c" cx="119.05" cy="85.04" r="22.68"/><circle class="c" cx="184.25" cy="85.04" r="22.68"/><path class="c" d="M272.12,85a22.68,22.68,0,1,0-22.67,22.68A22.68,22.68,0,0,0,272.12,85Z"/><path class="c" d="M337.32,85a22.68,22.68,0,1,0-22.68,22.68A22.68,22.68,0,0,0,337.32,85Z"/></svg>