<svg xmlns="http://www.w3.org/2000/svg" viewBox="0 0 464.32 460.64"><defs><style>.a{fill:#7c868d;}.b{fill:#fff;}.c{fill:none;}.c,.e,.f{stroke:#000;}.c,.e{stroke-linecap:round;stroke-linejoin:round;stroke-width:3px;}.d{fill:#dc0032;}.f{stroke-miterlimit:10;}.g{fill:#539ede;}.h{fill:#fcd925;}.i{fill:#d8432d;}.j{fill:#0076bc;}</style></defs><title>V1-1 korkortonline.se</title><path class="a" d="M390.86,77.84a2.51,2.51,0,0,0,2.48-2.1L399.21,59l4.11.59a16.82,16.82,0,0,0,8.81,5,68.36,68.36,0,0,0,21.73,8.8,29.52,29.52,0,0,1,15.26,13.8,191.3,191.3,0,0,1,14.1,86.57q-3.21,26.37-4.33,52.92l-19.16-.56-.11-26.65-1.14-28.92-1.13-14.74-2.91,30,1.68,11.56,2.16,15.93.57,25.93-1.18,187.53,15,15.55a10.11,10.11,0,0,1-2.35,15.85A32.36,32.36,0,0,1,426,451.41q-10.79-8.57-21.43-17.31l-2.35-79.54-2.94-56.05-1.46-1.17-.88.58-2.06,64.86-1.17,71a8,8,0,0,1-3.53,6.46q-14.37,9.58-29.36,18.19a16.64,16.64,0,0,1-19.08-1.76,3.5,3.5,0,0,1-.59-4.69,148.72,148.72,0,0,1,18.5-21.43L359,371l-9.1-129.72-.83-10.4-.39-13.68.81-21.2,3-11.28,2.44-8.59V165l-15-38.15-1.25-.79h-2l-1.42,1a91.49,91.49,0,0,1-29.41,25,287.58,287.58,0,0,1-32.17,14.78l-17.9,5.79L227,180.46l-7.88-20.67,7.94-2.48,20.12-9.57,24.9-13.4,16.29-9.57,17.24-17.22,10.54-12.44,6.15-11.74A81.46,81.46,0,0,1,354,67.23a42.9,42.9,0,0,0,15.86-7.92,3.05,3.05,0,0,1,3.81,0l6.75,17.61a2.21,2.21,0,0,0,1.77.89L387.7,79Z"/><polygon class="b" points="355.14 159.78 405.6 163.18 437.35 158.3 437.35 123.18 389.16 121.23 340.97 124.07 355.14 159.78"/><polygon points="372.17 133 365.87 152.84 360.5 152.84 354.19 133 357.99 133 363.18 149.34 368.37 133 372.17 133"/><polygon points="385.7 133.42 392 153.27 388.21 153.27 387.06 149.65 378.98 149.65 377.82 153.27 374.03 153.27 380.33 133.42 385.7 133.42"/><polygon points="401.62 141.13 407.83 133.42 412.48 133.42 406.18 141.24 412.71 153.27 408.59 153.27 403.72 144.3 401.62 146.89 401.62 153.27 398 153.27 398 133.42 401.62 133.42 401.62 141.13 401.62 141.13"/><polygon points="425.78 137.47 425.78 143.19 425.78 153.69 422.16 153.69 422.16 143.19 422.16 137.47 417.73 137.47 417.73 133.85 430.22 133.85 430.22 137.47 425.78 137.47"/><path class="c" d="M399.93,18.62l-10.2,4.53-9.07,5.1-7.94.57L371,26l-2.27-1.7-1.13-.57.09,3.59V39.73a19.47,19.47,0,1,0,38.51-.65V31.14l-2.32-2.32Z"/><path class="c" d="M450.89,256.82l-.89,8.8-2.93-1.47A26.13,26.13,0,0,1,443,245.39l-1.13-18.71,3.12.2h9.4l6.16,13.79,2.06,10a13.4,13.4,0,0,1-10,15.26,1.71,1.71,0,0,1-1.76-.58l1.46-10.86Z"/><polygon class="b" points="380.12 146.03 383.02 136.93 385.91 146.03 380.12 146.03"/><line class="c" x1="439.44" y1="206.92" x2="439.73" y2="226"/><polygon class="d" points="104.34 198.32 103.66 276.23 98.75 277.93 83.55 279.31 58.67 282.07 34.48 286.22 10.75 291.96 11.93 245.38 12.99 195.12 104.32 185.96 104.34 198.32"/><path d="M181,173.59l-55.27,6.13L53.6,187.63,0,192.37l.25,2.83,53.63-4.75L126,182.54l53.8-6A2.92,2.92,0,0,1,181,173.59Z"/><path class="c" d="M183.2,180.16l7.27.54a56.93,56.93,0,0,1-6.62,6.28,2.58,2.58,0,0,1-3.06-3.95C181.6,182.08,182.4,181.13,183.2,180.16Z"/><path class="c" d="M196.37,184.5a40,40,0,0,1-3.37,4.31,3.94,3.94,0,0,1-4.06-3.82c0-.12,0-.25,0-.37.76-1.28,1.52-2.57,2.26-3.86l6,.44Z"/><path class="c" d="M203.18,181.64a55.74,55.74,0,0,1-3.08,8,2.58,2.58,0,0,1-4.47-2.23q.81-3.09,1.55-6.2l6,.44"/><path class="c" d="M209,178.61l-4.81,3.1L181.14,180a3.53,3.53,0,0,1-.84-.75,2.83,2.83,0,0,1-.65-2.79,3.37,3.37,0,0,1,3.67-2.67l2.41.26,9.22,1.11,5.21.56-1.11-1.42-6.45-.42-5.48-.88a3,3,0,0,1-.28-4.23,3.78,3.78,0,0,1,.41-.39L192.9,164l7.2.08,6.33,1.21,6.8,1.3,8.39-.23,5.08,13.34-16.27,1.55-1.78,1a38.88,38.88,0,0,1-2.43,6.62,2.41,2.41,0,1,1-4.25-2.29l1.18-5"/><polygon class="e" points="368.75 24.29 367.62 23.72 367.62 22.02 367.62 19.75 368.18 13.52 369.32 9.55 371.02 7.28 374.42 4.44 378.39 2.74 381.79 1.61 384.63 1.61 389.31 1.5 393.27 2.63 395.54 3.2 398.38 4.9 401.21 7.17 402.91 9.44 404.61 12.84 405.75 16.81 406.22 27.2 406.22 31.14 403.9 28.82 399.93 18.62 389.73 23.15 380.66 28.25 372.72 28.82 371.02 25.99 368.75 24.29"/><polygon class="b" points="207.79 296.77 218.06 307.61 216.49 309.1 207.79 299.95 199.12 309.1 197.53 307.61 207.79 296.77"/><rect class="f" x="206.71" y="299.81" width="2.18" height="47.59"/><polygon class="f" points="207.79 296.77 218.06 307.61 216.49 309.1 207.79 299.95 199.12 309.1 197.53 307.61 207.79 296.77"/><path class="g" d="M183.54,358.34a7.79,7.79,0,0,0-.25,1.86v87.1a8.35,8.35,0,0,0,8.36,8.35h32.29a8.35,8.35,0,0,0,8.35-8.35V360.24a7.67,7.67,0,0,0-.22-1.85l-15.41-6.5H199Z"/><path class="h" d="M232.07,358.34a8.33,8.33,0,0,0-8.17-6.49h-7.22v3.76a2.73,2.73,0,0,0,2.73,2.73h12.66Z"/><path class="h" d="M183.54,358.34H196.2a2.72,2.72,0,0,0,2.75-2.71v-3.78h-7.26A8.36,8.36,0,0,0,183.54,358.34Z"/><rect class="i" x="211.65" y="455.57" width="12.78" height="2.65"/><rect class="i" x="191.24" y="455.57" width="12.78" height="2.65"/><rect class="j" x="223.92" y="391.38" width="2.02" height="35.91"/><rect class="j" x="189.66" y="391.38" width="2.02" height="35.91"/><path class="b" d="M189.64,427.31H226v6.76a3.86,3.86,0,0,1-3.84,3.88H193.54a3.87,3.87,0,0,1-3.88-3.84v0h0Z"/><path class="b" d="M196.2,376.09h23.25a6.56,6.56,0,0,1,6.56,6.55h0v8.72H189.69v-8.72a6.52,6.52,0,0,1,6.51-6.55Z"/></svg>