<svg xmlns="http://www.w3.org/2000/svg" viewBox="0 0 295.15 454.21"><defs><style>.a{fill:#7c868d;}.b,.e{fill:#fff;}.c{fill:none;}.c,.d,.e,.f{stroke:#000;}.c,.d,.e{stroke-linecap:round;stroke-linejoin:round;stroke-width:3px;}.f{stroke-miterlimit:10;}.g{fill:#539ede;}.h{fill:#fcd925;}.i{fill:#d8432d;}.j{fill:#0076bc;}</style></defs><title>V2-1 korkortonline.se</title><path class="a" d="M269.41,233.46l-2.93,65.84-2.77,114.91,1.08,3.23,13.08,17.23a10.34,10.34,0,0,1-12,15.38l-6.78-2-10.15-5.53L234,431.13l-2.78-3.23-.77-3.23-.61-61.07L224.47,297l-2.16.16,2.16,78.45,1.38,47.84-1.38,2.92-23.24,19.07-14.62,8.77-8-.46a9.25,9.25,0,0,1-3.69-12.16l14.77-20.46-8.16-121.06-5.84-61.69.19-21.55,1.15-23,.8-6.81,2-10.18,2.18-9.19v-9.08L170.46,125.5,144.92,124l-10-1.08-14.47-5.07,13.64.71,22.14-2.87,16.44-4,14.74-3.41-.91-10.81V74.55l-18.93.31,5.23-3.69,9.08-1.7A38.71,38.71,0,0,0,197,62.55L197,59.2l1.63.17,1-.1.84-.22,3.51-1a8,8,0,0,0,4.69,8.22,8.77,8.77,0,0,1,8.92,2.16,2.36,2.36,0,0,0,4-1.39,28.44,28.44,0,0,0,8.46-8.77l4.11.59a16.75,16.75,0,0,0,8.81,5,68.4,68.4,0,0,0,21.72,8.8A29.54,29.54,0,0,1,280,86.46,191.27,191.27,0,0,1,294,173q-3.19,26.37-4.32,52.92l-19.28-.57V198.7l-1.13-28.92L268.15,155l-2.92,30,.29,5,1.65,8.92L269,217.1Z"/><polygon class="b" points="267.36 125.55 219.18 123.61 170.99 126.44 185.16 162.16 235.62 165.56 267.36 160.67 267.36 125.55"/><path class="c" d="M42.81,54.55a239.57,239.57,0,0,1,111.68-4.37"/><polyline class="d" points="30.73 60.44 42.97 49.09 42.81 54.55 47.09 58.17 30.73 60.44"/><polyline class="d" points="167.02 55.02 153.88 44.74 154.49 50.18 150.53 54.14 167.02 55.02"/><line class="c" x1="196.99" y1="59.2" x2="197.93" y2="59.35"/><line class="c" x1="197.93" y1="59.35" x2="198.62" y2="59.37"/><line class="c" x1="275.81" y1="226.11" x2="285.2" y2="226.11"/><line class="c" x1="195.85" y1="17.32" x2="190.31" y2="19.17"/><line class="c" x1="188.15" y1="20.71" x2="186.61" y2="22.86"/><line class="c" x1="186" y1="25.94" x2="185.69" y2="27.94"/><line class="c" x1="229.86" y1="48.55" x2="226.62" y2="45.94"/><line class="c" x1="226.62" y1="45.94" x2="223.55" y2="42.55"/><line class="c" x1="223.55" y1="42.55" x2="222.31" y2="36.86"/><polygon points="212.32 0 216.85 0.57 219.69 1.13 226.49 3.97 230.46 8.5 233.29 14.17 234.32 23.17 234.16 30.25 232.93 37.78 231.55 48.09 229.86 48.55 226.62 45.94 223.55 42.55 222.32 36.86 223.08 33.02 224.01 30.25 224.16 24.55 223.24 22.09 221.24 20.55 219.24 20.09 216.77 20.86 215.24 22.09 214.47 23.32 214.47 26.09 214.16 28.55 213.54 29.48 212.47 30.09 210.93 29.48 210.62 26.09 210 22.25 209.7 18.86 208.16 17.48 201.39 17.02 195.85 17.32 190.31 19.17 188.15 20.71 186.61 22.86 186 25.94 185.69 27.94 185.1 18.71 185.67 13.04 187.94 7.94 190.77 4.54 194.74 2.27 200.98 0.57 206.08 0 212.32 0"/><line class="c" x1="230.01" y1="58.24" x2="229.86" y2="48.55"/><line class="c" x1="229.86" y1="48.55" x2="226.62" y2="45.94"/><line class="c" x1="226.62" y1="45.94" x2="223.55" y2="42.55"/><line class="c" x1="223.55" y1="42.55" x2="222.31" y2="36.86"/><line class="c" x1="190.31" y1="19.17" x2="188.15" y2="20.71"/><line class="c" x1="186.61" y1="22.86" x2="186" y2="25.94"/><path class="c" d="M201.39,17l6.77.46,1.54,1.38.3,3.39.62,3.84.31,3.39,1.54.61,1.07-.61.62-.93.31-2.46V23.32l.77-1.23,1.53-1.23,2.47-.77,2,.47,2,1.53.92,2.47L224,30.25,223.08,33l-.77,3.84.77-3.84.93-2.77.15-5.69-.93-2.45-2-1.53-2-.47-2.47.77-1.53,1.23-.77,1.23v2.77l-.31,2.46-.62.93-1.07.61-1.54-.61-.31-3.39L210,22.25l-.3-3.39-1.54-1.38L201.39,17l-5.54.3-5.54,1.85-2.16,1.54-1.54,2.15L186,25.92l-.31,2,.15,6.92-.92,1.69.31,4.93,1.84,2,2.62,1.23a13.26,13.26,0,0,0,5.23,13.53,6,6,0,0,0,5.08.93,98.13,98.13,0,0,0,13.23-4.6"/><path class="a" d="M147.83,75.32l19.7-.46,18.93-.31V97.47l.91,10.81-14.74,3.41-16.44,4-22.11,2.84-13.64-.71-9.54-11.54a10.22,10.22,0,0,1,0-10.31,56.16,56.16,0,0,1,27.55-19.69Z"/><path class="e" d="M285.23,226.11l6.17,13.8,2.05,10a13.38,13.38,0,0,1-10,15.26,1.71,1.71,0,0,1-1.76-.58l1.47-10.86-1.47,2.35-.88,8.8-2.94-1.47a26.17,26.17,0,0,1-4-18.76l-1.13-18.71,3.13.2Z"/><line class="c" x1="270.41" y1="225.34" x2="272.33" y2="225.4"/><polygon points="256.9 139.84 256.9 145.56 256.9 156.07 253.28 156.07 253.28 145.56 253.28 139.84 248.85 139.84 248.85 136.22 261.34 136.22 261.34 139.84 256.9 139.84"/><polygon points="231.98 143.5 238.19 135.8 242.84 135.8 236.54 143.62 243.07 155.64 238.95 155.64 234.08 146.67 231.98 149.27 231.98 155.64 228.37 155.64 228.37 135.8 231.98 135.8 231.98 143.5 231.98 143.5"/><polygon points="217.12 135.8 223.43 155.64 219.63 155.64 218.48 152.02 210.4 152.02 209.25 155.64 205.45 155.64 211.75 135.8 217.12 135.8"/><polygon class="b" points="211.55 148.4 214.44 139.3 217.33 148.4 211.55 148.4"/><polygon points="204.62 135.37 198.32 155.21 192.95 155.21 186.65 135.37 190.45 135.37 195.64 151.71 200.83 135.37 204.62 135.37"/><path class="b" d="M233.13,81.78a2,2,0,1,0-.31-4l-13.12.31,10.53-1.23a2,2,0,0,0,.15-3.85l-23.15.77,4.56-1.07,4.79-.64a1.49,1.49,0,0,0,.31-2.92,26,26,0,0,0-15.49.24,8.8,8.8,0,0,0-5.71,3.31q-4.59,2.44-9.23,4.77V92.4l5.38,2.46a276.06,276.06,0,0,0,34.94-2.77,1.57,1.57,0,0,0,.77-2.77L220,89l11.85-1.38a2.43,2.43,0,0,0,1.19-2.09,2.4,2.4,0,0,0-2.4-2.4,2.44,2.44,0,0,0-1.21.33l-9.74.16Z"/><polygon class="b" points="161.46 354.36 150.61 364.63 149.12 363.06 158.27 354.36 149.12 345.69 150.61 344.09 161.46 354.36"/><rect class="f" x="110.82" y="353.28" width="47.59" height="2.18"/><polygon class="f" points="161.46 354.36 150.61 364.63 149.12 363.06 158.27 354.36 149.12 345.69 150.61 344.09 161.46 354.36"/><path class="g" d="M99.88,330.11a7.31,7.31,0,0,0-1.86-.25H10.92a8.35,8.35,0,0,0-8.35,8.35v32.3a8.35,8.35,0,0,0,8.35,8.35H98a8.3,8.3,0,0,0,1.86-.22l6.49-15.42v-17.7Z"/><path class="h" d="M99.88,378.64a8.33,8.33,0,0,0,6.49-8.17v-7.23h-3.76A2.74,2.74,0,0,0,99.88,366v12.66Z"/><path class="h" d="M99.88,330.11v12.66a2.73,2.73,0,0,0,2.71,2.75h3.78v-7.27A8.35,8.35,0,0,0,99.88,330.11Z"/><rect class="i" y="358.22" width="2.65" height="12.78"/><rect class="i" y="337.81" width="2.65" height="12.78"/><rect class="j" x="30.93" y="370.49" width="35.91" height="2.02"/><rect class="j" x="30.93" y="336.23" width="35.91" height="2.02"/><path class="b" d="M30.91,336.21v36.34H24.15a3.85,3.85,0,0,1-3.88-3.83V340.11a3.86,3.86,0,0,1,3.84-3.88h0Z"/><path class="b" d="M82.14,342.77V366a6.56,6.56,0,0,1-6.56,6.56H66.86V336.25h8.72a6.55,6.55,0,0,1,6.56,6.52Z"/></svg>