<svg xmlns="http://www.w3.org/2000/svg" viewBox="0 0 363.01 578.44"><defs><style>.a{fill:#0c479d;}.a,.b{stroke:#0c479d;stroke-linecap:round;stroke-linejoin:round;stroke-width:0.18px;}.b{fill:#fff;}</style></defs><title>X4-1 korkortonline.se</title><polygon class="a" points="0.09 181.51 181.51 0.09 0.09 0.09 0.09 181.51"/><polygon class="a" points="181.51 0.09 362.92 0.09 362.92 181.51 181.51 0.09 181.51 0.09"/><polygon class="b" points="0.09 181.51 181.51 0.09 362.92 181.51 362.92 297.76 181.51 116.34 0.09 297.76 0.09 181.51 0.09 181.51"/><polygon class="a" points="0.09 297.76 181.51 116.34 362.92 297.76 362.92 462.1 181.51 280.68 0.09 462.1 0.09 297.76 0.09 297.76"/><polygon class="b" points="0.09 462.1 181.51 280.68 362.92 462.1 362.92 578.36 181.51 396.94 0.09 578.36 0.09 462.1 0.09 462.1"/><polygon class="a" points="0.09 578.36 181.51 396.94 362.92 578.36 0.09 578.36 0.09 578.36"/></svg>