<svg xmlns="http://www.w3.org/2000/svg" viewBox="0 0 510.24 441.88"><defs><style>.a{fill:#000;}.b{fill:#fff;}.c{fill:none;}.d{fill:#e97300;}.e{fill:#dc0032;}</style></defs><title>X6-1 korkortonline.se</title><polygon class="a" points="108.02 254.79 402.22 254.79 451.32 339.83 58.92 339.83 108.02 254.79 108.02 254.79"/><path class="b" d="M398.36,275.5H387v3.3a16.12,16.12,0,0,0-7.34-3.3,19.2,19.2,0,0,0-10.64.73,21.8,21.8,0,0,0-11,10.64A33,33,0,0,0,358,310a21.06,21.06,0,0,0,12.84,11.37,19,19,0,0,0,8.8,0,18.43,18.43,0,0,0,7.34-3.3V321h11.37Z"/><path class="b" d="M118.29,266a36.71,36.71,0,0,0,0,47.69,24.89,24.89,0,0,0,36.69,0A36.71,36.71,0,0,0,155,266a24.89,24.89,0,0,0-36.69,0Z"/><polygon class="b" points="176.07 320.99 187.44 320.99 187.44 284.3 187.44 258.62 176.07 258.62 176.07 284.3 176.07 320.99"/><path class="b" d="M263.75,317.69a24.59,24.59,0,0,1,0-38.89,21.84,21.84,0,0,1,25.72-.05L282.82,288a10.36,10.36,0,0,0-12.1,0,12.83,12.83,0,0,0,0,20.54,10.33,10.33,0,0,0,12.1,0l6.65,9.23A21.87,21.87,0,0,1,263.75,317.69Z"/><polygon class="b" points="244.48 275.5 232.37 275.5 221.74 304.47 211.11 275.5 199 275.5 215.68 320.97 209.49 337.86 221.6 337.86 244.48 275.5"/><polygon class="b" points="313.99 291.24 313.99 258.62 302.62 258.62 302.62 320.99 313.99 320.99 313.99 307.41 318.42 302.93 330.96 320.99 344.81 320.99 326.56 294.7 345.54 275.5 329.55 275.5 313.99 291.24"/><polygon class="c" points="0 441.88 510.24 441.88 255.12 0 0 441.88"/><polygon class="b" points="369.49 339.83 387.49 371.01 122.74 371.01 140.75 339.83 369.49 339.83 369.49 339.83"/><polygon class="d" points="108.02 339.83 140.75 339.83 122.74 371.01 387.49 371.01 369.49 339.83 402.22 339.83 436.59 399.36 73.65 399.36 108.02 339.83"/><polygon class="e" points="58.92 339.83 0 441.88 510.24 441.88 451.32 339.83 402.22 339.83 436.59 399.36 73.65 399.36 108.02 339.83 58.92 339.83"/><path class="a" d="M387,303.38a10.38,10.38,0,0,1-7.7,7.33,8.06,8.06,0,0,1-6.61-1.46,13.34,13.34,0,0,1-4.77-8.44,18.44,18.44,0,0,1,0-5.14,13.29,13.29,0,0,1,4.77-8.43,8,8,0,0,1,6.61-1.47,10.38,10.38,0,0,1,7.7,7.33Z"/><polygon class="d" points="255.12 85.04 157.11 254.79 189.84 254.79 255.12 141.73 320.39 254.79 353.12 254.79 255.12 85.04"/><polygon class="b" points="189.84 254.79 320.39 254.79 255.12 141.73 189.84 254.79"/><path class="a" d="M126.8,306.1a13.5,13.5,0,0,0,19.67,0,25.33,25.33,0,0,0,0-32.6,13.53,13.53,0,0,0-19.67,0,25.33,25.33,0,0,0,0,32.6Z"/><polygon class="e" points="108.02 254.79 108.02 254.79 255.12 0 402.22 254.79 353.12 254.79 255.12 85.04 157.11 254.79 108.02 254.79"/></svg>