<svg xmlns="http://www.w3.org/2000/svg" viewBox="0 0 411.27 159.7"><defs><style>.a{fill:#ffce00;}.b{fill:#dc0032;}.c{fill:none;stroke:#000;stroke-linecap:round;stroke-linejoin:round;}</style></defs><title>X7-1 korkortonline.se</title><polygon class="a" points="303.83 18.86 275.48 18.86 275.48 4.69 303.83 4.69 303.83 18.8 303.83 18.86"/><polygon class="b" points="303.83 4.69 346.35 4.69 339.13 0.5 296.61 0.5 303.83 4.69"/><rect class="b" x="303.83" y="4.69" width="42.52" height="14.17"/><polygon class="a" points="275.48 4.69 303.83 4.69 296.61 0.5 268.26 0.5 275.48 4.69"/><polygon class="b" points="232.96 4.69 275.48 4.69 268.26 0.5 225.74 0.5 232.96 4.69"/><rect class="b" x="232.96" y="4.69" width="42.52" height="14.17"/><polygon class="a" points="204.62 4.69 232.96 4.69 225.74 0.5 197.4 0.5 204.62 4.69"/><polygon class="a" points="232.96 18.86 204.62 18.86 204.62 4.69 232.96 4.69 232.96 18.8 232.96 18.86"/><polygon class="a" points="162.1 18.86 133.75 18.86 133.75 4.69 162.1 4.69 162.1 18.8 162.1 18.86"/><polygon class="a" points="133.75 4.69 162.1 4.69 154.88 0.5 126.53 0.5 133.75 4.69"/><polygon class="b" points="162.1 4.69 204.62 4.69 197.4 0.5 154.88 0.5 162.1 4.69"/><rect class="b" x="162.1" y="4.69" width="42.52" height="14.17"/><rect class="b" x="91.23" y="4.69" width="42.52" height="14.17"/><polygon class="b" points="91.23 4.69 133.75 4.69 126.53 0.5 84.01 0.5 91.23 4.69"/><polygon class="c" points="0.5 0.5 7.72 4.69 7.72 18.86 0.5 14.67 0.5 0.5"/><line class="c" x1="0.5" y1="0.5" x2="403.55" y2="0.5"/><line class="c" x1="7.72" y1="18.86" x2="410.77" y2="18.86"/><line class="c" x1="410.77" y1="4.69" x2="410.77" y2="18.86"/><line class="c" x1="410.77" y1="4.69" x2="403.55" y2="0.5"/><line class="c" x1="91.23" y1="4.69" x2="7.72" y2="4.69"/><line class="c" x1="346.35" y1="4.69" x2="410.77" y2="4.69"/><line class="c" x1="403.71" y1="18.86" x2="403.71" y2="159.2"/><line class="c" x1="403.71" y1="159.2" x2="397.66" y2="159.2"/><line class="c" x1="397.66" y1="159.2" x2="397.66" y2="18.86"/></svg>