<svg xmlns="http://www.w3.org/2000/svg" viewBox="0 0 846.18 846.18"><defs><style>.a{fill:none;stroke:#7c868d;stroke-linecap:round;stroke-linejoin:round;stroke-width:5px;stroke-dasharray:31.52 7.88;}.b{fill:#dc0032;}</style></defs><title>X8-1 korkortonline.se</title><path class="a" d="M515.53,530a235.9,235.9,0,0,0,25.83-57.83,96.32,96.32,0,0,0,88.95-92V298.67H555.78L558,247H285.5L293,417.83A235.64,235.64,0,0,0,328,530H187.82a12.71,12.71,0,0,0-5.26,20.15,189.91,189.91,0,0,0,120.92,54.33H541.81a189.89,189.89,0,0,0,120.92-54.33A12.71,12.71,0,0,0,657.48,530Z"/><path class="a" d="M548.47,438.86A66,66,0,0,0,597,380.16V332H554.33l-3.75,85.87q-.54,10.55-2,21s0,0,0,0S548.49,438.88,548.47,438.86Z"/><rect class="a" x="160.22" y="160.22" width="525.74" height="525.74"/><path class="a" d="M53,2.5H793.21A50.47,50.47,0,0,1,843.68,53V793.21a50.46,50.46,0,0,1-50.47,50.47H53A50.47,50.47,0,0,1,2.5,793.21V53A50.47,50.47,0,0,1,53,2.5Z"/><line class="a" x1="793.21" y1="2.5" x2="843.68" y2="2.5"/><line class="a" x1="843.68" y1="52.97" x2="843.68" y2="2.5"/><line class="a" x1="52.97" y1="2.5" x2="2.5" y2="2.5"/><line class="a" x1="2.5" y1="52.97" x2="2.5" y2="2.5"/><line class="a" x1="2.5" y1="793.21" x2="2.5" y2="843.68"/><line class="a" x1="52.97" y1="843.68" x2="2.5" y2="843.68"/><line class="a" x1="793.21" y1="843.68" x2="843.68" y2="843.68"/><line class="a" x1="843.68" y1="793.21" x2="843.68" y2="843.68"/><path class="a" d="M27.74,793.21A25.23,25.23,0,0,0,53,818.45"/><path class="a" d="M27.74,793.21V53A25.22,25.22,0,0,1,53,27.74H793.21A25.23,25.23,0,0,1,818.45,53V793.21a25.24,25.24,0,0,1-25.24,25.24H53"/><path class="b" d="M804.12,816A25.32,25.32,0,0,0,816,804.12l-381-381,381-381a25.3,25.3,0,0,0-11.85-11.86l-381,381-381-381A25.27,25.27,0,0,0,30.21,42.07l381,381-381,381A25.3,25.3,0,0,0,42.07,816l381-381Z"/></svg>